<?xml version="1.0" encoding="UTF-8"?>
<svg width="32px" height="32px" viewBox="0 0 32 32" version="1.1" xmlns="http://www.w3.org/2000/svg" xmlns:xlink="http://www.w3.org/1999/xlink">
    <!-- Generator: Sketch 53 (72520) - https://sketchapp.com -->
    <title>消防取水码头</title>
    <desc>Created with Sketch.</desc>
    <defs>
        <rect id="path-1" x="0" y="0" width="28" height="28" rx="14"></rect>
        <filter x="-10.7%" y="-10.7%" width="121.4%" height="121.4%" filterUnits="objectBoundingBox" id="filter-2">
            <feMorphology radius="0.5" operator="dilate" in="SourceAlpha" result="shadowSpreadOuter1"></feMorphology>
            <feOffset dx="0" dy="0" in="shadowSpreadOuter1" result="shadowOffsetOuter1"></feOffset>
            <feGaussianBlur stdDeviation="0.5" in="shadowOffsetOuter1" result="shadowBlurOuter1"></feGaussianBlur>
            <feComposite in="shadowBlurOuter1" in2="SourceAlpha" operator="out" result="shadowBlurOuter1"></feComposite>
            <feColorMatrix values="0 0 0 0 0   0 0 0 0 0   0 0 0 0 0  0 0 0 0.26 0" type="matrix" in="shadowBlurOuter1"></feColorMatrix>
        </filter>
    </defs>
    <g id="其他图标" stroke="none" stroke-width="1" fill="none" fill-rule="evenodd">
        <g id="玉董" transform="translate(-118.000000, -258.000000)">
            <g id="消防取水码头" transform="translate(120.000000, 260.000000)">
                <g id="矩形">
                    <use fill="black" fill-opacity="1" filter="url(#filter-2)" xlink:href="#path-1"></use>
                    <rect stroke="#FFFFFF" stroke-width="1" stroke-linejoin="square" fill="#68AE05" fill-rule="evenodd" x="0.5" y="0.5" width="27" height="27" rx="13.5"></rect>
                </g>
                <path d="M10.067981,7.65263158 L16.4830395,7.65263158 L16.4830395,7.92407215 L17.4392994,7.92407215 L17.4392994,7.65263158 L17.4392994,6.54303448 L9.80191978,6.54303448 C9.65298081,6.34068966 9.46807515,6.188 9.26241948,6.10358621 L9.26241948,5 L8.5172635,5 L8.5172635,6.10358621 C7.97914653,6.32455172 7.58627965,7.01351724 7.58627965,7.82848276 C7.58581853,8.41627586 8.16589664,8.96806897 8.5172635,9.30634483 L8.5172635,19.4 L7.58627965,19.4 L7.58627965,20.4291034 L6,20.4291034 L6,23 L10.5659813,23 L10.5659813,20.4291034 L10.1934033,20.4291034 L10.1934033,19.4 L9.26241948,19.4 L9.26241948,9.30634483 C9.44870847,9.12634483 10.1934033,8.46488185 10.067981,7.65263158 Z M23.6157405,15.6666667 L23.4374441,15.6666667 L23.4704904,15.7048889 L22.4629621,16.0991111 L22.4629621,19.6666667 C22.4629621,19.9024147 22.3819934,20.128507 22.2378681,20.295206 C22.0937428,20.461905 21.898267,20.5555556 21.6944431,20.5555556 L12.4722157,20.5555556 C12.0477744,20.5555556 11.7036968,20.1575864 11.7036968,19.6666667 L11.7036968,16.4511111 L10.7319046,15.8288889 L10.7661037,15.792 L10.5509184,15.792 C10.3386977,15.792 10.1666589,15.5930154 10.1666589,15.3475556 L10.1666589,11.2222222 C10.1666589,10.9767623 10.3386977,10.7777778 10.5509184,10.7777778 L11.0074186,10.7777778 C11.2196393,10.7777778 11.3916781,10.9767623 11.3916781,11.2222222 L11.3916781,15.3471111 C11.3919253,15.4665649 11.3503387,15.5810432 11.2764002,15.6644444 L11.7036968,15.9395556 L11.7036968,11.2222222 C11.7036968,10.7313024 12.0477744,10.3333333 12.4722157,10.3333333 L21.6944431,10.3333333 C22.1188844,10.3333333 22.4629621,10.7313024 22.4629621,11.2222222 L22.4629621,15.6786667 L22.9348327,15.4937778 C22.8796819,15.4174822 22.8487654,15.3216548 22.8472216,15.2222222 L22.8472216,11.2222222 C22.8472216,10.9767623 23.0192604,10.7777778 23.231481,10.7777778 L23.6157405,10.7777778 C23.8279612,10.7777778 24,10.9767623 24,11.2222222 L24,15.2222222 C24,15.4676821 23.8279612,15.6666667 23.6157405,15.6666667 L23.6157405,15.6666667 Z M17.8518484,18.7777778 L21.3101837,18.7777778 C21.5224043,18.7777778 21.6944431,18.5787932 21.6944431,18.3333333 L21.6944431,17.8888889 C21.6944431,17.643429 21.5224043,17.4444444 21.3101837,17.4444444 L17.8518484,17.8888889 C17.6396277,17.8888889 17.4675889,18.0878734 17.4675889,18.3333333 C17.4675889,18.5787932 17.6396277,18.7777778 17.8518484,18.7777778 L17.8518484,18.7777778 Z M12.4722157,18.3333333 C12.4722157,18.5787932 12.6442546,18.7777778 12.8564752,18.7777778 L16.3148105,18.7777778 C16.5270311,18.7777778 16.69907,18.5787932 16.69907,18.3333333 C16.69907,18.0878734 16.5270311,17.8888889 16.3148105,17.8888889 L12.8564752,17.4444444 C12.6442546,17.4444444 12.4722157,17.643429 12.4722157,17.8888889 L12.4722157,18.3333333 L12.4722157,18.3333333 Z M21.6944431,12.7777778 C21.6944431,12.4095879 21.4363849,12.1111111 21.1180539,12.1111111 L13.0486049,12.1111111 C12.895737,12.1111111 12.7491302,12.181349 12.6410362,12.3063733 C12.5329423,12.4313975 12.4722157,12.6009668 12.4722157,12.7777778 L12.4722157,14.5555556 C12.4722157,14.9237454 12.730274,15.2222222 13.0486049,15.2222222 L21.1180539,15.2222222 C21.2709219,15.2222222 21.4175287,15.1519843 21.5256227,15.0269601 C21.6337166,14.9019358 21.6944431,14.7323665 21.6944431,14.5555556 L21.6944431,12.7777778 L21.6944431,12.7777778 Z M18.2361079,9 L19.7731458,9 C20.1975871,9 20.5416647,9.39796911 20.5416647,9.88888889 L18.2361079,9.88888889 L18.2361079,9 L18.2361079,9 Z M16.3148105,9 L17.8518484,9 L17.8518484,9.88888889 L16.3148105,9.88888889 L16.3148105,9 L16.3148105,9 Z M14.3935131,9 L15.930551,9 L15.930551,9.88888889 L13.6249942,9.88888889 C13.6249942,9.88888889 13.9708277,9 14.3935131,9 L14.3935131,9 Z M12.8564752,21 L14.3935131,21 C14.6057338,21 14.7777726,21.1989846 14.7777726,21.4444444 L14.7777726,22.3333333 C14.7777726,22.5787932 14.6057338,22.7777778 14.3935131,22.7777778 L12.8564752,22.7777778 C12.6442546,22.7777778 12.4722157,22.5787932 12.4722157,22.3333333 L12.4722157,21.4444444 C12.4722157,21.1989846 12.6442546,21 12.8564752,21 L12.8564752,21 Z M19.7731458,21 L21.3101837,21 C21.5224043,21 21.6944431,21.1989846 21.6944431,21.4444444 L21.6944431,22.3333333 C21.6944431,22.5787932 21.5224043,22.7777778 21.3101837,22.7777778 L19.7731458,22.7777778 C19.5609251,22.7777778 19.3888863,22.5787932 19.3888863,22.3333333 L19.3888863,21.4444444 C19.3888863,21.1989846 19.5609251,21 19.7731458,21 L19.7731458,21 Z" id="合并形状" fill="#FFFFFF"></path>
            </g>
        </g>
    </g>
</svg>