<?xml version="1.0" encoding="UTF-8"?>
<svg width="32px" height="32px" viewBox="0 0 32 32" version="1.1" xmlns="http://www.w3.org/2000/svg" xmlns:xlink="http://www.w3.org/1999/xlink">
    <!-- Generator: Sketch 53 (72520) - https://sketchapp.com -->
    <title>消防设施</title>
    <desc>Created with Sketch.</desc>
    <defs>
        <rect id="path-1" x="0" y="0" width="28" height="28" rx="14"></rect>
        <filter x="-10.7%" y="-10.7%" width="121.4%" height="121.4%" filterUnits="objectBoundingBox" id="filter-2">
            <feMorphology radius="0.5" operator="dilate" in="SourceAlpha" result="shadowSpreadOuter1"></feMorphology>
            <feOffset dx="0" dy="0" in="shadowSpreadOuter1" result="shadowOffsetOuter1"></feOffset>
            <feGaussianBlur stdDeviation="0.5" in="shadowOffsetOuter1" result="shadowBlurOuter1"></feGaussianBlur>
            <feComposite in="shadowBlurOuter1" in2="SourceAlpha" operator="out" result="shadowBlurOuter1"></feComposite>
            <feColorMatrix values="0 0 0 0 0   0 0 0 0 0   0 0 0 0 0  0 0 0 0.26 0" type="matrix" in="shadowBlurOuter1"></feColorMatrix>
        </filter>
    </defs>
    <g id="其他图标" stroke="none" stroke-width="1" fill="none" fill-rule="evenodd">
        <g id="玉董" transform="translate(-118.000000, -28.000000)">
            <g id="消防设施" transform="translate(120.000000, 30.000000)">
                <g id="矩形">
                    <use fill="black" fill-opacity="1" filter="url(#filter-2)" xlink:href="#path-1"></use>
                    <rect stroke="#FFFFFF" stroke-width="1" stroke-linejoin="square" fill="#68AE05" fill-rule="evenodd" x="0.5" y="0.5" width="27" height="27" rx="13.5"></rect>
                </g>
                <path d="M19.8804051,23 L8.00540506,23 L8.00540506,21.1 L9.19140506,21.1 L9.19140506,16.6 L8.59840506,16.6 C8.26146787,16.5880449 7.99696988,16.3070437 8.00540506,15.97 L8.00540506,12.87 C7.99529094,12.5318009 8.26026594,12.2489524 8.59840506,12.237 L9.19340506,12.237 L9.19340506,8.75 L8.59840506,8.75 C8.26261547,8.73111783 8,8.45332006 8,8.117 C8,7.78067994 8.26261547,7.50288217 8.59840506,7.484 L9.42040506,7.484 C9.68271813,6.8067477 10.1190689,6.2106891 10.6854051,5.756 C11.2896238,5.26864464 11.9990191,4.92866898 12.7574051,4.763 L12.7574051,4.633 C12.7556704,4.46061747 12.8221722,4.29454274 12.9424051,4.171 C13.0494162,4.06198634 13.1956464,4.00039679 13.3484051,4 L14.5374051,4 C14.8755442,4.01195239 15.1405192,4.29480091 15.1304051,4.633 L15.1304051,4.764 C15.889848,4.92923032 16.6003159,5.26922771 17.2054051,5.757 C17.7713709,6.21178029 18.2067988,6.80833726 18.4674051,7.486 L19.2394051,7.486 C19.5751946,7.50488217 19.8378101,7.78267994 19.8378101,8.119 C19.8378101,8.45532006 19.5751946,8.73311783 19.2394051,8.752 L18.6964051,8.752 L18.6964051,12.235 L19.2894051,12.235 C19.6283346,12.2458773 19.8945046,12.5290464 19.8844051,12.868 L19.8844051,15.968 C19.8945046,16.3069536 19.6283346,16.5901227 19.2894051,16.601 L18.6964051,16.601 L18.6964051,21.101 L19.8844051,21.101 L19.8844051,23 L19.8804051,23 Z M13.9424051,11.6 C12.2495626,11.6586838 10.9227266,13.0749292 10.9744051,14.768 C10.9232962,16.4605107 12.2501216,17.8758508 13.9424051,17.934 C15.6348387,17.8758478 16.9619516,16.4606779 16.9114051,14.768 C16.962521,13.074762 15.6353976,11.6586869 13.9424051,11.6 L13.9424051,11.6 Z M13.9424051,16.668 C12.9270402,16.632679 12.131071,15.7835261 12.1614051,14.768 C12.131071,13.7524739 12.9270402,12.903321 13.9424051,12.868 C14.9577699,12.903321 15.7537391,13.7524739 15.7234051,14.768 C15.7537391,15.7835261 14.9577699,16.632679 13.9424051,16.668 L13.9424051,16.668 Z" id="Fill_1" fill="#FFFFFF" fill-rule="nonzero"></path>
            </g>
        </g>
    </g>
</svg>