<?xml version="1.0" encoding="UTF-8"?>
<svg width="32px" height="32px" viewBox="0 0 32 32" version="1.1" xmlns="http://www.w3.org/2000/svg" xmlns:xlink="http://www.w3.org/1999/xlink">
    <!-- Generator: Sketch 53 (72520) - https://sketchapp.com -->
    <title>消防码头</title>
    <desc>Created with Sketch.</desc>
    <defs>
        <rect id="path-1" x="0" y="0" width="28" height="28" rx="14"></rect>
        <filter x="-10.7%" y="-10.7%" width="121.4%" height="121.4%" filterUnits="objectBoundingBox" id="filter-2">
            <feMorphology radius="0.5" operator="dilate" in="SourceAlpha" result="shadowSpreadOuter1"></feMorphology>
            <feOffset dx="0" dy="0" in="shadowSpreadOuter1" result="shadowOffsetOuter1"></feOffset>
            <feGaussianBlur stdDeviation="0.5" in="shadowOffsetOuter1" result="shadowBlurOuter1"></feGaussianBlur>
            <feComposite in="shadowBlurOuter1" in2="SourceAlpha" operator="out" result="shadowBlurOuter1"></feComposite>
            <feColorMatrix values="0 0 0 0 0   0 0 0 0 0   0 0 0 0 0  0 0 0 0.26 0" type="matrix" in="shadowBlurOuter1"></feColorMatrix>
        </filter>
    </defs>
    <g id="其他图标" stroke="none" stroke-width="1" fill="none" fill-rule="evenodd">
        <g id="玉董" transform="translate(-453.000000, -30.000000)">
            <g id="消防码头" transform="translate(455.000000, 32.000000)">
                <g id="矩形">
                    <use fill="black" fill-opacity="1" filter="url(#filter-2)" xlink:href="#path-1"></use>
                    <rect stroke="#FFFFFF" stroke-width="1" stroke-linejoin="square" fill="#68AE05" fill-rule="evenodd" x="0.5" y="0.5" width="27" height="27" rx="13.5"></rect>
                </g>
                <path d="M11.752,22.488 C11.3421452,23.1146816 10.636599,23.4839639 9.88807029,23.4635791 C9.13954157,23.4431943 8.4551396,23.0360595 8.08,22.388 C7.84088491,22.7373559 7.43856579,22.938769 7.01559379,22.9208741 C6.59262178,22.9029791 6.20875255,22.6683041 6,22.3 C6,22.269 6.014,22.238 6.021,22.207 C6.66576788,22.5806914 7.46123212,22.5806914 8.106,22.207 C9.2393444,22.8666185 10.6396556,22.8666185 11.773,22.207 C13.3057557,23.0960043 15.1972443,23.0960043 16.73,22.207 L16.73,22.207 C17.861937,22.8665328 19.261063,22.8665328 20.393,22.207 C20.406,22.262 20.415,22.318 20.426,22.372 C20.0524399,23.0343207 19.3565455,23.4497795 18.5962804,23.4643683 C17.8360154,23.4789572 17.1246945,23.0905018 16.726,22.443 L16.726,22.528 C16.2394491,23.4289095 15.2763257,23.9677443 14.254,23.911 C13.213952,23.9647883 12.2374199,23.4093906 11.752,22.488 L11.752,22.488 Z M20.427,22.299 C20.437,22.268 20.442,22.237 20.45,22.206 C21.0944585,22.5795128 21.8895415,22.5795128 22.534,22.206 L22.534,22.393 C22.5300988,22.3835386 22.5267597,22.3738551 22.524,22.364 C22.2902451,22.7244678 21.8851035,22.9365618 21.4556833,22.9232703 C21.0262631,22.9099787 20.6350141,22.6732344 20.424,22.299 L20.427,22.299 Z M10.11,21.339 C9.583,18.331 7.51,15.502 6.21,12.584 C8.50529714,11.2162829 10.9862996,10.1876403 13.576,9.53 C13.876,14.224 14.002,18.467 13.859,22.161 C12.5700043,22.1151972 11.2999094,21.8367182 10.11,21.339 L10.11,21.339 Z M14.71,9.508 C17.331,10.008 19.835,11.408 22.182,12.584 C20.882,15.502 18.811,18.331 18.282,21.339 C17.0084566,21.7825367 15.6807365,22.0516464 14.335,22.139 C14.248,17.976 14.419,13.759 14.707,9.508 L14.71,9.508 Z M16.769,14.052 C16.7146332,14.3873885 16.5361599,14.6900791 16.269,14.9 C15.6056914,15.4389572 15.4559839,16.3915629 15.922,17.108 C16.2900454,17.6840661 16.9701319,17.9800811 17.6425394,17.8568836 C18.3149469,17.733686 18.8459087,17.2157843 18.9858107,16.5466528 C19.1257128,15.8775213 18.8467233,15.1902751 18.28,14.808 C18.225,14.772 18.218,15.14 18.151,15.508 C18.08,15.895 17.941,16.282 17.607,16.199 C17.39,16.145 17.553,15.558 17.698,15.063 C17.840425,14.5933506 17.6654364,14.0853193 17.264,13.803 C17.1013352,13.6934032 16.9238856,13.6075405 16.737,13.548 C16.7852651,13.7115208 16.7955262,13.8839083 16.767,14.052 L16.769,14.052 Z M14.184,8.409 C12.7237019,8.68218875 11.296184,9.10819844 9.925,9.68 L9.925,6.1 L9.119,6.1 L9.119,5 L19.2,5 L19.2,6.1 L18.45,6.1 L18.45,9.7 C17.0827119,9.10424982 15.6502556,8.67095529 14.182,8.409 L14.184,8.409 Z M15.723,7.647 L17.9,7.647 L17.9,6.547 L15.722,6.547 L15.723,7.647 Z M13.075,7.647 L15.251,7.647 L15.251,6.547 L13.075,6.547 L13.075,7.647 Z M10.414,7.647 L12.59,7.647 L12.59,6.547 L10.414,6.547 L10.414,7.647 Z" id="联合_10" fill="#FFFFFF" fill-rule="nonzero"></path>
            </g>
        </g>
    </g>
</svg>