<?xml version="1.0" encoding="UTF-8"?>
<svg width="32px" height="32px" viewBox="0 0 32 32" version="1.1" xmlns="http://www.w3.org/2000/svg" xmlns:xlink="http://www.w3.org/1999/xlink">
    <!-- Generator: Sketch 53 (72520) - https://sketchapp.com -->
    <title>消防栓</title>
    <desc>Created with Sketch.</desc>
    <defs>
        <rect id="path-1" x="0" y="0" width="28" height="28" rx="14"></rect>
        <filter x="-10.7%" y="-10.7%" width="121.4%" height="121.4%" filterUnits="objectBoundingBox" id="filter-2">
            <feMorphology radius="0.5" operator="dilate" in="SourceAlpha" result="shadowSpreadOuter1"></feMorphology>
            <feOffset dx="0" dy="0" in="shadowSpreadOuter1" result="shadowOffsetOuter1"></feOffset>
            <feGaussianBlur stdDeviation="0.5" in="shadowOffsetOuter1" result="shadowBlurOuter1"></feGaussianBlur>
            <feComposite in="shadowBlurOuter1" in2="SourceAlpha" operator="out" result="shadowBlurOuter1"></feComposite>
            <feColorMatrix values="0 0 0 0 0   0 0 0 0 0   0 0 0 0 0  0 0 0 0.26 0" type="matrix" in="shadowBlurOuter1"></feColorMatrix>
        </filter>
    </defs>
    <g id="其他图标" stroke="none" stroke-width="1" fill="none" fill-rule="evenodd">
        <g id="玉董" transform="translate(-118.000000, -117.000000)">
            <g id="消防栓" transform="translate(120.000000, 119.000000)">
                <g id="矩形">
                    <use fill="black" fill-opacity="1" filter="url(#filter-2)" xlink:href="#path-1"></use>
                    <rect stroke="#FFFFFF" stroke-width="1" stroke-linejoin="square" fill="#68AE05" fill-rule="evenodd" x="0.5" y="0.5" width="27" height="27" rx="13.5"></rect>
                </g>
                <path d="M8.392,23.698 C8.13376732,23.737145 7.87657186,23.6212679 7.73480646,23.4019075 C7.59304106,23.182547 7.59304106,22.900453 7.73480646,22.6810925 C7.87657186,22.4617321 8.13376732,22.345855 8.392,22.385 L18.492,22.385 C18.7502327,22.345855 19.0074281,22.4617321 19.1491935,22.6810925 C19.2909589,22.900453 19.2909589,23.182547 19.1491935,23.4019075 C19.0074281,23.6212679 18.7502327,23.737145 18.492,23.698 L8.392,23.698 Z M9.192,21.865 L9.192,10.939 L17.703,10.939 L17.703,21.865 L9.192,21.865 Z M10.992,15.618 C10.8381715,16.645307 11.3395549,17.6599041 12.2490453,18.1617509 C13.1585357,18.6635976 14.2842131,18.5467948 15.0712917,17.8689081 C15.8583703,17.1910215 16.1407613,16.0950982 15.7792894,15.1212599 C15.4178175,14.1474216 14.4887603,13.5011669 13.45,13.501 C12.1862748,13.4096422 11.0855474,14.3549727 10.985,15.618 L10.992,15.618 Z M18.308,17.735 L18.308,13.498 L20.083,13.498 C20.3273319,13.4807735 20.5398357,13.6638125 20.559,13.908 L20.559,17.321 C20.5398289,17.565322 20.3275067,17.7486506 20.083,17.732 L18.308,17.735 Z M6.815,17.735 C6.57049329,17.7516506 6.35817114,17.568322 6.339,17.324 L6.339,13.911 C6.35868765,13.6670781 6.57085324,13.4843304 6.815,13.501 L8.59,13.501 L8.59,17.735 L6.815,17.735 Z M11.778,15.618 C11.6726319,14.9192647 12.0131149,14.2287391 12.6315658,13.8869031 C13.2500168,13.545067 14.0158553,13.6240962 14.5514668,14.0850233 C15.0870782,14.5459505 15.279373,15.2914549 15.0335357,15.9539483 C14.7876984,16.6164418 14.1556353,17.0560444 13.449,17.056 C12.5895367,17.1192338 11.8401261,16.4770094 11.771,15.618 L11.778,15.618 Z M21.162,16.559 L21.162,14.677 L22.892,14.677 L22.892,16.559 L21.162,16.559 Z M4,16.559 L4,14.677 L5.736,14.677 L5.736,16.559 L4,16.559 Z M8.923,10.42 C8.56421511,10.4470026 8.25118803,10.1786937 8.223,9.82 L8.223,7.871 C8.25118803,7.5123063 8.56421511,7.24399737 8.923,7.271 L17.975,7.271 C18.3337849,7.24399737 18.646812,7.5123063 18.675,7.871 L18.675,9.82 L18.675,9.82 C18.6462838,10.178425 18.3336001,10.4464396 17.975,10.42 L8.923,10.42 Z M9.193,6.752 C9.32204502,4.81300874 10.8642624,3.26780095 12.803,3.135 L12.803,2.392 C12.803,2.175 13.093,2 13.449,2 C13.805,2 14.095,2.176 14.095,2.392 L14.095,3.135 C16.0335442,3.26822556 17.57553,4.81320134 17.705,6.752 L9.193,6.752 Z" id="联合_11" fill="#FFFFFF" fill-rule="nonzero"></path>
            </g>
        </g>
    </g>
</svg>