<?xml version="1.0" encoding="UTF-8"?>
<svg width="32px" height="32px" viewBox="0 0 32 32" version="1.1" xmlns="http://www.w3.org/2000/svg" xmlns:xlink="http://www.w3.org/1999/xlink">
    <!-- Generator: Sketch 53 (72520) - https://sketchapp.com -->
    <title>消防通道</title>
    <desc>Created with Sketch.</desc>
    <defs>
        <rect id="path-1" x="0" y="0" width="28" height="28" rx="14"></rect>
        <filter x="-10.7%" y="-10.7%" width="121.4%" height="121.4%" filterUnits="objectBoundingBox" id="filter-2">
            <feMorphology radius="0.5" operator="dilate" in="SourceAlpha" result="shadowSpreadOuter1"></feMorphology>
            <feOffset dx="0" dy="0" in="shadowSpreadOuter1" result="shadowOffsetOuter1"></feOffset>
            <feGaussianBlur stdDeviation="0.5" in="shadowOffsetOuter1" result="shadowBlurOuter1"></feGaussianBlur>
            <feComposite in="shadowBlurOuter1" in2="SourceAlpha" operator="out" result="shadowBlurOuter1"></feComposite>
            <feColorMatrix values="0 0 0 0 0   0 0 0 0 0   0 0 0 0 0  0 0 0 0.26 0" type="matrix" in="shadowBlurOuter1"></feColorMatrix>
        </filter>
    </defs>
    <g id="其他图标" stroke="none" stroke-width="1" fill="none" fill-rule="evenodd">
        <g id="玉董" transform="translate(-120.000000, -355.000000)">
            <g id="消防通道" transform="translate(122.000000, 357.000000)">
                <g id="矩形">
                    <use fill="black" fill-opacity="1" filter="url(#filter-2)" xlink:href="#path-1"></use>
                    <rect stroke="#FFFFFF" stroke-width="1" stroke-linejoin="square" fill="#68AE05" fill-rule="evenodd" x="0.5" y="0.5" width="27" height="27" rx="13.5"></rect>
                </g>
                <path d="M10.915317,22.6987557 C10.6118809,22.2434658 10.2819801,21.8063806 9.92731696,21.3897557 C10.1739489,21.2188672 10.4807779,21.158832 10.7736294,21.2241633 C11.0664809,21.2894947 11.3187011,21.4742464 11.469317,21.7337557 L12.755317,23.4197557 C12.5913331,23.4815828 12.4175688,23.5134226 12.242317,23.5137557 C11.6830151,23.5093951 11.1721338,23.1956285 10.915317,22.6987557 Z M7.91531696,23.4767557 C6.89747042,23.3911851 6.10037773,22.5650139 6.05131696,21.5447557 C6.01444707,21.2244473 5.99741458,20.902166 6.00031696,20.5797557 L6.00031696,7.01375567 C6.13031696,5.55475567 6.62431696,5.00475567 7.98031696,5.00475567 L20.443317,5.00475567 C20.8714895,4.97067688 21.2938581,5.12092512 21.604317,5.41775567 C21.9209981,5.72172058 22.1013295,6.14081071 22.104317,6.57975567 C22.130317,7.10675567 22.130317,7.63575567 22.104317,8.16275567 L22.104317,21.6287557 C22.104317,22.7007557 21.797317,23.2077557 21.042317,23.4107557 C20.5698229,23.5648576 20.050956,23.4224544 19.723317,23.0487557 C18.8003522,22.1169685 18.3365623,20.8247993 18.456317,19.5187557 C18.480317,19.2387557 18.512317,18.9537557 18.512317,18.6187557 L20.049317,18.4497557 C19.6776029,17.9419786 19.2751852,17.4574075 18.844317,16.9987557 C18.5887489,16.7750179 18.4525825,16.4445923 18.476317,16.1057557 L18.476317,6.64875567 C18.247317,6.62975567 18.037317,6.60475567 17.833317,6.60475567 L9.24331696,6.60475567 C8.64331696,6.60475567 8.60431696,6.65275567 8.60431696,7.30475567 L8.60431696,12.6177557 C9.38231696,12.7767557 10.030317,12.7577557 10.468317,11.9407557 C10.7436503,11.5234223 11.0386503,11.121089 11.353317,10.7337557 C11.622844,10.2970094 12.1075916,10.0402883 12.620317,10.0627557 C13.636317,10.0767557 14.661317,10.0627557 15.676317,10.1147557 C15.9691031,10.1527066 16.2361437,10.3016193 16.422317,10.5307557 C16.8123508,11.0352399 17.1611438,11.5703011 17.465317,12.1307557 C17.5350799,12.3656764 17.5605129,12.6115289 17.540317,12.8557557 C17.3270006,12.7917865 17.1246781,12.6956833 16.940317,12.5707557 C16.7025121,12.3477985 16.4953682,12.0942489 16.324317,11.8167557 C15.8840557,11.1799364 15.095833,10.8817653 14.344317,11.0677557 C14.050317,11.0917557 14.037317,11.2677557 14.144317,11.5077557 C14.354317,12.0077557 14.535317,12.5167557 14.778317,13.0007557 C15.2797988,13.9909904 15.49881,15.1002324 15.411317,16.2067557 C15.337317,17.4427557 15.285317,17.3427557 16.403317,17.3427557 C16.9131451,17.3627557 17.4237493,17.3467158 17.931317,17.2947557 C18.649317,17.1947557 19.044317,17.5797557 19.510317,18.2947557 L15.061317,18.2947557 C14.883906,18.3246991 14.7028127,18.2686641 14.573317,18.1437557 C14.4402041,18.0166138 14.371506,17.8362352 14.386317,17.6527557 C14.3356503,16.944089 14.2749836,16.2404223 14.204317,15.5417557 C14.181317,15.3007557 14.125317,15.0637557 14.055317,14.6577557 C13.8993725,14.8662901 13.7561137,15.0840167 13.626317,15.3097557 C12.909317,16.8027557 12.159317,18.2747557 11.511317,19.7967557 C11.3198148,20.5498351 10.5547856,21.005721 9.80131696,20.8157557 C10.118317,20.1057557 10.435317,19.4007557 10.756317,18.6957557 C11.305317,17.5027557 11.846317,16.2807557 12.414317,15.0877557 C12.6179943,14.6956265 12.6179943,14.2288849 12.414317,13.8367557 C12.125317,13.2427557 11.878317,12.6097557 11.575317,11.9047557 C11.275317,12.3147557 11.035317,12.6677557 10.811317,13.0487557 C10.6284891,13.389088 10.2650272,13.5926578 9.87931696,13.5707557 C9.66931696,13.5707557 9.49331696,13.5707557 9.34531696,13.5707557 C8.43131696,13.5617557 8.60831696,13.5527557 8.60831696,14.8247557 C8.59831696,16.7857557 8.59831696,18.7467557 8.63631696,20.7077557 C8.66167606,21.0565207 8.78431808,21.3911879 8.99031696,21.6737557 C9.41931696,22.2677557 9.91831696,22.7987557 10.472317,23.4607557 C9.73131696,23.4607557 9.08231696,23.4747557 8.46031696,23.4747557 C8.27731696,23.4827557 8.10031696,23.4817557 7.91531696,23.4777557 L7.91531696,23.4767557 Z M10.415317,8.56775567 L10.392317,8.56775567 C10.3999981,8.13903692 10.6358145,7.74698231 11.0109365,7.53927505 C11.3860584,7.33156778 11.8434958,7.33976353 12.2109366,7.56077505 C12.5783773,7.78178656 12.7999982,8.18203692 12.792317,8.61075567 C12.8211893,9.05858882 12.5960941,9.48468648 12.2098999,9.71325185 C11.8237056,9.94181722 11.3418678,9.93411106 10.9631802,9.69331273 C10.5844926,9.4525144 10.3731384,9.01943649 10.416317,8.57275567 L10.415317,8.56775567 Z" id="联合_8" fill="#FFFFFF" fill-rule="nonzero"></path>
            </g>
        </g>
    </g>
</svg>