<?xml version="1.0" encoding="UTF-8"?>
<svg width="32px" height="32px" viewBox="0 0 32 32" version="1.1" xmlns="http://www.w3.org/2000/svg" xmlns:xlink="http://www.w3.org/1999/xlink">
    <!-- Generator: Sketch 53 (72520) - https://sketchapp.com -->
    <title>消防水源</title>
    <desc>Created with Sketch.</desc>
    <defs>
        <rect id="path-1" x="0" y="0" width="28" height="28" rx="14"></rect>
        <filter x="-10.7%" y="-10.7%" width="121.4%" height="121.4%" filterUnits="objectBoundingBox" id="filter-2">
            <feMorphology radius="0.5" operator="dilate" in="SourceAlpha" result="shadowSpreadOuter1"></feMorphology>
            <feOffset dx="0" dy="0" in="shadowSpreadOuter1" result="shadowOffsetOuter1"></feOffset>
            <feGaussianBlur stdDeviation="0.5" in="shadowOffsetOuter1" result="shadowBlurOuter1"></feGaussianBlur>
            <feComposite in="shadowBlurOuter1" in2="SourceAlpha" operator="out" result="shadowBlurOuter1"></feComposite>
            <feColorMatrix values="0 0 0 0 0   0 0 0 0 0   0 0 0 0 0  0 0 0 0.26 0" type="matrix" in="shadowBlurOuter1"></feColorMatrix>
        </filter>
    </defs>
    <g id="其他图标" stroke="none" stroke-width="1" fill="none" fill-rule="evenodd">
        <g id="玉董" transform="translate(-118.000000, -162.000000)">
            <g id="消防水源" transform="translate(120.000000, 164.000000)">
                <g id="矩形">
                    <use fill="black" fill-opacity="1" filter="url(#filter-2)" xlink:href="#path-1"></use>
                    <rect stroke="#FFFFFF" stroke-width="1" stroke-linejoin="square" fill="#68AE05" fill-rule="evenodd" x="0.5" y="0.5" width="27" height="27" rx="13.5"></rect>
                </g>
                <path d="M19.739,21.223 C19.2403005,21.2108167 18.7568886,21.0484014 18.352,20.757 L17.612,20.151 C17.3489099,19.9637719 16.9960901,19.9637719 16.733,20.151 L15.993,20.757 C15.1847408,21.3633334 14.0732592,21.3633334 13.265,20.757 L12.525,20.151 C12.2619099,19.9637719 11.9090901,19.9637719 11.646,20.151 L10.906,20.757 C10.0977408,21.3633334 8.98625925,21.3633334 8.178,20.757 L7.438,20.151 C7.17490986,19.9637719 6.82209014,19.9637719 6.559,20.151 L5.541,20.943 C5.38317953,21.0703507 5.18006129,21.127455 4.97900006,21.1009996 C4.77793882,21.0745441 4.59650577,20.966841 4.477,20.803 C4.246,20.477 4.292,20.29 4.616,20.057 L5.633,19.264 C6.44137033,18.6579999 7.55262967,18.6579999 8.361,19.264 L9.101,19.87 C9.36409014,20.0572281 9.71690986,20.0572281 9.98,19.87 L10.72,19.264 C11.5285741,18.6575 12.6404259,18.6575 13.449,19.264 L14.188,19.87 C14.4511868,20.0569255 14.8038132,20.0569255 15.067,19.87 L15.806,19.264 C16.6145741,18.6575 17.7264259,18.6575 18.535,19.264 L19.275,19.87 C19.5380901,20.0572281 19.8909099,20.0572281 20.154,19.87 L20.894,19.264 C21.7022592,18.6576666 22.8137408,18.6576666 23.622,19.264 L24.362,19.87 C24.686,20.15 24.778,20.29 24.501,20.616 C24.3814942,20.779841 24.2000612,20.8875441 23.9989999,20.9139996 C23.7979387,20.940455 23.5948205,20.8833507 23.437,20.756 L22.697,20.15 C22.4339099,19.9627719 22.0810901,19.9627719 21.818,20.15 L21.078,20.756 C20.6902306,21.0468074 20.2215433,21.2096771 19.737,21.222 L19.739,21.223 Z M19.739,17.212 C19.2402049,17.1994625 18.7568012,17.0367014 18.352,16.745 L17.612,16.139 C17.3489099,15.9517719 16.9960901,15.9517719 16.733,16.139 L15.993,16.745 C15.1847408,17.3513334 14.0732592,17.3513334 13.265,16.745 L12.525,16.139 C12.2619099,15.9517719 11.9090901,15.9517719 11.646,16.139 L10.906,16.745 C10.0977408,17.3513334 8.98625925,17.3513334 8.178,16.745 L7.438,16.139 C7.17490986,15.9517719 6.82209014,15.9517719 6.559,16.139 L5.541,16.932 C5.38317953,17.0593507 5.18006129,17.116455 4.97900006,17.0899996 C4.77793882,17.0635441 4.59650577,16.955841 4.477,16.792 C4.246,16.465 4.292,16.279 4.616,16.046 L5.633,15.253 C6.44137033,14.6469999 7.55262967,14.6469999 8.361,15.253 L9.101,15.859 C9.36409014,16.0462281 9.71690986,16.0462281 9.98,15.859 L10.72,15.253 C11.5285741,14.6465 12.6404259,14.6465 13.449,15.253 L14.188,15.859 C14.4511868,16.0459255 14.8038132,16.0459255 15.067,15.859 L15.806,15.253 C16.6145741,14.6465 17.7264259,14.6465 18.535,15.253 L19.275,15.859 C19.5380901,16.0462281 19.8909099,16.0462281 20.154,15.859 L20.894,15.253 C21.7022592,14.6466666 22.8137408,14.6466666 23.622,15.253 L24.362,15.859 C24.686,16.139 24.778,16.279 24.501,16.605 C24.3814942,16.768841 24.2000612,16.8765441 23.9989999,16.9029996 C23.7979387,16.929455 23.5948205,16.8723507 23.437,16.745 L22.697,16.139 C22.4339099,15.9517719 22.0810901,15.9517719 21.818,16.139 L21.078,16.745 C20.6903199,17.0361054 20.2216416,17.1993215 19.737,17.212 L19.739,17.212 Z M19.739,13.201 C19.2402049,13.1884625 18.7568012,13.0257014 18.352,12.734 L17.612,12.128 C17.3489099,11.9407719 16.9960901,11.9407719 16.733,12.128 L15.993,12.734 C15.1847408,13.3403334 14.0732592,13.3403334 13.265,12.734 L12.525,12.128 C12.2619099,11.9407719 11.9090901,11.9407719 11.646,12.128 L10.906,12.734 C10.0977408,13.3403334 8.98625925,13.3403334 8.178,12.734 L7.438,12.128 C7.17490986,11.9407719 6.82209014,11.9407719 6.559,12.128 L5.541,12.921 C5.38317953,13.0483507 5.18006129,13.105455 4.97900006,13.0789996 C4.77793882,13.0525441 4.59650577,12.944841 4.477,12.781 C4.246,12.455 4.292,12.268 4.616,12.035 L5.633,11.242 C6.44137033,10.6359999 7.55262967,10.6359999 8.361,11.242 L9.101,11.849 C9.36428286,12.0356239 9.71671714,12.0356239 9.98,11.849 L10.72,11.242 C11.5285741,10.6355 12.6404259,10.6355 13.449,11.242 L14.188,11.849 C14.4513785,12.0353235 14.8036215,12.0353235 15.067,11.849 L15.806,11.242 C16.6145741,10.6355 17.7264259,10.6355 18.535,11.242 L19.275,11.849 C19.5382829,12.0356239 19.8907171,12.0356239 20.154,11.849 L20.894,11.242 C21.7022592,10.6356666 22.8137408,10.6356666 23.622,11.242 L24.362,11.849 C24.686,12.129 24.778,12.268 24.501,12.595 C24.3816733,12.7590844 24.2002106,12.8669794 23.9990588,12.8934468 C23.797907,12.9199141 23.5947105,12.8626322 23.437,12.735 L22.697,12.129 C22.4339099,11.9417719 22.0810901,11.9417719 21.818,12.129 L21.078,12.735 C20.6903199,13.0261054 20.2216416,13.1893215 19.737,13.202 L19.739,13.201 Z M19.739,9.19 C19.240194,9.17752442 18.7567724,9.01475739 18.352,8.723 L17.612,8.117 C17.3487171,7.93037607 16.9962829,7.93037607 16.733,8.117 L15.993,8.723 C15.184852,9.32966703 14.073148,9.32966703 13.265,8.723 L12.525,8.117 C12.2617171,7.93037607 11.9092829,7.93037607 11.646,8.117 L10.906,8.723 C10.097852,9.32966703 8.98614797,9.32966703 8.178,8.723 L7.438,8.117 C7.17471714,7.93037607 6.82228286,7.93037607 6.559,8.117 L5.541,8.91 C5.38317953,9.03735073 5.18006129,9.09445499 4.97900006,9.06799957 C4.77793882,9.04154414 4.59650577,8.93384102 4.477,8.77 C4.246,8.444 4.292,8.257 4.616,8.024 L5.633,7.231 C6.44137033,6.62499991 7.55262967,6.62499991 8.361,7.231 L9.101,7.837 C9.36409014,8.02422808 9.71690986,8.02422808 9.98,7.837 L10.72,7.231 C11.5285741,6.62449999 12.6404259,6.62449999 13.449,7.231 L14.188,7.837 C14.4511868,8.02392546 14.8038132,8.02392546 15.067,7.837 L15.806,7.231 C16.6145741,6.62449999 17.7264259,6.62449999 18.535,7.231 L19.275,7.837 C19.5380901,8.02422808 19.8909099,8.02422808 20.154,7.837 L20.894,7.231 C21.7022592,6.62466664 22.8137408,6.62466664 23.622,7.231 L24.362,7.837 C24.686,8.117 24.778,8.257 24.501,8.583 C24.3814942,8.74684102 24.2000612,8.85454414 23.9989999,8.88099957 C23.7979387,8.90745499 23.5948205,8.85035073 23.437,8.723 L22.697,8.117 C22.4337171,7.93037607 22.0812829,7.93037607 21.818,8.117 L21.078,8.723 C20.6903199,9.0141054 20.2216416,9.17732147 19.737,9.19 L19.739,9.19 Z" id="路径_64" fill="#FFFFFF" fill-rule="nonzero"></path>
            </g>
        </g>
    </g>
</svg>