<?xml version="1.0" encoding="UTF-8"?>
<svg width="32px" height="32px" viewBox="0 0 32 32" version="1.1" xmlns="http://www.w3.org/2000/svg" xmlns:xlink="http://www.w3.org/1999/xlink">
    <!-- Generator: Sketch 53 (72520) - https://sketchapp.com -->
    <title>消防水池</title>
    <desc>Created with Sketch.</desc>
    <defs>
        <rect id="path-1" x="0" y="0" width="28" height="28" rx="14"></rect>
        <filter x="-10.7%" y="-10.7%" width="121.4%" height="121.4%" filterUnits="objectBoundingBox" id="filter-2">
            <feMorphology radius="0.5" operator="dilate" in="SourceAlpha" result="shadowSpreadOuter1"></feMorphology>
            <feOffset dx="0" dy="0" in="shadowSpreadOuter1" result="shadowOffsetOuter1"></feOffset>
            <feGaussianBlur stdDeviation="0.5" in="shadowOffsetOuter1" result="shadowBlurOuter1"></feGaussianBlur>
            <feComposite in="shadowBlurOuter1" in2="SourceAlpha" operator="out" result="shadowBlurOuter1"></feComposite>
            <feColorMatrix values="0 0 0 0 0   0 0 0 0 0   0 0 0 0 0  0 0 0 0.26 0" type="matrix" in="shadowBlurOuter1"></feColorMatrix>
        </filter>
    </defs>
    <g id="其他图标" stroke="none" stroke-width="1" fill="none" fill-rule="evenodd">
        <g id="玉董" transform="translate(-118.000000, -305.000000)">
            <g id="消防水池" transform="translate(120.000000, 307.000000)">
                <g id="矩形">
                    <use fill="black" fill-opacity="1" filter="url(#filter-2)" xlink:href="#path-1"></use>
                    <rect stroke="#FFFFFF" stroke-width="1" stroke-linejoin="square" fill="#68AE05" fill-rule="evenodd" x="0.5" y="0.5" width="27" height="27" rx="13.5"></rect>
                </g>
                <path d="M4.171,21.641 L4.171,8.359 L8,8.359 L8,10.279 C8.28659332,10.4708094 8.61732685,10.5864457 8.961,10.615 C9.45057139,10.5518864 9.9107138,10.3459875 10.284,10.023 L10.656,9.703 L11.026,10.023 C11.362747,10.3998105 11.844144,10.6152182 12.3495,10.6152182 C12.854856,10.6152182 13.336253,10.3998105 13.673,10.023 L14.046,9.701 L14.415,10.023 C14.7515646,10.399764 15.2328002,10.6151595 15.738,10.6151595 C16.2431998,10.6151595 16.7244354,10.399764 17.061,10.023 L17.432,9.703 L17.803,10.023 C18.1758661,10.3466467 18.636217,10.552639 19.126,10.615 C19.2478039,10.6127021 19.3686693,10.5931751 19.485,10.557 L19.485,8.359 L23.313,8.359 L23.313,21.64 L4.171,21.641 Z M7.999,17.361 L19.484,17.361 L19.484,11.752 C19.3653186,11.7715074 19.245273,11.7815391 19.125,11.782 C18.5158208,11.7490867 17.9284501,11.5441658 17.431,11.191 C15.7188981,10.807843 13.9274832,11.0161717 12.349,11.782 C11.7401335,11.7490628 11.1530904,11.5441352 10.656,11.191 C10.1585499,11.5441658 9.57117924,11.7490867 8.962,11.782 C8.63191397,11.7765917 8.30583706,11.7087297 8.001,11.582 L7.999,17.361 Z M16.199,16.445 C16.042222,16.2847056 15.9814314,16.0537014 16.039,15.837 C16.0947127,15.62146 16.2613724,15.4521306 16.476,15.393 C16.6907599,15.3339057 16.9206622,15.3963625 17.076,15.556 C17.2326057,15.7159822 17.2933968,15.9466086 17.236,16.163 C17.1805994,16.3789245 17.0138841,16.5486918 16.799,16.608 C16.5842397,16.6668714 16.3544508,16.6044454 16.199,16.445 L16.199,16.445 Z M9.373,15.917 C9.18123071,15.8026181 9.0637703,15.5957906 9.0637703,15.3725 C9.0637703,15.1492094 9.18123071,14.9423819 9.373,14.828 C9.56358158,14.7152845 9.80041842,14.7152845 9.991,14.828 C10.1827693,14.9423819 10.3002297,15.1492094 10.3002297,15.3725 C10.3002297,15.5957906 10.1827693,15.8026181 9.991,15.917 C9.80012771,16.0286478 9.56387229,16.0286478 9.373,15.917 Z M13.7,15.01 C13.4951011,14.9212263 13.3520125,14.731207 13.323306,14.5097566 C13.2945995,14.2883063 13.3845085,14.0680836 13.56,13.93 C13.7342182,13.7932268 13.9689586,13.761826 14.173,13.848 C14.3774404,13.9372156 14.5200787,14.1271571 14.5487539,14.3483652 C14.577429,14.5695733 14.4879354,14.7896061 14.313,14.928 C14.1383851,15.0647458 13.9033801,15.0961308 13.699,15.01 L13.7,15.01 Z M17.084,14.245 C16.927397,14.0850161 16.866273,13.8545673 16.923,13.638 C16.9795073,13.4223485 17.1462715,13.2529191 17.361,13.193 C17.5757605,13.1343505 17.8054367,13.1967459 17.961,13.356 C18.117598,13.5163964 18.1783617,13.7472984 18.121,13.964 C18.0651011,14.1794346 17.8985191,14.3486849 17.684,14.408 C17.4692405,14.4673182 17.2392242,14.4048304 17.084,14.245 L17.084,14.245 Z M10.89,13.774 C10.6772471,13.7082353 10.5156644,13.5340766 10.466,13.317 C10.4158116,13.0996177 10.4833846,12.8718438 10.644,12.717 C10.8032929,12.5641199 11.0326724,12.5090688 11.244,12.573 C11.4569012,12.639122 11.618464,12.8136404 11.668,13.031 C11.7186453,13.2482109 11.6514308,13.4760566 11.491,13.631 C11.3769484,13.740455 11.2250762,13.8017053 11.067,13.802 C11.0072254,13.801053 10.9479185,13.7912809 10.891,13.773 L10.89,13.774 Z" id="联合_9" fill="#FFFFFF" fill-rule="nonzero"></path>
            </g>
        </g>
    </g>
</svg>