<?xml version="1.0" encoding="UTF-8"?>
<svg width="55px" height="55px" viewBox="0 0 55 55" version="1.1" xmlns="http://www.w3.org/2000/svg" xmlns:xlink="http://www.w3.org/1999/xlink">
    <!-- Generator: Sketch 63 (92445) - https://sketch.com -->
    <title>扑火行动</title>
    <desc>Created with Sketch.</desc>
    <g id="页面-1" stroke="none" stroke-width="1" fill="none" fill-rule="evenodd">
        <g id="桌面端" transform="translate(-1954.000000, -156.000000)">
            <g id="编组" transform="translate(1954.000000, 174.000000)">
                <path d="M34.5348837,0.5 L34.534,7.699 L44.768,7.69999999 L44.7674419,5.29999999 L55,8.89999999 L44.7674419,12.5 L44.768,10.101 L34.534,10.099 L34.5348837,18.5 L0,18.5 L0,0.5 L34.5348837,0.5 Z M31.9767442,2.9 L2.55813953,2.9 L2.55813953,16.1 L31.9767442,16.1 L31.9767442,2.9 Z" id="形状结合" fill="#FF0000"></path>
                <rect id="矩形" fill="#FFFFFF" x="2" y="2.5" width="30" height="14"></rect>
                <path d="M28,9.38888889 L28,13.0555556 L25.4117647,13.0555556 L25.411,11.833 L22.4920821,11.8335402 C21.6925731,13.9696182 19.5355194,15.5 17,15.5 C14.4644806,15.5 12.3074269,13.9696182 11.5079179,11.8335402 L6,11.8333333 L6,8.16666667 L8.58823529,8.16666667 L8.588,9.388 L11.2120957,9.38818023 C11.5343126,6.63855171 14.0027228,4.5 17,4.5 C19.9972772,4.5 22.4656874,6.63855171 22.7879043,9.38818023 L28,9.38888889 Z M17,6.94444444 C15.2131964,6.94444444 13.7647059,8.31246326 13.7647059,10 C13.7647059,11.6875367 15.2131964,13.0555556 17,13.0555556 C18.7868036,13.0555556 20.2352941,11.6875367 20.2352941,10 C20.2352941,8.31246326 18.7868036,6.94444444 17,6.94444444 Z" id="形状结合" fill="#FF0000"></path>
            </g>
        </g>
    </g>
</svg>