<?xml version="1.0" encoding="UTF-8"?>
<svg width="55px" height="55px" viewBox="0 0 55 55" version="1.1" xmlns="http://www.w3.org/2000/svg" xmlns:xlink="http://www.w3.org/1999/xlink">
    <!-- Generator: Sketch 63 (92445) - https://sketch.com -->
    <title>9</title>
    <desc>Created with Sketch.</desc>
    <g id="页面-1" stroke="none" stroke-width="1" fill="none" fill-rule="evenodd">
        <g id="桌面端" transform="translate(-2244.000000, -71.000000)">
            <g id="9" transform="translate(2244.000000, 78.000000)">
                <path d="M51.8,34.4 C51.2,34.1 49.7,33.4 49.7,33.4 L4.6,33.4 L4.6,33.4 C4.6,33.4 3.1,34.1 2.5,34.4 C1.9,34.7 0.3,36 0.3,36 L1.4,37.6 C1.4,37.6 2.5,36.4 3.3,35.9 C3.7,35.7 4.2,35.5 4.6,35.3 L4.6,35.3 L49.8,35.3 L49.8,35.3 C50.2,35.4 50.7,35.6 51.1,35.9 C51.9,36.4 53,37.6 53,37.6 L54,36 C54,36 52.4,34.7 51.8,34.4 Z" id="路径" fill="#FF0000" fill-rule="nonzero"></path>
                <polygon id="路径" fill="#FF0000" fill-rule="nonzero" points="11 15 9 15 9 35.2 11 35.2"></polygon>
                <g id="编组" transform="translate(8.000000, 29.000000)" fill-rule="nonzero">
                    <path d="M7.1,11.7 C4.4,11.7 2.1,9.6 2,6.9 C1.9,5.5 2.4,4.2 3.3,3.2 C4.2,2.2 5.5,1.6 6.9,1.5 C7,1.5 7.1,1.5 7.2,1.5 C9.9,1.5 12.2,3.6 12.3,6.3 C12.4,7.7 11.9,9 11,10 C10.1,11 8.8,11.6 7.4,11.7 C7.3,11.7 7.2,11.7 7.1,11.7 Z" id="路径" fill="#FFFFFF"></path>
                    <path d="M7.1,2.4 L7.1,2.4 C9.3,2.4 11.1,4.1 11.2,6.3 C11.3,8.6 9.6,10.6 7.3,10.7 C7.2,10.7 7.1,10.7 7,10.7 C4.8,10.7 3,9 2.8,6.8 C2.7,4.5 4.4,2.5 6.7,2.4 C7,2.4 7.1,2.4 7.1,2.4 M7.1,0.4 C7,0.4 6.8,0.4 6.7,0.4 C3.3,0.6 0.7,3.5 0.9,6.9 C1.1,10.2 3.8,12.7 7,12.7 C7.1,12.7 7.3,12.7 7.4,12.7 C10.8,12.5 13.4,9.6 13.2,6.2 C13.1,2.9 10.4,0.4 7.1,0.4 L7.1,0.4 Z" id="形状" fill="#FF0000"></path>
                </g>
                <path d="M14.9,31.2 C14.8,32.8 15.2,33.7 15.6,34.2 C15.8,34.4 16,35 15.9,35.3 C15.6,36 15.5,36 15,36.7 C14.7,37.3 14.4,38.3 14.8,40.1" id="路径" stroke="#FF0000" stroke-width="2"></path>
                <polygon id="路径" fill="#FF0000" fill-rule="nonzero" points="44.8 15 42.7 15 42.7 35.2 44.8 35.2"></polygon>
                <g id="编组" transform="translate(32.000000, 29.000000)" fill-rule="nonzero">
                    <circle id="椭圆形" fill="#FFFFFF" cx="6.7" cy="6.6" r="5.2"></circle>
                    <path d="M6.7,2.4 C9,2.4 10.9,4.3 10.9,6.6 C10.9,8.9 9,10.8 6.7,10.8 C4.4,10.8 2.5,8.9 2.5,6.6 C2.5,4.3 4.4,2.4 6.7,2.4 M6.7,0.4 C3.3,0.4 0.5,3.2 0.5,6.6 C0.5,10 3.3,12.8 6.7,12.8 C10.1,12.8 12.9,10 12.9,6.6 C12.8,3.2 10.1,0.4 6.7,0.4 L6.7,0.4 Z" id="形状" fill="#FF0000"></path>
                </g>
                <rect id="矩形" fill="#FF0000" fill-rule="nonzero" transform="translate(38.643400, 35.645130) rotate(45.000000) translate(-38.643400, -35.645130) " x="34.0934436" y="34.6951391" width="9.09991273" height="1.89998178"></rect>
                <rect id="矩形" fill="#FF0000" fill-rule="nonzero" transform="translate(38.588850, 35.850980) rotate(135.000000) translate(-38.588850, -35.850980) " x="34.0388936" y="34.9009891" width="9.09991273" height="1.89998178"></rect>
                <polygon id="路径" fill="#FF0000" fill-rule="nonzero" points="28.1 13.5 26.1 13.5 26.1 33.6 28.1 33.6"></polygon>
                <polygon id="路径" fill="#FF0000" fill-rule="nonzero" points="30.7 18.8 23.6 18.8 23.6 20.9 30.7 20.9"></polygon>
                <polygon id="路径" fill="#FF0000" fill-rule="nonzero" points="30.7 23 23.6 23 23.6 25.1 30.7 25.1"></polygon>
                <polygon id="路径" fill="#FF0000" fill-rule="nonzero" points="30.7 27.2 23.6 27.2 23.6 29.3 30.7 29.3"></polygon>
                <polygon id="路径" fill="#FF0000" fill-rule="nonzero" points="27.5 0.6 22.7 14.9 31.6 14.9"></polygon>
            </g>
        </g>
    </g>
</svg>