<?xml version="1.0" encoding="UTF-8"?>
<svg width="55px" height="55px" viewBox="0 0 55 55" version="1.1" xmlns="http://www.w3.org/2000/svg" xmlns:xlink="http://www.w3.org/1999/xlink">
    <!-- Generator: Sketch 63 (92445) - https://sketch.com -->
    <title>森林火</title>
    <desc>Created with Sketch.</desc>
    <defs>
        <linearGradient x1="53.324619%" y1="100.404098%" x2="46.424611%" y2="-1.14661702%" id="linearGradient-1">
            <stop stop-color="#E61A00" offset="0%"></stop>
            <stop stop-color="#FFAC00" offset="100%"></stop>
        </linearGradient>
        <radialGradient cx="50%" cy="100%" fx="50%" fy="100%" r="138.936916%" gradientTransform="translate(0.500000,1.000000),scale(1.000000,0.817204),rotate(-90.000000),translate(-0.500000,-1.000000)" id="radialGradient-2">
            <stop stop-color="#AB381A" offset="0%"></stop>
            <stop stop-color="#C75849" offset="100%"></stop>
        </radialGradient>
        <filter x="-29.6%" y="-26.8%" width="159.3%" height="151.0%" filterUnits="objectBoundingBox" id="filter-3">
            <feGaussianBlur stdDeviation="-0.0672814764 2.26700181" in="SourceGraphic"></feGaussianBlur>
        </filter>
        <linearGradient x1="50.0528181%" y1="100.484066%" x2="49.902145%" y2="-1.23680955%" id="linearGradient-4">
            <stop stop-color="#E61A00" offset="0%"></stop>
            <stop stop-color="#FFAC00" offset="100%"></stop>
        </linearGradient>
        <radialGradient cx="50%" cy="100%" fx="50%" fy="100%" r="296.465153%" gradientTransform="translate(0.500000,1.000000),scale(1.000000,0.382979),rotate(-90.000000),translate(-0.500000,-1.000000)" id="radialGradient-5">
            <stop stop-color="#AB381A" offset="0%"></stop>
            <stop stop-color="#C75849" offset="100%"></stop>
        </radialGradient>
        <filter x="-41.7%" y="-22.3%" width="185.6%" height="138.3%" filterUnits="objectBoundingBox" id="filter-6">
            <feGaussianBlur stdDeviation="-0.019223279 0.647714803" in="SourceGraphic"></feGaussianBlur>
        </filter>
        <filter x="-33.3%" y="-12.8%" width="166.7%" height="125.5%" filterUnits="objectBoundingBox" id="filter-7">
            <feGaussianBlur stdDeviation="-0.019223279 0.647714803" in="SourceGraphic"></feGaussianBlur>
        </filter>
        <linearGradient x1="51.4971146%" y1="100.404098%" x2="48.3899607%" y2="-1.14661702%" id="linearGradient-8">
            <stop stop-color="#E61A00" offset="0%"></stop>
            <stop stop-color="#FFAC00" offset="100%"></stop>
        </linearGradient>
        <filter x="-30.9%" y="-16.9%" width="161.8%" height="133.9%" filterUnits="objectBoundingBox" id="filter-9">
            <feGaussianBlur stdDeviation="-0.0672814764 2.26700181" in="SourceGraphic"></feGaussianBlur>
        </filter>
        <radialGradient cx="50%" cy="93.0874117%" fx="50%" fy="93.0874117%" r="122.919598%" gradientTransform="translate(0.500000,0.930874),scale(1.000000,0.351852),rotate(90.000000),translate(-0.500000,-0.930874)" id="radialGradient-10">
            <stop stop-color="#FFFFFF" offset="0%"></stop>
            <stop stop-color="#F3E744" offset="25.8908958%"></stop>
            <stop stop-color="#FA9A1F" offset="100%"></stop>
        </radialGradient>
        <path d="M18.4822273,35.6046631 C18.3023633,38.2824436 19.8547791,40.5111697 21.6163586,41.472 L21.6960752,41.472 C22.2994933,41.24805 22.9718583,40.6445008 23.4182715,40.1336228 C24.4953965,38.9003584 24.9004205,37.3711235 24.4307258,35.7909033 C24.1777442,35.0007291 23.7592054,34.3420261 23.4803027,33.5900107 C23.1698829,32.7533405 23.1108081,32.2099475 23.3352818,31.4256093 C22.6654508,31.9060886 22.5791878,32.8751278 22.6516191,33.5774407 C22.2372509,33.1371083 22.0756004,32.2636262 22.1957033,31.4759532 C22.6133974,28.7391709 23.2803248,26.0628654 21.5535883,23.976 C22.2372509,25.198426 21.8443693,27.1860787 21.4084618,28.1537712 C20.3843404,30.4283518 18.6685848,32.8291449 18.4822273,35.6046631 Z" id="path-11"></path>
        <filter x="-127.2%" y="-33.3%" width="354.5%" height="189.5%" filterUnits="objectBoundingBox" id="filter-12">
            <feGaussianBlur stdDeviation="1.944" in="SourceGraphic"></feGaussianBlur>
        </filter>
        <filter x="-159.7%" y="-44.8%" width="419.4%" height="212.4%" filterUnits="objectBoundingBox" id="filter-13">
            <feOffset dx="0" dy="2" in="SourceAlpha" result="shadowOffsetOuter1"></feOffset>
            <feGaussianBlur stdDeviation="1" in="shadowOffsetOuter1" result="shadowBlurOuter1"></feGaussianBlur>
            <feColorMatrix values="0 0 0 0 0.923488451   0 0 0 0 0.697005734   0 0 0 0 0  0 0 0 0.5 0" type="matrix" in="shadowBlurOuter1"></feColorMatrix>
        </filter>
        <radialGradient cx="50%" cy="93.0874117%" fx="50%" fy="93.0874117%" r="132.466199%" gradientTransform="translate(0.500000,0.930874),scale(1.000000,0.326495),rotate(90.000000),translate(-0.500000,-0.930874)" id="radialGradient-14">
            <stop stop-color="#FFFFFF" offset="0%"></stop>
            <stop stop-color="#F3E744" offset="25.8908958%"></stop>
            <stop stop-color="#FA9A1F" offset="100%"></stop>
        </radialGradient>
        <filter x="-32.7%" y="-10.7%" width="165.5%" height="121.4%" filterUnits="objectBoundingBox" id="filter-15">
            <feGaussianBlur stdDeviation="0.324" in="SourceGraphic"></feGaussianBlur>
        </filter>
        <path d="M19.7884618,26.8577712 C18.7643404,29.1323518 17.0485848,31.5331449 16.8622273,34.3086631 L16.8622273,34.3086631 C16.6823633,36.9864436 18.2347791,39.2151697 19.9963586,40.176 L19.9963586,40.176 L20.0760752,40.176 C20.6794933,39.95205 21.3518583,39.3485008 21.7982715,38.8376228 L21.7982715,38.8376228 C22.8753965,37.6043584 23.2804205,36.0751235 22.8107258,34.4949033 L22.8107258,34.4949033 C22.5577442,33.7047291 22.1392054,33.0460261 21.8603027,32.2940107 L21.8603027,32.2940107 C21.5498829,31.4573405 21.4908081,30.9139475 21.7152818,30.1296093 L21.7152818,30.1296093 C21.0454508,30.6100886 20.9591878,31.5791278 21.0316191,32.2814407 L21.0316191,32.2814407 C20.6172509,31.8411083 20.4556004,30.9676262 20.5757033,30.1799532 L20.5757033,30.1799532 C20.9933974,27.4431709 21.6603248,24.7668654 19.9335883,22.68 L19.9335883,22.68 C20.6172509,23.902426 20.2243693,25.8900787 19.7884618,26.8577712" id="path-16"></path>
        <filter x="-269.3%" y="-100.5%" width="638.7%" height="289.5%" filterUnits="objectBoundingBox" id="filter-17">
            <feGaussianBlur stdDeviation="4.86" in="SourceGraphic"></feGaussianBlur>
        </filter>
        <filter x="-293.7%" y="-109.1%" width="687.4%" height="306.7%" filterUnits="objectBoundingBox" id="filter-18">
            <feOffset dx="0" dy="-1" in="SourceAlpha" result="shadowOffsetOuter1"></feOffset>
            <feGaussianBlur stdDeviation="1" in="shadowOffsetOuter1" result="shadowBlurOuter1"></feGaussianBlur>
            <feColorMatrix values="0 0 0 0 0   0 0 0 0 0   0 0 0 0 0  0 0 0 0.5 0" type="matrix" in="shadowBlurOuter1"></feColorMatrix>
        </filter>
        <linearGradient x1="50.0651325%" y1="100.484066%" x2="49.8793301%" y2="-1.23680955%" id="linearGradient-19">
            <stop stop-color="#E61A00" offset="0%"></stop>
            <stop stop-color="#FFAC00" offset="100%"></stop>
        </linearGradient>
        <radialGradient cx="50%" cy="100%" fx="50%" fy="100%" r="266.972069%" gradientTransform="translate(0.500000,1.000000),scale(1.000000,0.425287),rotate(-90.000000),translate(-0.500000,-1.000000)" id="radialGradient-20">
            <stop stop-color="#AB381A" offset="0%"></stop>
            <stop stop-color="#C75849" offset="100%"></stop>
        </radialGradient>
        <filter x="-52.7%" y="-25.6%" width="205.6%" height="148.0%" filterUnits="objectBoundingBox" id="filter-21">
            <feGaussianBlur stdDeviation="-0.057669837 1.94314441" in="SourceGraphic"></feGaussianBlur>
        </filter>
        <radialGradient cx="50%" cy="93.0874117%" fx="50%" fy="93.0874117%" r="84.2810539%" gradientTransform="translate(0.500000,0.930874),scale(1.000000,0.513158),rotate(90.000000),translate(-0.500000,-0.930874)" id="radialGradient-22">
            <stop stop-color="#FFFFFF" offset="0%"></stop>
            <stop stop-color="#F3E744" offset="25.8908958%"></stop>
            <stop stop-color="#FA9A1F" offset="100%"></stop>
        </radialGradient>
        <filter x="-30.8%" y="-15.8%" width="161.5%" height="131.6%" filterUnits="objectBoundingBox" id="filter-23">
            <feGaussianBlur stdDeviation="1.296" in="SourceGraphic"></feGaussianBlur>
        </filter>
        <radialGradient cx="50%" cy="-18.1505215%" fx="50%" fy="-18.1505215%" r="136.395426%" gradientTransform="translate(0.500000,-0.181505),scale(1.000000,0.317089),rotate(90.000000),translate(-0.500000,0.181505)" id="radialGradient-24">
            <stop stop-color="#FFFFFF" offset="0%"></stop>
            <stop stop-color="#F3E744" offset="96.8908361%"></stop>
            <stop stop-color="#FA9A1F" offset="100%"></stop>
        </radialGradient>
        <filter x="-115.6%" y="-36.7%" width="331.3%" height="173.3%" filterUnits="objectBoundingBox" id="filter-25">
            <feGaussianBlur stdDeviation="0.972" in="SourceGraphic"></feGaussianBlur>
        </filter>
        <filter x="-115.6%" y="-36.7%" width="331.3%" height="173.3%" filterUnits="objectBoundingBox" id="filter-26">
            <feGaussianBlur stdDeviation="0.972" in="SourceGraphic"></feGaussianBlur>
        </filter>
        <radialGradient cx="50%" cy="89.8802549%" fx="50%" fy="89.8802549%" r="152.645114%" gradientTransform="translate(0.500000,0.898803),scale(1.000000,0.261261),rotate(-90.000000),translate(-0.500000,-0.898803)" id="radialGradient-27">
            <stop stop-color="#FFFFFF" offset="0%"></stop>
            <stop stop-color="#F3E744" offset="38.7167441%"></stop>
            <stop stop-color="#FA9A1F" offset="100%"></stop>
        </radialGradient>
        <filter x="-31.0%" y="-8.1%" width="162.1%" height="116.2%" filterUnits="objectBoundingBox" id="filter-28">
            <feGaussianBlur stdDeviation="0.972" in="SourceGraphic"></feGaussianBlur>
        </filter>
        <radialGradient cx="50%" cy="93.0874117%" fx="50%" fy="93.0874117%" r="179.176451%" gradientTransform="translate(0.500000,0.930874),scale(1.000000,0.241379),rotate(90.000000),translate(-0.500000,-0.930874)" id="radialGradient-29">
            <stop stop-color="#FFFFFF" offset="0%"></stop>
            <stop stop-color="#F3E744" offset="25.8908958%"></stop>
            <stop stop-color="#FA9A1F" offset="100%"></stop>
        </radialGradient>
        <path d="M2.59988376,13.4741448 C1.85075089,15.9146836 0.592545183,18.4891035 0.461503766,21.4697087 L0.461503766,21.4697087 C0.335026086,24.3453541 1.48328431,26.742893 2.78274841,27.7791503 L2.78274841,27.7791503 L2.84145583,27.7793437 C3.28534332,27.540273 3.7791587,26.8936595 4.10677869,26.3460318 L4.10677869,26.3460318 C4.89727292,25.0240519 5.19213624,23.382553 4.84269814,21.6841713 L4.84269814,21.6841713 C4.65462399,20.8348676 4.3449188,20.1263695 4.13784027,19.3179874 L4.13784027,19.3179874 C3.90736178,18.4186052 3.86264191,17.8348282 4.0262032,16.9929509 L4.0262032,16.9929509 C3.53397903,17.5073868 3.47261587,18.5479783 3.52752725,19.3024763 L3.52752725,19.3024763 C3.22138144,18.8285301 3.10038195,17.8899708 3.18707185,17.0442585 L3.18707185,17.0442585 C3.48856795,14.105819 3.97374733,11.2329394 2.69742736,8.98734371 L2.69742736,8.98734371 C3.2036429,10.3019541 2.91874608,12.435848 2.59988376,13.4741448" id="path-30"></path>
        <filter x="-42.9%" y="-10.3%" width="185.7%" height="120.7%" filterUnits="objectBoundingBox" id="filter-31">
            <feGaussianBlur stdDeviation="0.648" in="SourceGraphic"></feGaussianBlur>
        </filter>
        <filter x="-53.9%" y="-13.0%" width="207.8%" height="126.0%" filterUnits="objectBoundingBox" id="filter-32">
            <feGaussianBlur stdDeviation="0.5" in="SourceAlpha" result="shadowBlurInner1"></feGaussianBlur>
            <feOffset dx="0" dy="0" in="shadowBlurInner1" result="shadowOffsetInner1"></feOffset>
            <feComposite in="shadowOffsetInner1" in2="SourceAlpha" operator="arithmetic" k2="-1" k3="1" result="shadowInnerInner1"></feComposite>
            <feColorMatrix values="0 0 0 0 0.945098039   0 0 0 0 0.466666667   0 0 0 0 0.00784313725  0 0 0 1 0" type="matrix" in="shadowInnerInner1"></feColorMatrix>
        </filter>
        <radialGradient cx="50%" cy="93.0874117%" fx="50%" fy="93.0874117%" r="136.321495%" gradientTransform="translate(0.500000,0.930874),scale(1.000000,0.317261),rotate(90.000000),translate(-0.500000,-0.930874)" id="radialGradient-33">
            <stop stop-color="#FFFFFF" offset="0%"></stop>
            <stop stop-color="#F3E744" offset="25.8908958%"></stop>
            <stop stop-color="#FA9A1F" offset="100%"></stop>
        </radialGradient>
        <path d="M10.378162,8.90924127 C10.3074455,10.1260387 10.9458053,11.1407528 11.6684412,11.579472 L11.7010945,11.5795643 C11.9480178,11.478481 12.2227635,11.2049562 12.4050577,10.9732874 C12.8449045,10.4140361 13.0091196,9.71949355 12.8149781,9.00076702 C12.7104793,8.64135362 12.5383105,8.3415001 12.423236,7.9993992 C12.295158,7.61878774 12.2703595,7.37175652 12.3614411,7.01554795 C12.0875974,7.23314254 12.0533334,7.67345451 12.0837786,7.99272755 C11.9135595,7.79212453 11.8463794,7.3949548 11.8947052,7.03710982 C12.0627759,5.79377232 12.3330039,4.57820886 11.623396,3.62776624 C11.9047871,4.18412901 11.7460522,5.08702864 11.5685661,5.52632396 C11.1515813,6.55889707 10.4514303,7.6480313 10.378162,8.90924127 Z" id="path-34"></path>
        <filter x="-77.1%" y="-24.4%" width="254.1%" height="148.9%" filterUnits="objectBoundingBox" id="filter-35">
            <feGaussianBlur stdDeviation="0.648" in="SourceGraphic"></feGaussianBlur>
        </filter>
        <filter x="-96.9%" y="-30.7%" width="293.8%" height="161.5%" filterUnits="objectBoundingBox" id="filter-36">
            <feGaussianBlur stdDeviation="0.5" in="SourceAlpha" result="shadowBlurInner1"></feGaussianBlur>
            <feOffset dx="0" dy="0" in="shadowBlurInner1" result="shadowOffsetInner1"></feOffset>
            <feComposite in="shadowOffsetInner1" in2="SourceAlpha" operator="arithmetic" k2="-1" k3="1" result="shadowInnerInner1"></feComposite>
            <feColorMatrix values="0 0 0 0 0.945098039   0 0 0 0 0.466666667   0 0 0 0 0.00784313725  0 0 0 1 0" type="matrix" in="shadowInnerInner1"></feColorMatrix>
        </filter>
        <radialGradient cx="50%" cy="75.0062215%" fx="50%" fy="75.0062215%" r="44.6724665%" gradientTransform="translate(0.500000,0.750062),scale(1.000000,0.716535),rotate(-172.216183),scale(1.000000,0.663902),translate(-0.500000,-0.750062)" id="radialGradient-37">
            <stop stop-color="#FFFFFF" offset="2.34111064%"></stop>
            <stop stop-color="#FFFFFF" stop-opacity="0" offset="100%"></stop>
            <stop stop-color="#FFFFFF" stop-opacity="0" offset="100%"></stop>
        </radialGradient>
        <radialGradient cx="50%" cy="84.5019849%" fx="50%" fy="84.5019849%" r="102.226063%" gradientTransform="translate(0.500000,0.845020),scale(1.000000,0.423077),rotate(90.000000),translate(-0.500000,-0.845020)" id="radialGradient-38">
            <stop stop-color="#FFFFFF" offset="0%"></stop>
            <stop stop-color="#F3E744" offset="44.5629223%"></stop>
            <stop stop-color="#FA9A1F" offset="100%"></stop>
        </radialGradient>
        <filter x="-18.2%" y="-7.7%" width="136.4%" height="115.4%" filterUnits="objectBoundingBox" id="filter-39">
            <feGaussianBlur stdDeviation="0.648" in="SourceGraphic"></feGaussianBlur>
        </filter>
        <linearGradient x1="54.9782946%" y1="100.404098%" x2="44.6462016%" y2="-1.14661702%" id="linearGradient-40">
            <stop stop-color="#E61A00" offset="0%"></stop>
            <stop stop-color="#FFAC00" offset="100%"></stop>
        </linearGradient>
        <radialGradient cx="50%" cy="100%" fx="50%" fy="100%" r="113.539846%" id="radialGradient-41">
            <stop stop-color="#AB381A" offset="0%"></stop>
            <stop stop-color="#C75849" offset="100%"></stop>
        </radialGradient>
        <filter x="-48.9%" y="-53.5%" width="198.1%" height="202.4%" filterUnits="objectBoundingBox" id="filter-42">
            <feGaussianBlur stdDeviation="-0.0672814764 2.26700181" in="SourceGraphic"></feGaussianBlur>
        </filter>
        <linearGradient x1="50.0756477%" y1="100.484066%" x2="49.8598488%" y2="-1.23680955%" id="linearGradient-43">
            <stop stop-color="#E61A00" offset="0%"></stop>
            <stop stop-color="#FFAC00" offset="100%"></stop>
        </linearGradient>
        <radialGradient cx="50%" cy="100%" fx="50%" fy="100%" r="247.7233%" gradientTransform="translate(0.500000,1.000000),scale(1.000000,0.458333),rotate(-90.000000),translate(-0.500000,-1.000000)" id="radialGradient-44">
            <stop stop-color="#AB381A" offset="0%"></stop>
            <stop stop-color="#C75849" offset="100%"></stop>
        </radialGradient>
        <filter x="-74.9%" y="-49.4%" width="248.5%" height="180.6%" filterUnits="objectBoundingBox" id="filter-45">
            <feGaussianBlur stdDeviation="-0.019223279 0.647714803" in="SourceGraphic"></feGaussianBlur>
        </filter>
        <filter x="-54.5%" y="-25.0%" width="209.1%" height="150.0%" filterUnits="objectBoundingBox" id="filter-46">
            <feGaussianBlur stdDeviation="-0.019223279 0.647714803" in="SourceGraphic"></feGaussianBlur>
        </filter>
        <linearGradient x1="54.1325991%" y1="100.404098%" x2="45.5556864%" y2="-1.14661702%" id="linearGradient-47">
            <stop stop-color="#E61A00" offset="0%"></stop>
            <stop stop-color="#FFAC00" offset="100%"></stop>
        </linearGradient>
        <filter x="-51.2%" y="-46.7%" width="202.4%" height="193.3%" filterUnits="objectBoundingBox" id="filter-48">
            <feGaussianBlur stdDeviation="-0.0672814764 2.26700181" in="SourceGraphic"></feGaussianBlur>
        </filter>
        <radialGradient cx="50%" cy="93.0874117%" fx="50%" fy="93.0874117%" r="97.3113484%" gradientTransform="translate(0.500000,0.930874),scale(1.000000,0.444444),rotate(90.000000),translate(-0.500000,-0.930874)" id="radialGradient-49">
            <stop stop-color="#FFFFFF" offset="0%"></stop>
            <stop stop-color="#F3E744" offset="25.8908958%"></stop>
            <stop stop-color="#FA9A1F" offset="100%"></stop>
        </radialGradient>
        <path d="M12.6449857,25.5783315 C12.5313874,26.9172218 13.5118605,28.0315849 14.624437,28.512 L14.6747843,28.512 C15.0558905,28.400025 15.4805421,28.0982504 15.7624873,27.8428114 C16.4427768,27.2261792 16.6985813,26.4615617 16.4019321,25.6714517 C16.2421542,25.2763646 15.9778139,24.9470131 15.8016649,24.5710053 C15.6056103,24.1526703 15.5682999,23.8809737 15.7100727,23.4888046 C15.2870215,23.7290443 15.2325397,24.2135639 15.2782858,24.5647204 C15.0165795,24.3445541 14.9144844,23.9078131 14.9903389,23.5139766 C15.2541457,22.1455854 15.675363,20.8074327 14.5847926,19.764 C15.0165795,20.375213 14.7684438,21.3690394 14.4931338,21.8528856 C13.8463203,22.9901759 12.7626851,24.1905725 12.6449857,25.5783315 Z" id="path-50"></path>
        <filter x="-201.4%" y="-66.7%" width="502.9%" height="279.1%" filterUnits="objectBoundingBox" id="filter-51">
            <feGaussianBlur stdDeviation="1.944" in="SourceGraphic"></feGaussianBlur>
        </filter>
        <filter x="-252.9%" y="-89.5%" width="605.8%" height="324.8%" filterUnits="objectBoundingBox" id="filter-52">
            <feOffset dx="0" dy="2" in="SourceAlpha" result="shadowOffsetOuter1"></feOffset>
            <feGaussianBlur stdDeviation="1" in="shadowOffsetOuter1" result="shadowBlurOuter1"></feGaussianBlur>
            <feColorMatrix values="0 0 0 0 0.923488451   0 0 0 0 0.697005734   0 0 0 0 0  0 0 0 0.5 0" type="matrix" in="shadowBlurOuter1"></feColorMatrix>
        </filter>
        <filter x="-75.0%" y="-33.3%" width="250.0%" height="166.7%" filterUnits="objectBoundingBox" id="filter-53">
            <feGaussianBlur stdDeviation="0.972" in="SourceGraphic"></feGaussianBlur>
        </filter>
        <radialGradient cx="50%" cy="81.1257614%" fx="50%" fy="81.1257614%" r="97.3113484%" gradientTransform="translate(0.500000,0.811258),scale(1.000000,0.444444),rotate(90.000000),translate(-0.500000,-0.811258)" id="radialGradient-54">
            <stop stop-color="#FFFFFF" offset="0%"></stop>
            <stop stop-color="#F3E744" offset="71.1386191%"></stop>
            <stop stop-color="#FA9A1F" offset="100%"></stop>
        </radialGradient>
        <path d="M11.6729857,24.2823315 C11.5593874,25.6212218 12.5398605,26.7355849 13.652437,27.216 L13.7027843,27.216 C14.0838905,27.104025 14.5085421,26.8022504 14.7904873,26.5468114 C15.4707768,25.9301792 15.7265813,25.1655617 15.4299321,24.3754517 C15.2701542,23.9803646 15.0058139,23.6510131 14.8296649,23.2750053 C14.6336103,22.8566703 14.5962999,22.5849737 14.7380727,22.1928046 C14.3150215,22.4330443 14.2605397,22.9175639 14.3062858,23.2687204 C14.0445795,23.0485541 13.9424844,22.6118131 14.0183389,22.2179766 C14.2821457,20.8495854 14.703363,19.5114327 13.6127926,18.468 C14.0445795,19.079213 13.7964438,20.0730394 13.5211338,20.5568856 C12.8743203,21.6941759 11.7906851,22.8945725 11.6729857,24.2823315 Z" id="path-55"></path>
        <filter x="-76.4%" y="-22.5%" width="252.9%" height="167.9%" filterUnits="objectBoundingBox" id="filter-56">
            <feGaussianBlur stdDeviation="0.324" in="SourceGraphic"></feGaussianBlur>
        </filter>
        <filter x="-115.0%" y="-39.7%" width="330.0%" height="202.2%" filterUnits="objectBoundingBox" id="filter-57">
            <feOffset dx="0" dy="1" in="SourceAlpha" result="shadowOffsetOuter1"></feOffset>
            <feGaussianBlur stdDeviation="1" in="shadowOffsetOuter1" result="shadowBlurOuter1"></feGaussianBlur>
            <feColorMatrix values="0 0 0 0 0   0 0 0 0 0   0 0 0 0 0  0 0 0 0.5 0" type="matrix" in="shadowBlurOuter1"></feColorMatrix>
        </filter>
        <radialGradient cx="50%" cy="81.1257614%" fx="50%" fy="81.1257614%" r="200.493676%" gradientTransform="translate(0.500000,0.811258),scale(1.000000,0.444444),rotate(90.000000),translate(-0.500000,-0.811258)" id="radialGradient-58">
            <stop stop-color="#FFFFFF" offset="0%"></stop>
            <stop stop-color="#FFF357" offset="71.1386191%"></stop>
            <stop stop-color="#FFF4E6" offset="100%"></stop>
        </radialGradient>
        <filter x="-25.0%" y="-11.1%" width="150.0%" height="122.2%" filterUnits="objectBoundingBox" id="filter-59">
            <feGaussianBlur stdDeviation="0.324" in="SourceGraphic"></feGaussianBlur>
        </filter>
        <path d="M11.6729857,24.2823315 C11.5593874,25.6212218 12.5398605,26.7355849 13.652437,27.216 L13.7027843,27.216 C14.0838905,27.104025 14.5085421,26.8022504 14.7904873,26.5468114 C15.4707768,25.9301792 15.7265813,25.1655617 15.4299321,24.3754517 C15.2701542,23.9803646 15.0058139,23.6510131 14.8296649,23.2750053 C14.6336103,22.8566703 14.5962999,22.5849737 14.7380727,22.1928046 C14.3150215,22.4330443 14.2605397,22.9175639 14.3062858,23.2687204 C14.0445795,23.0485541 13.9424844,22.6118131 14.0183389,22.2179766 C14.2821457,20.8495854 14.703363,19.5114327 13.6127926,18.468 C14.0445795,19.079213 13.7964438,20.0730394 13.5211338,20.5568856 C12.8743203,21.6941759 11.7906851,22.8945725 11.6729857,24.2823315 Z" id="path-60"></path>
        <filter x="-75.7%" y="-33.7%" width="251.4%" height="167.3%" filterUnits="objectBoundingBox" id="filter-61">
            <feGaussianBlur stdDeviation="0.648" in="SourceGraphic"></feGaussianBlur>
        </filter>
        <filter x="-88.6%" y="-39.4%" width="277.2%" height="178.7%" filterUnits="objectBoundingBox" id="filter-62">
            <feOffset dx="0" dy="0" in="SourceAlpha" result="shadowOffsetOuter1"></feOffset>
            <feGaussianBlur stdDeviation="0.5" in="shadowOffsetOuter1" result="shadowBlurOuter1"></feGaussianBlur>
            <feColorMatrix values="0 0 0 0 0   0 0 0 0 0   0 0 0 0 0  0 0 0 0.5 0" type="matrix" in="shadowBlurOuter1"></feColorMatrix>
        </filter>
        <radialGradient cx="50%" cy="93.0874117%" fx="50%" fy="93.0874117%" r="114.29746%" gradientTransform="translate(0.500000,0.930874),scale(1.000000,0.378394),rotate(90.000000),translate(-0.500000,-0.930874)" id="radialGradient-63">
            <stop stop-color="#FFFFFF" offset="0%"></stop>
            <stop stop-color="#F3E744" offset="25.8908958%"></stop>
            <stop stop-color="#FA9A1F" offset="100%"></stop>
        </radialGradient>
        <filter x="-55.1%" y="-20.8%" width="210.1%" height="141.7%" filterUnits="objectBoundingBox" id="filter-64">
            <feGaussianBlur stdDeviation="0.324" in="SourceGraphic"></feGaussianBlur>
        </filter>
        <path d="M13.5211338,21.2048856 C12.8743203,22.3421759 11.7906851,23.5425725 11.6729857,24.9303315 L11.6729857,24.9303315 C11.5593874,26.2692218 12.5398605,27.3835849 13.652437,27.864 L13.652437,27.864 L13.7027843,27.864 C14.0838905,27.752025 14.5085421,27.4502504 14.7904873,27.1948114 L14.7904873,27.1948114 C15.4707768,26.5781792 15.7265813,25.8135617 15.4299321,25.0234517 L15.4299321,25.0234517 C15.2701542,24.6283646 15.0058139,24.2990131 14.8296649,23.9230053 L14.8296649,23.9230053 C14.6336103,23.5046703 14.5962999,23.2329737 14.7380727,22.8408046 L14.7380727,22.8408046 C14.3150215,23.0810443 14.2605397,23.5655639 14.3062858,23.9167204 L14.3062858,23.9167204 C14.0445795,23.6965541 13.9424844,23.2598131 14.0183389,22.8659766 L14.0183389,22.8659766 C14.2821457,21.4975854 14.703363,20.1594327 13.6127926,19.116 L13.6127926,19.116 C14.0445795,19.727213 13.7964438,20.7210394 13.5211338,21.2048856" id="path-65"></path>
        <filter x="-426.4%" y="-201.0%" width="952.9%" height="479.1%" filterUnits="objectBoundingBox" id="filter-66">
            <feGaussianBlur stdDeviation="4.86" in="SourceGraphic"></feGaussianBlur>
        </filter>
        <filter x="-465.0%" y="-218.1%" width="1030.0%" height="513.4%" filterUnits="objectBoundingBox" id="filter-67">
            <feOffset dx="0" dy="-1" in="SourceAlpha" result="shadowOffsetOuter1"></feOffset>
            <feGaussianBlur stdDeviation="1" in="shadowOffsetOuter1" result="shadowBlurOuter1"></feGaussianBlur>
            <feColorMatrix values="0 0 0 0 0   0 0 0 0 0   0 0 0 0 0  0 0 0 0.5 0" type="matrix" in="shadowBlurOuter1"></feColorMatrix>
        </filter>
        <linearGradient x1="50.0969526%" y1="100.484066%" x2="49.8203778%" y2="-1.23680955%" id="linearGradient-68">
            <stop stop-color="#E61A00" offset="0%"></stop>
            <stop stop-color="#FFAC00" offset="100%"></stop>
        </linearGradient>
        <radialGradient cx="50%" cy="100%" fx="50%" fy="100%" r="218.819095%" gradientTransform="translate(0.500000,1.000000),scale(1.000000,0.518875),rotate(-90.000000),translate(-0.500000,-1.000000)" id="radialGradient-69">
            <stop stop-color="#AB381A" offset="0%"></stop>
            <stop stop-color="#C75849" offset="100%"></stop>
        </radialGradient>
        <filter x="-88.6%" y="-50.4%" width="276.7%" height="195.4%" filterUnits="objectBoundingBox" id="filter-70">
            <feGaussianBlur stdDeviation="-0.057669837 1.94314441" in="SourceGraphic"></feGaussianBlur>
        </filter>
        <radialGradient cx="50%" cy="93.0874117%" fx="50%" fy="93.0874117%" r="157.470716%" gradientTransform="translate(0.500000,0.930874),scale(1.000000,0.274651),rotate(90.000000),translate(-0.500000,-0.930874)" id="radialGradient-71">
            <stop stop-color="#FFFFFF" offset="0%"></stop>
            <stop stop-color="#F3E744" offset="25.8908958%"></stop>
            <stop stop-color="#FA9A1F" offset="100%"></stop>
        </radialGradient>
        <filter x="-79.0%" y="-21.7%" width="258.0%" height="143.4%" filterUnits="objectBoundingBox" id="filter-72">
            <feGaussianBlur stdDeviation="1.296" in="SourceGraphic"></feGaussianBlur>
        </filter>
        <radialGradient cx="50%" cy="-18.1505215%" fx="50%" fy="-18.1505215%" r="111.849917%" gradientTransform="translate(0.500000,-0.181505),scale(1.000000,0.386674),rotate(90.000000),translate(-0.500000,0.181505)" id="radialGradient-73">
            <stop stop-color="#FFFFFF" offset="0%"></stop>
            <stop stop-color="#F3E744" offset="96.8908361%"></stop>
            <stop stop-color="#FA9A1F" offset="100%"></stop>
        </radialGradient>
        <filter x="-190.4%" y="-73.6%" width="480.7%" height="247.2%" filterUnits="objectBoundingBox" id="filter-74">
            <feGaussianBlur stdDeviation="0.972" in="SourceGraphic"></feGaussianBlur>
        </filter>
        <filter x="-190.4%" y="-73.6%" width="480.7%" height="247.2%" filterUnits="objectBoundingBox" id="filter-75">
            <feGaussianBlur stdDeviation="0.972" in="SourceGraphic"></feGaussianBlur>
        </filter>
        <radialGradient cx="50%" cy="89.8802549%" fx="50%" fy="89.8802549%" r="125.175336%" gradientTransform="translate(0.500000,0.898803),scale(1.000000,0.318595),rotate(-90.000000),translate(-0.500000,-0.898803)" id="radialGradient-76">
            <stop stop-color="#FFFFFF" offset="0%"></stop>
            <stop stop-color="#F3E744" offset="38.7167441%"></stop>
            <stop stop-color="#FA9A1F" offset="100%"></stop>
        </radialGradient>
        <filter x="-51.1%" y="-16.3%" width="202.2%" height="132.6%" filterUnits="objectBoundingBox" id="filter-77">
            <feGaussianBlur stdDeviation="0.972" in="SourceGraphic"></feGaussianBlur>
        </filter>
        <radialGradient cx="50%" cy="93.0874117%" fx="50%" fy="93.0874117%" r="147.064373%" gradientTransform="translate(0.500000,0.930874),scale(1.000000,0.294085),rotate(90.000000),translate(-0.500000,-0.930874)" id="radialGradient-78">
            <stop stop-color="#FFFFFF" offset="0%"></stop>
            <stop stop-color="#F3E744" offset="25.8908958%"></stop>
            <stop stop-color="#FA9A1F" offset="100%"></stop>
        </radialGradient>
        <path d="M1.58874021,6.71215574 C1.12902883,7.92943531 0.35982915,9.21438415 0.274543063,10.69954 L0.274543063,10.69954 C0.192229412,12.1323973 0.885157637,13.3246352 1.67253167,13.8384088 L1.67253167,13.8384088 L1.70819273,13.8384088 C1.97828528,13.7184439 2.27948364,13.3953659 2.47953888,13.1219186 L2.47953888,13.1219186 C2.96224116,12.4618143 3.14448527,11.6434745 2.93546129,10.7980253 L2.93546129,10.7980253 C2.82283704,10.37527 2.63606023,10.0228946 2.51181384,9.62056224 L2.51181384,9.62056224 C2.37352689,9.17293923 2.34747573,8.88219304 2.44843592,8.46246673 L2.44843592,8.46246673 C2.14845628,8.7196922 2.10919659,9.2382209 2.14111285,9.61399902 L2.14111285,9.61399902 C1.95605073,9.37846807 1.8843408,8.91111859 1.9386133,8.48962834 L1.9386133,8.48962834 C2.12736051,7.02515383 2.42755984,5.5929902 1.65655152,4.476693 L1.65655152,4.476693 C1.961541,5.13065228 1.78441167,6.19427904 1.58874021,6.71215574" id="path-79"></path>
        <filter x="-70.6%" y="-20.8%" width="241.2%" height="141.5%" filterUnits="objectBoundingBox" id="filter-80">
            <feGaussianBlur stdDeviation="0.648" in="SourceGraphic"></feGaussianBlur>
        </filter>
        <filter x="-88.8%" y="-26.1%" width="277.5%" height="152.2%" filterUnits="objectBoundingBox" id="filter-81">
            <feGaussianBlur stdDeviation="0.5" in="SourceAlpha" result="shadowBlurInner1"></feGaussianBlur>
            <feOffset dx="0" dy="0" in="shadowBlurInner1" result="shadowOffsetInner1"></feOffset>
            <feComposite in="shadowOffsetInner1" in2="SourceAlpha" operator="arithmetic" k2="-1" k3="1" result="shadowInnerInner1"></feComposite>
            <feColorMatrix values="0 0 0 0 0.945098039   0 0 0 0 0.466666667   0 0 0 0 0.00784313725  0 0 0 1 0" type="matrix" in="shadowInnerInner1"></feColorMatrix>
        </filter>
        <radialGradient cx="50%" cy="93.0874117%" fx="50%" fy="93.0874117%" r="111.867961%" gradientTransform="translate(0.500000,0.930874),scale(1.000000,0.386612),rotate(90.000000),translate(-0.500000,-0.930874)" id="radialGradient-82">
            <stop stop-color="#FFFFFF" offset="0%"></stop>
            <stop stop-color="#F3E744" offset="25.8908958%"></stop>
            <stop stop-color="#FA9A1F" offset="100%"></stop>
        </radialGradient>
        <path d="M7.0382439,2.75296993 C6.78297951,3.26818234 6.3555998,3.81211306 6.30868755,4.44057425 L6.30868755,4.44057425 C6.26341011,5.0469047 6.64924181,5.55120678 7.08736528,5.76839351 L7.08736528,5.76839351 L7.10720016,5.76839351 C7.25738488,5.71754753 7.42479911,5.58075625 7.53597446,5.46499357 L7.53597446,5.46499357 C7.80422325,5.18554145 7.90529957,4.83921448 7.78874069,4.4815229 L7.78874069,4.4815229 C7.72594916,4.3026663 7.62193838,4.15361089 7.55268976,3.98339938 L7.55268976,3.98339938 C7.4756157,3.79402711 7.46102324,3.67100608 7.5170297,3.49337301 L7.5170297,3.49337301 C7.35027008,3.60229871 7.32861668,3.82172282 7.34650137,3.98072318 L7.34650137,3.98072318 C7.24348557,3.8811096 7.20343508,3.68337201 7.23347294,3.50500526 L7.23347294,3.50500526 C7.33793819,2.8852671 7.50440517,2.2791708 7.07517167,1.80702404 L7.07517167,1.80702404 C7.24503951,2.08366128 7.14689467,2.53377909 7.0382439,2.75296993" id="path-83"></path>
        <filter x="-126.9%" y="-49.1%" width="353.9%" height="198.1%" filterUnits="objectBoundingBox" id="filter-84">
            <feGaussianBlur stdDeviation="0.648" in="SourceGraphic"></feGaussianBlur>
        </filter>
        <filter x="-159.6%" y="-61.7%" width="419.2%" height="223.4%" filterUnits="objectBoundingBox" id="filter-85">
            <feGaussianBlur stdDeviation="0.5" in="SourceAlpha" result="shadowBlurInner1"></feGaussianBlur>
            <feOffset dx="0" dy="0" in="shadowBlurInner1" result="shadowOffsetInner1"></feOffset>
            <feComposite in="shadowOffsetInner1" in2="SourceAlpha" operator="arithmetic" k2="-1" k3="1" result="shadowInnerInner1"></feComposite>
            <feColorMatrix values="0 0 0 0 0.945098039   0 0 0 0 0.466666667   0 0 0 0 0.00784313725  0 0 0 1 0" type="matrix" in="shadowInnerInner1"></feColorMatrix>
        </filter>
        <radialGradient cx="55.1605903%" cy="78.8568853%" fx="55.1605903%" fy="78.8568853%" r="11.4388021%" gradientTransform="translate(0.551606,0.788569),scale(1.000000,0.873016),rotate(-180.000000),scale(1.000000,1.650175),translate(-0.551606,-0.788569)" id="radialGradient-86">
            <stop stop-color="#FFFFFF" offset="0%"></stop>
            <stop stop-color="#FFFFFF" stop-opacity="0" offset="100%"></stop>
        </radialGradient>
        <radialGradient cx="50%" cy="84.5019849%" fx="50%" fy="84.5019849%" r="192.460222%" gradientTransform="translate(0.500000,0.845020),scale(1.000000,0.224719),rotate(90.000000),translate(-0.500000,-0.845020)" id="radialGradient-87">
            <stop stop-color="#FFFFFF" offset="0%"></stop>
            <stop stop-color="#F3E744" offset="44.5629223%"></stop>
            <stop stop-color="#FA9A1F" offset="100%"></stop>
        </radialGradient>
        <filter x="-30.0%" y="-6.7%" width="160.0%" height="113.5%" filterUnits="objectBoundingBox" id="filter-88">
            <feGaussianBlur stdDeviation="0.648" in="SourceGraphic"></feGaussianBlur>
        </filter>
    </defs>
    <g id="页面-1" stroke="none" stroke-width="1" fill="none" fill-rule="evenodd">
        <g id="桌面端" transform="translate(-2023.000000, -155.000000)">
            <g id="编组-2备份" transform="translate(2029.000000, 162.000000)">
                <path d="M17.5684436,11.988 C20.0977808,16.9343691 18.1296787,20.7522828 17.8368957,22.0144059 C17.602632,23.0231583 17.6824555,24.3535335 17.9002598,25.136581 C17.5613703,23.95541 17.3490357,22.5469609 16.159447,22.1436278 C16.7014124,22.746187 16.8155297,23.4744247 16.9071955,24.1192242 C17.0884318,25.3926656 16.6118772,26.5944376 15.8129183,27.6702162 C14.626443,36.3440529 11.4656183,31.2736033 11.8942953,32.6626939 C11.5661782,32.3087737 11.2291564,26.2814999 11.584997,24.2436787 C11.1460871,25.358422 10.66043,31.4670496 10.7040577,32.5728057 C10.7424454,33.5457557 11.0277783,34.7854202 11.584997,35.8775078 C11.3522521,35.738455 6.65508072,29.7088261 4.81200396,20.3552394 C4.00429015,22.7655392 4.26309997,26.3795888 4.41521076,29.3782622 C4.53632831,31.7659426 2.39890182,29.1119125 1.48367426,28.7922865 C0.568446708,28.4726604 3.18049764,37.1200613 5.42809836,38.6999395 C7.10031669,39.8753713 8.89336203,41.6493661 11.8942953,42.0291222 C15.0270034,42.4255539 19.3526501,41.4002902 20.2318131,41.3390892 L20.5328524,41.318133 C22.9551337,40.6929361 25.6062688,37.3872068 25.7456565,33.7930086 C25.4172095,34.8466309 24.4786074,35.9433207 24.2246707,35.8279754 C24.7240385,35.1278778 25.0286095,34.441637 25.3079452,33.6238339 C25.9251289,31.8956705 26.6319024,28.8529064 24.3664081,24.0433511 C24.4855292,26.274729 23.6577915,28.3946075 23.2060041,29.3782622 C23.6622692,27.708433 23.7819262,26.6003513 23.8213383,26.021053 C23.9724711,24.3251845 23.6275344,20.1035164 21.6617842,17.0915395 C21.9303488,17.9154437 22.0343073,18.795271 21.9512397,19.6879695 C22.0264519,18.5961728 19.9581765,13.3960531 17.5684436,11.988 Z" id="Fill-1" stroke="url(#radialGradient-2)" stroke-width="0.972" fill-opacity="0.38" fill="url(#linearGradient-1)" filter="url(#filter-3)"></path>
                <path d="M25.9804192,18.144 C27.0505811,20.7849556 26.0791931,22.6827054 25.9221287,23.3229046 C25.7964773,23.834575 25.809009,24.5233355 25.8947022,24.9348649 C25.7606962,24.313731 25.6888238,23.5799624 25.1507232,23.3293234 C25.3883009,23.6594333 25.4274477,24.0389833 25.4578103,24.3747096 C25.5178671,25.0377568 25.2776398,25.6402455 24.8918774,26.1662053 C24.5776532,26.6235069 24.2233753,27.3586127 24.3947854,28.0901653 C24.2507541,27.8959201 23.9650068,27.2874328 24.1650132,26.2495734 C23.9436193,26.8085442 23.8507174,27.4294488 23.8507174,28.0011044 C23.8507174,28.5041017 23.9591109,29.1534706 24.1948268,29.736512 C24.0906344,29.6564679 23.8466834,29.4627194 23.652,28.4331892 C23.665033,28.9917015 23.6933428,29.2934235 23.809136,29.7593216 C24.3936158,32.1108579 25.8792106,33.372 26.6705714,33.372 L26.8089694,33.372 C27.9308337,33.1366057 29.2061102,31.5274346 29.3350319,29.6793922 C29.1653881,30.2108157 28.7152245,30.7425448 28.6008874,30.6739629 C28.8424991,30.330939 28.9945507,29.9880679 29.1374125,29.5764621 C29.4516366,28.7076312 29.8307155,27.1642529 28.879044,24.6033031 C28.8932944,25.758 28.4754507,26.821229 28.2505241,27.3121528 C28.4899159,26.4676217 28.5648198,25.9006273 28.5933683,25.6033756 C28.6933357,24.7344683 28.6115572,22.5455417 27.7647942,20.9221193 C27.8730206,21.3565347 27.9047677,21.8138745 27.8505351,22.2711378 C27.9047677,21.7109444 27.0505811,18.9557112 25.9804192,18.144 Z" id="Fill-1" stroke="url(#radialGradient-5)" stroke-width="0.972" fill-opacity="0.38" fill="url(#linearGradient-4)" filter="url(#filter-6)" transform="translate(26.568000, 25.758000) scale(-1, 1) translate(-26.568000, -25.758000) "></path>
                <path d="M25.9804192,18.144 C27.0505811,20.7849556 26.0791931,22.6827054 25.9221287,23.3229046 C25.7964773,23.834575 25.809009,24.5233355 25.8947022,24.9348649 C25.7606962,24.313731 25.6888238,23.5799624 25.1507232,23.3293234 C25.3883009,23.6594333 25.4274477,24.0389833 25.4578103,24.3747096 C25.5178671,25.0377568 25.2776398,25.6402455 24.8918774,26.1662053 C24.5776532,26.6235069 24.2233753,27.3586127 24.3947854,28.0901653 C24.2507541,27.8959201 23.9650068,27.2874328 24.1650132,26.2495734 C23.9436193,26.8085442 23.8507174,27.4294488 23.8507174,28.0011044 C23.8507174,28.5041017 23.9591109,29.1534706 24.1948268,29.736512 C24.0906344,29.6564679 23.8466834,29.4627194 23.652,28.4331892 C23.665033,28.9917015 23.6933428,29.2934235 23.809136,29.7593216 C24.3936158,32.1108579 25.8792106,33.372 26.6705714,33.372 L26.8089694,33.372 C27.9308337,33.1366057 29.2061102,31.5274346 29.3350319,29.6793922 C29.1653881,30.2108157 28.7152245,30.7425448 28.6008874,30.6739629 C28.8424991,30.330939 28.9945507,29.9880679 29.1374125,29.5764621 C29.4516366,28.7076312 29.8307155,27.1642529 28.879044,24.6033031 C28.8932944,25.758 28.4754507,26.821229 28.2505241,27.3121528 C28.4899159,26.4676217 28.5648198,25.9006273 28.5933683,25.6033756 C28.6933357,24.7344683 28.6115572,22.5455417 27.7647942,20.9221193 C27.8730206,21.3565347 27.9047677,21.8138745 27.8505351,22.2711378 C27.9047677,21.7109444 27.0505811,18.9557112 25.9804192,18.144 Z" id="Fill-1" fill="url(#linearGradient-4)" filter="url(#filter-7)" transform="translate(26.568000, 25.758000) scale(-1, 1) translate(-26.568000, -25.758000) "></path>
                <path d="M11.3525646,0 C15.7644317,6.76956421 12.3315145,11.9947328 11.8208196,13.7220651 C11.4121986,15.1026363 11.5514329,16.9233779 11.9313442,17.995051 C11.3402267,16.3785091 10.9698562,14.4509161 8.89488291,13.8989173 C9.84022117,14.7235754 10.0392735,15.7202361 10.1991641,16.602704 C10.5152905,18.3455264 9.68404692,19.9902628 8.2904406,21.4625654 C7.15911801,22.7382857 5.91280849,24.7577308 6.66054037,26.6588301 C6.08821289,26.1744574 4.92305678,24.6228402 5.54374178,21.8338931 C4.77816091,23.3595225 4.5083364,25.0224801 4.5844351,26.5358097 C4.65139402,27.867382 5.14909386,29.5639776 6.12103823,31.0586006 C5.71506628,30.868294 4.76369955,30.4059428 3.888,27.7208377 C4.01179759,29.1966726 4.15937294,29.989547 4.66072435,31.1989115 C7.19133662,37.3029522 12.9957175,40.3336794 15.9982211,40.1696841 L16.5233173,40.1410036 C20.7484491,39.2853639 25.3727656,34.7611671 25.6158965,29.842174 C25.0429936,31.2841537 23.4058107,32.7850752 22.9628744,32.6272144 C23.8339107,31.6690661 24.3651672,30.729882 24.8524063,29.6106427 C25.9289461,27.245491 27.1617556,23.0811865 23.2101039,16.4988647 C23.4178843,19.5527119 21.9740797,22.4539621 21.1860368,23.8001846 C21.98189,21.5148686 22.190605,19.9983562 22.2593507,19.2055329 C22.5229684,16.8845797 21.9213029,11.1068358 18.4924881,6.9846665 C18.9609395,8.11225575 19.142272,9.31638089 18.997379,10.5381215 C19.1285699,9.0438966 15.5209229,1.92705106 11.3525646,0 Z" id="Fill-1" fill="url(#linearGradient-8)" filter="url(#filter-9)"></path>
                <g id="Fill-3" filter="url(#filter-12)">
                    <use fill="black" fill-opacity="1" filter="url(#filter-13)" xlink:href="#path-11"></use>
                    <use fill="url(#radialGradient-10)" fill-rule="evenodd" xlink:href="#path-11"></use>
                </g>
                <path d="M22.8794505,30.8061281 C22.3232079,32.0160994 21.4278229,33.3102001 21.2654452,34.7581879 L21.2654452,34.7581879 C21.1087521,36.1551878 21.8049238,37.2723592 22.6355054,37.7247498 L22.6355054,37.7247498 L22.6742176,37.7226162 C22.9730513,37.5900337 23.3151978,37.2582512 23.5452168,36.9806962 L23.5452168,36.9806962 C24.100232,36.3106897 24.336524,35.5047957 24.1493525,34.6958058 L24.1493525,34.6958058 C24.046962,34.2917629 23.8607683,33.9605033 23.7448017,33.5769929 L23.7448017,33.5769929 C23.615722,33.1503139 23.6011063,32.8693834 23.7304281,32.4555958 L23.7304281,32.4555958 C23.3926994,32.7233261 23.3257127,33.2294412 23.3426991,33.5926371 L23.3426991,33.5926371 C23.1528755,33.3747974 23.096995,32.924998 23.1757183,32.51227 L23.1757183,32.51227 C23.4494353,31.0782295 23.8426197,29.6689605 23.0581199,28.6302084 L23.0581199,28.6302084 C23.3584651,29.2474533 23.1161979,30.2913551 22.8794505,30.8061281" id="Fill-3备份" fill="url(#radialGradient-14)" filter="url(#filter-15)" transform="translate(22.727921, 33.177479) scale(-1, 1) rotate(-23.000000) translate(-22.727921, -33.177479) "></path>
                <g id="Fill-3" filter="url(#filter-17)">
                    <use fill="black" fill-opacity="1" filter="url(#filter-18)" xlink:href="#path-16"></use>
                    <use fill="url(#radialGradient-10)" fill-rule="evenodd" xlink:href="#path-16"></use>
                </g>
                <g id="编组备份" transform="translate(20.117056, 25.785769) rotate(2.000000) translate(-20.117056, -25.785769) translate(9.117056, 7.285769)">
                    <path d="M12.0977316,7.70449995 C14.3090972,12.5989088 12.3196695,16.1050007 11.9993818,17.2888424 L11.9993818,17.2888424 C11.7431496,18.2350108 11.7717764,19.5097935 11.949682,20.271959 L11.949682,20.271959 C11.6715683,19.1215699 11.520742,17.7631163 10.4132926,17.2958664 L10.4132926,17.2958664 C10.9031557,17.9083032 10.9852227,18.6109908 11.0490464,19.2325178 L11.0490464,19.2325178 C11.1752845,20.4600113 10.6838458,21.5735381 9.89284899,22.544515 L9.89284899,22.544515 C9.24865967,23.3888749 8.52326771,24.747121 8.87874811,26.1020999 L8.87874811,26.1020999 C8.58179334,25.7416995 7.99173109,24.6137605 8.39866245,22.6942309 L8.39866245,22.6942309 C7.94576708,23.7273365 7.75732609,24.8758732 7.75969967,25.9338484 L7.75969967,25.9338484 C7.76178817,26.8647563 7.98735634,28.0672395 8.47444142,29.1477702 L8.47444142,29.1477702 C8.25987521,28.9989753 7.75747395,28.6388652 7.35290338,26.7322662 L7.35290338,26.7322662 C7.38202003,27.7659989 7.4414816,28.3245804 7.68150276,29.1875569 L7.68150276,29.1875569 C8.89303756,33.5432743 11.952861,35.8866477 13.5800077,35.8916288 L13.5800077,35.8916288 L13.8645731,35.8924999 C16.1703029,35.463912 18.7857654,32.4938117 19.0431727,29.0744119 L19.0431727,29.0744119 C18.6965683,30.0568608 17.7731778,31.0381097 17.5378002,30.9104641 L17.5378002,30.9104641 C18.0331629,30.2771432 18.3443784,29.6435414 18.6364127,28.882673 L18.6364127,28.882673 C19.2788933,27.276687 20.0519233,24.4227097 18.0845225,19.6771151 L18.0845225,19.6771151 C18.1186177,21.814227 17.2638883,23.7793375 16.8034465,24.686485 L16.8034465,24.686485 C17.2921625,23.125 17.4438211,22.076123 17.5012864,21.5261725 L17.5012864,21.5261725 C17.7032253,19.9186964 17.5259889,15.8670885 15.7781871,12.8572561 L15.7781871,12.8572561 C16.0025192,13.6619193 16.0696944,14.5085276 15.9600834,15.3544532 L15.9600834,15.3544532 C16.069267,14.3180326 14.301502,9.21348717 12.0977316,7.70449995 Z" id="Fill-1" stroke="url(#radialGradient-20)" stroke-width="0.972" fill-opacity="0.38" fill="url(#linearGradient-19)" filter="url(#filter-21)" transform="translate(13.346903, 21.798500) rotate(1.000000) translate(-13.346903, -21.798500) "></path>
                    <path d="M13.8264903,17.4416217 C11.7243465,20.6428834 8.20253225,24.0217774 7.82000904,27.9280622 L7.82000904,27.9280622 C7.45081455,31.6967904 10.637352,34.833516 14.2532258,36.1857956 L14.2532258,36.1857956 L14.4168547,36.1857956 C15.6554497,35.8706067 17.0355674,35.0211671 17.9518893,34.3021536 L17.9518893,34.3021536 C20.16283,32.5664483 20.9941949,30.4141916 20.0300847,28.1901781 L20.0300847,28.1901781 C19.5108068,27.0780811 18.6517008,26.1510176 18.0792164,25.0926255 L18.0792164,25.0926255 C17.4420389,23.9150897 17.3207802,23.1503143 17.7815418,22.0464309 L17.7815418,22.0464309 C16.4066255,22.722661 16.2295596,24.086494 16.3782343,25.0749344 L16.3782343,25.0749344 C15.5276891,24.4552073 15.19588,23.2258621 15.442407,22.1172853 L15.442407,22.1172853 C16.2997791,18.2655176 17.6687354,14.4988655 14.1243816,11.5617956 L14.1243816,11.5617956 C15.5276891,13.282247 14.7212478,16.0796842 13.8264903,17.4416217" id="Fill-3" fill="url(#radialGradient-22)" filter="url(#filter-23)"></path>
                    <path d="M20.4266531,18.0971919 C20.0071755,19.1309938 19.3044063,20.2221596 19.2280747,21.4836387 L19.2280747,21.4836387 C19.1544029,22.7006959 19.7902685,23.7136568 20.5118071,24.1503563 L20.5118071,24.1503563 L20.5444589,24.1503563 C20.7916174,24.0485705 21.0670165,23.7742561 21.2498662,23.5420609 L21.2498662,23.5420609 C21.6910539,22.9815396 21.8569507,22.2864989 21.6645649,21.5682853 L21.6645649,21.5682853 C21.5609443,21.2091494 21.3895119,20.9097675 21.275274,20.5679748 L21.275274,20.5679748 C21.1481268,20.1877063 21.12393,19.940733 21.2158738,19.5842496 L21.2158738,19.5842496 C20.9415127,19.8026284 20.9061796,20.2430589 20.9358473,20.5622617 L20.9358473,20.5622617 C20.7661231,20.3621296 20.6999114,19.9651301 20.7491053,19.607131 L20.7491053,19.607131 C20.9201917,18.3632574 21.1933636,17.1468706 20.4860966,16.1983857 L20.4860966,16.1983857 C20.7661231,16.753981 20.6051997,17.6573735 20.4266531,18.0971919" id="Fill-3备份-2" fill="url(#radialGradient-24)" filter="url(#filter-25)"></path>
                    <path d="M0.0332601808,19.2251055 C-0.0404116615,20.4421626 0.595453967,21.4551236 1.31699257,21.891823 L1.34964431,21.891823 C1.59680286,21.7900373 1.87220191,21.5157228 2.05505166,21.2835276 C2.4962394,20.7230063 2.66213619,20.0279656 2.4697504,19.3097521 C2.36612978,18.9506161 2.19469732,18.6512342 2.08045948,18.3094415 C1.9533123,17.9291731 1.92911541,17.6821997 2.02105926,17.3257163 C1.74669814,17.5440952 1.71136506,17.9845256 1.74103273,18.3037284 C1.57130855,18.1035963 1.50509688,17.7065968 1.55429072,17.3485977 C1.7253772,16.1047241 1.99854902,14.8883373 1.29128203,13.9398524 C1.57130855,14.4954477 1.4103852,15.3988403 1.23183856,15.8386586 C0.812360996,16.8724606 0.109591734,17.9636263 0.0332601808,19.2251055 Z" id="Fill-3备份-2" fill="url(#radialGradient-24)" filter="url(#filter-26)"></path>
                    <path d="M4.51550594,8.63116284 C2.95237336,13.3066898 0.333588435,18.2416534 0.0491481029,23.9468852 L0.0491481029,23.9468852 C-0.225381136,29.4512118 2.14409547,34.0324821 4.8328221,36.0075221 L4.8328221,36.0075221 L4.95449488,36.0075221 C5.87550139,35.5471804 6.90174277,34.3065515 7.58311032,33.2564134 L7.58311032,33.2564134 C9.22714321,30.72137 9.84533761,27.5779426 9.12843516,24.3297123 L9.12843516,24.3297123 C8.7423054,22.7054653 8.10348303,21.3514648 7.67778947,19.8056552 L7.67778947,19.8056552 C7.20399084,18.0858332 7.11382406,16.9688586 7.45644171,15.3566079 L7.45644171,15.3566079 C6.43406807,16.3442597 6.30240362,18.3361737 6.41295664,19.779817 L6.41295664,19.779817 C5.78049993,18.8746892 5.5337701,17.0791982 5.71708505,15.4600925 L5.71708505,15.4600925 C6.35461817,9.83448453 7.37256001,4.33318992 4.73701486,0.0435221254 L4.73701486,0.0435221254 C5.78049993,2.55628665 5.18083847,6.64201726 4.51550594,8.63116284" id="Fill-3备份-2" fill="url(#radialGradient-27)" filter="url(#filter-28)"></path>
                    <g id="Fill-3" filter="url(#filter-31)" transform="translate(2.719950, 18.383344) rotate(1.000000) translate(-2.719950, -18.383344) ">
                        <use fill="url(#radialGradient-29)" fill-rule="evenodd" xlink:href="#path-30"></use>
                        <use fill="black" fill-opacity="1" filter="url(#filter-32)" xlink:href="#path-30"></use>
                    </g>
                    <g id="Fill-3" filter="url(#filter-35)" transform="translate(11.634190, 7.603665) scale(-1, 1) rotate(1.000000) translate(-11.634190, -7.603665) ">
                        <use fill="url(#radialGradient-33)" fill-rule="evenodd" xlink:href="#path-34"></use>
                        <use fill="black" fill-opacity="1" filter="url(#filter-36)" xlink:href="#path-34"></use>
                    </g>
                </g>
                <path d="M14.3712558,47.4357363 C22.1370904,47.4357363 28.8219685,40.8353308 28.8219685,31.5768292 C28.8219685,22.3183277 22.3318031,7.64426374 14.5659685,7.64426374 C6.80013396,7.64426374 0.309968504,21.4132347 0.309968504,30.6717363 C0.309968504,39.9302378 6.60542127,47.4357363 14.3712558,47.4357363 Z" id="椭圆形" fill-opacity="0.89" fill="url(#radialGradient-37)"></path>
                <path d="M14.2993645,23.3516831 C12.5206274,26.6371886 9.54063079,30.1050008 9.21695731,34.1140826 L9.21695731,34.1140826 C8.90456197,37.9819878 11.6008629,41.2012588 14.6604484,42.5891248 L14.6604484,42.5891248 L14.7989036,42.5891248 C15.8469455,42.2656414 17.0147374,41.3938482 17.7900867,40.6559133 L17.7900867,40.6559133 C19.6608828,38.8745314 20.3643454,36.6656365 19.5485598,34.3830963 L19.5485598,34.3830963 C19.1091708,33.2417335 18.382235,32.2902737 17.8978251,31.2040291 L17.8978251,31.2040291 C17.3586749,29.9955056 17.2560713,29.2106045 17.6459466,28.0776716 L17.6459466,28.0776716 C16.4825559,28.7716972 16.3327308,30.1714205 16.4585325,31.1858725 L16.4585325,31.1858725 C15.7388404,30.5498368 15.4580789,29.2881404 15.6666787,28.1503905 L15.6666787,28.1503905 C16.3921474,24.1972605 17.550495,20.331486 14.5514264,17.3171248 L14.5514264,17.3171248 C15.7388404,19.0828512 15.056467,21.9539052 14.2993645,23.3516831" id="Fill-3" fill="url(#radialGradient-38)" filter="url(#filter-39)"></path>
                <g id="编组-2" transform="translate(21.708000, 14.256000)">
                    <path d="M12.1171106,13.932 C13.6480252,16.3785911 12.4568055,18.2670216 12.2795948,18.8912975 C12.1378036,19.3902503 12.1861178,20.0482854 12.3179467,20.4355992 C12.1128294,19.8513641 11.9843111,19.1547119 11.2642969,18.9552138 C11.5923286,19.2532538 11.6613996,19.6134574 11.7168815,19.9323905 C11.8265771,20.5622647 11.5381362,21.1566896 11.0545558,21.6887951 C10.336426,25.9790799 8.42329528,23.4711156 8.68275769,24.1581927 C8.48416047,23.9831354 8.28017361,21.0019032 8.49555084,19.9939486 C8.22989485,20.545327 7.9359445,23.5667987 7.96235069,24.1137318 C7.98558538,24.594976 8.15828686,25.2081433 8.49555084,25.7483157 C8.35467888,25.6795369 5.51165412,22.6971398 4.39610766,18.0706345 C3.90722825,19.2628258 4.0638763,21.0504203 4.15594336,22.5336351 C4.22925135,23.7146383 2.93554584,22.4018922 2.38159232,22.2437976 C1.8276388,22.085703 3.40861699,26.362912 4.7690069,27.1443572 C5.78113905,27.7257536 6.86640333,28.6032133 8.68275769,28.7910497 C10.5788704,28.9871342 13.197025,28.4800145 13.72915,28.449743 L13.911358,28.4393776 C15.3774756,28.1301405 16.9821101,26.4950485 17.0664763,24.7172731 C16.8676794,25.2384196 16.2995782,25.7808683 16.1458796,25.7238158 C16.4481286,25.377531 16.6324742,25.0381 16.8015458,24.6335953 C17.1751043,23.7788048 17.6028883,22.2737817 16.231668,19.8948619 C16.3037677,20.9985541 15.8027686,22.0470962 15.5293183,22.5336351 C15.8054787,21.707698 15.8779027,21.1596146 15.9017574,20.87308 C15.9932325,20.0342633 15.7844551,17.9461264 14.5946588,16.4563314 C14.7572111,16.8638539 14.8201334,17.2990373 14.7698556,17.7405871 C14.8153788,17.2005586 13.5635279,14.6284564 12.1171106,13.932 Z" id="Fill-1" stroke="url(#radialGradient-41)" stroke-width="0.972" fill-opacity="0.38" fill="url(#linearGradient-40)" filter="url(#filter-42)"></path>
                    <path d="M17.2989228,16.524 C17.9529107,17.8725731 17.3592847,18.8416368 17.2633009,19.168547 C17.1865139,19.4298255 17.1941722,19.781533 17.2465402,19.9916757 C17.1646477,19.6745009 17.1207256,19.2998106 16.7918864,19.1718247 C16.9370728,19.3403915 16.9609958,19.5342042 16.9795507,19.705639 C17.0162521,20.0442162 16.8694465,20.3518701 16.6337028,20.6204453 C16.441677,20.853961 16.2251738,21.2293341 16.3299244,21.6028929 C16.2419053,21.5037039 16.0672819,21.1929869 16.1895081,20.6630162 C16.0542118,20.9484481 15.9974384,21.2655058 15.9974384,21.557415 C15.9974384,21.8142647 16.0636789,22.1458573 16.2077275,22.4435806 C16.1440544,22.402707 15.9949732,22.3037716 15.876,21.7780541 C15.8839646,22.0632518 15.901265,22.2173226 15.9720275,22.4552281 C16.3292097,23.6560126 17.2370731,24.3 17.7206825,24.3 L17.8052591,24.3 C18.4908428,24.1797986 19.2701785,23.3580942 19.3489639,22.4144131 C19.2452927,22.6857782 18.9701927,22.9572995 18.9003201,22.9222789 C19.0479717,22.7471178 19.1408921,22.5720347 19.2281965,22.361853 C19.4202224,21.9181947 19.6518817,21.1300866 19.0703047,19.8223675 C19.0790132,20.412 18.8236643,20.9549254 18.6862092,21.2056099 C18.8325042,20.77436 18.8782788,20.484831 18.8957251,20.3330429 C18.9568163,19.8893455 18.9068405,18.7715957 18.3893743,17.9426141 C18.4555126,18.1644433 18.4749136,18.3979785 18.4417715,18.6314746 C18.4749136,18.3454184 17.9529107,16.9384908 17.2989228,16.524 Z" id="Fill-1" stroke="url(#radialGradient-44)" stroke-width="0.972" fill-opacity="0.38" fill="url(#linearGradient-43)" filter="url(#filter-45)" transform="translate(17.658000, 20.412000) scale(-1, 1) translate(-17.658000, -20.412000) "></path>
                    <path d="M17.2989228,16.524 C17.9529107,17.8725731 17.3592847,18.8416368 17.2633009,19.168547 C17.1865139,19.4298255 17.1941722,19.781533 17.2465402,19.9916757 C17.1646477,19.6745009 17.1207256,19.2998106 16.7918864,19.1718247 C16.9370728,19.3403915 16.9609958,19.5342042 16.9795507,19.705639 C17.0162521,20.0442162 16.8694465,20.3518701 16.6337028,20.6204453 C16.441677,20.853961 16.2251738,21.2293341 16.3299244,21.6028929 C16.2419053,21.5037039 16.0672819,21.1929869 16.1895081,20.6630162 C16.0542118,20.9484481 15.9974384,21.2655058 15.9974384,21.557415 C15.9974384,21.8142647 16.0636789,22.1458573 16.2077275,22.4435806 C16.1440544,22.402707 15.9949732,22.3037716 15.876,21.7780541 C15.8839646,22.0632518 15.901265,22.2173226 15.9720275,22.4552281 C16.3292097,23.6560126 17.2370731,24.3 17.7206825,24.3 L17.8052591,24.3 C18.4908428,24.1797986 19.2701785,23.3580942 19.3489639,22.4144131 C19.2452927,22.6857782 18.9701927,22.9572995 18.9003201,22.9222789 C19.0479717,22.7471178 19.1408921,22.5720347 19.2281965,22.361853 C19.4202224,21.9181947 19.6518817,21.1300866 19.0703047,19.8223675 C19.0790132,20.412 18.8236643,20.9549254 18.6862092,21.2056099 C18.8325042,20.77436 18.8782788,20.484831 18.8957251,20.3330429 C18.9568163,19.8893455 18.9068405,18.7715957 18.3893743,17.9426141 C18.4555126,18.1644433 18.4749136,18.3979785 18.4417715,18.6314746 C18.4749136,18.3454184 17.9529107,16.9384908 17.2989228,16.524 Z" id="Fill-1" fill="url(#linearGradient-43)" filter="url(#filter-46)" transform="translate(17.658000, 20.412000) scale(-1, 1) translate(-17.658000, -20.412000) "></path>
                    <path d="M8.38869335,13.284 C11.0487897,15.7406967 8.97894258,17.6369272 8.67102359,18.2637817 C8.42464915,18.7647954 8.50859927,19.4255484 8.73766343,19.8144621 C8.38125435,19.2278138 8.15794269,18.5282841 6.90685587,18.3279619 C7.47683923,18.627233 7.59685608,18.9889244 7.69326071,19.3091748 C7.88386634,19.9416507 7.38267535,20.5385308 6.54241272,21.0728342 C5.86029174,21.5357972 5.10884042,22.2686604 5.55967875,22.9585754 C5.21459895,22.782795 4.51207835,22.2197081 4.8863149,21.2075902 C4.42471467,21.7612461 4.26202636,22.3647387 4.3079094,22.9139309 C4.34828169,23.3971628 4.64836542,24.0128629 5.2343907,24.5552663 C4.98961349,24.4862035 4.41599532,24.3184147 3.888,23.3439814 C3.96264267,23.8795667 4.05162192,24.1673033 4.35390733,24.6061856 C5.87971767,26.8213617 9.37941792,27.9212224 11.189751,27.861708 L11.5063531,27.8512997 C14.053859,27.5407853 16.8420499,25.8989397 16.9886435,24.1138212 C16.6432167,24.6371203 15.6560917,25.1818095 15.3890272,25.1245214 C15.9142109,24.7768062 16.2345273,24.4359733 16.5283038,24.0297978 C17.177394,23.1714766 17.9207056,21.660237 15.5380921,19.2714912 C15.6633714,20.3797422 14.7928422,21.4326153 14.3176987,21.9211638 C14.7975513,21.0918152 14.9233942,20.541468 14.9648438,20.2537498 C15.1237898,19.4114684 14.7610209,17.3147066 12.6936473,15.818758 C12.9760958,16.2279638 13.0854287,16.6649447 12.9980667,17.1083183 C13.0771672,16.5660593 10.9019682,13.983333 8.38869335,13.284 Z" id="Fill-1" fill="url(#linearGradient-47)" filter="url(#filter-48)"></path>
                    <g id="Fill-3" filter="url(#filter-51)">
                        <use fill="black" fill-opacity="1" filter="url(#filter-52)" xlink:href="#path-50"></use>
                        <use fill="url(#radialGradient-49)" fill-rule="evenodd" xlink:href="#path-50"></use>
                    </g>
                    <path d="M12.6449857,25.5783315 C12.5313874,26.9172218 13.5118605,28.0315849 14.624437,28.512 L14.6747843,28.512 C15.0558905,28.400025 15.4805421,28.0982504 15.7624873,27.8428114 C16.4427768,27.2261792 16.6985813,26.4615617 16.4019321,25.6714517 C16.2421542,25.2763646 15.9778139,24.9470131 15.8016649,24.5710053 C15.6056103,24.1526703 15.5682999,23.8809737 15.7100727,23.4888046 C15.2870215,23.7290443 15.2325397,24.2135639 15.2782858,24.5647204 C15.0165795,24.3445541 14.9144844,23.9078131 14.9903389,23.5139766 C15.2541457,22.1455854 15.675363,20.8074327 14.5847926,19.764 C15.0165795,20.375213 14.7684438,21.3690394 14.4931338,21.8528856 C13.8463203,22.9901759 12.7626851,24.1905725 12.6449857,25.5783315 Z" id="Fill-3" fill="url(#radialGradient-49)" filter="url(#filter-53)"></path>
                    <g id="Fill-3" filter="url(#filter-56)" transform="translate(13.608000, 22.842000) scale(-1, 1) translate(-13.608000, -22.842000) ">
                        <use fill="black" fill-opacity="1" filter="url(#filter-57)" xlink:href="#path-55"></use>
                        <use fill="url(#radialGradient-54)" fill-rule="evenodd" xlink:href="#path-55"></use>
                    </g>
                    <path d="M11.6729857,24.2823315 C11.5593874,25.6212218 12.5398605,26.7355849 13.652437,27.216 L13.7027843,27.216 C14.0838905,27.104025 14.5085421,26.8022504 14.7904873,26.5468114 C15.4707768,25.9301792 15.7265813,25.1655617 15.4299321,24.3754517 C15.2701542,23.9803646 15.0058139,23.6510131 14.8296649,23.2750053 C14.6336103,22.8566703 14.5962999,22.5849737 14.7380727,22.1928046 C14.3150215,22.4330443 14.2605397,22.9175639 14.3062858,23.2687204 C14.0445795,23.0485541 13.9424844,22.6118131 14.0183389,22.2179766 C14.2821457,20.8495854 14.703363,19.5114327 13.6127926,18.468 C14.0445795,19.079213 13.7964438,20.0730394 13.5211338,20.5568856 C12.8743203,21.6941759 11.7906851,22.8945725 11.6729857,24.2823315 Z" id="Fill-3" fill="url(#radialGradient-58)" filter="url(#filter-59)" transform="translate(13.608000, 22.842000) scale(-1, 1) translate(-13.608000, -22.842000) "></path>
                    <g id="Fill-3" filter="url(#filter-61)" transform="translate(13.608000, 22.842000) scale(-1, 1) translate(-13.608000, -22.842000) ">
                        <use fill="black" fill-opacity="1" filter="url(#filter-62)" xlink:href="#path-60"></use>
                        <use fill="url(#radialGradient-49)" fill-rule="evenodd" xlink:href="#path-60"></use>
                    </g>
                    <path d="M15.2243512,22.989185 C14.9433058,23.590263 14.4652075,24.2213198 14.4262108,24.9604262 L14.4262108,24.9604262 C14.3885677,25.6735051 14.843783,26.2760495 15.3522672,26.5416189 L15.3522672,26.5416189 L15.375054,26.5420426 C15.5463878,26.485533 15.7354779,26.328169 15.8604568,26.194315 L15.8604568,26.194315 C16.1620081,25.8711876 16.2699191,25.465567 16.1275317,25.0417022 L16.1275317,25.0417022 C16.0511541,24.8296564 15.9281285,24.6517876 15.8445376,24.4497791 L15.8445376,24.4497791 C15.7515023,24.2250297 15.7318215,24.079819 15.7919533,23.8718669 L15.7919533,23.8718669 C15.6029547,23.9964276 15.5832799,24.2543651 15.6075959,24.442023 L15.6075959,24.442023 C15.4868854,24.3224054 15.4361861,24.0886307 15.4664666,23.8792346 L15.4664666,23.8792346 C15.5717894,23.1516868 15.748666,22.4415898 15.244351,21.8759463 L15.244351,21.8759463 C15.4460606,22.2055418 15.3439779,22.7334648 15.2243512,22.989185" id="Fill-3备份" fill="url(#radialGradient-63)" filter="url(#filter-64)" transform="translate(15.306841, 24.208994) scale(-1, 1) rotate(-23.000000) translate(-15.306841, -24.208994) "></path>
                    <g id="Fill-3" filter="url(#filter-66)">
                        <use fill="black" fill-opacity="1" filter="url(#filter-67)" xlink:href="#path-65"></use>
                        <use fill="url(#radialGradient-49)" fill-rule="evenodd" xlink:href="#path-65"></use>
                    </g>
                    <g id="编组备份" transform="translate(14.123894, 20.348651) rotate(2.000000) translate(-14.123894, -20.348651) translate(7.123894, 11.348651)">
                        <path d="M7.3760049,3.83981745 C8.70994759,6.27394154 7.49479468,8.02443434 7.29797973,8.61482273 L7.29797973,8.61482273 C7.14052827,9.08668254 7.15548561,9.72171115 7.26209928,10.1010746 L7.26209928,10.1010746 C7.09535547,9.52849342 7.00632843,8.85201399 6.33450703,8.62134762 L6.33450703,8.62134762 C6.63090282,8.92552268 6.67941342,9.27543764 6.71699702,9.58495406 L6.71699702,9.58495406 C6.79133795,10.1962375 6.49069258,10.7519221 6.00835461,11.2371615 L6.00835461,11.2371615 C5.61543538,11.6590415 5.17220986,12.337089 5.38555928,13.011447 L5.38555928,13.011447 C5.20586359,12.8324658 4.84958588,12.2716642 5.10043535,11.3145986 L5.10043535,11.3145986 C4.82335631,11.8301449 4.70669812,12.4026931 4.70612172,12.9297606 L4.70612172,12.9297606 C4.70561455,13.393525 4.84034056,13.9921591 5.13415591,14.5295389 L5.13415591,14.5295389 C5.00410294,14.4558201 4.69960959,14.2773755 4.45749295,13.3282999 L4.45749295,13.3282999 C4.4732077,13.843239 4.50826167,14.1214049 4.6524147,14.5508728 L4.6524147,14.5508728 C5.38004441,16.7185338 7.23424354,17.8801406 8.22263343,17.8795184 L8.22263343,17.8795184 L8.39548911,17.8795184 C9.79690693,17.6614929 11.391318,16.1768312 11.5542013,14.4728314 L11.5542013,14.4728314 C11.3417846,14.9629382 10.7790053,15.4535475 10.6362703,15.3904048 L10.6362703,15.3904048 C10.9383832,15.0739461 11.1286376,14.7576988 11.3074834,14.3780851 L11.3074834,14.3780851 C11.7008175,13.5767743 12.1758337,12.1534785 10.989802,9.79302671 L10.989802,9.79302671 C11.0064361,10.8576481 10.4834878,11.8382758 10.202065,12.2910854 L10.202065,12.2910854 C10.501911,11.5122379 10.5960358,10.9894092 10.6319919,10.7153201 L10.6319919,10.7153201 C10.7577247,9.91410732 10.6577925,7.89597735 9.60184361,6.39984498 L9.60184361,6.39984498 C9.73657766,6.80029169 9.7757678,7.2219348 9.70757164,7.64357507 L9.70757164,7.64357507 C9.77587158,7.12703306 8.71179201,4.58737492 7.3760049,3.83981745 Z" id="Fill-1" stroke="url(#radialGradient-69)" stroke-width="0.972" fill-opacity="0.38" fill="url(#linearGradient-68)" filter="url(#filter-70)" transform="translate(8.099921, 10.859668) rotate(1.000000) translate(-8.099921, -10.859668) "></path>
                        <path d="M9.05010218,4.33214564 C8.23151035,6.66128785 6.86008737,9.11966997 6.71112973,11.9617659 L6.71112973,11.9617659 C6.56736241,14.7037797 7.80822592,16.9859674 9.21627644,17.9698456 L9.21627644,17.9698456 L9.27999487,17.9698456 C9.76231378,17.7405236 10.2997428,17.1224967 10.656566,16.5993641 L10.656566,16.5993641 C11.5175242,15.3365168 11.8412644,13.7705993 11.4658321,12.1524736 L11.4658321,12.1524736 C11.2636211,11.3433451 10.9290783,10.6688414 10.7061482,9.89878698 L10.7061482,9.89878698 C10.4580261,9.04204722 10.410807,8.4856195 10.5902313,7.68246701 L10.5902313,7.68246701 C10.0548278,8.17447179 9.98587682,9.16675585 10.043772,9.88591553 L10.043772,9.88591553 C9.71256277,9.4350206 9.58335363,8.54058586 9.67935324,7.7340185 L9.67935324,7.7340185 C10.0132209,4.93158766 10.5463035,2.19108427 9.16610346,0.0541601588 L9.16610346,0.0541601588 C9.71256277,1.3059091 9.39852801,3.34124066 9.05010218,4.33214564" id="Fill-3" fill="url(#radialGradient-71)" filter="url(#filter-72)"></path>
                        <path d="M12.4087145,9.01522626 C12.1538917,9.53022099 11.7269758,10.0737919 11.6806061,10.7022054 L11.6806061,10.7022054 C11.6358522,11.3084898 12.0221257,11.8131024 12.4604436,12.030647 L12.4604436,12.030647 L12.4802787,12.030647 C12.6304218,11.9799417 12.7977203,11.8432903 12.9087972,11.7276209 L12.9087972,11.7276209 C13.1768085,11.4483938 13.2775869,11.102155 13.160717,10.7443726 L13.160717,10.7443726 C13.0977699,10.5654668 12.9936287,10.4163279 12.9242319,10.2460618 L12.9242319,10.2460618 C12.8469929,10.0566288 12.8322939,9.93359747 12.8881476,9.75601308 L12.8881476,9.75601308 C12.7214797,9.86479986 12.7000156,10.084203 12.7180381,10.2432158 L12.7180381,10.2432158 C12.6149346,10.1435188 12.5747125,9.94575104 12.6045967,9.76741159 L12.6045967,9.76741159 C12.7085277,9.1477684 12.8744732,8.54181794 12.444825,8.06932439 L12.444825,8.06932439 C12.6149346,8.34609758 12.5171774,8.79612807 12.4087145,9.01522626" id="Fill-3备份-2" fill="url(#radialGradient-73)" filter="url(#filter-74)"></path>
                        <path d="M0.748313146,7.89012417 C0.493490325,8.4051189 0.0665744181,8.94868976 0.0202047827,9.57710327 L0.0202047827,9.57710327 C-0.0245491402,10.1833877 0.361724372,10.6880004 0.800042218,10.9055449 L0.800042218,10.9055449 L0.819877388,10.9055449 C0.970020428,10.8548397 1.13731892,10.7181882 1.24839587,10.6025188 L1.24839587,10.6025188 C1.51640711,10.3232917 1.61718553,9.97705294 1.50031566,9.61927049 L1.50031566,9.61927049 C1.43736856,9.44036474 1.33322735,9.2912258 1.26383052,9.12095969 L1.26383052,9.12095969 C1.18659158,8.93152666 1.17189254,8.80849538 1.22774628,8.63091099 L1.22774628,8.63091099 C1.06107831,8.73969776 1.03961429,8.95910088 1.05763671,9.11811369 L1.05763671,9.11811369 C0.954533232,9.01841668 0.914311186,8.82064895 0.9441953,8.6423095 L0.9441953,8.6423095 C1.04812634,8.0226663 1.21407183,7.41671584 0.784423663,6.9442223 L0.784423663,6.9442223 C0.954533232,7.22099548 0.856776058,7.67102598 0.748313146,7.89012417" id="Fill-3备份-2" fill="url(#radialGradient-73)" filter="url(#filter-75)"></path>
                        <path d="M2.74306436,4.29966629 C1.79349784,6.6288085 0.20264718,9.08719062 0.0298563242,11.9292866 L0.0298563242,11.9292866 C-0.136913774,14.6713004 1.3024879,16.953488 2.93582651,17.9373662 L2.93582651,17.9373662 L3.00973988,17.9373662 C3.56922982,17.7080442 4.19264748,17.0900174 4.60656234,16.5668847 L4.60656234,16.5668847 C5.60527391,15.3040374 5.98081257,13.7381199 5.54531108,12.1199942 L5.54531108,12.1199942 C5.31074627,11.3108657 4.92267661,10.6363621 4.66407771,9.86630764 L4.66407771,9.86630764 C4.37625612,9.00956787 4.32148191,8.45314015 4.52961412,7.64998766 L4.52961412,7.64998766 C3.90854603,8.14199244 3.82856295,9.1342765 3.89572132,9.85343618 L3.89572132,9.85343618 C3.51151865,9.40254125 3.36163604,8.50810651 3.47299559,7.70153915 L3.47299559,7.70153915 C3.86028206,4.89910831 4.47865795,2.15860492 2.87762585,0.0216808116 L2.87762585,0.0216808116 C3.51151865,1.27342975 3.14723832,3.30876131 2.74306436,4.29966629" id="Fill-3备份-2" fill="url(#radialGradient-76)" filter="url(#filter-77)"></path>
                        <g id="Fill-3" filter="url(#filter-80)" transform="translate(1.644455, 9.157551) rotate(1.000000) translate(-1.644455, -9.157551) ">
                            <use fill="url(#radialGradient-78)" fill-rule="evenodd" xlink:href="#path-79"></use>
                            <use fill="black" fill-opacity="1" filter="url(#filter-81)" xlink:href="#path-79"></use>
                        </g>
                        <g id="Fill-3" filter="url(#filter-84)" transform="translate(7.070821, 3.787709) scale(-1, 1) rotate(1.000000) translate(-7.070821, -3.787709) ">
                            <use fill="url(#radialGradient-82)" fill-rule="evenodd" xlink:href="#path-83"></use>
                            <use fill="black" fill-opacity="1" filter="url(#filter-85)" xlink:href="#path-83"></use>
                        </g>
                    </g>
                    <path d="M8.78830457,29.484 C13.6419512,29.484 17.82,26.0981621 17.82,21.3487894 C17.82,16.5994167 13.7636466,9.072 8.91,9.072 C4.05635341,9.072 0,16.1351273 0,20.8845 C0,25.6338727 3.93465798,29.484 8.78830457,29.484 Z" id="椭圆形" fill="url(#radialGradient-86)"></path>
                    <path d="M15.7312229,6.8855858 C14.6532005,10.6344317 12.8471419,14.5912944 12.6509761,19.1657595 L12.6509761,19.1657595 C12.4616456,23.5791386 14.0957674,27.2524093 15.9500617,28.836 L15.9500617,28.836 L16.0339739,28.836 C16.6691508,28.4668972 17.3769035,27.4721587 17.8468122,26.6301561 L17.8468122,26.6301561 C18.9806279,24.5975537 19.4069689,22.077148 18.9125534,19.472711 L18.9125534,19.472711 C18.646257,18.1703869 18.2056899,17.0847468 17.9121081,15.8453139 L17.9121081,15.8453139 C17.5853504,14.4663575 17.5231665,13.5707653 17.7594545,12.2780598 L17.7594545,12.2780598 C17.0543692,13.0699608 16.9635662,14.667081 17.0398096,15.8245968 L17.0398096,15.8245968 C16.6036326,15.0988637 16.4334741,13.6592358 16.5598982,12.3610339 L16.5598982,12.3610339 C16.9995762,7.8504113 17.701605,3.43946336 15.8839877,0 L15.8839877,0 C16.6036326,2.01473913 16.1900729,5.29068529 15.7312229,6.8855858" id="Fill-3" fill="url(#radialGradient-87)" filter="url(#filter-88)"></path>
                </g>
            </g>
        </g>
    </g>
</svg>