<?xml version="1.0" encoding="UTF-8"?>
<svg width="55px" height="55px" viewBox="0 0 55 55" version="1.1" xmlns="http://www.w3.org/2000/svg" xmlns:xlink="http://www.w3.org/1999/xlink">
    <!-- Generator: Sketch 63 (92445) - https://sketch.com -->
    <title>8</title>
    <desc>Created with Sketch.</desc>
    <g id="页面-1" stroke="none" stroke-width="1" fill="none" fill-rule="evenodd">
        <g id="桌面端" transform="translate(-1953.000000, -70.000000)" fill-rule="nonzero">
            <g id="8" transform="translate(1954.000000, 84.000000)">
                <circle id="椭圆形" stroke="#E5202A" stroke-width="2" fill="#FFFFFF" cx="42.3" cy="22.1" r="4.5"></circle>
                <circle id="椭圆形" stroke="#E5202A" stroke-width="2" fill="#FFFFFF" cx="9.6" cy="22.1" r="4.5"></circle>
                <path d="M52.8,22.6 L1.6,22.6 L1.6,21 L0,21 L0,0.6 L35.8,0.6 L38.8,3.1 C38.8,3.1 40.4,3.1 42.9,3.1 C45.4,3.1 46.7,10.1 46.7,10.1 C46.7,10.1 52.7,11.3 52.7,13 C52.8,14.7 52.8,22.6 52.8,22.6 Z" id="路径" fill="#E5202A"></path>
                <path d="M44.5,9.9 L37,9.9 L37,5.1 C37,5.1 41.8,5.1 42.6,5.1 C43.4,5.1 44.4,6.2 44.4,6.5 C44.4,6.8 44.5,9.9 44.5,9.9 Z" id="路径" fill="#FFFFFF"></path>
                <rect id="矩形" fill="#E5202A" x="46.6" y="19" width="7.4" height="5.5"></rect>
                <g id="编组" transform="translate(13.000000, 3.000000)" fill="#FFFFFF">
                    <path d="M1,0.5 C1.1,0.5 1.1,0.5 1.1,0.6 L1.1,16.5 C1.1,16.6 1.1,16.6 1,16.6 C0.9,16.6 0.9,16.6 0.9,16.5 L0.9,0.6 C0.9,0.5 0.9,0.5 1,0.5 L1,0.5 Z" id="路径"></path>
                    <path d="M5.5,0.5 C5.6,0.5 5.6,0.5 5.6,0.6 L5.6,16.5 C5.6,16.6 5.6,16.6 5.5,16.6 C5.4,16.6 5.4,16.6 5.4,16.5 L5.4,0.6 C5.4,0.5 5.4,0.5 5.5,0.5 L5.5,0.5 Z" id="路径"></path>
                    <path d="M1,1.7 L5.6,1.7 L5.6,2 L1,2 L1,1.7 Z M1,4 L5.6,4 L5.6,4.3 L1,4.3 L1,4 Z M1,6.6 L5.6,6.6 L5.6,6.9 L1,6.9 L1,6.6 Z M1,9 L5.6,9 L5.6,9.3 L1,9.3 L1,9 Z M1,11.5 L5.6,11.5 L5.6,11.8 L1,11.8 L1,11.5 Z M1,14 L5.6,14 L5.6,14.3 L1,14.3 L1,14 Z" id="形状"></path>
                </g>
                <g id="编组" transform="translate(6.000000, 2.000000)" fill="#FFFFFF">
                    <path d="M17.3,16.6 L2,3.9 C1.7,3.7 1.6,3.2 1.9,2.9 L1.9,2.9 C2.1,2.6 2.6,2.5 2.9,2.8 L19,14.3 C19.3,14.5 19.3,15.3 18.9,15.9 C18.5,16.5 17.6,16.9 17.3,16.6 Z" id="路径"></path>
                    <path d="M19.8,7.4 L12.7,1.3 C12.6,1.2 12.6,0.9 12.7,0.7 L12.7,0.7 C12.9,0.5 13.1,0.4 13.3,0.5 L21,5.8 C21.1,5.9 21,6.4 20.8,6.8 C20.5,7.2 20,7.5 19.8,7.4 Z" id="路径"></path>
                    <polygon id="路径" points="16.9 4.6 2.5 18 0.9 16.1 15.5 3.3"></polygon>
                </g>
            </g>
        </g>
    </g>
</svg>