<?xml version="1.0" encoding="UTF-8"?>
<svg width="55px" height="55px" viewBox="0 0 55 55" version="1.1" xmlns="http://www.w3.org/2000/svg" xmlns:xlink="http://www.w3.org/1999/xlink">
    <!-- Generator: Sketch 63 (92445) - https://sketch.com -->
    <title>4</title>
    <desc>Created with Sketch.</desc>
    <defs>
        <linearGradient x1="50.121318%" y1="100.484066%" x2="49.7752363%" y2="-1.23680955%" id="linearGradient-1">
            <stop stop-color="#E61A00" offset="0%"></stop>
            <stop stop-color="#FFAC00" offset="100%"></stop>
        </linearGradient>
        <radialGradient cx="50%" cy="100%" fx="50%" fy="100%" r="195.615018%" gradientTransform="translate(0.500000,1.000000),scale(1.000000,0.580425),rotate(-90.000000),translate(-0.500000,-1.000000)" id="radialGradient-2">
            <stop stop-color="#AB381A" offset="0%"></stop>
            <stop stop-color="#C75849" offset="100%"></stop>
        </radialGradient>
        <filter x="-31.8%" y="-22.6%" width="162.9%" height="140.0%" filterUnits="objectBoundingBox" id="filter-3">
            <feGaussianBlur stdDeviation="-0.059331108 1.99911976" in="SourceGraphic"></feGaussianBlur>
        </filter>
        <filter x="-24.1%" y="-14.0%" width="148.1%" height="127.9%" filterUnits="objectBoundingBox" id="filter-4">
            <feGaussianBlur stdDeviation="-0.059331108 1.99911976" in="SourceGraphic"></feGaussianBlur>
        </filter>
        <radialGradient cx="50%" cy="93.0874117%" fx="50%" fy="93.0874117%" r="103.647011%" gradientTransform="translate(0.500000,0.930874),scale(1.000000,0.417277),rotate(90.000000),translate(-0.500000,-0.930874)" id="radialGradient-5">
            <stop stop-color="#FFFFFF" offset="0%"></stop>
            <stop stop-color="#F3E744" offset="25.8908958%"></stop>
            <stop stop-color="#FA9A1F" offset="100%"></stop>
        </radialGradient>
        <path d="M11.2093834,35.2183859 C10.8557875,39.6572677 13.9076923,43.3517645 17.3707937,44.944506 L17.5275092,44.944506 C18.7137729,44.5732703 20.03558,43.5727837 20.9131868,42.7259156 C23.0307143,40.6815678 23.8269536,38.1465978 22.9035775,35.5271111 C22.4062393,34.2172615 21.583431,33.125348 21.0351343,31.878753 C20.4248779,30.4918283 20.3087424,29.5910609 20.7500366,28.2908854 C19.4332112,29.0873625 19.2636264,30.6937117 19.4060195,31.8579162 C18.5914103,31.1279894 18.2736203,29.6800426 18.5097314,28.3743391 C19.3308791,23.8376518 20.6419963,19.4012151 17.2473932,15.9418767 C18.5914103,17.9682581 17.8190415,21.2631343 16.9620879,22.867251 C14.9487607,26.6377597 11.5757448,30.6174872 11.2093834,35.2183859 Z" id="path-6"></path>
        <filter x="-181.8%" y="-62.1%" width="463.6%" height="251.7%" filterUnits="objectBoundingBox" id="filter-7">
            <feGaussianBlur stdDeviation="6" in="SourceGraphic"></feGaussianBlur>
        </filter>
        <filter x="-214.8%" y="-75.9%" width="529.7%" height="279.3%" filterUnits="objectBoundingBox" id="filter-8">
            <feOffset dx="0" dy="4" in="SourceAlpha" result="shadowOffsetOuter1"></feOffset>
            <feGaussianBlur stdDeviation="2" in="shadowOffsetOuter1" result="shadowBlurOuter1"></feGaussianBlur>
            <feColorMatrix values="0 0 0 0 0.923488451   0 0 0 0 0.697005734   0 0 0 0 0  0 0 0 0.5 0" type="matrix" in="shadowBlurOuter1"></feColorMatrix>
        </filter>
        <filter x="-74.4%" y="-31.0%" width="248.7%" height="162.1%" filterUnits="objectBoundingBox" id="filter-9">
            <feGaussianBlur stdDeviation="3" in="SourceGraphic"></feGaussianBlur>
        </filter>
        <radialGradient cx="50%" cy="81.1257614%" fx="50%" fy="81.1257614%" r="103.647011%" gradientTransform="translate(0.500000,0.811258),scale(1.000000,0.417277),rotate(90.000000),translate(-0.500000,-0.811258)" id="radialGradient-10">
            <stop stop-color="#FFFFFF" offset="0%"></stop>
            <stop stop-color="#F3E744" offset="71.1386191%"></stop>
            <stop stop-color="#FA9A1F" offset="100%"></stop>
        </radialGradient>
        <path d="M8.3136839,30.9861866 C7.96008805,35.4250684 11.0119928,39.1195652 14.4750942,40.7123067 L14.6318097,40.7123067 C15.8180734,40.341071 17.1398805,39.3405844 18.0174873,38.4937163 C20.1350148,36.4493685 20.9312541,33.9143985 20.007878,31.2949118 C19.5105398,29.9850622 18.6877315,28.8931487 18.1394348,27.6465537 C17.5291784,26.259629 17.4130429,25.3588615 17.8543371,24.0586861 C16.5375117,24.8551632 16.3679269,26.4615124 16.51032,27.6257169 C15.6957108,26.8957901 15.3779208,25.4478433 15.6140319,24.1421397 C16.4351796,19.6054524 17.7462968,15.1690158 14.3516937,11.7096774 C15.6957108,13.7360587 14.923342,17.030935 14.0663884,18.6350517 C12.0530612,22.4055604 8.68004531,26.3852879 8.3136839,30.9861866 Z" id="path-11"></path>
        <filter x="-57.8%" y="-17.2%" width="215.7%" height="148.3%" filterUnits="objectBoundingBox" id="filter-12">
            <feGaussianBlur stdDeviation="1" in="SourceGraphic"></feGaussianBlur>
        </filter>
        <filter x="-82.6%" y="-27.6%" width="265.3%" height="169.0%" filterUnits="objectBoundingBox" id="filter-13">
            <feOffset dx="0" dy="2" in="SourceAlpha" result="shadowOffsetOuter1"></feOffset>
            <feGaussianBlur stdDeviation="2" in="shadowOffsetOuter1" result="shadowBlurOuter1"></feGaussianBlur>
            <feColorMatrix values="0 0 0 0 0   0 0 0 0 0   0 0 0 0 0  0 0 0 0.5 0" type="matrix" in="shadowBlurOuter1"></feColorMatrix>
        </filter>
        <radialGradient cx="50%" cy="81.1257614%" fx="50%" fy="81.1257614%" r="213.547244%" gradientTransform="translate(0.500000,0.811258),scale(1.000000,0.417277),rotate(90.000000),translate(-0.500000,-0.811258)" id="radialGradient-14">
            <stop stop-color="#FFFFFF" offset="0%"></stop>
            <stop stop-color="#FFF357" offset="71.1386191%"></stop>
            <stop stop-color="#FFF4E6" offset="100%"></stop>
        </radialGradient>
        <filter x="-24.8%" y="-10.3%" width="149.6%" height="120.7%" filterUnits="objectBoundingBox" id="filter-15">
            <feGaussianBlur stdDeviation="1" in="SourceGraphic"></feGaussianBlur>
        </filter>
        <path d="M8.3136839,30.9861866 C7.96008805,35.4250684 11.0119928,39.1195652 14.4750942,40.7123067 L14.6318097,40.7123067 C15.8180734,40.341071 17.1398805,39.3405844 18.0174873,38.4937163 C20.1350148,36.4493685 20.9312541,33.9143985 20.007878,31.2949118 C19.5105398,29.9850622 18.6877315,28.8931487 18.1394348,27.6465537 C17.5291784,26.259629 17.4130429,25.3588615 17.8543371,24.0586861 C16.5375117,24.8551632 16.3679269,26.4615124 16.51032,27.6257169 C15.6957108,26.8957901 15.3779208,25.4478433 15.6140319,24.1421397 C16.4351796,19.6054524 17.7462968,15.1690158 14.3516937,11.7096774 C15.6957108,13.7360587 14.923342,17.030935 14.0663884,18.6350517 C12.0530612,22.4055604 8.68004531,26.3852879 8.3136839,30.9861866 Z" id="path-16"></path>
        <filter x="-57.8%" y="-24.1%" width="215.7%" height="148.3%" filterUnits="objectBoundingBox" id="filter-17">
            <feGaussianBlur stdDeviation="2" in="SourceGraphic"></feGaussianBlur>
        </filter>
        <filter x="-62.0%" y="-25.9%" width="223.9%" height="151.7%" filterUnits="objectBoundingBox" id="filter-18">
            <feOffset dx="0" dy="0" in="SourceAlpha" result="shadowOffsetOuter1"></feOffset>
            <feGaussianBlur stdDeviation="0.5" in="shadowOffsetOuter1" result="shadowBlurOuter1"></feGaussianBlur>
            <feColorMatrix values="0 0 0 0 0   0 0 0 0 0   0 0 0 0 0  0 0 0 0.5 0" type="matrix" in="shadowBlurOuter1"></feColorMatrix>
        </filter>
        <radialGradient cx="46.15625%" cy="69.5585938%" fx="46.15625%" fy="69.5585938%" r="15.3867187%" id="radialGradient-19">
            <stop stop-color="#FFFFFF" offset="0%"></stop>
            <stop stop-color="#FFFFFF" stop-opacity="0" offset="100%"></stop>
        </radialGradient>
        <radialGradient cx="50%" cy="93.0874117%" fx="50%" fy="93.0874117%" r="116.323475%" gradientTransform="translate(0.500000,0.930874),scale(1.000000,0.371804),rotate(90.000000),translate(-0.500000,-0.930874)" id="radialGradient-20">
            <stop stop-color="#FFFFFF" offset="0%"></stop>
            <stop stop-color="#F3E744" offset="25.8908958%"></stop>
            <stop stop-color="#FA9A1F" offset="100%"></stop>
        </radialGradient>
        <filter x="-52.6%" y="-19.6%" width="205.3%" height="139.1%" filterUnits="objectBoundingBox" id="filter-21">
            <feGaussianBlur stdDeviation="1" in="SourceGraphic"></feGaussianBlur>
        </filter>
        <path d="M13.9620879,20.867251 C11.9487607,24.6377597 8.57574481,28.6174872 8.20938339,33.2183859 L8.20938339,33.2183859 C7.85578755,37.6572677 10.9076923,41.3517645 14.3707937,42.944506 L14.3707937,42.944506 L14.5275092,42.944506 C15.7137729,42.5732703 17.03558,41.5727837 17.9131868,40.7259156 L17.9131868,40.7259156 C20.0307143,38.6815678 20.8269536,36.1465978 19.9035775,33.5271111 L19.9035775,33.5271111 C19.4062393,32.2172615 18.583431,31.125348 18.0351343,29.878753 L18.0351343,29.878753 C17.4248779,28.4918283 17.3087424,27.5910609 17.7500366,26.2908854 L17.7500366,26.2908854 C16.4332112,27.0873625 16.2636264,28.6937117 16.4060195,29.8579162 L16.4060195,29.8579162 C15.5914103,29.1279894 15.2736203,27.6800426 15.5097314,26.3743391 L15.5097314,26.3743391 C16.3308791,21.8376518 17.6419963,17.4012151 14.2473932,13.9418767 L14.2473932,13.9418767 C15.5914103,15.9682581 14.8190415,19.2631343 13.9620879,20.867251" id="path-22"></path>
        <filter x="-57.8%" y="-31.0%" width="215.7%" height="148.3%" filterUnits="objectBoundingBox" id="filter-23">
            <feGaussianBlur stdDeviation="1" in="SourceGraphic"></feGaussianBlur>
        </filter>
        <filter x="-82.6%" y="-41.4%" width="265.3%" height="169.0%" filterUnits="objectBoundingBox" id="filter-24">
            <feOffset dx="0" dy="-2" in="SourceAlpha" result="shadowOffsetOuter1"></feOffset>
            <feGaussianBlur stdDeviation="2" in="shadowOffsetOuter1" result="shadowBlurOuter1"></feGaussianBlur>
            <feColorMatrix values="0 0 0 0 0   0 0 0 0 0   0 0 0 0 0  0 0 0 0.5 0" type="matrix" in="shadowBlurOuter1"></feColorMatrix>
        </filter>
        <linearGradient x1="50.1071484%" y1="100.484066%" x2="49.8014882%" y2="-1.23680955%" id="linearGradient-25">
            <stop stop-color="#E61A00" offset="0%"></stop>
            <stop stop-color="#FFAC00" offset="100%"></stop>
        </linearGradient>
        <radialGradient cx="50%" cy="100%" fx="50%" fy="100%" r="208.147928%" gradientTransform="translate(0.500000,1.000000),scale(1.000000,0.545477),rotate(-90.000000),translate(-0.500000,-1.000000)" id="radialGradient-26">
            <stop stop-color="#AB381A" offset="0%"></stop>
            <stop stop-color="#C75849" offset="100%"></stop>
        </radialGradient>
        <filter x="-85.3%" y="-59.2%" width="262.7%" height="198.2%" filterUnits="objectBoundingBox" id="filter-27">
            <feGaussianBlur stdDeviation="-0.059331108 1.99911976" in="SourceGraphic"></feGaussianBlur>
        </filter>
        <radialGradient cx="50%" cy="93.0874117%" fx="50%" fy="93.0874117%" r="115.295192%" gradientTransform="translate(0.500000,0.930874),scale(1.000000,0.375120),rotate(90.000000),translate(-0.500000,-0.930874)" id="radialGradient-28">
            <stop stop-color="#FFFFFF" offset="0%"></stop>
            <stop stop-color="#F3E744" offset="25.8908958%"></stop>
            <stop stop-color="#FA9A1F" offset="100%"></stop>
        </radialGradient>
        <filter x="-61.2%" y="-23.0%" width="222.4%" height="145.9%" filterUnits="objectBoundingBox" id="filter-29">
            <feGaussianBlur stdDeviation="1" in="SourceGraphic"></feGaussianBlur>
        </filter>
        <radialGradient cx="50%" cy="-18.1505215%" fx="50%" fy="-18.1505215%" r="115.295192%" gradientTransform="translate(0.500000,-0.181505),scale(1.000000,0.375120),rotate(90.000000),translate(-0.500000,0.181505)" id="radialGradient-30">
            <stop stop-color="#FFFFFF" offset="0%"></stop>
            <stop stop-color="#F3E744" offset="96.8908361%"></stop>
            <stop stop-color="#FA9A1F" offset="100%"></stop>
        </radialGradient>
        <filter x="-183.7%" y="-68.9%" width="467.3%" height="237.8%" filterUnits="objectBoundingBox" id="filter-31">
            <feGaussianBlur stdDeviation="3" in="SourceGraphic"></feGaussianBlur>
        </filter>
        <radialGradient cx="50%" cy="93.0874117%" fx="50%" fy="93.0874117%" r="115.302226%" gradientTransform="translate(0.500000,0.930874),scale(1.000000,0.375097),rotate(90.000000),translate(-0.500000,-0.930874)" id="radialGradient-32">
            <stop stop-color="#FFFFFF" offset="0%"></stop>
            <stop stop-color="#F3E744" offset="25.8908958%"></stop>
            <stop stop-color="#FA9A1F" offset="100%"></stop>
        </radialGradient>
        <path d="M21.2846373,10.7742012 C20.4689316,12.4726648 19.1026779,14.2655305 18.9536861,16.3377879 L18.9536861,16.3377879 C18.809886,18.3370725 20.0450299,20.0006618 21.4469616,20.717584 L21.4469616,20.717584 L21.5104134,20.717584 C21.9907674,20.5502127 22.5260908,20.0994341 22.881542,19.7179002 L22.881542,19.7179002 C23.7391902,18.7968737 24.0619381,17.6550413 23.6884509,16.4753601 L23.6884509,16.4753601 C23.4872731,15.8854762 23.154286,15.3937901 22.9324668,14.832402 L22.9324668,14.832402 C22.685581,14.2078183 22.6386882,13.8021338 22.8175476,13.2164886 L22.8175476,13.2164886 C22.2842703,13.5753822 22.2153784,14.2988916 22.2728649,14.8232228 L22.2728649,14.8232228 C21.9431458,14.4945719 21.8146841,13.8424673 21.9104687,13.2543582 L21.9104687,13.2543582 C22.2435877,11.2109638 22.7750739,9.2126597 21.4011428,7.65502725 L21.4011428,7.65502725 C21.9450262,8.56752503 21.6318346,10.0516107 21.2846373,10.7742012" id="path-33"></path>
        <filter x="-61.2%" y="-23.0%" width="222.5%" height="145.9%" filterUnits="objectBoundingBox" id="filter-34">
            <feGaussianBlur stdDeviation="1" in="SourceGraphic"></feGaussianBlur>
        </filter>
        <filter x="-102.0%" y="-38.3%" width="304.1%" height="176.6%" filterUnits="objectBoundingBox" id="filter-35">
            <feGaussianBlur stdDeviation="1.5" in="SourceAlpha" result="shadowBlurInner1"></feGaussianBlur>
            <feOffset dx="0" dy="1" in="shadowBlurInner1" result="shadowOffsetInner1"></feOffset>
            <feComposite in="shadowOffsetInner1" in2="SourceAlpha" operator="arithmetic" k2="-1" k3="1" result="shadowInnerInner1"></feComposite>
            <feColorMatrix values="0 0 0 0 0.945098039   0 0 0 0 0.466666667   0 0 0 0 0.00784313725  0 0 0 1 0" type="matrix" in="shadowInnerInner1"></feColorMatrix>
        </filter>
    </defs>
    <g id="页面-1" stroke="none" stroke-width="1" fill="none" fill-rule="evenodd">
        <g id="桌面端" transform="translate(-1518.000000, -71.000000)">
            <g id="编组-2" transform="translate(1530.000000, 78.000000)">
                <g id="编组">
                    <path d="M10.9536735,0.0469874687 C15.5284694,7.49622556 11.3759184,12.8491328 10.7044898,14.6549173 C10.1673469,16.0981654 10.2209184,18.0409248 10.5872449,19.2017093 C10.0143878,17.4497018 9.70714286,15.37999 7.40683673,14.6730226 C8.42244898,15.6041504 8.58979592,16.6747318 8.71959184,17.6217018 C8.97632653,19.4919323 7.94938776,21.1913484 6.30030612,22.6749023 C4.95704082,23.9647945 3.44255102,26.0382782 4.17530612,28.1017393 C3.55959184,27.5538396 2.33806122,25.8375038 3.19306122,22.9100551 C2.24663265,24.4867218 1.8494898,26.2380827 1.8494898,27.8505288 C1.8494898,29.2693133 2.31285714,31.1009624 3.3205102,32.7455238 C2.87510204,32.5197469 1.8322449,31.9732481 1,29.0692932 C1.05571429,30.6446667 1.17673469,31.4957218 1.67173469,32.8098622 C4.17030612,39.4427469 10.5210204,43 13.9039796,43 L14.4956122,43 C19.2914286,42.3360326 24.7430612,37.7971078 25.2941837,32.5844085 C24.5689796,34.0833734 22.6445918,35.5832005 22.1558163,35.3897544 C23.1886735,34.4222005 23.8386735,33.4550777 24.4493878,32.2940777 C25.7926531,29.843401 27.4131633,25.4900551 23.344898,18.2664862 C23.4058163,21.5234937 21.6195918,24.5225013 20.6580612,25.9072306 C21.6814286,23.5250952 22.0016327,21.925797 22.1236735,21.0873509 C22.5510204,18.6364586 22.2014286,12.4622406 18.5816327,7.88311779 C19.0442857,9.10845614 19.18,10.3984561 18.9481633,11.6882406 C19.18,10.1081253 15.5284694,2.33654887 10.9536735,0.0469874687 Z" id="Fill-1" stroke="url(#radialGradient-2)" stroke-width="3" fill-opacity="0.38" fill="url(#linearGradient-1)" filter="url(#filter-3)"></path>
                    <path d="M10.9536735,0.0469874687 C15.5284694,7.49622556 11.3759184,12.8491328 10.7044898,14.6549173 C10.1673469,16.0981654 10.2209184,18.0409248 10.5872449,19.2017093 C10.0143878,17.4497018 9.70714286,15.37999 7.40683673,14.6730226 C8.42244898,15.6041504 8.58979592,16.6747318 8.71959184,17.6217018 C8.97632653,19.4919323 7.94938776,21.1913484 6.30030612,22.6749023 C4.95704082,23.9647945 3.44255102,26.0382782 4.17530612,28.1017393 C3.55959184,27.5538396 2.33806122,25.8375038 3.19306122,22.9100551 C2.24663265,24.4867218 1.8494898,26.2380827 1.8494898,27.8505288 C1.8494898,29.2693133 2.31285714,31.1009624 3.3205102,32.7455238 C2.87510204,32.5197469 1.8322449,31.9732481 1,29.0692932 C1.05571429,30.6446667 1.17673469,31.4957218 1.67173469,32.8098622 C4.17030612,39.4427469 10.5210204,43 13.9039796,43 L14.4956122,43 C19.2914286,42.3360326 24.7430612,37.7971078 25.2941837,32.5844085 C24.5689796,34.0833734 22.6445918,35.5832005 22.1558163,35.3897544 C23.1886735,34.4222005 23.8386735,33.4550777 24.4493878,32.2940777 C25.7926531,29.843401 27.4131633,25.4900551 23.344898,18.2664862 C23.4058163,21.5234937 21.6195918,24.5225013 20.6580612,25.9072306 C21.6814286,23.5250952 22.0016327,21.925797 22.1236735,21.0873509 C22.5510204,18.6364586 22.2014286,12.4622406 18.5816327,7.88311779 C19.0442857,9.10845614 19.18,10.3984561 18.9481633,11.6882406 C19.18,10.1081253 15.5284694,2.33654887 10.9536735,0.0469874687 Z" id="Fill-1" fill="url(#linearGradient-1)" filter="url(#filter-4)"></path>
                    <g id="Fill-3" filter="url(#filter-7)">
                        <use fill="black" fill-opacity="1" filter="url(#filter-8)" xlink:href="#path-6"></use>
                        <use fill="url(#radialGradient-5)" fill-rule="evenodd" xlink:href="#path-6"></use>
                    </g>
                    <path d="M11.2093834,35.2183859 C10.8557875,39.6572677 13.9076923,43.3517645 17.3707937,44.944506 L17.5275092,44.944506 C18.7137729,44.5732703 20.03558,43.5727837 20.9131868,42.7259156 C23.0307143,40.6815678 23.8269536,38.1465978 22.9035775,35.5271111 C22.4062393,34.2172615 21.583431,33.125348 21.0351343,31.878753 C20.4248779,30.4918283 20.3087424,29.5910609 20.7500366,28.2908854 C19.4332112,29.0873625 19.2636264,30.6937117 19.4060195,31.8579162 C18.5914103,31.1279894 18.2736203,29.6800426 18.5097314,28.3743391 C19.3308791,23.8376518 20.6419963,19.4012151 17.2473932,15.9418767 C18.5914103,17.9682581 17.8190415,21.2631343 16.9620879,22.867251 C14.9487607,26.6377597 11.5757448,30.6174872 11.2093834,35.2183859 Z" id="Fill-3" fill="url(#radialGradient-5)" filter="url(#filter-9)"></path>
                    <g id="Fill-3" filter="url(#filter-12)" transform="translate(14.336776, 26.210992) scale(-1, 1) translate(-14.336776, -26.210992) ">
                        <use fill="black" fill-opacity="1" filter="url(#filter-13)" xlink:href="#path-11"></use>
                        <use fill="url(#radialGradient-10)" fill-rule="evenodd" xlink:href="#path-11"></use>
                    </g>
                    <path d="M8.3136839,30.9861866 C7.96008805,35.4250684 11.0119928,39.1195652 14.4750942,40.7123067 L14.6318097,40.7123067 C15.8180734,40.341071 17.1398805,39.3405844 18.0174873,38.4937163 C20.1350148,36.4493685 20.9312541,33.9143985 20.007878,31.2949118 C19.5105398,29.9850622 18.6877315,28.8931487 18.1394348,27.6465537 C17.5291784,26.259629 17.4130429,25.3588615 17.8543371,24.0586861 C16.5375117,24.8551632 16.3679269,26.4615124 16.51032,27.6257169 C15.6957108,26.8957901 15.3779208,25.4478433 15.6140319,24.1421397 C16.4351796,19.6054524 17.7462968,15.1690158 14.3516937,11.7096774 C15.6957108,13.7360587 14.923342,17.030935 14.0663884,18.6350517 C12.0530612,22.4055604 8.68004531,26.3852879 8.3136839,30.9861866 Z" id="Fill-3" fill="url(#radialGradient-14)" filter="url(#filter-15)" transform="translate(14.336776, 26.210992) scale(-1, 1) translate(-14.336776, -26.210992) "></path>
                    <g id="Fill-3" filter="url(#filter-17)" transform="translate(14.336776, 26.210992) scale(-1, 1) translate(-14.336776, -26.210992) ">
                        <use fill="black" fill-opacity="1" filter="url(#filter-18)" xlink:href="#path-16"></use>
                        <use fill="url(#radialGradient-5)" fill-rule="evenodd" xlink:href="#path-16"></use>
                    </g>
                    <circle id="椭圆形" fill="url(#radialGradient-19)" cx="12.5" cy="31.5" r="12.5"></circle>
                    <path d="M19.3321905,27.1904116 C18.4070995,29.1731763 16.8440307,31.259808 16.6978424,33.6895492 L16.6978424,33.6895492 C16.5567383,36.0337283 18.0122781,38.001295 19.6492218,38.8601239 L19.6492218,38.8601239 L19.7228905,38.8608966 C20.2784282,38.6705496 20.8941219,38.1483155 21.3018754,37.7050777 L21.3018754,37.7050777 C22.2857149,36.6350925 22.6456684,35.2993018 22.196788,33.9103661 L22.196788,33.9103661 C21.9555888,33.2156663 21.5626259,32.6345397 21.2978301,31.9730184 L21.2978301,31.9730184 C21.0031143,31.2370282 20.9434251,30.7604053 21.1435124,30.0754462 L21.1435124,30.0754462 C20.5290062,30.489887 20.4583762,31.3379968 20.531899,31.953974 L20.531899,31.953974 C20.1448383,31.5641957 19.9872597,30.7973976 20.0908633,30.1085052 L20.0908633,30.1085052 C20.4512006,27.7149417 21.0424295,25.3767759 19.4271247,23.5317993 L19.4271247,23.5317993 C20.0703841,24.6093564 19.725951,26.3468706 19.3321905,27.1904116" id="Fill-3备份" fill="url(#radialGradient-20)" filter="url(#filter-21)" transform="translate(19.538071, 31.196348) scale(-1, 1) rotate(-23.000000) translate(-19.538071, -31.196348) "></path>
                    <g id="Fill-3" filter="url(#filter-23)">
                        <use fill="black" fill-opacity="1" filter="url(#filter-24)" xlink:href="#path-22"></use>
                        <use fill="url(#radialGradient-5)" fill-rule="evenodd" xlink:href="#path-22"></use>
                    </g>
                </g>
                <g id="编组备份" transform="translate(19.500000, 28.500000) rotate(2.000000) translate(-19.500000, -28.500000) translate(6.000000, 18.000000)">
                    <path d="M20.3128075,0.828747244 C22.2384698,4.16664676 20.4888199,6.56618609 20.2057842,7.37556654 L20.2057842,7.37556654 C19.9793559,8.02245266 20.0016418,8.89312555 20.1557589,9.41330233 L20.1557589,9.41330233 C19.9147434,8.62818622 19.7856384,7.7006508 18.8169418,7.38411348 L18.8169418,7.38411348 C19.2445448,7.80128061 19.3148724,8.28105752 19.3694026,8.7054408 L19.3694026,8.7054408 C19.4772631,9.54358203 19.0445158,10.3053383 18.3497775,10.9704341 L18.3497775,10.9704341 C17.7838644,11.548697 17.1457269,12.478162 17.4540407,13.4028402 L17.4540407,13.4028402 C17.1948043,13.1573707 16.6805885,12.3883265 17.0410966,11.0762296 L17.0410966,11.0762296 C16.6422745,11.7829631 16.4747647,12.5679168 16.4745354,13.2905613 L16.4745354,13.2905613 C16.4743337,13.9264131 16.6692251,14.7472363 17.0933745,15.4841416 L17.0933745,15.4841416 C16.9058185,15.3830144 16.4666864,15.1382287 16.116591,13.8368823 L16.116591,13.8368823 C16.1398316,14.5429048 16.1906795,14.9243034 16.3989669,15.5131923 L16.3989669,15.5131923 C17.4503224,18.4855019 20.1244839,20.0789106 21.5492513,20.0784668 L21.5492513,20.0784668 L21.7984233,20.0784668 C23.8183242,19.7801916 26.1149796,17.7452816 26.3478316,15.4090514 L26.3478316,15.4090514 C26.0421914,16.0809326 25.2315028,16.7533576 25.0256776,16.6667257 L25.0256776,16.6667257 C25.4608134,16.2329647 25.734705,15.7994473 25.9920785,15.2790457 L25.9920785,15.2790457 C26.5581567,14.1805579 27.2412699,12.2293209 25.5289061,8.99249232 L25.5289061,8.99249232 C25.5540993,10.4521664 24.8013865,11.7964559 24.3962313,12.4171715 L24.3962313,12.4171715 C24.8275714,11.3494437 24.962656,10.6326496 25.014174,10.25687 L25.014174,10.25687 C25.1945039,9.1584058 25.0481477,6.39137322 23.5242852,4.33963826 L23.5242852,4.33963826 C23.718962,4.88873329 23.775936,5.46685043 23.6781123,6.0449192 L23.6781123,6.0449192 C23.7759773,5.33673384 22.2392034,1.85425187 20.3128075,0.828747244 Z" id="Fill-1" stroke="url(#radialGradient-26)" stroke-width="3" fill-opacity="0.38" fill="url(#linearGradient-25)" filter="url(#filter-27)" transform="translate(21.366728, 10.453607) rotate(1.000000) translate(-21.366728, -10.453607) "></path>
                    <path d="M17.4765708,8.71665967 C16.6613995,10.4148598 15.295707,12.2072901 15.1473718,14.2794898 L15.1473718,14.2794898 C15.0042052,16.2787187 16.2398837,17.9426838 17.6420507,18.660039 L17.6420507,18.660039 L17.7055028,18.660039 C18.1858064,18.492838 18.7209897,18.0422287 19.0763219,17.6608076 L19.0763219,17.6608076 C19.9336826,16.7400534 20.25607,15.5983277 19.8822065,14.4185366 L19.8822065,14.4185366 C19.6808404,13.8285932 19.3476955,13.336806 19.1256969,12.7753519 L19.1256969,12.7753519 C18.8786116,12.1506946 18.8315898,11.7449977 19.0102644,11.1594115 L19.0102644,11.1594115 C18.4770981,11.5181369 18.4084352,12.2416209 18.4660885,12.7659672 L18.4660885,12.7659672 C18.1362632,12.4372153 18.007594,11.7850742 18.1031925,11.1969982 L18.1031925,11.1969982 C18.435665,9.15371866 18.9665202,7.15559106 17.5920873,5.59753897 L17.5920873,5.59753897 C18.1362632,6.51020126 17.8235407,7.99418124 17.4765708,8.71665967" id="Fill-3" fill="url(#radialGradient-28)" filter="url(#filter-29)"></path>
                    <path d="M2.78552561,9.22052115 C1.9703543,10.9187213 0.604661859,12.7111516 0.456326649,14.7833513 L0.456326649,14.7833513 C0.31316006,16.7825801 1.54883858,18.4465453 2.95100551,19.1639005 L2.95100551,19.1639005 L3.01445768,19.1639005 C3.49476121,18.9966995 4.02994456,18.5460902 4.38527672,18.1646691 L4.38527672,18.1646691 C5.24263742,17.2439149 5.56502488,16.1021892 5.19116132,14.9223981 L5.19116132,14.9223981 C4.98979523,14.3324546 4.65665031,13.8406675 4.43465175,13.2792133 L4.43465175,13.2792133 C4.18756648,12.6545561 4.14054464,12.2488592 4.31921923,11.663273 L4.31921923,11.663273 C3.7860529,12.0219984 3.71739009,12.7454823 3.77504332,13.2698286 L3.77504332,13.2698286 C3.44521809,12.9410768 3.31654885,12.2889357 3.41214732,11.7008596 L3.41214732,11.7008596 C3.74461989,9.65758014 4.27547505,7.65945255 2.90104218,6.10140045 L2.90104218,6.10140045 C3.44521809,7.01406274 3.13249553,8.49804272 2.78552561,9.22052115" id="Fill-3备份-2" fill="url(#radialGradient-30)" filter="url(#filter-31)"></path>
                    <g id="Fill-3" filter="url(#filter-34)" transform="translate(21.392122, 14.186306) scale(-1, 1) rotate(1.000000) translate(-21.392122, -14.186306) ">
                        <use fill="url(#radialGradient-32)" fill-rule="evenodd" xlink:href="#path-33"></use>
                        <use fill="black" fill-opacity="1" filter="url(#filter-35)" xlink:href="#path-33"></use>
                    </g>
                </g>
            </g>
        </g>
    </g>
</svg>