<?xml version="1.0" encoding="UTF-8"?>
<svg width="55px" height="55px" viewBox="0 0 55 55" version="1.1" xmlns="http://www.w3.org/2000/svg" xmlns:xlink="http://www.w3.org/1999/xlink">
    <!-- Generator: Sketch 63 (92445) - https://sketch.com -->
    <title>现场指挥所</title>
    <desc>Created with Sketch.</desc>
    <g id="页面-1" stroke="none" stroke-width="1" fill="none" fill-rule="evenodd">
        <g id="桌面端" transform="translate(-2171.000000, -155.000000)" fill="#FF0000">
            <path d="M2198.90301,158.318521 L2219.70759,173.928277 C2220.2571,174.327973 2220.45692,175.027241 2220.2571,175.67657 C2220.05722,176.300838 2219.45795,176.725534 2218.78368,176.725534 L2216.585,176.725 L2216.585,198.579 L2217.60966,198.57907 C2218.15911,198.57907 2218.65862,198.853948 2218.9335,199.32846 L2222.72966,205.572485 C2223.02929,206.046936 2223.02929,206.646204 2222.75472,207.14596 C2222.47984,207.645412 2221.95533,207.945046 2221.40606,207.945046 L2174.55179,207.945046 C2173.97728,207.945046 2173.47783,207.645412 2173.20295,207.14596 C2172.92832,206.646204 2172.92832,206.046936 2173.22795,205.572485 L2177.02442,199.32846 C2177.29905,198.853948 2177.8235,198.57907 2178.34801,198.57907 L2179.371,198.579 L2179.371,176.725 L2177.17423,176.725534 C2176.4999,176.725534 2175.90039,176.300838 2175.70057,175.65157 C2175.47576,175.002241 2175.70057,174.302973 2176.25009,173.903277 L2197.0299,158.318521 C2197.57917,157.893826 2198.3535,157.893826 2198.90301,158.318521 Z M2216.71051,201.701265 L2179.22216,201.701265 L2177.32405,204.823155 L2218.60881,204.823155 L2216.71051,201.701265 Z M2184.416,176.725 L2182.518,176.725 L2182.518,198.579 L2184.416,198.579 L2184.416,176.725 Z M2191.634,176.725 L2187.564,176.725 L2187.564,198.579 L2191.634,198.579 L2191.634,176.725 Z M2201.175,176.725 L2194.781,176.725 L2194.781,198.579 L2201.175,198.579 L2201.175,176.725 Z M2208.368,176.725 L2204.322,176.725 L2204.322,198.579 L2208.368,198.579 L2208.368,176.725 Z M2213.438,176.725 L2211.515,176.725 L2211.515,198.579 L2213.438,198.579 L2213.438,176.725 Z M2197.97881,161.515473 L2181.8446,173.603643 L2185.70626,173.603823 C2185.79836,173.587276 2185.89333,173.578643 2185.99045,173.578643 C2186.08761,173.578643 2186.1826,173.587276 2186.27471,173.603823 L2192.92425,173.603823 C2193.01634,173.587276 2193.11131,173.578643 2193.20844,173.578643 C2193.30557,173.578643 2193.40054,173.587276 2193.49263,173.603823 L2202.46505,173.603823 C2202.55714,173.587276 2202.65211,173.578643 2202.74923,173.578643 C2202.84636,173.578643 2202.94133,173.587276 2203.03342,173.603823 L2209.65803,173.603823 C2209.75012,173.587276 2209.84509,173.578643 2209.94222,173.578643 C2210.03935,173.578643 2210.13432,173.587276 2210.22641,173.603823 L2214.11307,173.603643 L2197.97881,161.515473 Z M2197.2501,166.279954 C2198.02362,165.83341 2198.97661,165.83341 2199.75013,166.279954 C2200.52365,166.726557 2201.00003,167.552038 2201.00003,168.445185 C2201.00003,169.825663 2199.88083,170.945046 2198.5,170.945046 C2197.11922,170.945046 2196.00003,169.825663 2196.00003,168.445185 C2196.00003,167.552038 2196.4764,166.726557 2197.2501,166.279954 Z" id="形状结合"></path>
        </g>
    </g>
</svg>