<?xml version="1.0" encoding="UTF-8"?>
<svg width="55px" height="55px" viewBox="0 0 55 55" version="1.1" xmlns="http://www.w3.org/2000/svg" xmlns:xlink="http://www.w3.org/1999/xlink">
    <!-- Generator: Sketch 63 (92445) - https://sketch.com -->
    <title>5</title>
    <desc>Created with Sketch.</desc>
    <g id="页面-1" stroke="none" stroke-width="1" fill="none" fill-rule="evenodd">
        <g id="桌面端" transform="translate(-2138.000000, -71.000000)" fill="#FF0000" fill-rule="nonzero">
            <g id="5" transform="translate(2139.000000, 83.000000)">
                <path d="M46.5,20.2 L46.5,20.2 L46.5,12.5 L46.5,12.5 L48,12.5 L46.5,5.5 L45.4,0.6 L42.8,12.4 L44.4,12.4 L44.4,20.1 L35,20.1 C34.2,16.4 30.9,13.7 27,13.7 C23.1,13.7 19.8,16.5 19,20.1 L9.5,20.1 L9.5,12.4 L11,12.4 L8.4,0.6 L5.8,12.5 L7.4,12.5 L7.4,20.2 L0,20.2 L0,23.3 L18.9,23.3 C19.5,27.2 22.9,30.2 27,30.2 C31.1,30.2 34.5,27.2 35.1,23.3 L46.5,23.3 L54,23.3 L54,20.2 L46.5,20.2 L46.5,20.2 Z M27,16.3 C29.5,16.3 31.6,17.9 32.4,20.2 L21.6,20.2 C22.4,18 24.5,16.3 27,16.3 Z M27,27.6 C24.3,27.6 22.1,25.7 21.5,23.2 L32.5,23.2 C31.9,25.8 29.7,27.6 27,27.6 Z" id="形状"></path>
            </g>
        </g>
    </g>
</svg>