<?xml version="1.0" encoding="UTF-8"?>
<svg width="32px" height="32px" viewBox="0 0 32 32" version="1.1" xmlns="http://www.w3.org/2000/svg" xmlns:xlink="http://www.w3.org/1999/xlink">
    <!-- Generator: Sketch 53 (72520) - https://sketchapp.com -->
    <title>应急管理部@4x</title>
    <desc>Created with Sketch.</desc>
    <defs>
        <rect id="path-1" x="0" y="0" width="28" height="28" rx="14"></rect>
        <filter x="-10.7%" y="-10.7%" width="121.4%" height="121.4%" filterUnits="objectBoundingBox" id="filter-2">
            <feMorphology radius="0.5" operator="dilate" in="SourceAlpha" result="shadowSpreadOuter1"></feMorphology>
            <feOffset dx="0" dy="0" in="shadowSpreadOuter1" result="shadowOffsetOuter1"></feOffset>
            <feGaussianBlur stdDeviation="0.5" in="shadowOffsetOuter1" result="shadowBlurOuter1"></feGaussianBlur>
            <feComposite in="shadowBlurOuter1" in2="SourceAlpha" operator="out" result="shadowBlurOuter1"></feComposite>
            <feColorMatrix values="0 0 0 0 0   0 0 0 0 0   0 0 0 0 0  0 0 0 0.26 0" type="matrix" in="shadowBlurOuter1"></feColorMatrix>
        </filter>
    </defs>
    <g id="其他图标" stroke="none" stroke-width="1" fill="none" fill-rule="evenodd">
        <g id="应急保障资源" transform="translate(-94.000000, -85.000000)">
            <g id="应急管理部" transform="translate(96.000000, 87.000000)">
                <g id="矩形">
                    <use fill="black" fill-opacity="1" filter="url(#filter-2)" xlink:href="#path-1"></use>
                    <rect stroke="#FFFFFF" stroke-width="1" stroke-linejoin="square" fill="#C7045A" fill-rule="evenodd" x="0.5" y="0.5" width="27" height="27" rx="13.5"></rect>
                </g>
                <path d="M9.78619412,8.8418806 C8.61257647,10.0330149 7.95425294,11.6456716 7.95425294,13.3282687 C7.95425294,14.6522985 8.35413529,15.8818507 9.03654706,16.8980896 L11.2372235,16.8980896 L11.8628118,15.3116716 L16.5503118,15.3116716 L17.1759,16.8980896 L19.3765765,16.8980896 C20.0590765,15.8801493 20.4588706,14.6522985 20.4588706,13.3282687 C20.4588706,9.82310448 17.6601353,6.98259701 14.2066059,6.98259701 C12.5487529,6.98259701 10.9580471,7.65253731 9.78619412,8.8418806 Z M15.6800471,19.2785672 L16.3883118,19.2785672 C17.2914,18.9374627 18.0961941,18.3900299 18.7476353,17.6921493 L9.66725294,17.6921493 C10.3170176,18.3900299 11.1218118,18.9374627 12.0265765,19.2785672 L12.7330765,19.2785672 C12.9467824,18.8150448 13.5258706,18.4845075 14.2066059,18.4845075 C14.8873412,18.4845075 15.4663412,18.8150448 15.6800471,19.2785672 Z M22.4131059,13.3299701 C22.4131059,15.5985075 21.5187529,17.6554328 20.0659588,19.1578507 L20.0659588,21.6065672 C20.0659588,21.6065672 18.5028706,23.1929851 17.5136647,22.7959104 C17.3499882,22.7259701 17.3154882,22.2222388 17.3344588,21.6380896 C16.4676353,22.3971343 15.3612529,22.8291343 14.2048412,22.8466866 C13.1708118,22.8624478 12.1557529,22.587791 11.2734,22.0596119 C11.2665176,22.4758507 11.2131353,22.7924179 11.0786647,22.8466866 C10.0326353,23.2436716 8.34372353,21.6572537 8.34372353,21.6572537 L8.34372353,19.1578507 C6.89445882,17.6572239 6.00001765,15.5985075 6.00001765,13.3299701 C6.00001765,8.7299403 9.67413529,5.00089552 14.2066059,5.00089552 C18.7389882,5.00089552 22.4131059,8.7299403 22.4131059,13.3299701 Z M17.2431088,12.9329493 L17.3327559,12.3505015 L16.9415206,11.9534269 L17.4740206,11.8572478 L17.7239029,11.3465313 L17.9737853,11.8695164 L18.5046088,11.9691881 L18.1133735,12.3662627 L18.2081382,12.9329493 L17.7239029,12.6793373 L17.2431088,12.9329493 Z M12.5504029,14.5193672 L12.6434912,13.9526806 L12.2523441,13.555606 L12.7848441,13.4559343 L13.0347265,12.9329493 L13.2846088,13.4436657 L13.8153441,13.5433373 L13.4241971,13.9404119 L13.5034324,14.5070985 L13.0347265,14.2657552 L12.5504029,14.5193672 Z M15.6283147,13.4559343 L16.1608147,13.555606 L15.7696676,13.9526806 L15.8626676,14.5193672 L15.3784324,14.2657552 L14.8976382,14.5193672 L14.9872853,13.9369194 L14.5978147,13.5398448 L15.12855,13.4436657 L15.3784324,12.9329493 L15.6283147,13.4559343 Z M10.2049324,12.9329493 L10.2997853,12.3662627 L9.90855,11.9691881 L10.4393735,11.8695164 L10.6892559,11.3465313 L10.9391382,11.8572478 L11.4716382,11.957009 L11.0804029,12.353994 L11.1579618,12.9206806 L10.6892559,12.6793373 L10.2049324,12.9329493 Z M13.2414618,12.5358746 L13.3983441,11.5371881 L12.6434912,10.8183522 L13.7068147,10.6486507 L14.2065794,9.76011343 L14.7063441,10.6521433 L15.7662265,10.8235463 L15.0148147,11.5441731 L15.1716088,12.5446507 L14.2065794,12.091606 L13.2414618,12.5358746 Z" id="合并形状" fill="#FFFFFF"></path>
            </g>
        </g>
    </g>
</svg>