<?xml version="1.0" encoding="UTF-8"?>
<svg width="32px" height="32px" viewBox="0 0 32 32" version="1.1" xmlns="http://www.w3.org/2000/svg" xmlns:xlink="http://www.w3.org/1999/xlink">
    <!-- Generator: Sketch 53 (72520) - https://sketchapp.com -->
    <title>现场指挥部@4x</title>
    <desc>Created with Sketch.</desc>
    <defs>
        <rect id="path-1" x="0" y="0" width="28" height="28" rx="14"></rect>
        <filter x="-10.7%" y="-10.7%" width="121.4%" height="121.4%" filterUnits="objectBoundingBox" id="filter-2">
            <feMorphology radius="0.5" operator="dilate" in="SourceAlpha" result="shadowSpreadOuter1"></feMorphology>
            <feOffset dx="0" dy="0" in="shadowSpreadOuter1" result="shadowOffsetOuter1"></feOffset>
            <feGaussianBlur stdDeviation="0.5" in="shadowOffsetOuter1" result="shadowBlurOuter1"></feGaussianBlur>
            <feComposite in="shadowBlurOuter1" in2="SourceAlpha" operator="out" result="shadowBlurOuter1"></feComposite>
            <feColorMatrix values="0 0 0 0 0   0 0 0 0 0   0 0 0 0 0  0 0 0 0.26 0" type="matrix" in="shadowBlurOuter1"></feColorMatrix>
        </filter>
    </defs>
    <g id="其他图标" stroke="none" stroke-width="1" fill="none" fill-rule="evenodd">
        <g id="应急保障资源" transform="translate(-94.000000, -163.000000)">
            <g id="现场指挥部" transform="translate(96.000000, 165.000000)">
                <g id="矩形">
                    <use fill="black" fill-opacity="1" filter="url(#filter-2)" xlink:href="#path-1"></use>
                    <rect stroke="#FFFFFF" stroke-width="1" stroke-linejoin="square" fill="#C7045A" fill-rule="evenodd" x="0.5" y="0.5" width="27" height="27" rx="13.5"></rect>
                </g>
                <path d="M20.8275862,14.1239669 L20.8275862,20.338843 L21.9310345,20.338843 L20.8275862,14.1239669 Z M18.4827586,14.2498108 C18.4806897,14.2498108 18.4787586,14.2488852 18.4766897,14.248753 C18.4782069,14.2291837 18.4827586,14.2104077 18.4827586,14.1904417 C18.481931,13.8176989 18.1863448,13.5063086 17.7993103,13.4704755 L17.7993103,13.4632031 L13.5470345,13.4632031 L13.5046897,13.4195688 L11.4482759,15.2510199 L11.4482759,12.801945 L11.4288276,12.801945 C11.3542069,12.5201731 11.0554483,12.3497348 10.7615172,12.4212686 C10.5663448,12.4688697 10.413931,12.6148463 10.3644138,12.801945 L10.3448276,12.801945 L10.3448276,16.2397999 L10.348,16.2397999 C10.3532414,16.2331887 10.3593103,16.2273708 10.3646897,16.2208917 C10.2762759,16.5745941 10.5035862,16.9301476 10.8725517,17.014904 C11.1388966,17.0761243 11.4177931,16.9798643 11.5822069,16.7698907 L13.5172414,15.0463353 L13.5172414,19.0165289 L18.4827586,19.0165289 L18.4827586,14.2498108 Z M14.3448276,10.9504132 L14.3448276,12.0082645 C14.3448276,12.0082645 15.0102069,12.8016529 15.6874483,12.8016529 C16.3891034,12.8016529 17.1034483,12.0082645 17.1034483,12.0082645 L17.1034483,10.9504132 C17.1034483,10.9504132 14.3448276,10.9504132 14.3448276,10.9504132 L14.3448276,10.9504132 Z M15.7931034,8.96694215 C15.0736552,8.96733884 14.4637241,9.47431405 14.3612414,10.1570248 L14.3448276,10.1570248 L13.9310345,10.4214876 L17.237931,10.4214876 C17.2390345,10.399405 17.2413793,10.377719 17.2413793,10.3553719 C17.2413793,9.58856198 16.5929655,8.96694215 15.7931034,8.96694215 L15.7931034,8.96694215 Z M12.4137931,12.0082645 L13.1034483,12.0082645 L13.1034483,11.3471074 L12.4137931,11.3471074 L12.4137931,12.0082645 Z M12,11.4793388 L9.24137931,10.8181818 L9.24137931,12.5371901 L12,11.8760331 L12,11.4793388 Z M7.17241379,14.2561983 L6.06896552,20.338843 L7.17241379,20.338843 L7.17241379,14.2561983 Z M22.0704167,20.9699233 L22.0645833,20.9708549 L22.0645833,20.9699233 L5.97138889,20.9699233 L5.96583333,21 L5.78652778,20.9699233 L4,20.9699233 L4,20.3045098 L5.38791667,20.3045098 L7.19444444,10.4216559 L7.19444444,9.25864622 L13.9861111,5 L20.8055556,9.25864622 L20.8055556,10.2434582 L22.6475,20.3045098 L24,20.3045098 L24,20.9699233 L22.0704167,20.9699233 Z" id="Fill-1" fill="#FFFFFF"></path>
            </g>
        </g>
    </g>
</svg>