<?xml version="1.0" encoding="UTF-8"?>
<svg width="32px" height="32px" viewBox="0 0 32 32" version="1.1" xmlns="http://www.w3.org/2000/svg" xmlns:xlink="http://www.w3.org/1999/xlink">
    <!-- Generator: Sketch 53 (72520) - https://sketchapp.com -->
    <title>农业机械@4x</title>
    <desc>Created with Sketch.</desc>
    <defs>
        <rect id="path-1" x="0" y="0" width="28" height="28" rx="14"></rect>
        <filter x="-10.7%" y="-10.7%" width="121.4%" height="121.4%" filterUnits="objectBoundingBox" id="filter-2">
            <feMorphology radius="0.5" operator="dilate" in="SourceAlpha" result="shadowSpreadOuter1"></feMorphology>
            <feOffset dx="0" dy="0" in="shadowSpreadOuter1" result="shadowOffsetOuter1"></feOffset>
            <feGaussianBlur stdDeviation="0.5" in="shadowOffsetOuter1" result="shadowBlurOuter1"></feGaussianBlur>
            <feComposite in="shadowBlurOuter1" in2="SourceAlpha" operator="out" result="shadowBlurOuter1"></feComposite>
            <feColorMatrix values="0 0 0 0 0   0 0 0 0 0   0 0 0 0 0  0 0 0 0.26 0" type="matrix" in="shadowBlurOuter1"></feColorMatrix>
        </filter>
    </defs>
    <g id="其他图标" stroke="none" stroke-width="1" fill="none" fill-rule="evenodd">
        <g id="突发事件" transform="translate(-247.000000, -719.000000)">
            <g id="农业机械" transform="translate(249.000000, 721.000000)">
                <g id="矩形-copy-5" transform="translate(14.000000, 14.000000) scale(-1, 1) translate(-14.000000, -14.000000) ">
                    <use fill="black" fill-opacity="1" filter="url(#filter-2)" xlink:href="#path-1"></use>
                    <rect stroke="#FFFFFF" stroke-width="1" stroke-linejoin="square" fill="#D90C0C" fill-rule="evenodd" x="0.5" y="0.5" width="27" height="27" rx="13.5"></rect>
                </g>
                <path d="M20.1194263,19.583664 C18.9671906,19.583664 18.0332156,18.6459394 18.0332156,17.4891729 C18.0332156,16.3324063 18.9671906,15.3946817 20.1194263,15.3946817 C21.271662,15.3946817 22.205637,16.3324063 22.205637,17.4891729 C22.205637,18.6459394 21.271662,19.583664 20.1194263,19.583664 L20.1194263,19.583664 Z M20.1194263,13.8929475 C18.1411743,13.8929475 16.5374184,15.5029528 16.5374184,17.4891729 C16.5374184,19.4753929 18.1411743,21.0853982 20.1194263,21.0853982 C22.0976783,21.0853982 23.7014342,19.4753929 23.7014342,17.4891729 C23.7014342,15.5029528 22.0976783,13.8929475 20.1194263,13.8929475 L20.1194263,13.8929475 Z M15.0447458,11.1957004 L15.9402868,8.19879386 L20.1194263,8.19879386 L20.1194263,11.1957004 L15.0447458,11.1957004 Z M23.3955254,14.7919258 L24,14.7919258 C24,13.3434678 21.6119426,12.3944943 21.6119426,12.3944943 L21.6119426,7 L14.7463363,7 L13.5522295,11.7950192 L9.0746805,11.7950192 L9.0746805,7.59931881 L8.47770522,7.59931881 L8.47770522,11.7950192 L6.17371417,11.7950192 C5.63075187,11.7950192 5.17165006,11.944875 4.79640873,12.2445864 C4.23354674,12.6941537 4,13.1673247 4,13.6958116 C4,14.2875194 4,15.3522002 4,16.8898541 C4,17.2207606 4.26731869,17.4891729 4.59713152,17.4891729 L4.9567853,17.4891729 C5.50110927,16.4242727 6.60334969,15.6941849 7.87760522,15.6941849 C9.15170453,15.6941849 10.2539449,16.4242727 10.7982689,17.4891729 L15.637659,17.4891729 C15.63969,15.008468 17.3451551,12.9980314 19.8166422,12.9980314 C21.27963,12.9980314 22.5784145,13.7026529 23.3955254,14.7919258 Z M8.02993469,20.1848577 C7.28891041,20.1848577 6.68818548,19.5817892 6.68818548,18.8377965 C6.68818548,18.0938037 7.28891041,17.4907352 8.02993469,17.4907352 C8.77095897,17.4907352 9.3716839,18.0938037 9.3716839,18.8377965 C9.3716839,19.5817892 8.77095897,20.1848577 8.02993469,20.1848577 L8.02993469,20.1848577 Z M8.02993469,16.290379 C6.62865981,16.290379 5.49267256,17.4308971 5.49267256,18.8377965 C5.49267256,20.2446958 6.62865981,21.3852139 8.02993469,21.3852139 C9.43120957,21.3852139 10.5671968,20.2446958 10.5671968,18.8377965 C10.5671968,17.4308971 9.43120957,16.290379 8.02993469,16.290379 L8.02993469,16.290379 Z" id="Fill-1" fill="#FFFFFF"></path>
            </g>
        </g>
    </g>
</svg>