<?xml version="1.0" encoding="UTF-8"?>
<svg width="32px" height="32px" viewBox="0 0 32 32" version="1.1" xmlns="http://www.w3.org/2000/svg" xmlns:xlink="http://www.w3.org/1999/xlink">
    <!-- Generator: Sketch 53 (72520) - https://sketchapp.com -->
    <title>危化品@4x</title>
    <desc>Created with Sketch.</desc>
    <defs>
        <rect id="path-1" x="0" y="0" width="28" height="28" rx="14"></rect>
        <filter x="-10.7%" y="-10.7%" width="121.4%" height="121.4%" filterUnits="objectBoundingBox" id="filter-2">
            <feMorphology radius="0.5" operator="dilate" in="SourceAlpha" result="shadowSpreadOuter1"></feMorphology>
            <feOffset dx="0" dy="0" in="shadowSpreadOuter1" result="shadowOffsetOuter1"></feOffset>
            <feGaussianBlur stdDeviation="0.5" in="shadowOffsetOuter1" result="shadowBlurOuter1"></feGaussianBlur>
            <feComposite in="shadowBlurOuter1" in2="SourceAlpha" operator="out" result="shadowBlurOuter1"></feComposite>
            <feColorMatrix values="0 0 0 0 0   0 0 0 0 0   0 0 0 0 0  0 0 0 0.26 0" type="matrix" in="shadowBlurOuter1"></feColorMatrix>
        </filter>
    </defs>
    <g id="其他图标" stroke="none" stroke-width="1" fill="none" fill-rule="evenodd">
        <g id="突发事件" transform="translate(-248.000000, -217.000000)">
            <g id="危化品" transform="translate(250.000000, 218.000000)">
                <g id="分组-8" transform="translate(0.000000, 1.000000)">
                    <g id="矩形-copy-5" transform="translate(14.000000, 14.000000) scale(-1, 1) translate(-14.000000, -14.000000) ">
                        <use fill="black" fill-opacity="1" filter="url(#filter-2)" xlink:href="#path-1"></use>
                        <rect stroke="#FFFFFF" stroke-width="1" stroke-linejoin="square" fill="#D90C0C" fill-rule="evenodd" x="0.5" y="0.5" width="27" height="27" rx="13.5"></rect>
                    </g>
                    <path d="M21.3751667,18.2038473 C20.6566654,17.8700754 19.8040259,18.1803169 19.4689051,18.8949214 C19.4269401,18.9833478 19.3953165,19.074322 19.3737344,19.1664951 L16.1388301,17.6642969 L19.3741841,16.1617989 C19.3960658,16.2530729 19.4269401,16.3438972 19.4689051,16.4318739 C19.8040259,17.1475275 20.6566654,17.4567199 21.3751667,17.122948 C22.0935181,16.7902253 22.4040593,15.9398339 22.0689386,15.2241803 C21.8705039,14.7988347 21.4857745,14.5217156 21.0571317,14.4329895 C21.2650085,14.0494591 21.2990301,13.5781019 21.0996962,13.1521569 C20.7645755,12.4366531 19.9113365,12.1274607 19.1929851,12.4612326 C18.4743339,12.7950045 18.1637927,13.6443467 18.4992132,14.3598505 C18.5408785,14.4491761 18.5901874,14.5314575 18.6465404,14.6074442 L14.1018775,16.7176857 L9.55811374,14.6074442 C9.61356754,14.5314575 9.66347595,14.4491761 9.70544098,14.3598505 C10.0399622,13.6443467 9.72957087,12.7950045 9.01166909,12.4612326 C8.29331769,12.1274607 7.43977894,12.4366531 7.10465819,13.1521569 C6.90577392,13.5781019 6.9390462,14.0494591 7.14722273,14.4329895 C6.71798041,14.5217156 6.33415025,14.7988347 6.13496623,15.2241803 C5.79984549,15.9398339 6.11023684,16.7902253 6.82873812,17.122948 C7.54649002,17.4567199 8.40062827,17.1475275 8.73514952,16.4318739 C8.77636517,16.3434476 8.80798882,16.2524734 8.83047009,16.1608997 L12.0644752,17.6638473 L8.83047009,19.1658956 C8.80798882,19.074322 8.77636517,18.9833478 8.73514952,18.8949214 C8.40062827,18.1803169 7.54649002,17.8700754 6.82873812,18.2038473 C6.11023684,18.5376192 5.79984549,19.3868116 6.13496623,20.1026151 C6.33415025,20.5284103 6.71798041,20.8058291 7.14722273,20.8942554 C6.9390462,21.2777858 6.90577392,21.7494428 7.10465819,22.1744886 C7.43977894,22.8902921 8.29331769,23.1993346 9.01166909,22.8655627 C9.72957087,22.5331397 10.0399622,21.6824486 9.70544098,20.966795 C9.66347595,20.8783687 9.61401716,20.7965368 9.55811374,20.7209998 L14.1023271,18.6101587 L18.6459409,20.7204003 C18.5897377,20.7965368 18.5408785,20.8783687 18.4992132,20.966795 C18.1637927,21.6824486 18.4743339,22.5331397 19.1929851,22.8655627 C19.9113365,23.1993346 20.7645755,22.8902921 21.0996962,22.1744886 C21.2990301,21.7494428 21.2650085,21.2777858 21.0571317,20.8942554 C21.4857745,20.8064286 21.8705039,20.5284103 22.0689386,20.1026151 C22.4040593,19.3868116 22.0935181,18.5376192 21.3751667,18.2038473 L21.3751667,18.2038473 Z M10.5909031,8.66324744 C10.5909031,7.87460461 11.233118,7.23433814 12.0255077,7.23433814 C12.8178974,7.23433814 13.4601122,7.87460461 13.4601122,8.66324744 C13.4601122,9.45204014 12.8178974,10.0923066 12.0255077,10.0923066 C11.233118,10.0923066 10.5909031,9.45204014 10.5909031,8.66324744 L10.5909031,8.66324744 Z M14.2904203,11.175454 L14.9252913,12.4386015 C15.0661739,12.7205165 14.9233429,12.9501252 14.6078558,12.9501252 L13.4601122,12.9501252 C13.1446251,12.9501252 13.0017941,12.7205165 13.1426768,12.4386015 L13.7775477,11.175454 C13.9185802,10.893539 14.1493879,10.893539 14.2904203,11.175454 L14.2904203,11.175454 Z M16.0418609,7.23433814 C16.8352997,7.23433814 17.4764654,7.87460461 17.4764654,8.66324744 C17.4764654,9.45204014 16.8352997,10.0923066 16.0418609,10.0923066 C15.2494712,10.0923066 14.6072563,9.45204014 14.6072563,8.66324744 C14.6072563,7.87460461 15.2494712,7.23433814 16.0418609,7.23433814 L16.0418609,7.23433814 Z M10.6259739,13.486828 C10.6259739,14.1904916 11.1980472,14.7603168 11.903959,14.7603168 C12.2746001,14.7603168 12.6049249,14.6009995 12.8385802,14.3501086 C13.0182804,14.835704 13.4836426,15.1846132 14.033984,15.1846132 C14.5843254,15.1846132 15.0496876,14.835704 15.229238,14.3501086 C15.4628933,14.6009995 15.7933679,14.7603168 16.1646086,14.7603168 C16.8699209,14.7603168 17.4419942,14.1904916 17.4419942,13.486828 L17.4419942,12.1500919 C18.2321357,11.3897754 18.7205787,10.3688262 18.7205787,9.24356386 C18.7205787,6.89996677 16.6218776,5 14.033984,5 C11.4460905,5 9.34738934,6.89996677 9.34738934,9.24356386 C9.34738934,10.3688262 9.83523282,11.3903749 10.6259739,12.1500919 L10.6259739,13.486828 Z" id="Fill-1" fill="#FFFFFF"></path>
                </g>
            </g>
        </g>
    </g>
</svg>