<?xml version="1.0" encoding="UTF-8"?>
<svg width="32px" height="32px" viewBox="0 0 32 32" version="1.1" xmlns="http://www.w3.org/2000/svg" xmlns:xlink="http://www.w3.org/1999/xlink">
    <!-- Generator: Sketch 53 (72520) - https://sketchapp.com -->
    <title>城市轨道@4x</title>
    <desc>Created with Sketch.</desc>
    <defs>
        <rect id="path-1" x="0" y="0" width="28" height="28" rx="14"></rect>
        <filter x="-10.7%" y="-10.7%" width="121.4%" height="121.4%" filterUnits="objectBoundingBox" id="filter-2">
            <feMorphology radius="0.5" operator="dilate" in="SourceAlpha" result="shadowSpreadOuter1"></feMorphology>
            <feOffset dx="0" dy="0" in="shadowSpreadOuter1" result="shadowOffsetOuter1"></feOffset>
            <feGaussianBlur stdDeviation="0.5" in="shadowOffsetOuter1" result="shadowBlurOuter1"></feGaussianBlur>
            <feComposite in="shadowBlurOuter1" in2="SourceAlpha" operator="out" result="shadowBlurOuter1"></feComposite>
            <feColorMatrix values="0 0 0 0 0   0 0 0 0 0   0 0 0 0 0  0 0 0 0.26 0" type="matrix" in="shadowBlurOuter1"></feColorMatrix>
        </filter>
    </defs>
    <g id="其他图标" stroke="none" stroke-width="1" fill="none" fill-rule="evenodd">
        <g id="突发事件" transform="translate(-247.000000, -492.000000)">
            <g id="城市轨道" transform="translate(249.000000, 494.000000)">
                <g id="分组-8">
                    <g id="矩形-copy-5" transform="translate(14.000000, 14.000000) scale(-1, 1) translate(-14.000000, -14.000000) ">
                        <use fill="black" fill-opacity="1" filter="url(#filter-2)" xlink:href="#path-1"></use>
                        <rect stroke="#FFFFFF" stroke-width="1" stroke-linejoin="square" fill="#D90C0C" fill-rule="evenodd" x="0.5" y="0.5" width="27" height="27" rx="13.5"></rect>
                    </g>
                    <path d="M16.7823409,19.6571869 L17.4688912,20.7714066 L11.6623203,20.7714066 L12.1200205,19.6571869 L10.0605236,19.6571869 L7.7723306,23 L10.5182238,23 L10.975924,21.8857803 L17.9264374,21.8857803 L18.3841376,23 L20.9011807,23 L18.6129877,19.6571869 L16.7823409,19.6571869 Z M18.4555955,17.3429671 C17.8158624,17.3429671 17.2971766,16.8248973 17.2971766,16.1857803 C17.2971766,15.5466632 17.8158624,15.0285934 18.4555955,15.0285934 C19.0954825,15.0285934 19.6140144,15.5466632 19.6140144,16.1857803 C19.6140144,16.8248973 19.0954825,17.3429671 18.4555955,17.3429671 L18.4555955,17.3429671 Z M10.2179158,17.3429671 C9.57802875,17.3429671 9.05949692,16.8248973 9.05949692,16.1857803 C9.05949692,15.5466632 9.57802875,15.0285934 10.2179158,15.0285934 C10.8576489,15.0285934 11.3763347,15.5466632 11.3763347,16.1857803 C11.3763347,16.8248973 10.8576489,17.3429671 10.2179158,17.3429671 L10.2179158,17.3429671 Z M10.3466632,9.11437372 C10.3466632,8.68824435 10.6924025,8.34296715 11.1188398,8.34296715 L17.5546715,8.34296715 C17.9811088,8.34296715 18.3270021,8.68824435 18.3270021,9.11437372 L19.3566735,13.2285934 C19.3566735,13.6547228 19.0109343,14 18.5843429,14 L10.0891684,14 C9.662577,14 9.31683778,13.6547228 9.31683778,13.2285934 L10.3466632,9.11437372 Z M11.762423,6.02859343 L16.9110883,6.02859343 C17.2665298,6.02859343 17.5546715,6.3164271 17.5546715,6.67140657 C17.5546715,7.02654004 17.2665298,7.31437372 16.9110883,7.31437372 L11.762423,7.31437372 C11.4069815,7.31437372 11.1188398,7.02654004 11.1188398,6.67140657 C11.1188398,6.3164271 11.4069815,6.02859343 11.762423,6.02859343 L11.762423,6.02859343 Z M19.7070329,6.57099589 C19.7070329,5.70333676 19.0027721,5 18.1338809,5 L10.5396304,5 C9.67089322,5 8.96647844,5.70333676 8.96647844,6.57099589 L7,17.0577515 C7,17.9252567 7.70441478,18.6285934 8.57315195,18.6285934 L20.1003593,18.6285934 C20.9692505,18.6285934 21.6735113,17.9252567 21.6735113,17.0577515 L19.7070329,6.57099589 Z" id="Fill-1" fill="#FFFFFF"></path>
                </g>
            </g>
        </g>
    </g>
</svg>