<?xml version="1.0" encoding="UTF-8"?>
<svg width="32px" height="32px" viewBox="0 0 32 32" version="1.1" xmlns="http://www.w3.org/2000/svg" xmlns:xlink="http://www.w3.org/1999/xlink">
    <!-- Generator: Sketch 53 (72520) - https://sketchapp.com -->
    <title>火灾事故@4x</title>
    <desc>Created with Sketch.</desc>
    <defs>
        <rect id="path-1" x="0" y="0" width="28" height="28" rx="14"></rect>
        <filter x="-10.7%" y="-10.7%" width="121.4%" height="121.4%" filterUnits="objectBoundingBox" id="filter-2">
            <feMorphology radius="0.5" operator="dilate" in="SourceAlpha" result="shadowSpreadOuter1"></feMorphology>
            <feOffset dx="0" dy="0" in="shadowSpreadOuter1" result="shadowOffsetOuter1"></feOffset>
            <feGaussianBlur stdDeviation="0.5" in="shadowOffsetOuter1" result="shadowBlurOuter1"></feGaussianBlur>
            <feComposite in="shadowBlurOuter1" in2="SourceAlpha" operator="out" result="shadowBlurOuter1"></feComposite>
            <feColorMatrix values="0 0 0 0 0   0 0 0 0 0   0 0 0 0 0  0 0 0 0.26 0" type="matrix" in="shadowBlurOuter1"></feColorMatrix>
        </filter>
    </defs>
    <g id="其他图标" stroke="none" stroke-width="1" fill="none" fill-rule="evenodd">
        <g id="突发事件" transform="translate(-248.000000, -309.000000)">
            <g id="火灾事故" transform="translate(250.000000, 311.000000)">
                <g id="分组-8">
                    <g id="矩形-copy-5" transform="translate(14.000000, 14.000000) scale(-1, 1) translate(-14.000000, -14.000000) ">
                        <use fill="black" fill-opacity="1" filter="url(#filter-2)" xlink:href="#path-1"></use>
                        <rect stroke="#FFFFFF" stroke-width="1" stroke-linejoin="square" fill="#D90C0C" fill-rule="evenodd" x="0.5" y="0.5" width="27" height="27" rx="13.5"></rect>
                    </g>
                    <path d="M8.11525091,24 L18.846789,24 L18.846789,23.2239536 L8.11525091,23.2239536 L8.11525091,24 Z M19.5392689,15.4243483 C19.9034277,14.1178355 20.3164714,12.1307339 19.3949265,10.9647649 C19.0890662,11.8924204 18.6007135,13.0327908 17.7219428,13.5549995 C17.4790051,11.9961355 16.7496965,10.0532944 16.913857,8.48931058 C16.5411103,9.46271294 16.1170015,10.8995301 15.2694445,11.5687236 C15.1625916,10.3935062 14.993972,9.20854493 14.6730828,8.07131238 C14.2747376,6.65613001 13.3642579,5.55011106 13.4816806,4 C12.2945723,5.81897755 11.9376801,7.60079603 11.9812801,9.72645973 C11.1720382,9.09095713 9.95256026,7.99996697 8.86586403,7.99996697 C9.76263615,9.34512514 9.93786178,11.0917664 9.75982857,12.6620259 C9.09575478,12.1157051 8.07743124,11.1664148 7.16397883,11.1664148 C7.82557535,12.3447701 8.14266604,13.7617691 8.00063583,15.1082485 C7.27925451,14.5338519 5.98496296,13.5569814 5,13.9275811 C6.59899588,14.696526 6.63863222,17.2875864 6.97768805,18.7320006 C7.68371029,21.7359394 10.1943419,22.7301509 13.0488188,22.676807 C11.6286818,21.9362681 9.83332095,20.7859886 9.35619855,19.1656881 C9.61499079,19.3252244 9.98179206,19.3093699 10.2499979,19.453547 C10.182451,18.5225886 10.1163905,17.5931165 10.0486784,16.6626535 C10.5867416,17.0743759 11.1253004,17.4880802 11.6638591,17.8998026 L11.6638591,14.1589582 C12.0584058,14.6578806 12.452457,15.1556469 12.8466734,15.6545693 C12.9895294,15.0146076 13.0692975,14.1001643 13.4531094,13.5549995 C13.7393168,14.2626733 14.1449286,15.1094045 14.1449286,15.885451 C14.5777904,15.4066771 15.0098265,14.9267471 15.4431838,14.446652 C15.4530929,15.4149346 15.4616807,16.3843734 15.4715898,17.352656 C16.0005698,16.9789184 16.5297149,16.6050156 17.0586948,16.2309477 C17.0286373,17.3937787 16.3060999,18.597237 15.7893411,19.5972288 C16.2890893,19.4827788 16.7893329,19.367338 17.2899068,19.251732 C17.0524191,20.7486643 15.6679548,21.855509 14.4341087,22.5625222 C16.5523406,22.905872 18.6301104,21.8198363 19.9437247,20.2023435 C21.1169602,18.6036779 20.5270394,15.6722405 22.6835864,14.8205547 C21.6360311,15.0222046 20.5874848,15.2226984 19.5392689,15.4243483 L19.5392689,15.4243483 Z" id="Fill-1" fill="#FFFFFF"></path>
                </g>
            </g>
        </g>
    </g>
</svg>