<?xml version="1.0" encoding="UTF-8"?>
<svg width="32px" height="32px" viewBox="0 0 32 32" version="1.1" xmlns="http://www.w3.org/2000/svg" xmlns:xlink="http://www.w3.org/1999/xlink">
    <!-- Generator: Sketch 53 (72520) - https://sketchapp.com -->
    <title>烟花爆竹 @4x</title>
    <desc>Created with Sketch.</desc>
    <defs>
        <rect id="path-1" x="0" y="0" width="28" height="28" rx="14"></rect>
        <filter x="-10.7%" y="-10.7%" width="121.4%" height="121.4%" filterUnits="objectBoundingBox" id="filter-2">
            <feMorphology radius="0.5" operator="dilate" in="SourceAlpha" result="shadowSpreadOuter1"></feMorphology>
            <feOffset dx="0" dy="0" in="shadowSpreadOuter1" result="shadowOffsetOuter1"></feOffset>
            <feGaussianBlur stdDeviation="0.5" in="shadowOffsetOuter1" result="shadowBlurOuter1"></feGaussianBlur>
            <feComposite in="shadowBlurOuter1" in2="SourceAlpha" operator="out" result="shadowBlurOuter1"></feComposite>
            <feColorMatrix values="0 0 0 0 0   0 0 0 0 0   0 0 0 0 0  0 0 0 0.26 0" type="matrix" in="shadowBlurOuter1"></feColorMatrix>
        </filter>
    </defs>
    <g id="其他图标" stroke="none" stroke-width="1" fill="none" fill-rule="evenodd">
        <g id="突发事件" transform="translate(-248.000000, -262.000000)">
            <g id="烟花爆竹-" transform="translate(250.000000, 264.000000)">
                <g id="矩形-copy-5" transform="translate(14.000000, 14.000000) scale(-1, 1) translate(-14.000000, -14.000000) ">
                    <use fill="black" fill-opacity="1" filter="url(#filter-2)" xlink:href="#path-1"></use>
                    <rect stroke="#FFFFFF" stroke-width="1" stroke-linejoin="square" fill="#D90C0C" fill-rule="evenodd" x="0.5" y="0.5" width="27" height="27" rx="13.5"></rect>
                </g>
                <path d="M13.6986759,12.147475 C13.7430192,11.8905792 13.6337471,11.6372601 13.513355,11.3572533 C13.3284095,10.9273151 13.1178439,10.4413327 13.5109531,9.90811323 C13.5710004,9.82885087 13.6878924,9.80883512 13.7735598,9.86487922 C13.8584265,9.92092332 13.8800435,10.0306096 13.8199963,10.1106726 C13.5429784,10.4837661 13.6902943,10.8272363 13.8624297,11.2251494 C13.9856934,11.5098784 14.1193266,11.8179387 14.0823243,12.147475 L16.2234872,12.147475 C16.382012,12.147475 16.5125146,12.2779777 16.5125146,12.4357018 L16.5125146,12.8368174 L11.2603825,12.8368174 L11.2603825,12.4357018 C11.2603825,12.2779777 11.3916858,12.147475 11.5502105,12.147475 L13.6986759,12.147475 Z M16.5125146,13.2723601 L16.5125146,22.875115 L11.2603825,22.875115 L11.2603825,13.2723601 L16.5125146,13.2723601 Z M16.5125146,23.3106577 L16.5125146,23.7117732 C16.5125146,23.8694973 16.382012,24 16.2242879,24 L11.5494099,24 C11.390278,23.9995628 11.2612611,23.8709034 11.2603825,23.7117732 L11.2603825,23.3106577 L16.5125146,23.3106577 Z M13.8880498,19.4452165 L15.3644114,17.780707 L13.8880498,16.1177987 L12.4108877,17.780707 L13.8880498,19.4452165 Z M15.7182207,10.3652647 C15.7692208,10.4086695 15.8325188,10.4343237 15.9009648,10.4343237 L18.2787308,10.4343237 C18.3457235,10.4343237 18.4076714,10.4088707 18.4577713,10.3658924 C18.403962,10.3938442 18.3430537,10.4096152 18.2787308,10.4096152 L15.9009648,10.4096152 C15.8350283,10.4096152 15.7728877,10.3935899 15.7182207,10.3652647 Z M12.1176364,10.5676223 C12.0643257,10.5940233 12.0041485,10.6088384 11.9404232,10.6088384 L9.56810467,10.6088384 C9.50823041,10.6088384 9.45126562,10.5956803 9.40014591,10.5719947 C9.44836944,10.6084436 9.50612307,10.6297562 9.56810467,10.6297562 L11.9403944,10.6297562 C12.0068502,10.6297562 12.067834,10.6069074 12.1176364,10.5676223 Z M19.0020705,4.83718244 C19.0223648,4.5597283 19.2540592,4.34107051 19.5366445,4.34129083 C19.8168467,4.34153659 20.0465988,4.55695852 20.0697368,4.83112307 C20.0709881,4.8463416 20.0716534,4.86173256 20.0716534,4.87727969 C20.0716534,4.89319386 20.0709563,4.90894439 20.0695915,4.92450289 C20.0459374,5.19857401 19.8158514,5.41351429 19.5356933,5.41326856 C19.2555522,5.41299555 19.0258392,5.19769188 19.0025916,4.92361535 C19.0013261,4.90833895 19.0006556,4.89288802 19.0006556,4.87727969 C19.0006556,4.86380066 19.0011581,4.85043285 19.0021454,4.83719436 L19.0020705,4.83718244 Z M18.2312308,4.59582501 C18.0831969,4.59582501 17.9643893,4.47520157 17.9643893,4.32898349 C17.9643893,4.18094957 18.0850128,4.06217079 18.2312308,4.06217079 C18.3792648,4.06217079 18.4980724,4.18279422 18.4980724,4.32898349 C18.4980724,4.47517275 18.3774489,4.59582501 18.2312308,4.59582501 Z M13.7936719,8.19631208 C13.4683489,8.19631208 13.203352,7.92947056 13.203352,7.60414756 L13.203352,4.59398035 C13.203352,4.26684152 13.4683489,4 13.7936719,4 C14.1208395,4 14.3858364,4.26684152 14.3858364,4.59398035 L14.3858364,7.60414756 C14.3876522,7.92947056 14.1208395,8.19631208 13.7936719,8.19631208 Z M12.8432976,8.93285002 C12.6751453,8.93285002 12.5142853,8.84695806 12.4229458,8.69160315 L11.2349563,6.63547076 C11.1033513,6.40151605 11.183767,6.10363237 11.415877,5.97018279 C11.6498317,5.83313035 11.9422391,5.91170132 12.081165,6.14747186 L13.265494,8.20360425 C13.3312965,8.31509085 13.3495701,8.44485112 13.3166545,8.57097971 C13.2837388,8.6971083 13.203352,8.80308975 13.0918654,8.86704756 C13.0162216,8.91041942 12.930493,8.93311402 12.8432976,8.93285002 Z M11.6827185,9.55974601 C11.5821846,9.55974601 11.4816795,9.53418019 11.3902824,9.48114623 L8.78222209,7.9751547 C8.49892274,7.8088183 8.40207812,7.44513215 8.56656986,7.16367747 C8.64516965,7.02659621 8.77126942,6.92975159 8.92477968,6.88769912 C9.07831875,6.84567547 9.23730534,6.86760962 9.3743866,6.94436475 L11.9842915,8.45220093 C12.2657462,8.61484802 12.3644355,8.97674715 12.2036042,9.26001767 C12.0884571,9.45370692 11.8874181,9.55974601 11.6827185,9.55974601 Z M11.9404232,10.8390094 L9.56810467,10.8390094 C9.29944731,10.8390094 9.08010577,10.5900241 9.08010577,10.2845098 C9.08010577,9.9789955 9.29944731,9.72789825 9.56810467,9.72789825 L11.9403944,9.72789825 C12.2090518,9.72789825 12.4283933,9.9768835 12.4283933,10.2845098 C12.4283933,10.5941821 12.2145569,10.8390094 11.9404232,10.8390094 Z M18.2787308,10.6413858 L15.9009648,10.6413858 C15.6322786,10.6413858 15.4129659,10.392423 15.4129659,10.0848982 C15.4129659,9.77945194 15.6322498,9.53048915 15.9009648,9.53048915 L18.2769438,9.53048915 C18.4048594,9.52633207 18.523667,9.58278255 18.61688,9.68529082 C18.7103894,9.78984484 18.7630966,9.93315845 18.7630692,10.0827867 C18.7612822,10.392456 18.5437853,10.6413858 18.2787308,10.6413858 Z M16.0325697,9.34224913 C15.8278413,9.34224913 15.6286469,9.23805469 15.5189761,9.04981296 C15.3545132,8.76469778 15.449542,8.4083038 15.7346572,8.23651989 L18.3445621,6.73416004 C18.4797987,6.65374441 18.6388141,6.62999442 18.7905085,6.67020224 C18.9440188,6.71041005 19.0738079,6.80909933 19.1542235,6.94984108 C19.3168994,7.23129577 19.2199971,7.59316608 18.9367266,7.75765782 L16.3286375,9.26364934 C16.2384319,9.31507498 16.1364044,9.34216113 16.0325697,9.34224913 Z M14.822646,8.83779241 C14.7383291,8.83805801 14.6555371,8.81531712 14.5831861,8.77201877 C14.4698549,8.70621631 14.3894393,8.60020603 14.3565813,8.47595093 C14.3236656,8.34985116 14.3419393,8.21824623 14.4077129,8.10675963 L15.5902261,6.05062723 C15.7273074,5.81488552 16.0197435,5.73628573 16.2591457,5.87336699 C16.48944,6.00860359 16.5680397,6.30651609 16.4364348,6.5368103 L15.2466295,8.59291387 C15.1826428,8.70624513 15.0784772,8.78666076 14.9523774,8.82139223 C14.9099594,8.83210357 14.8663951,8.83761081 14.822646,8.83779241 Z M8.84251939,16.9453014 L8.84070356,16.9434855 C8.82793505,16.9288724 8.8187694,16.9087829 8.8187694,16.8831882 C8.8187694,16.746107 8.71094329,16.5414074 8.54097521,16.3604579 C8.37282297,16.1795083 8.19005757,16.0698375 8.07309463,16.080819 C8.03288682,16.0862953 8,16.0497769 8,16.0022481 C8,15.9766246 8.00913683,15.9547192 8.02193415,15.9382614 C8.03473148,15.9218036 8.05300514,15.9089775 8.07309463,15.9071904 C8.19008639,15.896209 8.37100714,15.7481462 8.54097521,15.5325228 C8.70728279,15.3168706 8.81695357,15.0883922 8.81510891,14.951311 C8.81510891,14.927561 8.8224299,14.9056268 8.83704306,14.889169 C8.84981156,14.8708953 8.86811404,14.8599427 8.88820354,14.8581268 C8.93022719,14.8544663 8.96129817,14.889169 8.96129817,14.9367266 C8.96129817,15.0737791 9.07096894,15.2803233 9.23912118,15.4612728 C9.4072446,15.6421936 9.59185466,15.7518355 9.70700176,15.7408829 C9.74720957,15.7372512 9.78009639,15.7719538 9.78009639,15.8194827 C9.78009639,15.8432326 9.77280422,15.8651956 9.7600069,15.8834693 C9.74720957,15.8998983 9.72893592,15.9127244 9.7088176,15.9145114 C9.4547734,15.9401349 8.98323232,16.5450679 8.96861916,16.8521173 C8.97227966,16.8795277 8.96680332,16.9105699 8.94852967,16.9343775 C8.91745868,16.970896 8.87177454,16.9764012 8.84251939,16.9453014 Z" id="合并形状" fill="#FFFFFF" fill-rule="nonzero" transform="translate(14.035827, 14.000000) rotate(40.000000) translate(-14.035827, -14.000000) "></path>
            </g>
        </g>
    </g>
</svg>