<?xml version="1.0" encoding="UTF-8"?>
<svg width="32px" height="32px" viewBox="0 0 32 32" version="1.1" xmlns="http://www.w3.org/2000/svg" xmlns:xlink="http://www.w3.org/1999/xlink">
    <!-- Generator: Sketch 53 (72520) - https://sketchapp.com -->
    <title>煤矿事故@4x</title>
    <desc>Created with Sketch.</desc>
    <defs>
        <rect id="path-1" x="0" y="0" width="28" height="28" rx="14"></rect>
        <filter x="-10.7%" y="-10.7%" width="121.4%" height="121.4%" filterUnits="objectBoundingBox" id="filter-2">
            <feMorphology radius="0.5" operator="dilate" in="SourceAlpha" result="shadowSpreadOuter1"></feMorphology>
            <feOffset dx="0" dy="0" in="shadowSpreadOuter1" result="shadowOffsetOuter1"></feOffset>
            <feGaussianBlur stdDeviation="0.5" in="shadowOffsetOuter1" result="shadowBlurOuter1"></feGaussianBlur>
            <feComposite in="shadowBlurOuter1" in2="SourceAlpha" operator="out" result="shadowBlurOuter1"></feComposite>
            <feColorMatrix values="0 0 0 0 0   0 0 0 0 0   0 0 0 0 0  0 0 0 0.26 0" type="matrix" in="shadowBlurOuter1"></feColorMatrix>
        </filter>
    </defs>
    <g id="其他图标" stroke="none" stroke-width="1" fill="none" fill-rule="evenodd">
        <g id="突发事件" transform="translate(-247.000000, -70.000000)">
            <g id="煤矿事故" transform="translate(249.000000, 72.000000)">
                <g id="分组-8">
                    <g id="矩形-copy-5" transform="translate(14.000000, 14.000000) scale(-1, 1) translate(-14.000000, -14.000000) ">
                        <use fill="black" fill-opacity="1" filter="url(#filter-2)" xlink:href="#path-1"></use>
                        <rect stroke="#FFFFFF" stroke-width="1" stroke-linejoin="square" fill="#D90C0C" fill-rule="evenodd" x="0.5" y="0.5" width="27" height="27" rx="13.5"></rect>
                    </g>
                    <path d="M16.1662791,15.4407909 C15.4307139,15.3383244 13.9849839,14.9466036 13.6473082,15.5973877 C13.3097819,16.2480193 11.6780315,15.8462348 11.6187141,15.822143 C11.6187141,15.822143 11.3030023,16.079529 11.4843909,16.818294 L14.0032124,16.6618497 L13.8688892,17.6580006 C13.8688892,17.6580006 13.2712331,17.5747466 12.8210487,18.0195304 C12.3707149,18.4641617 11.6387356,19.3772111 11.6387356,19.3772111 C11.6387356,19.3772111 11.2282953,19.5261839 11.0811225,19.8070518 C10.9339497,20.0877673 11.4719895,20.8446773 11.9946398,20.441673 C11.9946398,20.441673 12.4328711,20.1829147 12.5522529,20.0119848 C12.7844423,19.6795787 13.3241257,18.8032769 13.7344166,18.6543041 C14.1448569,18.5053312 14.2247934,18.722615 14.2247934,18.722615 C14.2247934,18.722615 14.2726059,19.0621877 13.6000934,19.650455 C12.9274315,20.2387223 12.7697997,21.407633 12.834496,21.6227821 C12.8990428,21.8379312 13.3301023,22.2724988 13.8151002,21.759404 C13.9237241,21.6444342 13.6482047,21.5567583 14.1281225,20.7483101 C14.2918803,20.4723215 14.7973479,20.2012123 15.0710744,19.855388 C16.2477098,18.3693192 15.4071065,17.3649343 15.4071065,17.3649343 C15.4071065,17.3649343 15.3864874,16.0141152 16.0318065,16.4370943 C16.6772751,16.859921 16.7935192,18.0814372 17.3013774,18.1361775 C17.8090862,18.1912227 17.6876126,17.5874024 17.4357006,17.1400265 C17.1837886,16.6926506 16.9018443,15.5432574 16.1662791,15.4407909 L16.1662791,15.4407909 Z M12.261045,14.3627582 C12.261045,14.2229342 11.9274035,14.1093367 11.5157678,14.1093367 C11.1042816,14.1093367 10.7706401,14.2229342 10.7706401,14.3627582 C10.7706401,14.5027348 11.1042816,14.6161798 11.5157678,14.6161798 C11.9274035,14.6161798 12.261045,14.5027348 12.261045,14.3627582 L12.261045,14.3627582 Z M10.7706401,13.3492246 C10.7706401,13.4890486 11.1042816,13.6026461 11.5157678,13.6026461 C11.9274035,13.6026461 12.261045,13.4890486 12.261045,13.3492246 C12.261045,13.2092481 11.9274035,13.095803 11.5157678,13.095803 C11.1042816,13.095803 10.7706401,13.2092481 10.7706401,13.3492246 L10.7706401,13.3492246 Z M10.5221646,12.58896 C10.3850026,12.58896 10.2736891,12.702405 10.2736891,12.842229 C10.2736891,12.9822055 10.3850026,13.095803 10.5221646,13.095803 C10.6593267,13.095803 10.7706401,12.9822055 10.7706401,12.842229 C10.7706401,12.702405 10.6593267,12.58896 10.5221646,12.58896 L10.5221646,12.58896 Z M12.9235467,11.5752738 C13.0149881,11.5752738 13.0169305,11.2036804 13.2700378,11.0958771 C13.2972312,11.0842886 13.3203903,11.0723952 13.3416071,11.0603493 C13.3668581,11.0650762 13.3930056,11.0684307 13.4203483,11.0684307 C13.6032311,11.0684307 13.7515992,10.9549857 13.7515992,10.8150092 C13.7515992,10.6750327 13.6032311,10.5615877 13.4203483,10.5615877 C13.3284587,10.5615877 13.2453845,10.5902539 13.1854695,10.6364553 C13.0988094,10.5994027 13.0051268,10.5725662 12.9235467,10.5615877 C12.6030536,10.5179784 12.7578466,10.7884777 12.7578466,11.0684307 C12.7578466,11.3483838 12.8321053,11.5752738 12.9235467,11.5752738 L12.9235467,11.5752738 Z M14.7453518,10.8150092 C14.7453518,10.6750327 14.6340384,10.5615877 14.4968763,10.5615877 C14.3597142,10.5615877 14.2484008,10.6750327 14.2484008,10.8150092 C14.2484008,10.9549857 14.3597142,11.0684307 14.4968763,11.0684307 C14.6340384,11.0684307 14.7453518,10.9549857 14.7453518,10.8150092 L14.7453518,10.8150092 Z M15.2421534,9.54790152 C15.2421534,9.82785455 15.4644815,10.0547446 15.738955,10.0547446 C15.8402577,10.0547446 15.9342392,10.0234862 16.0128309,9.97042322 C16.0800672,10.0225713 16.1550731,10.0547446 16.2357566,10.0547446 C16.5102302,10.0547446 16.7325582,9.71440953 16.7325582,9.29447998 C16.7325582,8.87455043 16.5102302,8.53421537 16.2357566,8.53421537 C16.0191063,8.53421537 15.8366718,8.74783966 15.7686884,9.04410804 C15.7586777,9.04349812 15.7491152,9.04105844 15.738955,9.04105844 C15.4644815,9.04105844 15.2421534,9.26794848 15.2421534,9.54790152 L15.2421534,9.54790152 Z M16.9810338,8.02737229 C17.1181958,8.02737229 17.2295093,7.91392727 17.2295093,7.77395076 C17.2295093,7.63397424 17.1181958,7.52052922 16.9810338,7.52052922 C16.8438717,7.52052922 16.7325582,7.63397424 16.7325582,7.77395076 C16.7325582,7.91392727 16.8438717,8.02737229 16.9810338,8.02737229 L16.9810338,8.02737229 Z M17.4778354,7.52052922 C17.889471,7.52052922 18.2231125,7.29363918 18.2231125,7.01368615 C18.2231125,6.9314995 18.1915861,6.85480213 18.1404865,6.78618619 C18.1924826,6.70598178 18.2231125,6.61022442 18.2231125,6.50684307 C18.2231125,6.22689004 18.000635,6 17.7263109,6 C17.6353177,6 17.5511976,6.02683646 17.4778354,6.07029322 C17.4046225,6.02683646 17.320353,6 17.2295093,6 C16.9550357,6 16.7325582,6.22689004 16.7325582,6.50684307 C16.7325582,6.61022442 16.7633375,6.70598178 16.8153336,6.78618619 C16.764234,6.85480213 16.7325582,6.9314995 16.7325582,7.01368615 C16.7325582,7.29363918 17.0663492,7.52052922 17.4778354,7.52052922 L17.4778354,7.52052922 Z M14.9711164,15.1414729 C15.4565625,15.3672956 15.9340897,15.277485 16.0649764,15.0263506 C16.1383387,14.8854592 16.4110193,14.2516004 16.4110193,14.2516004 L14.438306,13.3339766 C14.438306,13.3339766 14.3301303,13.5761146 14.2076108,13.8505784 C14.0849419,14.1248896 14.4856703,14.9156502 14.9711164,15.1414729 L14.9711164,15.1414729 Z M14.3519447,12.8606791 C14.0112808,12.7659891 10.4860064,11.9654698 10.4860064,11.9514416 L10.4860064,10.8833202 C10.6833824,10.9751131 14.0825512,12.5384891 14.4934398,12.7030149 L14.3519447,12.8606791 Z M16.9329224,13.7497892 C16.9329224,13.7497892 17.0783023,12.7159757 16.2269412,12.3297442 C15.6310781,12.0593974 15.340169,12.0439969 14.6479339,12.5310176 L14.6355325,12.5447408 L10.336443,10.5780555 L10.336443,12.104074 L14.1399262,13.0744559 L16.7022272,14.266391 L16.9329224,13.7497892 Z M20.9050941,8.53421537 C20.9050941,8.53421537 20.9361722,8.02737229 20.4082925,8.02737229 L17.7263109,8.02737229 L17.7263109,21.7119828 L22,21.7119828 L20.9050941,8.53421537 Z M10.2736891,9.54790152 C10.3047672,8.85091605 11.2674418,9.04105844 11.2674418,9.04105844 L15.738955,9.04105844 L15.738955,8.02737229 L14.7453518,6.50684307 L7.44229351,6.50684307 L6,21.7119828 L10.2736891,21.7119828 C10.2736891,21.7119828 10.2342438,10.433962 10.2736891,9.54790152 L10.2736891,9.54790152 Z" id="Fill-1" fill="#FFFFFF"></path>
                </g>
            </g>
        </g>
    </g>
</svg>