<?xml version="1.0" encoding="UTF-8"?>
<svg width="32px" height="32px" viewBox="0 0 32 32" version="1.1" xmlns="http://www.w3.org/2000/svg" xmlns:xlink="http://www.w3.org/1999/xlink">
    <!-- Generator: Sketch 53 (72520) - https://sketchapp.com -->
    <title>特种设备@4x</title>
    <desc>Created with Sketch.</desc>
    <defs>
        <rect id="path-1" x="0" y="0" width="28" height="28" rx="14"></rect>
        <filter x="-10.7%" y="-10.7%" width="121.4%" height="121.4%" filterUnits="objectBoundingBox" id="filter-2">
            <feMorphology radius="0.5" operator="dilate" in="SourceAlpha" result="shadowSpreadOuter1"></feMorphology>
            <feOffset dx="0" dy="0" in="shadowSpreadOuter1" result="shadowOffsetOuter1"></feOffset>
            <feGaussianBlur stdDeviation="0.5" in="shadowOffsetOuter1" result="shadowBlurOuter1"></feGaussianBlur>
            <feComposite in="shadowBlurOuter1" in2="SourceAlpha" operator="out" result="shadowBlurOuter1"></feComposite>
            <feColorMatrix values="0 0 0 0 0   0 0 0 0 0   0 0 0 0 0  0 0 0 0.26 0" type="matrix" in="shadowBlurOuter1"></feColorMatrix>
        </filter>
    </defs>
    <g id="其他图标" stroke="none" stroke-width="1" fill="none" fill-rule="evenodd">
        <g id="突发事件" transform="translate(-247.000000, -587.000000)">
            <g id="特种设备" transform="translate(249.000000, 589.000000)">
                <g id="矩形-copy-5" transform="translate(14.000000, 14.000000) scale(-1, 1) translate(-14.000000, -14.000000) ">
                    <use fill="black" fill-opacity="1" filter="url(#filter-2)" xlink:href="#path-1"></use>
                    <rect stroke="#FFFFFF" stroke-width="1" stroke-linejoin="square" fill="#D90C0C" fill-rule="evenodd" x="0.5" y="0.5" width="27" height="27" rx="13.5"></rect>
                </g>
                <path d="M13.9792299,20.1362159 C10.5992992,20.1362159 7.85926889,17.3889611 7.85926889,14 C7.85926889,10.6112195 10.5992992,7.86396474 13.9792299,7.86396474 C17.3591605,7.86396474 20.0991909,10.6112195 20.0991909,14 C20.0991909,17.3889611 17.3591605,20.1362159 13.9792299,20.1362159 L13.9792299,20.1362159 Z M23.8797139,15.2353706 C23.9295622,14.830263 23.9582792,14.4186534 23.9582792,14 C23.9582792,13.6346265 23.937509,13.2739489 23.8992198,12.9186895 L21.92949,12.924469 C21.8413524,12.2701199 21.6753721,11.640695 21.44076,11.0457665 L23.1504118,10.0553027 C22.8446395,9.34207484 22.4584959,8.67183211 22.0033593,8.05559168 L20.295333,9.04497182 C19.8999783,8.53944517 19.4475509,8.08087704 18.9443722,7.68299379 L19.9314044,5.97352261 C19.3189568,5.51676058 18.651965,5.12989452 17.9428912,4.82177431 L16.9564008,6.53016183 C16.3762823,6.29753648 15.7632929,6.12956943 15.1255599,6.03800029 L15.1255599,4.06772865 C14.7491692,4.02456292 14.366999,4 13.9792299,4 C13.5912802,4 13.2092906,4.02456292 12.8328999,4.06772865 L12.8328999,6.03800029 C12.2374296,6.1234287 11.663813,6.27622453 11.1180104,6.48519 L10.1047898,4.78204017 C9.36067765,5.09648172 8.66280162,5.49869961 8.02380436,5.97587054 L9.03124548,7.66962867 C8.56888455,8.03355729 8.14643838,8.44625054 7.77365988,8.90156769 L6.05913163,7.91923132 C5.57654241,8.5493787 5.16782257,9.23858546 4.84435053,9.97457015 L6.55309926,10.9536555 C6.34305014,11.4680321 6.18339113,12.008597 6.0827915,12.5699321 L4.09933536,12.6011776 C4.03539951,13.0584814 4,13.5249964 4,14 C4,14.3292516 4.01697732,14.6545297 4.04804219,14.9756538 L6.01145066,14.9445889 C6.07881809,15.5214564 6.20632857,16.0800824 6.38892501,16.6128811 L4.6881231,17.6481361 C4.97854356,18.3904421 5.35457304,19.0892212 5.80483312,19.7327337 L7.48071088,18.7128305 C7.84174975,19.2116746 8.2562491,19.6689785 8.71951308,20.07228 L7.72688195,21.7916847 C8.33716226,22.2840269 9.00596012,22.7062924 9.72189712,23.0452969 L10.7045947,21.3430501 C11.26304,21.5935558 11.8541757,21.7835573 12.4713192,21.9013148 L12.4713192,23.8863965 C12.9631195,23.9609883 13.4666594,24 13.9792299,24 C14.2627872,24 14.5427323,23.9853706 14.8203294,23.962072 L14.8203294,21.9993859 C15.4692602,21.9311154 16.0956148,21.7869889 16.6890984,21.5731469 L17.6815489,23.2860497 C18.4139214,22.9925589 19.1029476,22.6149039 19.7377908,22.1646438 L18.7520228,20.4631195 C19.2761523,20.0733637 19.752962,19.6232842 20.1680032,19.119383 L21.8823508,20.1024418 C22.3550065,19.4885493 22.7575856,18.818126 23.0792516,18.1029114 L21.3730314,17.1243679 C21.6233565,16.5294394 21.8061335,15.8989308 21.9078168,15.2411501 L23.8797139,15.2353706 Z M13.9792299,16.173277 C12.7821485,16.173277 11.8117324,15.2003323 11.8117324,14 C11.8117324,12.7998483 12.7821485,11.8269036 13.9792299,11.8269036 C15.1763112,11.8269036 16.1467274,12.7998483 16.1467274,14 C16.1467274,15.2003323 15.1763112,16.173277 13.9792299,16.173277 L13.9792299,16.173277 Z M13.9792299,9.11559023 C11.2886866,9.11559023 9.1076434,11.3024129 9.1076434,14 C9.1076434,16.6975871 11.2886866,18.8845904 13.9792299,18.8845904 C16.6697732,18.8845904 18.8508164,16.6975871 18.8508164,14 C18.8508164,11.3024129 16.6697732,9.11559023 13.9792299,9.11559023 L13.9792299,9.11559023 Z" id="Fill-1" fill="#FFFFFF"></path>
            </g>
        </g>
    </g>
</svg>