<?xml version="1.0" encoding="UTF-8"?>
<svg width="32px" height="32px" viewBox="0 0 32 32" version="1.1" xmlns="http://www.w3.org/2000/svg" xmlns:xlink="http://www.w3.org/1999/xlink">
    <!-- Generator: Sketch 53 (72520) - https://sketchapp.com -->
    <title>环境污染</title>
    <desc>Created with Sketch.</desc>
    <defs>
        <rect id="path-1" x="0" y="0" width="28" height="28" rx="14"></rect>
        <filter x="-10.7%" y="-10.7%" width="121.4%" height="121.4%" filterUnits="objectBoundingBox" id="filter-2">
            <feMorphology radius="0.5" operator="dilate" in="SourceAlpha" result="shadowSpreadOuter1"></feMorphology>
            <feOffset dx="0" dy="0" in="shadowSpreadOuter1" result="shadowOffsetOuter1"></feOffset>
            <feGaussianBlur stdDeviation="0.5" in="shadowOffsetOuter1" result="shadowBlurOuter1"></feGaussianBlur>
            <feComposite in="shadowBlurOuter1" in2="SourceAlpha" operator="out" result="shadowBlurOuter1"></feComposite>
            <feColorMatrix values="0 0 0 0 0   0 0 0 0 0   0 0 0 0 0  0 0 0 0.26 0" type="matrix" in="shadowBlurOuter1"></feColorMatrix>
        </filter>
    </defs>
    <g id="其他图标" stroke="none" stroke-width="1" fill="none" fill-rule="evenodd">
        <g id="突发事件" transform="translate(-173.000000, -584.000000)">
            <g id="环境污染" transform="translate(175.000000, 580.000000)">
                <g id="分组-8" transform="translate(0.000000, 6.000000)">
                    <g id="矩形-copy-5" transform="translate(14.000000, 14.000000) scale(-1, 1) translate(-14.000000, -14.000000) ">
                        <use fill="black" fill-opacity="1" filter="url(#filter-2)" xlink:href="#path-1"></use>
                        <rect stroke="#FFFFFF" stroke-width="1" stroke-linejoin="square" fill="#D90C0C" fill-rule="evenodd" x="0.5" y="0.5" width="27" height="27" rx="13.5"></rect>
                    </g>
                    <path d="M11.1790784,10.8367232 C11.3357521,10.9714689 12.6026483,11.7843927 13.3283369,10.8367232 C14.1623941,9.74763418 15.1470869,9.59985876 15.4775953,10.0285664 C15.8090572,10.4585452 15.6118644,10.230685 16.2835275,10.297899 C16.9551907,10.3652719 17.0894597,11.1060558 17.0894597,11.1060558 L17.8955508,11.1060558 L17.6268538,9.75923376 L16.5522246,9.2204096 C16.0148305,9.44493291 15.4775953,8.41225282 15.4775953,8.41225282 C14.5699682,9.56076977 13.5970339,8.95107698 13.5970339,8.95107698 C11.9179555,11.6672846 11.1790784,9.2204096 11.1790784,9.2204096 C10.7537076,10.0061617 10.1044492,10.297899 10.1044492,10.297899 C10.1044492,10.297899 8.22388771,10.7469456 8.22388771,9.2204096 C8.22388771,7.69387359 10.1044492,8.1429202 10.1044492,8.1429202 C11.9402013,5.15722105 11.4477754,8.1429202 11.4477754,8.1429202 L12.7909428,8.1429202 C13.6864936,4.30409605 15.7462924,7.06527189 15.7462924,7.06527189 L16.2835275,7.06527189 C18.3431674,6.57141596 17.8955508,8.95107698 17.8955508,8.95107698 C19.5746292,8.86129944 18.9701801,10.0285664 18.9701801,10.0285664 L18.9701801,11.1060558 L19.7761123,11.1060558 C21.6566737,8.97348164 19.2387182,7.87342867 19.2387182,7.87342867 C18.6790784,4.9551024 16.2835275,5.98778249 16.2835275,5.98778249 C14.2014831,3.76527189 12.2537076,5.98778249 12.2537076,5.98778249 C10.2164725,5.02247528 9.83575212,6.79593927 9.83575212,6.79593927 C6.14184322,6.79593927 6.88056144,9.75923376 6.88056144,9.75923376 C8.58204449,12.9468927 11.0224047,10.7019774 11.1790784,10.8367232 L11.1790784,10.8367232 Z M5,23.2284075 L23,23.2284075 L23,22.4202507 L5,22.4202507 L5,23.2284075 Z M19.9103814,11.3755473 L16.9551907,11.3755473 C16.584322,11.3755473 16.2835275,11.6769774 16.2835275,12.0489583 C16.2835275,12.4209393 16.584322,12.7223694 16.9551907,12.7223694 L19.9103814,12.7223694 C20.2814089,12.7223694 20.5820445,12.4209393 20.5820445,12.0489583 C20.5820445,11.6769774 20.2814089,11.3755473 19.9103814,11.3755473 L19.9103814,11.3755473 Z M11.1790784,17.8408016 L10.3731462,17.8408016 C10.0763242,17.8408016 9.83575212,17.5995939 9.83575212,17.3019774 C9.83575212,17.0043609 10.0763242,16.7631532 10.3731462,16.7631532 L11.1790784,16.7631532 C11.4759004,16.7631532 11.7164725,17.0043609 11.7164725,17.3019774 C11.7164725,17.5995939 11.4759004,17.8408016 11.1790784,17.8408016 L11.1790784,17.8408016 Z M8.76112288,17.8408016 L7.95519068,17.8408016 C7.65852754,17.8408016 7.41795551,17.5995939 7.41795551,17.3019774 C7.41795551,17.0043609 7.65852754,16.7631532 7.95519068,16.7631532 L8.76112288,16.7631532 C9.05794492,16.7631532 9.29851695,17.0043609 9.29851695,17.3019774 C9.29851695,17.5995939 9.05794492,17.8408016 8.76112288,17.8408016 L8.76112288,17.8408016 Z M15.146928,21.9043079 L15.3479343,21.9035134 L15.6522246,21.9043079 L15.6520657,21.90256 L21.6566737,21.8815855 L20.8507415,14.0693503 C20.8507415,13.6230049 20.4898835,13.2611935 20.0448093,13.2611935 L16.8209216,13.2611935 C16.3756886,13.2611935 16.0148305,13.6230049 16.0148305,14.0693503 L15.4243644,19.3997528 L15.2088983,17.0326448 C15.2088983,16.5862994 14.8480403,16.224488 14.4029661,16.224488 L6.61186441,14.8775071 C6.16679025,14.8775071 5.8059322,15.2393185 5.8059322,15.6856638 L5.8059322,21.8815855 L15.146928,21.9030367 L15.146928,21.9043079 Z" id="Fill-1" fill="#FFFFFF"></path>
                </g>
            </g>
        </g>
    </g>
</svg>