<?xml version="1.0" encoding="UTF-8"?>
<svg width="32px" height="32px" viewBox="0 0 32 32" version="1.1" xmlns="http://www.w3.org/2000/svg" xmlns:xlink="http://www.w3.org/1999/xlink">
    <!-- Generator: Sketch 53 (72520) - https://sketchapp.com -->
    <title>踩踏@4x</title>
    <desc>Created with Sketch.</desc>
    <defs>
        <rect id="path-1" x="0" y="0" width="28" height="28" rx="14"></rect>
        <filter x="-10.7%" y="-10.7%" width="121.4%" height="121.4%" filterUnits="objectBoundingBox" id="filter-2">
            <feMorphology radius="0.5" operator="dilate" in="SourceAlpha" result="shadowSpreadOuter1"></feMorphology>
            <feOffset dx="0" dy="0" in="shadowSpreadOuter1" result="shadowOffsetOuter1"></feOffset>
            <feGaussianBlur stdDeviation="0.5" in="shadowOffsetOuter1" result="shadowBlurOuter1"></feGaussianBlur>
            <feComposite in="shadowBlurOuter1" in2="SourceAlpha" operator="out" result="shadowBlurOuter1"></feComposite>
            <feColorMatrix values="0 0 0 0 0   0 0 0 0 0   0 0 0 0 0  0 0 0 0.26 0" type="matrix" in="shadowBlurOuter1"></feColorMatrix>
        </filter>
    </defs>
    <g id="其他图标" stroke="none" stroke-width="1" fill="none" fill-rule="evenodd">
        <g id="突发事件" transform="translate(-247.000000, -759.000000)">
            <g id="踩踏" transform="translate(249.000000, 761.000000)">
                <g id="分组-8">
                    <g id="矩形-copy-5" transform="translate(14.000000, 14.000000) scale(-1, 1) translate(-14.000000, -14.000000) ">
                        <use fill="black" fill-opacity="1" filter="url(#filter-2)" xlink:href="#path-1"></use>
                        <rect stroke="#FFFFFF" stroke-width="1" stroke-linejoin="square" fill="#D90C0C" fill-rule="evenodd" x="0.5" y="0.5" width="27" height="27" rx="13.5"></rect>
                    </g>
                    <path d="M8.09105089,12.6666399 C7.0583695,12.6666399 6.2212191,11.8294895 6.2212191,10.7968081 C6.2212191,9.76412675 7.0583695,8.92697635 8.09105089,8.92697635 C9.12373228,8.92697635 9.96088269,9.76412675 9.96088269,10.7968081 C9.96088269,11.8294895 9.12373228,12.6666399 8.09105089,12.6666399 M22.9942781,13.0940301 C22.9340428,13.6810237 22.4092879,14.1080131 21.8222943,14.0477778 C21.8222943,14.0477778 21.8221607,14.0477778 21.8221607,14.0477778 L18.1543521,13.6711403 L15.6905816,16.3893415 C15.6848385,16.3953517 15.678027,16.3998927 15.6720168,16.4056357 L15.7338548,16.5204968 L18.0109093,16.4648026 L18.0127791,16.4939185 L18.024933,16.4873741 L20.2595156,20.5932576 C20.5321103,21.116677 20.3288329,21.7619025 19.8054135,22.0344972 C19.2957508,22.2998798 18.6673538,22.1146329 18.3831393,21.6151207 L16.7590569,18.6314034 L13.8341057,18.7035255 C13.4979367,18.7250285 13.1713839,18.5863939 12.9534149,18.3295591 L12.9468705,18.3330316 L12.9305763,18.3027137 C12.8519098,18.2037461 12.7915409,18.0916898 12.7522744,17.9714863 L10.8208718,14.3815428 L10.0905689,16.7045417 C10.0097654,17.0460531 9.71446557,17.2939394 9.36413923,17.3141069 L9.36480703,17.3182472 L5.93339856,17.8904157 C5.49679283,17.9632056 5.08396069,17.6683064 5.01103724,17.2318343 C4.93824736,16.7952286 5.23314655,16.3822628 5.66975228,16.309473 L8.69847911,15.8044848 L9.8091592,12.2714376 C9.78431715,12.2213529 9.77069409,12.1899664 9.77069409,12.1899664 L14.4637048,6.2257372 C14.7683538,5.92322512 15.2606538,5.9249614 15.5631659,6.22974398 C15.5683747,6.2349528 15.57345,6.24016161 15.5783916,6.24550399 C15.8841091,6.56417675 15.880503,7.06836354 15.5703781,7.3827624 L12.8190542,11.1102721 L13.4574682,12.2833244 L13.4555983,12.2843929 L14.5224709,14.2666817 L17.3272186,11.4049042 L17.3895909,11.4660744 L17.3918614,11.4440371 L22.0419995,11.9216455 C22.6285924,11.9826822 23.0547805,12.5074371 22.9942781,13.0940301" id="Fill-1" fill="#FFFFFF"></path>
                </g>
            </g>
        </g>
    </g>
</svg>