<?xml version="1.0" encoding="UTF-8"?>
<svg width="32px" height="32px" viewBox="0 0 32 32" version="1.1" xmlns="http://www.w3.org/2000/svg" xmlns:xlink="http://www.w3.org/1999/xlink">
    <!-- Generator: Sketch 53 (72520) - https://sketchapp.com -->
    <title>辐射事件@4x</title>
    <desc>Created with Sketch.</desc>
    <defs>
        <rect id="path-1" x="0" y="0" width="28" height="28" rx="14"></rect>
        <filter x="-10.7%" y="-10.7%" width="121.4%" height="121.4%" filterUnits="objectBoundingBox" id="filter-2">
            <feMorphology radius="0.5" operator="dilate" in="SourceAlpha" result="shadowSpreadOuter1"></feMorphology>
            <feOffset dx="0" dy="0" in="shadowSpreadOuter1" result="shadowOffsetOuter1"></feOffset>
            <feGaussianBlur stdDeviation="0.5" in="shadowOffsetOuter1" result="shadowBlurOuter1"></feGaussianBlur>
            <feComposite in="shadowBlurOuter1" in2="SourceAlpha" operator="out" result="shadowBlurOuter1"></feComposite>
            <feColorMatrix values="0 0 0 0 0   0 0 0 0 0   0 0 0 0 0  0 0 0 0.26 0" type="matrix" in="shadowBlurOuter1"></feColorMatrix>
        </filter>
    </defs>
    <g id="其他图标" stroke="none" stroke-width="1" fill="none" fill-rule="evenodd">
        <g id="突发事件" transform="translate(-608.000000, -210.000000)">
            <g id="辐射事件" transform="translate(610.000000, 212.000000)">
                <g id="分组-8">
                    <g id="矩形-copy-5" transform="translate(14.000000, 14.000000) scale(-1, 1) translate(-14.000000, -14.000000) ">
                        <use fill="black" fill-opacity="1" filter="url(#filter-2)" xlink:href="#path-1"></use>
                        <rect stroke="#FFFFFF" stroke-width="1" stroke-linejoin="square" fill="#D90C0C" fill-rule="evenodd" x="0.5" y="0.5" width="27" height="27" rx="13.5"></rect>
                    </g>
                    <path d="M12.5977415,16.217743 C12.4870322,16.3612949 9.53896324,21.51113 9.5349027,21.5685746 C9.53072274,21.6546819 10.2278213,22.011412 10.8838368,22.2532527 C12.8027986,22.9584724 14.885615,22.991315 16.8414798,22.33936 C17.3006787,22.187687 18.2560991,21.7653912 18.4406147,21.6341404 C18.4775178,21.6054777 18.0879451,20.9002581 16.9316476,18.8951891 C16.074755,17.4109435 15.3653554,16.1850198 15.3530544,16.1767793 C15.3449333,16.1644783 15.2259835,16.2054419 15.0947326,16.2628866 C14.4796807,16.5417499 13.7539195,16.5704125 13.1184456,16.3449333 C12.9256895,16.2751876 12.741174,16.2096219 12.7042709,16.1931409 C12.6673678,16.1767793 12.6223436,16.1890803 12.5977415,16.217743 Z M13.7334974,12.0149683 C12.7371134,12.1831222 12.0441948,13.1261221 12.2164093,14.085603 C12.3394197,14.7744611 12.782257,15.2869247 13.4547535,15.5165838 C13.9549161,15.6847378 14.6314731,15.569968 15.0620094,15.2419005 C15.5089073,14.901532 15.742627,14.4505736 15.7712896,13.8724248 C15.8041322,13.3271187 15.6236772,12.8842813 15.217743,12.4947087 C14.8323503,12.121617 14.2337794,11.928861 13.7334974,12.0149683 Z M18.4160126,6.13125087 C18.0756441,6.70115911 15.3735959,11.4123369 15.3735959,11.4409995 C15.3735959,11.4614216 15.4883658,11.5598299 15.6277377,11.6582382 C15.9271426,11.8796568 16.226428,12.2363869 16.3986425,12.5849959 C16.5421944,12.8760408 16.6856269,13.4009249 16.6856269,13.6346446 L16.6856269,13.7903781 L23,13.7903781 L23,13.589501 C23,12.6013575 22.6965346,11.2441829 22.2455762,10.2108958 C21.5115745,8.52577313 20.1831819,7.00044454 18.6660939,6.10246883 L18.4979399,6 L18.4158932,6.13113144 L18.4160126,6.13125087 Z M8.99771761,6.30334596 C7.68974715,7.18078013 6.59913481,8.42736483 5.9062162,9.83374359 C5.36497057,10.9284165 5,12.3839994 5,13.425527 L5,13.7903781 L8.13664501,13.7903781 C9.86285074,13.7903781 11.2734095,13.7821376 11.2734095,13.7740165 C11.2734095,13.6058626 11.3841188,13.0564959 11.457925,12.8637398 C11.6424406,12.3716983 12.0197122,11.8796568 12.4214664,11.6091535 C12.5239353,11.5394078 12.6142225,11.4738421 12.6223436,11.4696621 C12.6388246,11.4533005 9.49799959,6 9.46933698,6 C9.45703594,6 9.24385778,6.13937194 8.99783703,6.30346539 L8.99771761,6.30334596 Z" id="Fill-1" fill="#FFFFFF"></path>
                </g>
            </g>
        </g>
    </g>
</svg>