<?xml version="1.0" encoding="UTF-8"?>
<svg width="32px" height="32px" viewBox="0 0 32 32" version="1.1" xmlns="http://www.w3.org/2000/svg" xmlns:xlink="http://www.w3.org/1999/xlink">
    <!-- Generator: Sketch 53 (72520) - https://sketchapp.com -->
    <title>道路交通@4x</title>
    <desc>Created with Sketch.</desc>
    <defs>
        <rect id="path-1" x="0" y="0" width="28" height="28" rx="14"></rect>
        <filter x="-10.7%" y="-10.7%" width="121.4%" height="121.4%" filterUnits="objectBoundingBox" id="filter-2">
            <feMorphology radius="0.5" operator="dilate" in="SourceAlpha" result="shadowSpreadOuter1"></feMorphology>
            <feOffset dx="0" dy="0" in="shadowSpreadOuter1" result="shadowOffsetOuter1"></feOffset>
            <feGaussianBlur stdDeviation="0.5" in="shadowOffsetOuter1" result="shadowBlurOuter1"></feGaussianBlur>
            <feComposite in="shadowBlurOuter1" in2="SourceAlpha" operator="out" result="shadowBlurOuter1"></feComposite>
            <feColorMatrix values="0 0 0 0 0   0 0 0 0 0   0 0 0 0 0  0 0 0 0.26 0" type="matrix" in="shadowBlurOuter1"></feColorMatrix>
        </filter>
    </defs>
    <g id="其他图标" stroke="none" stroke-width="1" fill="none" fill-rule="evenodd">
        <g id="突发事件" transform="translate(-248.000000, -352.000000)">
            <g id="道路交通" transform="translate(250.000000, 354.000000)">
                <g id="矩形-copy-5" transform="translate(14.000000, 14.000000) scale(-1, 1) translate(-14.000000, -14.000000) ">
                    <use fill="black" fill-opacity="1" filter="url(#filter-2)" xlink:href="#path-1"></use>
                    <rect stroke="#FFFFFF" stroke-width="1" stroke-linejoin="square" fill="#D90C0C" fill-rule="evenodd" x="0.5" y="0.5" width="27" height="27" rx="13.5"></rect>
                </g>
                <path d="M21.6780244,10.7383472 L20.1609924,10.7383472 C20.0911584,10.7398331 20.0242961,10.757663 19.9633771,10.7918371 L19.2798954,8.73544896 C19.0599927,7.56461525 18.2353572,7 17.2205356,7 L10.7928368,7 C9.62794645,7 8.92217739,7.75777309 8.73496286,8.73396312 L8.04999542,10.7962946 C7.98610474,10.757663 7.91478492,10.7383473 7.84049345,10.7368614 L6.32197561,10.7368614 C6.21053839,10.7368614 6.10207282,10.7814363 6.02332386,10.8601853 C5.94457489,10.9389342 5.90000001,11.0473998 5.9,11.158837 L5.9,11.5243511 C5.9,11.7576263 6.08870035,11.9463267 6.32346143,11.9463267 L6.89847749,12.0443915 C6.70531964,12.4247638 6.60725488,12.8482253 6.61468404,13.2746584 L6.40221041,15.7010181 C6.40221041,15.7708521 6.40815372,15.8421719 6.41558287,15.9149775 C6.40666789,15.9610383 6.4022104,16.0056131 6.40221041,16.0531597 L6.40221041,18.9728148 C6.40221041,19.3888471 6.73949373,19.7246446 7.15701183,19.7246446 L8.30852976,19.7246446 C8.50763092,19.7246446 8.69930294,19.6458956 8.84194259,19.5047418 C8.9830964,19.363588 9.0633312,19.171916 9.0633312,18.9728148 L9.0633312,18.0352563 L18.9619279,18.0352563 L18.9619279,18.9728148 C18.9619279,19.3888471 19.2992112,19.7246446 19.7167294,19.7246446 L20.8682473,19.7246446 C21.0673484,19.7246446 21.2590205,19.6458956 21.4016601,19.5047418 C21.5428139,19.363588 21.6230487,19.171916 21.6230487,18.9728148 L21.6230487,16.0531597 C21.6230487,16.007099 21.6185912,15.9610383 21.6096762,15.9149775 C21.6185912,15.8421719 21.6230487,15.7708521 21.6230487,15.7010181 L21.4105751,13.2746584 C21.4105751,12.8021645 21.306567,12.3965331 21.1252958,12.0429056 L21.6780244,11.9478125 C21.7894616,11.9478125 21.8979272,11.9032376 21.9766761,11.8244887 C22.0554251,11.7457397 22.1,11.6372741 22.1,11.5258369 L22.1,11.1603228 C22.1,10.9270476 21.9112996,10.7383472 21.6780244,10.7383472 Z M9.24163075,10.3059708 L9.74384114,8.97169586 L9.74978447,8.94049344 C9.80030268,8.67155829 9.9117399,8.62252591 10.076667,8.41450977 L17.9426488,8.41450977 C18.1090617,8.62846922 18.2130698,8.68344492 18.2591305,8.93752179 L18.7702559,10.3059708 L18.9574704,11.0488856 C18.9158672,11.5926993 18.2591305,12.022104 17.7153169,12.022104 L10.2965698,12.022104 C9.7512703,12.022104 9.09601945,11.5926993 9.05293039,11.0488856 L9.24163075,10.3059708 Z M9.59377236,16.651949 C8.98458223,16.6252041 8.50317344,16.1229937 8.50317344,15.5123177 C8.50317344,14.9016418 8.98458223,14.3994314 9.59377236,14.3726864 C10.0127763,14.3548565 10.408007,14.5673301 10.6219664,14.9269009 C10.8374117,15.2864716 10.8374117,15.7351922 10.6219664,16.0962487 C10.408007,16.4573053 10.0127763,16.669779 9.59377236,16.651949 Z M15.9739246,15.8109695 C15.9739246,15.998184 15.8208842,16.1497386 15.6336696,16.1497386 L12.4287352,16.1497386 C12.2415207,16.1497386 12.0899661,15.998184 12.0884802,15.8109695 L12.0884802,14.8585527 C12.0884802,14.6713382 12.2415207,14.5197835 12.4287352,14.5197835 L15.6336696,14.5197835 C15.8208842,14.5197835 15.9739246,14.6713382 15.9739246,14.8585527 L15.9739246,15.8109695 L15.9739246,15.8109695 Z M18.4181143,16.651949 C17.7866367,16.651949 17.2755113,16.1423095 17.2755113,15.5123177 C17.2755113,14.882326 17.7866367,14.3726864 18.4181143,14.3726864 C19.0495919,14.3726864 19.5607172,14.882326 19.5607172,15.5123177 C19.5607172,16.1408236 19.048106,16.651949 18.4181143,16.651949 Z M5,19.7317526 L23,19.7317526 L23,20.5658763 L5,20.5658763 L5,19.7317526 Z" id="形状" fill="#FFFFFF" fill-rule="nonzero"></path>
            </g>
        </g>
    </g>
</svg>