<?xml version="1.0" encoding="UTF-8"?>
<svg width="32px" height="32px" viewBox="0 0 32 32" version="1.1" xmlns="http://www.w3.org/2000/svg" xmlns:xlink="http://www.w3.org/1999/xlink">
    <!-- Generator: Sketch 53 (72520) - https://sketchapp.com -->
    <title>铁路事故@4x</title>
    <desc>Created with Sketch.</desc>
    <defs>
        <rect id="path-1" x="0" y="0" width="28" height="28" rx="14"></rect>
        <filter x="-10.7%" y="-10.7%" width="121.4%" height="121.4%" filterUnits="objectBoundingBox" id="filter-2">
            <feMorphology radius="0.5" operator="dilate" in="SourceAlpha" result="shadowSpreadOuter1"></feMorphology>
            <feOffset dx="0" dy="0" in="shadowSpreadOuter1" result="shadowOffsetOuter1"></feOffset>
            <feGaussianBlur stdDeviation="0.5" in="shadowOffsetOuter1" result="shadowBlurOuter1"></feGaussianBlur>
            <feComposite in="shadowBlurOuter1" in2="SourceAlpha" operator="out" result="shadowBlurOuter1"></feComposite>
            <feColorMatrix values="0 0 0 0 0   0 0 0 0 0   0 0 0 0 0  0 0 0 0.26 0" type="matrix" in="shadowBlurOuter1"></feColorMatrix>
        </filter>
    </defs>
    <g id="其他图标" stroke="none" stroke-width="1" fill="none" fill-rule="evenodd">
        <g id="突发事件" transform="translate(-247.000000, -444.000000)">
            <g id="铁路事故" transform="translate(249.000000, 446.000000)">
                <g id="矩形-copy-5" transform="translate(14.000000, 14.000000) scale(-1, 1) translate(-14.000000, -14.000000) ">
                    <use fill="black" fill-opacity="1" filter="url(#filter-2)" xlink:href="#path-1"></use>
                    <rect stroke="#FFFFFF" stroke-width="1" stroke-linejoin="square" fill="#D90C0C" fill-rule="evenodd" x="0.5" y="0.5" width="27" height="27" rx="13.5"></rect>
                </g>
                <path d="M14.9904259,5.74549397 C15.4722384,5.74549397 15.862854,5.35455944 15.862854,4.87242811 C15.862854,4.39077509 15.4722384,4 14.9904259,4 C14.5086135,4 14.1175195,4.39077509 14.1175195,4.87242811 C14.1175195,5.35455944 14.5086135,5.74549397 14.9904259,5.74549397 L14.9904259,5.74549397 Z M12.6776624,5.74549397 C13.1599531,5.74549397 13.5500905,5.35455944 13.5500905,4.87242811 C13.5500905,4.39077509 13.1599531,4 12.6776624,4 C12.1958499,4 11.8052342,4.39077509 11.8052342,4.87242811 C11.8052342,5.35455944 12.1958499,5.74549397 12.6776624,5.74549397 L12.6776624,5.74549397 Z M18.0770868,21.3619891 L16.8983841,21.3619891 L16.8983841,22.1142033 L10.7697042,22.1142033 L10.7697042,21.3619891 L9.59100149,21.3619891 L9.59100149,22.1142033 L8.64794369,22.1142033 L8.64794369,23.2929059 L9.59100149,23.2929059 L9.59100149,24 L10.7697042,24 L10.7697042,23.2929059 L16.8983841,23.2929059 L16.8983841,24 L18.0770868,24 L18.0770868,23.2929059 L19.0199852,23.2929059 L19.0199852,22.1142033 L18.0770868,22.1142033 L18.0770868,21.3619891 Z M18.0770868,18.8976029 L16.8983841,18.8976029 L16.8983841,19.7226788 L10.7697042,19.7226788 L10.7697042,18.8976029 L9.59100149,18.8976029 L9.59100149,19.7226788 L8.64794369,19.7226788 L8.64794369,20.8905399 L19.0199852,20.8905399 L19.0199852,19.7226788 L18.0770868,19.7226788 L18.0770868,18.8976029 Z M17.6638314,6.10964342 L10.0042569,6.10964342 C8.8974594,6.10964342 8,7.00710283 8,8.11421921 L8,10.6364803 L8.94273893,10.6364803 L8.94273893,9.19407221 C8.94273893,8.82498027 9.24199836,8.52572085 9.6110903,8.52572085 L18.056998,8.52572085 C18.4260899,8.52572085 18.7253494,8.82498027 18.7253494,9.19407221 L18.7253494,10.6364803 L19.6680883,10.6364803 L19.6680883,8.11421921 C19.6680883,7.00710283 18.7706289,6.10964342 17.6638314,6.10964342 L17.6638314,6.10964342 Z M18.7253494,12.4541983 C18.7253494,12.8232903 18.4260899,13.1225497 18.056998,13.1225497 L9.6110903,13.1225497 C9.24199836,13.1225497 8.94273893,12.8232903 8.94273893,12.4541983 L8.94273893,11.1080889 L8,11.1080889 L8,15.7930853 L9.26846456,15.7930853 C9.3666765,15.3819025 9.73417409,15.0751497 10.1753306,15.0751497 C10.6922188,15.0751497 11.1112139,15.4938259 11.1112139,16.0103952 C11.1112139,16.5271239 10.6922188,16.946119 10.1753306,16.946119 C9.74756662,16.946119 9.39075118,16.6565851 9.27962501,16.2643751 L8,16.2643751 L8,16.4804094 C8,17.5875258 8.8974594,18.4851446 10.0042569,18.4851446 L17.6638314,18.4851446 C18.7706289,18.4851446 19.6680883,17.5875258 19.6680883,16.4804094 L19.6680883,16.2643751 L18.3881444,16.2643751 C18.2773371,16.6565851 17.9208405,16.946119 17.4927577,16.946119 C16.9758695,16.946119 16.5576716,16.5271239 16.5576716,16.0103952 C16.5576716,15.4938259 16.9758695,15.0751497 17.4927577,15.0751497 C17.9342331,15.0751497 18.3014118,15.3819025 18.3996237,15.7930853 L19.6680883,15.7930853 L19.6680883,11.1080889 L18.7253494,11.1080889 L18.7253494,12.4541983 Z" id="Fill-1" fill="#FFFFFF"></path>
            </g>
        </g>
    </g>
</svg>