<?xml version="1.0" encoding="UTF-8"?>
<svg width="32px" height="32px" viewBox="0 0 32 32" version="1.1" xmlns="http://www.w3.org/2000/svg" xmlns:xlink="http://www.w3.org/1999/xlink">
    <!-- Generator: Sketch 53 (72520) - https://sketchapp.com -->
    <title>飞行事故@4x</title>
    <desc>Created with Sketch.</desc>
    <defs>
        <rect id="path-1" x="0" y="0" width="28" height="28" rx="14"></rect>
        <filter x="-10.7%" y="-10.7%" width="121.4%" height="121.4%" filterUnits="objectBoundingBox" id="filter-2">
            <feMorphology radius="0.5" operator="dilate" in="SourceAlpha" result="shadowSpreadOuter1"></feMorphology>
            <feOffset dx="0" dy="0" in="shadowSpreadOuter1" result="shadowOffsetOuter1"></feOffset>
            <feGaussianBlur stdDeviation="0.5" in="shadowOffsetOuter1" result="shadowBlurOuter1"></feGaussianBlur>
            <feComposite in="shadowBlurOuter1" in2="SourceAlpha" operator="out" result="shadowBlurOuter1"></feComposite>
            <feColorMatrix values="0 0 0 0 0   0 0 0 0 0   0 0 0 0 0  0 0 0 0.26 0" type="matrix" in="shadowBlurOuter1"></feColorMatrix>
        </filter>
    </defs>
    <g id="其他图标" stroke="none" stroke-width="1" fill="none" fill-rule="evenodd">
        <g id="突发事件" transform="translate(-247.000000, -540.000000)">
            <g id="飞行事故" transform="translate(249.000000, 541.000000)">
                <g id="分组-8" transform="translate(0.000000, 1.000000)">
                    <g id="矩形-copy-5" transform="translate(14.000000, 14.000000) scale(-1, 1) translate(-14.000000, -14.000000) ">
                        <use fill="black" fill-opacity="1" filter="url(#filter-2)" xlink:href="#path-1"></use>
                        <rect stroke="#FFFFFF" stroke-width="1" stroke-linejoin="square" fill="#D90C0C" fill-rule="evenodd" x="0.5" y="0.5" width="27" height="27" rx="13.5"></rect>
                    </g>
                    <path d="M10.3822992,14.0469933 L11.0871987,13.7445131 L10.8365677,14.6508572 L11.5773388,14.42106 L11.379497,14.9243582 C10.35332,15.1734227 9.42817857,15.3317901 8.60078322,15.397894 C8.52418414,15.5117744 8.36158733,15.8969628 8.11440258,16.5528327 C7.86737447,17.2094857 7.68519711,17.6067357 7.56693064,17.7447394 C7.44960404,17.8836829 7.20461231,18.0024193 6.82913585,18.1020451 C6.6286311,18.1553042 6.48639805,18.1623531 6.40306327,18.1246019 C6.3014011,17.7417631 6.36374554,16.783883 6.59181968,15.2464189 C5.59462188,13.8883126 5.06453746,13.0853538 5,12.8423984 C5.05341572,12.7675224 5.18045427,12.7029849 5.38095901,12.6497259 C5.75627883,12.5501001 6.03024976,12.5333391 6.20522148,12.5978766 C6.37925333,12.6611609 6.73483596,12.9164912 7.27196937,13.3607345 C7.80769298,13.8046645 8.13789923,14.0576451 8.26102167,14.1184231 C8.83825603,13.831764 9.39778957,13.5107998 10.5632234,13.156157 L10.3822992,14.0469933 Z M20.0998869,14.9431555 L17.8326168,14.9431555 L16.0940214,17.020416 L16.5326255,17.020416 C16.9040292,17.020416 17.090436,17.1809764 17.090436,17.5038204 C17.090436,17.8706814 16.7448786,18.0548951 16.0542337,18.0548951 L15.3310069,18.0548951 L14.2373162,19.5209294 L14.7542425,19.5209294 C15.0991733,19.5209294 15.2722653,19.68055 15.2722653,20.0035506 C15.2722653,20.3711948 15.0319728,20.5546254 14.5495083,20.5546254 L13.4945087,20.5546254 C12.2761291,22.2015838 11.5085719,23.025533 11.1882343,23.025533 C11.0398921,23.025533 10.8783918,22.9664781 10.7057697,22.8482116 C10.5326777,22.7297885 10.4469933,22.6018101 10.4469933,22.4647463 C10.4469933,22.326586 10.6305805,21.9705335 10.9979114,21.3954921 C11.3647724,20.8218606 11.9006527,19.7474371 12.6003829,18.1712819 C13.3012096,16.5966931 13.6508398,15.6493082 13.6508398,15.3269341 C13.6508398,15.2030285 13.5681316,15.1134279 13.4013054,15.0571926 C13.2368288,15.0009573 12.5641981,14.9677487 11.3895222,14.9523975 C10.8846576,14.9467583 12.0110869,14.3808024 12.0110869,14.3808024 L11.7206683,14.0676704 L12.0676355,13.4592638 L11.6060047,13.0706292 C11.6060047,13.0706292 12.3223392,13.0565312 12.7119137,13.0540249 C13.3386476,13.034601 13.6508398,12.9189975 13.6508398,12.7087808 C13.6508398,12.3812375 13.3012096,11.4307197 12.6003829,9.85926377 C11.9006527,8.28733792 11.3647724,7.21463754 10.9979114,6.64022278 C10.6305805,6.06612131 10.4469933,5.71006875 10.4469933,5.57190845 C10.4469933,5.43484466 10.5326777,5.30451658 10.7057697,5.18343051 C10.8783918,5.06171787 11.0398921,5 11.1882343,5 C11.5085719,5 12.2761291,5.82786529 13.4945087,7.48202941 L14.5495083,7.48202941 C15.0319728,7.48202941 15.2722653,7.66483335 15.2722653,8.03388739 C15.2722653,8.35375511 15.0991733,8.51556871 14.7542425,8.51556871 L14.2373162,8.51556871 L15.3310069,9.98175964 L16.0542337,9.98175964 C16.7448786,9.98175964 17.090436,10.1659734 17.090436,10.5326777 C17.090436,10.8556784 16.9040292,11.0152989 16.5326255,11.0152989 L16.0940214,11.0152989 L17.8326168,13.0934993 L20.0998869,13.0934993 C20.4770864,13.0934993 21.0543208,13.1757375 21.8317466,13.338491 C22.6113654,13.5024976 23,13.7130276 23,13.9688278 C23,14.6187451 22.0328779,14.9431555 20.0998869,14.9431555 L20.0998869,14.9431555 Z" id="Fill-1" fill="#FFFFFF"></path>
                </g>
            </g>
        </g>
    </g>
</svg>