<?xml version="1.0" encoding="UTF-8"?>
<svg width="32px" height="32px" viewBox="0 0 32 32" version="1.1" xmlns="http://www.w3.org/2000/svg" xmlns:xlink="http://www.w3.org/1999/xlink">
    <!-- Generator: Sketch 53 (72520) - https://sketchapp.com -->
    <title>传染病@4x</title>
    <desc>Created with Sketch.</desc>
    <defs>
        <rect id="path-1" x="0" y="0" width="28" height="28" rx="14"></rect>
        <filter x="-10.7%" y="-10.7%" width="121.4%" height="121.4%" filterUnits="objectBoundingBox" id="filter-2">
            <feMorphology radius="0.5" operator="dilate" in="SourceAlpha" result="shadowSpreadOuter1"></feMorphology>
            <feOffset dx="0" dy="0" in="shadowSpreadOuter1" result="shadowOffsetOuter1"></feOffset>
            <feGaussianBlur stdDeviation="0.5" in="shadowOffsetOuter1" result="shadowBlurOuter1"></feGaussianBlur>
            <feComposite in="shadowBlurOuter1" in2="SourceAlpha" operator="out" result="shadowBlurOuter1"></feComposite>
            <feColorMatrix values="0 0 0 0 0   0 0 0 0 0   0 0 0 0 0  0 0 0 0.26 0" type="matrix" in="shadowBlurOuter1"></feColorMatrix>
        </filter>
    </defs>
    <g id="其他图标" stroke="none" stroke-width="1" fill="none" fill-rule="evenodd">
        <g id="突发事件" transform="translate(-456.000000, -70.000000)">
            <g id="传染病" transform="translate(458.000000, 72.000000)">
                <g id="分组-8">
                    <g id="矩形-copy-5" transform="translate(14.000000, 14.000000) scale(-1, 1) translate(-14.000000, -14.000000) ">
                        <use fill="black" fill-opacity="1" filter="url(#filter-2)" xlink:href="#path-1"></use>
                        <rect stroke="#FFFFFF" stroke-width="1" stroke-linejoin="square" fill="#D90C0C" fill-rule="evenodd" x="0.5" y="0.5" width="27" height="27" rx="13.5"></rect>
                    </g>
                    <path d="M9.47389528,12.8548514 C10.4033749,13.510085 11.6126245,13.8385954 12.2014087,13.8613409 C12.5247201,13.8736885 12.7994535,13.7230806 13.031133,13.4991997 C12.7563995,13.8667024 12.3817482,14.1961875 11.8493404,14.2660488 C10.9975205,14.3776643 9.9109343,13.3240591 9.47389528,12.8548514 L9.47389528,12.8548514 Z M11.7045814,15.6081972 C11.7045814,15.6081972 10.8972778,16.9496958 9.46902124,15.2338709 C9.46902124,15.2338709 8.94603663,13.9814048 8.43215023,13.5922938 C8.51679607,13.4745045 8.61313962,13.3227594 8.6940487,13.1433947 C8.81898662,12.8663866 8.86545248,12.5341395 8.88137435,12.3768705 C8.96861969,12.4888109 9.0615514,12.6015637 9.16195665,12.714479 C9.16195665,12.714479 10.5725041,14.4142196 11.7045814,14.4666968 L11.7045814,15.6081972 Z M8.59965477,11.4904448 L8.59965477,11.7203371 C8.29681435,11.2236723 8.11371287,10.7648626 8.00290967,10.4030463 C8.07114625,10.0811971 8.27634338,9.69874733 8.85229257,9.62547425 L9.46902124,10.6170167 L9.47487009,10.6110054 C9.49062949,10.94309 9.52832207,11.876144 9.46902124,12.1143221 C9.42970397,12.272241 8.59965477,11.4904448 8.59965477,11.4904448 L8.59965477,11.4904448 Z M9.59314682,8.12134516 C10.1314034,7.60144744 10.6774585,7.78243683 11.4561678,7.99656971 C11.917577,8.12345724 12.5247201,8.14262847 13.0373067,8.0703302 C13.0620019,8.08316517 13.0847474,8.09600015 13.1034312,8.10899759 C13.6782431,8.50688181 13.7305578,9.22937717 13.7305578,9.61686344 C13.7305578,9.69582291 13.7391687,9.86641434 13.7495666,10.0862336 C13.4961165,10.0493534 13.000264,9.99297695 12.3255343,9.99297695 C11.4664033,9.99297695 9.9866444,10.3583676 9.57754989,10.4638093 L9.10752986,9.61377655 C9.1444101,9.61475136 9.18129035,9.6155637 9.22060761,9.61865059 C9.22060761,9.61865059 9.05505268,8.64124288 9.59314682,8.12134516 L9.59314682,8.12134516 Z M12.2641213,14.3649918 C13.1645192,14.0200722 13.506027,12.9547693 13.752816,12.5984769 C13.8655688,12.4356839 13.9214578,12.0824784 13.9459905,11.6712718 C14.0200759,11.0105143 13.9464779,10.1869638 13.9407915,10.1255509 C13.9299061,9.8574786 13.9190208,9.64870717 13.9190208,9.55610039 C13.9190208,9.169264 13.8395739,8.45245502 13.3196762,8.01882783 C13.7586648,7.91858505 14.0733654,7.74035761 14.0642672,7.4974679 C14.0356728,6.73711748 11.5908538,6.2495509 10.835215,6.2495509 C9.26203696,6.2495509 7.60600026,6.9566118 7.60600026,8.74522242 C7.60600026,10.0553647 7.61639821,10.0761606 7.97870194,10.8665676 C7.97870194,10.8665676 7.97593998,10.846584 7.97382789,10.8123033 C8.11468768,11.1646964 8.31549818,11.5669673 8.59965477,11.9892217 L8.59965477,11.9895467 C8.60079205,11.9911713 8.60209179,11.992796 8.60322907,11.9944207 C8.6544065,12.0704557 8.7093207,12.1471406 8.76602204,12.2241505 L8.73304103,12.2075788 C8.73304103,12.2075788 8.70639627,12.7313757 8.53807939,13.1044023 C8.45960733,13.2782431 8.37414914,13.4122793 8.29957631,13.512522 C8.27536857,13.5017991 8.25099837,13.4927009 8.22711556,13.4868521 C8.22711556,13.4868521 5.81560249,14.9635241 5.37060254,15.4834218 C4.92544012,16.0033195 4.11602436,16.9222387 4.00440881,19.6011742 C3.94234602,21.0910061 4.52186951,21.5977439 6.61250821,21.5977439 C8.03134158,21.5977439 10.7697403,21.7837698 12.9464871,20.5995403 C14.4559776,19.7782643 14.68522,19.0084908 14.5610945,17.6047669 C14.4402182,16.2392231 13.0269088,14.460848 12.2641213,14.3649918 L12.2641213,14.3649918 Z M20.1499949,9.86820149 L20.1499949,7.37269244 L18.5353876,7.37269244 L18.5353876,9.86820149 L16.2998274,9.86820149 L16.2998274,11.4904448 L18.5353876,11.4904448 L18.5353876,13.9861164 L20.1499949,13.9861164 L20.1499949,11.4904448 L22.3853926,11.4904448 L22.3853926,9.86820149 L20.1499949,9.86820149 Z M19.404754,14.6078815 C17.2111106,14.6078815 15.432573,12.8210581 15.432573,10.6170167 C15.432573,8.41281282 17.2111106,6.62598935 19.404754,6.62598935 C21.5985599,6.62598935 23.3770975,8.41281282 23.3770975,10.6170167 C23.3770975,12.8210581 21.5985599,14.6078815 19.404754,14.6078815 L19.404754,14.6078815 Z M19.404754,6 C16.8668408,6 14.8095081,8.06708083 14.8095081,10.6170167 C14.8095081,13.16679 16.8668408,15.2338709 19.404754,15.2338709 C21.9426672,15.2338709 24,13.16679 24,10.6170167 C24,8.06708083 21.9426672,6 19.404754,6 L19.404754,6 Z" id="Fill-1" fill="#FFFFFF"></path>
                </g>
            </g>
        </g>
    </g>
</svg>