<?xml version="1.0" encoding="UTF-8"?>
<svg width="32px" height="32px" viewBox="0 0 32 32" version="1.1" xmlns="http://www.w3.org/2000/svg" xmlns:xlink="http://www.w3.org/1999/xlink">
    <!-- Generator: Sketch 53 (72520) - https://sketchapp.com -->
    <title>动物疫情@4x</title>
    <desc>Created with Sketch.</desc>
    <defs>
        <rect id="path-1" x="0" y="0" width="28" height="28" rx="14"></rect>
        <filter x="-10.7%" y="-10.7%" width="121.4%" height="121.4%" filterUnits="objectBoundingBox" id="filter-2">
            <feMorphology radius="0.5" operator="dilate" in="SourceAlpha" result="shadowSpreadOuter1"></feMorphology>
            <feOffset dx="0" dy="0" in="shadowSpreadOuter1" result="shadowOffsetOuter1"></feOffset>
            <feGaussianBlur stdDeviation="0.5" in="shadowOffsetOuter1" result="shadowBlurOuter1"></feGaussianBlur>
            <feComposite in="shadowBlurOuter1" in2="SourceAlpha" operator="out" result="shadowBlurOuter1"></feComposite>
            <feColorMatrix values="0 0 0 0 0   0 0 0 0 0   0 0 0 0 0  0 0 0 0.26 0" type="matrix" in="shadowBlurOuter1"></feColorMatrix>
        </filter>
    </defs>
    <g id="其他图标" stroke="none" stroke-width="1" fill="none" fill-rule="evenodd">
        <g id="突发事件" transform="translate(-456.000000, -220.000000)">
            <g id="动物疫情" transform="translate(458.000000, 222.000000)">
                <g id="分组-8">
                    <g id="矩形-copy-5" transform="translate(14.000000, 14.000000) scale(-1, 1) translate(-14.000000, -14.000000) ">
                        <use fill="black" fill-opacity="1" filter="url(#filter-2)" xlink:href="#path-1"></use>
                        <rect stroke="#FFFFFF" stroke-width="1" stroke-linejoin="square" fill="#D90C0C" fill-rule="evenodd" x="0.5" y="0.5" width="27" height="27" rx="13.5"></rect>
                    </g>
                    <path d="M10.9067566,7.16226571 C10.9067566,7.16226571 10.6949125,9.32291548 11.7965018,9.32291548 C12.8982509,9.32291548 13.4490455,9.17470456 13.4490455,7.79779796 C13.4490455,6.42089137 12.3468167,5.05805441 9.88974515,5.00161595 C8.04662169,4.95924714 7.72877562,5.76409477 7.72877562,5.76409477 C7.72877562,5.76409477 10.4830685,5.36167095 10.9067566,7.16226571 L10.9067566,7.16226571 Z M15.7364819,14.9170382 C15.5961053,14.9170382 15.482269,15.0307145 15.482269,15.1712511 C15.482269,15.3116278 15.5961053,15.425464 15.7364819,15.425464 C15.8768586,15.425464 15.9906948,15.3116278 15.9906948,15.1712511 C15.9906948,15.0307145 15.8768586,14.9170382 15.7364819,14.9170382 L15.7364819,14.9170382 Z M9.5084258,11.2295122 C9.22767243,11.2295122 9,11.0587579 9,10.8481929 C9,10.6376278 9.22767243,10.4668735 9.5084258,10.4668735 C9.78933905,10.4668735 10.0168516,10.6376278 10.0168516,10.8481929 C10.0168516,11.0587579 9.78933905,11.2295122 9.5084258,11.2295122 L9.5084258,11.2295122 Z M19.0423688,10.3397671 C19.0423688,10.3397671 18.1778851,10.4160309 16.754133,8.81464956 C15.3303808,7.21310829 13.1948326,5.50988187 13.1948326,5.50988187 L12.6864068,5.50988187 C12.6864068,5.50988187 13.8305247,6.55215476 13.8305247,7.79779796 C13.8305247,9.04344117 13.2456752,9.70423482 12.3050875,9.70423482 C11.3643398,9.70423482 10.3983308,9.34833677 10.3983308,7.03515926 L4.16947527,13.0088426 C4.16947527,13.0088426 3.78815592,13.8985878 4.16947527,14.2799071 C4.55079462,14.6612265 5.21190804,15.7541821 5.56780609,16.0592375 L10.0168516,16.186344 C10.0168516,16.186344 12.0508746,16.0848187 12.4321939,19.1097923 C12.8135133,22.134766 13.1948326,22.9226661 13.1948326,22.9226661 L17.5169315,22.9226661 C17.5169315,22.9226661 17.1859751,21.9520205 17.0083459,19.7451647 C16.8303968,17.5336724 15.3813833,17.7370427 15.355962,17.7116214 C15.3303808,17.6862001 13.576152,17.7116214 13.576152,17.7116214 C13.576152,17.7116214 12.9406197,17.2057537 12.9406197,16.6947698 C12.9406197,16.1100801 13.0423049,16.0848187 13.4490455,15.8050246 C13.855946,15.5253905 14.3389505,15.0425458 14.3389505,15.0425458 L14.466057,14.6612265 C14.466057,14.6612265 14.2163208,14.5315619 14.2118441,14.2799071 C14.2040098,13.8365534 14.5931634,13.7714813 14.5931634,13.7714813 L15.1015892,13.7714813 C15.1015892,13.7714813 14.9744828,13.4918471 15.1015892,13.1359491 C15.2288556,12.780051 15.7881239,12.4495743 16.3728136,12.7546297 C16.3728136,12.7546297 16.6016052,12.0175722 17.1356122,12.1192574 C17.6694593,12.2209425 17.8982509,12.6275233 17.8982509,12.6275233 C17.8982509,12.6275233 17.8728296,12.2463638 18.4066767,12.2463638 C18.9406837,12.2463638 19.0677901,12.6275233 19.1694753,12.8817362 C19.1694753,12.8817362 19.9066927,12.8563149 20.0592204,13.1359491 C20.2117482,13.4155833 20.1863269,13.7714813 20.1863269,13.7714813 C20.1863269,13.7714813 20.6694913,13.8477452 20.5678061,14.1528007 C20.5678061,14.1528007 20.9491254,14.1273794 20.9491254,15.1696523 C20.9491254,15.1696523 21.5846577,14.966282 21.5846577,15.9321311 C21.5846577,15.9321311 21.8642919,15.6018142 22.0930835,16.186344 L24,16.186344 L24,10.4668735 L19.0423688,10.3397671 Z" id="Fill-1" fill="#FFFFFF"></path>
                </g>
            </g>
        </g>
    </g>
</svg>