<?xml version="1.0" encoding="UTF-8"?>
<svg width="32px" height="32px" viewBox="0 0 32 32" version="1.1" xmlns="http://www.w3.org/2000/svg" xmlns:xlink="http://www.w3.org/1999/xlink">
    <!-- Generator: Sketch 53 (72520) - https://sketchapp.com -->
    <title>感染事件@4x</title>
    <desc>Created with Sketch.</desc>
    <defs>
        <rect id="path-1" x="0" y="0" width="28" height="28" rx="14"></rect>
        <filter x="-10.7%" y="-10.7%" width="121.4%" height="121.4%" filterUnits="objectBoundingBox" id="filter-2">
            <feMorphology radius="0.5" operator="dilate" in="SourceAlpha" result="shadowSpreadOuter1"></feMorphology>
            <feOffset dx="0" dy="0" in="shadowSpreadOuter1" result="shadowOffsetOuter1"></feOffset>
            <feGaussianBlur stdDeviation="0.5" in="shadowOffsetOuter1" result="shadowBlurOuter1"></feGaussianBlur>
            <feComposite in="shadowBlurOuter1" in2="SourceAlpha" operator="out" result="shadowBlurOuter1"></feComposite>
            <feColorMatrix values="0 0 0 0 0   0 0 0 0 0   0 0 0 0 0  0 0 0 0.26 0" type="matrix" in="shadowBlurOuter1"></feColorMatrix>
        </filter>
    </defs>
    <g id="其他图标" stroke="none" stroke-width="1" fill="none" fill-rule="evenodd">
        <g id="突发事件" transform="translate(-456.000000, -170.000000)">
            <g id="感染事件" transform="translate(458.000000, 172.000000)">
                <g id="分组-8">
                    <g id="矩形-copy-5" transform="translate(14.000000, 14.000000) scale(-1, 1) translate(-14.000000, -14.000000) ">
                        <use fill="black" fill-opacity="1" filter="url(#filter-2)" xlink:href="#path-1"></use>
                        <rect stroke="#FFFFFF" stroke-width="1" stroke-linejoin="square" fill="#D90C0C" fill-rule="evenodd" x="0.5" y="0.5" width="27" height="27" rx="13.5"></rect>
                    </g>
                    <path d="M15.2151817,18.3721901 C15.1209611,18.0417983 15.0695118,17.6932752 15.0695118,17.3326647 C15.0695118,16.7811335 15.1883722,16.2581164 15.3997486,15.7857739 C15.0870232,16.1025286 14.6529577,16.299028 14.1727119,16.299028 C13.6025845,16.299028 13.0992484,16.0214803 12.7843534,15.5956282 C13.0543077,16.1157008 13.2069512,16.705819 13.2069512,17.3326647 C13.2069512,17.7261285 13.1468236,18.1056451 13.0354016,18.4623815 C11.2751199,18.043348 9.96548518,16.4628292 9.96548518,14.5764035 C9.96548518,14.2408978 10.0073265,13.915155 10.0854304,13.6038243 C11.1348738,13.7910256 12.0344632,14.4079533 12.5940527,15.2675609 C12.5007619,15.0555646 12.4486927,14.8228027 12.4486927,14.5764035 C12.4486927,13.7626665 13.0144809,13.081892 13.774599,12.9018192 C12.7855931,12.7989204 11.9120384,12.3140255 11.2975902,11.6000878 C12.0054841,10.9665786 12.9404062,10.5810181 13.9655196,10.5810181 C15.1001954,10.5810181 16.1234492,11.0535156 16.851489,11.8111543 C16.2534674,12.408246 15.4592563,12.8094582 14.5711346,12.9018192 C15.3304779,13.081892 15.897041,13.7626665 15.897041,14.5764035 C15.897041,14.7445438 15.8711613,14.9067953 15.8269954,15.0602137 C16.3255275,14.3963307 17.0385354,13.9026026 17.8628103,13.677899 C17.9292915,13.9669143 17.9655541,14.2673973 17.9655541,14.5764035 C17.9655541,16.3469131 16.8122821,17.8477784 15.2151817,18.3721901 M9.41364407,21.1210128 C7.31956127,21.1210128 5.62173168,19.4253528 5.62173168,17.3326647 C5.62173168,15.5458834 6.85837645,14.0501322 8.52226804,13.6493849 C8.47453789,13.9399499 8.44865824,14.2379534 8.44865824,14.5420006 C8.44865824,17.0033576 10.0745827,19.0856629 12.3121659,19.7757355 C11.6163595,20.5983057 10.5765241,21.1210128 9.41364407,21.1210128 M14.1727119,5.34480384 C16.2671046,5.34480384 17.9655541,7.04154865 17.9655541,9.13423674 C17.9655541,9.63710795 17.8662196,10.116424 17.6881613,10.5554484 C16.7069038,9.63214898 15.3859565,9.06543094 13.9317366,9.06543094 C12.6530955,9.06543094 11.4776631,9.50383546 10.5450656,10.2365242 C10.4389125,9.88753627 10.3801796,9.51793755 10.3801796,9.13423674 C10.3801796,7.04154865 12.0778542,5.34480384 14.1727119,5.34480384 M23,16.0921457 C23,13.9218186 21.8705931,12.016022 20.1667198,10.9264418 C20.0585521,7.63585099 17.35529,5 14.0344804,5 C10.7775176,5 8.11470216,7.53574165 7.91153909,10.7392405 C6.16458464,11.8204523 5,13.7511988 5,15.9543791 C5,19.3402753 7.74897764,22.0858437 11.139058,22.0858437 C12.1195406,22.0858437 13.0471792,21.8549413 13.8700593,21.4456708 C14.7549267,21.9398638 15.775701,22.2233003 16.8623367,22.2233003 C18.9097742,22.2233003 20.7221251,21.2211221 21.8368101,19.68105 C21.1423984,20.558014 20.0683151,21.1210128 18.8628189,21.1210128 C17.6480246,21.1210128 16.5678975,20.5505755 15.8736408,19.6640035 C17.9423089,18.8804852 19.4134202,16.8831025 19.4134202,14.5420006 C19.4134202,14.210834 19.3824266,13.8872608 19.3260183,13.5723658 C21.2012862,13.8007886 22.6550412,15.3957194 22.6550412,17.3326647 C22.6550412,17.9108503 22.525023,18.4585073 22.292416,18.9491361 C22.743218,18.0958822 23,17.1246976 23,16.0921457" id="Fill-1" fill="#FFFFFF"></path>
                </g>
            </g>
        </g>
    </g>
</svg>