<?xml version="1.0" encoding="UTF-8"?>
<svg width="32px" height="32px" viewBox="0 0 32 32" version="1.1" xmlns="http://www.w3.org/2000/svg" xmlns:xlink="http://www.w3.org/1999/xlink">
    <!-- Generator: Sketch 53 (72520) - https://sketchapp.com -->
    <title>病原微生物、毒菌珠事件@4x</title>
    <desc>Created with Sketch.</desc>
    <defs>
        <rect id="path-1" x="0" y="0" width="28" height="28" rx="14"></rect>
        <filter x="-10.7%" y="-10.7%" width="121.4%" height="121.4%" filterUnits="objectBoundingBox" id="filter-2">
            <feMorphology radius="0.5" operator="dilate" in="SourceAlpha" result="shadowSpreadOuter1"></feMorphology>
            <feOffset dx="0" dy="0" in="shadowSpreadOuter1" result="shadowOffsetOuter1"></feOffset>
            <feGaussianBlur stdDeviation="0.5" in="shadowOffsetOuter1" result="shadowBlurOuter1"></feGaussianBlur>
            <feComposite in="shadowBlurOuter1" in2="SourceAlpha" operator="out" result="shadowBlurOuter1"></feComposite>
            <feColorMatrix values="0 0 0 0 0   0 0 0 0 0   0 0 0 0 0  0 0 0 0.26 0" type="matrix" in="shadowBlurOuter1"></feColorMatrix>
        </filter>
    </defs>
    <g id="其他图标" stroke="none" stroke-width="1" fill="none" fill-rule="evenodd">
        <g id="突发事件" transform="translate(-456.000000, -271.000000)">
            <g id="病原微生物、毒菌珠事件" transform="translate(458.000000, 273.000000)">
                <g id="矩形-copy-5" transform="translate(14.000000, 14.000000) scale(-1, 1) translate(-14.000000, -14.000000) ">
                    <use fill="black" fill-opacity="1" filter="url(#filter-2)" xlink:href="#path-1"></use>
                    <rect stroke="#FFFFFF" stroke-width="1" stroke-linejoin="square" fill="#D90C0C" fill-rule="evenodd" x="0.5" y="0.5" width="27" height="27" rx="13.5"></rect>
                </g>
                <path d="M14.108128,13.2139582 C14.6630439,13.2139585 15.1129436,13.6637093 15.1131274,14.2186252 C15.1133113,14.7735411 14.6637098,15.22359 14.108794,15.223958 C13.5538782,15.224326 13.1036801,14.7748739 13.103128,14.2199582 C13.1015218,13.9528348 13.2068574,13.6961726 13.3956516,13.5071906 C13.5844458,13.3182085 13.8410031,13.2126177 14.108128,13.2139582 L14.108128,13.2139582 Z M14.108128,11.8739582 C15.0570873,11.8735537 15.9128309,12.4448817 16.2762622,13.3214898 C16.6396935,14.1980978 16.4392267,15.2073182 15.7683541,15.8784768 C15.0974815,16.5496355 14.0883467,16.7505327 13.2115838,16.3874751 C12.3348209,16.0244176 11.7631281,15.1689176 11.763128,14.2199582 C11.7631279,12.9246886 12.8128585,11.8745103 14.108128,11.8739582 L14.108128,11.8739582 Z M16.653128,9.00695822 C15.8607054,8.61964144 14.9901408,8.41884717 14.108128,8.41995822 C13.8459337,8.41997825 13.5840281,8.43734954 13.324128,8.47195822 L12.946128,6.53995822 C13.5504188,6.23938359 13.8368567,5.53629376 13.6146501,4.89900517 C13.3924435,4.26171658 12.73095,3.88914673 12.0707794,4.02945822 C11.4106088,4.16976971 10.9578208,4.77916696 11.01401,5.4517406 C11.0701992,6.12431425 11.6178271,6.65013321 12.292128,6.67895822 L12.667128,8.59995822 C11.6944784,8.84940457 10.8033524,9.34734617 10.081128,10.0449582 L9.31212798,9.33495822 C9.40862435,9.00071043 9.26259535,8.64398314 8.95941975,8.47334408 C8.65624414,8.30270502 8.27552305,8.3629568 8.03985265,8.61887202 C7.80418225,8.87478723 7.77543964,9.25917335 7.97042976,9.54729136 C8.16541988,9.83540937 8.53294655,9.95161165 8.85812798,9.82795822 L9.62812798,10.5389582 C9.07353078,11.2111777 8.67831899,12.0002338 8.47212798,12.8469582 L7.82212798,12.7279582 C7.7453059,12.2471591 7.33336123,11.8915739 6.84649762,11.885807 C6.35963401,11.8800401 5.9393823,12.225768 5.85119327,12.7046126 C5.76300424,13.1834571 6.03251436,13.6562187 6.48948835,13.8242789 C6.94646233,13.992339 7.45805823,13.8068427 7.70112798,13.3849582 L8.35212798,13.5039582 C8.32268177,13.7414971 8.30765424,13.9806018 8.30712798,14.2199582 C8.30450726,15.1867443 8.54523319,16.1386435 9.00712798,16.9879582 L6.26712798,18.6879582 C5.8074126,18.2475374 5.10127721,18.1913771 4.57772627,18.5535968 C4.05417533,18.9158166 3.85776226,19.5964068 4.10781558,20.1818827 C4.3578689,20.7673587 4.98534841,21.0960693 5.6090361,20.9683102 C6.2327238,20.840551 6.68041832,20.2915968 6.68012798,19.6549582 C6.67998982,19.5193187 6.6594259,19.3844734 6.61912798,19.2549582 L9.35912798,17.5549582 C10.0144628,18.4855931 10.9280914,19.2038414 11.987128,19.6209582 L11.287128,21.7579582 C10.7960493,21.7682732 10.3839041,22.1310486 10.3113526,22.6168479 C10.2388012,23.1026472 10.5269698,23.5700106 10.9936068,23.7233552 C11.4602438,23.8766997 11.9694694,23.6713731 12.1992248,23.2372336 C12.4289803,22.8030941 12.3123633,22.2665588 11.923128,21.9669582 L12.623128,19.8279582 C13.1066772,19.9561302 13.6048807,20.0206748 14.105128,20.0199582 C14.3276677,20.0198876 14.5500245,20.0072006 14.771128,19.9819582 L14.825128,20.2879582 C14.5420788,20.4944692 14.438584,20.868749 14.5753274,21.1913399 C14.7120708,21.5139308 15.053015,21.6998168 15.3982484,21.6400043 C15.7434818,21.5801919 16.0020213,21.2904439 16.0222731,20.9406533 C16.0425249,20.5908626 15.8191519,20.2732134 15.483128,20.1739582 L15.429128,19.8689582 C16.3918745,19.6437249 17.2808256,19.1754935 18.011128,18.5089582 L19.606128,20.0689582 C19.2685379,20.6541359 19.4189622,21.3990711 19.9571704,21.8073994 C20.4953785,22.2157277 21.2532989,22.1599364 21.7259148,21.6772002 C22.1985307,21.1944641 22.2382537,20.4355319 21.8186156,19.9060946 C21.3989775,19.3766573 20.6510228,19.2420475 20.073128,19.5919582 L18.479128,18.0299582 C19.3254786,17.0618783 19.8242026,15.8388254 19.896128,14.5549582 L21.954128,14.5549582 C22.1173074,15.0170159 22.5896712,15.2942796 23.072654,15.2115002 C23.5556368,15.1287209 23.9087117,14.7099835 23.9087117,14.2199582 C23.9087117,13.7299329 23.5556368,13.3111956 23.072654,13.2284162 C22.5896712,13.1456368 22.1173074,13.4229006 21.954128,13.8849582 L19.896128,13.8849582 C19.824585,12.6139733 19.3352383,11.4022075 18.504128,10.4379582 L21.652128,7.39895822 C22.0896938,7.61853107 22.6218118,7.49086258 22.9121163,7.09665532 C23.2024208,6.70244806 23.1664355,6.1564134 22.8269075,5.80371406 C22.4873795,5.45101472 21.943109,5.39428357 21.5381435,5.66938186 C21.1331781,5.94448014 20.9853596,6.47135631 21.188128,6.91695822 L18.040128,9.95695822 C17.792323,9.72673999 17.5246098,9.51892767 17.240128,9.33595822 L18.096128,7.81295822 C18.1536195,7.82260315 18.2118339,7.82728706 18.270128,7.82695822 C18.7433909,7.8266218 19.1522909,7.49614732 19.2519008,7.03348569 C19.3515108,6.57082406 19.114836,6.10135884 18.6836423,5.90629501 C18.2524486,5.71123118 17.7435915,5.84343199 17.4618714,6.22371047 C17.1801513,6.60398896 17.2019157,7.12928779 17.514128,7.48495822 L16.653128,9.00695822 Z" id="路径_5" fill="#FFFFFF" fill-rule="nonzero"></path>
            </g>
        </g>
    </g>
</svg>