<?xml version="1.0" encoding="UTF-8"?>
<svg width="32px" height="32px" viewBox="0 0 32 32" version="1.1" xmlns="http://www.w3.org/2000/svg" xmlns:xlink="http://www.w3.org/1999/xlink">
    <!-- Generator: Sketch 53 (72520) - https://sketchapp.com -->
    <title>食药安全@4x</title>
    <desc>Created with Sketch.</desc>
    <defs>
        <rect id="path-1" x="0" y="0" width="28" height="28" rx="14"></rect>
        <filter x="-10.7%" y="-10.7%" width="121.4%" height="121.4%" filterUnits="objectBoundingBox" id="filter-2">
            <feMorphology radius="0.5" operator="dilate" in="SourceAlpha" result="shadowSpreadOuter1"></feMorphology>
            <feOffset dx="0" dy="0" in="shadowSpreadOuter1" result="shadowOffsetOuter1"></feOffset>
            <feGaussianBlur stdDeviation="0.5" in="shadowOffsetOuter1" result="shadowBlurOuter1"></feGaussianBlur>
            <feComposite in="shadowBlurOuter1" in2="SourceAlpha" operator="out" result="shadowBlurOuter1"></feComposite>
            <feColorMatrix values="0 0 0 0 0   0 0 0 0 0   0 0 0 0 0  0 0 0 0.26 0" type="matrix" in="shadowBlurOuter1"></feColorMatrix>
        </filter>
    </defs>
    <g id="其他图标" stroke="none" stroke-width="1" fill="none" fill-rule="evenodd">
        <g id="突发事件" transform="translate(-456.000000, -120.000000)">
            <g id="食药安全" transform="translate(458.000000, 122.000000)">
                <g id="矩形-copy-5" transform="translate(14.000000, 14.000000) scale(-1, 1) translate(-14.000000, -14.000000) ">
                    <use fill="black" fill-opacity="1" filter="url(#filter-2)" xlink:href="#path-1"></use>
                    <rect stroke="#FFFFFF" stroke-width="1" stroke-linejoin="square" fill="#D90C0C" fill-rule="evenodd" x="0.5" y="0.5" width="27" height="27" rx="13.5"></rect>
                </g>
                <path d="M4,19.7177318 C4.02075315,20.8908863 4.92607167,20.859155 6.18073485,20.8809609 L21.2742894,20.8084752 C22.3743566,20.691626 22.896945,20.9269787 22.9616106,19.6444943 L4,19.7177318 Z M8.04247942,18.2277034 C7.5624075,19.1979368 6.17902885,19.8882322 5.15170695,19.3863519 C4.12485209,18.8852065 3.82740685,17.3746483 4.30754539,16.404682 C4.95265912,15.0970154 5.45901214,14.0728353 6.10466024,12.7650355 C6.10566165,12.7656372 9.80267309,14.5697341 9.80541014,14.5716058 L8.04247942,18.2277034 Z M11.5832773,11.058507 C11.1648606,11.9049579 10.7907791,12.6628783 10.372295,13.5101973 C10.2690757,13.4593077 6.69671582,11.7157979 6.63789536,11.6870427 L7.86653353,9.1968947 C8.34660545,8.22666122 9.65468586,7.68965934 10.6819411,8.19127249 C11.9693033,8.62746612 12.0626143,10.0887406 11.5832773,11.058507 Z M13.1594363,15.4424868 C12.2617777,15.3232794 11.6192106,14.9045093 11.5393272,13.8238189 C11.6012986,12.7089517 12.2074241,12.2405633 13.1516127,12.1736507 C13.616501,12.1122969 14.038977,12.2856521 14.418629,12.6945397 C14.7037797,12.3560648 15.0589313,12.1573858 15.5164078,12.1619152 C15.9862373,12.1594446 16.4031545,12.2487987 16.7272174,12.5988032 C16.7558355,12.6160975 16.792483,12.62598 16.8311894,12.5889207 C17.1466052,12.2883286 17.5740224,12.1781801 17.9349389,12.1952686 C18.3763563,12.2207983 18.7247137,12.3470058 18.9546873,12.6016856 C19.3038682,12.2928581 19.6629316,12.1411208 20.0362012,12.2197689 C20.5068543,12.1594446 20.8951534,12.2928581 21.201922,12.6195976 C21.5846622,12.3027406 21.9939616,12.1195029 22.4514381,12.1736507 C23.2675662,12.2115335 23.8395147,12.6169211 23.9949579,13.6496402 C24.0532234,14.6065937 23.6085118,15.2312488 22.5566453,15.4560752 C22.0703449,15.501164 21.6283098,15.3982215 21.257511,15.0570701 C20.9744191,15.2538961 20.6198851,15.4128394 20.1774383,15.4741931 C19.7253148,15.4560752 19.3388687,15.3278089 19.0469237,15.0373051 C18.8157149,15.2656316 18.3928271,15.4326043 17.8641144,15.4344573 C17.3374606,15.4379573 16.966044,15.3000144 16.7362764,15.0317462 C16.4842732,15.3315148 16.1060624,15.4515457 15.64138,15.4488692 C15.1476677,15.4163394 14.7490744,15.2384548 14.3770402,14.9343626 C14.0509183,15.2368077 13.6070303,15.4118099 13.1594363,15.4424868 Z M23.7767198,11.4297882 L11.8611255,11.4297882 C11.7968894,9.70653073 12.6667535,8.74854783 14.4715414,8.55728067 L21.3841302,8.55728067 C22.8903849,8.71704743 23.6881893,9.67482444 23.7767198,11.4297882 Z M13.7542381,18.9793852 C12.089452,18.7529117 11.7909187,17.953872 11.8555666,16.2306146 L23.8026613,16.2170262 C23.713719,17.9719899 23.4324801,18.7673236 21.9260196,18.9270904 L13.7542381,18.9793852 Z" id="Fill-1" fill="#FFFFFF"></path>
            </g>
        </g>
    </g>
</svg>