<?xml version="1.0" encoding="UTF-8"?>
<svg width="32px" height="32px" viewBox="0 0 32 32" version="1.1" xmlns="http://www.w3.org/2000/svg" xmlns:xlink="http://www.w3.org/1999/xlink">
    <!-- Generator: Sketch 53 (72520) - https://sketchapp.com -->
    <title>专家</title>
    <desc>Created with Sketch.</desc>
    <defs>
        <rect id="path-1" x="0" y="0" width="28" height="28" rx="14"></rect>
        <filter x="-10.7%" y="-10.7%" width="121.4%" height="121.4%" filterUnits="objectBoundingBox" id="filter-2">
            <feMorphology radius="0.5" operator="dilate" in="SourceAlpha" result="shadowSpreadOuter1"></feMorphology>
            <feOffset dx="0" dy="0" in="shadowSpreadOuter1" result="shadowOffsetOuter1"></feOffset>
            <feGaussianBlur stdDeviation="0.5" in="shadowOffsetOuter1" result="shadowBlurOuter1"></feGaussianBlur>
            <feComposite in="shadowBlurOuter1" in2="SourceAlpha" operator="out" result="shadowBlurOuter1"></feComposite>
            <feColorMatrix values="0 0 0 0 0   0 0 0 0 0   0 0 0 0 0  0 0 0 0.26 0" type="matrix" in="shadowBlurOuter1"></feColorMatrix>
        </filter>
    </defs>
    <g id="其他图标" stroke="none" stroke-width="1" fill="none" fill-rule="evenodd">
        <g id="应急保障资源" transform="translate(-358.000000, -468.000000)">
            <g id="专家" transform="translate(360.000000, 470.000000)">
                <g id="矩形">
                    <use fill="black" fill-opacity="1" filter="url(#filter-2)" xlink:href="#path-1"></use>
                    <rect stroke="#FFFFFF" stroke-width="1" stroke-linejoin="square" fill="#38AC83" fill-rule="evenodd" x="0.5" y="0.5" width="27" height="27" rx="13.5"></rect>
                </g>
                <path d="M15.0004608,18.4323651 C15.0411196,18.353527 15.0436608,18.2721992 15.0106255,18.1875519 C14.9775901,18.1037344 14.9301548,18.0224066 14.8640841,17.9435685 C14.7988604,17.8672199 14.722625,17.780083 14.6319896,17.6912863 L13.7442706,17.6912863 C13.6536352,17.7825726 13.5824821,17.8672199 13.5325056,17.9435685 C13.4816819,18.0091286 13.4393289,18.0804979 13.4062936,18.160166 C13.3732583,18.2390041 13.3757994,18.3103734 13.4164583,18.373444 C13.5070938,18.5543568 13.5858703,18.7153527 13.6485528,18.8522822 C13.7137764,18.9900415 13.7823883,19.0970954 13.8603178,19.1759336 C13.834906,19.2937759 13.7950942,19.4589212 13.7442706,19.673029 C13.693447,19.8896266 13.6460116,20.1087137 13.6002704,20.3377593 C13.5553762,20.5643154 13.5172585,20.7809129 13.4842231,20.9825726 C13.454576,21.1834025 13.4367878,21.3360996 13.4367878,21.4406639 C13.4367878,21.5070539 13.4638937,21.5834025 13.524882,21.6755187 C13.5824821,21.766805 13.651094,21.8614108 13.7264823,21.9576763 C13.8052589,22.0547718 13.8857296,22.1360996 13.9687415,22.2024896 C14.0517534,22.2688797 14.1279888,22.2995851 14.1906713,22.2995851 C14.256742,22.2995851 14.3321303,22.26639 14.4227657,22.2024896 C14.5134012,22.1360996 14.5989543,22.0622407 14.6828132,21.9784232 C14.7658251,21.8937759 14.8361311,21.8024896 14.8945782,21.7053942 C14.9521783,21.6091286 14.9826725,21.5278008 14.9826725,21.4614108 C14.9826725,21.3825726 14.962343,21.2497925 14.9250724,21.0614108 C14.8844135,20.873029 14.8437546,20.6614108 14.7988604,20.4273859 C14.7531192,20.1925311 14.7056838,19.9659751 14.652319,19.7443983 C14.6023425,19.5228216 14.5566012,19.346888 14.5159424,19.2165975 C14.594719,19.153527 14.6675661,19.0589212 14.7378721,18.9344398 C14.8115663,18.806639 14.8996606,18.6390041 15.0004608,18.4323651 M21.2077174,19.0771784 C21.258541,19.2580913 21.3034351,19.4896266 21.3415529,19.7701245 C21.3822117,20.0497925 21.4,20.3327801 21.4,20.6207469 C21.4,20.9062241 21.3771294,21.1759336 21.3313881,21.4307054 C21.2864939,21.6854772 21.2178821,21.8763485 21.1297878,22.006639 C21.0645642,22.0979253 20.9002345,22.1850622 20.6351047,22.2688797 C20.3708219,22.3526971 20.0404685,22.4315353 19.638962,22.5029046 C19.2408437,22.5742739 18.7944431,22.6431535 18.3048423,22.7070539 C17.8152415,22.773444 17.3264879,22.826556 16.8368871,22.8721992 C16.3472864,22.9178423 15.8703915,22.9510373 15.4062026,22.9692946 C14.9420136,22.9900415 14.5362718,23 14.1881301,23 C13.8399884,23 13.4367878,22.986722 12.9802224,22.9593361 C12.5236569,22.93361 12.0518445,22.9004149 11.5698672,22.8622407 C11.0861959,22.8240664 10.6067599,22.7784232 10.129865,22.726971 C9.65297018,22.6738589 9.21673422,22.6174274 8.82539244,22.5518672 C8.43235654,22.4854772 8.09692073,22.4240664 7.81908501,22.3651452 C7.54209635,22.3070539 7.37268432,22.2456432 7.30746069,22.1792531 C7.19141346,22.0879668 7.10077802,21.7975104 7.03470733,21.3112033 C6.9694837,20.8240664 6.99658963,20.1875519 7.11263686,19.4082988 C7.17870755,18.9651452 7.35489606,18.6282158 7.6428965,18.3941909 C7.93259107,18.160166 8.26802688,17.973444 8.64920393,17.8390041 C9.02783981,17.7037344 9.42849925,17.5817427 9.84694695,17.4771784 C10.2662417,17.3726141 10.6296305,17.2174274 10.9396545,17.0082988 C11.1844549,16.853112 11.3733493,16.7029046 11.509726,16.560166 C11.6435615,16.4174274 11.7418204,16.2746888 11.7994205,16.1319502 C11.8578677,15.9892116 11.8875148,15.8390041 11.8875148,15.6838174 C11.8875148,15.5286307 11.8798913,15.3526971 11.8680324,15.1568465 C11.8426206,14.8713693 11.749444,14.6497925 11.5876555,14.4946058 C11.425867,14.3385892 11.2496785,14.1759336 11.0557017,14.0074689 C10.9523604,13.9286307 10.8634191,13.8141079 10.7956543,13.66639 C10.7253483,13.5161826 10.6567364,13.3634855 10.594054,13.2074689 C10.5279833,13.039834 10.4703832,12.8489627 10.4195596,12.6423237 C10.3941478,12.6165975 10.354336,12.5709544 10.3035124,12.5045643 C10.2662417,12.4381743 10.2205005,12.3518672 10.1705239,12.239834 C10.1197003,12.1302905 10.0621002,11.9701245 9.99602953,11.7609959 C9.9308059,11.5518672 9.89014702,11.3659751 9.86981757,11.2058091 C9.84948813,11.0423237 9.85202931,10.9020747 9.87998229,10.7850622 C9.8926882,10.6423237 9.92572354,10.5178423 9.97570009,10.413278 C9.97570009,9.95767635 10.0011119,9.50124481 10.0544767,9.04564315 C10.1044532,8.66804979 10.1900063,8.25809129 10.3035124,7.81493776 C10.4195596,7.37178423 10.6067599,6.97676349 10.8659603,6.62323651 C11.0980548,6.29709544 11.3479375,6.02655602 11.6206909,5.81327801 C11.890056,5.59917012 12.1704329,5.43070539 12.4626686,5.31618257 C12.7532102,5.19917012 13.045446,5.11701245 13.34107,5.07136929 C13.6358469,5.02323651 13.918765,5 14.1906713,5 C14.4862953,5.02572614 14.7277074,5.06141079 14.9149077,5.10705394 C15.1012609,5.1526971 15.2528847,5.20912863 15.3689319,5.27302905 C15.4849791,5.33941909 15.5857793,5.41576763 15.6687912,5.50705394 C15.7518031,5.59917012 15.8407444,5.69045643 15.9313798,5.78008299 L16.299851,5.78008299 C16.4150512,5.78008299 16.5294043,5.79502075 16.637828,5.82821577 C16.7462517,5.86141079 16.8572165,5.92282158 16.9656402,6.01410788 C17.0740639,6.10622407 17.1951935,6.23568465 17.3230996,6.40414938 C17.6212648,6.793361 17.8381122,7.22157676 17.9795712,7.68298755 C18.1210303,8.14356846 18.2243716,8.58423237 18.2895952,8.99917012 C18.3548188,9.4813278 18.3929366,9.95767635 18.4056425,10.4232365 C18.4310543,10.4896266 18.4513837,10.5659751 18.4640896,10.6580913 C18.4759484,10.7493776 18.4861132,10.8589212 18.4937367,10.9892116 C18.4988191,11.1186722 18.4911955,11.2821577 18.4640896,11.4755187 C18.4386778,11.7352697 18.3980189,11.9419087 18.3480424,12.0921162 C18.2972188,12.2423237 18.2396187,12.3543568 18.173548,12.433195 C18.1083244,12.5253112 18.0397125,12.5892116 17.961783,12.6298755 C17.9109593,12.8381743 17.8533593,13.026556 17.7872886,13.1950207 C17.7220649,13.3502075 17.6568413,13.5037344 17.5856883,13.6539419 C17.5153823,13.8041494 17.427288,13.9161826 17.3264879,13.9950207 C17.1062522,14.1759336 16.9275225,14.3286307 16.7835223,14.4539419 C16.6420633,14.5759336 16.5438043,14.7875519 16.4938278,15.0879668 C16.4531689,15.2713693 16.4430041,15.4522822 16.4531689,15.6356846 C16.4658748,15.8190871 16.5141572,16.0049793 16.5997103,16.1908714 C16.6827222,16.3792531 16.8190988,16.560166 17.0054521,16.7286307 C17.1926524,16.8987552 17.4543939,17.046473 17.7906768,17.1767635 C18.0879949,17.2937759 18.413266,17.4008299 18.7664901,17.5004149 C19.1197141,17.5966805 19.4627735,17.7087137 19.7905858,17.8315353 C20.118398,17.9560166 20.413175,18.1136929 20.6706812,18.3103734 C20.9231051,18.5087137 21.1018348,18.7634855 21.2077174,19.0771784" id="Fill-1" fill="#FFFFFF"></path>
            </g>
        </g>
    </g>
</svg>