<?xml version="1.0" encoding="UTF-8"?>
<svg width="32px" height="32px" viewBox="0 0 32 32" version="1.1" xmlns="http://www.w3.org/2000/svg" xmlns:xlink="http://www.w3.org/1999/xlink">
    <!-- Generator: Sketch 53 (72520) - https://sketchapp.com -->
    <title>人防工事</title>
    <desc>Created with Sketch.</desc>
    <defs>
        <rect id="path-1" x="0" y="0" width="28" height="28" rx="14"></rect>
        <filter x="-10.7%" y="-10.7%" width="121.4%" height="121.4%" filterUnits="objectBoundingBox" id="filter-2">
            <feMorphology radius="0.5" operator="dilate" in="SourceAlpha" result="shadowSpreadOuter1"></feMorphology>
            <feOffset dx="0" dy="0" in="shadowSpreadOuter1" result="shadowOffsetOuter1"></feOffset>
            <feGaussianBlur stdDeviation="0.5" in="shadowOffsetOuter1" result="shadowBlurOuter1"></feGaussianBlur>
            <feComposite in="shadowBlurOuter1" in2="SourceAlpha" operator="out" result="shadowBlurOuter1"></feComposite>
            <feColorMatrix values="0 0 0 0 0   0 0 0 0 0   0 0 0 0 0  0 0 0 0.26 0" type="matrix" in="shadowBlurOuter1"></feColorMatrix>
        </filter>
    </defs>
    <g id="其他图标" stroke="none" stroke-width="1" fill="none" fill-rule="evenodd">
        <g id="玉董" transform="translate(-382.000000, -213.000000)">
            <g id="人防工事" transform="translate(384.000000, 215.000000)">
                <g id="矩形">
                    <use fill="black" fill-opacity="1" filter="url(#filter-2)" xlink:href="#path-1"></use>
                    <rect stroke="#FFFFFF" stroke-width="1" stroke-linejoin="square" fill="#68AE05" fill-rule="evenodd" x="0.5" y="0.5" width="27" height="27" rx="13.5"></rect>
                </g>
                <path d="M20.825,20.377069 L20.825,9.68406898 C20.8207667,8.17076811 20.2149288,6.72126442 19.1410208,5.65504727 C18.0671127,4.58883012 16.6132922,3.99342575 15.1,4.00006898 L13.584,4.00006898 C12.0701893,3.99262671 10.6155969,4.58767784 9.54103892,5.65398153 C8.46648095,6.72028521 7.86023105,8.17024585 7.856,9.68406898 L7.856,20.420069 L6,20.420069 L6,21.600069 L22.425,21.600069 L22.425,20.420069 L20.825,20.420069 L20.825,20.377069 Z M15.725,6.35706898 C16.0791213,6.35520286 16.4186782,6.49788174 16.665184,6.75212627 C16.9116899,7.0063708 17.0438079,7.35017441 17.031,7.70406898 C17.0379563,8.05631668 16.9039139,8.39674878 16.6586679,8.64969391 C16.4134219,8.90263905 16.0772944,9.04713709 15.725,9.05106898 C15.001256,9.02317588 14.4289134,8.42835031 14.4289134,7.70406898 C14.4289134,6.97978764 15.001256,6.38496208 15.725,6.35706898 L15.725,6.35706898 Z M10.04,16.082069 L11.725,16.082069 C12.525,16.082069 12.483,14.861069 12.483,14.146069 C12.5884521,13.0770226 12.8436138,12.0280993 13.241,11.030069 L10.967,12.587069 C10.293,13.050069 9.704,12.208069 10.335,11.703069 L12.82,9.85006898 C13.1264082,9.56533957 13.5410358,9.4271304 13.957,9.47106898 L14.715,9.47106898 C15.1211089,9.49326317 15.5137963,9.62415897 15.852,9.85006898 L18.295,11.618069 C18.969,12.124069 18.337,12.965069 17.748,12.544069 L16.148,11.449069 C16.148,11.449069 15.095,13.765069 15.474,14.860069 C15.4782936,14.891953 15.4930689,14.9215037 15.516,14.944069 L17.158,19.449069 C17.2517972,19.6336337 17.2401036,19.8542012 17.1273173,20.0278137 C17.014531,20.2014262 16.8177555,20.3017564 16.611,20.291069 C16.349532,20.2764552 16.1198576,20.112569 16.021,19.870069 L13.96,14.900069 C13.96,14.900069 13.581,17.215069 12.06,17.215069 L9.955,17.215069 C9.407,17.215069 9.407,16.625069 9.407,16.625069 C9.43512932,16.3018533 9.71509191,16.0595439 10.039,16.078069 L10.04,16.082069 Z" id="路径_46" fill="#FFFFFF" fill-rule="nonzero"></path>
            </g>
        </g>
    </g>
</svg>