<?xml version="1.0" encoding="UTF-8"?>
<svg width="32px" height="32px" viewBox="0 0 32 32" version="1.1" xmlns="http://www.w3.org/2000/svg" xmlns:xlink="http://www.w3.org/1999/xlink">
    <!-- Generator: Sketch 53 (72520) - https://sketchapp.com -->
    <title>公共聚集场所</title>
    <desc>Created with Sketch.</desc>
    <defs>
        <rect id="path-1" x="0" y="0" width="28" height="28" rx="14"></rect>
        <filter x="-10.7%" y="-10.7%" width="121.4%" height="121.4%" filterUnits="objectBoundingBox" id="filter-2">
            <feMorphology radius="0.5" operator="dilate" in="SourceAlpha" result="shadowSpreadOuter1"></feMorphology>
            <feOffset dx="0" dy="0" in="shadowSpreadOuter1" result="shadowOffsetOuter1"></feOffset>
            <feGaussianBlur stdDeviation="0.5" in="shadowOffsetOuter1" result="shadowBlurOuter1"></feGaussianBlur>
            <feComposite in="shadowBlurOuter1" in2="SourceAlpha" operator="out" result="shadowBlurOuter1"></feComposite>
            <feColorMatrix values="0 0 0 0 0   0 0 0 0 0   0 0 0 0 0  0 0 0 0.26 0" type="matrix" in="shadowBlurOuter1"></feColorMatrix>
        </filter>
    </defs>
    <g id="其他图标" stroke="none" stroke-width="1" fill="none" fill-rule="evenodd">
        <g id="玉董" transform="translate(-1228.000000, -347.000000)">
            <g id="公共聚集场所" transform="translate(1230.000000, 349.000000)">
                <g id="矩形">
                    <use fill="black" fill-opacity="1" filter="url(#filter-2)" xlink:href="#path-1"></use>
                    <rect stroke="#FFFFFF" stroke-width="1" stroke-linejoin="square" fill="#237FD3" fill-rule="evenodd" x="0.5" y="0.5" width="27" height="27" rx="13.5"></rect>
                </g>
                <path d="M9.55681557,19.6017105 C9.53942364,19.5487938 9.52603437,19.4767613 9.52549789,19.4283439 C9.5203867,18.5764007 9.51690179,17.7251546 9.52480091,16.8732114 C9.52735651,16.5298321 9.7603805,16.2872827 10.1156085,16.2807775 C10.9327026,16.2666056 11.7502614,16.27404 12.5673555,16.2817068 C12.645882,16.2817068 12.7629748,16.3260813 12.7966622,16.386951 C12.9360584,16.642743 13.0505957,16.912707 13.197891,17.2263485 C12.9864734,17.2263485 12.8038644,17.2186817 12.6221846,17.2284394 C12.194006,17.2505105 11.8687481,17.5248887 11.8325051,17.9474915 C11.7920802,18.4272468 11.7865044,18.9114163 11.7946358,19.3937272 C11.7981207,19.6367412 11.7223821,19.7099242 11.480762,19.7117829 C10.7561341,19.7150354 10.7552048,19.7245608 10.7545078,19.0173574 C10.7535785,18.61427 10.7586897,18.2118797 10.7535785,17.8087923 C10.7510229,17.548586 10.7449824,17.548586 10.3999768,17.5873846 C10.3999768,18.1421816 10.405088,18.7041806 10.3964919,19.2654827 C10.3934716,19.4053435 10.36536,19.6569537 10.3142481,19.6655498 C10.0823857,19.7082979 9.83611911,19.6922674 9.59798392,19.6704286 C9.58443139,19.6689555 9.56955045,19.6404576 9.55681557,19.6017105 L9.55681557,19.6231269 L9.55681557,19.6017105 Z M13.4327736,21.6111259 L12.7520554,21.6111259 L13.4327736,21.6111259 Z M22.6552267,21.6020651 C22.8004311,21.6020651 22.9184532,21.692905 23,21.8471701 L23,22.5824851 C22.927514,22.7276895 22.8004311,22.818297 22.6642875,22.818297 L5.33594486,22.818297 C5.19074048,22.818297 5.07271836,22.7002749 5,22.5188275 L5,21.9105954 C5.0636576,21.729148 5.19074048,21.6111259 5.33594486,21.6111259 L6.9153039,21.6111259 C6.89718239,21.5839436 6.88812164,21.5477006 6.88812164,21.5112253 L6.88812164,12.7517999 C6.88812164,12.624717 6.98802225,12.5248164 7.11510513,12.5248164 L7.9138454,12.5248164 C8.04092828,12.5248164 8.14082889,12.624717 8.14082889,12.7517999 L8.14082889,21.5021645 C8.14082889,21.5384075 8.13176814,21.5748829 8.11364663,21.6020651 L12.7520554,21.6020651 L12.3889283,21.6020651 L19.9411825,21.6020651 C19.9321218,21.5748829 19.9228287,21.5477006 19.9228287,21.5112253 L19.9228287,12.7517999 C19.9228287,12.624717 20.0227293,12.5248164 20.1498122,12.5248164 L20.9485525,12.5248164 C21.0756353,12.5248164 21.175536,12.624717 21.175536,12.7517999 L21.175536,21.5112253 C21.175536,21.5477006 21.1664752,21.5748829 21.1574145,21.6020651 L22.6552267,21.6020651 Z M15.8849155,18.1080759 C15.9009461,18.8907857 15.8874711,19.6737277 15.890956,20.4573667 C15.8918853,20.6727338 15.782924,20.7359268 15.5877693,20.7273307 C15.4016753,20.7187346 15.2023388,20.7449875 15.2023388,20.4636395 C15.2030357,19.9343986 15.1953689,19.4042284 15.1995508,18.8747551 C15.2014095,18.6668224 15.1500652,18.5378809 14.8791719,18.6047911 C14.8791719,19.1818914 14.8598887,19.7559714 14.8866063,20.3284252 C14.9024046,20.6618145 14.7743924,20.7494018 14.470044,20.7317449 C14.1366547,20.7122294 13.8014069,20.7157143 13.4680176,20.7298863 C13.2166398,20.7394117 13.1204564,20.6490365 13.1264969,20.3904565 C13.1406688,19.7931438 13.1309111,19.1955987 13.1309111,18.5927101 L12.7763801,18.5927101 C12.7763801,19.1930431 12.7728952,19.7780425 12.7780064,20.3637389 C12.779865,20.5809647 12.7629051,20.7368561 12.4699408,20.7368561 C12.1948656,20.7359268 12.1156421,20.6441576 12.1198239,20.3762846 C12.1332989,19.6281916 12.1156421,18.8791693 12.1181977,18.130844 C12.1198239,17.7872323 12.3528479,17.530511 12.6941363,17.5251675 C13.5576958,17.5109955 14.4212553,17.5109955 15.2848148,17.5219149 C15.6381842,17.5260968 15.8779457,17.7554035 15.8849155,18.1080759 Z M13.9682409,6.20717116 L7.40546743,11.1724641 L20.558429,11.1724641 L14.0047162,6.20717116 L13.9682409,6.20717116 Z M6.44340127,12.2797346 C6.10745641,12.2797346 5.81704764,12.0620442 5.71714702,11.7442209 C5.5991249,11.4175691 5.70808627,11.0635027 5.98037353,10.8546407 L13.487324,5.16332589 C13.6325284,5.05436452 13.804915,5 13.9956555,5 C14.1771029,5 14.3585503,5.05436452 14.5037547,5.16332589 L22.0288266,10.8637015 C22.3011139,11.0725635 22.4100752,11.4266298 22.2920531,11.7532816 C22.1830918,12.071105 21.8836222,12.2797346 21.5567381,12.2797346 L6.44340127,12.2797346 Z M16.4741665,15.8428411 C15.9728048,15.8368006 15.5945765,15.4430063 15.6015463,14.9335132 C15.6087484,14.4193735 15.9783807,14.0664688 16.5085509,14.0699537 C17.0103773,14.0734386 17.3951108,14.4674652 17.3860501,14.9692915 C17.377454,15.4680976 16.9794778,15.8488816 16.4741665,15.8428411 Z M11.4366199,15.8321541 C10.9587232,15.8216993 10.5428579,15.392359 10.5463428,14.9128361 C10.5498277,14.4128683 10.944319,14.0397512 11.4621759,14.0441654 C11.9939724,14.0476503 12.3364224,14.3986964 12.3317759,14.9369981 C12.3292203,15.4371981 11.922648,15.8428411 11.4366199,15.8321541 Z M13.9764188,17.0957807 C13.4766834,17.0871846 13.1003136,16.6892084 13.1096067,16.1808769 C13.1186675,15.6915962 13.540341,15.2919938 14.0270661,15.3096506 C14.5091446,15.3280044 14.9296565,15.7640822 14.9166462,16.2312919 C14.9031713,16.6973399 14.460356,17.1048414 13.9764188,17.0957807 Z M14.0456523,14.6112756 C13.5507957,14.6173161 13.1328394,14.215855 13.1237787,13.7265743 C13.1161119,13.2428695 13.5252397,12.8125999 14.0094092,12.7974986 C14.4682551,12.7837913 14.9217574,13.2217277 14.937788,13.6931192 C14.9528892,14.1621875 14.522155,14.6047704 14.0456523,14.6112756 Z M18.2026795,19.7064393 C18.1452947,19.7022574 18.0881423,19.7057423 18.0300605,19.7064393 C17.5681944,19.7064393 17.5672651,19.7064393 17.5665681,19.2552603 C17.5656388,18.7938588 17.5772552,18.3333867 17.5605276,17.8729145 C17.5570427,17.7634885 17.4608594,17.6575474 17.4062625,17.54998 C17.3532919,17.6540625 17.2580379,17.7560541 17.2540883,17.8622275 C17.2387547,18.3687004 17.2338759,18.8761026 17.252462,19.3821108 C17.2631491,19.6478929 17.1632484,19.7173587 16.9139616,19.7113182 C16.0671296,19.6885502 16.1902629,19.8151684 16.1791112,18.9755385 C16.174697,18.6763014 16.186081,18.3763672 16.1765556,18.0775946 C16.1605251,17.5481214 15.8350349,17.2358739 15.2978949,17.2237929 C15.1415388,17.2198433 14.984718,17.2228636 14.7879371,17.2228636 C14.9459194,16.8964441 15.0579011,16.6336823 15.2010145,16.3890419 C15.2395808,16.3225964 15.3710779,16.2821715 15.4609884,16.2812422 C16.2441628,16.2726461 17.0275695,16.2693935 17.8112085,16.2779896 C18.2363669,16.2831008 18.4619565,16.5186804 18.4719465,16.9968094 C18.4886741,17.8148328 18.4735728,18.6323915 18.4770577,19.4501826 C18.477987,19.645802 18.3897028,19.7220052 18.2026795,19.7064393 Z" id="合并形状" fill="#FFFFFF"></path>
            </g>
        </g>
    </g>
</svg>