<?xml version="1.0" encoding="UTF-8"?>
<svg width="32px" height="32px" viewBox="0 0 32 32" version="1.1" xmlns="http://www.w3.org/2000/svg" xmlns:xlink="http://www.w3.org/1999/xlink">
    <!-- Generator: Sketch 53 (72520) - https://sketchapp.com -->
    <title>加油（气）站</title>
    <desc>Created with Sketch.</desc>
    <defs>
        <path d="M14,28 C10.2604653,28 6.74475408,26.5437515 4.10050675,23.8994937 C1.4562489,21.2552459 0,17.7395347 0,14 C0,10.2604653 1.4562489,6.74475408 4.10050675,4.10050675 C6.74475408,1.4562489 10.2604653,0 14,0 C17.7395347,0 21.2552459,1.4562489 23.8994937,4.10050675 C26.5437515,6.74475408 28,10.2604653 28,14 C28,17.7395347 26.5437515,21.2552459 23.8994937,23.8994937 C21.2552459,26.5437515 17.7395347,28 14,28 Z" id="path-1"></path>
        <filter x="-10.7%" y="-10.7%" width="121.4%" height="121.4%" filterUnits="objectBoundingBox" id="filter-2">
            <feMorphology radius="0.5" operator="dilate" in="SourceAlpha" result="shadowSpreadOuter1"></feMorphology>
            <feOffset dx="0" dy="0" in="shadowSpreadOuter1" result="shadowOffsetOuter1"></feOffset>
            <feGaussianBlur stdDeviation="0.5" in="shadowOffsetOuter1" result="shadowBlurOuter1"></feGaussianBlur>
            <feComposite in="shadowBlurOuter1" in2="SourceAlpha" operator="out" result="shadowBlurOuter1"></feComposite>
            <feColorMatrix values="0 0 0 0 0   0 0 0 0 0   0 0 0 0 0  0 0 0 0.26 0" type="matrix" in="shadowBlurOuter1"></feColorMatrix>
        </filter>
    </defs>
    <g id="其他图标" stroke="none" stroke-width="1" fill="none" fill-rule="evenodd">
        <g id="玉董" transform="translate(-926.000000, -121.000000)">
            <g id="加油（气）站" transform="translate(928.000000, 123.000000)">
                <g id="路径">
                    <use fill="black" fill-opacity="1" filter="url(#filter-2)" xlink:href="#path-1"></use>
                    <path stroke="#FFFFFF" stroke-width="1" d="M14,27.5 C17.6069329,27.5 20.9954649,26.0964254 23.545941,23.5459397 C26.0964254,20.9954649 27.5,17.6069329 27.5,14 C27.5,10.393067 26.0964253,7.0045351 23.5459397,4.45405947 C20.9954647,1.90357486 17.6069327,0.5 14,0.5 C10.3930672,0.5 7.00453524,1.9035749 4.45405944,4.45406084 C1.9035749,7.00453524 0.5,10.3930672 0.5,14 C0.5,17.6069327 1.90357486,20.9954647 4.45406083,23.5459411 C7.0045351,26.0964253 10.393067,27.5 14,27.5 Z" stroke-linejoin="square" fill="#E29707" fill-rule="evenodd"></path>
                </g>
                <path d="M18.826,21.6 L7.043,21.6 C6.849,21.6 6.617,21.541 6.617,21.263 L6.617,20.607 C6.617,20.307 6.911,20.279 7.187,20.279 L7.917,20.279 L7.917,5.723 C7.917,5.66 7.917,5.597 7.917,5.535 C7.85889126,5.21024573 7.92761512,4.87557484 8.109,4.6 C8.28453203,4.4502327 8.51330324,4.37806513 8.743,4.4 L17,4.4 C17.391,4.4 17.573,4.468 17.669,4.652 C17.7778823,4.99785408 17.8156403,5.36216738 17.78,5.723 L17.78,10.354 C18.048,10.354 18.68,10.349 19.148,10.349 C19.49,10.349 19.693,10.349 19.753,10.354 L19.811,10.354 C20.262,10.377 20.262,10.377 20.254,10.785 C20.254,10.846 20.254,10.914 20.254,10.993 L20.254,18.11 C20.254,18.704 20.682,18.75 20.814,18.75 C20.975,18.75 21.348,18.688 21.348,18.11 L21.348,9.408 C21.3342253,9.35610205 21.2886129,9.31896632 21.235,9.316 L19.885,9.316 C19.8539221,9.31556326 19.8240648,9.30383361 19.801,9.283 C19.7873705,9.26962665 19.7800947,9.25107327 19.781,9.232 C19.781,9.193 19.781,9.14 19.781,9.071 C19.781,9.002 19.781,8.951 19.781,8.876 L19.781,8.876 C19.7775285,8.8395182 19.789497,8.80325022 19.814,8.776 C19.931,8.647 20.075,8.512 20.229,8.369 C20.4196693,8.19992472 20.5990536,8.01853606 20.766,7.826 C20.557,7.596 20.24,7.313 19.986,7.085 C19.859,6.971 19.748,6.873 19.669,6.797 C19.5102687,6.66041559 19.4534652,6.43938632 19.5266745,6.24319424 C19.5998838,6.04700215 19.7875953,5.91721397 19.997,5.918 C20.1424031,5.91810798 20.2824047,5.97310863 20.389,6.072 C20.594,6.279 21.147,6.772 21.634,7.209 L22.126,7.65 C22.2784659,7.76702193 22.3749398,7.94256088 22.392,8.134 L22.392,8.134 L22.392,18.2 C22.392,19.773 21.292,19.943 20.82,19.943 C20.3622184,19.9556576 19.9217554,19.7676779 19.6141792,19.4283829 C19.306603,19.0890879 19.162617,18.6323472 19.22,18.178 L19.22,11.33 C19.206476,11.1802377 19.0803674,11.0658703 18.93,11.067 L17.794,11.067 L17.794,20.274 L18.944,20.274 C19.194,20.274 19.229,20.494 19.229,20.732 L19.211,21.296 C19.197,21.493 18.977,21.6 18.826,21.6 Z M10.291,6.341 C9.89303168,6.34210241 9.57099847,6.66503016 9.571,7.063 L9.571,10.887 C9.57099962,11.2848071 9.89319328,11.6074483 10.291,11.608 L15.517,11.608 C15.9153594,11.6080004 16.2384483,11.285359 16.239,10.887 L16.239,10.887 L16.239,7.063 C16.2384492,6.66447879 15.9155212,6.34155082 15.517,6.341 L10.291,6.341 Z" id="加油_气_站-2" fill="#FFFFFF" fill-rule="nonzero"></path>
            </g>
        </g>
    </g>
</svg>