<?xml version="1.0" encoding="UTF-8"?>
<svg width="32px" height="32px" viewBox="0 0 32 32" version="1.1" xmlns="http://www.w3.org/2000/svg" xmlns:xlink="http://www.w3.org/1999/xlink">
    <!-- Generator: Sketch 53 (72520) - https://sketchapp.com -->
    <title>危险化学品企业</title>
    <desc>Created with Sketch.</desc>
    <defs>
        <path d="M14,28 C10.2604653,28 6.74475408,26.5437515 4.10050675,23.8994937 C1.4562489,21.2552459 0,17.7395347 0,14 C0,10.2604653 1.4562489,6.74475408 4.10050675,4.10050675 C6.74475408,1.4562489 10.2604653,0 14,0 C17.7395347,0 21.2552459,1.4562489 23.8994937,4.10050675 C26.5437515,6.74475408 28,10.2604653 28,14 C28,17.7395347 26.5437515,21.2552459 23.8994937,23.8994937 C21.2552459,26.5437515 17.7395347,28 14,28 Z" id="path-1"></path>
        <filter x="-10.7%" y="-10.7%" width="121.4%" height="121.4%" filterUnits="objectBoundingBox" id="filter-2">
            <feMorphology radius="0.5" operator="dilate" in="SourceAlpha" result="shadowSpreadOuter1"></feMorphology>
            <feOffset dx="0" dy="0" in="shadowSpreadOuter1" result="shadowOffsetOuter1"></feOffset>
            <feGaussianBlur stdDeviation="0.5" in="shadowOffsetOuter1" result="shadowBlurOuter1"></feGaussianBlur>
            <feComposite in="shadowBlurOuter1" in2="SourceAlpha" operator="out" result="shadowBlurOuter1"></feComposite>
            <feColorMatrix values="0 0 0 0 0   0 0 0 0 0   0 0 0 0 0  0 0 0 0.26 0" type="matrix" in="shadowBlurOuter1"></feColorMatrix>
        </filter>
    </defs>
    <g id="其他图标" stroke="none" stroke-width="1" fill="none" fill-rule="evenodd">
        <g id="玉董" transform="translate(-664.000000, -25.000000)">
            <g id="危险化学品企业" transform="translate(666.000000, 27.000000)">
                <g id="路径">
                    <use fill="black" fill-opacity="1" filter="url(#filter-2)" xlink:href="#path-1"></use>
                    <path stroke="#FFFFFF" stroke-width="1" d="M14,27.5 C17.6069329,27.5 20.9954649,26.0964254 23.545941,23.5459397 C26.0964254,20.9954649 27.5,17.6069329 27.5,14 C27.5,10.393067 26.0964253,7.0045351 23.5459397,4.45405947 C20.9954647,1.90357486 17.6069327,0.5 14,0.5 C10.3930672,0.5 7.00453524,1.9035749 4.45405944,4.45406084 C1.9035749,7.00453524 0.5,10.3930672 0.5,14 C0.5,17.6069327 1.90357486,20.9954647 4.45406083,23.5459411 C7.0045351,26.0964253 10.393067,27.5 14,27.5 Z" stroke-linejoin="square" fill="#E29707" fill-rule="evenodd"></path>
                </g>
                <path d="M20.6140735,21.9998211 L13.2182831,21.9998211 C12.7163599,22.0067188 12.2322588,21.8139216 11.8725007,21.4638522 C11.5127425,21.1137828 11.3068042,20.6351242 11.3,20.1331997 L14.6444199,14.7753303 C14.6456765,14.71109 14.6515832,14.647025 14.6620937,14.5836379 L14.6702508,14.5292571 L14.6702508,11.9162591 C14.2963842,11.8402452 14.0423665,11.4914281 14.0847693,11.112276 C14.1271722,10.7331238 14.4519711,10.4490393 14.8333932,10.4574938 L15.086264,10.4574938 C15.1654701,10.0264515 15.5412097,9.71346504 15.9794688,9.71346504 C16.417728,9.71346504 16.7934675,10.0264515 16.8726737,10.4574938 L18.9867277,10.4574938 C19.3986479,10.4537158 19.736036,10.783809 19.7412615,11.1957134 C19.7402691,11.54633 19.4923583,11.8476894 19.1485106,11.9162591 L19.1485106,14.5278976 L19.1553082,14.5836379 C19.1655029,14.6466088 19.1714077,14.7101994 19.172982,14.7739708 L22.525559,20.1331997 C22.5113815,21.1757283 21.6566448,22.0104037 20.6140735,21.9998211 Z M16.8563594,19.1271547 C16.4840033,19.1390763 16.1906191,19.4484902 16.198504,19.8209537 C16.2063888,20.1934172 16.5126046,20.4901379 16.8851317,20.4862906 C17.2576588,20.4824434 17.5576811,20.1794618 17.5578719,19.8069149 C17.5496986,19.4264283 17.2369147,19.1233431 16.8563594,19.1271547 Z M14.5628487,17.5351565 C14.2855084,17.5351564 14.0292353,17.6831157 13.8905652,17.9232995 C13.751895,18.1634832 13.751895,18.4594018 13.8905652,18.6995856 C14.0292353,18.9397694 14.2855084,19.0877286 14.5628487,19.0877286 C14.7765614,19.0887672 14.9817609,19.0040428 15.1324877,18.8525316 C15.277729,18.7089502 15.3590677,18.5129534 15.3581681,18.3087235 C15.3507191,17.8761099 14.9955026,17.5306086 14.5628487,17.5351565 Z M17.2927654,15.2620385 C16.6641144,15.2762279 16.1646017,15.7948466 16.1740084,16.4235874 C16.183415,17.0523282 16.6982189,17.5557717 17.327013,17.5511483 C17.9558071,17.5465249 18.4631523,17.0355657 18.4633124,16.4067546 C18.4551015,15.7678735 17.9316707,15.2559934 17.2927654,15.2620385 Z M18.1451847,9.73151 C17.8066185,9.72252603 17.5388412,9.44184632 17.5457879,9.10323223 C17.5527346,8.76461814 17.831798,8.49515688 18.1704478,8.50006602 C18.5090975,8.50497517 18.780233,8.78241223 18.7773616,9.12108539 C18.769928,9.46359806 18.4877476,9.736069 18.1451847,9.73151 Z M17.3754667,7.86743837 C17.1175456,7.9646773 16.9019289,8.01329677 16.7286168,8.01329677 C16.3650329,8.01329677 15.8626595,8.05069616 15.4388597,8.43293919 L13.0273601,6.2807027 L7.58178684,11.0144674 L7.58178684,20.2096794 L9.10242928,20.2096794 C9.13085886,20.8951674 9.32599173,21.4656895 9.68782792,21.9212456 L7.58178684,21.9212456 L7.58178684,21.9263801 L5.87022056,21.9263801 L5.87022056,12.5023092 L5.12288851,13.1519551 L4,11.8602196 L13.0421483,4 L17.3754667,7.86743837 Z M8.75414389,11.6654549 L11.4926499,11.6654549 L11.4926499,14.4039609 L8.75414389,14.4039609 L8.75414389,11.6654549 Z" fill="#FFFFFF" fill-rule="nonzero"></path>
            </g>
        </g>
    </g>
</svg>