<?xml version="1.0" encoding="UTF-8"?>
<svg width="32px" height="32px" viewBox="0 0 32 32" version="1.1" xmlns="http://www.w3.org/2000/svg" xmlns:xlink="http://www.w3.org/1999/xlink">
    <!-- Generator: Sketch 53 (72520) - https://sketchapp.com -->
    <title>危险废物集中处置单位</title>
    <desc>Created with Sketch.</desc>
    <defs>
        <path d="M14,28 C10.2604653,28 6.74475408,26.5437515 4.10050675,23.8994937 C1.4562489,21.2552459 0,17.7395347 0,14 C0,10.2604653 1.4562489,6.74475408 4.10050675,4.10050675 C6.74475408,1.4562489 10.2604653,0 14,0 C17.7395347,0 21.2552459,1.4562489 23.8994937,4.10050675 C26.5437515,6.74475408 28,10.2604653 28,14 C28,17.7395347 26.5437515,21.2552459 23.8994937,23.8994937 C21.2552459,26.5437515 17.7395347,28 14,28 Z" id="path-1"></path>
        <filter x="-10.7%" y="-10.7%" width="121.4%" height="121.4%" filterUnits="objectBoundingBox" id="filter-2">
            <feMorphology radius="0.5" operator="dilate" in="SourceAlpha" result="shadowSpreadOuter1"></feMorphology>
            <feOffset dx="0" dy="0" in="shadowSpreadOuter1" result="shadowOffsetOuter1"></feOffset>
            <feGaussianBlur stdDeviation="0.5" in="shadowOffsetOuter1" result="shadowBlurOuter1"></feGaussianBlur>
            <feComposite in="shadowBlurOuter1" in2="SourceAlpha" operator="out" result="shadowBlurOuter1"></feComposite>
            <feColorMatrix values="0 0 0 0 0   0 0 0 0 0   0 0 0 0 0  0 0 0 0.26 0" type="matrix" in="shadowBlurOuter1"></feColorMatrix>
        </filter>
    </defs>
    <g id="其他图标" stroke="none" stroke-width="1" fill="none" fill-rule="evenodd">
        <g id="玉董" transform="translate(-927.000000, -34.000000)">
            <g id="危险废物集中处置单位" transform="translate(929.000000, 36.000000)">
                <g id="路径">
                    <use fill="black" fill-opacity="1" filter="url(#filter-2)" xlink:href="#path-1"></use>
                    <path stroke="#FFFFFF" stroke-width="1" d="M14,27.5 C17.6069329,27.5 20.9954649,26.0964254 23.545941,23.5459397 C26.0964254,20.9954649 27.5,17.6069329 27.5,14 C27.5,10.393067 26.0964253,7.0045351 23.5459397,4.45405947 C20.9954647,1.90357486 17.6069327,0.5 14,0.5 C10.3930672,0.5 7.00453524,1.9035749 4.45405944,4.45406084 C1.9035749,7.00453524 0.5,10.3930672 0.5,14 C0.5,17.6069327 1.90357486,20.9954647 4.45406083,23.5459411 C7.0045351,26.0964253 10.393067,27.5 14,27.5 Z" stroke-linejoin="square" fill="#E29707" fill-rule="evenodd"></path>
                </g>
                <path d="M13.6404268,15.5818738 C13.296621,15.3355598 13,14.9593517 13,14.5710525 C13,14.1827533 13.1409975,12.5618274 13.8917619,11.831078 C14.6425264,11.1003286 16.1124474,9.83650378 18.1674632,10.0175315 C20.2224791,10.1985591 21.9445482,11.1507867 22.5389793,12.4035892 C23.1334104,13.6563916 23.0095211,15.2471814 22.5389793,15.6156166 C22.0684376,15.9840518 21.4884916,15.73872 21.4884916,15.445033 C21.4884916,15.2492417 21.4884916,14.5861538 21.4884916,13.4557692 C21.3658927,13.4202275 21.3045932,13.5468519 21.3045932,13.8356425 C21.3045932,14.2688284 21.2421111,14.9974704 21.2421111,15.6156166 C21.2421111,15.954928 21.3310565,16.0794319 21.7250172,16.314758 C22.1189778,16.550084 22.3912441,16.7760779 22.5389793,17.0723493 C22.6867146,17.3686208 22.6867146,18.3457635 22.5389793,18.5389786 C22.3912441,18.7321937 20.9745346,19.1953386 20.7215685,19.3125644 C20.5806701,19.5458097 20.6366529,19.6564872 20.94332,19.9033071 C21.249987,20.150127 21.3022046,20.8958382 21.1227623,21.3316125 C20.94332,21.7673868 19.3257851,23 17.9334859,23 C16.5411867,23 15.0541241,21.78978 14.8058179,21.3316125 C14.5575118,20.873445 14.6035861,20.3987229 14.6765349,20.0817872 C14.7494837,19.7648516 15.0260831,19.3125644 15.0260831,19.3125644 C15.0260831,19.3125644 13.2956686,18.6397795 13.2956686,17.8088556 C13.2956686,16.9779316 13.9753949,16.4223156 14.191493,16.314758 C14.4075912,16.2072003 14.8058179,16.131055 14.8058179,15.8733358 C14.8058179,15.701523 14.8058179,14.8956675 14.8058179,13.4557692 C14.6709967,13.4293452 14.6035861,13.5299815 14.6035861,13.757678 C14.6035861,14.0992229 14.5761641,15.4669152 14.4845451,15.6156166 C14.3929262,15.764318 13.9842326,15.8281878 13.6404268,15.5818738 Z M15.7055947,19.6172555 C15.4174879,19.7842954 16.0799177,21.3337623 17.8765703,21.3337623 C19.6732229,21.3337623 20.0748541,20.2619567 19.9733359,19.6172555 C19.6546254,19.8797468 18.576293,20.0546061 17.8765703,20.0546061 C17.1768475,20.0546061 16.0799177,19.9540991 15.7055947,19.6172555 Z M15.1142815,16.020505 C15.1142815,16.80899 15.9067436,16.9806137 16.2493843,16.9806137 C16.5920251,16.9806137 16.8940855,16.656443 17.0624062,16.5 C17.2307269,16.343557 17.1636548,15.7628335 17.1636548,15.445033 C16.9645231,15.445033 16.255586,15.445033 15.9067436,15.445033 C15.9067436,15.8055372 15.3130037,16.020505 15.1142815,16.020505 Z M20.8510797,16.1122407 C20.6523575,16.1122407 20.0586176,15.8972729 20.0586176,15.5367687 C19.7097752,15.5367687 19.0008381,15.5367687 18.8017064,15.5367687 C18.8017064,15.8545692 18.7346343,16.4352926 18.902955,16.5917357 C19.0712756,16.7481787 19.3733361,17.0723493 19.7159768,17.0723493 C20.0586176,17.0723493 20.8510797,16.9007256 20.8510797,16.1122407 Z M17.967852,16.9578342 C17.7439423,16.9578342 17.6021474,17.3702753 17.5014425,17.6451302 C17.4007377,17.9199852 17.3627864,18.4405612 17.3627864,18.6389464 C17.3627864,18.8373316 17.7457339,18.9129817 18.0236485,18.9129817 C18.3015631,18.9129817 18.6845106,18.8373316 18.6845106,18.6389464 C18.6845106,18.4405612 18.5995443,17.9704622 18.515999,17.6451302 C18.4324537,17.3197983 18.1917617,16.9578342 17.967852,16.9578342 Z M14.9281058,22.9212456 L8.58178684,22.9212456 L8.58178684,22.9263801 L6.87022056,22.9263801 L6.87022056,13.5023092 L6.12288851,14.1519551 L5,12.8602196 L14.0421483,5 L18.8180052,9.2623991 C18.7710986,9.25784818 18.7262118,9.25550981 18.683502,9.25550981 C18.0433435,9.25550981 17.2526238,9.31725627 16.4931197,9.48136566 L14.0273601,7.2807027 L8.58178684,12.0144674 L8.58178684,21.2096794 L13.6452813,21.2096794 C14.0546114,21.954172 14.5063836,22.5437367 14.9281058,22.9212456 Z M12.4926499,13.2704255 C12.3696622,13.8305445 12.2907073,14.5245073 12.2723229,15.4039609 L9.75414389,15.4039609 L9.75414389,12.6654549 L12.4926499,12.6654549 L12.4926499,13.2704255 Z" id="合并形状" fill="#FFFFFF"></path>
            </g>
        </g>
    </g>
</svg>