<?xml version="1.0" encoding="UTF-8"?>
<svg width="32px" height="32px" viewBox="0 0 32 32" version="1.1" xmlns="http://www.w3.org/2000/svg" xmlns:xlink="http://www.w3.org/1999/xlink">
    <!-- Generator: Sketch 53 (72520) - https://sketchapp.com -->
    <title>压力容器</title>
    <desc>Created with Sketch.</desc>
    <defs>
        <path d="M14,28 C10.2604653,28 6.74475408,26.5437515 4.10050675,23.8994937 C1.4562489,21.2552459 0,17.7395347 0,14 C0,10.2604653 1.4562489,6.74475408 4.10050675,4.10050675 C6.74475408,1.4562489 10.2604653,0 14,0 C17.7395347,0 21.2552459,1.4562489 23.8994937,4.10050675 C26.5437515,6.74475408 28,10.2604653 28,14 C28,17.7395347 26.5437515,21.2552459 23.8994937,23.8994937 C21.2552459,26.5437515 17.7395347,28 14,28 Z" id="path-1"></path>
        <filter x="-10.7%" y="-10.7%" width="121.4%" height="121.4%" filterUnits="objectBoundingBox" id="filter-2">
            <feMorphology radius="0.5" operator="dilate" in="SourceAlpha" result="shadowSpreadOuter1"></feMorphology>
            <feOffset dx="0" dy="0" in="shadowSpreadOuter1" result="shadowOffsetOuter1"></feOffset>
            <feGaussianBlur stdDeviation="0.5" in="shadowOffsetOuter1" result="shadowBlurOuter1"></feGaussianBlur>
            <feComposite in="shadowBlurOuter1" in2="SourceAlpha" operator="out" result="shadowBlurOuter1"></feComposite>
            <feColorMatrix values="0 0 0 0 0   0 0 0 0 0   0 0 0 0 0  0 0 0 0.26 0" type="matrix" in="shadowBlurOuter1"></feColorMatrix>
        </filter>
    </defs>
    <g id="其他图标" stroke="none" stroke-width="1" fill="none" fill-rule="evenodd">
        <g id="玉董" transform="translate(-666.000000, -359.000000)">
            <g id="压力容器" transform="translate(668.000000, 361.000000)">
                <g id="路径">
                    <use fill="black" fill-opacity="1" filter="url(#filter-2)" xlink:href="#path-1"></use>
                    <path stroke="#FFFFFF" stroke-width="1" d="M14,27.5 C17.6069329,27.5 20.9954649,26.0964254 23.545941,23.5459397 C26.0964254,20.9954649 27.5,17.6069329 27.5,14 C27.5,10.393067 26.0964253,7.0045351 23.5459397,4.45405947 C20.9954647,1.90357486 17.6069327,0.5 14,0.5 C10.3930672,0.5 7.00453524,1.9035749 4.45405944,4.45406084 C1.9035749,7.00453524 0.5,10.3930672 0.5,14 C0.5,17.6069327 1.90357486,20.9954647 4.45406083,23.5459411 C7.0045351,26.0964253 10.393067,27.5 14,27.5 Z" stroke-linejoin="square" fill="#E29707" fill-rule="evenodd"></path>
                </g>
                <path d="M11.053381,23.9999947 C9.848387,23.9989445 8.87180433,23.006911 8.87077045,21.7828524 L8.87077045,21.0009479 C8.82040764,21.0253622 8.76531594,21.0380516 8.70951228,21.0380907 L6.39564505,21.0380907 C6.17713632,21.0380907 6,20.8581519 6,20.6361861 C6,20.4142203 6.17713632,20.2342814 6.39564505,20.2342814 L6.90848353,20.2342814 L6.90848353,8.55333213 L6.39564505,8.55333213 C6.17713632,8.55333213 6,8.37339329 6,8.15142748 C6,7.92946166 6.17713632,7.74952282 6.39564505,7.74952282 L8.70951228,7.74952282 C8.76503503,7.74935842 8.81997306,7.76103901 8.87077045,7.78380852 L8.87077045,7.25904676 C8.87180433,6.03498818 9.848387,5.04295473 11.053381,5.04190449 L13.9841545,5.04190449 L13.9841545,4.40190466 C13.9841539,4.18031024 14.1607195,4.00052511 14.378862,4 L16.7086676,4 C16.9271763,4 17.1043126,4.17993884 17.1043126,4.40190466 L17.1043126,5.0561902 L17.7193438,5.0561902 C18.9241239,5.05776427 19.9004048,6.0494912 19.9019543,7.27333247 L19.9019543,9.7885699 L20.3266634,9.7885699 L20.3266634,9.63999851 C20.3214854,9.56229315 20.3593586,9.4881307 20.4248765,9.44767958 C20.4903943,9.40722846 20.5726406,9.40722846 20.6381585,9.44767958 C20.7036764,9.4881307 20.7415496,9.56229315 20.7363716,9.63999851 L20.7363716,12.0504741 C20.7415496,12.1281794 20.7036764,12.2023419 20.6381585,12.242793 C20.5726406,12.2832441 20.4903943,12.2832441 20.4248765,12.242793 C20.3593586,12.2023419 20.3214854,12.1281794 20.3266634,12.0504741 L20.3266634,11.8723789 L19.9019543,11.8723789 L19.9019543,21.7971382 C19.8967871,23.0171416 18.9203541,24.002632 17.7193438,23.9999947 L11.053381,23.9999947 Z M8.10526316,19.7556967 L9.109033,19.7556967 C9.16417634,19.7555347 9.21873896,19.767042 9.26918923,19.7894737 L9.27105151,8.21052632 C9.22103285,8.23457844 9.16631762,8.24707953 9.11089528,8.24711808 L8.10526316,8.24711808 L8.10526316,19.7556967 Z M9.2975197,14.4084607 C9.29797906,14.5596145 9.41460687,14.682029 9.55861528,14.6825112 L11.7843207,14.6822916 C11.8606291,14.6816193 11.933293,14.6479337 11.9851634,14.5891847 C12.0287004,14.5405134 12.0505885,14.4747817 12.0454163,14.4082411 C12.045417,14.2567445 11.9286551,14.1337963 11.7843207,14.1333123 L9.55861528,14.1335319 C9.41428091,14.1340159 9.29751896,14.2569641 9.2975197,14.4084607 Z M9.2975197,15.5077384 C9.29797906,15.6588921 9.41460687,15.7813067 9.55861528,15.7817889 L12.7016513,15.7817889 C12.7779597,15.7811166 12.8506236,15.747431 12.902494,15.688682 C12.946031,15.6400107 12.9679191,15.574279 12.9627468,15.5077384 C12.9627476,15.3562417 12.8459856,15.2332936 12.7016513,15.2328096 L9.55861528,15.2328096 C9.41428091,15.2332936 9.29751896,15.3562417 9.2975197,15.5077384 Z M9.2975197,17.8593654 C9.29797906,18.0105191 9.41460687,18.1329337 9.55861528,18.1334158 L12.7016513,18.1334158 C12.7779597,18.1327436 12.8506236,18.0990579 12.902494,18.040309 C12.946031,17.9916377 12.9679191,17.925906 12.9627468,17.8593654 C12.9627476,17.7078687 12.8459856,17.5849206 12.7016513,17.5844365 L9.55861528,17.5844365 C9.41428091,17.5849206 9.29751896,17.7078687 9.2975197,17.8593654 Z M9.2975197,16.7065752 C9.29797906,16.8577289 9.41460687,16.9801435 9.55861528,16.9806256 L11.7064562,16.980406 C11.7827647,16.9797338 11.8554286,16.9460482 11.907299,16.8872992 C11.9508359,16.8386279 11.9727241,16.7728962 11.9675518,16.7063556 C11.9675526,16.5548589 11.8507906,16.4319108 11.7064562,16.4314267 C11.2277902,16.4314757 10.8687906,16.4315124 10.6294576,16.4315369 C10.3914926,16.4315612 10.0345452,16.4315977 9.55861528,16.4316463 C9.41428091,16.4321304 9.29751896,16.5550785 9.2975197,16.7065752 Z M9.2975197,19.053852 C9.29797906,19.2050057 9.41460687,19.3274203 9.55861528,19.3279025 L11.7064562,19.3276829 C11.7827647,19.3270106 11.8554286,19.293325 11.907299,19.234576 C11.9508359,19.1859047 11.9727241,19.120173 11.9675518,19.0536324 C11.9675526,18.9021358 11.8507906,18.7791876 11.7064562,18.7787036 C11.2277902,18.7787525 10.8687906,18.7787892 10.6294576,18.7788137 C10.3914926,18.778838 10.0345452,18.7788745 9.55861528,18.7789232 C9.41428091,18.7794072 9.29751896,18.9023554 9.2975197,19.053852 Z M19.9721053,10.3157895 L19.9721053,9.26315789 L20.4489474,9.26315789 L20.4489474,10.3157895 L19.9721053,10.3157895 Z M20.2963158,16.2462115 C20.2905023,16.1602859 20.3330244,16.078278 20.4065846,16.0335477 C20.4801448,15.9888174 20.5724868,15.9888174 20.646047,16.0335477 C20.7196072,16.078278 20.7621293,16.1602859 20.7563158,16.2462115 L20.7563158,18.9116833 C20.7621293,18.9976088 20.7196072,19.0796167 20.646047,19.124347 C20.5724868,19.1690773 20.4801448,19.1690773 20.4065846,19.124347 C20.3330244,19.0796167 20.2905023,18.9976088 20.2963158,18.9116833 L20.2963158,16.2462115 Z M16.3578667,8.34089919 C16.335036,8.32851423 16.3114125,8.31723469 16.2870522,8.30714432 C16.0068005,8.19106027 15.6842169,8.25522614 15.4697215,8.46972151 C15.2552261,8.68421687 15.1910603,9.00680053 15.3071443,9.28705222 C15.4232284,9.56730392 15.6967016,9.75003288 16.0000438,9.75003288 C16.4142514,9.75003288 16.7500329,9.41425136 16.7500329,9.00004385 C16.7500329,8.85306448 16.7071332,8.71309752 16.6310264,8.59464905 L17.3022123,7.87506029 C17.3563267,7.82786608 17.3787362,7.75391205 17.35992,7.68461842 C17.3411038,7.61532479 17.2843668,7.56286246 17.2138143,7.54952066 C17.1432618,7.53617886 17.0712859,7.56430097 17.0284663,7.62193899 L16.3578667,8.34089919 Z M16.0000438,12 C17.6568739,12 19,10.6568739 19,9.00004385 C19,7.78667485 18.2690842,6.69278197 17.1480774,6.22844576 C16.0270706,5.76410954 14.736736,6.02077305 13.8787545,6.8787545 C13.0207731,7.73673595 12.7641095,9.02707058 13.2284458,10.1480774 C13.692782,11.2690841 14.7866748,12 16.0000438,12 Z M16.0000438,6.37508221 C16.696227,6.37508221 17.3638962,6.65163988 17.856172,7.14391568 C18.3484478,7.63619148 18.6250055,8.30386074 18.6250055,9.00004385 C18.6250055,10.4497701 17.4497701,11.6250055 16.0000438,11.6250055 C14.5503176,11.6250055 13.3750822,10.4497701 13.3750822,9.00004384 C13.3750822,7.55031756 14.5503176,6.37508221 16.0000438,6.37508221 Z M17.7531432,9.18754111 C17.8566951,9.18754111 17.9406405,9.10359573 17.9406405,9.00004385 C17.9405427,8.69944612 17.8698997,8.40306671 17.7343935,8.134744 C17.7101733,8.06611643 17.6484287,8.01770335 17.5760047,8.01055357 C17.5035807,8.00340379 17.4335614,8.03880901 17.3963896,8.10137589 C17.3592178,8.16394277 17.3616089,8.24236794 17.4025233,8.30255405 C17.5106229,8.51912081 17.5664895,8.75799847 17.565646,9.00004385 C17.565646,9.10359572 17.6495913,9.1875411 17.7531432,9.18754111 Z M14.2469445,9.18754111 C14.3504963,9.1875411 14.4344417,9.10359572 14.4344417,9.00004385 C14.4348448,8.48511179 14.6881317,8.00322053 15.1120366,7.71088528 C15.5359414,7.41855004 16.07639,7.35306162 16.5578482,7.53569025 C16.6546692,7.57271005 16.7631686,7.52423159 16.8001884,7.42741058 C16.8372082,7.33058958 16.7887297,7.22209017 16.6919087,7.18507037 C16.095096,6.95780715 15.4246887,7.03856782 14.8989212,7.40106278 C14.3731537,7.76355774 14.0592701,8.36142503 14.0594472,9.00004385 C14.0594472,9.10359573 14.1433926,9.18754111 14.2469445,9.18754111 Z M16.0000438,8.62504933 C16.0994986,8.62504933 16.1948799,8.66455757 16.265205,8.73488268 C16.3355301,8.8052078 16.3750384,8.90058912 16.3750384,9.00004385 C16.3750384,9.2071476 16.2071476,9.37503836 16.0000438,9.37503836 C15.7929401,9.37503836 15.6250493,9.20714759 15.6250493,9.00004384 C15.6250493,8.79294009 15.7929401,8.62504933 16.0000438,8.62504933 Z" id="合并形状" fill="#FFFFFF" fill-rule="nonzero"></path>
            </g>
        </g>
    </g>
</svg>