<?xml version="1.0" encoding="UTF-8"?>
<svg width="32px" height="32px" viewBox="0 0 32 32" version="1.1" xmlns="http://www.w3.org/2000/svg" xmlns:xlink="http://www.w3.org/1999/xlink">
    <!-- Generator: Sketch 53 (72520) - https://sketchapp.com -->
    <title>国际救援队</title>
    <desc>Created with Sketch.</desc>
    <defs>
        <rect id="path-1" x="0" y="0" width="28" height="28" rx="14"></rect>
        <filter x="-10.7%" y="-10.7%" width="121.4%" height="121.4%" filterUnits="objectBoundingBox" id="filter-2">
            <feMorphology radius="0.5" operator="dilate" in="SourceAlpha" result="shadowSpreadOuter1"></feMorphology>
            <feOffset dx="0" dy="0" in="shadowSpreadOuter1" result="shadowOffsetOuter1"></feOffset>
            <feGaussianBlur stdDeviation="0.5" in="shadowOffsetOuter1" result="shadowBlurOuter1"></feGaussianBlur>
            <feComposite in="shadowBlurOuter1" in2="SourceAlpha" operator="out" result="shadowBlurOuter1"></feComposite>
            <feColorMatrix values="0 0 0 0 0   0 0 0 0 0   0 0 0 0 0  0 0 0 0.26 0" type="matrix" in="shadowBlurOuter1"></feColorMatrix>
        </filter>
    </defs>
    <g id="其他图标" stroke="none" stroke-width="1" fill="none" fill-rule="evenodd">
        <g id="应急保障资源" transform="translate(-379.000000, -248.000000)">
            <g id="国际救援队" transform="translate(381.000000, 250.000000)">
                <g id="矩形">
                    <use fill="black" fill-opacity="1" filter="url(#filter-2)" xlink:href="#path-1"></use>
                    <rect stroke="#FFFFFF" stroke-width="1" stroke-linejoin="square" fill="#38AC83" fill-rule="evenodd" x="0.5" y="0.5" width="27" height="27" rx="13.5"></rect>
                </g>
                <path d="M13.3629091,5 C9.69690909,5.258 6.64127273,7.71527273 5.49418182,11.0692727 L11.7014545,11.0692727 C12.0914545,8.20072727 12.9570909,5.94527273 13.3629091,5 L13.3629091,5 Z M5.49418182,16.9269091 C6.64727273,20.2989091 9.72690909,22.7621818 13.4190909,23 C13.0476364,22.1594545 12.1394545,19.8821818 11.7194545,16.9290909 L5.49418182,16.9290909 L5.49418182,16.9269091 Z M15.0707273,22.9596364 C18.5441818,22.5467273 21.4045455,20.15 22.5058182,16.9269091 L16.7518182,16.9269091 C16.3383636,19.8358182 15.452,22.0869091 15.0707273,22.9596364 L15.0707273,22.9596364 Z M15.2916364,11.0692727 C15.0363636,9.34181818 14.6043636,7.84836364 14.2367273,6.8 C13.8690909,7.84836364 13.4370909,9.34181818 13.1823636,11.0692727 L15.2916364,11.0692727 Z M12.9592727,13.9378182 C12.9592727,14.4598182 12.9870909,14.9654545 13.0296364,15.4634545 L15.4443636,15.4634545 C15.4841818,14.9654545 15.5147273,14.4598182 15.5147273,13.9378182 C15.5147273,13.46 15.4907273,12.992 15.4541818,12.5349091 L13.0176364,12.5349091 C12.9832727,12.992 12.9592727,13.46 12.9592727,13.9378182 L12.9592727,13.9378182 Z M22.8712727,12.5349091 L16.9187273,12.5349091 C16.9509091,12.9941818 16.9727273,13.46 16.9727273,13.9378182 C16.9727273,14.4598182 16.9487273,14.9654545 16.9105455,15.4634545 L22.8712727,15.4634545 C22.9498182,14.9856364 23,14.498 23,14 C23,13.4981818 22.9498182,13.0121818 22.8712727,12.5349091 L22.8712727,12.5349091 Z M22.5058182,11.0692727 C21.4089091,7.86418182 18.5741818,5.48 15.1247273,5.04636364 C15.5387273,6.01618182 16.3825455,8.24545455 16.7681818,11.0692727 L22.5058182,11.0692727 Z M13.196,16.9269091 C13.4534545,18.6041818 13.8750909,20.0490909 14.2350909,21.0750909 C14.5945455,20.0512727 15.0161818,18.6041818 15.2736364,16.9269091 L13.196,16.9269091 Z M11.4985455,13.9378182 C11.4985455,13.4578182 11.5209091,12.992 11.5530909,12.5349091 L5.12818182,12.5349091 C5.05018182,13.0121818 5,13.4981818 5,13.9983636 C5,14.498 5.05018182,14.9834545 5.12818182,15.4612727 L11.5607273,15.4612727 C11.5247273,14.9654545 11.4985455,14.4598182 11.4985455,13.9378182 L11.4985455,13.9378182 Z" id="Fill-1" fill="#FFFFFF"></path>
            </g>
        </g>
    </g>
</svg>