<?xml version="1.0" encoding="UTF-8"?>
<svg width="32px" height="32px" viewBox="0 0 32 32" version="1.1" xmlns="http://www.w3.org/2000/svg" xmlns:xlink="http://www.w3.org/1999/xlink">
    <!-- Generator: Sketch 53 (72520) - https://sketchapp.com -->
    <title>地质灾害风险区</title>
    <desc>Created with Sketch.</desc>
    <defs>
        <rect id="path-1" x="0" y="0" width="28" height="28" rx="14"></rect>
        <filter x="-10.7%" y="-10.7%" width="121.4%" height="121.4%" filterUnits="objectBoundingBox" id="filter-2">
            <feMorphology radius="0.5" operator="dilate" in="SourceAlpha" result="shadowSpreadOuter1"></feMorphology>
            <feOffset dx="0" dy="0" in="shadowSpreadOuter1" result="shadowOffsetOuter1"></feOffset>
            <feGaussianBlur stdDeviation="0.5" in="shadowOffsetOuter1" result="shadowBlurOuter1"></feGaussianBlur>
            <feComposite in="shadowBlurOuter1" in2="SourceAlpha" operator="out" result="shadowBlurOuter1"></feComposite>
            <feColorMatrix values="0 0 0 0 0   0 0 0 0 0   0 0 0 0 0  0 0 0 0.26 0" type="matrix" in="shadowBlurOuter1"></feColorMatrix>
        </filter>
    </defs>
    <g id="其他图标" stroke="none" stroke-width="1" fill="none" fill-rule="evenodd">
        <g id="玉董" transform="translate(-376.000000, -485.000000)">
            <g id="地质灾害风险区" transform="translate(378.000000, 487.000000)">
                <g id="矩形-copy-5" transform="translate(14.000000, 14.000000) scale(-1, 1) translate(-14.000000, -14.000000) ">
                    <use fill="black" fill-opacity="1" filter="url(#filter-2)" xlink:href="#path-1"></use>
                    <rect stroke="#FFFFFF" stroke-width="1" stroke-linejoin="square" fill="#E2AC07" fill-rule="evenodd" x="0.5" y="0.5" width="27" height="27" rx="13.5"></rect>
                </g>
                <path d="M22,20 C20.8189653,19.9221873 19.9293635,19.0304382 20.0044204,17.9996036 C19.9298826,16.9690684 20.8193421,16.0778154 22,16 C23.1806579,16.0778154 24.0701174,16.9690684 23.9955796,17.9996036 C24.0706365,19.0304382 23.1810347,19.9221873 22,20 Z M18.8908049,20 L5,20 L5.0318833,19.9525136 C6.07371711,18.4243145 15.2298515,5.02451216 15.803751,5.00033726 L15.8543892,5.00033726 C16.0946348,4.99369723 16.3257334,5.08538315 16.485491,5.25072016 C16.8807337,5.91107528 17.0039317,6.68055614 16.8324564,7.41782737 C16.7790049,7.5369751 16.6177129,7.60345607 16.4132847,7.68893162 C15.9576058,7.84646904 15.5696795,8.13577743 15.3076843,8.51346842 C14.8418257,9.37137959 14.6567768,10.3354449 14.7750456,11.2884017 C14.9255864,13.621831 16.4997089,15.6750179 18.8373535,16.587022 L18.8908049,16.6103335 C19.1364939,16.7234375 18.8908049,19.9637376 18.8908049,19.9965464 L18.8908049,19.9965464 L18.8908049,20 Z M18.5065151,16 C18.2339061,16 18.006732,15.7019421 18.006732,15.3357115 C18.006732,14.9694808 18.23118,14.6714229 18.5065151,14.6714229 L18.5156021,14.6714229 C18.5053526,14.5975089 18.5001941,14.5231251 18.5001543,14.4486722 C18.4998078,14.3299496 18.5132033,14.2114997 18.5401369,14.0951249 C18.190002,13.863115 17.9910489,13.4970763 18.006732,13.1137535 C17.939781,12.5694318 18.3795018,12.0767916 19.0008461,12 C19.6218478,12.0775615 20.0606907,12.5704691 19.9931429,13.1145462 C20.0580069,13.6572702 19.6192229,14.1475595 18.9999374,14.2243361 L18.9935766,14.2243361 C19.0043075,14.2982195 19.0097702,14.3726128 19.0099331,14.4470868 C19.0139625,14.6190185 18.9832015,14.7902229 18.9190634,14.9528339 C18.9801389,15.0725551 19.0111232,15.202296 19.0099331,15.3333333 C19.007207,15.7019421 18.7827589,16 18.5065151,16 L18.5065151,16 Z M18,13 L16,13 L16,12 L18,12 L18,13 Z M17.098085,11 L16.901007,11 C16.3963201,10.991664 15.9935051,10.5828231 16.0000793,10.085595 L16.0000793,8.91440501 C15.9935051,8.41717691 16.3963201,8.00833601 16.901007,8 L17.098085,8 C17.6031286,8.0078487 18.0064915,8.41683337 17.9999209,8.91440501 L17.9999209,10.085595 C18.0064915,10.5831666 17.6031286,10.9921513 17.098085,11 L17.098085,11 Z" id="Fill_1" fill="#FFFFFF" fill-rule="nonzero"></path>
            </g>
        </g>
    </g>
</svg>