<?xml version="1.0" encoding="UTF-8"?>
<svg width="32px" height="32px" viewBox="0 0 32 32" version="1.1" xmlns="http://www.w3.org/2000/svg" xmlns:xlink="http://www.w3.org/1999/xlink">
    <!-- Generator: Sketch 53 (72520) - https://sketchapp.com -->
    <title>外交场所 </title>
    <desc>Created with Sketch.</desc>
    <defs>
        <rect id="path-1" x="0" y="0" width="28" height="28" rx="14"></rect>
        <filter x="-10.7%" y="-10.7%" width="121.4%" height="121.4%" filterUnits="objectBoundingBox" id="filter-2">
            <feMorphology radius="0.5" operator="dilate" in="SourceAlpha" result="shadowSpreadOuter1"></feMorphology>
            <feOffset dx="0" dy="0" in="shadowSpreadOuter1" result="shadowOffsetOuter1"></feOffset>
            <feGaussianBlur stdDeviation="0.5" in="shadowOffsetOuter1" result="shadowBlurOuter1"></feGaussianBlur>
            <feComposite in="shadowBlurOuter1" in2="SourceAlpha" operator="out" result="shadowBlurOuter1"></feComposite>
            <feColorMatrix values="0 0 0 0 0   0 0 0 0 0   0 0 0 0 0  0 0 0 0.26 0" type="matrix" in="shadowBlurOuter1"></feColorMatrix>
        </filter>
    </defs>
    <g id="其他图标" stroke="none" stroke-width="1" fill="none" fill-rule="evenodd">
        <g id="玉董" transform="translate(-1227.000000, -257.000000)">
            <g id="外交场所-" transform="translate(1229.000000, 259.000000)">
                <g id="矩形-copy-5" transform="translate(14.000000, 14.000000) scale(-1, 1) translate(-14.000000, -14.000000) ">
                    <use fill="black" fill-opacity="1" filter="url(#filter-2)" xlink:href="#path-1"></use>
                    <rect stroke="#FFFFFF" stroke-width="1" stroke-linejoin="square" fill="#237FD3" fill-rule="evenodd" x="0.5" y="0.5" width="27" height="27" rx="13.5"></rect>
                </g>
                <path d="M20.5227789,7 C20.7162779,7.31484034 20.9343843,7.61704728 21.0990265,7.94651054 C21.9001993,9.5490628 22.6729107,11.166238 23.4869307,12.7620259 C23.7477295,13.2731316 23.6439634,13.5371399 23.1338296,13.7708082 C21.8940722,14.3387145 21.9009899,14.3559238 21.2942055,13.1099916 C20.5442239,11.5700095 19.803433,10.0252526 19.0415924,8.49113956 C18.823486,8.05205417 18.8588653,7.76248064 19.3399446,7.55019966 C19.6716995,7.40367207 19.9724235,7.18601941 20.2870817,7 L20.5227789,7 Z M7.67525506,7 C8.04980115,7.20680982 8.42049308,7.42108031 8.79998041,7.61824099 C9.1172081,7.78297262 9.21198111,7.99793943 9.05010604,8.33645497 C8.16987332,10.1769529 7.29705245,12.0209325 6.42245274,13.8640168 C6.25257287,14.2222285 5.97912458,14.2929557 5.64924731,14.1205645 C5.21807459,13.8951527 4.79915615,13.6457673 4.375,13.4067274 L4.375,13.0508036 C4.90074807,12.0297858 5.43183269,11.0115534 5.95076185,9.98705396 C6.45348374,8.99468516 6.9437537,7.99594992 7.43955785,7 L7.67525506,7 Z M12.8613843,21 C12.6301342,20.6803848 12.3988841,20.3608691 12.1503397,20.0176782 C11.0518029,20.4482087 10.7464342,20.2711421 10.6147995,19.0380423 C9.75423293,19.2737001 9.1872749,19.3139877 9.04724012,17.8708949 C8.85799058,17.913172 8.65115022,18.0260768 8.48581629,17.9820091 C8.18528999,17.9018318 7.79829197,17.7997698 7.65450185,17.5734627 C7.51090938,17.3476531 7.48570905,16.8198354 7.64293935,16.6639571 C8.45784886,15.8555188 8.2350977,15.2003723 7.53225554,14.4826557 C7.38263475,14.3299606 7.45863104,13.9533459 7.43056479,13.679788 C7.50122454,13.6580028 7.5718843,13.6362177 7.64254405,13.6144325 C7.94326799,13.9867697 8.22096575,14.3818869 8.55420307,14.7218946 C8.72724534,14.8985633 8.99249117,15.0674729 9.22640953,15.0830906 C9.81619609,15.1225824 10.0896444,15.4250878 10.1006139,15.9762822 C10.1087176,16.3786611 10.2860093,16.4756498 10.6564048,16.5692563 C10.9443803,16.642172 11.2718858,16.9329392 11.3921556,17.2102773 C11.5551177,17.5862951 11.7425884,17.7497335 12.1361089,17.8393611 C12.3942393,17.8980517 12.6176823,18.1624579 12.8290686,18.3641945 C13.0349207,18.5608578 13.1877039,18.8144211 13.3967184,19.006807 C13.6225331,19.2148105 13.8782917,19.3938666 14.136521,19.5613836 C14.3288341,19.6860265 14.5413075,19.8402137 14.7529903,19.8542398 C14.9198066,19.8651821 15.1543179,19.7191519 15.2516603,19.5713311 C15.3063105,19.4883685 15.1874242,19.208643 15.070218,19.1069789 C14.6695821,18.7594111 14.2238822,18.4646648 13.8209733,18.1194844 C13.715132,18.0288621 13.7018894,17.8287172 13.646251,17.6789069 C13.8080273,17.6874618 14.0089382,17.6367292 14.1251562,17.7144197 C14.8607093,18.2057298 15.580747,18.7207151 16.298907,19.2376899 C16.6351091,19.4796146 16.9827748,19.6287286 17.2725292,19.2263497 C17.564853,18.8204891 17.3765918,18.4941096 17.0050104,18.2290071 C16.2524594,17.6920377 15.4987224,17.1556651 14.7689999,16.5884551 C14.6232333,16.4750529 14.582221,16.2251702 14.4928833,16.038156 C14.6827258,16.0715798 14.9102206,16.0489988 15.056086,16.1480766 C15.918135,16.7332916 16.7612096,17.3467578 17.6107078,17.9508733 C17.7068643,18.019213 17.799562,18.0930239 17.898881,18.1562904 C18.2098827,18.3543464 18.529581,18.4337279 18.7818808,18.0860606 C19.0401101,17.7303358 18.9294262,17.4145007 18.5953983,17.1679006 C17.5984535,16.4315821 16.5988404,15.6989441 15.6004132,14.9647146 C15.4895317,14.883244 15.3521652,14.8197786 15.277256,14.7126434 C15.2105492,14.6171468 15.2134151,14.4726087 15.1856454,14.3496568 C15.2951433,14.3250863 15.4193661,14.2553539 15.510779,14.285694 C15.6733459,14.3398087 15.823362,14.4441586 15.9657685,14.5455243 C16.9750665,15.2643351 17.9847597,15.9827481 18.9863493,16.7121033 C19.3771027,16.9967031 19.7554041,17.1347753 20.1290608,16.7127002 C20.4493521,16.3508079 20.3937137,15.9339056 19.939416,15.5314272 C18.2749094,14.0560048 16.6074381,12.5836661 14.9241549,11.1300288 C14.2528378,10.5503844 13.2999689,10.8582615 13.0588363,11.7214114 C12.8331204,12.5291535 12.3693355,13.1078032 11.5564025,13.3035712 C11.2617068,13.3744973 10.8990197,13.2900425 10.6052135,13.1769387 C10.4665623,13.1235203 10.3199062,12.820816 10.344316,12.6561838 C10.4354325,12.0405292 10.5828791,11.4319374 10.7351682,10.827424 C10.8249999,10.4711023 10.9639476,10.1274141 11.1083307,9.69529196 L9.42722158,9.69529196 C9.4881965,9.09048018 9.75660472,8.87312595 10.2891717,8.92375904 C10.6784427,8.96076397 11.0790785,8.97150734 11.4653848,8.9214711 C12.0557643,8.84497435 12.6616593,8.77434666 13.2185372,8.57867811 C14.1881076,8.23777516 15.1336635,8.26692151 16.1055068,8.51481476 C16.7486588,8.67875059 17.4067333,8.78379684 18.048897,8.95081641 C18.2251017,8.99667467 18.438761,9.13534369 18.5158443,9.29132146 C19.2848991,10.8454291 20.0318172,12.4107775 20.774881,13.9778169 C20.836943,14.1088263 20.8967321,14.3214057 20.8356583,14.4175987 C20.5089434,14.9324845 20.6481876,15.3958419 20.8518656,15.9134136 C21.09705,16.5364294 20.714005,17.2449942 20.037549,17.4430502 C19.687808,17.5455101 19.5486626,17.711137 19.461005,18.0508463 C19.2767955,18.7646833 18.6849336,18.9193679 18.0602619,18.9603519 C17.6554754,20.0072333 17.2582984,20.1889753 16.1940539,19.881894 C16.0596521,19.843198 15.8728732,19.9614745 15.7182124,20.0261337 C15.3708431,20.1714675 14.9707014,20.524805 14.6955731,20.4426381 C14.0235642,20.2417968 13.689141,20.5784223 13.3329764,20.9999005 C13.1756472,21 13.0186146,21 12.8613843,21 Z" id="Fill-1" fill="#FFFFFF"></path>
            </g>
        </g>
    </g>
</svg>