<?xml version="1.0" encoding="UTF-8"?>
<svg width="32px" height="32px" viewBox="0 0 32 32" version="1.1" xmlns="http://www.w3.org/2000/svg" xmlns:xlink="http://www.w3.org/1999/xlink">
    <!-- Generator: Sketch 53 (72520) - https://sketchapp.com -->
    <title>尾矿库</title>
    <desc>Created with Sketch.</desc>
    <defs>
        <path d="M14,28 C10.2604653,28 6.74475408,26.5437515 4.10050675,23.8994937 C1.4562489,21.2552459 0,17.7395347 0,14 C0,10.2604653 1.4562489,6.74475408 4.10050675,4.10050675 C6.74475408,1.4562489 10.2604653,0 14,0 C17.7395347,0 21.2552459,1.4562489 23.8994937,4.10050675 C26.5437515,6.74475408 28,10.2604653 28,14 C28,17.7395347 26.5437515,21.2552459 23.8994937,23.8994937 C21.2552459,26.5437515 17.7395347,28 14,28 Z" id="path-1"></path>
        <filter x="-10.7%" y="-10.7%" width="121.4%" height="121.4%" filterUnits="objectBoundingBox" id="filter-2">
            <feMorphology radius="0.5" operator="dilate" in="SourceAlpha" result="shadowSpreadOuter1"></feMorphology>
            <feOffset dx="0" dy="0" in="shadowSpreadOuter1" result="shadowOffsetOuter1"></feOffset>
            <feGaussianBlur stdDeviation="0.5" in="shadowOffsetOuter1" result="shadowBlurOuter1"></feGaussianBlur>
            <feComposite in="shadowBlurOuter1" in2="SourceAlpha" operator="out" result="shadowBlurOuter1"></feComposite>
            <feColorMatrix values="0 0 0 0 0   0 0 0 0 0   0 0 0 0 0  0 0 0 0.26 0" type="matrix" in="shadowBlurOuter1"></feColorMatrix>
        </filter>
    </defs>
    <g id="其他图标" stroke="none" stroke-width="1" fill="none" fill-rule="evenodd">
        <g id="玉董" transform="translate(-666.000000, -585.000000)">
            <g id="尾矿库" transform="translate(668.000000, 587.000000)">
                <g id="路径">
                    <use fill="black" fill-opacity="1" filter="url(#filter-2)" xlink:href="#path-1"></use>
                    <path stroke="#FFFFFF" stroke-width="1" d="M14,27.5 C17.6069329,27.5 20.9954649,26.0964254 23.545941,23.5459397 C26.0964254,20.9954649 27.5,17.6069329 27.5,14 C27.5,10.393067 26.0964253,7.0045351 23.5459397,4.45405947 C20.9954647,1.90357486 17.6069327,0.5 14,0.5 C10.3930672,0.5 7.00453524,1.9035749 4.45405944,4.45406084 C1.9035749,7.00453524 0.5,10.3930672 0.5,14 C0.5,17.6069327 1.90357486,20.9954647 4.45406083,23.5459411 C7.0045351,26.0964253 10.393067,27.5 14,27.5 Z" stroke-linejoin="square" fill="#E29707" fill-rule="evenodd"></path>
                </g>
                <path d="M19.7845926,23.381037 C19.5933872,23.3825621 19.4094345,23.3079363 19.2733333,23.1736296 C19.1389322,23.0397091 19.0641661,22.8572798 19.0659259,22.6675556 C19.0621401,22.3731261 19.2365857,22.1055762 19.5075239,21.99027 C19.7784621,21.8749638 20.0922141,21.934746 20.3017671,22.1416047 C20.5113201,22.3484635 20.5751572,22.6614157 20.4633665,22.9338232 C20.3515759,23.2062307 20.0863056,23.3841238 19.7918519,23.3841481 L19.7845926,23.381037 Z M8.20192593,23.381037 C8.01049258,23.3821555 7.8263668,23.3076107 7.68962963,23.1736296 C7.55532802,23.0396428 7.48057983,22.8572572 7.48222222,22.6675556 C7.47843639,22.3731261 7.65288204,22.1055762 7.9238202,21.99027 C8.19475836,21.8749638 8.50851043,21.934746 8.71806343,22.1416047 C8.92761644,22.3484635 8.99145349,22.6614157 8.87966282,22.9338232 C8.76787216,23.2062307 8.50260189,23.3841238 8.20814815,23.3841481 L8.20192593,23.381037 Z M6.27822222,20.1060741 L4.88133333,17.0291852 L23.1093333,17.0291852 L21.7114074,20.1060741 L6.27822222,20.1060741 Z M22.958963,15.1853333 L5.10222222,15.1853333 L8.0162963,7.59940741 L10.333037,7.59940741 L11.7257778,8.80651852 C11.899824,8.95338353 12.1202691,9.033846 12.348,9.03362963 C12.3687407,9.03362963 12.4008889,9.03362963 12.432,9.03362963 C12.6875006,9.00596121 12.9200143,8.87336454 13.0739259,8.66755556 L15.9942222,4.86681481 L21.4407407,6.44103704 L22.958963,15.1822222 L22.958963,15.1822222 L22.958963,15.1853333 Z M9.13318519,12.8851852 C9.13318519,13.411533 9.5598744,13.8382222 10.0862222,13.8382222 C10.61257,13.8382222 11.0392593,13.411533 11.0392593,12.8851852 C11.0396032,12.6349775 10.9394711,12.3951088 10.7613333,12.2194074 C10.4892026,11.9490851 10.0817558,11.8677856 9.72671808,12.0129666 C9.37168038,12.1581477 9.13793832,12.5016403 9.13318519,12.8851852 L9.13318519,12.8851852 Z M17.0447407,11.6614815 L17.9977778,12.5688889 C18.3527434,12.901456 18.9048862,12.901456 19.2598519,12.5688889 C19.2702222,12.5595556 19.2805926,12.5491852 19.290963,12.5388148 C19.4459231,12.3786635 19.5299386,12.1629048 19.5240864,11.9401339 C19.5182343,11.7173631 19.4230067,11.506313 19.2598519,11.3545185 L17.6752593,9.84459259 C17.3199476,9.51188968 16.7674598,9.51188968 16.4121481,9.84459259 L14.8317037,11.3534815 C14.6631493,11.5104202 14.567416,11.7303618 14.567416,11.9606667 C14.567416,12.1909716 14.6631493,12.4109131 14.8317037,12.5678519 C15.1869556,12.9017165 15.7406,12.9017165 16.0958519,12.5678519 L17.0468148,11.6614815 L17.0468148,11.6614815 L17.0447407,11.6614815 Z" id="Fill_1" fill="#FFFFFF" fill-rule="nonzero"></path>
            </g>
        </g>
    </g>
</svg>