<?xml version="1.0" encoding="UTF-8"?>
<svg width="32px" height="32px" viewBox="0 0 32 32" version="1.1" xmlns="http://www.w3.org/2000/svg" xmlns:xlink="http://www.w3.org/1999/xlink">
    <!-- Generator: Sketch 53 (72520) - https://sketchapp.com -->
    <title>库区（库）</title>
    <desc>Created with Sketch.</desc>
    <defs>
        <path d="M14,28 C10.2604653,28 6.74475408,26.5437515 4.10050675,23.8994937 C1.4562489,21.2552459 0,17.7395347 0,14 C0,10.2604653 1.4562489,6.74475408 4.10050675,4.10050675 C6.74475408,1.4562489 10.2604653,0 14,0 C17.7395347,0 21.2552459,1.4562489 23.8994937,4.10050675 C26.5437515,6.74475408 28,10.2604653 28,14 C28,17.7395347 26.5437515,21.2552459 23.8994937,23.8994937 C21.2552459,26.5437515 17.7395347,28 14,28 Z" id="path-1"></path>
        <filter x="-10.7%" y="-10.7%" width="121.4%" height="121.4%" filterUnits="objectBoundingBox" id="filter-2">
            <feMorphology radius="0.5" operator="dilate" in="SourceAlpha" result="shadowSpreadOuter1"></feMorphology>
            <feOffset dx="0" dy="0" in="shadowSpreadOuter1" result="shadowOffsetOuter1"></feOffset>
            <feGaussianBlur stdDeviation="0.5" in="shadowOffsetOuter1" result="shadowBlurOuter1"></feGaussianBlur>
            <feComposite in="shadowBlurOuter1" in2="SourceAlpha" operator="out" result="shadowBlurOuter1"></feComposite>
            <feColorMatrix values="0 0 0 0 0   0 0 0 0 0   0 0 0 0 0  0 0 0 0.26 0" type="matrix" in="shadowBlurOuter1"></feColorMatrix>
        </filter>
    </defs>
    <g id="其他图标" stroke="none" stroke-width="1" fill="none" fill-rule="evenodd">
        <g id="玉董" transform="translate(-666.000000, -257.000000)">
            <g id="库区（库）" transform="translate(668.000000, 259.000000)">
                <g id="路径">
                    <use fill="black" fill-opacity="1" filter="url(#filter-2)" xlink:href="#path-1"></use>
                    <path stroke="#FFFFFF" stroke-width="1" d="M14,27.5 C17.6069329,27.5 20.9954649,26.0964254 23.545941,23.5459397 C26.0964254,20.9954649 27.5,17.6069329 27.5,14 C27.5,10.393067 26.0964253,7.0045351 23.5459397,4.45405947 C20.9954647,1.90357486 17.6069327,0.5 14,0.5 C10.3930672,0.5 7.00453524,1.9035749 4.45405944,4.45406084 C1.9035749,7.00453524 0.5,10.3930672 0.5,14 C0.5,17.6069327 1.90357486,20.9954647 4.45406083,23.5459411 C7.0045351,26.0964253 10.393067,27.5 14,27.5 Z" stroke-linejoin="square" fill="#E29707" fill-rule="evenodd"></path>
                </g>
                <path d="M23.3333333,21.7777778 L21.2592593,21.7777778 L21.2592593,10.3703704 L6.74074074,10.3703704 L6.74074074,21.7777778 L4.66666667,21.7777778 L4.66666667,8.2962963 L14,3.11111111 L23.3333333,8.2962963 L23.3333333,21.7777778 Z M19.1914074,21.7777778 L17.1173333,21.7777778 L17.1173333,18.6573333 L19.1914074,18.6573333 L19.1914074,21.7777778 Z M15.0505185,21.7777778 L12.9505185,21.7777778 L12.9505185,18.6573333 L15.0505185,18.6573333 L15.0505185,21.7777778 Z M10.8795556,21.7777778 L8.80548148,21.7777778 L8.80548148,18.6573333 L10.8795556,18.6573333 L10.8795556,21.7777778 Z M19.1924444,16.5863704 L17.1183704,16.5863704 L17.1183704,13.494963 L19.1924444,13.494963 L19.1924444,16.5863704 Z M15.0515556,16.5863704 L12.9505185,16.5863704 L12.9505185,13.494963 L15.0505185,13.494963 L15.0505185,16.5863704 L15.0515556,16.5863704 Z M10.8805926,16.5863704 L8.80651852,16.5863704 L8.80651852,13.494963 L10.8805926,13.494963 L10.8805926,16.5863704 Z" id="Fill_1" fill="#FFFFFF" fill-rule="nonzero"></path>
            </g>
        </g>
    </g>
</svg>