<?xml version="1.0" encoding="UTF-8"?>
<svg width="32px" height="32px" viewBox="0 0 32 32" version="1.1" xmlns="http://www.w3.org/2000/svg" xmlns:xlink="http://www.w3.org/1999/xlink">
    <!-- Generator: Sketch 53 (72520) - https://sketchapp.com -->
    <title>应急物资储备库</title>
    <desc>Created with Sketch.</desc>
    <defs>
        <rect id="path-1" x="0" y="0" width="28" height="28" rx="14"></rect>
        <filter x="-10.7%" y="-10.7%" width="121.4%" height="121.4%" filterUnits="objectBoundingBox" id="filter-2">
            <feMorphology radius="0.5" operator="dilate" in="SourceAlpha" result="shadowSpreadOuter1"></feMorphology>
            <feOffset dx="0" dy="0" in="shadowSpreadOuter1" result="shadowOffsetOuter1"></feOffset>
            <feGaussianBlur stdDeviation="0.5" in="shadowOffsetOuter1" result="shadowBlurOuter1"></feGaussianBlur>
            <feComposite in="shadowBlurOuter1" in2="SourceAlpha" operator="out" result="shadowBlurOuter1"></feComposite>
            <feColorMatrix values="0 0 0 0 0   0 0 0 0 0   0 0 0 0 0  0 0 0 0.26 0" type="matrix" in="shadowBlurOuter1"></feColorMatrix>
        </filter>
    </defs>
    <g id="其他图标" stroke="none" stroke-width="1" fill="none" fill-rule="evenodd">
        <g id="应急保障资源" transform="translate(-347.000000, -677.000000)">
            <g id="应急物资储备库" transform="translate(349.000000, 679.000000)">
                <g id="分组-4" transform="translate(4.000000, 6.000000)"></g>
                <g id="矩形">
                    <use fill="black" fill-opacity="1" filter="url(#filter-2)" xlink:href="#path-1"></use>
                    <rect stroke="#FFFFFF" stroke-width="1" stroke-linejoin="square" fill="#15D0A2" fill-rule="evenodd" x="0.5" y="0.5" width="27" height="27" rx="13.5"></rect>
                </g>
                <path d="M7.98,19.4934615 L19.92,19.4934615 L19.92,18.2919231 L7.98,18.2919231 L7.98,19.4934615 Z M20.8246154,12.1588462 C20.8246154,12.2957692 20.7130769,12.4088462 20.5769231,12.4088462 L17.9907692,12.4088462 C17.8546154,12.4088462 17.7430769,12.2957692 17.7430769,12.1588462 L17.7430769,11.3419231 C17.7430769,11.2042308 17.8546154,11.0919231 17.9907692,11.0919231 L20.5769231,11.0919231 C20.7130769,11.0919231 20.8246154,11.2042308 20.8246154,11.3419231 L20.8246154,12.1588462 Z M15.9861538,12.1588462 C15.9861538,12.2957692 15.8738462,12.4088462 15.7376923,12.4088462 L12.52,12.4088462 C12.3838462,12.4088462 12.2715385,12.2957692 12.2715385,12.1588462 L12.2715385,11.3419231 C12.2715385,11.2042308 12.3838462,11.0919231 12.52,11.0919231 L15.7376923,11.0919231 C15.8738462,11.0919231 15.9861538,11.2042308 15.9861538,11.3419231 L15.9861538,12.1588462 Z M10.3684615,12.1834615 C10.3684615,12.2842308 10.3684615,12.3842308 10.1692308,12.3842308 L7.38307692,12.3842308 C7.28307692,12.3842308 7.18384615,12.3842308 7.18384615,12.1834615 L7.18384615,11.2826923 C7.18384615,11.1826923 7.28307692,11.0826923 7.38307692,11.0826923 L10.1692308,11.0826923 C10.2684615,11.0826923 10.3684615,11.1826923 10.3684615,11.2826923 L10.3684615,12.1834615 Z M23.6023077,10.3811538 C20.5176923,8.87961538 17.4330769,7.47730769 14.3484615,6.075 C14.05,5.975 13.8507692,5.975 13.6515385,6.075 C10.6669231,7.47730769 7.68153846,8.77884615 4.69615385,10.1811538 C4.39846154,10.2811538 4.09923077,10.3811538 4,10.6819231 L4,11.9834615 C4.09923077,12.2842308 4,12.5842308 4.79615385,12.5842308 L5.39307692,12.5842308 L5.39307692,21.5965385 C5.39307692,21.8973077 5.49230769,22.1973077 5.69153846,22.4980769 C5.89076923,22.6980769 6.18923077,22.8980769 6.48769231,22.8980769 L7.28307692,22.8980769 L7.28307692,15.1880769 L20.8161538,15.1880769 L20.8161538,22.8980769 C21.2138462,22.8980769 21.6115385,22.9988462 22.01,22.7980769 C22.4076923,22.5980769 22.7061538,22.0973077 22.7061538,21.5965385 L22.7061538,12.4842308 L23.4030769,12.4842308 C23.8007692,12.4842308 24,12.2842308 24,11.8834615 L24,10.9819231 C24,10.6819231 23.9007692,10.4811538 23.6023077,10.3811538 L23.6023077,10.3811538 Z M7.98,21.3965385 L19.92,21.3965385 L19.92,20.195 L7.98,20.195 L7.98,21.3965385 Z M7.98,17.4911538 L19.92,17.4911538 L19.92,16.2896154 L7.98,16.2896154 L7.98,17.4911538 Z" id="Fill-1" fill="#FFFFFF"></path>
            </g>
        </g>
    </g>
</svg>