<?xml version="1.0" encoding="UTF-8"?>
<svg width="32px" height="32px" viewBox="0 0 32 32" version="1.1" xmlns="http://www.w3.org/2000/svg" xmlns:xlink="http://www.w3.org/1999/xlink">
    <!-- Generator: Sketch 53 (72520) - https://sketchapp.com -->
    <title>应急广播系统</title>
    <desc>Created with Sketch.</desc>
    <defs>
        <rect id="path-1" x="0" y="0" width="28" height="28" rx="14"></rect>
        <filter x="-10.7%" y="-10.7%" width="121.4%" height="121.4%" filterUnits="objectBoundingBox" id="filter-2">
            <feMorphology radius="0.5" operator="dilate" in="SourceAlpha" result="shadowSpreadOuter1"></feMorphology>
            <feOffset dx="0" dy="0" in="shadowSpreadOuter1" result="shadowOffsetOuter1"></feOffset>
            <feGaussianBlur stdDeviation="0.5" in="shadowOffsetOuter1" result="shadowBlurOuter1"></feGaussianBlur>
            <feComposite in="shadowBlurOuter1" in2="SourceAlpha" operator="out" result="shadowBlurOuter1"></feComposite>
            <feColorMatrix values="0 0 0 0 0   0 0 0 0 0   0 0 0 0 0  0 0 0 0.26 0" type="matrix" in="shadowBlurOuter1"></feColorMatrix>
        </filter>
    </defs>
    <g id="其他图标" stroke="none" stroke-width="1" fill="none" fill-rule="evenodd">
        <g id="玉董" transform="translate(-384.000000, -165.000000)">
            <g id="应急广播系统" transform="translate(386.000000, 167.000000)">
                <g id="矩形">
                    <use fill="black" fill-opacity="1" filter="url(#filter-2)" xlink:href="#path-1"></use>
                    <rect stroke="#FFFFFF" stroke-width="1" stroke-linejoin="square" fill="#68AE05" fill-rule="evenodd" x="0.5" y="0.5" width="27" height="27" rx="13.5"></rect>
                </g>
                <path d="M14.2328887,7.34094334 C13.1525983,8.20907379 10.8916124,9.42894881 9.26639332,10.6010477 L9.26419467,10.6025531 C9.24513969,10.6130116 9.22685722,10.6793078 9.20851532,10.6890136 C9.01590556,10.7999761 8.94618257,10.9281714 7.90322964,10.9281714 L6.16128393,10.9281714 C5.63974805,10.9281714 5,11.5298887 5,12.0895147 L5,17.3152726 C5,17.8734527 5.61269077,17.895974 6.16128393,17.895974 L7.90322964,17.895974 C8.92318587,18.0385892 9.01370691,18.0456011 9.20776262,18.1278227 C9.22610453,18.1382812 9.24510008,18.2023194 9.26344198,18.2142238 L9.26564063,18.2157292 C10.8403502,19.3885808 13.1159541,20.7039089 14.2314427,21.5362073 C14.5668855,21.788042 15.4516148,22.3520653 15.4516148,20.7992036 L15.4516148,8.02494172 C15.4516148,6.46910885 14.56025,7.07641194 14.2328887,7.34094334 Z M22.419358,13.831401 L18.3548445,13.831401 C17.9607511,13.831401 17.7742025,14.0119281 17.7742025,14.4121024 C17.7742025,14.8137425 17.9607709,14.9927444 18.3548445,14.9927444 L22.419358,14.9927444 C22.8134514,14.9927444 23,14.8137227 23,14.4121024 C23,14.0119281 22.8134316,13.831401 22.419358,13.831401 L22.419358,13.831401 Z M21.241659,7.75776972 L18.0387786,10.2601341 C17.7282288,10.5027622 17.69237,10.7598703 17.9387419,11.075212 C18.1860163,11.3917087 18.4432387,11.4179011 18.7537729,11.1752852 L21.9566533,8.67292077 C22.2672031,8.43029267 22.3039887,8.17437085 22.0567266,7.85788977 C21.8103547,7.54254811 21.5521932,7.51515381 21.241659,7.75776972 L21.241659,7.75776972 Z M18.7220706,17.6201423 L21.924951,20.1225068 C22.2355008,20.3651348 22.2713595,20.6222429 22.0249876,20.9375846 C21.7777133,21.2540813 21.5204908,21.2802737 21.2099566,21.0376578 L18.0070762,18.5352934 C17.6965264,18.2926653 17.6597409,18.0367435 17.907003,17.7202624 C18.1533749,17.4049207 18.4115364,17.3775264 18.7220706,17.6201423 L18.7220706,17.6201423 Z" id="形状" fill="#FFFFFF" fill-rule="nonzero"></path>
            </g>
        </g>
    </g>
</svg>