<?xml version="1.0" encoding="UTF-8"?>
<svg width="32px" height="32px" viewBox="0 0 32 32" version="1.1" xmlns="http://www.w3.org/2000/svg" xmlns:xlink="http://www.w3.org/1999/xlink">
    <!-- Generator: Sketch 53 (72520) - https://sketchapp.com -->
    <title>应急物资装备生产经营企业</title>
    <desc>Created with Sketch.</desc>
    <defs>
        <rect id="path-1" x="0" y="0" width="28" height="28" rx="14"></rect>
        <filter x="-10.7%" y="-10.7%" width="121.4%" height="121.4%" filterUnits="objectBoundingBox" id="filter-2">
            <feMorphology radius="0.5" operator="dilate" in="SourceAlpha" result="shadowSpreadOuter1"></feMorphology>
            <feOffset dx="0" dy="0" in="shadowSpreadOuter1" result="shadowOffsetOuter1"></feOffset>
            <feGaussianBlur stdDeviation="0.5" in="shadowOffsetOuter1" result="shadowBlurOuter1"></feGaussianBlur>
            <feComposite in="shadowBlurOuter1" in2="SourceAlpha" operator="out" result="shadowBlurOuter1"></feComposite>
            <feColorMatrix values="0 0 0 0 0   0 0 0 0 0   0 0 0 0 0  0 0 0 0.26 0" type="matrix" in="shadowBlurOuter1"></feColorMatrix>
        </filter>
    </defs>
    <g id="其他图标" stroke="none" stroke-width="1" fill="none" fill-rule="evenodd">
        <g id="应急保障资源" transform="translate(-347.000000, -718.000000)">
            <g id="应急物资装备生产经营企业" transform="translate(349.000000, 720.000000)">
                <g id="矩形">
                    <use fill="black" fill-opacity="1" filter="url(#filter-2)" xlink:href="#path-1"></use>
                    <rect stroke="#FFFFFF" stroke-width="1" stroke-linejoin="square" fill="#15D0A2" fill-rule="evenodd" x="0.5" y="0.5" width="27" height="27" rx="13.5"></rect>
                </g>
                <path d="M15.0249592,15.0699414 L19.9746159,15.0699414 C20.1230801,15.0670298 20.2419045,14.9458289 20.241876,14.7973361 L20.241876,10.0454519 C20.2335184,9.90323142 20.117059,9.79143035 19.9746159,9.78888226 L15.0249592,9.78888226 C14.8784814,9.78876959 14.7580981,9.90443197 14.752354,10.0507971 L14.752354,14.8026813 C14.7552656,14.9511456 14.8764665,15.06997 15.0249592,15.0699414 Z M16.0031311,11.558144 C16.0059769,11.4087829 16.1263753,11.2883845 16.2757364,11.2855387 L18.7238387,11.2855387 C18.8743945,11.2855387 18.996444,11.4075882 18.996444,11.558144 L18.996444,12.0392122 L16.2757364,12.0392121 C16.2015461,12.0392692 16.1305372,12.0090856 16.079095,11.9556261 C16.0276529,11.9021666 16.0002217,11.8300497 16.0031311,11.7559164 L16.0031311,11.558144 Z M16.7300785,15.8343052 L12.0263012,15.8343052 C11.8757454,15.8343052 11.7536959,15.9563548 11.7536959,16.1069105 L11.7536959,21.104674 C11.7594915,21.2531352 11.8831029,21.3696152 12.0316464,21.3665889 L16.7407689,21.3665889 C16.8913247,21.3665889 17.0133742,21.2445393 17.0133742,21.0939836 L17.0133742,16.1015653 C17.0133742,15.9510096 16.8913247,15.82896 16.7407689,15.82896 L16.7300785,15.8343052 Z M15.7572519,17.8227202 C15.7572519,17.8950196 15.728531,17.9643579 15.6774076,18.0154813 C15.6262842,18.0666047 15.556946,18.0953255 15.4846466,18.0953255 L13.2824235,18.0953255 C13.1318678,18.0953255 13.0098183,17.973276 13.0098183,17.8227202 L13.0098183,17.6356382 C13.0097902,17.4841938 13.1310072,17.3606001 13.2824235,17.3576877 L15.4846466,17.3576877 C15.6340077,17.3605334 15.7544061,17.4809319 15.7572519,17.630293 L15.7572519,17.8227202 Z M22.7060139,15.82896 L18.0129269,15.82896 C17.8623712,15.82896 17.7403216,15.9510096 17.7403216,16.1015653 L17.7403216,21.0993288 C17.7461173,21.24779 17.8697286,21.36427 18.0182721,21.3612437 L22.7273947,21.3612437 C22.8779505,21.3612437 23,21.2391941 23,21.0886384 L23,16.1015653 C23,15.9510096 22.8779505,15.82896 22.7273947,15.82896 L22.7060139,15.82896 Z M21.727842,17.8227202 C21.727842,17.973276 21.6057925,18.0953255 21.4552367,18.0953255 L19.2583589,18.0953255 C19.1078032,18.0953255 18.9857536,17.973276 18.9857536,17.8227202 L18.9857536,17.6356382 C18.9885994,17.4862771 19.1089978,17.3658786 19.2583589,17.3630329 L21.4605819,17.3630329 C21.6099431,17.3658786 21.7303415,17.4862771 21.7331872,17.6356382 L21.727842,17.8227202 Z M19.4603703,9.11965681 C19.0195147,9.08282092 18.5247226,9.04147835 17.9759941,8.9956291 L16.8416096,8.9956291 L13.7097207,6.2004532 L8.455757,10.7676542 L8.455757,19.6393207 L10.4993559,19.6393207 L10.4993559,21.2906632 L8.455757,21.2906632 L8.455757,21.295617 L6.80441441,21.295617 L6.80441441,12.2031444 L6.08337822,12.8299316 L5,11.5836475 L13.7239885,4 L19.4603703,9.11965681 Z M9.58686314,11.3957359 L12.2290113,11.3957359 L12.2290113,14.037884 L9.58686314,14.037884 L9.58686314,11.3957359 Z" id="合并形状" fill="#FFFFFF" fill-rule="nonzero"></path>
            </g>
        </g>
    </g>
</svg>