<?xml version="1.0" encoding="UTF-8"?>
<svg width="32px" height="32px" viewBox="0 0 32 32" version="1.1" xmlns="http://www.w3.org/2000/svg" xmlns:xlink="http://www.w3.org/1999/xlink">
    <!-- Generator: Sketch 53 (72520) - https://sketchapp.com -->
    <title>放射源</title>
    <desc>Created with Sketch.</desc>
    <defs>
        <path d="M14,28 C10.2604653,28 6.74475408,26.5437515 4.10050675,23.8994937 C1.4562489,21.2552459 0,17.7395347 0,14 C0,10.2604653 1.4562489,6.74475408 4.10050675,4.10050675 C6.74475408,1.4562489 10.2604653,0 14,0 C17.7395347,0 21.2552459,1.4562489 23.8994937,4.10050675 C26.5437515,6.74475408 28,10.2604653 28,14 C28,17.7395347 26.5437515,21.2552459 23.8994937,23.8994937 C21.2552459,26.5437515 17.7395347,28 14,28 Z" id="path-1"></path>
        <filter x="-10.7%" y="-10.7%" width="121.4%" height="121.4%" filterUnits="objectBoundingBox" id="filter-2">
            <feMorphology radius="0.5" operator="dilate" in="SourceAlpha" result="shadowSpreadOuter1"></feMorphology>
            <feOffset dx="0" dy="0" in="shadowSpreadOuter1" result="shadowOffsetOuter1"></feOffset>
            <feGaussianBlur stdDeviation="0.5" in="shadowOffsetOuter1" result="shadowBlurOuter1"></feGaussianBlur>
            <feComposite in="shadowBlurOuter1" in2="SourceAlpha" operator="out" result="shadowBlurOuter1"></feComposite>
            <feColorMatrix values="0 0 0 0 0   0 0 0 0 0   0 0 0 0 0  0 0 0 0.26 0" type="matrix" in="shadowBlurOuter1"></feColorMatrix>
        </filter>
    </defs>
    <g id="其他图标" stroke="none" stroke-width="1" fill="none" fill-rule="evenodd">
        <g id="玉董" transform="translate(-926.000000, -74.000000)">
            <g id="放射源" transform="translate(928.000000, 76.000000)">
                <g id="路径">
                    <use fill="black" fill-opacity="1" filter="url(#filter-2)" xlink:href="#path-1"></use>
                    <path stroke="#FFFFFF" stroke-width="1" d="M14,27.5 C17.6069329,27.5 20.9954649,26.0964254 23.545941,23.5459397 C26.0964254,20.9954649 27.5,17.6069329 27.5,14 C27.5,10.393067 26.0964253,7.0045351 23.5459397,4.45405947 C20.9954647,1.90357486 17.6069327,0.5 14,0.5 C10.3930672,0.5 7.00453524,1.9035749 4.45405944,4.45406084 C1.9035749,7.00453524 0.5,10.3930672 0.5,14 C0.5,17.6069327 1.90357486,20.9954647 4.45406083,23.5459411 C7.0045351,26.0964253 10.393067,27.5 14,27.5 Z" stroke-linejoin="square" fill="#E29707" fill-rule="evenodd"></path>
                </g>
                <path d="M18.9000151,23.3350302 L18.9000151,23.3350302 L15.4080151,17.3350302 C16.3040828,16.8425034 16.8623235,15.9025303 16.8660151,14.8800302 L24.0000267,14.8800302 C24.0027771,16.6368236 23.509903,18.3587634 22.5780151,19.8480302 C21.6618528,21.2982635 20.3974785,22.4962907 18.9000151,23.3330302 L18.9000151,23.3350302 Z M9.10701511,23.3350302 L9.10701511,23.3350302 C7.60737698,22.4971475 6.34151759,21.2969532 5.42501511,19.8440302 C4.49171066,18.354503 3.99777582,16.6317969 4.00000753,14.8740302 L11.1480151,14.8740302 C11.1538879,15.8943284 11.7087152,16.8324145 12.6000151,17.3290302 L9.10901511,23.3290302 L9.10701511,23.3350302 Z M14.0070151,16.9880302 C12.8435381,16.973162 11.9110301,16.020455 11.9210943,14.8569265 C11.9311585,13.6933981 12.8800071,12.7569644 14.0435672,12.7622243 C15.2071273,12.7674843 16.1474708,13.7124583 16.1470151,14.8760302 C16.1371126,16.0491107 15.1801215,16.9931333 14.0070151,16.9870302 L14.0070151,16.9880302 Z M12.5260151,12.4550302 L12.5260151,12.4550302 L8.96301511,6.34403023 C10.4983554,5.46378301 12.2372397,5.00044825 14.0070151,5.00003023 C15.7736188,4.99568671 17.5098437,5.45941609 19.0390151,6.34403023 L15.4390151,12.4320302 C15.0013287,12.1852856 14.5074612,12.0554474 14.0050151,12.0550302 C13.4847938,12.05604 12.9740073,12.1939972 12.5240151,12.4550302 L12.5260151,12.4550302 Z" id="Fill_1" fill="#FFFFFF" fill-rule="nonzero"></path>
            </g>
        </g>
    </g>
</svg>