<?xml version="1.0" encoding="UTF-8"?>
<svg width="32px" height="32px" viewBox="0 0 32 32" version="1.1" xmlns="http://www.w3.org/2000/svg" xmlns:xlink="http://www.w3.org/1999/xlink">
    <!-- Generator: Sketch 53 (72520) - https://sketchapp.com -->
    <title>新闻广播机构</title>
    <desc>Created with Sketch.</desc>
    <defs>
        <rect id="path-1" x="0" y="0" width="28" height="28" rx="14"></rect>
        <filter x="-10.7%" y="-10.7%" width="121.4%" height="121.4%" filterUnits="objectBoundingBox" id="filter-2">
            <feMorphology radius="0.5" operator="dilate" in="SourceAlpha" result="shadowSpreadOuter1"></feMorphology>
            <feOffset dx="0" dy="0" in="shadowSpreadOuter1" result="shadowOffsetOuter1"></feOffset>
            <feGaussianBlur stdDeviation="0.5" in="shadowOffsetOuter1" result="shadowBlurOuter1"></feGaussianBlur>
            <feComposite in="shadowBlurOuter1" in2="SourceAlpha" operator="out" result="shadowBlurOuter1"></feComposite>
            <feColorMatrix values="0 0 0 0 0   0 0 0 0 0   0 0 0 0 0  0 0 0 0.26 0" type="matrix" in="shadowBlurOuter1"></feColorMatrix>
        </filter>
    </defs>
    <g id="其他图标" stroke="none" stroke-width="1" fill="none" fill-rule="evenodd">
        <g id="玉董" transform="translate(-1227.000000, -164.000000)">
            <g id="新闻广播机构" transform="translate(1229.000000, 166.000000)">
                <g id="矩形-copy-5" transform="translate(14.000000, 14.000000) scale(-1, 1) translate(-14.000000, -14.000000) ">
                    <use fill="black" fill-opacity="1" filter="url(#filter-2)" xlink:href="#path-1"></use>
                    <rect stroke="#FFFFFF" stroke-width="1" stroke-linejoin="square" fill="#237FD3" fill-rule="evenodd" x="0.5" y="0.5" width="27" height="27" rx="13.5"></rect>
                </g>
                <path d="M17.77443,8.00672214 C17.5418567,8.30567079 17.5418567,8.78271651 17.77443,9.08166516 C18.3681759,9.85912736 18.3681759,11.0847679 17.77443,11.8622301 C17.5418567,12.1611787 17.5418567,12.6382245 17.77443,12.9376624 C17.8827036,13.0766172 18.0312378,13.1558802 18.1864169,13.1578373 C18.341987,13.1602837 18.4913029,13.0844457 18.6023127,12.9479372 L18.6105212,12.9371731 C19.6631596,11.5588779 19.6631596,9.38599586 18.6105212,8.00721142 C18.500684,7.86874584 18.3513681,7.78997214 18.1950163,7.78948286 C18.0390554,7.78850431 17.8889577,7.86581018 17.7783388,8.00378648 L17.77443,8.00672214 Z M13.9610363,13.3530866 C14.4346355,13.3521017 14.9010372,13.230959 15.3184955,13 L18.9,22.8421053 L17.2004168,22.8421053 L16.242182,21.6666272 L11.6827695,21.6666272 L10.6995832,22.8421053 L9,22.8421053 L12.5925407,13 C13.0128781,13.2324364 13.4831185,13.3535791 13.9610363,13.3530866 Z M11.7,20.1578947 L16.2,20.1578947 L15.0748817,19.2631579 L12.824645,19.2631579 L11.7,20.1578947 Z M13.9357955,13.8947368 L12.6,18.3684211 L15.3,18.3684211 L13.9357955,13.8947368 Z M21.4834317,6.23743841 C21.3596237,6.09053007 21.1895579,6.00483354 21.0099683,6.00024266 C20.8303788,5.99514167 20.6562313,6.07063623 20.5260742,6.21040319 L20.5020383,6.23743841 C20.2326539,6.55880039 20.2326539,7.06124731 20.5020383,7.38260929 C21.9682328,9.11490343 21.9682328,11.8378086 20.5020383,13.5701028 C20.2326539,13.8914648 20.2326539,14.3939117 20.5020383,14.7152737 C20.6335559,14.8637123 20.8117849,14.9473684 20.9977236,14.9473684 C21.1836623,14.9473684 21.3623448,14.8637123 21.4938624,14.7152737 C22.4648251,13.5757138 23.0049543,12.0556206 22.9999657,10.476356 C22.9958842,8.89658132 22.4525804,7.3790386 21.4834317,6.23743841 L21.4834317,6.23743841 Z M13.9937831,12.2631487 C14.7222871,12.2654615 15.380456,11.8311141 15.6613307,11.1627095 C15.9417395,10.4943048 15.7889586,9.72367354 15.2747205,9.21069031 C14.7604824,8.69770708 13.9858646,8.54321078 13.3127903,8.81982392 C12.6392501,9.09643706 12.2000051,9.74957712 12.2000051,10.4734894 C12.1976761,11.4592129 12.99931,12.2599108 13.9909884,12.2631487 L13.9937831,12.2631487 Z M7.50014296,6.23201424 C7.36901024,6.08330027 7.19023413,6 7.00419809,6 C6.81816204,6 6.63983969,6.08330027 6.50825321,6.23201424 C4.49724893,8.60326107 4.49724893,12.3384859 6.50825321,14.7092216 C6.63575597,14.8610019 6.81317083,14.9473684 6.99920688,14.9473684 C7.18478918,14.9473684 7.36220404,14.8610019 7.48970679,14.7092216 C7.75923219,14.3872636 7.75923219,13.8838847 7.48970679,13.5619266 C6.02274451,11.8264192 6.02274451,9.09846326 7.48970679,7.36295588 C7.76603838,7.05224078 7.77057585,6.54937292 7.50014296,6.23201424 L7.50014296,6.23201424 Z M10.2253187,12.9388354 C10.4582271,12.6395847 10.4582271,12.1633262 10.2253187,11.8640754 C9.63171479,11.0875883 9.63171479,9.86271399 10.2253187,9.08573784 C10.4582271,8.78648712 10.4582271,8.31022862 10.2253187,8.01146687 C10.1158986,7.86917608 9.96505522,7.78947368 9.80795926,7.78947368 C9.65008173,7.78947368 9.49923835,7.86917608 9.38981828,8.01146687 C8.87984259,8.67157876 8.59613198,9.55612869 8.60003984,10.4749066 C8.60043063,11.3931956 8.88335967,12.2753007 9.38981828,12.9388354 C9.50001992,13.0786813 9.65047252,13.1578947 9.80795926,13.1578947 C9.96466443,13.1578947 10.115117,13.0786813 10.2253187,12.9388354 L10.2253187,12.9388354 Z" id="Fill-1" fill="#FFFFFF"></path>
            </g>
        </g>
    </g>
</svg>