<?xml version="1.0" encoding="UTF-8"?>
<svg width="32px" height="32px" viewBox="0 0 32 32" version="1.1" xmlns="http://www.w3.org/2000/svg" xmlns:xlink="http://www.w3.org/1999/xlink">
    <!-- Generator: Sketch 53 (72520) - https://sketchapp.com -->
    <title>施工作业场所</title>
    <desc>Created with Sketch.</desc>
    <defs>
        <path d="M14,28 C10.2604653,28 6.74475408,26.5437515 4.10050675,23.8994937 C1.4562489,21.2552459 0,17.7395347 0,14 C0,10.2604653 1.4562489,6.74475408 4.10050675,4.10050675 C6.74475408,1.4562489 10.2604653,0 14,0 C17.7395347,0 21.2552459,1.4562489 23.8994937,4.10050675 C26.5437515,6.74475408 28,10.2604653 28,14 C28,17.7395347 26.5437515,21.2552459 23.8994937,23.8994937 C21.2552459,26.5437515 17.7395347,28 14,28 Z" id="path-1"></path>
        <filter x="-10.7%" y="-10.7%" width="121.4%" height="121.4%" filterUnits="objectBoundingBox" id="filter-2">
            <feMorphology radius="0.5" operator="dilate" in="SourceAlpha" result="shadowSpreadOuter1"></feMorphology>
            <feOffset dx="0" dy="0" in="shadowSpreadOuter1" result="shadowOffsetOuter1"></feOffset>
            <feGaussianBlur stdDeviation="0.5" in="shadowOffsetOuter1" result="shadowBlurOuter1"></feGaussianBlur>
            <feComposite in="shadowBlurOuter1" in2="SourceAlpha" operator="out" result="shadowBlurOuter1"></feComposite>
            <feColorMatrix values="0 0 0 0 0   0 0 0 0 0   0 0 0 0 0  0 0 0 0.26 0" type="matrix" in="shadowBlurOuter1"></feColorMatrix>
        </filter>
    </defs>
    <g id="其他图标" stroke="none" stroke-width="1" fill="none" fill-rule="evenodd">
        <g id="玉董" transform="translate(-926.000000, -216.000000)">
            <g id="施工作业场所" transform="translate(928.000000, 218.000000)">
                <g id="路径">
                    <use fill="black" fill-opacity="1" filter="url(#filter-2)" xlink:href="#path-1"></use>
                    <path stroke="#FFFFFF" stroke-width="1" d="M14,27.5 C17.6069329,27.5 20.9954649,26.0964254 23.545941,23.5459397 C26.0964254,20.9954649 27.5,17.6069329 27.5,14 C27.5,10.393067 26.0964253,7.0045351 23.5459397,4.45405947 C20.9954647,1.90357486 17.6069327,0.5 14,0.5 C10.3930672,0.5 7.00453524,1.9035749 4.45405944,4.45406084 C1.9035749,7.00453524 0.5,10.3930672 0.5,14 C0.5,17.6069327 1.90357486,20.9954647 4.45406083,23.5459411 C7.0045351,26.0964253 10.393067,27.5 14,27.5 Z" stroke-linejoin="square" fill="#E29707" fill-rule="evenodd"></path>
                </g>
                <path d="M14.31,5.456 C13.4208856,5.46756222 12.7083771,6.19566178 12.7160603,7.08481817 C12.7237435,7.97397457 13.4487277,8.68965274 14.3379092,8.68584868 C15.2270906,8.68204463 15.9459248,7.96018959 15.946,7.071 C15.9433566,6.63984626 15.7694733,6.2274176 15.4626329,5.92451583 C15.1557925,5.62161406 14.7411519,5.45307326 14.31,5.456 L14.31,5.456 Z M6.856,6.118 C6.43083112,6.11756094 6.05748565,6.40053473 5.943,6.81 L5.212,9.464 L4.674,9.039 C4.599413,8.98089115 4.50486692,8.95464832 4.411,8.966 C4.27225526,8.98407349 4.15771588,9.08326223 4.12,9.218 C4.08072519,9.35032244 4.12585433,9.49323139 4.234,9.579 L5.034,10.206 C5.03068209,10.4562787 5.12753169,10.6975026 5.303,10.876 C5.36483792,10.9413531 5.43592801,10.9972818 5.514,11.042 L5.077,11.468 C4.88783826,11.6544108 4.78215162,11.9094294 4.784,12.175 C4.784,12.175 4.812,16.021 4.815,16.29 L3.779,20.206 C3.67317047,20.5536838 3.76865358,20.9313811 4.027,21.187 C4.28698256,21.4462478 4.66651471,21.5452395 5.02,21.446 C5.36957083,21.3464239 5.6375844,21.0650097 5.72,20.711 L6.785,16.681 C6.80875373,16.5960296 6.82086428,16.5082281 6.821,16.42 C6.821,16.42 6.808,14.505 6.799,13.349 L9.193,16.249 L7.179,20.091 C7.05639175,20.3256315 7.03296947,20.599624 7.11397478,20.8516614 C7.19498009,21.1036987 7.37364985,21.3127385 7.61,21.432 C8.10500924,21.6820867 8.70911699,21.4894662 8.968,20.999 L11.282,16.573 C11.4639748,16.2219326 11.4178751,15.7960022 11.165,15.492 L10.742,14.978 C10.7806663,14.9267691 10.8141632,14.8718343 10.842,14.814 L10.849,14.805 L15.476,18.487 L11.156,21.459 L23.267,21.459 L17.667,17.018 L16.046,18.029 L11.184,14.177 L13.384,10.125 C13.5529829,9.82042124 13.5367544,9.44678045 13.342,9.158 L11.542,6.526 C11.3626619,6.26763192 11.0675046,6.11425489 10.753,6.116 L6.847,6.116 L6.856,6.118 Z M7.534,7.839 L8.763,7.847 L7.192,9.393 L7.534,7.839 Z M10.874,11.172 L9.689,12.996 L8.889,12.364 L10.874,11.172 Z" id="路径_14" fill="#FFFFFF" fill-rule="nonzero"></path>
            </g>
        </g>
    </g>
</svg>