<?xml version="1.0" encoding="UTF-8"?>
<svg width="32px" height="32px" viewBox="0 0 32 32" version="1.1" xmlns="http://www.w3.org/2000/svg" xmlns:xlink="http://www.w3.org/1999/xlink">
    <!-- Generator: Sketch 53 (72520) - https://sketchapp.com -->
    <title>施工安全@1x</title>
    <desc>Created with Sketch.</desc>
    <defs>
        <rect id="path-1" x="0" y="0" width="28" height="28" rx="14"></rect>
        <filter x="-10.7%" y="-10.7%" width="121.4%" height="121.4%" filterUnits="objectBoundingBox" id="filter-2">
            <feMorphology radius="0.5" operator="dilate" in="SourceAlpha" result="shadowSpreadOuter1"></feMorphology>
            <feOffset dx="0" dy="0" in="shadowSpreadOuter1" result="shadowOffsetOuter1"></feOffset>
            <feGaussianBlur stdDeviation="0.5" in="shadowOffsetOuter1" result="shadowBlurOuter1"></feGaussianBlur>
            <feComposite in="shadowBlurOuter1" in2="SourceAlpha" operator="out" result="shadowBlurOuter1"></feComposite>
            <feColorMatrix values="0 0 0 0 0   0 0 0 0 0   0 0 0 0 0  0 0 0 0.26 0" type="matrix" in="shadowBlurOuter1"></feColorMatrix>
        </filter>
    </defs>
    <g id="其他图标" stroke="none" stroke-width="1" fill="none" fill-rule="evenodd">
        <g id="突发事件" transform="translate(-248.000000, -152.000000)">
            <g id="施工安全" transform="translate(250.000000, 154.000000)">
                <g id="分组-8">
                    <g id="矩形-copy-5" transform="translate(14.000000, 14.000000) scale(-1, 1) translate(-14.000000, -14.000000) ">
                        <use fill="black" fill-opacity="1" filter="url(#filter-2)" xlink:href="#path-1"></use>
                        <rect stroke="#FFFFFF" stroke-width="1" stroke-linejoin="square" fill="#D90C0C" fill-rule="evenodd" x="0.5" y="0.5" width="27" height="27" rx="13.5"></rect>
                    </g>
                    <path d="M11.3116657,11.9229687 L10.0978333,13.8130043 L9.27877028,13.1582301 L11.3116657,11.9229687 Z M7.89160129,8.46909413 L9.15019643,8.47718953 L7.5420709,10.0786483 L7.89160129,8.46909413 Z M7.1977787,6.6862034 C6.75967521,6.687632 6.37681085,6.98097086 6.26299918,7.40288357 L5.51393745,10.1524592 L4.96249849,9.71292709 C4.88535418,9.65244976 4.7877333,9.62435399 4.69344581,9.63721138 C4.55058597,9.65578316 4.43201231,9.76054704 4.39486875,9.89864488 C4.354868,10.0381713 4.40153554,10.1819835 4.51201382,10.2724614 L5.32821967,10.9224737 C5.32345767,11.176288 5.42250716,11.4296261 5.60393915,11.6162963 C5.66965467,11.6853452 5.74156079,11.7443939 5.8201337,11.7882043 L5.37298242,12.2301174 C5.17916924,12.4234543 5.07154817,12.6882212 5.07297677,12.9620359 C5.07297677,12.9620359 5.10202493,16.9468729 5.10535833,17.2259258 L4.04390976,21.2831451 C3.93486009,21.6431518 4.03248097,22.0317306 4.29724787,22.2993547 C4.56153856,22.5660264 4.9529745,22.6717427 5.31345749,22.567455 C5.67441667,22.4636435 5.94680275,22.1726856 6.03204245,21.8064883 L7.12206299,17.6311715 C7.14634916,17.5430746 7.15920654,17.4525967 7.15920654,17.360214 C7.15920654,17.360214 7.14634916,15.3768433 7.13682517,14.1792017 L9.58829993,17.1830678 L7.52635632,21.1640952 C7.26635142,21.6688666 7.46064079,22.2936403 7.96731701,22.553169 C8.47208842,22.8146025 9.0973383,22.6107891 9.35734319,22.1055415 L11.7269116,17.5197408 C11.9126294,17.1535435 11.8664381,16.71544 11.6064332,16.3987673 L11.1735679,15.8668525 C11.21214,15.813042 11.2507122,15.7587553 11.2778556,15.6973255 L11.285951,15.6882778 L16.0236593,19.5035877 L11.6002426,22.5826934 L24,22.5826934 L18.2665587,17.9821305 L16.6074798,19.0292931 L11.6288146,15.0387417 L13.8864761,10.8405674 C14.0598127,10.5248471 14.0421934,10.1381732 13.843142,9.83911994 L12.0040597,7.11192571 C11.8216753,6.84620642 11.5202411,6.6862034 11.1959493,6.687632 L7.1977787,6.687632 L7.1977787,6.6862034 Z M14.829351,6 C13.9055241,6 13.15551,6.74858553 13.15551,7.67384106 C13.15551,8.59766799 13.9055241,9.34720592 14.829351,9.34720592 C15.7527018,9.34720592 16.5046207,8.59766799 16.5046207,7.67384106 C16.5046207,6.75001413 15.7527018,6 14.829351,6 L14.829351,6 Z" id="Fill-1" fill="#FFFFFF"></path>
                </g>
            </g>
        </g>
    </g>
</svg>