<?xml version="1.0" encoding="UTF-8"?>
<svg width="32px" height="32px" viewBox="0 0 32 32" version="1.1" xmlns="http://www.w3.org/2000/svg" xmlns:xlink="http://www.w3.org/1999/xlink">
    <!-- Generator: Sketch 53 (72520) - https://sketchapp.com -->
    <title>森林火灾风险区</title>
    <desc>Created with Sketch.</desc>
    <defs>
        <rect id="path-1" x="0" y="0" width="28" height="28" rx="14"></rect>
        <filter x="-10.7%" y="-10.7%" width="121.4%" height="121.4%" filterUnits="objectBoundingBox" id="filter-2">
            <feMorphology radius="0.5" operator="dilate" in="SourceAlpha" result="shadowSpreadOuter1"></feMorphology>
            <feOffset dx="0" dy="0" in="shadowSpreadOuter1" result="shadowOffsetOuter1"></feOffset>
            <feGaussianBlur stdDeviation="0.5" in="shadowOffsetOuter1" result="shadowBlurOuter1"></feGaussianBlur>
            <feComposite in="shadowBlurOuter1" in2="SourceAlpha" operator="out" result="shadowBlurOuter1"></feComposite>
            <feColorMatrix values="0 0 0 0 0   0 0 0 0 0   0 0 0 0 0  0 0 0 0.26 0" type="matrix" in="shadowBlurOuter1"></feColorMatrix>
        </filter>
    </defs>
    <g id="其他图标" stroke="none" stroke-width="1" fill="none" fill-rule="evenodd">
        <g id="玉董" transform="translate(-376.000000, -577.000000)">
            <g id="森林火灾风险区" transform="translate(378.000000, 579.000000)">
                <g id="矩形-copy-5" transform="translate(14.000000, 14.000000) scale(-1, 1) translate(-14.000000, -14.000000) ">
                    <use fill="black" fill-opacity="1" filter="url(#filter-2)" xlink:href="#path-1"></use>
                    <rect stroke="#FFFFFF" stroke-width="1" stroke-linejoin="square" fill="#E2AC07" fill-rule="evenodd" x="0.5" y="0.5" width="27" height="27" rx="13.5"></rect>
                </g>
                <path d="M21.3552117,12.1269073 C21.6624323,11.38475 22.0470306,10.2462465 21.5874652,9.49774179 C21.3414718,10.0218904 20.9727829,10.6577288 20.4178815,10.9040566 C20.3857011,9.97159946 20.0945104,8.78036375 20.3025382,7.87305204 C20.0138785,8.41892827 19.6618223,9.23383651 19.1151166,9.56841763 C19.1359676,8.87105831 19.1206608,8.16320137 19.0124285,7.47328803 C18.8786447,6.61468039 18.4211283,5.90255117 18.6003503,5 C17.7723371,5.98677625 17.434985,7.00858526 17.3101202,8.25987712 C16.8787578,7.83118363 16.2378009,7.10623754 15.5982902,7.03141148 C16.0302552,7.88318346 16.0095247,8.92086097 15.7929396,9.83110225 C15.4406423,9.46441795 14.9085203,8.83663588 14.3704925,8.77377223 C14.6765079,9.51153518 14.7624429,10.3655043 14.5832208,11.1464784 C14.1988636,10.7594092 13.5063215,10.0965944 12.9001966,10.2466127 C13.7867854,10.8083574 13.6258832,12.3325874 13.7229066,13.2045001 C13.9250286,15.0174147 15.3327716,15.7739757 17.0178447,15.9394963 C16.233944,15.4064369 15.2584071,14.6075192 15.0930455,13.6228181 C15.2338198,13.7345079 15.4510075,13.7504984 15.5987723,13.8535216 C15.625047,13.3019083 15.6520448,12.7515156 15.6783195,12.2005127 C15.9662559,12.4795541 16.2538308,12.759572 16.5416468,13.0384913 L16.8076475,10.841193 C17.0045869,11.1613704 17.2015263,11.4809375 17.3979836,11.8012369 C17.5273079,11.435163 17.639397,10.9039346 17.904072,10.6100012 C18.022549,11.0451642 18.2012889,11.5704114 18.1460881,12.0263254 C18.4347477,11.7747487 18.7235278,11.5225617 19.0129106,11.2706189 C18.949755,11.8401758 18.8859968,12.4100989 18.8228412,12.9794116 C19.1606754,12.7964357 19.4988712,12.6133377 19.8371875,12.4296293 C19.7366689,13.1105098 19.2257594,13.7677096 18.8504417,14.319445 C19.1527207,14.2866094 19.4556024,14.2532856 19.7587251,14.2199618 C19.5123701,15.0825976 18.6183087,15.6372625 17.8416395,15.9674492 C19.0642547,16.3149693 20.3652117,15.8206046 21.2540905,14.9611425 C22.05836,14.1030232 21.9191526,12.3405216 23.25,11.9889734 C22.6184441,12.0354803 21.9867676,12.0805224 21.3552117,12.1269073 L21.3552117,12.1269073 Z M18.2212962,16.7138788 C17.4865701,16.6821418 16.6532538,16.5997477 16.324218,16.5388371 C12.3859124,16.1898523 12.5411498,12.6428775 12.5391009,12.6066241 C12.5048715,11.1402531 12.3268547,10.3324246 12.2414018,10.023111 L11.6720373,10.867315 C11.5610329,11.0332018 11.6208137,11.168084 11.8042542,11.168084 L12.2397144,11.168084 C12.4229139,11.168084 12.4828152,11.3019897 12.3710877,11.4679985 L9.98575884,15.0058184 C9.87487498,15.1708508 9.93381216,15.305733 10.1171321,15.305733 L10.7122892,15.305733 C10.8958502,15.305733 10.9556311,15.4406152 10.843783,15.6055255 L8.57427957,18.9722098 C8.46339571,19.1373642 8.52233289,19.2722464 8.70577337,19.2722464 L13.1267853,19.2722464 C13.3099848,19.2722464 13.4605217,19.4408187 13.4605217,19.6483297 L13.4605217,22.6229401 C13.4605217,22.8297188 13.6108175,23 13.7943785,23 L14.5217526,23 C14.7044699,23 14.8554889,22.8305733 14.8554889,22.6229401 L14.8554889,19.6483297 C14.8554889,19.4416731 15.0059053,19.2722464 15.1892252,19.2722464 L19.6126477,19.2722464 C19.7952445,19.2722464 19.855628,19.1373642 19.7447441,18.9722098 L18.2212962,16.7138788 Z M9.07964483,15.7269805 L8.6357478,15.7269805 C8.45242785,15.7269805 8.21065281,15.8619848 8.0995279,16.0270171 L6.0560106,19.0592424 C5.94500621,19.2242747 6.00406392,19.3591569 6.18834808,19.3591569 L6.63236564,19.3591569 C6.81568559,19.3591569 7.0573401,19.2242747 7.16822397,19.0592424 L9.21186179,16.0270171 C9.3229867,15.8619848 9.26308531,15.7269805 9.07964483,15.7269805 L9.07964483,15.7269805 Z M7.48002457,15.7269805 L7.92331897,15.7269805 C8.10675945,15.7269805 8.34829343,15.5930748 8.45941835,15.4274322 L10.6083958,12.2378647 C10.7202439,12.0729544 10.6603425,11.9390487 10.4770226,11.9390487 L10.1353315,11.9390487 C9.95189105,11.9390487 9.89198966,11.8041665 10.0037172,11.6382797 L11.505832,9.40973268 C11.6168364,9.24384587 11.6168364,8.97505798 11.505832,8.81002563 L11.3539693,8.58469301 C11.2429649,8.41978272 11.0602476,8.41978272 10.9493637,8.58469301 L8.89078069,11.6382797 C8.7797763,11.8041665 8.83871348,11.9390487 9.02299764,11.9390487 L9.36541183,11.9390487 C9.54885231,11.9390487 9.60863318,12.0729544 9.49762879,12.2378647 L7.34768709,15.4274322 C7.23692375,15.5930748 7.29598146,15.7269805 7.48002457,15.7269805 L7.48002457,15.7269805 Z M11.2908137,20.1558774 L10.8470372,20.1558774 C10.6634762,20.1558774 10.5131803,20.3243276 10.5131803,20.5319608 L10.5131803,22.1056272 C10.5131803,22.3132604 10.6634762,22.4826871 10.8470372,22.4826871 L11.2908137,22.4826871 C11.4752184,22.4826871 11.6255142,22.3141148 11.6255142,22.1056272 L11.6255142,20.5319608 C11.6255142,20.3251821 11.4752184,20.1558774 11.2908137,20.1558774 L11.2908137,20.1558774 Z" id="Fill-1" fill="#FFFFFF"></path>
            </g>
        </g>
    </g>
</svg>