<?xml version="1.0" encoding="UTF-8"?>
<svg width="32px" height="32px" viewBox="0 0 32 32" version="1.1" xmlns="http://www.w3.org/2000/svg" xmlns:xlink="http://www.w3.org/1999/xlink">
    <!-- Generator: Sketch 53 (72520) - https://sketchapp.com -->
    <title>民用爆炸物品企业</title>
    <desc>Created with Sketch.</desc>
    <defs>
        <path d="M14,28 C10.2604653,28 6.74475408,26.5437515 4.10050675,23.8994937 C1.4562489,21.2552459 0,17.7395347 0,14 C0,10.2604653 1.4562489,6.74475408 4.10050675,4.10050675 C6.74475408,1.4562489 10.2604653,0 14,0 C17.7395347,0 21.2552459,1.4562489 23.8994937,4.10050675 C26.5437515,6.74475408 28,10.2604653 28,14 C28,17.7395347 26.5437515,21.2552459 23.8994937,23.8994937 C21.2552459,26.5437515 17.7395347,28 14,28 Z" id="path-1"></path>
        <filter x="-10.7%" y="-10.7%" width="121.4%" height="121.4%" filterUnits="objectBoundingBox" id="filter-2">
            <feMorphology radius="0.5" operator="dilate" in="SourceAlpha" result="shadowSpreadOuter1"></feMorphology>
            <feOffset dx="0" dy="0" in="shadowSpreadOuter1" result="shadowOffsetOuter1"></feOffset>
            <feGaussianBlur stdDeviation="0.5" in="shadowOffsetOuter1" result="shadowBlurOuter1"></feGaussianBlur>
            <feComposite in="shadowBlurOuter1" in2="SourceAlpha" operator="out" result="shadowBlurOuter1"></feComposite>
            <feColorMatrix values="0 0 0 0 0   0 0 0 0 0   0 0 0 0 0  0 0 0 0.26 0" type="matrix" in="shadowBlurOuter1"></feColorMatrix>
        </filter>
    </defs>
    <g id="其他图标" stroke="none" stroke-width="1" fill="none" fill-rule="evenodd">
        <g id="玉董" transform="translate(-666.000000, -116.000000)">
            <g id="民用爆炸物品企业" transform="translate(668.000000, 118.000000)">
                <g id="路径">
                    <use fill="black" fill-opacity="1" filter="url(#filter-2)" xlink:href="#path-1"></use>
                    <path stroke="#FFFFFF" stroke-width="1" d="M14,27.5 C17.6069329,27.5 20.9954649,26.0964254 23.545941,23.5459397 C26.0964254,20.9954649 27.5,17.6069329 27.5,14 C27.5,10.393067 26.0964253,7.0045351 23.5459397,4.45405947 C20.9954647,1.90357486 17.6069327,0.5 14,0.5 C10.3930672,0.5 7.00453524,1.9035749 4.45405944,4.45406084 C1.9035749,7.00453524 0.5,10.3930672 0.5,14 C0.5,17.6069327 1.90357486,20.9954647 4.45406083,23.5459411 C7.0045351,26.0964253 10.393067,27.5 14,27.5 Z" stroke-linejoin="square" fill="#E29707" fill-rule="evenodd"></path>
                </g>
                <path d="M19.9264918,16.51828 L19.9264918,13.6411038 C19.9264918,13.3452794 19.6714073,13.1760338 19.4583698,13.3452794 L17.755471,14.6964003 L16.9467693,9.62471931 C16.9581681,9.47601981 16.8544433,9.34363794 16.709106,9.32139434 C16.5637687,9.29915074 16.4261809,9.39460018 16.3938528,9.54009648 L14.690954,14.1090183 L12.0525121,11.8668688 C11.7974277,11.6976231 11.5416425,11.9514916 11.5836894,12.247316 L12.3923911,16.6469921 L10.1793235,17.2393519 C9.92423907,17.2813078 9.8814914,17.6617549 10.0510805,17.8317117 L11.6257363,19.4815014 L10.1786227,20.8326222 L12.8598123,20.8326222 L13.6257663,20.1136837 L12.5619802,18.971631 L14.0518414,18.5911839 L13.5409718,15.7573857 L15.2859174,17.2379297 L16.3924512,14.2341747 L16.9033209,17.533754 L18.0519016,16.6029029 L18.0519016,18.4638941 L19.9671371,18.3792712 L18.3924813,20.2409735 L19.201183,20.8333333 L22.0554656,20.8333333 L20.5235575,19.6919918 L22.9496627,16.8581936 C23.0779056,16.6448587 22.9496627,16.2231668 22.6945782,16.2658338 L19.9264918,16.51828 Z M22.6079929,22.3686869 C22.8311901,22.3557296 23.0023279,22.2154013 22.9986281,22.0483767 L22.9986281,21.9213203 C23.0077756,21.839459 22.9708832,21.7584466 22.8967891,21.6976914 C22.8226949,21.6369363 22.7180749,21.6019122 22.6079929,21.6010101 L9.5725122,21.6010101 C9.34931505,21.6139673 9.17817728,21.7542956 9.18187705,21.9213203 L9.18187705,22.0483767 C9.17817728,22.2154013 9.34931505,22.3557296 9.5725122,22.3686869 L22.6079929,22.3686869 Z M16.6977818,8.58867349 L15.8319937,8.75259083 L15.3738388,9.60828718 L12.6626183,7.1885531 L7.43706818,11.7310545 L7.43706818,20.5547428 L8.53326497,20.5547428 C8.54097587,20.5725919 8.54885349,20.5904306 8.55689784,20.6082588 L8.31818182,21.0169803 L8.65536233,22.1971549 L7.43706818,22.1971549 L7.43706818,22.2020819 L5.79465609,22.2020819 L5.79465609,13.1587816 L5.07751928,13.7821791 L4,12.542635 L12.676809,5 L16.6977818,8.58867349 Z M11.0190098,12.3557395 L11.1899166,13.0597977 L11.1899166,14.9835989 L8.56205727,14.9835989 L8.56205727,12.3557395 L11.0190098,12.3557395 Z" id="合并形状" fill="#FFFFFF" fill-rule="nonzero"></path>
            </g>
        </g>
    </g>
</svg>