<?xml version="1.0" encoding="UTF-8"?>
<svg width="32px" height="32px" viewBox="0 0 32 32" version="1.1" xmlns="http://www.w3.org/2000/svg" xmlns:xlink="http://www.w3.org/1999/xlink">
    <!-- Generator: Sketch 53 (72520) - https://sketchapp.com -->
    <title>气瓶充装站</title>
    <desc>Created with Sketch.</desc>
    <defs>
        <path d="M14,28 C10.2604653,28 6.74475408,26.5437515 4.10050675,23.8994937 C1.4562489,21.2552459 0,17.7395347 0,14 C0,10.2604653 1.4562489,6.74475408 4.10050675,4.10050675 C6.74475408,1.4562489 10.2604653,0 14,0 C17.7395347,0 21.2552459,1.4562489 23.8994937,4.10050675 C26.5437515,6.74475408 28,10.2604653 28,14 C28,17.7395347 26.5437515,21.2552459 23.8994937,23.8994937 C21.2552459,26.5437515 17.7395347,28 14,28 Z" id="path-1"></path>
        <filter x="-10.7%" y="-10.7%" width="121.4%" height="121.4%" filterUnits="objectBoundingBox" id="filter-2">
            <feMorphology radius="0.5" operator="dilate" in="SourceAlpha" result="shadowSpreadOuter1"></feMorphology>
            <feOffset dx="0" dy="0" in="shadowSpreadOuter1" result="shadowOffsetOuter1"></feOffset>
            <feGaussianBlur stdDeviation="0.5" in="shadowOffsetOuter1" result="shadowBlurOuter1"></feGaussianBlur>
            <feComposite in="shadowBlurOuter1" in2="SourceAlpha" operator="out" result="shadowBlurOuter1"></feComposite>
            <feColorMatrix values="0 0 0 0 0   0 0 0 0 0   0 0 0 0 0  0 0 0 0.26 0" type="matrix" in="shadowBlurOuter1"></feColorMatrix>
        </filter>
    </defs>
    <g id="其他图标" stroke="none" stroke-width="1" fill="none" fill-rule="evenodd">
        <g id="玉董" transform="translate(-666.000000, -721.000000)">
            <g id="气瓶充装站" transform="translate(668.000000, 723.000000)">
                <g id="路径">
                    <use fill="black" fill-opacity="1" filter="url(#filter-2)" xlink:href="#path-1"></use>
                    <path stroke="#FFFFFF" stroke-width="1" d="M14,27.5 C17.6069329,27.5 20.9954649,26.0964254 23.545941,23.5459397 C26.0964254,20.9954649 27.5,17.6069329 27.5,14 C27.5,10.393067 26.0964253,7.0045351 23.5459397,4.45405947 C20.9954647,1.90357486 17.6069327,0.5 14,0.5 C10.3930672,0.5 7.00453524,1.9035749 4.45405944,4.45406084 C1.9035749,7.00453524 0.5,10.3930672 0.5,14 C0.5,17.6069327 1.90357486,20.9954647 4.45406083,23.5459411 C7.0045351,26.0964253 10.393067,27.5 14,27.5 Z" stroke-linejoin="square" fill="#E29707" fill-rule="evenodd"></path>
                </g>
                <path d="M24.968,11.62 C24.9578888,11.7707977 24.8845835,11.9103186 24.7661398,12.0041976 C24.647696,12.0980767 24.4951228,12.1375881 24.346,12.113 C23.5772659,11.9696649 22.8604539,11.624546 22.269,11.113 C21.501,10.457 20.769,9.751 20.022,9.073 C19.4120767,8.46526576 18.6573214,8.02301286 17.829,7.788 C17.629,7.739 17.417,7.713 17.182,7.672 L17.182,9.184 C17.6118856,9.19475047 18.0270839,9.34261012 18.367,9.606 C18.8950179,10.013407 19.1955317,10.6493953 19.175,11.316 C19.1823333,13.716 19.1823333,16.113 19.175,18.507 C19.2107433,19.4584735 18.585727,20.3089599 17.667,20.559 C17.4557796,20.6133141 17.2380125,20.6378844 17.02,20.632 C14.747,20.637 12.474,20.632 10.2,20.632 C9.36686218,20.6791571 8.59033113,20.2096636 8.245,19.45 C8.09626326,19.1276238 8.02535771,18.7748087 8.038,18.42 C8.038,16.12 8.059,13.828 8.028,11.533 C7.96864528,10.9497707 8.1501369,10.3676093 8.5304125,9.92143685 C8.9106881,9.47526443 9.45673435,9.2038152 10.042,9.17 L10.042,5.029 L12.929,5.029 C12.929,5.192 12.929,5.355 12.929,5.519 C12.9153134,5.77183146 13.0424164,6.01154033 13.2593778,6.14207326 C13.4763391,6.2726062 13.7476609,6.2726062 13.9646222,6.14207326 C14.1815836,6.01154033 14.3086866,5.77183146 14.295,5.519 C14.295,5.361 14.295,5.203 14.295,5.03 L17.175,5.03 L17.175,6.616 C18.4072667,6.72156067 19.5579779,7.27556727 20.409,8.173 C21.07,8.791 21.726,9.417 22.409,10.008 C23.0077249,10.5345978 23.7302652,10.9006849 24.509,11.072 C24.891,11.156 25.004,11.305 24.976,11.618 L24.968,11.62 Z M9.768,20.94 C9.84434156,20.9276516 9.9217259,20.9229616 9.999,20.926 C12.4043333,20.926 14.8096667,20.926 17.215,20.926 C17.3199613,20.9235108 17.424726,20.9363116 17.526,20.964 C17.7428034,21.0400153 17.882834,21.2506734 17.869,21.48 C17.8537898,21.7242542 17.6700192,21.9246933 17.428,21.961 C17.3439202,21.9690061 17.2594177,21.9716781 17.175,21.969 L13.609,21.969 C12.385,21.969 11.161,21.969 9.937,21.969 C9.71190216,21.9933793 9.49589885,21.8731549 9.398,21.669 C9.32920358,21.5243678 9.33117978,21.3560458 9.4033529,21.2130687 C9.47552603,21.0700916 9.60977829,20.9685409 9.767,20.938 L9.768,20.94 Z" id="路径_19" fill="#FFFFFF" fill-rule="nonzero"></path>
            </g>
        </g>
    </g>
</svg>