<?xml version="1.0" encoding="UTF-8"?>
<svg width="32px" height="32px" viewBox="0 0 32 32" version="1.1" xmlns="http://www.w3.org/2000/svg" xmlns:xlink="http://www.w3.org/1999/xlink">
    <!-- Generator: Sketch 53 (72520) - https://sketchapp.com -->
    <title>气象灾害风险区</title>
    <desc>Created with Sketch.</desc>
    <defs>
        <rect id="path-1" x="0" y="0" width="28" height="28" rx="14"></rect>
        <filter x="-10.7%" y="-10.7%" width="121.4%" height="121.4%" filterUnits="objectBoundingBox" id="filter-2">
            <feMorphology radius="0.5" operator="dilate" in="SourceAlpha" result="shadowSpreadOuter1"></feMorphology>
            <feOffset dx="0" dy="0" in="shadowSpreadOuter1" result="shadowOffsetOuter1"></feOffset>
            <feGaussianBlur stdDeviation="0.5" in="shadowOffsetOuter1" result="shadowBlurOuter1"></feGaussianBlur>
            <feComposite in="shadowBlurOuter1" in2="SourceAlpha" operator="out" result="shadowBlurOuter1"></feComposite>
            <feColorMatrix values="0 0 0 0 0   0 0 0 0 0   0 0 0 0 0  0 0 0 0.26 0" type="matrix" in="shadowBlurOuter1"></feColorMatrix>
        </filter>
    </defs>
    <g id="其他图标" stroke="none" stroke-width="1" fill="none" fill-rule="evenodd">
        <g id="玉董" transform="translate(-376.000000, -438.000000)">
            <g id="气象灾害风险区" transform="translate(378.000000, 440.000000)">
                <g id="矩形">
                    <use fill="black" fill-opacity="1" filter="url(#filter-2)" xlink:href="#path-1"></use>
                    <rect stroke="#FFFFFF" stroke-width="1" stroke-linejoin="square" fill="#E2AC07" fill-rule="evenodd" x="0.5" y="0.5" width="27" height="27" rx="13.5"></rect>
                </g>
                <path d="M10.25,22.752 L7.611,22.752 C5.61653802,22.7514478 3.99999992,21.1344621 4,19.14 L4,18.24 C4,16.2456998 5.61669977,14.629 7.611,14.629 L8.011,14.629 C8.08008347,14.4669564 8.16096743,14.310202 8.253,14.16 C7.42291671,12.5785955 7.63743499,10.651397 8.79494699,9.29123354 C9.95245898,7.93107013 11.8205346,7.41106461 13.5143486,7.97752071 C15.2081627,8.54397682 16.3875948,10.0831493 16.494,11.866 C16.9180789,11.9947776 17.3294655,12.162144 17.723,12.366 C17.6411744,12.1730381 17.6615176,11.9519079 17.7771754,11.7771137 C17.8928332,11.6023196 18.0884059,11.4971352 18.298,11.497 L19.548,11.497 C19.893178,11.497 20.173,11.776822 20.173,12.122 C20.173,12.467178 19.893178,12.747 19.548,12.747 L18.36,12.747 C19.072363,13.2064324 19.6383227,13.8601836 19.991,14.631 L20.391,14.631 C22.3825684,14.6321011 23.9972427,16.2454332 24,18.237 L24,19.137 C24.0002653,20.09487 23.6199388,21.0135989 22.9427162,21.6910091 C22.2654936,22.3684192 21.34687,22.749 20.389,22.749 L18.375,22.749 C18.375,23.439 16.556,23.999 14.312,23.999 C12.068,23.999 10.25,23.442 10.25,22.752 Z M9,12.126 C8.99980332,12.4604111 9.05349139,12.7926693 9.159,13.11 C10.5354145,12.0250914 12.2479989,11.4558808 14,11.501 C14.4013688,11.5009105 14.8022841,11.5279723 15.2,11.582 C14.9122988,9.99264962 13.4608287,8.88441883 11.8518303,9.02559546 C10.2428319,9.16677209 9.00653067,10.5108331 9,12.126 L9,12.126 Z M4.634,12.673 C4.28854589,12.673 4.0085,12.3929541 4.0085,12.0475 C4.0085,11.7020459 4.28854589,11.422 4.634,11.422 L5.884,11.422 C6.22945411,11.422 6.5095,11.7020459 6.5095,12.0475 C6.5095,12.3929541 6.22945411,12.673 5.884,12.673 L4.634,12.673 Z M16.062,8.16 C15.9445084,8.04291563 15.8784679,7.88387052 15.8784679,7.718 C15.8784679,7.55212948 15.9445084,7.39308437 16.062,7.276 L16.946,6.392 C17.1901099,6.14789025 17.5858901,6.1478903 17.8299999,6.39200011 C18.0741097,6.63610993 18.0741098,7.03189012 17.83,7.276 L16.946,8.16 C16.8289156,8.27749162 16.6698705,8.34353207 16.504,8.34353207 C16.3381295,8.34353207 16.1790844,8.27749162 16.062,8.16 L16.062,8.16 Z M7.284,8.112 L6.4,7.228 C6.15589014,6.98389014 6.15589014,6.58810986 6.4,6.344 C6.64410986,6.09989014 7.03989014,6.09989014 7.284,6.344 L8.168,7.228 C8.41210986,7.47210986 8.41210986,7.86789014 8.168,8.112 C7.92389014,8.35610986 7.52810986,8.35610986 7.284,8.112 Z M12.055,6.501 C11.7483203,6.50044842 11.4999995,6.25168022 11.5,5.945 L11.5,4.556 C11.4999995,4.24931978 11.7483203,4.00055158 12.055,4 L12.194,4 C12.5006797,4.00055158 12.7490005,4.24931978 12.749,4.556 L12.749,5.945 C12.7490005,6.25168022 12.5006797,6.50044842 12.194,6.501 L12.055,6.501 Z" id="联合_6" fill="#FFFFFF" fill-rule="nonzero"></path>
            </g>
        </g>
    </g>
</svg>