<?xml version="1.0" encoding="UTF-8"?>
<svg width="32px" height="32px" viewBox="0 0 32 32" version="1.1" xmlns="http://www.w3.org/2000/svg" xmlns:xlink="http://www.w3.org/1999/xlink">
    <!-- Generator: Sketch 53 (72520) - https://sketchapp.com -->
    <title>污染源</title>
    <desc>Created with Sketch.</desc>
    <defs>
        <path d="M14,28 C10.2604653,28 6.74475408,26.5437515 4.10050675,23.8994937 C1.4562489,21.2552459 0,17.7395347 0,14 C0,10.2604653 1.4562489,6.74475408 4.10050675,4.10050675 C6.74475408,1.4562489 10.2604653,0 14,0 C17.7395347,0 21.2552459,1.4562489 23.8994937,4.10050675 C26.5437515,6.74475408 28,10.2604653 28,14 C28,17.7395347 26.5437515,21.2552459 23.8994937,23.8994937 C21.2552459,26.5437515 17.7395347,28 14,28 Z" id="path-1"></path>
        <filter x="-10.7%" y="-10.7%" width="121.4%" height="121.4%" filterUnits="objectBoundingBox" id="filter-2">
            <feMorphology radius="0.5" operator="dilate" in="SourceAlpha" result="shadowSpreadOuter1"></feMorphology>
            <feOffset dx="0" dy="0" in="shadowSpreadOuter1" result="shadowOffsetOuter1"></feOffset>
            <feGaussianBlur stdDeviation="0.5" in="shadowOffsetOuter1" result="shadowBlurOuter1"></feGaussianBlur>
            <feComposite in="shadowBlurOuter1" in2="SourceAlpha" operator="out" result="shadowBlurOuter1"></feComposite>
            <feColorMatrix values="0 0 0 0 0   0 0 0 0 0   0 0 0 0 0  0 0 0 0.26 0" type="matrix" in="shadowBlurOuter1"></feColorMatrix>
        </filter>
    </defs>
    <g id="其他图标" stroke="none" stroke-width="1" fill="none" fill-rule="evenodd">
        <g id="玉董" transform="translate(-926.000000, -268.000000)">
            <g id="污染源" transform="translate(928.000000, 270.000000)">
                <g id="路径">
                    <use fill="black" fill-opacity="1" filter="url(#filter-2)" xlink:href="#path-1"></use>
                    <path stroke="#FFFFFF" stroke-width="1" d="M14,27.5 C17.6069329,27.5 20.9954649,26.0964254 23.545941,23.5459397 C26.0964254,20.9954649 27.5,17.6069329 27.5,14 C27.5,10.393067 26.0964253,7.0045351 23.5459397,4.45405947 C20.9954647,1.90357486 17.6069327,0.5 14,0.5 C10.3930672,0.5 7.00453524,1.9035749 4.45405944,4.45406084 C1.9035749,7.00453524 0.5,10.3930672 0.5,14 C0.5,17.6069327 1.90357486,20.9954647 4.45406083,23.5459411 C7.0045351,26.0964253 10.393067,27.5 14,27.5 Z" stroke-linejoin="square" fill="#E29707" fill-rule="evenodd"></path>
                </g>
                <path d="M20.8226667,19.026 C20.8226667,19.026 20.8226667,19.128 20.5006667,19.3333333 C18.7826667,20.974 16.312,22 13.6273333,22 C10.7273333,22 8.14933333,20.872 6.32333333,18.9226667 C6,18.5133333 6,18.2053333 6,17.6933333 C6,17.18 6.43066667,16.1546667 7.07666667,16.1546667 C7.93666667,16.1546667 8.258,17.488 8.79533333,17.488 C9.332,17.488 10.406,16.2566667 11.158,16.2566667 C12.1246667,16.2566667 12.554,17.6926667 13.1986667,17.6926667 C13.736,17.6926667 14.4873333,16.154 15.454,16.154 C16.206,16.154 17.0653333,17.4873333 17.4946667,17.4873333 C17.9246667,17.4873333 19.106,16.154 19.6433333,16.154 C20.2873333,16.154 21.1466667,17.0773333 21.1466667,17.59 C21.2533333,18.5133333 20.8226667,19.0266667 20.8226667,19.0266667 L20.8226667,19.026 Z M9.56,20.24 C9.93555363,20.24 10.24,19.9355536 10.24,19.56 C10.24,19.1844464 9.93555363,18.88 9.56,18.88 C9.18444637,18.88 8.88,19.1844464 8.88,19.56 C8.88,19.9355536 9.18444637,20.24 9.56,20.24 Z M13,19.6 C13.3755536,19.6 13.68,19.2955536 13.68,18.92 C13.68,18.5444464 13.3755536,18.24 13,18.24 C12.6244464,18.24 12.32,18.5444464 12.32,18.92 C12.32,19.2955536 12.6244464,19.6 13,19.6 Z M16.52,21.12 C16.9839192,21.12 17.36,20.7439192 17.36,20.28 C17.36,19.8160808 16.9839192,19.44 16.52,19.44 C16.0560808,19.44 15.68,19.8160808 15.68,20.28 C15.68,20.7439192 16.0560808,21.12 16.52,21.12 Z M12.96,20.72 C13.1809139,20.72 13.36,20.5409139 13.36,20.32 C13.36,20.0990861 13.1809139,19.92 12.96,19.92 C12.7390861,19.92 12.56,20.0990861 12.56,20.32 C12.56,20.5409139 12.7390861,20.72 12.96,20.72 Z M14.8,19.84 C15.0209139,19.84 15.2,19.6609139 15.2,19.44 C15.2,19.2190861 15.0209139,19.04 14.8,19.04 C14.5790861,19.04 14.4,19.2190861 14.4,19.44 C14.4,19.6609139 14.5790861,19.84 14.8,19.84 Z M12.2306667,14.41 C12.2306667,13.692 13.52,11.7433333 13.52,11.7433333 C13.52,11.7433333 14.8086667,13.7946667 14.8086667,14.41 C14.8086667,15.128 14.1646667,15.6406667 13.52,15.6406667 C12.7673333,15.6406667 12.2306667,15.026 12.2306667,14.41 L12.2306667,14.41 Z M20.8226667,7.94866667 L14.8086667,7.94866667 L14.8086667,10.82 C14.8086667,11.1273333 14.5933333,11.3326667 14.2713333,11.3326667 L12.7673333,11.3326667 C12.4453333,11.3326667 12.2306667,11.1273333 12.2306667,10.8193333 L12.2306667,7.43666667 C12.2306667,6.61533333 12.8746667,6 13.7333333,6 L20.7153333,6 C21.0373333,6 21.252,6.20533333 21.252,6.51333333 L21.3593333,7.436 C21.3593333,7.74333333 21.1446667,7.94866667 20.822,7.94866667 L20.8226667,7.94866667 Z" id="形状" fill="#FFFFFF" fill-rule="nonzero"></path>
            </g>
        </g>
    </g>
</svg>