<?xml version="1.0" encoding="UTF-8"?>
<svg width="32px" height="32px" viewBox="0 0 32 32" version="1.1" xmlns="http://www.w3.org/2000/svg" xmlns:xlink="http://www.w3.org/1999/xlink">
    <!-- Generator: Sketch 53 (72520) - https://sketchapp.com -->
    <title>油气田</title>
    <desc>Created with Sketch.</desc>
    <defs>
        <path d="M14,28 C10.2604653,28 6.74475408,26.5437515 4.10050675,23.8994937 C1.4562489,21.2552459 0,17.7395347 0,14 C0,10.2604653 1.4562489,6.74475408 4.10050675,4.10050675 C6.74475408,1.4562489 10.2604653,0 14,0 C17.7395347,0 21.2552459,1.4562489 23.8994937,4.10050675 C26.5437515,6.74475408 28,10.2604653 28,14 C28,17.7395347 26.5437515,21.2552459 23.8994937,23.8994937 C21.2552459,26.5437515 17.7395347,28 14,28 Z" id="path-1"></path>
        <filter x="-10.7%" y="-10.7%" width="121.4%" height="121.4%" filterUnits="objectBoundingBox" id="filter-2">
            <feMorphology radius="0.5" operator="dilate" in="SourceAlpha" result="shadowSpreadOuter1"></feMorphology>
            <feOffset dx="0" dy="0" in="shadowSpreadOuter1" result="shadowOffsetOuter1"></feOffset>
            <feGaussianBlur stdDeviation="0.5" in="shadowOffsetOuter1" result="shadowBlurOuter1"></feGaussianBlur>
            <feComposite in="shadowBlurOuter1" in2="SourceAlpha" operator="out" result="shadowBlurOuter1"></feComposite>
            <feColorMatrix values="0 0 0 0 0   0 0 0 0 0   0 0 0 0 0  0 0 0 0.26 0" type="matrix" in="shadowBlurOuter1"></feColorMatrix>
        </filter>
    </defs>
    <g id="其他图标" stroke="none" stroke-width="1" fill="none" fill-rule="evenodd">
        <g id="玉董" transform="translate(-666.000000, -680.000000)">
            <g id="油气田" transform="translate(668.000000, 682.000000)">
                <g id="路径">
                    <use fill="black" fill-opacity="1" filter="url(#filter-2)" xlink:href="#path-1"></use>
                    <path stroke="#FFFFFF" stroke-width="1" d="M14,27.5 C17.6069329,27.5 20.9954649,26.0964254 23.545941,23.5459397 C26.0964254,20.9954649 27.5,17.6069329 27.5,14 C27.5,10.393067 26.0964253,7.0045351 23.5459397,4.45405947 C20.9954647,1.90357486 17.6069327,0.5 14,0.5 C10.3930672,0.5 7.00453524,1.9035749 4.45405944,4.45406084 C1.9035749,7.00453524 0.5,10.3930672 0.5,14 C0.5,17.6069327 1.90357486,20.9954647 4.45406083,23.5459411 C7.0045351,26.0964253 10.393067,27.5 14,27.5 Z" stroke-linejoin="square" fill="#E29707" fill-rule="evenodd"></path>
                </g>
                <path d="M11.032169,22.8118597 L11.032169,22.8118597 L13.7686233,11.2081199 L13.7203735,10.9687558 L9.35130264,12.214828 L9.15436458,12.5507258 C9.12496829,12.6801385 9.13952051,12.8156605 9.19572157,12.9358754 C9.22937858,12.9889195 9.28430354,13.0248308 9.34637919,13.0343791 L9.36902706,13.0343791 C9.49605211,13.0550649 9.57975078,13.0688554 9.61224556,13.1328828 C9.64474034,13.1969103 9.61224556,13.3358005 9.49014397,13.6096409 C9.26806828,14.045314 9.01121548,14.4623527 8.72208554,14.8566982 L7.90577729,18.7889672 L7.91956296,18.7889672 C8.32542353,18.7099302 8.73644507,18.6602215 9.14944113,18.6402266 C9.19911743,18.6398493 9.248771,18.6424809 9.29812936,18.6481069 C9.34933326,18.6550021 10.5565636,18.810638 10.7466088,19.2765607 C10.7960941,19.4268323 10.7560132,19.5921767 10.6432163,19.7030819 C10.470163,19.9191334 10.2826403,20.1231773 10.0819428,20.313805 C9.88500477,20.5108125 9.77964291,20.6093162 9.77964291,20.8063237 C9.98777357,21.4404624 10.2613517,22.0511957 10.5959512,22.6286428 L5.26680731,22.6769096 L6.08311556,20.7068349 L5.3189959,20.841785 L4.7912019,21.0811491 C4.31665902,20.7256926 4.07662292,20.1375105 4.16690826,19.5513861 C4.15133723,18.9801285 4.49791746,18.4612596 5.03146633,18.2570471 L6.08803902,17.5369848 L6.71233266,14.7562244 L7.62415587,13.9415985 C7.62568189,13.6875356 7.5210983,13.4443734 7.33564161,13.2707881 C7.25333184,13.2229718 7.15893131,13.2000476 7.06386709,13.2047906 C6.82672499,13.2199247 6.5937673,13.2745226 6.37458389,13.3663367 L5.5110105,11.1115862 L18.328724,7.27585083 L17.5124158,5.11861907 C17.354803,4.68164073 17.4289139,4.19456015 17.7093538,3.82428001 C18.0960449,3.41679889 18.6173284,3.16341481 19.1765424,3.11111297 C19.5453533,3.1104512 19.8922669,3.28616556 20.1100287,3.5839309 C20.9455281,4.62497192 21.6807534,5.74271036 22.3058881,6.92222243 C23.2929039,8.65321062 23.8248156,10.6063874 23.8518519,12.5989926 C23.7691379,16.1057255 23.5465979,16.3913863 23.2866396,16.3913863 L23.2334663,16.3913863 L23.1802931,16.3913863 C22.8957176,16.3913863 19.2809195,9.60349406 19.2415319,9.53454144 L15.4997088,10.5895164 L15.4997088,10.972696 L17.80093,22.713356 L17.0811214,22.713356 L16.840857,21.4662987 L15.8325341,21.8494782 L15.8325341,22.6650891 L15.2564903,22.7635929 L15.1580213,21.8524333 L12.0355684,21.8051515 L11.8386303,22.7163111 L11.0233067,22.8148148 L11.032169,22.8118597 Z M12.965622,19.7037037 L12.4444444,21.671415 L15.5555556,21.7777778 L15.4491928,19.7568851 L12.965622,19.7037037 Z M17.3505218,18.6710966 L16.5925926,19.0157419 L16.7120933,20.7407407 L17.6296296,20.3057256 L17.3505218,18.6666667 L17.3505218,18.6710966 Z M15.5555556,16.5925926 L15.5555556,16.5925926 L15.7034144,18.6666667 L16.5925926,18.2351598 L16.1480035,16.5925926 L15.5555556,16.5925926 Z M13.9420716,16.5925926 L13.4814815,18.6666667 L15.5555556,18.6666667 L15.4174731,16.5925926 L13.9420716,16.5925926 Z M8.2962963,15.5555556 L7.10264024,15.7217201 L6.22222222,17.9202045 L7.41587828,18.6666667 L8.2962963,15.5555556 Z M14.2676934,12.4444444 L14.2676934,12.4444444 L13.4814815,16.5925926 L14.5185185,16.5451465 L14.2684268,12.4444444 L14.2676934,12.4444444 Z M15.6442222,12.4444444 L15.6442222,12.4444444 L15.9480741,16.5925926 L16.5039259,16.5925926 L15.6442222,12.4444444 Z M22.2962956,11.5225185 C22.073635,11.5225192 21.89308,11.7029206 21.8928897,11.9255811 C21.8926994,12.1482416 22.0729458,12.3289514 22.2956061,12.3293327 C22.5182663,12.3297141 22.6991306,12.1496228 22.699703,11.926963 C22.6997038,11.7039988 22.519259,11.5230902 22.2962956,11.5225185 L22.2962956,11.5225185 Z M22.2952593,9.39763022 C22.0445351,9.39820265 21.8416932,9.60181765 21.8420746,9.85254222 C21.842456,10.1032668 22.0459164,10.3062637 22.2966412,10.3060733 C22.547366,10.305883 22.7505179,10.1025773 22.7505185,9.85185244 C22.747121,9.60268353 22.5444507,9.40232155 22.2952593,9.40177837 L22.2952593,9.39763022 Z M21.2592655,7.34843817 C21.0856164,7.34843817 20.9290659,7.45304188 20.8626133,7.61347275 C20.7961606,7.77390362 20.8328925,7.95856754 20.955681,8.08135601 C21.0784695,8.20414449 21.2631334,8.24087643 21.4235643,8.17442378 C21.5839952,8.10797114 21.6885989,7.95142063 21.6885989,7.7777715 C21.6846444,7.54332723 21.4937426,7.35519205 21.2592655,7.35466039 L21.2592655,7.34843817 Z M20.2216439,5.24945852 C20.0051006,5.24974315 19.8188683,5.40284907 19.7767101,5.61524902 C19.7345518,5.82764897 19.8481916,6.0402751 20.0482108,6.12324126 C20.24823,6.20620742 20.4790038,6.13644094 20.5995601,5.95655982 C20.7201165,5.7766787 20.6969291,5.53670739 20.5441624,5.3832363 C20.4576975,5.29982893 20.3417691,5.25397946 20.2216439,5.25568074 L20.2216439,5.24945852 Z" id="Fill_1" fill="#FFFFFF" fill-rule="nonzero"></path>
            </g>
        </g>
    </g>
</svg>