<?xml version="1.0" encoding="UTF-8"?>
<svg width="32px" height="32px" viewBox="0 0 32 32" version="1.1" xmlns="http://www.w3.org/2000/svg" xmlns:xlink="http://www.w3.org/1999/xlink">
    <!-- Generator: Sketch 53 (72520) - https://sketchapp.com -->
    <title>海洋灾害风险区</title>
    <desc>Created with Sketch.</desc>
    <defs>
        <rect id="path-1" x="0" y="0" width="28" height="28" rx="14"></rect>
        <filter x="-10.7%" y="-10.7%" width="121.4%" height="121.4%" filterUnits="objectBoundingBox" id="filter-2">
            <feMorphology radius="0.5" operator="dilate" in="SourceAlpha" result="shadowSpreadOuter1"></feMorphology>
            <feOffset dx="0" dy="0" in="shadowSpreadOuter1" result="shadowOffsetOuter1"></feOffset>
            <feGaussianBlur stdDeviation="0.5" in="shadowOffsetOuter1" result="shadowBlurOuter1"></feGaussianBlur>
            <feComposite in="shadowBlurOuter1" in2="SourceAlpha" operator="out" result="shadowBlurOuter1"></feComposite>
            <feColorMatrix values="0 0 0 0 0   0 0 0 0 0   0 0 0 0 0  0 0 0 0.26 0" type="matrix" in="shadowBlurOuter1"></feColorMatrix>
        </filter>
    </defs>
    <g id="其他图标" stroke="none" stroke-width="1" fill="none" fill-rule="evenodd">
        <g id="玉董" transform="translate(-376.000000, -675.000000)">
            <g id="海洋灾害风险区" transform="translate(378.000000, 677.000000)">
                <g id="矩形">
                    <use fill="black" fill-opacity="1" filter="url(#filter-2)" xlink:href="#path-1"></use>
                    <rect stroke="#FFFFFF" stroke-width="1" stroke-linejoin="square" fill="#E2AC07" fill-rule="evenodd" x="0.5" y="0.5" width="27" height="27" rx="13.5"></rect>
                </g>
                <path d="M12.5477755,20 L12.5477755,20 C7.7197755,20 5.3477755,17.453 5.2477755,17.344 C7.3753873,18.3184006 9.67099742,18.8732042 12.0087755,18.978 C16.0087755,18.978 17.3477755,16.52 17.7877755,15.055 C17.9518343,14.00117 17.6847597,12.9256631 17.0467755,12.071 C16.3068726,10.9641679 15.0570199,10.3070638 13.7257755,10.325 C13.4308603,10.3250593 13.1367036,10.354877 12.8477755,10.414 C11.6151668,10.6229049 10.718691,11.6989305 10.7357755,12.949 C10.7343727,13.5637728 10.831262,14.1748167 11.0227755,14.759 L11.0277755,14.778 L11.0397755,14.818 C11.0827581,15.0586032 11.1684414,15.2895755 11.2927755,15.5 L11.1727755,15.487 L11.1597755,15.487 C10.2978271,15.4235559 9.50098303,15.0048506 8.9597755,14.331 C8.61104325,13.8077503 8.50873666,13.1581034 8.6797755,12.553 C8.89666453,11.6255914 9.43609948,10.8054519 10.2017755,10.239 C10.9169042,9.69560116 11.7764408,9.37523161 12.6727755,9.318 L12.7977755,9.312 L12.8087755,9.312 C12.9267755,9.312 13.0397755,9.305 13.1427755,9.305 C14.189202,9.28630546 15.2241982,9.52496582 16.1567755,10 C17.2562485,10.5925486 18.0792506,11.5929342 18.4487755,12.786 C18.6515151,13.3164532 18.7911415,13.8689174 18.8647755,14.432 C18.8615514,14.4382309 18.8556599,14.4426495 18.8487755,14.444 C19.1857518,14.3967366 19.5255068,14.372015 19.8657755,14.37 C21.8147755,14.37 22.2187755,15.328 22.2217755,15.337 C21.7285201,15.0289198 21.156217,14.8711629 20.5747755,14.883 C20.1327985,14.8519747 19.690924,14.9447822 19.2987755,15.151 C19.2950805,15.1564311 19.2950805,15.1635689 19.2987755,15.169 C23.1887755,15.353 24.5567755,17.732 24.9647755,18.747 L24.9857755,18.796 C24.0019083,18.0889039 22.8457427,17.6598756 21.6387755,17.554 C20.8060807,17.6092558 20.0016167,17.8778696 19.3027755,18.334 L19.2947755,18.334 C18.4983899,18.7820372 17.6558069,19.1424736 16.7817755,19.409 C15.4019304,19.7882307 13.978725,19.9868878 12.5477755,20 Z M17.8997755,19.8 L17.8997755,19.8 C18.892247,18.7184757 20.2414302,18.0311024 21.6997755,17.864 C22.423945,17.8601088 23.1152873,18.1657549 23.5997755,18.704 C23.822939,18.9417623 24.0120717,19.2093077 24.1617755,19.499 L24.1617755,19.506 C24.1671765,19.5184694 24.1735285,19.5305049 24.1807755,19.542 C23.3949896,19.0912334 22.5015022,18.8624177 21.5957755,18.88 C20.3108491,18.9194395 19.0492514,19.233475 17.8957755,19.801 L17.8997755,19.8 Z M10.1517755,17.889 L10.1517755,17.889 C8.75489977,17.856533 7.36528854,17.6775527 6.0057755,17.355 C6.4670455,17.4435893 6.93611559,17.4851355 7.4057755,17.479 C8.08257194,17.4696765 8.7583072,17.4222682 9.4297755,17.337 C10.2957718,17.2730054 11.1415838,17.0442424 11.9217755,16.663 C12.2594761,16.4938786 12.5576497,16.2553398 12.7967755,15.963 C12.9936675,15.7742494 13.0950479,15.5068404 13.0727755,15.235 C13.0537173,15.114507 13.0225598,14.9962423 12.9797755,14.882 C12.9567755,14.817 12.9337755,14.752 12.9107755,14.687 C12.6732737,14.1837527 12.5911115,13.6211502 12.6747755,13.071 C12.8265006,12.3873939 13.3967038,11.8763021 14.0927755,11.8 C14.1267755,11.8 14.1617755,11.8 14.1927755,11.8 C14.8423514,11.8297945 15.428404,12.1989735 15.7357755,12.772 C16.0788053,13.4125826 16.1508404,14.1639088 15.9357755,14.858 C15.4577755,16.458 13.6947755,17.368 12.2047755,17.689 C11.5295336,17.8286954 10.8412833,17.8957437 10.1517755,17.889 L10.1517755,17.889 Z M7.6277755,15.824 C7.60268867,15.8241105 7.57762566,15.8224396 7.5527755,15.819 C7.11013168,15.7262801 6.74696245,15.4111552 6.5927755,14.986 C6.49234821,14.7463472 6.42084385,14.4955784 6.3797755,14.239 C6.3797755,14.216 6.3747755,14.178 6.3727755,14.134 C6.37621309,14.0544778 6.3643308,13.9750361 6.3377755,13.9 C6.49954638,14.1221003 6.68533799,14.3256662 6.8917755,14.507 C7.06919398,14.6694716 7.26763548,14.8073716 7.4817755,14.917 C7.52778901,14.938574 7.57523477,14.9569508 7.6237755,14.972 L7.6397755,14.977 L7.6457755,14.977 L7.6507755,14.977 C7.8087755,15.028 7.9717755,15.077 8.0307755,15.277 C8.07458318,15.4324837 8.0296695,15.5994705 7.9137755,15.712 C7.83594854,15.7840182 7.73381158,15.8240159 7.6277755,15.824 L7.6277755,15.824 Z M8.6277755,14.63 L8.6277755,14.63 L8.5857755,14.63 L8.5797755,14.63 C7.542764,14.6330335 6.59196351,14.0532771 6.1197755,13.13 C5.3359071,11.6234404 5.36827655,9.82241906 6.2057755,8.345 C7.08696179,6.89657993 8.65639038,6.00890264 10.3517755,6 C10.6339561,6.00011127 10.9155105,6.02655931 11.1927755,6.079 C12.807534,6.46938924 14.2809913,7.30344781 15.4467755,8.487 C16.081937,9.05727471 16.6627644,9.68530478 17.1817755,10.363 C16.9817755,10.173 16.8217755,10.033 16.6617755,9.896 C15.3148888,8.56018319 13.5355124,7.74886131 11.6437755,7.608 C11.5547755,7.608 11.4507755,7.608 11.3337755,7.618 C9.49295878,7.78541267 7.88127146,8.92213253 7.1057755,10.6 C6.70910875,11.3243817 6.64816395,12.185759 6.93888572,12.9587754 C7.22960749,13.7317917 7.84306947,14.3395331 8.6187755,14.623 L8.6297755,14.628 L8.6277755,14.63 Z M5.4407755,13.128 C5.2297755,13.128 5.0307755,12.872 5.0007755,12.652 C4.99182499,12.3336499 5.06046578,12.0179022 5.2007755,11.732 C5.2497755,12.232 5.4007755,12.322 5.5307755,12.401 C5.59061376,12.4292356 5.6419924,12.4726833 5.6797755,12.527 C5.74183427,12.6413935 5.75412876,12.7762713 5.7137755,12.9 C5.69041096,12.9877646 5.62973453,13.0608688 5.5477755,13.1 C5.5142705,13.1162067 5.47792431,13.1257178 5.4407755,13.128 L5.4407755,13.128 Z" id="Fill_1" fill="#FFFFFF" fill-rule="nonzero"></path>
            </g>
        </g>
    </g>
</svg>