<?xml version="1.0" encoding="UTF-8"?>
<svg width="32px" height="32px" viewBox="0 0 32 32" version="1.1" xmlns="http://www.w3.org/2000/svg" xmlns:xlink="http://www.w3.org/1999/xlink">
    <!-- Generator: Sketch 53 (72520) - https://sketchapp.com -->
    <title>渣场土</title>
    <desc>Created with Sketch.</desc>
    <defs>
        <path d="M14,28 C10.2604653,28 6.74475408,26.5437515 4.10050675,23.8994937 C1.4562489,21.2552459 0,17.7395347 0,14 C0,10.2604653 1.4562489,6.74475408 4.10050675,4.10050675 C6.74475408,1.4562489 10.2604653,0 14,0 C17.7395347,0 21.2552459,1.4562489 23.8994937,4.10050675 C26.5437515,6.74475408 28,10.2604653 28,14 C28,17.7395347 26.5437515,21.2552459 23.8994937,23.8994937 C21.2552459,26.5437515 17.7395347,28 14,28 Z" id="path-1"></path>
        <filter x="-10.7%" y="-10.7%" width="121.4%" height="121.4%" filterUnits="objectBoundingBox" id="filter-2">
            <feMorphology radius="0.5" operator="dilate" in="SourceAlpha" result="shadowSpreadOuter1"></feMorphology>
            <feOffset dx="0" dy="0" in="shadowSpreadOuter1" result="shadowOffsetOuter1"></feOffset>
            <feGaussianBlur stdDeviation="0.5" in="shadowOffsetOuter1" result="shadowBlurOuter1"></feGaussianBlur>
            <feComposite in="shadowBlurOuter1" in2="SourceAlpha" operator="out" result="shadowBlurOuter1"></feComposite>
            <feColorMatrix values="0 0 0 0 0   0 0 0 0 0   0 0 0 0 0  0 0 0 0.26 0" type="matrix" in="shadowBlurOuter1"></feColorMatrix>
        </filter>
    </defs>
    <g id="其他图标" stroke="none" stroke-width="1" fill="none" fill-rule="evenodd">
        <g id="玉董" transform="translate(-926.000000, -167.000000)">
            <g id="渣场土" transform="translate(928.000000, 169.000000)">
                <g id="路径">
                    <use fill="black" fill-opacity="1" filter="url(#filter-2)" xlink:href="#path-1"></use>
                    <path stroke="#FFFFFF" stroke-width="1" d="M14,27.5 C17.6069329,27.5 20.9954649,26.0964254 23.545941,23.5459397 C26.0964254,20.9954649 27.5,17.6069329 27.5,14 C27.5,10.393067 26.0964253,7.0045351 23.5459397,4.45405947 C20.9954647,1.90357486 17.6069327,0.5 14,0.5 C10.3930672,0.5 7.00453524,1.9035749 4.45405944,4.45406084 C1.9035749,7.00453524 0.5,10.3930672 0.5,14 C0.5,17.6069327 1.90357486,20.9954647 4.45406083,23.5459411 C7.0045351,26.0964253 10.393067,27.5 14,27.5 Z" stroke-linejoin="square" fill="#E29707" fill-rule="evenodd"></path>
                </g>
                <path d="M4.12265435,20.9908927 C4.07714588,20.9914566 4.035032,20.9668901 4.01312233,20.926999 C3.99225642,20.8873379 3.99654118,20.8391343 4.02407553,20.8037755 C4.98430624,19.5751913 9.70513634,8.07706742 10.5047201,7.04655365 C10.5288153,7.01688415 10.5650785,6.99975984 10.6032989,7.00000255 C10.6412595,6.99977003 10.6772399,7.01691954 10.700965,7.04655365 L10.700965,7.04655365 C11.5169785,8.07159082 17.1423605,19.5514594 18.1317998,20.8037755 C18.1591121,20.8392214 18.1633849,20.8872913 18.142753,20.926999 C18.1205385,20.9670353 18.0780892,20.9915927 18.0323082,20.9908927 L4.12265435,20.9908927 Z M23.4568815,19.1827016 L18.7296621,19.1827016 L14.9145769,12.0305154 L17.5311992,8.52432317 C17.6365875,8.39487487 17.794645,8.31973947 17.9615688,8.31973947 C18.1284926,8.31973947 18.2865501,8.39487487 18.3919384,8.52432317 C18.8766175,9.13040035 23.1438025,17.4320148 23.885882,18.3639497 C24.0145609,18.5165726 24.0354055,18.7286121 23.9433863,18.9024821 C23.8478667,19.0787704 23.662855,19.1879519 23.4623581,19.1863526 L23.4568815,19.1827016 Z" id="联合_3" fill="#FFFFFF" fill-rule="nonzero"></path>
            </g>
        </g>
    </g>
</svg>