<?xml version="1.0" encoding="UTF-8"?>
<svg width="32px" height="32px" viewBox="0 0 32 32" version="1.1" xmlns="http://www.w3.org/2000/svg" xmlns:xlink="http://www.w3.org/1999/xlink">
    <!-- Generator: Sketch 53 (72520) - https://sketchapp.com -->
    <title>烟花爆竹企业</title>
    <desc>Created with Sketch.</desc>
    <defs>
        <path d="M14,28 C10.2604653,28 6.74475408,26.5437515 4.10050675,23.8994937 C1.4562489,21.2552459 0,17.7395347 0,14 C0,10.2604653 1.4562489,6.74475408 4.10050675,4.10050675 C6.74475408,1.4562489 10.2604653,0 14,0 C17.7395347,0 21.2552459,1.4562489 23.8994937,4.10050675 C26.5437515,6.74475408 28,10.2604653 28,14 C28,17.7395347 26.5437515,21.2552459 23.8994937,23.8994937 C21.2552459,26.5437515 17.7395347,28 14,28 Z" id="path-1"></path>
        <filter x="-10.7%" y="-10.7%" width="121.4%" height="121.4%" filterUnits="objectBoundingBox" id="filter-2">
            <feMorphology radius="0.5" operator="dilate" in="SourceAlpha" result="shadowSpreadOuter1"></feMorphology>
            <feOffset dx="0" dy="0" in="shadowSpreadOuter1" result="shadowOffsetOuter1"></feOffset>
            <feGaussianBlur stdDeviation="0.5" in="shadowOffsetOuter1" result="shadowBlurOuter1"></feGaussianBlur>
            <feComposite in="shadowBlurOuter1" in2="SourceAlpha" operator="out" result="shadowBlurOuter1"></feComposite>
            <feColorMatrix values="0 0 0 0 0   0 0 0 0 0   0 0 0 0 0  0 0 0 0.26 0" type="matrix" in="shadowBlurOuter1"></feColorMatrix>
        </filter>
    </defs>
    <g id="其他图标" stroke="none" stroke-width="1" fill="none" fill-rule="evenodd">
        <g id="玉董" transform="translate(-666.000000, -70.000000)">
            <g id="烟花爆竹企业" transform="translate(668.000000, 72.000000)">
                <g id="路径">
                    <use fill="black" fill-opacity="1" filter="url(#filter-2)" xlink:href="#path-1"></use>
                    <path stroke="#FFFFFF" stroke-width="1" d="M14,27.5 C17.6069329,27.5 20.9954649,26.0964254 23.545941,23.5459397 C26.0964254,20.9954649 27.5,17.6069329 27.5,14 C27.5,10.393067 26.0964253,7.0045351 23.5459397,4.45405947 C20.9954647,1.90357486 17.6069327,0.5 14,0.5 C10.3930672,0.5 7.00453524,1.9035749 4.45405944,4.45406084 C1.9035749,7.00453524 0.5,10.3930672 0.5,14 C0.5,17.6069327 1.90357486,20.9954647 4.45406083,23.5459411 C7.0045351,26.0964253 10.393067,27.5 14,27.5 Z" stroke-linejoin="square" fill="#E29707" fill-rule="evenodd"></path>
                </g>
                <path d="M15.4042088,8.74545455 L16.6181818,10.2492605 L13.413973,13.1636364 L12.2,11.6598304 L15.4042088,8.74545455 Z M15.4042088,11.6909091 L16.6181818,13.194715 L13.413973,16.1090909 L12.2,14.605285 L15.4042088,11.6909091 Z M15.4042088,14.6363636 L16.6181818,16.1401696 L13.413973,19.0545455 L12.2,17.5507395 L15.4042088,14.6363636 Z M15.4042088,17.5818182 L16.6181818,19.0856241 L13.413973,22 L12.2,20.4961941 L15.4042088,17.5818182 Z M22.2785543,11.2700435 L21.1887448,12.6292423 L18.1629518,10.1289549 L19.2527612,8.76975618 L22.2785543,11.2700435 Z M22.3571463,14.4698793 L21.2673369,15.8290781 L18.2415438,13.3287907 L19.3313533,11.969592 L22.3571463,14.4698793 Z M22.4304989,17.4409654 L21.3406894,18.8001642 L18.3148964,16.2985469 L19.4047058,14.9393482 L22.4304989,17.4409654 Z M22.5090909,20.6408012 L21.4192815,22 L18.3934884,19.4983827 L19.4832978,18.139184 L22.5090909,20.6408012 Z M18.6011312,8.06884148 C18.1748304,8.30557565 17.7466057,8.68802352 17.3164571,9.21618509 L14.0273601,6.2807027 L8.58178684,11.0144674 L8.58178684,20.2096794 L11.0247219,20.2096794 L12.209974,21.9212456 L8.58178684,21.9212456 L8.58178684,21.9263801 L6.87022056,21.9263801 L6.87022056,12.5023092 L6.12288851,13.1519551 L5,11.8602196 L14.0421483,4 L18.6011312,8.06884148 Z M11.2759143,11.6654549 L12.3832246,13.2954401 L11.1077619,14.4039609 L9.75414389,14.4039609 L9.75414389,11.6654549 L11.2759143,11.6654549 Z" id="合并形状" fill="#FFFFFF" fill-rule="nonzero"></path>
            </g>
        </g>
    </g>
</svg>