<?xml version="1.0" encoding="UTF-8"?>
<svg width="32px" height="32px" viewBox="0 0 32 32" version="1.1" xmlns="http://www.w3.org/2000/svg" xmlns:xlink="http://www.w3.org/1999/xlink">
    <!-- Generator: Sketch 53 (72520) - https://sketchapp.com -->
    <title>煤矿企业</title>
    <desc>Created with Sketch.</desc>
    <defs>
        <rect id="path-1" x="0" y="0" width="28" height="28" rx="14"></rect>
        <filter x="-10.7%" y="-10.7%" width="121.4%" height="121.4%" filterUnits="objectBoundingBox" id="filter-2">
            <feMorphology radius="0.5" operator="dilate" in="SourceAlpha" result="shadowSpreadOuter1"></feMorphology>
            <feOffset dx="0" dy="0" in="shadowSpreadOuter1" result="shadowOffsetOuter1"></feOffset>
            <feGaussianBlur stdDeviation="0.5" in="shadowOffsetOuter1" result="shadowBlurOuter1"></feGaussianBlur>
            <feComposite in="shadowBlurOuter1" in2="SourceAlpha" operator="out" result="shadowBlurOuter1"></feComposite>
            <feColorMatrix values="0 0 0 0 0   0 0 0 0 0   0 0 0 0 0  0 0 0 0.26 0" type="matrix" in="shadowBlurOuter1"></feColorMatrix>
        </filter>
    </defs>
    <g id="其他图标" stroke="none" stroke-width="1" fill="none" fill-rule="evenodd">
        <g id="玉董" transform="translate(-927.000000, -482.000000)">
            <g id="煤矿企业" transform="translate(929.000000, 484.000000)">
                <g id="矩形">
                    <use fill="black" fill-opacity="1" filter="url(#filter-2)" xlink:href="#path-1"></use>
                    <rect stroke="#FFFFFF" stroke-width="1" stroke-linejoin="square" fill="#E29707" fill-rule="evenodd" x="0.5" y="0.5" width="27" height="27" rx="13.5"></rect>
                </g>
                <path d="M19.9265475,8.71951189 C19.764986,8.81602971 19.5657376,8.94357196 19.2637306,9.11211103 C18.9105779,9.30919271 18.5776122,9.48885016 18.2648337,9.65108338 L13.5024844,5.40073968 L7.77030194,10.3836498 L7.77030194,20.0628204 L10.867515,20.0628204 C10.9984185,20.3658339 11.1731249,20.6661087 11.3916344,20.9636447 C11.6141665,21.2666583 11.8965194,21.5669331 12.2386933,21.8644691 L7.77030194,21.8644691 L7.77030194,21.8698738 L5.96865322,21.8698738 L5.96865322,11.9497992 L5.18198791,12.6336369 L4,11.2739154 L13.5180508,3 L19.9265475,8.71951189 Z M10.5642061,11.0688999 C10.418297,11.4712221 10.3998974,11.9202798 10.5090075,12.4160729 C10.6430842,13.0253141 10.7211481,13.5289421 10.7663639,13.9515378 L9.00436199,13.9515378 L9.00436199,11.0688999 L10.5642061,11.0688999 Z M20.8833897,22.0676487 C20.2946044,22.0676487 19.8172996,21.5903439 19.8172996,21.0015586 C19.8172996,20.4127733 20.2946044,19.9354685 20.8833897,19.9354685 C21.472175,19.9354685 21.9494798,20.4127733 21.9494798,21.0015586 C21.9494798,21.5903439 21.472175,22.0676487 20.8833897,22.0676487 Z M15.1975757,22.0676487 C14.6087904,22.0676487 14.1314856,21.5903439 14.1314856,21.0015586 C14.1314856,20.4127733 14.6087904,19.9354685 15.1975757,19.9354685 C15.786361,19.9354685 16.2636658,20.4127733 16.2636658,21.0015586 C16.2636658,21.5903439 15.786361,22.0676487 15.1975757,22.0676487 Z M23.5024177,20.6461953 L22.4199809,20.6461953 C22.3474943,19.8112437 21.6712499,19.1571265 20.8343495,19.1124469 C19.9980712,19.1564322 19.321987,19.809778 19.2494289,20.6440631 L16.8834196,20.6440631 C16.8151169,19.8065664 16.1376492,19.1488455 15.2984989,19.1053397 C14.4618997,19.1498395 13.7861742,19.8043349 13.7149997,20.639088 L12.8983747,20.639088 C12.8661955,20.6379164 12.8396595,20.6134912 12.8358307,20.5815191 L12.5174252,18.7400261 C12.5134997,18.7177922 12.5194693,18.694952 12.5337719,18.6774822 C12.5449242,18.6637657 12.561582,18.6556971 12.5792584,18.6554496 L19.4463002,18.6554496 C19.4824716,18.6514472 19.5097757,18.6207684 19.5095549,18.584377 L19.5095549,17.788363 C19.5097757,17.7519715 19.4824716,17.7212928 19.4463002,17.7172903 L12.3909158,17.7172903 C12.3591302,17.715496 12.3331399,17.6912981 12.3290826,17.6597215 L12.2174985,17.010828 C12.2135505,16.9883715 12.2195114,16.9653052 12.2338452,16.9475733 C12.2449975,16.9338568 12.2616553,16.9257882 12.2793317,16.9255407 L19.4477217,16.9255407 C19.4657061,16.9248125 19.4826359,16.9168582 19.4946767,16.9034795 C19.5067176,16.8901008 19.5128507,16.8724296 19.5116871,16.8544681 L19.5116871,16.0620077 C19.5128507,16.0440462 19.5067176,16.026375 19.4946767,16.0129963 C19.4826359,15.9996176 19.4657061,15.9916633 19.4477217,15.9909351 L12.093832,15.9909351 C12.0615363,15.9894196 12.0350767,15.964764 12.0312881,15.9326555 L11.9182825,15.2858941 C11.914781,15.2628666 11.9221277,15.2395143 11.9381829,15.2226395 C11.9489648,15.2096149 11.9646604,15.2016384 11.9815372,15.2006069 L19.4491431,15.2006069 C19.4671276,15.1998787 19.4840574,15.1919244 19.4960982,15.1785457 C19.508139,15.165167 19.5142721,15.1474958 19.5131085,15.1295343 L19.5131085,14.3349418 C19.5142721,14.3169802 19.508139,14.299309 19.4960982,14.2859303 C19.4840574,14.2725516 19.4671276,14.2645973 19.4491431,14.2638691 L11.9850908,14.2638691 C11.9303648,14.263893 11.8762937,14.2757741 11.8265988,14.2986947 C11.8195091,14.3021031 11.8117207,14.3038068 11.8038555,14.3036698 C11.7715598,14.3021543 11.7451001,14.2774987 11.7413116,14.2453902 L11.3696015,12.1096563 C11.3656761,12.0874223 11.3716456,12.0645822 11.3859482,12.0471124 C11.3971005,12.0333959 11.4137583,12.0253273 11.4314347,12.0250798 L23.9366718,12.0250798 C23.9535092,12.0252025 23.969512,12.0324295 23.9807368,12.0449802 C23.9938775,12.0589734 24.0007989,12.0776871 23.9999265,12.0968632 L23.5656724,20.5800977 C23.5634039,20.6148171 23.5363335,20.6427899 23.501707,20.6461953 L23.5024177,20.6461953 Z M23.5621188,11.7855649 L18.5941388,11.7855649 C18.4520262,11.6041202 18.2991837,11.4313418 18.1364308,11.2681558 C17.9346201,11.0672702 17.7176848,10.8821742 17.4875373,10.7144997 C20.0973259,9.80121584 21.4747143,9.32076456 21.4747143,9.32076456 C21.9265339,9.40599203 22.34849,9.60705177 22.6992965,9.90427122 C23.2427149,10.3787496 23.556605,11.0634596 23.5614081,11.7848542 L23.5621188,11.7855649 Z M18.2444613,11.7855649 L11.8479206,11.7855649 L11.8479206,11.7798791 C11.9502652,11.5275711 12.897664,9.31578947 14.1457001,9.31578947 L14.1812365,9.31578947 C15.4989239,9.36198671 18.1314557,11.6853524 18.2423291,11.7841435 L18.2444613,11.7855649 Z" id="形状" fill="#FFFFFF" fill-rule="nonzero"></path>
            </g>
        </g>
    </g>
</svg>