<?xml version="1.0" encoding="UTF-8"?>
<svg width="32px" height="32px" viewBox="0 0 32 32" version="1.1" xmlns="http://www.w3.org/2000/svg" xmlns:xlink="http://www.w3.org/1999/xlink">
    <!-- Generator: Sketch 53 (72520) - https://sketchapp.com -->
    <title>煤矿煤矿</title>
    <desc>Created with Sketch.</desc>
    <defs>
        <path d="M14,28 C10.2604653,28 6.74475408,26.5437515 4.10050675,23.8994937 C1.4562489,21.2552459 0,17.7395347 0,14 C0,10.2604653 1.4562489,6.74475408 4.10050675,4.10050675 C6.74475408,1.4562489 10.2604653,0 14,0 C17.7395347,0 21.2552459,1.4562489 23.8994937,4.10050675 C26.5437515,6.74475408 28,10.2604653 28,14 C28,17.7395347 26.5437515,21.2552459 23.8994937,23.8994937 C21.2552459,26.5437515 17.7395347,28 14,28 Z" id="path-1"></path>
        <filter x="-10.7%" y="-10.7%" width="121.4%" height="121.4%" filterUnits="objectBoundingBox" id="filter-2">
            <feMorphology radius="0.5" operator="dilate" in="SourceAlpha" result="shadowSpreadOuter1"></feMorphology>
            <feOffset dx="0" dy="0" in="shadowSpreadOuter1" result="shadowOffsetOuter1"></feOffset>
            <feGaussianBlur stdDeviation="0.5" in="shadowOffsetOuter1" result="shadowBlurOuter1"></feGaussianBlur>
            <feComposite in="shadowBlurOuter1" in2="SourceAlpha" operator="out" result="shadowBlurOuter1"></feComposite>
            <feColorMatrix values="0 0 0 0 0   0 0 0 0 0   0 0 0 0 0  0 0 0 0.26 0" type="matrix" in="shadowBlurOuter1"></feColorMatrix>
        </filter>
    </defs>
    <g id="其他图标" stroke="none" stroke-width="1" fill="none" fill-rule="evenodd">
        <g id="玉董" transform="translate(-666.000000, -494.000000)">
            <g id="煤矿煤矿" transform="translate(668.000000, 496.000000)">
                <g id="路径">
                    <use fill="black" fill-opacity="1" filter="url(#filter-2)" xlink:href="#path-1"></use>
                    <path stroke="#FFFFFF" stroke-width="1" d="M14,27.5 C17.6069329,27.5 20.9954649,26.0964254 23.545941,23.5459397 C26.0964254,20.9954649 27.5,17.6069329 27.5,14 C27.5,10.393067 26.0964253,7.0045351 23.5459397,4.45405947 C20.9954647,1.90357486 17.6069327,0.5 14,0.5 C10.3930672,0.5 7.00453524,1.9035749 4.45405944,4.45406084 C1.9035749,7.00453524 0.5,10.3930672 0.5,14 C0.5,17.6069327 1.90357486,20.9954647 4.45406083,23.5459411 C7.0045351,26.0964253 10.393067,27.5 14,27.5 Z" stroke-linejoin="square" fill="#E29707" fill-rule="evenodd"></path>
                </g>
                <path d="M18.6666667,23.3333333 C17.8075571,23.3333333 17.1111111,22.6368874 17.1111111,21.7777778 C17.1111111,20.9186682 17.8075571,20.2222222 18.6666667,20.2222222 C19.5257763,20.2222222 20.2222222,20.9186682 20.2222222,21.7777778 C20.2222222,22.6368874 19.5257763,23.3333333 18.6666667,23.3333333 Z M10.3703704,23.3333333 C9.51126076,23.3333333 8.81481481,22.6368874 8.81481481,21.7777778 C8.81481481,20.9186682 9.51126076,20.2222222 10.3703704,20.2222222 C11.22948,20.2222222 11.9259259,20.9186682 11.9259259,21.7777778 C11.9259259,22.6368874 11.22948,23.3333333 10.3703704,23.3333333 Z M22.4881481,21.2592593 L20.9087407,21.2592593 C20.8029739,20.040963 19.8162508,19.0865263 18.5951111,19.0213333 C17.3748789,19.0855131 16.3883897,20.0388245 16.2825185,21.2561481 L12.8302222,21.2561481 C12.7305603,20.0341383 11.7420523,19.0744433 10.5176296,19.010963 C9.29692926,19.0758937 8.31096331,20.0308823 8.20711111,21.2488889 L7.01555556,21.2488889 C6.96860217,21.2471794 6.9298829,21.2115401 6.9242963,21.1648889 L6.4597037,18.4779259 C6.45397604,18.4454838 6.46268638,18.4121573 6.48355556,18.3866667 C6.49982816,18.3666527 6.52413391,18.3548796 6.54992593,18.3545185 L16.5697778,18.3545185 C16.6225562,18.3486784 16.6623962,18.3039144 16.6620741,18.2508148 L16.6620741,17.0893333 C16.6623962,17.0362337 16.6225562,16.9914697 16.5697778,16.9856296 L6.27511111,16.9856296 C6.22873207,16.9830114 6.19080897,16.9477037 6.18488889,16.9016296 L6.02207407,15.9548148 C6.01631347,15.9220481 6.02501123,15.8883916 6.04592593,15.8625185 C6.06219853,15.8425045 6.08650428,15.8307314 6.1122963,15.8303704 L16.5718519,15.8303704 C16.5980934,15.8293077 16.622796,15.8177016 16.640365,15.7981804 C16.6579341,15.7786592 16.6668831,15.7528748 16.6651852,15.7266667 L16.6651852,14.5703704 C16.6668831,14.5441623 16.6579341,14.5183778 16.640365,14.4988566 C16.622796,14.4793355 16.5980934,14.4677293 16.5718519,14.4666667 L5.84162963,14.4666667 C5.79450622,14.4644554 5.75589839,14.4284799 5.75037037,14.3816296 L5.58548148,13.4379259 C5.58037228,13.404326 5.59109214,13.3702521 5.61451852,13.3456296 C5.63025071,13.3266252 5.65315245,13.3149866 5.67777778,13.3134815 L16.5739259,13.3134815 C16.6001675,13.3124188 16.6248701,13.3008127 16.6424391,13.2812915 C16.6600082,13.2617703 16.6689571,13.2359859 16.6672593,13.2097778 L16.6672593,12.0503704 C16.6689571,12.0241623 16.6600082,11.9983778 16.6424391,11.9788566 C16.6248701,11.9593355 16.6001675,11.9477293 16.5739259,11.9466667 L5.68296296,11.9466667 C5.60311101,11.9467016 5.52421467,11.9640376 5.4517037,11.9974815 C5.44135901,12.0024548 5.42999486,12.0049407 5.41851852,12.0047407 C5.37139511,12.0025294 5.33278727,11.966554 5.32725926,11.9197037 L4.78488889,8.80340741 C4.77916122,8.77096533 4.78787157,8.73763878 4.80874074,8.71214815 C4.82501334,8.69213413 4.8493191,8.68036103 4.87511111,8.68 L23.1217778,8.68 C23.1463457,8.68017897 23.1696957,8.69072414 23.1860741,8.70903704 C23.2052478,8.72945489 23.2153471,8.75676038 23.2140741,8.78474074 L22.5804444,21.1628148 C22.5771344,21.2134747 22.5376353,21.2542905 22.4871111,21.2592593 L22.4881481,21.2592593 Z M22.5752593,8.33051852 L15.3263704,8.33051852 C15.1190107,8.06576861 14.8959949,7.81366376 14.6585185,7.57555556 C14.364052,7.28243883 14.047517,7.01236131 13.7117037,6.7677037 C17.5197037,5.43511111 19.5294815,4.73407407 19.5294815,4.73407407 C20.1887413,4.85843135 20.8044267,5.15180205 21.3162963,5.58548148 C22.1092099,6.27780332 22.5672139,7.27687877 22.5742222,8.32948148 L22.5752593,8.33051852 Z M14.8161481,8.33051852 L5.48281481,8.33051852 L5.48281481,8.32222222 C5.63214815,7.95407407 7.01451852,4.72681481 8.83555556,4.72681481 L8.88740741,4.72681481 C10.8100741,4.79422222 14.6512593,8.1842963 14.813037,8.32844444 L14.8161481,8.33051852 Z" id="Fill_1" fill="#FFFFFF" fill-rule="nonzero"></path>
            </g>
        </g>
    </g>
</svg>