<?xml version="1.0" encoding="UTF-8"?>
<svg width="32px" height="32px" viewBox="0 0 32 32" version="1.1" xmlns="http://www.w3.org/2000/svg" xmlns:xlink="http://www.w3.org/1999/xlink">
    <!-- Generator: Sketch 53 (72520) - https://sketchapp.com -->
    <title>生产（经营）场所</title>
    <desc>Created with Sketch.</desc>
    <defs>
        <path d="M14,28 C10.2604653,28 6.74475408,26.5437515 4.10050675,23.8994937 C1.4562489,21.2552459 0,17.7395347 0,14 C0,10.2604653 1.4562489,6.74475408 4.10050675,4.10050675 C6.74475408,1.4562489 10.2604653,0 14,0 C17.7395347,0 21.2552459,1.4562489 23.8994937,4.10050675 C26.5437515,6.74475408 28,10.2604653 28,14 C28,17.7395347 26.5437515,21.2552459 23.8994937,23.8994937 C21.2552459,26.5437515 17.7395347,28 14,28 Z" id="path-1"></path>
        <filter x="-10.7%" y="-10.7%" width="121.4%" height="121.4%" filterUnits="objectBoundingBox" id="filter-2">
            <feMorphology radius="0.5" operator="dilate" in="SourceAlpha" result="shadowSpreadOuter1"></feMorphology>
            <feOffset dx="0" dy="0" in="shadowSpreadOuter1" result="shadowOffsetOuter1"></feOffset>
            <feGaussianBlur stdDeviation="0.5" in="shadowOffsetOuter1" result="shadowBlurOuter1"></feGaussianBlur>
            <feComposite in="shadowBlurOuter1" in2="SourceAlpha" operator="out" result="shadowBlurOuter1"></feComposite>
            <feColorMatrix values="0 0 0 0 0   0 0 0 0 0   0 0 0 0 0  0 0 0 0.26 0" type="matrix" in="shadowBlurOuter1"></feColorMatrix>
        </filter>
    </defs>
    <g id="其他图标" stroke="none" stroke-width="1" fill="none" fill-rule="evenodd">
        <g id="玉董" transform="translate(-666.000000, -308.000000)">
            <g id="生产（经营）场所" transform="translate(668.000000, 310.000000)">
                <g id="路径">
                    <use fill="black" fill-opacity="1" filter="url(#filter-2)" xlink:href="#path-1"></use>
                    <path stroke="#FFFFFF" stroke-width="1" d="M14,27.5 C17.6069329,27.5 20.9954649,26.0964254 23.545941,23.5459397 C26.0964254,20.9954649 27.5,17.6069329 27.5,14 C27.5,10.393067 26.0964253,7.0045351 23.5459397,4.45405947 C20.9954647,1.90357486 17.6069327,0.5 14,0.5 C10.3930672,0.5 7.00453524,1.9035749 4.45405944,4.45406084 C1.9035749,7.00453524 0.5,10.3930672 0.5,14 C0.5,17.6069327 1.90357486,20.9954647 4.45406083,23.5459411 C7.0045351,26.0964253 10.393067,27.5 14,27.5 Z" stroke-linejoin="square" fill="#E29707" fill-rule="evenodd"></path>
                </g>
                <path d="M21.8713589,21.0821301 L13.6939293,21.0821301 L6.12062553,21.0821301 C6.08704378,21.0867353 6.05301348,21.0777388 6.02609505,21.0571393 C6.00564665,21.0297299 5.99668236,20.9954318 6.00110424,20.9615222 C6.00110424,16.1926226 6.00110424,11.6638521 6.00110424,7.50016486 C6.00110424,7.39802849 6.0250085,7.37412423 6.12497176,7.37412423 L6.12497176,7.37412423 L7.15828767,7.37412423 L8.38283766,7.37412423 L8.38283766,7.37412423 C8.45186008,7.37392814 8.51996549,7.38993105 8.58167763,7.42084619 L13.3397117,9.71348191 L13.3505773,9.71348191 L14.941297,10.4805913 L16.0365467,11.0086581 L16.8971,11.423723 L16.9286102,11.4378482 L16.9459951,11.4454541 L16.9742456,11.4584928 L17.0209675,11.4791374 L17.0209675,10.4718989 C17.0209675,9.08871152 17.0209675,7.61425337 17.0209675,6.13762211 C17.0209675,6.02896639 17.0481315,6.00071591 17.1459216,6.00071591 L17.1633065,6.00071591 C17.2719622,6.00071591 17.390397,6.00071591 17.5446881,6.00071591 C17.6533438,6.00071591 17.7848173,6.00071591 17.979311,6.00071591 L17.9869169,6.00071591 C18.0143204,5.99755522 18.0419002,6.00493573 18.0640625,6.02136049 C18.0815992,6.04465424 18.0890381,6.0740187 18.084707,6.10285228 C18.084707,6.28756701 18.084707,6.47445485 18.084707,6.64613089 C18.084707,6.81780693 18.084707,7.04381083 18.084707,7.24808359 C18.0777312,7.28604317 18.0863484,7.32521227 18.1086113,7.35673931 C18.1356356,7.37712187 18.1695752,7.3860944 18.2031418,7.38173013 L18.2096611,7.38173013 C18.4736945,7.38173013 18.7431607,7.38173013 19.0039345,7.38173013 L19.203861,7.38173013 L19.7308412,7.38173013 L19.7373606,7.38173013 C19.7731518,7.37697659 19.8093889,7.3863281 19.8384104,7.4078075 C19.8616681,7.43890214 19.8710996,7.4781999 19.8644878,7.51646322 C19.8644878,8.51826898 19.8644878,9.53311342 19.8644878,10.5153611 L19.8644878,11.1173138 C19.8644878,11.6591437 19.8644878,12.2006114 19.8644878,12.7417169 C19.8524858,12.8207005 19.8979924,12.8971517 19.9731435,12.9242585 C20.2991107,13.0796362 20.6315972,13.2382735 21.0281905,13.4295076 L21.8974363,13.845659 C21.9660466,13.8697533 22.0082669,13.9387585 21.9984861,14.0108157 C21.9984861,16.3208363 21.9984861,18.6634537 21.9984861,20.9734744 C22.003652,21.0077891 21.9954876,21.0427796 21.9756684,21.0712645 C21.9439107,21.0891975 21.9061308,21.0931329 21.8713589,21.0821301 Z M12.1553643,14.2226944 C12.1233363,14.2186039 12.090977,14.2271811 12.0651801,14.2465986 C12.0445355,14.2672432 12.0401892,14.3009265 12.0412758,14.3552543 C12.0412758,15.0452182 12.0412758,15.7275761 12.0412758,16.3860298 L12.0412758,16.9727707 C12.0412758,17.174146 12.0412758,17.3755212 12.0412758,17.5768965 L12.0412758,17.5768965 C12.0412758,18.2288308 12.0412758,18.9101022 12.0412758,19.5870273 C12.0360951,19.6226815 12.0450642,19.6589479 12.0662666,19.6880772 C12.093733,19.7083566 12.1281053,19.7169497 12.1618837,19.7119814 L12.1716627,19.7119814 C12.3813682,19.7119814 12.5671695,19.7119814 12.757317,19.7119814 L13.3647025,19.7119814 L13.3647025,19.7119814 C13.3930314,19.7201124 13.423543,19.7123136 13.4444957,19.6915862 C13.4654484,19.6708589 13.4735766,19.6404333 13.4657523,19.6120182 C13.4657523,17.8561417 13.4657523,16.0752744 13.4657523,14.319398 C13.4686676,14.2928528 13.4617052,14.2661638 13.4461943,14.2444255 C13.4247949,14.2282035 13.3978186,14.2211662 13.3712218,14.2248675 L13.3712218,14.2248675 L12.7410187,14.2248675 C12.4954567,14.2248675 12.3183479,14.2248675 12.1673164,14.2248675 L12.1553643,14.2226944 Z M10.0246256,14.2226944 C9.99188305,14.218012 9.95862779,14.2266193 9.93226825,14.2465986 C9.91252408,14.2755055 9.905458,14.3112285 9.91271022,14.3454753 C9.91271022,14.957207 9.91271022,15.5798043 9.91271022,16.1828436 L9.91271022,16.3686449 C9.91271022,16.5671227 9.91271022,16.7656004 9.91271022,16.9640782 L9.91271022,17.5312611 C9.91271022,18.1831954 9.91271022,18.8840248 9.91271022,19.6044123 C9.90941382,19.6341377 9.91549226,19.66415 9.93009513,19.6902503 C9.94422038,19.7087218 9.97029775,19.7163277 10.01376,19.7163277 L10.0191928,19.7163277 C10.2365043,19.7163277 10.4223056,19.7163277 10.6157127,19.7163277 L11.2350504,19.7163277 L11.23831,19.7163277 C11.2660727,19.719774 11.2940949,19.7123793 11.3165421,19.6956831 C11.3340788,19.6723893 11.3415178,19.6430249 11.3371867,19.6141913 C11.3371867,17.6659942 11.3371867,15.8883866 11.3371867,14.3324366 C11.3409651,14.3027919 11.3331829,14.2728306 11.3154556,14.2487717 C11.2915755,14.231598 11.2620297,14.2242115 11.2328772,14.2281272 L11.2252713,14.2281272 L10.6178859,14.2281272 C10.4549023,14.2281272 10.2745338,14.2281272 10.0322315,14.2281272 L10.0246256,14.2226944 Z M7.89388691,14.2226944 C7.86115125,14.2181341 7.82794226,14.2267293 7.80152955,14.2465986 C7.78142316,14.2737311 7.7728332,14.3077005 7.77762529,14.3411291 C7.77762529,14.9561205 7.77762529,15.583064 7.77762529,16.1882764 L7.77762529,16.3719045 C7.77762529,16.5711067 7.77762529,16.7703089 7.77762529,16.969511 L7.77762529,17.5247417 C7.77762529,18.2005803 7.77762529,18.9003232 7.77762529,19.5978929 C7.77322534,19.6297771 7.78140899,19.662122 7.80044299,19.6880772 C7.82534618,19.7067015 7.85652764,19.7148867 7.88736757,19.7108949 L7.89388691,19.7108949 C8.06664951,19.7108949 8.26548948,19.7108949 8.50235895,19.7108949 L9.08692673,19.7108949 L9.09453263,19.7108949 C9.12573704,19.7153012 9.15741086,19.7070895 9.18254377,19.6880772 C9.20147335,19.6620729 9.20964621,19.6297707 9.20536147,19.5978929 C9.20536147,17.852882 9.20536147,16.0839669 9.20536147,14.3400425 C9.21039787,14.3066015 9.20178445,14.2725393 9.18145721,14.2455121 C9.15576528,14.2258793 9.12331631,14.2172784 9.09127296,14.2216078 L9.08258051,14.2216078 C8.85114382,14.2216078 8.65773663,14.2216078 8.49257994,14.2216078 C8.28939374,14.2216078 8.09055377,14.2216078 7.90149281,14.2216078 L7.89388691,14.2226944 Z" id="Fill_1" fill="#FFFFFF" fill-rule="nonzero"></path>
            </g>
        </g>
    </g>
</svg>