<?xml version="1.0" encoding="UTF-8"?>
<svg width="32px" height="32px" viewBox="0 0 32 32" version="1.1" xmlns="http://www.w3.org/2000/svg" xmlns:xlink="http://www.w3.org/1999/xlink">
    <!-- Generator: Sketch 53 (72520) - https://sketchapp.com -->
    <title>生物灾害风险区</title>
    <desc>Created with Sketch.</desc>
    <defs>
        <path d="M14,28 C10.2604653,28 6.74475408,26.5437515 4.10050675,23.8994937 C1.4562489,21.2552459 0,17.7395347 0,14 C0,10.2604653 1.4562489,6.74475408 4.10050675,4.10050675 C6.74475408,1.4562489 10.2604653,0 14,0 C17.7395347,0 21.2552459,1.4562489 23.8994937,4.10050675 C26.5437515,6.74475408 28,10.2604653 28,14 C28,17.7395347 26.5437515,21.2552459 23.8994937,23.8994937 C21.2552459,26.5437515 17.7395347,28 14,28 Z" id="path-1"></path>
        <filter x="-10.7%" y="-10.7%" width="121.4%" height="121.4%" filterUnits="objectBoundingBox" id="filter-2">
            <feMorphology radius="0.5" operator="dilate" in="SourceAlpha" result="shadowSpreadOuter1"></feMorphology>
            <feOffset dx="0" dy="0" in="shadowSpreadOuter1" result="shadowOffsetOuter1"></feOffset>
            <feGaussianBlur stdDeviation="0.5" in="shadowOffsetOuter1" result="shadowBlurOuter1"></feGaussianBlur>
            <feComposite in="shadowBlurOuter1" in2="SourceAlpha" operator="out" result="shadowBlurOuter1"></feComposite>
            <feColorMatrix values="0 0 0 0 0   0 0 0 0 0   0 0 0 0 0  0 0 0 0.26 0" type="matrix" in="shadowBlurOuter1"></feColorMatrix>
        </filter>
    </defs>
    <g id="其他图标" stroke="none" stroke-width="1" fill="none" fill-rule="evenodd">
        <g id="玉董" transform="translate(-376.000000, -725.000000)">
            <g id="生物灾害风险区" transform="translate(378.000000, 727.000000)">
                <g id="路径">
                    <use fill="black" fill-opacity="1" filter="url(#filter-2)" xlink:href="#path-1"></use>
                    <path stroke="#FFFFFF" stroke-width="1" d="M14,27.5 C17.6069329,27.5 20.9954649,26.0964254 23.545941,23.5459397 C26.0964254,20.9954649 27.5,17.6069329 27.5,14 C27.5,10.393067 26.0964253,7.0045351 23.5459397,4.45405947 C20.9954647,1.90357486 17.6069327,0.5 14,0.5 C10.3930672,0.5 7.00453524,1.9035749 4.45405944,4.45406084 C1.9035749,7.00453524 0.5,10.3930672 0.5,14 C0.5,17.6069327 1.90357486,20.9954647 4.45406083,23.5459411 C7.0045351,26.0964253 10.393067,27.5 14,27.5 Z" stroke-linejoin="square" fill="#E2AC07" fill-rule="evenodd"></path>
                </g>
                <path d="M23.5013333,14.2177778 C23.4962956,14.6395009 23.155649,14.9801475 22.7339259,14.9851852 L20.049037,14.9851852 C20.0867253,16.19383 19.8101581,17.3915735 19.2463704,18.4613333 L21.7352593,20.9668148 C21.8807144,21.1085306 21.962752,21.3029964 21.962752,21.5060741 C21.962752,21.7091518 21.8807144,21.9036175 21.7352593,22.0453333 C21.593687,22.1910535 21.3991676,22.2732762 21.196,22.2732762 C20.9928324,22.2732762 20.798313,22.1910535 20.6567407,22.0453333 L18.282963,19.684 C18.2428642,19.7234074 18.1830617,19.7752593 18.1035556,19.8395556 C18.0240494,19.9038519 17.8560494,20.0175802 17.5995556,20.1807407 C17.3487916,20.3418209 17.088734,20.4879518 16.8207407,20.6183704 C16.5047067,20.7648692 16.175541,20.8811883 15.8376296,20.9657778 C15.458544,21.0679987 15.0677355,21.1202925 14.6751111,21.1213333 L14.6751111,10.3828148 L13.1413333,10.3828148 L13.1413333,21.1213333 C12.7305161,21.1209229 12.3215338,21.0665314 11.9248889,20.9595556 C11.5631629,20.8677347 11.2131327,20.7348206 10.8816296,20.5634074 C10.5898765,20.4078519 10.3261235,20.2522963 10.0903704,20.0967407 C9.90791432,19.9800716 9.73457693,19.8497219 9.57185185,19.7068148 L9.39244444,19.5388148 L7.19911111,22.0194074 C7.05201329,22.1816954 6.84257885,22.2733937 6.62355556,22.2714074 C6.43308646,22.2729256 6.24864722,22.2046831 6.10503704,22.0795556 C5.80039035,21.7886814 5.77406502,21.3111942 6.04488889,20.9885926 L8.46533333,18.2674074 C7.97709923,17.2430482 7.73896806,16.1174342 7.77051852,14.9831111 L5.08562963,14.9831111 C4.67305719,14.967937 4.34642791,14.6290736 4.34642791,14.2162222 C4.34642791,13.8033708 4.67305719,13.4645075 5.08562963,13.4493333 L7.77051852,13.4493333 L7.77051852,9.92340741 L5.69644444,7.84933333 C5.49522844,7.65826403 5.41355842,7.3730447 5.48314868,7.10443242 C5.55273893,6.83582014 5.76262539,6.62613531 6.03130443,6.55680324 C6.29998346,6.48747117 6.58512416,6.56941527 6.776,6.77081481 L8.85007407,8.84488889 L18.9674074,8.84488889 L21.0414815,6.77081481 C21.2341402,6.57815586 21.5149466,6.50291391 21.7781235,6.57343189 C22.0413004,6.64394988 22.2468649,6.84951443 22.3173829,7.11269132 C22.3879009,7.37586822 22.312659,7.65667459 22.12,7.84933333 L20.0459259,9.92340741 L20.0459259,13.4493333 L22.7308148,13.4493333 C23.1523078,13.4549168 23.4926388,13.7952477 23.4982222,14.2167407 L23.5013333,14.2177778 Z M17.7478519,7.31422222 L10.0737778,7.31422222 C10.0737778,5.19508518 11.7916778,3.47718519 13.9108148,3.47718519 C16.0299519,3.47718519 17.7478519,5.19508518 17.7478519,7.31422222 Z" id="路径_23" fill="#FFFFFF" fill-rule="nonzero"></path>
            </g>
        </g>
    </g>
</svg>