<?xml version="1.0" encoding="UTF-8"?>
<svg width="34px" height="34px" viewBox="0 0 34 34" version="1.1" xmlns="http://www.w3.org/2000/svg" xmlns:xlink="http://www.w3.org/1999/xlink">
    <!-- Generator: Sketch 53 (72520) - https://sketchapp.com -->
    <title>病原微生物实验室类危险源</title>
    <desc>Created with Sketch.</desc>
    <defs>
        <filter x="-17.9%" y="-17.9%" width="135.7%" height="135.7%" filterUnits="objectBoundingBox" id="filter-1">
            <feMorphology radius="0.5" operator="dilate" in="SourceAlpha" result="shadowSpreadOuter1"></feMorphology>
            <feOffset dx="0" dy="0" in="shadowSpreadOuter1" result="shadowOffsetOuter1"></feOffset>
            <feGaussianBlur stdDeviation="0.5" in="shadowOffsetOuter1" result="shadowBlurOuter1"></feGaussianBlur>
            <feComposite in="shadowBlurOuter1" in2="SourceAlpha" operator="out" result="shadowBlurOuter1"></feComposite>
            <feColorMatrix values="0 0 0 0 0   0 0 0 0 0   0 0 0 0 0  0 0 0 0.26 0" type="matrix" in="shadowBlurOuter1" result="shadowMatrixOuter1"></feColorMatrix>
            <feMerge>
                <feMergeNode in="shadowMatrixOuter1"></feMergeNode>
                <feMergeNode in="SourceGraphic"></feMergeNode>
            </feMerge>
        </filter>
        <path d="M14,28 C10.2604653,28 6.74475408,26.5437515 4.10050675,23.8994937 C1.4562489,21.2552459 0,17.7395347 0,14 C0,10.2604653 1.4562489,6.74475408 4.10050675,4.10050675 C6.74475408,1.4562489 10.2604653,0 14,0 C17.7395347,0 21.2552459,1.4562489 23.8994937,4.10050675 C26.5437515,6.74475408 28,10.2604653 28,14 C28,17.7395347 26.5437515,21.2552459 23.8994937,23.8994937 C21.2552459,26.5437515 17.7395347,28 14,28 Z" id="path-2"></path>
        <filter x="-10.7%" y="-10.7%" width="121.4%" height="121.4%" filterUnits="objectBoundingBox" id="filter-3">
            <feMorphology radius="0.5" operator="dilate" in="SourceAlpha" result="shadowSpreadOuter1"></feMorphology>
            <feOffset dx="0" dy="0" in="shadowSpreadOuter1" result="shadowOffsetOuter1"></feOffset>
            <feGaussianBlur stdDeviation="0.5" in="shadowOffsetOuter1" result="shadowBlurOuter1"></feGaussianBlur>
            <feComposite in="shadowBlurOuter1" in2="SourceAlpha" operator="out" result="shadowBlurOuter1"></feComposite>
            <feColorMatrix values="0 0 0 0 0   0 0 0 0 0   0 0 0 0 0  0 0 0 0.26 0" type="matrix" in="shadowBlurOuter1"></feColorMatrix>
        </filter>
    </defs>
    <g id="其他图标" stroke="none" stroke-width="1" fill="none" fill-rule="evenodd">
        <g id="玉董" transform="translate(-132.000000, -655.000000)">
            <g id="病原微生物实验室类危险源" filter="url(#filter-1)" transform="translate(135.000000, 658.000000)">
                <g id="路径">
                    <use fill="black" fill-opacity="1" filter="url(#filter-3)" xlink:href="#path-2"></use>
                    <path stroke="#FFFFFF" stroke-width="1" d="M14,27.5 C17.6069329,27.5 20.9954649,26.0964254 23.545941,23.5459397 C26.0964254,20.9954649 27.5,17.6069329 27.5,14 C27.5,10.393067 26.0964253,7.0045351 23.5459397,4.45405947 C20.9954647,1.90357486 17.6069327,0.5 14,0.5 C10.3930672,0.5 7.00453524,1.9035749 4.45405944,4.45406084 C1.9035749,7.00453524 0.5,10.3930672 0.5,14 C0.5,17.6069327 1.90357486,20.9954647 4.45406083,23.5459411 C7.0045351,26.0964253 10.393067,27.5 14,27.5 Z" stroke-linejoin="square" fill="#BFB60A" fill-rule="evenodd"></path>
                </g>
                <path d="M22.213,16.472 L16.769,8.697 L16.769,5.739 L16.821,5.739 C17.4141538,5.739 17.895,5.25815382 17.895,4.665 C17.895,4.07184618 17.4141538,3.591 16.821,3.591 L10.774,3.591 C10.18057,3.591 9.6995,4.07207004 9.6995,4.6655 C9.6995,5.25892996 10.18057,5.74 10.774,5.74 L10.868,5.74 L10.868,8.697 L5.168,16.843 C5.11815623,16.9147959 5.07938965,16.9936775 5.053,17.077 C4.782222,17.6969003 4.6511241,18.368777 4.669,19.045 C4.66895313,19.4120606 4.729431,19.7766171 4.848,20.124 C4.86434573,20.2000025 4.88572621,20.2748341 4.912,20.348 L5.079,20.687 C5.21620701,20.9022637 5.39922485,21.0845987 5.615,21.221 C5.77619504,21.3853981 5.99675974,21.4780209 6.227,21.478 L6.363,21.478 C6.47572139,21.4892219 6.58927861,21.4892219 6.702,21.478 L20.966,21.478 C21.0787214,21.4892219 21.1922786,21.4892219 21.305,21.478 L21.371,21.478 C21.5433465,21.4782085 21.7117233,21.4262662 21.854,21.329 C22.1555644,21.1900172 22.4107301,20.9671378 22.589,20.687 L22.756,20.348 C22.7823888,20.2748712 22.8037715,20.2000317 22.82,20.124 C22.9382291,19.7765599 22.9983688,19.4120049 22.998,19.045 C23.0560398,18.1204719 22.7767701,17.2062721 22.212,16.472 L22.213,16.472 Z M12.368,9.549 C12.4848285,9.34793249 12.5590339,9.12497592 12.586,8.894 L12.586,5.74 L15.053,5.74 L15.053,8.894 C15.0799913,9.12482877 15.153833,9.34771495 15.27,9.549 L21.07,17.828 C21.0922838,17.8586966 21.1163239,17.8880789 21.142,17.916 C21.2220847,18.1111477 21.2710146,18.3176653 21.287,18.528 C21.287,19.101 21.165,19.567 20.624,19.761 L7.046,19.761 C6.504,19.566 6.382,19.101 6.382,18.528 C6.40179079,18.3020616 6.45608762,18.0804901 6.543,17.871 L6.543,17.871 C6.554,17.857 6.565,17.843 6.575,17.828 L12.368,9.549 Z M19.39,18.812 L17.202,15.844 C16.4480388,16.3924523 15.3977587,16.2611672 14.802,15.544 C14.7379358,15.3949258 14.6512489,15.2566315 14.545,15.134 L14.533,15.109 L14.523,15.109 C14.1121159,14.6525138 13.4728972,14.4773247 12.8866914,14.6605409 C12.3004857,14.8437571 11.8748012,15.3517773 11.797,15.961 C11.6551657,16.251503 11.3669591,16.4422527 11.0441297,16.4592874 C10.7213004,16.4763222 10.4146195,16.316963 10.243,16.043 L8.201,18.813 L19.39,18.812 Z" id="路径_6" fill="#FFFFFF" fill-rule="nonzero"></path>
            </g>
        </g>
    </g>
</svg>