<?xml version="1.0" encoding="UTF-8"?>
<svg width="32px" height="32px" viewBox="0 0 32 32" version="1.1" xmlns="http://www.w3.org/2000/svg" xmlns:xlink="http://www.w3.org/1999/xlink">
    <!-- Generator: Sketch 53 (72520) - https://sketchapp.com -->
    <title>石油和天然气企业</title>
    <desc>Created with Sketch.</desc>
    <defs>
        <rect id="path-1" x="0" y="0" width="28" height="28" rx="14"></rect>
        <filter x="-10.7%" y="-10.7%" width="121.4%" height="121.4%" filterUnits="objectBoundingBox" id="filter-2">
            <feMorphology radius="0.5" operator="dilate" in="SourceAlpha" result="shadowSpreadOuter1"></feMorphology>
            <feOffset dx="0" dy="0" in="shadowSpreadOuter1" result="shadowOffsetOuter1"></feOffset>
            <feGaussianBlur stdDeviation="0.5" in="shadowOffsetOuter1" result="shadowBlurOuter1"></feGaussianBlur>
            <feComposite in="shadowBlurOuter1" in2="SourceAlpha" operator="out" result="shadowBlurOuter1"></feComposite>
            <feColorMatrix values="0 0 0 0 0   0 0 0 0 0   0 0 0 0 0  0 0 0 0.26 0" type="matrix" in="shadowBlurOuter1"></feColorMatrix>
        </filter>
    </defs>
    <g id="其他图标" stroke="none" stroke-width="1" fill="none" fill-rule="evenodd">
        <g id="玉董" transform="translate(-926.000000, -372.000000)">
            <g id="石油和天然气企业" transform="translate(928.000000, 374.000000)">
                <g id="矩形">
                    <use fill="black" fill-opacity="1" filter="url(#filter-2)" xlink:href="#path-1"></use>
                    <rect stroke="#FFFFFF" stroke-width="1" stroke-linejoin="square" fill="#E29707" fill-rule="evenodd" x="0.5" y="0.5" width="27" height="27" rx="13.5"></rect>
                </g>
                <path d="M13.2,15.999 L13.2,17 C13.2,17.3865993 12.8865993,17.7 12.5,17.7 L11.1,17.7 C10.7134007,17.7 10.4,17.3865993 10.4,17 L10.4,15.6 C10.4,15.2134007 10.7134007,14.9 11.1,14.9 L12.2438,14.9 L20.2,11.19 L20.2,10.7 C20.2,10.3134007 20.5134007,10 20.9,10 C21.2865993,10 21.6,10.3134007 21.6,10.7 L21.6,11.5001 C21.6162649,11.5859027 21.6162649,11.6739973 21.6,11.7598 L21.6,12.8 C21.6,13.1865993 21.2865993,13.5 20.9,13.5 C20.5134007,13.5 20.2,13.1865993 20.2,12.8 L20.2,12.7349 L16.7,14.3666 L16.7,14.6186 C16.7571161,14.6622415 16.8071695,14.7144198 16.8484,14.7733 L21.2654,21.0803 C21.2913,21.1188 21.3144,21.1587 21.3319,21.2 L22.3,21.2 C22.6865993,21.2 23,21.5134007 23,21.9 C23,22.2865993 22.6865993,22.6 22.3,22.6 L9.7,22.6 C9.31340068,22.6 9,22.2865993 9,21.9 C9,21.5134007 9.31340068,21.2 9.7,21.2 L15.3,21.2 L15.3,15.019 L13.2,15.999 Z M19.6393,21.2 L16.7,17.0021 L16.7,21.2 L19.6393,21.2 Z M11.38,19.24 L11.8,18.4 L12.22,19.24 C12.4629035,19.4198853 12.5625716,19.735581 12.4669887,20.0223296 C12.3714059,20.3090782 12.102254,20.5018339 11.8,20.5 C11.4986987,20.5 11.2312015,20.3071989 11.1359217,20.0213594 C11.0406419,19.7355199 11.138959,19.4207808 11.38,19.24 L11.38,19.24 Z M19.2604943,10.5498045 C18.9496489,10.8454927 18.4513889,11.1545449 17.7434463,11.4897571 L13.0273601,7.2807027 L7.58178684,12.0144674 L7.58178684,21.2096794 L8.41290929,21.2096794 C8.38504802,21.4799433 8.41935374,21.7652043 8.51582645,22.0654625 C8.61797557,22.3833878 8.80098207,22.6686488 9.06484597,22.9212456 L7.58178684,22.9212456 L7.58178684,22.9263801 L5.87022056,22.9263801 L5.87022056,13.5023092 L5.12288851,14.1519551 L4,12.8602196 L13.0421483,5 L19.2604943,10.5498045 Z M11.4926499,14.1959204 C10.8204123,14.1815537 10.7466436,14.1571708 10.1116469,14.771357 C9.89818182,14.9778263 9.74532882,15.1886943 9.6530879,15.4039609 L8.75414389,15.4039609 L8.75414389,12.6654549 L11.4926499,12.6654549 L11.4926499,14.1959204 Z" id="合并形状" fill="#FFFFFF" fill-rule="nonzero"></path>
            </g>
        </g>
    </g>
</svg>