<?xml version="1.0" encoding="UTF-8"?>
<svg width="32px" height="32px" viewBox="0 0 32 32" version="1.1" xmlns="http://www.w3.org/2000/svg" xmlns:xlink="http://www.w3.org/1999/xlink">
    <!-- Generator: Sketch 53 (72520) - https://sketchapp.com -->
    <title>自然疫源地类危险源</title>
    <desc>Created with Sketch.</desc>
    <defs>
        <path d="M14,28 C10.2604653,28 6.74475408,26.5437515 4.10050675,23.8994937 C1.4562489,21.2552459 0,17.7395347 0,14 C0,10.2604653 1.4562489,6.74475408 4.10050675,4.10050675 C6.74475408,1.4562489 10.2604653,0 14,0 C17.7395347,0 21.2552459,1.4562489 23.8994937,4.10050675 C26.5437515,6.74475408 28,10.2604653 28,14 C28,17.7395347 26.5437515,21.2552459 23.8994937,23.8994937 C21.2552459,26.5437515 17.7395347,28 14,28 Z" id="path-1"></path>
        <filter x="-10.7%" y="-10.7%" width="121.4%" height="121.4%" filterUnits="objectBoundingBox" id="filter-2">
            <feMorphology radius="0.5" operator="dilate" in="SourceAlpha" result="shadowSpreadOuter1"></feMorphology>
            <feOffset dx="0" dy="0" in="shadowSpreadOuter1" result="shadowOffsetOuter1"></feOffset>
            <feGaussianBlur stdDeviation="0.5" in="shadowOffsetOuter1" result="shadowBlurOuter1"></feGaussianBlur>
            <feComposite in="shadowBlurOuter1" in2="SourceAlpha" operator="out" result="shadowBlurOuter1"></feComposite>
            <feColorMatrix values="0 0 0 0 0   0 0 0 0 0   0 0 0 0 0  0 0 0 0.26 0" type="matrix" in="shadowBlurOuter1"></feColorMatrix>
        </filter>
    </defs>
    <g id="其他图标" stroke="none" stroke-width="1" fill="none" fill-rule="evenodd">
        <g id="玉董" transform="translate(-133.000000, -558.000000)">
            <g id="自然疫源地类危险源" transform="translate(135.000000, 560.000000)">
                <g id="路径">
                    <use fill="black" fill-opacity="1" filter="url(#filter-2)" xlink:href="#path-1"></use>
                    <path stroke="#FFFFFF" stroke-width="1" d="M14,27.5 C17.6069329,27.5 20.9954649,26.0964254 23.545941,23.5459397 C26.0964254,20.9954649 27.5,17.6069329 27.5,14 C27.5,10.393067 26.0964253,7.0045351 23.5459397,4.45405947 C20.9954647,1.90357486 17.6069327,0.5 14,0.5 C10.3930672,0.5 7.00453524,1.9035749 4.45405944,4.45406084 C1.9035749,7.00453524 0.5,10.3930672 0.5,14 C0.5,17.6069327 1.90357486,20.9954647 4.45406083,23.5459411 C7.0045351,26.0964253 10.393067,27.5 14,27.5 Z" stroke-linejoin="square" fill="#BFB60A" fill-rule="evenodd"></path>
                </g>
                <path d="M13.7170899,13.9406837 L12.2509034,13.9406837 L12.5597181,14.3659425 L10.7088519,17.2060971 L10.0921977,17.2060971 L10.7088519,22.5347159 L8.1644192,22.5347159 L8.85800946,17.2060971 L4,17.2060971 L6.62144011,13.9406837 L4.92546877,13.9406837 L7.46990144,11.022402 L6.23174152,11.022402 L8.47230631,7.90136089 L7.31595788,7.90136089 L9.62955846,4 L11.9352395,7.90814731 L10.7779873,7.90814731 L13.0185521,11.0292836 L11.5573132,11.0292836 L13.6754789,13.6089927 C13.6957839,13.5197298 13.7406068,13.4372685 13.8057552,13.3716469 C13.8967718,13.2800164 14.019966,13.2287729 14.1482862,13.2291527 C14.3004858,13.2288362 14.4439338,13.301112 14.5354504,13.4242514 C14.6269514,13.5473909 14.6557692,13.7070084 14.6133396,13.85501 L15.1082421,14.3151884 C15.3705745,14.0602704 15.6671417,13.8465918 15.9879414,13.6798041 C15.9045744,13.5790701 15.8545455,13.4498377 15.8545455,13.3090991 C15.8545455,12.9918812 16.1086157,12.7331543 16.4257383,12.727372 C16.5046985,12.7259163 16.5816353,12.7405087 16.6525665,12.768908 L16.5294537,12.1352042 C16.0708234,12.1155329 15.7047256,11.7348625 15.7047256,11.268243 C15.7047256,10.7888364 16.0908427,10.4 16.5665698,10.4 C17.0423126,10.4 17.4284922,10.7886623 17.4284922,11.268243 C17.4282422,11.5982396 17.2429741,11.899481 16.9506241,12.0453144 L17.1938246,13.2963485 C17.3608549,13.2736545 17.5294012,13.2622125 17.697885,13.2622125 C18.2650038,13.2614212 18.8247931,13.3914765 19.334839,13.6424714 L19.8854235,12.6567071 C19.7819516,12.5380779 19.7249881,12.3855661 19.7249881,12.2278634 C19.7254725,12.0547782 19.7938443,11.8889095 19.9150851,11.7668778 C20.0363259,11.6448462 20.2004808,11.576606 20.3714025,11.5771599 C20.5423399,11.5766693 20.7064322,11.6449095 20.8276105,11.7669411 C20.9487888,11.8889728 21.0171606,12.0547782 21.0175825,12.2278634 C21.01727,12.4207465 20.9326608,12.6035961 20.7865874,12.7273053 C20.6404358,12.8509986 20.4477758,12.9028593 20.2602417,12.8690557 L19.7098447,13.8554373 C19.8934718,13.9741297 20.0665971,14.1087111 20.22722,14.2576938 L22.2508381,12.2900582 C22.2133,12.2075274 22.1925931,12.115976 22.1925931,12.0191705 C22.1930307,11.8460694 22.26134,11.6802165 22.3825183,11.5581216 C22.5037591,11.4360266 22.6678515,11.3677706 22.8388357,11.368277 C23.1947285,11.3674066 23.4840312,11.6587569 23.4851876,12.0191705 C23.4851876,12.3786344 23.1955256,12.6703013 22.8388357,12.6703013 C22.7383486,12.6704912 22.6393306,12.6469426 22.5497206,12.6011906 L20.5254305,14.5692535 C21.0596371,15.1922147 21.374585,15.9771198 21.4207965,16.8008611 L22.7442716,16.8008611 C22.8326158,16.5479038 23.0722219,16.3666525 23.3535856,16.3666525 C23.5245698,16.3660828 23.6887246,16.4344022 23.8099654,16.5564971 C23.9311437,16.6785762 23.9995155,16.8443817 24,17.0175302 C23.9995155,17.1906945 23.9311437,17.3564841 23.8099654,17.478579 C23.6887246,17.600674 23.5245698,17.6689933 23.3535856,17.6684236 C23.0801452,17.6689933 22.8360852,17.4950219 22.7442716,17.2342151 L21.4209684,17.2342151 C21.3741474,18.0663598 21.0532922,18.8586238 20.5096152,19.4844178 L21.5351298,20.4954715 C21.6652785,20.4155361 21.8181969,20.3697367 21.9814454,20.3697367 C22.4575945,20.3697367 22.8432896,20.7583832 22.8432896,21.2379797 C22.8432896,21.7167058 22.4575945,22.1055422 21.9816173,22.1055422 C21.5054682,22.1055422 21.1199605,21.7167058 21.1199605,21.2379797 C21.119773,21.0857211 21.1593896,20.9361211 21.2347783,20.8043884 L20.2092636,19.7940151 C19.7390219,20.2256916 19.1677617,20.5287371 18.5495399,20.6743173 L18.5836711,20.8720114 C18.7848171,20.9316108 18.9313906,21.1187334 18.9313906,21.340166 C18.9310155,21.4700471 18.8796781,21.594421 18.788724,21.6859882 C18.6977075,21.777603 18.5745757,21.8287831 18.446318,21.8284192 C18.1793632,21.828973 17.9625269,21.6104365 17.9617924,21.340166 C17.9617299,21.1843149 18.0355402,21.0379276 18.1601878,20.9465028 L18.1256347,20.7484288 C17.9850466,20.764207 17.8429895,20.7728478 17.697885,20.7728478 C17.3682938,20.7728478 17.0489701,20.7298337 16.7447116,20.648838 L16.2952236,22.0331557 C16.4490641,22.152402 16.5480196,22.33867 16.5480196,22.5491037 C16.5475976,22.722189 16.4792258,22.8880577 16.357985,23.0101526 C16.2367442,23.1321684 16.0725894,23.2004878 15.9016677,23.1999972 C15.5455716,23.2010417 15.2559721,22.9096913 15.2548156,22.5491037 C15.2548156,22.1950047 15.5361793,21.907041 15.8862742,21.8984002 L16.3360123,20.5146997 C15.6558886,20.245347 15.0685005,19.780231 14.6463612,19.1768145 L12.884697,20.2766343 C12.9107018,20.3604628 12.9239386,20.4479313 12.9239386,20.5358428 C12.9239386,21.0152494 12.538259,21.4040858 12.0620943,21.4040858 C11.5861171,21.4040858 11.2,21.0154393 11.2,20.5358428 C11.2,20.0566894 11.5861171,19.6682803 12.0620943,19.6682803 C12.2840565,19.6678371 12.4975954,19.7543244 12.6581558,19.9095582 L14.4200701,18.8097384 C14.1318145,18.2770309 13.968441,17.6666986 13.968441,17.0175302 C13.9686286,16.8626128 13.9780365,16.7075214 13.9967743,16.5537118 L13.578667,16.4765617 C13.4629897,16.6792567 13.2492008,16.8038838 13.0180182,16.8034565 C12.8470965,16.8039471 12.6830041,16.7357069 12.5617633,16.6136752 C12.4405225,16.4916436 12.3721507,16.3258382 12.3716037,16.152753 C12.3728227,15.7923394 12.6621253,15.5009891 13.0180182,15.5018595 C13.3350915,15.5013056 13.6055938,15.7340536 13.6563218,16.050994 L14.0735695,16.1281441 C14.2063437,15.5793736 14.4604211,15.0683789 14.8166266,14.6336165 L14.321724,14.173438 C14.2677611,14.1942013 14.2090942,14.2054533 14.1482862,14.2054533 C13.9607561,14.2060203 13.7978117,14.09844 13.7170899,13.9406837 Z M16.4362189,16.2181818 C15.4720988,16.2181818 14.6909091,16.9992867 14.6909091,17.9636 C14.6909091,18.927495 15.4720988,19.7090909 16.4362189,19.7090909 C17.4004115,19.7090909 18.1818182,18.927495 18.1818182,17.9636 C18.1818182,16.9992867 17.4004115,16.2181818 16.4362189,16.2181818 Z" id="Fill-2" fill="#FFFFFF"></path>
            </g>
        </g>
    </g>
</svg>