<?xml version="1.0" encoding="UTF-8"?>
<svg width="32px" height="32px" viewBox="0 0 32 32" version="1.1" xmlns="http://www.w3.org/2000/svg" xmlns:xlink="http://www.w3.org/1999/xlink">
    <!-- Generator: Sketch 53 (72520) - https://sketchapp.com -->
    <title>菌毒株保藏类危险源</title>
    <desc>Created with Sketch.</desc>
    <defs>
        <rect id="path-1" x="0" y="0" width="28" height="28" rx="14"></rect>
        <filter x="-10.7%" y="-10.7%" width="121.4%" height="121.4%" filterUnits="objectBoundingBox" id="filter-2">
            <feMorphology radius="0.5" operator="dilate" in="SourceAlpha" result="shadowSpreadOuter1"></feMorphology>
            <feOffset dx="0" dy="0" in="shadowSpreadOuter1" result="shadowOffsetOuter1"></feOffset>
            <feGaussianBlur stdDeviation="0.5" in="shadowOffsetOuter1" result="shadowBlurOuter1"></feGaussianBlur>
            <feComposite in="shadowBlurOuter1" in2="SourceAlpha" operator="out" result="shadowBlurOuter1"></feComposite>
            <feColorMatrix values="0 0 0 0 0   0 0 0 0 0   0 0 0 0 0  0 0 0 0.26 0" type="matrix" in="shadowBlurOuter1"></feColorMatrix>
        </filter>
    </defs>
    <g id="其他图标" stroke="none" stroke-width="1" fill="none" fill-rule="evenodd">
        <g id="玉董" transform="translate(-133.000000, -707.000000)">
            <g id="菌毒株保藏类危险源" transform="translate(135.000000, 709.000000)">
                <g id="矩形">
                    <use fill="black" fill-opacity="1" filter="url(#filter-2)" xlink:href="#path-1"></use>
                    <rect stroke="#FFFFFF" stroke-width="1" stroke-linejoin="square" fill="#BFB60A" fill-rule="evenodd" x="0.5" y="0.5" width="27" height="27" rx="13.5"></rect>
                </g>
                <path d="M13.106,12.737 C13.6609159,12.7370003 14.1108156,13.1867511 14.1109994,13.741667 C14.1111833,14.2965829 13.6615818,14.7466318 13.106666,14.7469998 C12.5517502,14.7473678 12.1015522,14.2979157 12.101,13.743 C12.0993939,13.4758766 12.2047294,13.2192144 12.3935236,13.0302323 C12.5823178,12.8412503 12.8388752,12.7356595 13.106,12.737 L13.106,12.737 Z M13.106,11.397 C14.0549593,11.3965955 14.9107029,11.9679235 15.2741342,12.8445315 C15.6375656,13.7211396 15.4370987,14.73036 14.7662261,15.4015186 C14.0953535,16.0726773 13.0862187,16.2735744 12.2094558,15.9105169 C11.3326929,15.5474593 10.7610001,14.6919594 10.761,13.743 C10.7609999,12.4477304 11.8107305,11.3975521 13.106,11.397 L13.106,11.397 Z M15.651,8.53 C14.8585774,8.14268322 13.9880128,7.94188895 13.106,7.943 C12.8438057,7.94302003 12.5819001,7.96039132 12.322,7.995 L11.944,6.063 C12.5482908,5.76242538 12.8347287,5.05933555 12.6125221,4.42204695 C12.3903155,3.78475836 11.728822,3.41218852 11.0686514,3.5525 C10.4084808,3.69281149 9.95569281,4.30220875 10.011882,4.97478239 C10.0680712,5.64735603 10.6156991,6.17317499 11.29,6.202 L11.665,8.123 C10.6923504,8.37244635 9.80122446,8.87038795 9.079,9.568 L8.31,8.858 C8.40649637,8.52375221 8.26046737,8.16702492 7.95729177,7.99638586 C7.65411616,7.8257468 7.27339508,7.88599858 7.03772467,8.1419138 C6.80205427,8.39782901 6.77331166,8.78221513 6.96830178,9.07033314 C7.1632919,9.35845115 7.53081857,9.47465343 7.856,9.351 L8.626,10.062 C8.0714028,10.7342195 7.67619101,11.5232755 7.47,12.37 L6.82,12.251 C6.74317792,11.7702009 6.33123325,11.4146157 5.84436964,11.4088488 C5.35750603,11.4030819 4.93725432,11.7488098 4.84906529,12.2276543 C4.76087626,12.7064989 5.03038638,13.1792605 5.48736037,13.3473206 C5.94433435,13.5153808 6.45593025,13.3298845 6.699,12.908 L7.35,13.027 C7.32055379,13.2645388 7.30552626,13.5036436 7.305,13.743 C7.30237928,14.7097861 7.54310522,15.6616853 8.005,16.511 L5.265,18.211 C4.80528462,17.7705792 4.09914923,17.7144188 3.57559829,18.0766386 C3.05204735,18.4388583 2.85563428,19.1194486 3.1056876,19.7049245 C3.35574093,20.2904005 3.98322043,20.6191111 4.60690813,20.4913519 C5.23059582,20.3635928 5.67829034,19.8146386 5.678,19.178 C5.67786184,19.0423605 5.65729792,18.9075151 5.617,18.778 L8.357,17.078 C9.01233486,18.0086349 9.92596339,18.7268832 10.985,19.144 L10.285,21.281 C9.79392133,21.291315 9.3817761,21.6540904 9.30922466,22.1398897 C9.23667323,22.625689 9.52484182,23.0930524 9.99147883,23.246397 C10.4581158,23.3997415 10.9673414,23.1944148 11.1970969,22.7602754 C11.4268523,22.3261359 11.3102353,21.7896006 10.921,21.49 L11.621,19.351 C12.1045492,19.479172 12.6027527,19.5437166 13.103,19.543 C13.3255397,19.5429294 13.5478965,19.5302424 13.769,19.505 L13.823,19.811 C13.5399508,20.017511 13.436456,20.3917908 13.5731994,20.7143817 C13.7099429,21.0369726 14.050887,21.2228586 14.3961205,21.1630461 C14.7413539,21.1032336 14.9998934,20.8134857 15.0201452,20.463695 C15.040397,20.1139044 14.8170239,19.7962552 14.481,19.697 L14.427,19.392 C15.3897465,19.1667667 16.2786976,18.6985353 17.009,18.032 L18.604,19.592 C18.2664099,20.1771777 18.4168342,20.9221129 18.9550424,21.3304412 C19.4932505,21.7387695 20.2511709,21.6829782 20.7237868,21.200242 C21.1964027,20.7175058 21.2361257,19.9585737 20.8164876,19.4291364 C20.3968495,18.899699 19.6488949,18.7650892 19.071,19.115 L17.477,17.553 C18.3233507,16.5849201 18.8220747,15.3618672 18.894,14.078 L20.952,14.078 C21.1151794,14.5400577 21.5875433,14.8173214 22.070526,14.734542 C22.5535088,14.6517626 22.9065837,14.2330253 22.9065837,13.743 C22.9065837,13.2529747 22.5535088,12.8342374 22.070526,12.751458 C21.5875433,12.6686786 21.1151794,12.9459423 20.952,13.408 L18.894,13.408 C18.822457,12.137015 18.3331103,10.9252493 17.502,9.961 L20.65,6.922 C21.0875658,7.14157285 21.6196838,7.01390436 21.9099883,6.6196971 C22.2002929,6.22548984 22.1643075,5.67945518 21.8247795,5.32675584 C21.4852515,4.9740565 20.940981,4.91732536 20.5360155,5.19242364 C20.1310501,5.46752192 19.9832316,5.99439809 20.186,6.44 L17.038,9.48 C16.790195,9.24978177 16.5224819,9.04196946 16.238,8.859 L17.094,7.336 C17.1514916,7.34564493 17.209706,7.35032884 17.268,7.35 C17.7412629,7.34966358 18.1501629,7.0191891 18.2497729,6.55652747 C18.3493828,6.09386584 18.112708,5.62440062 17.6815143,5.42933679 C17.2503206,5.23427296 16.7414635,5.36647377 16.4597434,5.74675226 C16.1780234,6.12703074 16.1997878,6.65232957 16.512,7.008 L15.651,8.53 Z" id="路径_5" fill="#FFFFFF" fill-rule="nonzero"></path>
            </g>
        </g>
    </g>
</svg>