<?xml version="1.0" encoding="UTF-8"?>
<svg width="32px" height="32px" viewBox="0 0 32 32" version="1.1" xmlns="http://www.w3.org/2000/svg" xmlns:xlink="http://www.w3.org/1999/xlink">
    <!-- Generator: Sketch 53 (72520) - https://sketchapp.com -->
    <title>货物堆场</title>
    <desc>Created with Sketch.</desc>
    <defs>
        <rect id="path-1" x="0" y="0" width="28" height="28" rx="14"></rect>
        <filter x="-10.7%" y="-10.7%" width="121.4%" height="121.4%" filterUnits="objectBoundingBox" id="filter-2">
            <feMorphology radius="0.5" operator="dilate" in="SourceAlpha" result="shadowSpreadOuter1"></feMorphology>
            <feOffset dx="0" dy="0" in="shadowSpreadOuter1" result="shadowOffsetOuter1"></feOffset>
            <feGaussianBlur stdDeviation="0.5" in="shadowOffsetOuter1" result="shadowBlurOuter1"></feGaussianBlur>
            <feComposite in="shadowBlurOuter1" in2="SourceAlpha" operator="out" result="shadowBlurOuter1"></feComposite>
            <feColorMatrix values="0 0 0 0 0   0 0 0 0 0   0 0 0 0 0  0 0 0 0.26 0" type="matrix" in="shadowBlurOuter1"></feColorMatrix>
        </filter>
    </defs>
    <g id="其他图标" stroke="none" stroke-width="1" fill="none" fill-rule="evenodd">
        <g id="玉董" transform="translate(-927.000000, -319.000000)">
            <g id="货物堆场" transform="translate(929.000000, 321.000000)">
                <g id="矩形">
                    <use fill="black" fill-opacity="1" filter="url(#filter-2)" xlink:href="#path-1"></use>
                    <rect stroke="#FFFFFF" stroke-width="1" stroke-linejoin="square" fill="#E29707" fill-rule="evenodd" x="0.5" y="0.5" width="27" height="27" rx="13.5"></rect>
                </g>
                <path d="M22.67,20.5406 C22.6641,20.6304 22.6183,20.7127 22.5452,20.7652 L19.461,22.5269 C19.3974,22.5631 19.35,22.5269 19.3537,22.4333 L19.4947,19.5836 C19.5006,19.4939 19.5464,19.4115 19.6195,19.3591 L22.7037,17.5974 C22.7673,17.5612 22.816,17.5974 22.811,17.6909 L22.67,20.5406 Z M18.7811,18.5718 C18.7026,18.6531 18.573,18.6554 18.4917,18.5769 C18.49,18.5752 18.4883,18.5735 18.4866,18.5718 L14.6276,16.4508 C14.5468,16.3664 14.5468,16.2333 14.6276,16.1488 L18.4866,14.0278 C18.5651,13.9465 18.6946,13.9442 18.7759,14.0227 C18.7777,14.0244 18.7794,14.0261 18.7811,14.0278 L22.6288,16.1488 C22.7096,16.2333 22.7096,16.3664 22.6288,16.4508 L18.7811,18.5718 Z M23.4336,15.2905 L19.0518,12.9523 C18.7907,12.818 18.4807,12.818 18.2196,12.9523 L14.156,15.2905 C13.9676,15.4624 13.9029,15.7317 13.9925,15.9704 L13.9925,20.6167 C13.8986,20.852 13.9563,21.1207 14.1385,21.2967 L18.3182,23.636 C18.5434,23.7704 18.8241,23.7704 19.0493,23.636 L23.466,21.2967 C23.7429,21.1726 23.9378,20.9166 23.9838,20.6167 L23.9838,15.9704 C23.9237,15.6669 23.7179,15.4125 23.4336,15.2905 Z M13.2577,20.5418 C13.2518,20.6316 13.206,20.714 13.1329,20.7664 L10.0512,22.5281 C9.9876,22.5643 9.9401,22.5281 9.9439,22.4345 L10.0849,19.5849 C10.0906,19.4951 10.1364,19.4126 10.2096,19.3603 L13.2939,17.5986 C13.3575,17.5624 13.4049,17.5986 13.4012,17.6922 L13.2577,20.5418 Z M9.365,18.5718 C9.2865,18.6531 9.157,18.6554 9.0757,18.5769 C9.0739,18.5752 9.0722,18.5735 9.0705,18.5718 L5.2115,16.4508 C5.1307,16.3664 5.1307,16.2333 5.2115,16.1488 L9.0705,14.0278 C9.149,13.9465 9.2785,13.9442 9.3599,14.0227 C9.3616,14.0244 9.3633,14.0261 9.365,14.0278 L13.2128,16.1488 C13.2936,16.2333 13.2936,16.3664 13.2128,16.4508 L9.365,18.5718 Z M13.7318,15.2905 L9.501,12.9523 C9.2655,12.8179 8.9766,12.8179 8.7411,12.9523 L4.418,15.2905 C4.1647,15.4234 4.0043,15.6843 4,15.9704 L4,20.6167 C4.0122,20.9056 4.1791,21.1654 4.4367,21.2967 L8.7624,23.636 C9.0137,23.7707 9.3157,23.7707 9.5671,23.636 L13.7305,21.2967 C13.9453,21.1423 14.0482,20.8753 13.9925,20.6167 L13.9925,15.9704 C14.0488,15.7121 13.9464,15.4449 13.7318,15.2905 Z M17.9464,12.6891 C17.9406,12.7789 17.8948,12.8614 17.8216,12.9137 L14.7411,14.6766 C14.6775,14.7128 14.6301,14.6766 14.6338,14.583 L14.7723,11.7321 C14.7782,11.6424 14.824,11.56 14.8971,11.5076 L17.985,9.7459 C18.0487,9.7097 18.0961,9.7459 18.0923,9.8394 L17.9464,12.6891 Z M14.0574,10.7203 C13.9789,10.8016 13.8494,10.8039 13.7681,10.7254 C13.7664,10.7237 13.7646,10.722 13.763,10.7203 L9.904,8.6018 C9.8232,8.5173 9.8232,8.3843 9.904,8.2998 L13.763,6.1788 C13.8415,6.0975 13.971,6.0952 14.0523,6.1737 C14.054,6.1754 14.0557,6.1771 14.0574,6.1788 L17.9064,8.2998 C17.9872,8.3843 17.9872,8.5173 17.9064,8.6018 L14.0574,10.7203 Z M18.5739,7.4389 L14.2608,5.1008 C14.0116,4.9664 13.7115,4.9664 13.4623,5.1008 L9.2789,7.4389 C9.0608,7.5914 8.9524,7.8575 9.0019,8.1189 L9.0019,12.7652 C8.9534,13.0279 9.0645,13.2945 9.2851,13.4452 L13.5272,15.7845 C13.7648,15.9191 14.0556,15.9191 14.2932,15.7845 L18.5914,13.4452 C18.8376,13.3083 18.9882,13.0468 18.9832,12.7652 L18.9832,8.1189 C18.9815,7.8345 18.8245,7.5736 18.5739,7.4389 Z" id="Fill-1" fill="#FFFFFF"></path>
            </g>
        </g>
    </g>
</svg>