<?xml version="1.0" encoding="UTF-8"?>
<svg width="32px" height="32px" viewBox="0 0 32 32" version="1.1" xmlns="http://www.w3.org/2000/svg" xmlns:xlink="http://www.w3.org/1999/xlink">
    <!-- Generator: Sketch 53 (72520) - https://sketchapp.com -->
    <title>贮罐区（贮罐）</title>
    <desc>Created with Sketch.</desc>
    <defs>
        <path d="M14,28 C10.2604653,28 6.74475408,26.5437515 4.10050675,23.8994937 C1.4562489,21.2552459 0,17.7395347 0,14 C0,10.2604653 1.4562489,6.74475408 4.10050675,4.10050675 C6.74475408,1.4562489 10.2604653,0 14,0 C17.7395347,0 21.2552459,1.4562489 23.8994937,4.10050675 C26.5437515,6.74475408 28,10.2604653 28,14 C28,17.7395347 26.5437515,21.2552459 23.8994937,23.8994937 C21.2552459,26.5437515 17.7395347,28 14,28 Z" id="path-1"></path>
        <filter x="-10.7%" y="-10.7%" width="121.4%" height="121.4%" filterUnits="objectBoundingBox" id="filter-2">
            <feMorphology radius="0.5" operator="dilate" in="SourceAlpha" result="shadowSpreadOuter1"></feMorphology>
            <feOffset dx="0" dy="0" in="shadowSpreadOuter1" result="shadowOffsetOuter1"></feOffset>
            <feGaussianBlur stdDeviation="0.5" in="shadowOffsetOuter1" result="shadowBlurOuter1"></feGaussianBlur>
            <feComposite in="shadowBlurOuter1" in2="SourceAlpha" operator="out" result="shadowBlurOuter1"></feComposite>
            <feColorMatrix values="0 0 0 0 0   0 0 0 0 0   0 0 0 0 0  0 0 0 0.26 0" type="matrix" in="shadowBlurOuter1"></feColorMatrix>
        </filter>
    </defs>
    <g id="其他图标" stroke="none" stroke-width="1" fill="none" fill-rule="evenodd">
        <g id="玉董" transform="translate(-666.000000, -206.000000)">
            <g id="贮罐区（贮罐）" transform="translate(668.000000, 208.000000)">
                <g id="路径">
                    <use fill="black" fill-opacity="1" filter="url(#filter-2)" xlink:href="#path-1"></use>
                    <path stroke="#FFFFFF" stroke-width="1" d="M14,27.5 C17.6069329,27.5 20.9954649,26.0964254 23.545941,23.5459397 C26.0964254,20.9954649 27.5,17.6069329 27.5,14 C27.5,10.393067 26.0964253,7.0045351 23.5459397,4.45405947 C20.9954647,1.90357486 17.6069327,0.5 14,0.5 C10.3930672,0.5 7.00453524,1.9035749 4.45405944,4.45406084 C1.9035749,7.00453524 0.5,10.3930672 0.5,14 C0.5,17.6069327 1.90357486,20.9954647 4.45406083,23.5459411 C7.0045351,26.0964253 10.393067,27.5 14,27.5 Z" stroke-linejoin="square" fill="#E29707" fill-rule="evenodd"></path>
                </g>
                <path d="M6.76142525,11.6793184 L5.71293571,11.6793184 L5.71293571,20.1211464 L13.32378,20.1211464 L13.32378,18.8793184 L6.76142525,11.6793184 Z M13.163904,18.4034082 L13.32378,18.5781565 L13.32378,18.4034082 L13.163904,18.4034082 Z M13.0356313,16.2246321 L13.0356313,18.1859024 L13.32378,18.1859024 L13.32378,16.5350891 L13.0356313,16.2246321 Z M9.16700232,11.6811774 L13.325639,16.2469404 L13.325639,11.6811774 L9.16700232,11.6811774 Z M11.0892332,16.1316809 L12.8311387,18.0390395 L12.8311387,16.1316809 L11.0892332,16.1316809 Z M10.9516654,13.9417506 L10.9516654,15.908598 L12.7512006,15.908598 L10.9516654,13.9417506 Z M9.00526723,13.8432223 L10.7583269,15.7505809 L10.7583269,13.8432223 L9.00526723,13.8432223 Z M8.88814872,11.6774593 L8.86584043,11.653292 L8.86584043,13.6331526 L10.6653757,13.6331526 L8.88814872,11.6774593 Z M7.03841983,11.6774593 L8.67436096,13.4807126 L8.67436096,11.6774593 L7.03841983,11.6774593 Z M9.51835786,6 C7.41208366,6 5.71293571,7.15817196 5.71293571,8.57474826 L5.71293571,10.5415957 L13.32378,10.5415957 L13.32378,8.57474826 C13.32378,7.15817196 11.6246321,6.00371805 9.51835786,6.00371805 L9.51835786,6 Z M14.019055,17.3084431 L14.019055,18.1859024 L14.8202943,18.1859024 L14.019055,17.3084431 Z M14.019055,18.3978311 L14.019055,19.3347792 L14.7254841,20.1137103 L14.9058095,20.1137103 L14.9058095,18.3996902 L14.019055,18.3978311 Z M14.019055,19.6396592 L14.019055,20.1192874 L14.4577847,20.1192874 L14.019055,19.6396592 Z M15.1084431,18.4926414 L15.1084431,20.1192874 L16.5845081,20.1192874 L15.1084431,18.4926414 Z M17.738962,14.8043377 L21.6410534,19.0912471 L21.6410534,14.8043377 L17.738962,14.8043377 L17.738962,14.8043377 Z M20.4531371,20.1192874 L21.4421379,20.1192874 L21.4421379,19.2994578 L19.7058095,19.2994578 L20.4531371,20.1192874 L20.4531371,20.1192874 Z M19.5663826,17.1225407 L19.5663826,19.0893881 L21.3659179,19.0893881 L19.5663826,17.1225407 Z M14.019055,14.8043377 L14.019055,17.0054222 L16.8633617,20.1230054 L20.1668474,20.1230054 L15.333385,14.8080558 L14.019055,14.8043377 L14.019055,14.8043377 Z M19.3749032,17.0165763 L17.6218435,17.0165763 L19.3749032,18.9369481 L19.3749032,17.0165763 Z M17.4861348,14.8378002 L17.4861348,16.8046476 L19.28567,16.8046476 L17.4861348,14.8378002 Z M17.2927963,14.8024787 L15.6122386,14.8024787 L17.2909373,16.6540666 L17.2927963,14.8024787 Z M17.8374903,9.27745933 C15.7312161,9.27745933 14.020914,10.4356313 14.020914,11.8522076 L14.020914,13.666615 L21.6429125,13.666615 L21.6429125,11.8503486 C21.6410534,10.4374903 19.9307514,9.27745933 17.8337723,9.27745933 L17.8374903,9.27745933 L17.8374903,9.27745933 Z M22.4664601,20.3051898 L22.455306,20.3051898 C22.4032533,20.2940356 22.3512006,20.2865995 22.2991479,20.2847405 L5.70364059,20.2847405 C5.46568552,20.245701 5.22958947,20.3591015 5.09759876,20.5784663 C4.96746708,20.7978311 4.96746708,21.0785438 5.09759876,21.2960496 C5.22773044,21.5154144 5.46568552,21.6288149 5.70364059,21.5897754 L22.2991479,21.5897754 C22.6579396,21.6158017 22.9702556,21.325794 23,20.9372579 C22.9814098,20.6175058 22.7601859,20.3535244 22.4664601,20.3051898 L22.4664601,20.3051898 Z" id="形状" fill="#FFFFFF" fill-rule="nonzero"></path>
            </g>
        </g>
    </g>
</svg>