<?xml version="1.0" encoding="UTF-8"?>
<svg width="32px" height="32px" viewBox="0 0 32 32" version="1.1" xmlns="http://www.w3.org/2000/svg" xmlns:xlink="http://www.w3.org/1999/xlink">
    <!-- Generator: Sketch 53 (72520) - https://sketchapp.com -->
    <title>避难场所</title>
    <desc>Created with Sketch.</desc>
    <defs>
        <rect id="path-1" x="0" y="0" width="28" height="28" rx="14"></rect>
        <filter x="-10.7%" y="-10.7%" width="121.4%" height="121.4%" filterUnits="objectBoundingBox" id="filter-2">
            <feMorphology radius="0.5" operator="dilate" in="SourceAlpha" result="shadowSpreadOuter1"></feMorphology>
            <feOffset dx="0" dy="0" in="shadowSpreadOuter1" result="shadowOffsetOuter1"></feOffset>
            <feGaussianBlur stdDeviation="0.5" in="shadowOffsetOuter1" result="shadowBlurOuter1"></feGaussianBlur>
            <feComposite in="shadowBlurOuter1" in2="SourceAlpha" operator="out" result="shadowBlurOuter1"></feComposite>
            <feColorMatrix values="0 0 0 0 0   0 0 0 0 0   0 0 0 0 0  0 0 0 0.26 0" type="matrix" in="shadowBlurOuter1"></feColorMatrix>
        </filter>
    </defs>
    <g id="其他图标" stroke="none" stroke-width="1" fill="none" fill-rule="evenodd">
        <g id="玉董" transform="translate(-384.000000, -256.000000)">
            <g id="避难场所" transform="translate(386.000000, 258.000000)">
                <g id="矩形">
                    <use fill="black" fill-opacity="1" filter="url(#filter-2)" xlink:href="#path-1"></use>
                    <rect stroke="#FFFFFF" stroke-width="1" stroke-linejoin="square" fill="#68AE05" fill-rule="evenodd" x="0.5" y="0.5" width="27" height="27" rx="13.5"></rect>
                </g>
                <path d="M19.2094002,9.07196451 C20.0591147,9.07196451 20.7519431,8.38360453 20.7519431,7.53466635 C20.7519431,6.68758369 20.0591147,6 19.2094002,6 C18.3555393,6 17.6673876,6.68603111 17.6673876,7.53466635 C17.6673876,8.38358559 18.3555393,9.07196451 19.2094002,9.07196451 L19.2094002,9.07196451 Z M22.7676624,12.3138984 C22.6306758,12.1758705 22.4549884,12.0796485 22.2745675,12.066054 L19.4849449,12.066054 L19.4849449,9.8782636 C19.3011349,9.70570025 16.8644776,7.96840357 16.8644776,7.96840357 L13.1265519,7.97024016 C12.8870573,7.97024016 12.6734832,8.07926141 12.5317442,8.24945802 L9.95075404,11.2106215 C9.78919128,11.350505 9.68984524,11.5557292 9.68984524,11.7863249 C9.68984524,12.213511 10.0328703,12.5583915 10.4642597,12.5583915 C10.7037543,12.5583915 10.9204903,12.4501655 11.0621915,12.2760307 L13.4544298,9.52141684 L14.8335544,9.53031576 L9.56122742,15.6181058 L5.99508876,15.6089608 C5.91403284,15.6050415 5.83089419,15.6128801 5.74669525,15.630943 C5.36053886,15.7146118 5.081321,16.0100371 5,16.3682281 L5,16.8022304 L5.00130644,16.8087815 C5.10587823,17.2733999 5.52681615,17.5904855 5.98956007,17.5813405 L10.1335038,17.5735018 C11.0101233,17.6056326 11.3426779,17.198346 11.3426779,17.198346 L13.3887482,14.9297837 L15.7637378,17.228697 L14.7997764,21.5007284 C14.7762416,21.5796827 14.7678728,21.6622912 14.7678728,21.7517348 C14.7678728,22.2976363 15.2144472,22.7410677 15.763984,22.7410677 C16.2419318,22.7410677 16.6445417,22.4030223 16.7376207,21.9494045 L17.9096844,16.7455613 C18.1606907,15.9337714 17.7214438,15.5251216 17.7214438,15.5251216 L15.9247705,13.7347343 L17.9135847,11.4836669 L17.9031522,12.8183347 C17.9031522,12.8183347 17.8759631,13.6628045 18.8982031,13.6690716 L22.2771425,13.6690716 C22.4549316,13.6533565 22.6253933,13.5775831 22.7634402,13.4416 C22.9095339,13.29757 23,13.0974579 23,12.8762345 C23,12.6569613 22.9110676,12.4584586 22.7673405,12.3147694 L22.7676624,12.3138984 Z" id="形状" fill="#FFFFFF" fill-rule="nonzero"></path>
            </g>
        </g>
    </g>
</svg>