<?xml version="1.0" encoding="UTF-8"?>
<svg width="32px" height="32px" viewBox="0 0 32 32" version="1.1" xmlns="http://www.w3.org/2000/svg" xmlns:xlink="http://www.w3.org/1999/xlink">
    <!-- Generator: Sketch 53 (72520) - https://sketchapp.com -->
    <title>重点文物保护单位监测监控台站</title>
    <desc>Created with Sketch.</desc>
    <defs>
        <rect id="path-1" x="0" y="0" width="28" height="28" rx="14"></rect>
        <filter x="-10.7%" y="-10.7%" width="121.4%" height="121.4%" filterUnits="objectBoundingBox" id="filter-2">
            <feMorphology radius="0.5" operator="dilate" in="SourceAlpha" result="shadowSpreadOuter1"></feMorphology>
            <feOffset dx="0" dy="0" in="shadowSpreadOuter1" result="shadowOffsetOuter1"></feOffset>
            <feGaussianBlur stdDeviation="0.5" in="shadowOffsetOuter1" result="shadowBlurOuter1"></feGaussianBlur>
            <feComposite in="shadowBlurOuter1" in2="SourceAlpha" operator="out" result="shadowBlurOuter1"></feComposite>
            <feColorMatrix values="0 0 0 0 0   0 0 0 0 0   0 0 0 0 0  0 0 0 0.26 0" type="matrix" in="shadowBlurOuter1"></feColorMatrix>
        </filter>
    </defs>
    <g id="其他图标" stroke="none" stroke-width="1" fill="none" fill-rule="evenodd">
        <g id="玉董" transform="translate(-1227.000000, -213.000000)">
            <g id="重点文物保护单位监测监控台站" transform="translate(1229.000000, 215.000000)">
                <g id="矩形">
                    <use fill="black" fill-opacity="1" filter="url(#filter-2)" xlink:href="#path-1"></use>
                    <rect stroke="#FFFFFF" stroke-width="1" stroke-linejoin="square" fill="#237FD3" fill-rule="evenodd" x="0.5" y="0.5" width="27" height="27" rx="13.5"></rect>
                </g>
                <path d="M20.6843474,8.039 L20.6843474,5.3 C20.6843801,5.13662972 20.553685,5.0032674 20.3903474,5 L19.8023474,5 C19.6390098,5.0032674 19.5083147,5.13662972 19.5083474,5.3 L19.5083474,8.035 L7.75834741,8.035 L7.75834741,5.3 C7.75838009,5.13662972 7.62768502,5.0032674 7.46434741,5 L6.87734741,5 C6.7140098,5.0032674 6.58331474,5.13662972 6.58334741,5.3 L6.58334741,8.035 C6.25741667,8.0482264 6,8.316301 6,8.6425 C6,8.968699 6.25741667,9.2367736 6.58334741,9.25 C6.91276631,9.25710875 7.17481738,9.52853473 7.17034741,9.858 L7.17034741,12.289 C7.16388931,13.6684005 7.81959169,14.9671599 8.93334741,15.781 L8.93334741,21.081 C8.93420295,21.2818953 8.83672485,21.4705023 8.67234741,21.586 L8.22334741,21.896 C8.11627064,21.9712519 8.05277942,22.0941261 8.05334741,22.225 C8.05039328,22.3288583 8.08911019,22.4295823 8.16086872,22.5047222 C8.23262724,22.579862 8.33146316,22.6231723 8.43534741,22.625 L9.34334741,22.625 C9.95534181,22.6163588 10.4609752,22.1448957 10.5123474,21.535 L10.9213474,17.441 L11.0123474,16.541 C11.1023474,16.547 11.1933474,16.55 11.2853474,16.55 L13.0473474,16.55 L13.0473474,22.324 C13.0473147,22.4873703 13.1780098,22.6207326 13.3413474,22.624 L13.9293474,22.624 C14.092685,22.6207326 14.2233801,22.4873703 14.2233474,22.324 L14.2233474,16.55 L15.9853474,16.55 C16.0773474,16.55 16.1673474,16.55 16.2583474,16.541 L16.3383474,17.341 L16.7573474,21.541 C16.8091684,22.1506776 17.3145392,22.6218959 17.9263474,22.631 L18.8343474,22.631 C18.9381437,22.6289051 19.036821,22.5855119 19.1085223,22.510432 C19.1802236,22.4353522 19.2190305,22.3347828 19.2163474,22.231 C19.2169154,22.1001261 19.1534242,21.9772519 19.0463474,21.902 L18.5973474,21.592 C18.43297,21.4765023 18.3354919,21.2878953 18.3363474,21.087 L18.3363474,15.787 C19.4501031,14.9731599 20.1058055,13.6744005 20.0993474,12.295 L20.0993474,9.864 C20.0948774,9.53453473 20.3569285,9.26310875 20.6863474,9.256 C21.0122782,9.2427736 21.2696948,8.974699 21.2696948,8.6485 C21.2696948,8.322301 21.0122782,8.0542264 20.6863474,8.041 L20.6843474,8.039 Z" id="路径_4" fill="#FFFFFF"></path>
            </g>
        </g>
    </g>
</svg>