<?xml version="1.0" encoding="UTF-8"?>
<svg width="32px" height="32px" viewBox="0 0 32 32" version="1.1" xmlns="http://www.w3.org/2000/svg" xmlns:xlink="http://www.w3.org/1999/xlink">
    <!-- Generator: Sketch 53 (72520) - https://sketchapp.com -->
    <title>重要生态安全区</title>
    <desc>Created with Sketch.</desc>
    <defs>
        <rect id="path-1" x="0" y="0" width="28" height="28" rx="14"></rect>
        <filter x="-10.7%" y="-10.7%" width="121.4%" height="121.4%" filterUnits="objectBoundingBox" id="filter-2">
            <feMorphology radius="0.5" operator="dilate" in="SourceAlpha" result="shadowSpreadOuter1"></feMorphology>
            <feOffset dx="0" dy="0" in="shadowSpreadOuter1" result="shadowOffsetOuter1"></feOffset>
            <feGaussianBlur stdDeviation="0.5" in="shadowOffsetOuter1" result="shadowBlurOuter1"></feGaussianBlur>
            <feComposite in="shadowBlurOuter1" in2="SourceAlpha" operator="out" result="shadowBlurOuter1"></feComposite>
            <feColorMatrix values="0 0 0 0 0   0 0 0 0 0   0 0 0 0 0  0 0 0 0.26 0" type="matrix" in="shadowBlurOuter1"></feColorMatrix>
        </filter>
    </defs>
    <g id="其他图标" stroke="none" stroke-width="1" fill="none" fill-rule="evenodd">
        <g id="玉董" transform="translate(-1227.000000, -299.000000)">
            <g id="重要生态安全区" transform="translate(1229.000000, 301.000000)">
                <g id="矩形">
                    <use fill="black" fill-opacity="1" filter="url(#filter-2)" xlink:href="#path-1"></use>
                    <rect stroke="#FFFFFF" stroke-width="1" stroke-linejoin="square" fill="#237FD3" fill-rule="evenodd" x="0.5" y="0.5" width="27" height="27" rx="13.5"></rect>
                </g>
                <path d="M5.00001155,15.3586667 C4.99724446,13.670354 5.49182454,12.0186235 6.42201155,10.6096667 C6.44492719,10.5763276 6.48321078,10.5569141 6.52364773,10.5581272 C6.56408468,10.5593403 6.60113566,10.5810139 6.62201155,10.6156667 C6.76197015,10.8550223 6.92045444,11.0830525 7.09601155,11.2976667 C7.15474532,11.3684384 7.16274683,11.4684574 7.11601155,11.5476667 C6.53174028,12.5457196 6.18543848,13.6650409 6.10401155,14.8186667 L10.4040115,14.8186667 C10.4140115,14.3746667 10.4370115,13.9406667 10.4710115,13.5186667 C10.4736881,13.4791152 10.4937397,13.4427788 10.5257744,13.4194282 C10.5578092,13.3960775 10.598539,13.3881095 10.6370115,13.3976667 C10.8610115,13.4536667 11.0970115,13.5036667 11.3440115,13.5456667 C11.4587661,13.5644965 11.5402651,13.6676707 11.5320115,13.7836667 C11.5080115,14.117 11.4916782,14.462 11.4830115,14.8186667 L15.7830115,14.8186667 L15.7830115,14.8186667 C16.1350115,14.7866667 16.4690115,14.8186667 16.8550115,14.8186667 C16.8550115,14.8666667 16.8550115,14.8426667 16.8550115,14.8186667 C16.8550115,14.7946667 16.8550115,14.7706667 16.8550115,14.8186667 L21.1550115,14.8186667 C21.0778065,13.7244866 20.761724,12.6605243 20.2290115,11.7016667 C20.1751228,11.6028706 20.1751228,11.4834627 20.2290115,11.3846667 C20.3600115,11.1406667 20.4740115,10.8976667 20.5750115,10.6556667 C20.5970546,10.6010239 20.6476716,10.5631863 20.706319,10.5575108 C20.7649665,10.5518352 20.8218996,10.5792647 20.8540115,10.6286667 C22.5834305,13.2706338 22.7332403,16.6457882 21.2446942,19.4305882 C19.7561481,22.2153881 16.8665413,23.9658974 13.7090115,23.9956667 L13.6360115,23.9956667 C8.86631869,23.9951144 5.00001152,20.1283596 5.00001155,15.3586667 Z M11.9750115,19.8216667 C12.4800115,21.8496667 13.2390115,22.9156667 13.6370115,22.9156667 C14.0350115,22.9156667 14.7940115,21.8496667 15.2990115,19.8216667 C14.1993945,19.6289149 13.0746286,19.6289149 11.9750115,19.8216667 L11.9750115,19.8216667 Z M15.3250115,22.7216667 C16.5310674,22.4437587 17.6500561,21.8729302 18.5830115,21.0596667 C17.8851001,20.632966 17.1335013,20.3010518 16.3480115,20.0726667 C16.1418907,21.0010555 15.7970171,21.8930746 15.3250115,22.7186667 L15.3250115,22.7216667 Z M8.69201155,21.0636667 C9.62494934,21.874993 10.7431303,22.4443861 11.9480115,22.7216667 C11.4769263,21.8952818 11.1321108,21.0030756 10.9250115,20.0746667 C10.1397291,20.301432 9.38862363,20.633089 8.69201155,21.0606667 L8.69201155,21.0636667 Z M16.5680115,19.0126667 C17.5571149,19.2930831 18.4983394,19.7208817 19.3600115,20.2816667 C20.4183975,19.0545048 21.051873,17.5181689 21.1660115,15.9016667 L16.8660115,15.9016667 C16.8447221,16.9436717 16.745108,17.9826007 16.5680115,19.0096667 L16.5680115,19.0126667 Z M7.91101155,20.2796667 C8.77501608,19.7190922 9.7191011,19.2929052 10.7110115,19.0156667 C10.5330089,17.9866658 10.4327255,16.9457243 10.4110115,15.9016667 L6.11101155,15.9016667 C6.22423233,17.5157841 6.85554202,19.0502173 7.91101155,20.2766667 L7.91101155,20.2796667 Z M11.7550115,18.7686667 C12.9988452,18.5466095 14.2721779,18.5466095 15.5160115,18.7686667 C15.6767935,17.821703 15.7663777,16.8640208 15.7840115,15.9036667 L11.4840115,15.9036667 C11.5045741,16.8626155 11.5948119,17.8188014 11.7540115,18.7646667 L11.7550115,18.7686667 Z M13.5120115,13.9696667 C14.2935944,13.5628418 15.0288721,13.0726566 15.7050115,12.5076667 C16.5903428,11.7470779 17.3873492,10.8893569 18.0810115,9.95066667 C18.5181432,9.25718997 18.8865559,8.52270905 19.1810115,7.75766667 C18.2557606,9.49520193 16.9424236,10.9960608 15.3430115,12.1436667 C14.5287872,12.6951106 13.6740152,13.1841726 12.7860115,13.6066667 C12.7860115,13.6066667 12.7620115,12.2396667 12.7860115,11.4126667 C12.7998924,9.92672257 13.4688179,8.52263768 14.6140115,7.57566667 C16.396425,6.38287127 18.3770103,5.51702128 20.4630115,5.01866667 C20.6630115,4.97666667 20.6450115,5.01866667 20.6450115,5.01866667 L20.6450115,5.01866667 C20.6181767,6.49594733 20.4344792,7.9661974 20.0970115,9.40466667 C19.617004,11.1937545 18.4291091,12.7102161 16.8070115,13.6046667 C16.0860923,13.9082132 15.309004,14.055451 14.5270115,14.0366667 C14.1874207,14.0371542 13.8482274,14.0134273 13.5120115,13.9656667 L13.5120115,13.9696667 Z M9.73101155,12.1456667 C8.68837891,11.5702536 7.92454745,10.5956104 7.61501155,9.44566667 C7.39822527,8.52043125 7.28023133,7.57480368 7.26301155,6.62466667 C7.26301155,6.62466667 7.25001155,6.59666667 7.38101155,6.62466667 C8.72259878,6.94620001 9.99639195,7.50352685 11.1430115,8.27066667 C11.8801992,8.88019625 12.3105894,9.78416206 12.3190115,10.7406667 C12.3350115,11.2726667 12.3190115,12.1506667 12.3190115,12.1506667 L12.3190115,12.1506667 C11.7474527,11.8792375 11.1972198,11.5650097 10.6730115,11.2106667 C9.64375367,10.4731407 8.79850557,9.50812058 8.20301155,8.39066667 C8.39166498,8.88276416 8.62777866,9.35532645 8.90801155,9.80166667 C9.35408884,10.4061436 9.86700579,10.9583092 10.4370115,11.4476667 C10.8726486,11.8111547 11.3464179,12.1263304 11.8500115,12.3876667 C11.6349638,12.4172956 11.4180885,12.4316648 11.2010115,12.4306667 C10.696062,12.4396627 10.1949744,12.3411496 9.73101155,12.1416667 L9.73101155,12.1456667 Z" id="联合_1" fill="#FFFFFF" fill-rule="nonzero"></path>
            </g>
        </g>
    </g>
</svg>