<?xml version="1.0" encoding="UTF-8"?>
<svg width="32px" height="32px" viewBox="0 0 32 32" version="1.1" xmlns="http://www.w3.org/2000/svg" xmlns:xlink="http://www.w3.org/1999/xlink">
    <!-- Generator: Sketch 53 (72520) - https://sketchapp.com -->
    <title>金属非金属矿山</title>
    <desc>Created with Sketch.</desc>
    <defs>
        <path d="M14,28 C10.2604653,28 6.74475408,26.5437515 4.10050675,23.8994937 C1.4562489,21.2552459 0,17.7395347 0,14 C0,10.2604653 1.4562489,6.74475408 4.10050675,4.10050675 C6.74475408,1.4562489 10.2604653,0 14,0 C17.7395347,0 21.2552459,1.4562489 23.8994937,4.10050675 C26.5437515,6.74475408 28,10.2604653 28,14 C28,17.7395347 26.5437515,21.2552459 23.8994937,23.8994937 C21.2552459,26.5437515 17.7395347,28 14,28 Z" id="path-1"></path>
        <filter x="-10.7%" y="-10.7%" width="121.4%" height="121.4%" filterUnits="objectBoundingBox" id="filter-2">
            <feMorphology radius="0.5" operator="dilate" in="SourceAlpha" result="shadowSpreadOuter1"></feMorphology>
            <feOffset dx="0" dy="0" in="shadowSpreadOuter1" result="shadowOffsetOuter1"></feOffset>
            <feGaussianBlur stdDeviation="0.5" in="shadowOffsetOuter1" result="shadowBlurOuter1"></feGaussianBlur>
            <feComposite in="shadowBlurOuter1" in2="SourceAlpha" operator="out" result="shadowBlurOuter1"></feComposite>
            <feColorMatrix values="0 0 0 0 0   0 0 0 0 0   0 0 0 0 0  0 0 0 0.26 0" type="matrix" in="shadowBlurOuter1"></feColorMatrix>
        </filter>
    </defs>
    <g id="其他图标" stroke="none" stroke-width="1" fill="none" fill-rule="evenodd">
        <g id="玉董" transform="translate(-666.000000, -539.000000)">
            <g id="金属非金属矿山" transform="translate(668.000000, 541.000000)">
                <g id="路径">
                    <use fill="black" fill-opacity="1" filter="url(#filter-2)" xlink:href="#path-1"></use>
                    <path stroke="#FFFFFF" stroke-width="1" d="M14,27.5 C17.6069329,27.5 20.9954649,26.0964254 23.545941,23.5459397 C26.0964254,20.9954649 27.5,17.6069329 27.5,14 C27.5,10.393067 26.0964253,7.0045351 23.5459397,4.45405947 C20.9954647,1.90357486 17.6069327,0.5 14,0.5 C10.3930672,0.5 7.00453524,1.9035749 4.45405944,4.45406084 C1.9035749,7.00453524 0.5,10.3930672 0.5,14 C0.5,17.6069327 1.90357486,20.9954647 4.45406083,23.5459411 C7.0045351,26.0964253 10.393067,27.5 14,27.5 Z" stroke-linejoin="square" fill="#E29707" fill-rule="evenodd"></path>
                </g>
                <path d="M23.0367407,22.2962963 L9.81451852,22.2962963 L9.84355556,22.2682963 C12.0150552,20.137733 14.0060793,17.8307118 15.7961481,15.370963 C16.689037,14.1265185 17.1774815,12.9567407 17.3714074,10.0198519 C19.1275537,9.21870843 20.8128585,8.27059441 22.4093333,7.18562963 L23.0388148,7.18562963 L23.0367407,22.2962963 Z M9.81451852,18.8367407 L9.18503704,18.8367407 L9.18503704,16.3125926 L10.7602963,15.6841481 L11.3928889,15.6841481 L12.0151111,16.9451852 L12.0151111,17.8888889 L9.81140741,18.8367407 L9.81451852,18.8367407 Z M4.33481481,18.5567407 C4.01185794,18.5719442 3.6933321,18.4768618 3.43155556,18.2871111 C3.12011192,17.9044161 2.93111785,17.4368093 2.88918519,16.9451852 L11.0745185,8.75985185 C10.864144,8.41979522 10.5968387,8.11846283 10.2842963,7.86903704 C8.95192403,6.6955241 7.53227915,5.62498359 6.03762963,4.66666667 L6.048,4.66666667 C6.83257521,4.69034811 7.61085282,4.81477494 8.3637037,5.03688889 C9.97798534,5.4805972 11.4524448,6.32865234 12.6477037,7.50088889 C12.7781217,7.33394996 12.9772135,7.23516689 13.189037,7.2322963 C13.4957624,7.26065499 13.7785945,7.40990678 13.9751111,7.64711111 C14.2040572,7.84102567 14.3240436,8.13441166 14.2965926,8.43318519 C14.2479906,8.68444543 14.1125235,8.91059097 13.9139259,9.072 C14.0311111,9.10207407 15.0878519,9.4277037 16.1165926,11.2757037 C16.1808311,11.4193731 16.1882422,11.5820477 16.1373333,11.730963 C15.9060741,12.4921481 15.3077037,13.9522963 15.3077037,13.9668148 L12.6114074,10.3278519 L4.78281481,18.5204444 C4.63500832,18.5470153 4.48497096,18.5591712 4.33481481,18.5567407 Z M13.9035556,16.3094815 L13.2740741,16.3094815 L12.0151111,14.42 L12.9619259,13.7925926 L13.9035556,14.1037037 L13.9035556,16.3063704 L13.9035556,16.3094815 Z" id="Fill_1" fill="#FFFFFF" fill-rule="nonzero"></path>
            </g>
        </g>
    </g>
</svg>