<?xml version="1.0" encoding="UTF-8"?>
<svg width="32px" height="32px" viewBox="0 0 32 32" version="1.1" xmlns="http://www.w3.org/2000/svg" xmlns:xlink="http://www.w3.org/1999/xlink">
    <!-- Generator: Sketch 53 (72520) - https://sketchapp.com -->
    <title>锅炉</title>
    <desc>Created with Sketch.</desc>
    <defs>
        <path d="M14,28 C10.2604653,28 6.74475408,26.5437515 4.10050675,23.8994937 C1.4562489,21.2552459 0,17.7395347 0,14 C0,10.2604653 1.4562489,6.74475408 4.10050675,4.10050675 C6.74475408,1.4562489 10.2604653,0 14,0 C17.7395347,0 21.2552459,1.4562489 23.8994937,4.10050675 C26.5437515,6.74475408 28,10.2604653 28,14 C28,17.7395347 26.5437515,21.2552459 23.8994937,23.8994937 C21.2552459,26.5437515 17.7395347,28 14,28 Z" id="path-1"></path>
        <filter x="-10.7%" y="-10.7%" width="121.4%" height="121.4%" filterUnits="objectBoundingBox" id="filter-2">
            <feMorphology radius="0.5" operator="dilate" in="SourceAlpha" result="shadowSpreadOuter1"></feMorphology>
            <feOffset dx="0" dy="0" in="shadowSpreadOuter1" result="shadowOffsetOuter1"></feOffset>
            <feGaussianBlur stdDeviation="0.5" in="shadowOffsetOuter1" result="shadowBlurOuter1"></feGaussianBlur>
            <feComposite in="shadowBlurOuter1" in2="SourceAlpha" operator="out" result="shadowBlurOuter1"></feComposite>
            <feColorMatrix values="0 0 0 0 0   0 0 0 0 0   0 0 0 0 0  0 0 0 0.26 0" type="matrix" in="shadowBlurOuter1"></feColorMatrix>
        </filter>
    </defs>
    <g id="其他图标" stroke="none" stroke-width="1" fill="none" fill-rule="evenodd">
        <g id="玉董" transform="translate(-666.000000, -405.000000)">
            <g id="锅炉" transform="translate(668.000000, 407.000000)">
                <g id="路径">
                    <use fill="black" fill-opacity="1" filter="url(#filter-2)" xlink:href="#path-1"></use>
                    <path stroke="#FFFFFF" stroke-width="1" d="M14,27.5 C17.6069329,27.5 20.9954649,26.0964254 23.545941,23.5459397 C26.0964254,20.9954649 27.5,17.6069329 27.5,14 C27.5,10.393067 26.0964253,7.0045351 23.5459397,4.45405947 C20.9954647,1.90357486 17.6069327,0.5 14,0.5 C10.3930672,0.5 7.00453524,1.9035749 4.45405944,4.45406084 C1.9035749,7.00453524 0.5,10.3930672 0.5,14 C0.5,17.6069327 1.90357486,20.9954647 4.45406083,23.5459411 C7.0045351,26.0964253 10.393067,27.5 14,27.5 Z" stroke-linejoin="square" fill="#E29707" fill-rule="evenodd"></path>
                </g>
                <path d="M15.4614286,23 L11.6728571,23 L11.6728571,22.55 L12.7065714,22.55 L12.7065714,21.9877143 L12.4768571,21.9877143 C11.761793,22.0094815 11.0523606,21.854937 10.4111429,21.5377143 L10.4111429,23 L8.68571429,23 L8.68571429,22.2114286 L9.60714286,22.2114286 L9.60714286,20.9737143 C8.61119833,20.132584 8.02563079,18.9033606 8,17.6 L8,10.2877143 C8.00864112,9.11962836 8.49636506,8.00629157 9.34914286,7.208 C10.218831,6.36699929 11.3819065,5.89783375 12.5917143,5.9 L12.8214286,5.9 L12.8214286,5 L14.5434286,5 L14.5434286,5.9 L14.7714286,5.9 C15.5961581,5.89838729 16.407078,6.11167843 17.1242857,6.51885714 C17.8099869,6.90950054 18.383317,7.47043109 18.7888571,8.14742857 L18.7888571,5.22542857 C18.7962707,5.10423407 18.8967218,5.00973977 19.0181429,5.00973977 C19.1395639,5.00973977 19.2400151,5.10423407 19.2474286,5.22542857 L19.2474286,17.6 C19.2274576,18.9309472 18.5914133,20.1773915 17.5254286,20.9745714 L17.5254286,22.2114286 L18.4434286,22.2114286 L18.4434286,23 L16.724,23 L16.724,21.5368571 C16.0704602,21.817324 15.3692669,21.9700736 14.6582857,21.9868571 L14.4285714,21.9868571 L14.4285714,22.5491429 L15.4614286,22.5491429 L15.4614286,23 Z M14.9830146,16.3300035 C14.9830146,16.5100838 14.9830146,17.0558658 15.2072144,17.2387166 C15.4529723,17.5691746 15.6051873,17.9420117 15.6522924,18.3288953 C15.604131,18.4092389 15.5642732,18.4798858 15.5310585,18.5436065 C15.4470434,18.7726393 15.2475549,18.9597701 14.9846754,19.0561429 C16.039651,18.9414491 16.9568801,18.3960857 17.4309436,17.6016478 C17.6537445,16.8248724 17.6537445,16.015215 17.4309436,15.2384396 C16.9343532,14.4956452 16.6827827,13.6562986 16.7018793,12.8059697 C16.706657,12.566983 16.8039431,12.3356899 16.9792227,12.1465986 C16.6602025,12.2576078 16.3668384,12.4141763 16.112317,12.6092666 C15.5876556,12.9927798 15.3287792,13.5703291 15.4231104,14.1468756 C14.8735055,13.6847424 14.4240002,13.1467101 14.0945194,12.5566277 C13.5296695,11.6280719 13.5296695,10.5304806 14.0945194,9.60192482 L14.0945194,9.05614286 L12.7659283,10.5106379 C11.8394899,11.4264008 11.6639374,12.7169474 12.3208503,13.7825593 C12.4664778,14.346301 12.3133261,14.9350384 11.9006834,15.3977414 C12.0781549,15.1273463 12.1473982,14.8167245 12.0983113,14.511192 C12.0551321,14.4391599 12.0119529,14.3560459 11.9621308,14.2590796 C11.7303462,13.711187 11.3147304,13.2303715 10.7647381,12.8738461 L10.7647381,12.8738461 C11.0141581,13.5368943 10.9333611,14.2557559 10.5405383,14.8685823 C9.79376806,15.4851753 9.4605717,16.3697532 9.65038234,17.2317905 C9.97853847,18.0745295 10.8306862,18.7014405 11.8741116,18.8677511 C11.9757886,18.8748599 12.0749489,18.8978872 12.1664016,18.9356276 C12.3541374,19.0075473 12.5577092,19.0462241 12.7642676,19.0492167 C12.3652883,18.9510404 12.0324655,18.7200331 11.8442183,18.4106241 C11.6834608,18.0896699 11.6949444,17.7266915 11.8757723,17.413256 C12.1210925,17.0034614 12.2053518,16.5396048 12.1165795,16.0875877 C12.1065607,16.0450968 12.1004535,16.0020289 12.0983113,15.9587609 C12.3262466,15.9973414 12.5267503,16.1093334 12.6563196,16.2704385 C12.8105235,16.4421261 12.8510744,16.6669242 12.7642676,16.8688593 C13.6194381,16.393894 13.9847238,15.498591 13.6544236,14.6871167 L13.7175317,14.7355998 C14.3992744,15.2105236 14.6424126,15.9949932 14.3220406,16.6860085 C14.1912114,16.999386 14.2759164,17.3473389 14.5429189,17.5933364 L14.5429189,17.5933364 C14.5063826,17.4437312 14.376845,16.6596891 14.9830146,16.3286183 L14.9830146,16.3300035 Z" id="Fill_1" fill="#FFFFFF" fill-rule="nonzero"></path>
            </g>
        </g>
    </g>
</svg>