<?xml version="1.0" encoding="UTF-8"?>
<svg width="32px" height="32px" viewBox="0 0 32 32" version="1.1" xmlns="http://www.w3.org/2000/svg" xmlns:xlink="http://www.w3.org/1999/xlink">
    <!-- Generator: Sketch 53 (72520) - https://sketchapp.com -->
    <title>非煤矿山企业</title>
    <desc>Created with Sketch.</desc>
    <defs>
        <rect id="path-1" x="0" y="0" width="28" height="28" rx="14"></rect>
        <filter x="-10.7%" y="-10.7%" width="121.4%" height="121.4%" filterUnits="objectBoundingBox" id="filter-2">
            <feMorphology radius="0.5" operator="dilate" in="SourceAlpha" result="shadowSpreadOuter1"></feMorphology>
            <feOffset dx="0" dy="0" in="shadowSpreadOuter1" result="shadowOffsetOuter1"></feOffset>
            <feGaussianBlur stdDeviation="0.5" in="shadowOffsetOuter1" result="shadowBlurOuter1"></feGaussianBlur>
            <feComposite in="shadowBlurOuter1" in2="SourceAlpha" operator="out" result="shadowBlurOuter1"></feComposite>
            <feColorMatrix values="0 0 0 0 0   0 0 0 0 0   0 0 0 0 0  0 0 0 0.26 0" type="matrix" in="shadowBlurOuter1"></feColorMatrix>
        </filter>
    </defs>
    <g id="其他图标" stroke="none" stroke-width="1" fill="none" fill-rule="evenodd">
        <g id="玉董" transform="translate(-926.000000, -427.000000)">
            <g id="非煤矿山企业" transform="translate(928.000000, 429.000000)">
                <g id="矩形">
                    <use fill="black" fill-opacity="1" filter="url(#filter-2)" xlink:href="#path-1"></use>
                    <rect stroke="#FFFFFF" stroke-width="1" stroke-linejoin="square" fill="#E29707" fill-rule="evenodd" x="0.5" y="0.5" width="27" height="27" rx="13.5"></rect>
                </g>
                <path d="M15.2442506,12.8030311 L13.9221151,10.0939355 L8.01635103,20.4526624 L12.0388071,20.4526624 L23,20.4526624 L17.4417642,7.55877405 L15.2442506,12.8030311 Z M15.9703521,7.13409254 C15.7768522,7.29840425 15.5536971,7.54499795 15.2852251,7.91501579 C15.1793671,8.06091317 15.0719954,8.21625168 14.96311,8.38103133 L12.444886,6.13354447 L7.35067849,10.5618715 L7.35067849,19.163779 L7.7419072,19.163779 L7.7419072,20.7649095 L7.35067849,20.7649095 L7.35067849,20.7697127 L5.74954794,20.7697127 L5.74954794,11.953713 L5.05043615,12.5614416 L4,11.3530531 L12.45872,4 L15.9703521,7.13409254 Z M8.44739132,11.1708552 L11.0092002,11.1708552 L11.0092002,13.7326641 L8.44739132,13.7326641 L8.44739132,11.1708552 Z" id="形状" fill="#FFFFFF" fill-rule="nonzero"></path>
            </g>
        </g>
    </g>
</svg>