<?xml version="1.0" encoding="UTF-8"?>
<svg width="32px" height="32px" viewBox="0 0 32 32" version="1.1" xmlns="http://www.w3.org/2000/svg" xmlns:xlink="http://www.w3.org/1999/xlink">
    <!-- Generator: Sketch 53 (72520) - https://sketchapp.com -->
    <title>非药易制毒化学品企业</title>
    <desc>Created with Sketch.</desc>
    <defs>
        <path d="M14,28 C10.2604653,28 6.74475408,26.5437515 4.10050675,23.8994937 C1.4562489,21.2552459 0,17.7395347 0,14 C0,10.2604653 1.4562489,6.74475408 4.10050675,4.10050675 C6.74475408,1.4562489 10.2604653,0 14,0 C17.7395347,0 21.2552459,1.4562489 23.8994937,4.10050675 C26.5437515,6.74475408 28,10.2604653 28,14 C28,17.7395347 26.5437515,21.2552459 23.8994937,23.8994937 C21.2552459,26.5437515 17.7395347,28 14,28 Z" id="path-1"></path>
        <filter x="-10.7%" y="-10.7%" width="121.4%" height="121.4%" filterUnits="objectBoundingBox" id="filter-2">
            <feMorphology radius="0.5" operator="dilate" in="SourceAlpha" result="shadowSpreadOuter1"></feMorphology>
            <feOffset dx="0" dy="0" in="shadowSpreadOuter1" result="shadowOffsetOuter1"></feOffset>
            <feGaussianBlur stdDeviation="0.5" in="shadowOffsetOuter1" result="shadowBlurOuter1"></feGaussianBlur>
            <feComposite in="shadowBlurOuter1" in2="SourceAlpha" operator="out" result="shadowBlurOuter1"></feComposite>
            <feColorMatrix values="0 0 0 0 0   0 0 0 0 0   0 0 0 0 0  0 0 0 0.26 0" type="matrix" in="shadowBlurOuter1"></feColorMatrix>
        </filter>
    </defs>
    <g id="其他图标" stroke="none" stroke-width="1" fill="none" fill-rule="evenodd">
        <g id="玉董" transform="translate(-666.000000, -163.000000)">
            <g id="非药易制毒化学品企业" transform="translate(668.000000, 165.000000)">
                <g id="路径">
                    <use fill="black" fill-opacity="1" filter="url(#filter-2)" xlink:href="#path-1"></use>
                    <path stroke="#FFFFFF" stroke-width="1" d="M14,27.5 C17.6069329,27.5 20.9954649,26.0964254 23.545941,23.5459397 C26.0964254,20.9954649 27.5,17.6069329 27.5,14 C27.5,10.393067 26.0964253,7.0045351 23.5459397,4.45405947 C20.9954647,1.90357486 17.6069327,0.5 14,0.5 C10.3930672,0.5 7.00453524,1.9035749 4.45405944,4.45406084 C1.9035749,7.00453524 0.5,10.3930672 0.5,14 C0.5,17.6069327 1.90357486,20.9954647 4.45406083,23.5459411 C7.0045351,26.0964253 10.393067,27.5 14,27.5 Z" stroke-linejoin="square" fill="#E29707" fill-rule="evenodd"></path>
                </g>
                <path d="M17.48417,22.8428438 L13.40075,18.5452817 C11.0636825,16.0785192 11.0668168,12.1007752 13.4077686,9.63804822 C14.9268513,8.04925621 17.1417097,7.43124111 19.2151724,8.01759997 C21.2886351,8.60395883 22.9044069,10.3052458 23.451759,12.4784093 C23.9991111,14.6515727 23.3945481,16.9651085 21.8665823,18.5445473 L17.6336661,23 L17.48417,22.8428438 Z M15.1284871,11.028608 C14.8052397,11.2786611 14.5378614,11.5922867 14.3432159,11.9497044 C14.1509528,12.3036665 14.0502185,12.6992197 14.05,13.1010749 C14.0539395,13.6247687 14.2234886,14.1340974 14.5348509,14.5575764 C14.8225535,14.9478499 15.1947111,15.2696064 15.6241445,15.4993475 L15.6241445,17.1055628 C15.623741,17.2669529 15.754998,17.3984336 15.9180808,17.4 L19.3811987,17.4 C19.5445635,17.3988233 19.6762564,17.2672286 19.6758555,17.1055628 L19.6758555,15.4993475 C20.1052472,15.2695469 20.4773925,14.947801 20.7651491,14.5575764 C21.0765114,14.1340974 21.2460605,13.6247687 21.25,13.1010749 C21.247977,12.6990924 21.1463049,12.3037423 20.9539023,11.9497044 C20.758998,11.5924612 20.4916612,11.2788843 20.1686312,11.028608 C18.6729958,9.92379734 16.6212408,9.92379734 15.1256054,11.028608 L15.1284871,11.028608 Z M16.4509832,16.6 L16.4509832,16.0840557 C16.442006,15.9874108 16.49503,15.8944219 16.5884779,15.8429294 C16.68065,15.7931271 16.7968408,15.7931271 16.8890129,15.8429294 C16.9825701,15.894274 17.0354153,15.9874585 17.0257562,16.0840557 L17.0257562,16.6 L17.35935,16.6 L17.35935,16.0840557 C17.3479696,15.9864268 17.4003336,15.8915301 17.4945907,15.8389657 C17.5885017,15.7870114 17.7079768,15.7870114 17.8018877,15.8389657 C17.8961448,15.8915301 17.9485089,15.9864268 17.9371284,16.0840557 L17.9371284,16.6 L18.2714735,16.6 L18.2714735,16.0840557 C18.2602727,15.9864548 18.3125933,15.8916369 18.4067142,15.8389657 C18.5006252,15.7870114 18.6201003,15.7870114 18.7140112,15.8389657 C18.8077102,15.891911 18.8596795,15.9866186 18.8485006,16.0840557 L18.8485006,16.6 L16.4509832,16.6 Z M15.8834152,13.9662484 C15.6549893,13.7357469 15.587256,13.3926949 15.7111994,13.0940192 C15.8552914,12.7415816 16.2324311,12.540612 16.6089709,12.6156163 C16.9855108,12.6906205 17.2547701,13.0203485 17.2499359,13.4005255 L17.2499359,13.4005255 C17.2505125,13.72309 17.0554348,14.0144764 16.7551103,14.1396434 C16.455683,14.2630107 16.1105555,14.1936655 15.8834152,13.9644969 L15.8834152,13.9662484 Z M18.05,13.4 C18.05,12.9581722 18.4081722,12.6 18.85,12.6 C19.2918278,12.6 19.65,12.9581722 19.65,13.4 L19.65,13.4 C19.65,13.8418278 19.2918278,14.2 18.85,14.2 C18.4081722,14.2 18.05,13.8418278 18.05,13.4 L18.05,13.4 Z M18.0593541,7.13697716 C16.9516125,7.10643628 16.0724877,6.99169925 15.3461131,7.13677968 L14.5288802,6.40740841 L8.780775,11.40416 L8.780775,21.1102171 L11.8865915,21.1102171 C12.0178585,21.4140723 12.1930503,21.7151812 12.4121667,22.0135437 C12.6353169,22.317399 12.9184542,22.6185079 13.2615785,22.9168704 L8.780775,22.9168704 L8.780775,22.9222901 L6.9741217,22.9222901 L6.9741217,12.9746597 L6.18527121,13.660397 L5,12.2968985 L14.5444899,4 L18.0593541,7.13697716 Z M11.173984,12.0913135 C11.0400036,12.6365128 10.9730134,13.1060749 10.9730134,13.5 C10.9730134,13.920807 10.9730134,14.4147933 10.9730134,14.9819588 L10.018263,14.9819588 L10.018263,12.0913135 L11.173984,12.0913135 Z" id="合并形状" fill="#FFFFFF" fill-rule="nonzero"></path>
            </g>
        </g>
    </g>
</svg>