<?xml version="1.0" encoding="UTF-8"?>
<svg width="32px" height="32px" viewBox="0 0 32 32" version="1.1" xmlns="http://www.w3.org/2000/svg" xmlns:xlink="http://www.w3.org/1999/xlink">
    <!-- Generator: Sketch 53 (72520) - https://sketchapp.com -->
    <title>预警预报设施</title>
    <desc>Created with Sketch.</desc>
    <defs>
        <rect id="path-1" x="0" y="0" width="28" height="28" rx="14"></rect>
        <filter x="-10.7%" y="-10.7%" width="121.4%" height="121.4%" filterUnits="objectBoundingBox" id="filter-2">
            <feMorphology radius="0.5" operator="dilate" in="SourceAlpha" result="shadowSpreadOuter1"></feMorphology>
            <feOffset dx="0" dy="0" in="shadowSpreadOuter1" result="shadowOffsetOuter1"></feOffset>
            <feGaussianBlur stdDeviation="0.5" in="shadowOffsetOuter1" result="shadowBlurOuter1"></feGaussianBlur>
            <feComposite in="shadowBlurOuter1" in2="SourceAlpha" operator="out" result="shadowBlurOuter1"></feComposite>
            <feColorMatrix values="0 0 0 0 0   0 0 0 0 0   0 0 0 0 0  0 0 0 0.26 0" type="matrix" in="shadowBlurOuter1"></feColorMatrix>
        </filter>
    </defs>
    <g id="其他图标" stroke="none" stroke-width="1" fill="none" fill-rule="evenodd">
        <g id="玉董" transform="translate(-382.000000, -33.000000)">
            <g id="预警预报设施" transform="translate(384.000000, 35.000000)">
                <g id="矩形">
                    <use fill="black" fill-opacity="1" filter="url(#filter-2)" xlink:href="#path-1"></use>
                    <rect stroke="#FFFFFF" stroke-width="1" stroke-linejoin="square" fill="#68AE05" fill-rule="evenodd" x="0.5" y="0.5" width="27" height="27" rx="13.5"></rect>
                </g>
                <path d="M20.6744621,24.082 L7.66246209,24.082 L8.31846209,22.082 L20.0184621,22.082 L20.6744621,24.082 Z M8.63646209,22.45 L8.63646209,22.45 L8.22246209,23.71 L10.3624621,23.71 L11.1814621,22.889 C11.3281288,22.7416667 11.4731288,22.5956667 11.6164621,22.451 L8.63646209,22.451 L8.63646209,22.45 Z M19.3954621,21.56 L8.94746209,21.56 L8.94746209,15.19 C8.95076951,12.3279366 11.2703981,10.0087554 14.1324621,10.006 L14.2104621,10.006 C17.0733061,10.0087572 19.393257,12.3291555 19.3954621,15.192 L19.3954621,21.559 L19.3954621,21.56 Z M14.1694621,11.193 C13.9242477,11.193 13.7254621,11.3917856 13.7254621,11.637 C13.7254621,11.8822144 13.9242477,12.081 14.1694621,12.081 L14.2424621,12.081 C16.0413144,12.0842983 17.4990602,13.5411501 17.5034621,15.34 C17.5042576,15.4982767 17.5886956,15.6443315 17.7254621,15.724 C17.8627807,15.8035198 18.0321435,15.8035198 18.1694621,15.724 C18.3062286,15.6443315 18.3906665,15.4982767 18.3914621,15.34 C18.3865083,13.0509498 16.5315145,11.1968501 14.2424621,11.193 L14.1694621,11.193 Z M20.9954621,14.12 C20.5464482,14.1190318 20.1764082,13.7674486 20.1524877,13.3190712 C20.1285671,12.8706939 20.4590998,12.4817358 20.9054621,12.433 L23.3704621,12.059 C23.4124808,12.0524529 23.4549365,12.0491099 23.4974621,12.049 C23.9147126,12.0513056 24.2687471,12.3557922 24.3334621,12.768 C24.3647982,12.9898076 24.3092691,13.2151482 24.1784621,13.397 C24.0454088,13.5774105 23.8461213,13.6975586 23.6244621,13.731 L21.1594621,14.105 C21.1053773,14.1150636 21.0504751,14.1200851 20.9954621,14.12 Z M7.28446209,13.792 C7.2297354,13.7920276 7.17513887,13.7866684 7.12146209,13.776 L4.67646209,13.284 C4.25216938,13.1976139 3.9618334,12.8044815 4.00407658,12.3735495 C4.04631977,11.9426175 4.40747093,11.6133487 4.84046209,11.611 C4.89624675,11.6106601 4.95190429,11.61636 5.00646209,11.628 L7.45146209,12.119 C7.67118341,12.1616034 7.86443038,12.2910356 7.98746209,12.478 C8.15944088,12.7369731 8.17553088,13.0694055 8.02936644,13.343777 C7.88320199,13.6181486 7.59833303,13.7902527 7.28746209,13.792 L7.28446209,13.792 Z M18.7434621,9.922 C18.5386167,9.92172736 18.3409134,9.84669968 18.1874621,9.711 C18.0363351,9.58104831 17.9387184,9.39970918 17.9134621,9.202 C17.8738754,8.95552497 17.9473265,8.7043223 18.1134621,8.518 L19.7604621,6.644 C19.9199758,6.47522988 20.1422401,6.38002545 20.3744621,6.381 C20.7013112,6.38070785 20.9990175,6.5689389 21.1389096,6.86433802 C21.2788018,7.15973713 21.2357891,7.50932243 21.0284621,7.762 L19.3794621,9.636 C19.230579,9.80325647 19.0218982,9.90526225 18.7984621,9.92 L18.7434621,9.922 Z M9.76946209,9.712 C9.51294623,9.71236484 9.27028876,9.59563887 9.11046209,9.395 L7.55046209,7.446 C7.25987837,7.08119633 7.31888693,6.55011935 7.68246209,6.258 C7.83168511,6.13766837 8.01776759,6.0723453 8.20946209,6.073 C8.46661218,6.07231934 8.71001054,6.18904745 8.87046209,6.39 L10.4274621,8.339 C10.718511,8.70331323 10.6594374,9.23452855 10.2954621,9.526 C10.1466808,9.64654655 9.96094914,9.71222354 9.76946209,9.712 Z M14.2954621,8.184 L14.2764621,8.184 C14.0518125,8.17773222 13.8385656,8.08367383 13.6824621,7.922 C13.5286708,7.76064842 13.4452257,7.54484229 13.4504621,7.322 L13.4504621,4.83 C13.4606748,4.3724066 13.8317852,4.00527718 14.2894621,4 L14.3074621,4 C14.7735514,4.01362225 15.1418801,4.39978768 15.1334621,4.866 L15.1414621,7.358 C15.1321852,7.81809309 14.7556454,8.18573119 14.2954621,8.184 L14.2954621,8.184 Z" id="Fill_1" fill="#FFFFFF" fill-rule="nonzero"></path>
            </g>
        </g>
    </g>
</svg>