<?xml version="1.0" encoding="UTF-8"?>
<svg width="32px" height="32px" viewBox="0 0 32 32" version="1.1" xmlns="http://www.w3.org/2000/svg" xmlns:xlink="http://www.w3.org/1999/xlink">
    <!-- Generator: Sketch 53 (72520) - https://sketchapp.com -->
    <title>停车场</title>
    <desc>Created with Sketch.</desc>
    <defs>
        <circle id="path-1" cx="14" cy="14" r="14"></circle>
        <filter x="-10.7%" y="-10.7%" width="121.4%" height="121.4%" filterUnits="objectBoundingBox" id="filter-2">
            <feMorphology radius="0.5" operator="dilate" in="SourceAlpha" result="shadowSpreadOuter1"></feMorphology>
            <feOffset dx="0" dy="0" in="shadowSpreadOuter1" result="shadowOffsetOuter1"></feOffset>
            <feGaussianBlur stdDeviation="0.5" in="shadowOffsetOuter1" result="shadowBlurOuter1"></feGaussianBlur>
            <feComposite in="shadowBlurOuter1" in2="SourceAlpha" operator="out" result="shadowBlurOuter1"></feComposite>
            <feColorMatrix values="0 0 0 0 0   0 0 0 0 0   0 0 0 0 0  0 0 0 0.28 0" type="matrix" in="shadowBlurOuter1"></feColorMatrix>
        </filter>
    </defs>
    <g id="其他图标" stroke="none" stroke-width="1" fill="none" fill-rule="evenodd">
        <g id="应急保障资源" transform="translate(-664.000000, -358.000000)">
            <g id="停车场" transform="translate(666.000000, 360.000000)">
                <g id="Oval-Copy-9">
                    <use fill="black" fill-opacity="1" filter="url(#filter-2)" xlink:href="#path-1"></use>
                    <circle stroke="#FFFFFF" stroke-width="1" stroke-linejoin="square" fill="#0E9D99" fill-rule="evenodd" cx="14" cy="14" r="13.5"></circle>
                </g>
                <path d="M12.4529969,12.6002292 C13.4449357,12.5500789 14.3545356,11.5468293 14.3545356,10.4913379 C14.3545356,9.43599233 13.4449357,8.46713298 12.4531791,8.41737181 L9.05910964,8.41737181 L9.05910964,12.6002292 L12.4529969,12.6002292 Z M16.8586791,10.3776606 C16.8586791,12.7686778 15.0158889,14.7068343 12.7422308,14.7068343 C12.578327,14.7068343 12.5802853,14.7122822 12.4211179,14.6927766 L9.0270029,14.6927766 L9.0270029,21.942586 L6.93847091,21.942586 L6.93847091,6.07314856 L8.79897674,6.07314856 L8.79897674,6.06483071 L12.4353268,6.06483071 C12.5372942,6.05680472 12.6386239,6.04868143 12.7422308,6.04868143 C15.0157067,6.04868143 16.8586791,7.98654606 16.8586791,10.3776606 Z M20.6655819,19.9452318 C20.9957576,19.9446481 21.2633138,19.658874 21.2638603,19.3062165 C21.2633138,18.9535591 20.9957576,18.6679796 20.6655819,18.6673959 C20.3352241,18.6675905 20.0674857,18.9533646 20.0668026,19.3062165 C20.0674857,19.6590685 20.3352241,19.9448426 20.6655819,19.9452318 Z M15.745691,19.9452318 C16.0758667,19.9444535 16.3430585,19.6586794 16.343605,19.3062165 C16.3430585,18.9535591 16.0756845,18.6679796 15.745691,18.6673959 C15.4153331,18.6673959 15.1472305,18.95317 15.1468661,19.3062165 C15.1474126,19.6590685 15.4153331,19.9450858 15.745691,19.9452318 Z M15.6650826,17.6204655 C15.6275564,17.7643497 15.7501085,17.7515568 15.7501085,17.7517513 L20.6422647,17.7517513 C20.6422647,17.7517513 20.7646802,17.7643497 20.7275183,17.6204655 C20.6960036,17.4992486 20.4881979,16.5497489 20.3960675,16.2204885 C20.3585413,16.1068599 20.1119798,15.7680656 19.8246586,15.7876198 L16.5682611,15.7876198 C16.2808033,15.7682601 16.0344239,16.107249 15.9965334,16.2204885 C15.9043575,16.5497489 15.6964151,17.4992486 15.6650826,17.6204655 Z M21.9408343,18.0351906 C22.0075981,18.1757671 22.0801912,18.3013618 22.0801912,19.2509101 C22.0796447,20.1777424 21.9058129,20.5066137 21.6976428,20.6206315 L21.5336935,20.7198134 L21.5336935,21.579811 C21.5336935,21.8581428 21.4713928,21.9411754 21.2235561,21.9411754 L20.667267,21.9411754 C20.4197035,21.9411754 20.2528395,21.9423915 20.2528395,21.6635732 L20.2528395,20.8269726 L16.0755934,20.8269726 L16.0755934,21.6635732 C16.0755934,21.9421969 15.908775,21.9411754 15.6607561,21.9411754 L15.1045126,21.9411754 C14.8566759,21.9411754 14.7945573,21.8581428 14.7945573,21.579811 L14.7945573,20.7198134 L14.6303803,20.6206315 C14.4223924,20.5064192 14.2486517,20.1773533 14.2486517,19.2509101 C14.2486517,18.3013618 14.3208804,18.1757671 14.3874165,18.0351906 C14.4540892,17.8941763 14.6351621,17.7334618 14.6351621,17.7334618 L15.384456,15.5918341 C15.5401168,15.1859619 15.9974898,14.9716435 16.1973258,14.9716435 L20.1314715,14.9716435 C20.3307155,14.9716435 20.7885894,15.1859619 20.9439314,15.5918341 L21.6932253,17.7334618 C21.6932253,17.7334618 21.8750724,17.8941763 21.9408343,18.0351906 Z" id="合并形状" fill="#FFFFFF"></path>
            </g>
        </g>
    </g>
</svg>