<?xml version="1.0" encoding="UTF-8"?>
<svg width="32px" height="32px" viewBox="0 0 32 32" version="1.1" xmlns="http://www.w3.org/2000/svg" xmlns:xlink="http://www.w3.org/1999/xlink">
    <!-- Generator: Sketch 53 (72520) - https://sketchapp.com -->
    <title>公路桥梁</title>
    <desc>Created with Sketch.</desc>
    <defs>
        <circle id="path-1" cx="14" cy="14" r="14"></circle>
        <filter x="-10.7%" y="-10.7%" width="121.4%" height="121.4%" filterUnits="objectBoundingBox" id="filter-2">
            <feMorphology radius="0.5" operator="dilate" in="SourceAlpha" result="shadowSpreadOuter1"></feMorphology>
            <feOffset dx="0" dy="0" in="shadowSpreadOuter1" result="shadowOffsetOuter1"></feOffset>
            <feGaussianBlur stdDeviation="0.5" in="shadowOffsetOuter1" result="shadowBlurOuter1"></feGaussianBlur>
            <feComposite in="shadowBlurOuter1" in2="SourceAlpha" operator="out" result="shadowBlurOuter1"></feComposite>
            <feColorMatrix values="0 0 0 0 0   0 0 0 0 0   0 0 0 0 0  0 0 0 0.28 0" type="matrix" in="shadowBlurOuter1"></feColorMatrix>
        </filter>
    </defs>
    <g id="其他图标" stroke="none" stroke-width="1" fill="none" fill-rule="evenodd">
        <g id="应急保障资源" transform="translate(-662.000000, -106.000000)">
            <g id="公路桥梁" transform="translate(664.000000, 108.000000)">
                <g id="Oval-Copy-10">
                    <use fill="black" fill-opacity="1" filter="url(#filter-2)" xlink:href="#path-1"></use>
                    <circle stroke="#FFFFFF" stroke-width="1" stroke-linejoin="square" fill="#0E9D99" fill-rule="evenodd" cx="14" cy="14" r="13.5"></circle>
                </g>
                <g id="Page-1" transform="translate(6.000000, 6.000000)" fill="#FFFFFF">
                    <path d="M0,4.90245265 L0,7.36881137 C0,7.46777136 0.0802040011,7.54901971 0.177843655,7.54901971 L0.486454703,7.54901971 C0.584116151,7.54901971 0.664298357,7.63029013 0.664298357,7.72925013 L0.664298357,9.70087512 C0.664298357,9.79981304 0.744502358,9.88108346 0.842163807,9.88108346 L1.5395899,9.88108346 C1.62676817,9.88108346 1.70167609,9.81569169 1.7156464,9.72735427 L2.12540603,7.70093799 C2.13935455,7.61260057 2.21258429,7.54720879 2.30154971,7.54720879 L13.3574315,7.54720879 C13.4446098,7.54720879 13.5196049,7.61260057 13.5335752,7.70093799 L13.9433348,9.72735427 C13.9571962,9.81569169 14.0305131,9.88108346 14.1193913,9.88108346 L14.8168174,9.88108346 C14.9144571,9.88108346 14.9946611,9.79981304 14.9946611,9.70087512 L14.9946611,7.72925013 C14.9946611,7.63029013 15.0748651,7.54901971 15.1725047,7.54901971 L15.5578327,7.54901971 C15.6554723,7.54901971 15.7356763,7.46777136 15.7356763,7.36881137 L15.7356763,4.90245265 C15.7356763,4.80349265 15.6554723,4.72222222 15.5578327,4.72222222 L0.177843655,4.72222222 C0.0802040011,4.72222222 0,4.80349265 0,4.90245265" id="Fill-1"></path>
                    <path d="M7.16585603,0 L4.46681703,0 C4.37615164,0 4.30124372,0.0671143559 4.29076053,0.158985274 L3.7659038,3.32853195 C3.75374244,3.43636986 3.8357118,3.52996336 3.94204748,3.52996336 L7.16585603,3.52996336 C7.26351747,3.52996336 7.34369968,3.44869293 7.34369968,3.34975502 L7.34369968,0.18020834 C7.34369968,0.0812704277 7.26351747,0 7.16585603,0" id="Fill-3"></path>
                    <path d="M2.05969534,16.1005517 L7.34786334,16.1005517 C7.44552479,16.1005517 7.525707,16.0193034 7.525707,15.9203434 L7.525707,8.68020834 C7.525707,8.58135877 7.44552479,8.5 7.34786334,8.5 L3.40398415,8.5 C3.31331875,8.5 3.23832365,8.56720269 3.22784047,8.65907361 L1.88355167,15.8992087 C1.8713903,16.0051473 1.95329428,16.1005517 2.05969534,16.1005517" id="Fill-5"></path>
                    <path d="M11.3736897,0 L8.64843189,0 C8.55085762,0 8.47058824,0.0812704277 8.47058824,0.18020834 L8.47058824,3.34975502 C8.47058824,3.44869293 8.55085762,3.52996336 8.64843189,3.52996336 L11.882789,3.52996336 C11.9891247,3.52996336 12.0728158,3.43455894 12.0588455,3.32853195 L11.5497462,0.158985274 C11.5392849,0.0671143559 11.462568,0 11.3736897,0" id="Fill-7"></path>
                    <path d="M8.47058824,8.68020834 L8.47058824,15.9203434 C8.47058824,16.0193034 8.55087941,16.1005517 8.64843189,16.1005517 L13.9628187,16.1005517 C14.0692416,16.1005517 14.1529327,16.0051473 14.1389624,15.8992087 L12.7876994,8.65907361 C12.777238,8.56892527 12.7005211,8.5 12.6115557,8.5 L8.64843189,8.5 C8.55087941,8.5 8.47058824,8.58135877 8.47058824,8.68020834" id="Fill-9"></path>
                </g>
            </g>
        </g>
    </g>
</svg>