<?xml version="1.0" encoding="UTF-8"?>
<svg width="32px" height="32px" viewBox="0 0 32 32" version="1.1" xmlns="http://www.w3.org/2000/svg" xmlns:xlink="http://www.w3.org/1999/xlink">
    <!-- Generator: Sketch 53 (72520) - https://sketchapp.com -->
    <title>服务区</title>
    <desc>Created with Sketch.</desc>
    <defs>
        <circle id="path-1" cx="14" cy="14" r="14"></circle>
        <filter x="-10.7%" y="-10.7%" width="121.4%" height="121.4%" filterUnits="objectBoundingBox" id="filter-2">
            <feMorphology radius="0.5" operator="dilate" in="SourceAlpha" result="shadowSpreadOuter1"></feMorphology>
            <feOffset dx="0" dy="0" in="shadowSpreadOuter1" result="shadowOffsetOuter1"></feOffset>
            <feGaussianBlur stdDeviation="0.5" in="shadowOffsetOuter1" result="shadowBlurOuter1"></feGaussianBlur>
            <feComposite in="shadowBlurOuter1" in2="SourceAlpha" operator="out" result="shadowBlurOuter1"></feComposite>
            <feColorMatrix values="0 0 0 0 0   0 0 0 0 0   0 0 0 0 0  0 0 0 0.28 0" type="matrix" in="shadowBlurOuter1"></feColorMatrix>
        </filter>
    </defs>
    <g id="其他图标" stroke="none" stroke-width="1" fill="none" fill-rule="evenodd">
        <g id="应急保障资源" transform="translate(-662.000000, -280.000000)">
            <g id="服务区" transform="translate(664.000000, 282.000000)">
                <g id="Oval-Copy-6">
                    <use fill="black" fill-opacity="1" filter="url(#filter-2)" xlink:href="#path-1"></use>
                    <circle stroke="#FFFFFF" stroke-width="1" stroke-linejoin="square" fill="#0E9D99" fill-rule="evenodd" cx="14" cy="14" r="13.5"></circle>
                </g>
                <path d="M21.3108236,18.9333842 C21.1547607,18.8780739 21.0190585,18.7754121 20.9220153,18.6392297 C19.7555062,16.9992297 18.5481319,15.4017226 17.3808194,13.7616738 C17.3808194,13.7091711 17.3300495,13.7091711 17.3300495,13.6666903 C17.2784762,13.5717069 17.2375389,13.5200098 17.0844617,13.5200098 C16.9919631,13.5717069 16.8896559,13.5717069 16.7979486,13.6141876 C16.705486,13.6141876 16.6547161,13.6666903 16.5524088,13.7091711 C16.4091283,13.5091943 16.2143224,13.3092053 16.0710898,13.1091675 C15.4111648,12.3270584 14.7662166,11.5318754 14.1367368,10.7241558 C14.0860148,10.671653 14.0860148,10.6291723 14.0860148,10.577524 L14.0860148,9.37832256 C14.0860148,9.231642 14.1367368,9.1266487 14.3315427,9.1266487 C14.6180677,9.17833358 14.8636435,9.17833358 15.1092313,9.17833358 C15.2008906,9.17833358 15.2008906,9.17833358 15.2524639,9.231642 C17.5764287,12.1650213 19.9503601,15.097546 22.2734855,18.0400806 C22.478124,18.2400574 22.3348915,18.6817104 22.0893037,18.8817482 C21.8437279,19.0292344 21.6079847,19.0292344 21.311675,18.934251 L21.3108236,18.9333842 Z M12.2842703,9.55752285 C11.9667005,9.32501414 11.5680475,9.17833358 11.0973526,9.09417781 C10.7592542,9.03166523 10.2672992,9 9.63290302,9 L6,9 L6,18.8717262 L7.2687923,18.8717262 L7.2687923,14.8667097 L9.73519829,14.8667097 C11.0973526,14.8667097 12.0386945,14.5716884 12.5601593,13.9933769 C13.0824276,13.4150165 13.337788,12.7008521 13.337788,11.860039 C13.337788,11.3758564 13.2461288,10.9233391 13.0513229,10.5133513 C12.8794678,10.1338813 12.6154738,9.80519278 12.2842703,9.55832851 L12.2842703,9.55752285 Z M9.75566694,13.7000157 L7.2687923,13.7000157 L7.2687923,10.1666817 L9.72456227,10.1666817 C10.2975525,10.1666817 10.6986996,10.198347 10.9115399,10.249983 C11.2389424,10.3458332 11.5172656,10.5349945 11.7219161,10.8291613 C11.9265546,11.1233647 12.0280585,11.4808497 12.0280585,11.8908375 C12.0280585,12.4691979 11.8545126,12.9216786 11.5066296,13.2267097 C11.1587105,13.541714 10.5750843,13.6992101 9.75566694,13.6992101 L9.75566694,13.7000157 Z M19.1816766,11.5225248 C19.1816766,11.2283702 19.23325,10.9233391 19.23325,10.6300268 C19.23325,10.577524 19.23325,10.5349945 19.2840199,10.5349945 C19.8435202,10.0992131 20.3932359,9.65045553 20.9326393,9.18916128 L21.0242985,9.09417781 C21.1168211,9 21.167591,9 21.2191524,9.09417781 C21.2698863,9.09417781 21.2698863,9.14748623 21.2698863,9.14748623 C21.3623969,9.24251853 21.3623969,9.24251853 21.2698863,9.34752404 L20.4005384,10.240022 L20.2573058,10.3875082 C20.2057325,10.440011 20.2057325,10.5349945 20.3080758,10.5349945 C20.4005384,10.5349945 20.5028816,10.5349945 20.5945529,10.440011 C20.881078,10.0933415 21.1782271,9.69332688 21.4647402,9.34752404 C21.5154741,9.29416679 21.5563994,9.29416679 21.6079847,9.34752404 C21.6079847,9.39916009 21.6587546,9.39916009 21.6587546,9.44165302 C21.6212348,9.51537172 21.572887,9.58279155 21.5154741,9.64167862 C21.228949,9.93584541 20.9834212,10.2925248 20.6968961,10.5874972 C20.6461262,10.5874972 20.6461262,10.64 20.6461262,10.64 C20.5945529,10.6924905 20.5536516,10.7341656 20.5945529,10.8400256 C20.6461262,10.8925283 20.7894067,10.8400256 20.8401287,10.787535 C21.0857165,10.4925138 21.3214596,10.1875193 21.5670474,9.89336469 C21.6178173,9.79918688 21.710328,9.69332688 21.8126232,9.59914907 C21.8633931,9.54664632 21.9042945,9.54664632 21.9558558,9.59914907 C22.0066377,9.69332688 22.0066377,9.74668413 21.9558558,9.79918688 C21.6178173,10.1458442 21.3214596,10.4925138 21.0349825,10.8400256 C20.9834212,10.8925283 20.9834212,10.9341546 20.9424839,10.9875118 C20.891702,11.0816896 20.891702,11.1341924 20.9940452,11.1341924 C21.0857165,11.1866951 21.1372898,11.1341924 21.1880597,11.0816896 C21.4745368,10.681675 21.8224558,10.3350055 22.108933,9.93584541 L22.1613456,9.88248816 C22.2120796,9.8308399 22.2522135,9.78835918 22.3045782,9.8308399 C22.3545088,9.88248816 22.3962974,9.97752046 22.3545088,10.0308289 C22.108933,10.4824917 21.8740292,10.9233391 21.6284534,11.3758564 C21.57688,11.5225248 21.5359428,11.670011 21.4336475,11.7758222 C21.3828656,11.87 21.3419283,11.97586 21.239633,12.0275082 C21.0447792,12.1750433 20.8507647,12.2275338 20.6052369,12.2800366 C20.2163805,12.3741656 19.8783301,12.5742034 19.6327423,12.9316884 C19.4378885,13.1841801 19.182516,13.425832 18.9876622,13.6675448 C18.7421343,13.3741959 18.2787899,12.8466659 18.2787899,12.8466659 C18.2787899,12.8466659 18.7928563,12.217524 18.9885135,12.017535 C19.1204506,11.8892628 19.1909937,11.7088296 19.1816766,11.5233426 L19.1816766,11.5225248 Z M16.5212682,16.9367171 C16.0808745,17.4833634 15.7026902,18.0825613 15.2623085,18.6300743 C15.1706373,18.7767427 15.068294,18.8817482 14.9250495,18.8817482 L14.6893063,18.8817482 C14.4027932,18.8292454 14.1572054,18.7350676 14.0548622,18.3875436 L14.0548622,18.2408752 C14.1064355,18.1875668 14.1064355,18.1467463 14.1473728,18.093389 C15.2115266,16.7475558 17.3505182,14.0041923 17.3505182,14.0041923 L18.0667889,14.897557 C18.0667889,14.897557 17.0533691,16.2433902 16.5212682,16.9367171 L16.5212682,16.9367171 Z" id="Fill-1" fill="#FFFFFF"></path>
            </g>
        </g>
    </g>
</svg>