<?xml version="1.0" encoding="UTF-8"?>
<svg width="32px" height="32px" viewBox="0 0 32 32" version="1.1" xmlns="http://www.w3.org/2000/svg" xmlns:xlink="http://www.w3.org/1999/xlink">
    <!-- Generator: Sketch 53 (72520) - https://sketchapp.com -->
    <title>机场</title>
    <desc>Created with Sketch.</desc>
    <defs>
        <rect id="path-1" x="0" y="0" width="28" height="28" rx="14"></rect>
        <filter x="-10.7%" y="-10.7%" width="121.4%" height="121.4%" filterUnits="objectBoundingBox" id="filter-2">
            <feMorphology radius="0.5" operator="dilate" in="SourceAlpha" result="shadowSpreadOuter1"></feMorphology>
            <feOffset dx="0" dy="0" in="shadowSpreadOuter1" result="shadowOffsetOuter1"></feOffset>
            <feGaussianBlur stdDeviation="0.5" in="shadowOffsetOuter1" result="shadowBlurOuter1"></feGaussianBlur>
            <feComposite in="shadowBlurOuter1" in2="SourceAlpha" operator="out" result="shadowBlurOuter1"></feComposite>
            <feColorMatrix values="0 0 0 0 0   0 0 0 0 0   0 0 0 0 0  0 0 0 0.26 0" type="matrix" in="shadowBlurOuter1"></feColorMatrix>
        </filter>
    </defs>
    <g id="其他图标" stroke="none" stroke-width="1" fill="none" fill-rule="evenodd">
        <g id="应急保障资源" transform="translate(-664.000000, -620.000000)">
            <g id="机场" transform="translate(666.000000, 622.000000)">
                <g id="矩形">
                    <use fill="black" fill-opacity="1" filter="url(#filter-2)" xlink:href="#path-1"></use>
                    <rect stroke="#FFFFFF" stroke-width="1" stroke-linejoin="square" fill="#0E9D99" fill-rule="evenodd" x="0.5" y="0.5" width="27" height="27" rx="13.5"></rect>
                </g>
                <path d="M12.5324675,7.64079577 L12.5324675,11.7273412 L5,16.4200165 L5.01735065,18.3594451 L12.7748571,15.0693672 L13.0605714,20.0737308 L9.89174026,22.0390295 L9.90046753,22.9481204 L14.2987013,22.1776269 L18.1082597,23.0000685 L18.0995325,22.0823542 L15.2337662,20.0737308 L15.380987,15.1472893 L23,18.4719646 L22.9826494,16.532536 L15.6493506,11.7706659 L15.6493506,7.65814642 C15.632,5.82261395 14.9220779,5.0000685 14.038961,5.0000685 C13.1558442,4.99144512 12.5151169,5.79663993 12.5324675,7.64079577" id="Fill-1" fill="#FFFFFF"></path>
            </g>
        </g>
    </g>
</svg>