<?xml version="1.0" encoding="UTF-8"?>
<svg width="32px" height="32px" viewBox="0 0 32 32" version="1.1" xmlns="http://www.w3.org/2000/svg" xmlns:xlink="http://www.w3.org/1999/xlink">
    <!-- Generator: Sketch 53 (72520) - https://sketchapp.com -->
    <title>汽车站</title>
    <desc>Created with Sketch.</desc>
    <defs>
        <circle id="path-1" cx="14" cy="14" r="14"></circle>
        <filter x="-10.7%" y="-10.7%" width="121.4%" height="121.4%" filterUnits="objectBoundingBox" id="filter-2">
            <feMorphology radius="0.5" operator="dilate" in="SourceAlpha" result="shadowSpreadOuter1"></feMorphology>
            <feOffset dx="0" dy="0" in="shadowSpreadOuter1" result="shadowOffsetOuter1"></feOffset>
            <feGaussianBlur stdDeviation="0.5" in="shadowOffsetOuter1" result="shadowBlurOuter1"></feGaussianBlur>
            <feComposite in="shadowBlurOuter1" in2="SourceAlpha" operator="out" result="shadowBlurOuter1"></feComposite>
            <feColorMatrix values="0 0 0 0 0   0 0 0 0 0   0 0 0 0 0  0 0 0 0.28 0" type="matrix" in="shadowBlurOuter1"></feColorMatrix>
        </filter>
    </defs>
    <g id="其他图标" stroke="none" stroke-width="1" fill="none" fill-rule="evenodd">
        <g id="应急保障资源" transform="translate(-662.000000, -239.000000)">
            <g id="汽车站" transform="translate(664.000000, 241.000000)">
                <g id="Oval-Copy-11">
                    <use fill="black" fill-opacity="1" filter="url(#filter-2)" xlink:href="#path-1"></use>
                    <circle stroke="#FFFFFF" stroke-width="1" stroke-linejoin="square" fill="#0E9D99" fill-rule="evenodd" cx="14" cy="14" r="13.5"></circle>
                </g>
                <path d="M8.24993846,14.3567873 L19.5293626,14.3567873 L19.5293626,9.42840356 L8.24993846,9.42840356 L8.24993846,14.3567873 Z M18.2833428,19.3245914 L18.2833428,16.8789658 L19.5263991,16.8789658 L19.5263991,19.3246636 L18.2833428,19.3246636 L18.2833428,19.3245914 Z M8.24993846,19.3246636 L9.513078,19.3246636 L9.513078,16.8789658 L8.24993846,16.8789658 L8.24993846,19.3246636 Z M19.6425146,7.23894994 C15.9975731,5.58702873 11.7924798,5.58702873 8.1475138,7.2388777 C7.46230701,7.54940007 7,7.82873776 7,8.01721846 L7,19.2485682 C7,19.939953 7.54158693,20.5065992 8.23022257,20.5617443 L8.23022257,22.9829037 L10.7464845,22.9829037 L10.7464845,20.5665364 L17.0121699,20.5665364 L17.0121699,22.9829037 L19.5284074,22.9829037 L19.5284074,20.5640801 C20.231983,20.5239133 20.7899305,19.9504041 20.7899305,19.2485682 L20.7899305,8.01731478 C20.7899305,7.82881 20.3276724,7.54947231 19.6425146,7.23894994 L19.6425146,7.23894994 Z" id="Fill-1" fill="#FFFFFF"></path>
            </g>
        </g>
    </g>
</svg>