<?xml version="1.0" encoding="UTF-8"?>
<svg width="32px" height="32px" viewBox="0 0 32 32" version="1.1" xmlns="http://www.w3.org/2000/svg" xmlns:xlink="http://www.w3.org/1999/xlink">
    <!-- Generator: Sketch 53 (72520) - https://sketchapp.com -->
    <title>运输管理机构</title>
    <desc>Created with Sketch.</desc>
    <defs>
        <rect id="path-1" x="0" y="0" width="28" height="28" rx="14"></rect>
        <filter x="-10.7%" y="-10.7%" width="121.4%" height="121.4%" filterUnits="objectBoundingBox" id="filter-2">
            <feMorphology radius="0.5" operator="dilate" in="SourceAlpha" result="shadowSpreadOuter1"></feMorphology>
            <feOffset dx="0" dy="0" in="shadowSpreadOuter1" result="shadowOffsetOuter1"></feOffset>
            <feGaussianBlur stdDeviation="0.5" in="shadowOffsetOuter1" result="shadowBlurOuter1"></feGaussianBlur>
            <feComposite in="shadowBlurOuter1" in2="SourceAlpha" operator="out" result="shadowBlurOuter1"></feComposite>
            <feColorMatrix values="0 0 0 0 0   0 0 0 0 0   0 0 0 0 0  0 0 0 0.26 0" type="matrix" in="shadowBlurOuter1"></feColorMatrix>
        </filter>
    </defs>
    <g id="其他图标" stroke="none" stroke-width="1" fill="none" fill-rule="evenodd">
        <g id="应急保障资源" transform="translate(-664.000000, -721.000000)">
            <g id="运输管理机构" transform="translate(666.000000, 723.000000)">
                <g id="矩形">
                    <use fill="black" fill-opacity="1" filter="url(#filter-2)" xlink:href="#path-1"></use>
                    <rect stroke="#FFFFFF" stroke-width="1" stroke-linejoin="square" fill="#0E9D99" fill-rule="evenodd" x="0.5" y="0.5" width="27" height="27" rx="13.5"></rect>
                </g>
                <path d="M18.2550531,21.8845593 C18.2550531,22.573036 18.8122526,23.1302355 19.5007293,23.1302355 C20.1892061,23.1302355 20.7464055,22.573036 20.7464055,21.8845593 C20.7464055,21.1960825 20.1892061,20.6388831 19.5007293,20.6388831 C18.8122526,20.6403417 18.2550531,21.1975412 18.2550531,21.8845593 L18.2550531,21.8845593 Z M10.716816,21.8845593 C10.716816,22.573036 11.2740154,23.1302355 11.9624922,23.1302355 C12.650969,23.1302355 13.2081684,22.573036 13.2081684,21.8845593 C13.2081684,21.1960825 12.650969,20.6388831 11.9624922,20.6388831 C11.2740154,20.6403417 10.716816,21.1975412 10.716816,21.8845593 L10.716816,21.8845593 Z M9.41279433,17.2971452 L10.61617,15.6926443 C10.8626797,15.3965409 11.0289644,15.1544072 11.4242551,15.1544072 L13.8455928,15.1544072 C14.1416962,15.1544072 14.38383,15.3965409 14.38383,15.6926443 L14.38383,21.0764743 C14.38383,21.3725776 14.1431548,21.6117941 13.8485101,21.6147114 C13.7157741,20.6870181 12.9237341,19.9693686 11.9610335,19.9693686 C10.9968743,19.9693686 10.2048343,20.6870181 10.073557,21.6147114 L9.53823713,21.6147114 C9.24213378,21.6147114 9,21.3725776 9,21.0764743 L9,18.3852886 C9,17.8747656 9.41279433,17.2971452 9.41279433,17.2971452 L9.41279433,17.2971452 Z M12.7691186,18.3852886 L12.7691186,16.2308814 L11.4519692,16.2308814 C11.3644509,16.2308814 11.2448427,16.3577829 11.2448427,16.3577829 L10.1114816,17.9272765 C10.0108356,18.0745989 9.90289644,18.2496353 9.90289644,18.3852886 L12.7691186,18.3852886 L12.7691186,18.3852886 Z M15.4617629,13 L22.4617629,13 C22.7578662,13 23,13.2421338 23,13.5382371 L23,21.0764743 C23,21.3725776 22.7578662,21.6147114 22.4617629,21.6147114 L21.3882059,21.6147114 C21.2569285,20.6870181 20.4648885,19.9693686 19.5007293,19.9693686 C18.5365701,19.9693686 17.7445301,20.6870181 17.6132528,21.6147114 L15.4632215,21.6147114 C15.1671181,21.6147114 14.9249844,21.3725776 14.9249844,21.0764743 L14.9249844,13.5396958 C14.9235257,13.2421338 15.1656595,13 15.4617629,13 L15.4617629,13 Z M9.21129636,23 L6,23 L6,21.8 L7.20000001,21.8 L7.20000001,5 L15.51,5 L15.51,11.8095787 C15.2209629,11.8984706 14.946257,12.0089215 14.6858822,12.1409316 C14.5050979,12.2325893 14.3680218,12.4299413 14.25,12.66335 L14.25,6.20000001 L8.39999999,6.20000001 L8.39999999,21.8 L9.19298515,21.8 C9.19480373,22.1981072 9.18186901,22.6257796 9.21129636,23 Z M9.51,15.8313659 L9.51,14.63 L10.3199381,14.63 C9.99516642,15.1622363 9.719271,15.5206006 9.51,15.8313659 Z M9.51,7.43 L13.05,7.43 L13.05,9.82999999 L9.51,9.82999999 L9.51,7.43 Z M9.51,11.03 L13.05,11.03 L13.05,13.43 L9.51,13.43 L9.51,11.03 Z" id="合并形状" fill="#FFFFFF" fill-rule="nonzero"></path>
            </g>
        </g>
    </g>
</svg>