<?xml version="1.0" encoding="UTF-8"?>
<svg width="32px" height="32px" viewBox="0 0 32 32" version="1.1" xmlns="http://www.w3.org/2000/svg" xmlns:xlink="http://www.w3.org/1999/xlink">
    <!-- Generator: Sketch 53 (72520) - https://sketchapp.com -->
    <title>运输企业</title>
    <desc>Created with Sketch.</desc>
    <defs>
        <rect id="path-1" x="0" y="0" width="28" height="28" rx="14"></rect>
        <filter x="-10.7%" y="-10.7%" width="121.4%" height="121.4%" filterUnits="objectBoundingBox" id="filter-2">
            <feMorphology radius="0.5" operator="dilate" in="SourceAlpha" result="shadowSpreadOuter1"></feMorphology>
            <feOffset dx="0" dy="0" in="shadowSpreadOuter1" result="shadowOffsetOuter1"></feOffset>
            <feGaussianBlur stdDeviation="0.5" in="shadowOffsetOuter1" result="shadowBlurOuter1"></feGaussianBlur>
            <feComposite in="shadowBlurOuter1" in2="SourceAlpha" operator="out" result="shadowBlurOuter1"></feComposite>
            <feColorMatrix values="0 0 0 0 0   0 0 0 0 0   0 0 0 0 0  0 0 0 0.26 0" type="matrix" in="shadowBlurOuter1"></feColorMatrix>
        </filter>
    </defs>
    <g id="其他图标" stroke="none" stroke-width="1" fill="none" fill-rule="evenodd">
        <g id="应急保障资源" transform="translate(-666.000000, -683.000000)">
            <g id="运输企业" transform="translate(668.000000, 685.000000)">
                <g id="矩形">
                    <use fill="black" fill-opacity="1" filter="url(#filter-2)" xlink:href="#path-1"></use>
                    <rect stroke="#FFFFFF" stroke-width="1" stroke-linejoin="square" fill="#0E9D99" fill-rule="evenodd" x="0.5" y="0.5" width="27" height="27" rx="13.5"></rect>
                </g>
                <path d="M18.2550531,20.8845593 C18.2550531,21.573036 18.8122526,22.1302355 19.5007293,22.1302355 C20.1892061,22.1302355 20.7464055,21.573036 20.7464055,20.8845593 C20.7464055,20.1960825 20.1892061,19.6388831 19.5007293,19.6388831 C18.8122526,19.6403417 18.2550531,20.1975412 18.2550531,20.8845593 L18.2550531,20.8845593 Z M10.716816,20.8845593 C10.716816,21.573036 11.2740154,22.1302355 11.9624922,22.1302355 C12.650969,22.1302355 13.2081684,21.573036 13.2081684,20.8845593 C13.2081684,20.1960825 12.650969,19.6388831 11.9624922,19.6388831 C11.2740154,19.6403417 10.716816,20.1975412 10.716816,20.8845593 L10.716816,20.8845593 Z M9.41279433,16.2971452 L10.61617,14.6926443 C10.8626797,14.3965409 11.0289644,14.1544072 11.4242551,14.1544072 L13.8455928,14.1544072 C14.1416962,14.1544072 14.38383,14.3965409 14.38383,14.6926443 L14.38383,20.0764743 C14.38383,20.3725776 14.1431548,20.6117941 13.8485101,20.6147114 C13.7157741,19.6870181 12.9237341,18.9693686 11.9610335,18.9693686 C10.9968743,18.9693686 10.2048343,19.6870181 10.073557,20.6147114 L9.53823713,20.6147114 C9.24213378,20.6147114 9,20.3725776 9,20.0764743 L9,17.3852886 C9,16.8747656 9.41279433,16.2971452 9.41279433,16.2971452 L9.41279433,16.2971452 Z M12.7691186,17.3852886 L12.7691186,15.2308814 L11.4519692,15.2308814 C11.3644509,15.2308814 11.2448427,15.3577829 11.2448427,15.3577829 L10.1114816,16.9272765 C10.0108356,17.0745989 9.90289644,17.2496353 9.90289644,17.3852886 L12.7691186,17.3852886 L12.7691186,17.3852886 Z M15.4617629,12 L22.4617629,12 C22.7578662,12 23,12.2421338 23,12.5382371 L23,20.0764743 C23,20.3725776 22.7578662,20.6147114 22.4617629,20.6147114 L21.3882059,20.6147114 C21.2569285,19.6870181 20.4648885,18.9693686 19.5007293,18.9693686 C18.5365701,18.9693686 17.7445301,19.6870181 17.6132528,20.6147114 L15.4632215,20.6147114 C15.1671181,20.6147114 14.9249844,20.3725776 14.9249844,20.0764743 L14.9249844,12.5396958 C14.9235257,12.2421338 15.1656595,12 15.4617629,12 L15.4617629,12 Z M21.1512126,11.0793136 C20.6588292,11.0793136 20.0415737,11.0793136 19.299446,11.0793136 L18.5306821,11.0793136 L13.204032,6.32533766 L7.65188494,11.1517454 L7.65188494,20.5269142 L8.6518213,20.5269142 C8.77861335,20.8204108 8.94783264,21.1112546 9.15947918,21.3994457 C9.37502203,21.6929422 9.6485069,21.983786 9.97993379,22.2719771 L7.65188494,22.2719771 L7.65188494,22.277212 L5.9068221,22.277212 L5.9068221,12.6687054 L5.14486423,13.3310653 L4,12.0140496 L13.2191095,4 L21.1512126,11.0793136 Z M11.6392864,13.3967614 C11.2162739,13.4446498 10.8709943,13.5758639 10.6034478,13.7904037 C10.2525338,14.0717942 9.94038166,14.3441842 9.66699151,14.6075738 L8.84718585,14.6075738 L8.84718585,11.8154733 L11.6392864,11.8154733 L11.6392864,13.3967614 Z" id="合并形状" fill="#FFFFFF" fill-rule="nonzero"></path>
            </g>
        </g>
    </g>
</svg>