<?xml version="1.0" encoding="UTF-8"?>
<svg width="32px" height="32px" viewBox="0 0 32 32" version="1.1" xmlns="http://www.w3.org/2000/svg" xmlns:xlink="http://www.w3.org/1999/xlink">
    <!-- Generator: Sketch 53 (72520) - https://sketchapp.com -->
    <title>铁路隧道</title>
    <desc>Created with Sketch.</desc>
    <defs>
        <rect id="path-1" x="0" y="0" width="28" height="28" rx="14"></rect>
        <filter x="-10.7%" y="-10.7%" width="121.4%" height="121.4%" filterUnits="objectBoundingBox" id="filter-2">
            <feMorphology radius="0.5" operator="dilate" in="SourceAlpha" result="shadowSpreadOuter1"></feMorphology>
            <feOffset dx="0" dy="0" in="shadowSpreadOuter1" result="shadowOffsetOuter1"></feOffset>
            <feGaussianBlur stdDeviation="0.5" in="shadowOffsetOuter1" result="shadowBlurOuter1"></feGaussianBlur>
            <feComposite in="shadowBlurOuter1" in2="SourceAlpha" operator="out" result="shadowBlurOuter1"></feComposite>
            <feColorMatrix values="0 0 0 0 0   0 0 0 0 0   0 0 0 0 0  0 0 0 0.26 0" type="matrix" in="shadowBlurOuter1"></feColorMatrix>
        </filter>
    </defs>
    <g id="其他图标" stroke="none" stroke-width="1" fill="none" fill-rule="evenodd">
        <g id="应急保障资源" transform="translate(-664.000000, -493.000000)">
            <g id="铁路隧道" transform="translate(666.000000, 495.000000)">
                <g id="矩形">
                    <use fill="black" fill-opacity="1" filter="url(#filter-2)" xlink:href="#path-1"></use>
                    <rect stroke="#FFFFFF" stroke-width="1" stroke-linejoin="square" fill="#0E9D99" fill-rule="evenodd" x="0.5" y="0.5" width="27" height="27" rx="13.5"></rect>
                </g>
                <path d="M14,6 C18.4044535,6 22,9.61577692 22,14.0451931 L22,21.6383735 C22,21.8191461 21.8202429,22 21.6404049,22 L20.7415385,22 C20.5617814,22 20.3820243,21.8191461 20.3820243,21.6383735 L20.3820243,14.2259657 C20.3820243,10.7005751 17.5055871,7.80788846 14,7.80788846 C10.4944129,7.80788846 7.61797571,10.7005751 7.61797571,14.2259657 L7.61797571,21.6383735 C7.61797571,21.8191461 7.43821861,22 7.25846151,22 L6.3595951,22 C6.1797571,22 6,21.8191461 6,21.6383735 L6,14.0451931 C6,9.61577692 9.59554652,6 14,6 Z M13.2808988,19.2881185 C13.1910202,19.4688911 13.3707773,19.6496636 13.640413,19.6496636 L14.4494008,19.6496636 C14.6292388,19.6496636 14.8089959,19.4688911 14.8089959,19.2881185 L14.7191174,18.6553331 C14.7191174,18.4745606 14.5393603,18.3841743 14.3595223,18.3841743 L13.7303724,18.3841743 C13.5505344,18.3841743 13.3707773,18.4745606 13.3707773,18.6553331 L13.2808988,19.2881185 Z M14.0000081,16.6666721 C13.820251,16.6666721 13.640413,16.8474447 13.5505344,16.937831 L13.5505344,17.2089898 C13.5505344,17.48023 13.7303724,17.6610026 13.9101295,17.6610026 L14.0898866,17.6610026 C14.3595223,17.6610026 14.4494008,17.3898437 14.4494008,17.2089898 L14.4494008,16.937831 C14.3595223,16.7570584 14.2696437,16.6666721 14.0000081,16.6666721 Z M14.0000081,10.61014 C16.157336,10.61014 17.8651903,12.3276422 17.8651903,14.4971571 L17.8651903,21.638406 C17.8651903,21.8191786 17.6853523,21.9999512 17.5055952,21.9999512 L15.5281052,21.9999512 C15.3483481,21.9999512 15.1685101,21.9095649 15.1685101,21.7287923 L14.988753,20.5536892 C14.988753,20.3728353 14.8089959,20.282449 14.6292388,20.282449 L13.3707773,20.282449 C13.1910202,20.282449 13.0112631,20.3728353 13.0112631,20.5536892 L12.8314251,21.7287923 C12.8314251,21.9095649 12.651668,21.9999512 12.4719109,21.9999512 L10.494421,21.9999512 C10.314583,21.9999512 10.1348259,21.8191786 10.1348259,21.638406 L10.1348259,14.4971571 C10.1348259,12.3276422 11.8426802,10.61014 14.0000081,10.61014 Z" id="合并形状" fill="#FFFFFF"></path>
            </g>
        </g>
    </g>
</svg>