<?xml version="1.0" encoding="UTF-8"?>
<svg width="32px" height="32px" viewBox="0 0 32 32" version="1.1" xmlns="http://www.w3.org/2000/svg" xmlns:xlink="http://www.w3.org/1999/xlink">
    <!-- Generator: Sketch 53 (72520) - https://sketchapp.com -->
    <title>铁路桥梁</title>
    <desc>Created with Sketch.</desc>
    <defs>
        <rect id="path-1" x="0" y="0" width="28" height="28" rx="14"></rect>
        <filter x="-10.7%" y="-10.7%" width="121.4%" height="121.4%" filterUnits="objectBoundingBox" id="filter-2">
            <feMorphology radius="0.5" operator="dilate" in="SourceAlpha" result="shadowSpreadOuter1"></feMorphology>
            <feOffset dx="0" dy="0" in="shadowSpreadOuter1" result="shadowOffsetOuter1"></feOffset>
            <feGaussianBlur stdDeviation="0.5" in="shadowOffsetOuter1" result="shadowBlurOuter1"></feGaussianBlur>
            <feComposite in="shadowBlurOuter1" in2="SourceAlpha" operator="out" result="shadowBlurOuter1"></feComposite>
            <feColorMatrix values="0 0 0 0 0   0 0 0 0 0   0 0 0 0 0  0 0 0 0.26 0" type="matrix" in="shadowBlurOuter1"></feColorMatrix>
        </filter>
    </defs>
    <g id="其他图标" stroke="none" stroke-width="1" fill="none" fill-rule="evenodd">
        <g id="应急保障资源" transform="translate(-664.000000, -434.000000)">
            <g id="铁路桥梁" transform="translate(666.000000, 436.000000)">
                <g id="矩形">
                    <use fill="black" fill-opacity="1" filter="url(#filter-2)" xlink:href="#path-1"></use>
                    <rect stroke="#FFFFFF" stroke-width="1" stroke-linejoin="square" fill="#0E9D99" fill-rule="evenodd" x="0.5" y="0.5" width="27" height="27" rx="13.5"></rect>
                </g>
                <path d="M18.4999325,12.3750281 L20.7499212,12.3750281 L20.7499212,10.1250394 L18.4999325,10.1250394 L18.4999325,12.3750281 Z M15.1249944,12.3750281 L17.3749831,12.3750281 L17.3749831,10.1250394 L15.1249944,10.1250394 L15.1249944,12.3750281 Z M11.7499662,12.3750281 L13.999955,12.3750281 L13.999955,10.1250394 L11.7499662,10.1250394 L11.7499662,12.3750281 Z M8.37502814,12.3750281 L10.6250169,12.3750281 L10.6250169,10.1250394 L8.37502814,10.1250394 L8.37502814,12.3750281 Z M23,10.1250394 L23,9 L5,9 L5,10.1250394 L7.24998874,10.1250394 L7.24998874,12.3750281 L5,12.3750281 L5,19.1249944 L7.24998874,19.1249944 C7.24998874,16.6396768 10.2720686,14.6250169 13.999955,14.6250169 C17.7279314,14.6250169 20.7499212,16.6397668 20.7499212,19.1249944 L23,19.1249944 L23,12.3750281 L21.8749606,12.3750281 L21.8749606,10.1250394 L23,10.1250394 Z" id="Fill-1" fill="#FFFFFF"></path>
            </g>
        </g>
    </g>
</svg>