<?xml version="1.0" encoding="UTF-8"?>
<svg width="32px" height="32px" viewBox="0 0 32 32" version="1.1" xmlns="http://www.w3.org/2000/svg" xmlns:xlink="http://www.w3.org/1999/xlink">
    <!-- Generator: Sketch 53 (72520) - https://sketchapp.com -->
    <title>医院</title>
    <desc>Created with Sketch.</desc>
    <defs>
        <rect id="path-1" x="0" y="0" width="28" height="28" rx="14"></rect>
        <filter x="-10.7%" y="-10.7%" width="121.4%" height="121.4%" filterUnits="objectBoundingBox" id="filter-2">
            <feMorphology radius="0.5" operator="dilate" in="SourceAlpha" result="shadowSpreadOuter1"></feMorphology>
            <feOffset dx="0" dy="0" in="shadowSpreadOuter1" result="shadowOffsetOuter1"></feOffset>
            <feGaussianBlur stdDeviation="0.5" in="shadowOffsetOuter1" result="shadowBlurOuter1"></feGaussianBlur>
            <feComposite in="shadowBlurOuter1" in2="SourceAlpha" operator="out" result="shadowBlurOuter1"></feComposite>
            <feColorMatrix values="0 0 0 0 0   0 0 0 0 0   0 0 0 0 0  0 0 0 0.26 0" type="matrix" in="shadowBlurOuter1"></feColorMatrix>
        </filter>
    </defs>
    <g id="其他图标" stroke="none" stroke-width="1" fill="none" fill-rule="evenodd">
        <g id="应急保障资源" transform="translate(-977.000000, -85.000000)">
            <g id="医院" transform="translate(979.000000, 87.000000)">
                <g id="矩形">
                    <use fill="black" fill-opacity="1" filter="url(#filter-2)" xlink:href="#path-1"></use>
                    <rect stroke="#FFFFFF" stroke-width="1" stroke-linejoin="square" fill="#9D0A0A" fill-rule="evenodd" x="0.5" y="0.5" width="27" height="27" rx="13.5"></rect>
                </g>
                <path d="M5.09746056,13.4501284 L8.49973505,10.0830718 C8.74316227,9.84045979 9.1378959,9.84045979 9.38132312,10.0830718 L11.5728203,12.2665797 L8.649411,12.2665797 L8.649411,15.5177108 L11.8597807,15.5177108 L9.38132312,17.9872009 C9.1378959,18.2296499 8.74316227,18.2296499 8.49973505,17.9872009 L5.09746056,14.629764 C5.0979497,14.6302531 5.68947948,14.1569315 5.68947948,14.0400277 C5.68947948,13.912689 5.07561244,13.4718135 5.09746056,13.4501284 M10.0057881,8.86593568 L13.3852362,5.46838952 C13.4070843,5.44670444 13.8495903,6.0595932 13.9772551,6.0595932 C14.0948111,6.0595932 14.5697632,5.46887865 14.569274,5.46838952 L17.9389394,8.86593568 C18.1823666,9.10887376 18.1823666,9.5029552 17.9389394,9.74605633 L15.7533119,11.928749 L15.7533119,8.42408185 L12.2013614,8.42408185 L12.2013614,11.9383687 L10.0057881,9.74605633 C9.7623609,9.5029552 9.7623609,9.10887376 10.0057881,8.86593568 M19.4547752,10.0830718 L22.8570497,13.4501284 C22.8788978,13.4718135 22.2651938,13.912689 22.2651938,14.0400277 C22.2651938,14.1569315 22.8567236,14.6302531 22.8570497,14.629764 L19.4547752,17.9872009 C19.211348,18.2296499 18.8167774,18.2296499 18.5733502,17.9872009 L16.0948926,15.5177108 L19.3052623,15.5177108 L19.3052623,12.2665797 L16.38169,12.2665797 L18.5733502,10.0830718 C18.8167774,9.84045979 19.211348,9.84045979 19.4547752,10.0830718 M17.9399177,19.2139567 L14.5679697,22.6115029 C14.5461216,22.633188 14.1045938,22.0202992 13.9772551,22.0202992 C13.8600253,22.0202992 13.3862145,22.6110137 13.3867036,22.6115029 L10.0243753,19.2139567 C9.78143725,18.9710186 9.78143725,18.5769372 10.0243753,18.3338361 L12.2013614,16.1550565 L12.2013614,19.3602087 L15.7533119,19.3602087 L15.7533119,16.1454368 L17.9399177,18.3338361 C18.1828557,18.5769372 18.1828557,18.9710186 17.9399177,19.2139567 M4,14.6067745 L13.3930624,24.0016305 C13.6159459,23.6191253 13.8562752,23.2074349 13.8825256,23.1632495 C13.9258957,23.0903681 14.0291037,23.0890637 14.0724738,23.1632495 C14.1075286,23.2235764 14.3429666,23.6276036 14.5611218,24.0021196 L24,14.5614478 C23.6259732,14.3436188 23.2224351,14.1085069 23.1622712,14.0734521 C23.0880854,14.0300819 23.0893898,13.926874 23.1622712,13.8835039 C23.2064566,13.8572535 23.6171687,13.6174133 23.9993478,13.3946929 L14.6064485,4 C14.3768801,4.39408144 14.1099743,4.85223984 14.0724738,4.91664289 C14.0291037,4.99082868 13.9258957,4.98952431 13.8825256,4.91664289 C13.8544817,4.86952268 13.5820324,4.40288591 13.3477357,4.00048914 C11.4643949,5.88415603 5.88350385,11.4660254 4.00048914,13.3493662 C4.40272286,13.5834998 4.86854441,13.85546 4.91566462,13.8835039 C4.98854604,13.926874 4.98968736,14.0300819 4.91566462,14.0734521 C4.85126157,14.1109526 4.3939184,14.3775323 4,14.6067745" id="Fill-1" fill="#FFFFFF"></path>
            </g>
        </g>
    </g>
</svg>