<?xml version="1.0" encoding="UTF-8"?>
<svg width="32px" height="32px" viewBox="0 0 32 32" version="1.1" xmlns="http://www.w3.org/2000/svg" xmlns:xlink="http://www.w3.org/1999/xlink">
    <!-- Generator: Sketch 53 (72520) - https://sketchapp.com -->
    <title>急救中心（站）</title>
    <desc>Created with Sketch.</desc>
    <defs>
        <rect id="path-1" x="0" y="0" width="28" height="28" rx="14"></rect>
        <filter x="-10.7%" y="-10.7%" width="121.4%" height="121.4%" filterUnits="objectBoundingBox" id="filter-2">
            <feMorphology radius="0.5" operator="dilate" in="SourceAlpha" result="shadowSpreadOuter1"></feMorphology>
            <feOffset dx="0" dy="0" in="shadowSpreadOuter1" result="shadowOffsetOuter1"></feOffset>
            <feGaussianBlur stdDeviation="0.5" in="shadowOffsetOuter1" result="shadowBlurOuter1"></feGaussianBlur>
            <feComposite in="shadowBlurOuter1" in2="SourceAlpha" operator="out" result="shadowBlurOuter1"></feComposite>
            <feColorMatrix values="0 0 0 0 0   0 0 0 0 0   0 0 0 0 0  0 0 0 0.26 0" type="matrix" in="shadowBlurOuter1"></feColorMatrix>
        </filter>
    </defs>
    <g id="其他图标" stroke="none" stroke-width="1" fill="none" fill-rule="evenodd">
        <g id="应急保障资源" transform="translate(-977.000000, -36.000000)">
            <g id="急救中心（站）" transform="translate(979.000000, 38.000000)">
                <g id="矩形">
                    <use fill="black" fill-opacity="1" filter="url(#filter-2)" xlink:href="#path-1"></use>
                    <rect stroke="#FFFFFF" stroke-width="1" stroke-linejoin="square" fill="#9D0A0A" fill-rule="evenodd" x="0.5" y="0.5" width="27" height="27" rx="13.5"></rect>
                </g>
                <path d="M15.3126354,10.2627746 L15.3528882,9.1529482 C15.3531805,9.14489017 15.3533267,9.13682751 15.3533267,9.12876418 C15.3533267,8.76026559 15.0545995,8.46153846 14.686101,8.46153846 C14.6769356,8.46153846 14.6677712,8.46172829 14.6586137,8.46210783 C14.2923306,8.4772886 14.0077059,8.78652621 14.0228866,9.15280936 L14.0606936,10.0650199 C14.0473617,10.0647598 14.0345637,10.0646311 14.0223241,10.0646311 C13.3568306,10.0646311 12.4742279,10.6632325 12.1787155,11.0471687 C11.8832032,11.431105 11.5784748,12.0442187 11.7692679,12.5628286 C11.9600611,13.0814385 12.793293,12.5430919 13.0702415,12.1044736 C13.2822681,11.7686757 13.756258,11.3273374 14.1052,11.138874 L14.1708872,12.7237801 C13.2733134,13.0459808 12.3592484,13.4263552 12.3592484,14 C12.3592484,14.6731727 13.4275623,15.185043 14.2879045,15.5471847 L14.3267132,16.4835648 C13.5588123,16.7066318 12.6661863,16.9830687 12.8234592,17.3422364 C13.0567463,17.8749998 13.4554325,18.106479 14.4073523,18.4292336 L14.4723054,19.9964285 C14.4777333,20.127392 14.5854837,20.2307692 14.7165597,20.2307692 C14.8474464,20.2307692 14.9548586,20.1271822 14.9596027,19.9963815 L15.0093036,18.6260581 C16.1533198,19.0113168 15.7307263,19.1782905 15.8870647,18.8777491 C15.9536025,18.7498382 15.5361854,18.5303759 15.0214762,18.2904414 L15.0743065,16.8338379 C15.6648756,16.6803802 16.1795604,16.4618805 16.1795604,16.0789737 C16.1795604,15.7098101 15.7011584,15.3830905 15.1375825,15.0892292 L15.2111392,13.0611683 C16.1135471,12.6931378 17.0044888,12.2427218 17.0044888,11.6486727 C17.0044888,10.9125875 16.1379967,10.4843751 15.3126354,10.2627746 Z M15.2785408,11.2028121 C15.60457,11.3181271 15.8870647,11.5125174 15.8870647,11.832572 C15.8870647,12.0132723 15.6221673,12.1730679 15.2375482,12.3330351 L15.2785408,11.2028121 Z M15.1083328,15.895685 C15.260813,15.9692663 15.3533112,16.0302642 15.3533112,16.0789737 C15.3533112,16.1310651 15.254426,16.1865162 15.0956161,16.2463006 L15.1083328,15.895685 Z M14.389596,18.0008065 C13.8385327,17.746641 13.3471901,17.5006697 13.3471901,17.3422364 C13.3471901,17.1932917 13.802441,17.1051058 14.3479106,16.9950182 L14.389596,18.0008065 Z M14.251103,14.6592349 C13.749623,14.4184758 13.3471901,14.201196 13.3471901,14 C13.3471901,13.8325339 13.7072037,13.6571716 14.2013248,13.4581809 L14.251103,14.6592349 Z M11.5784748,9.80310766 L11.5784748,5 L16.4215252,5 L16.4215252,9.62865352 L20.3443324,7.17584085 L22.9107581,11.2856124 L18.7009271,13.9178924 L23,16.4015538 L20.5784748,20.5984462 L16.4215252,18.1968923 L16.4215252,23 L11.5784748,23 L11.5784748,18.3713465 L7.65566765,20.8241591 L5.0892419,16.7143876 L9.29907293,14.0821076 L5,11.5984462 L7.42152524,7.40155383 L11.5784748,9.80310766 Z" id="合并形状" fill="#FFFFFF"></path>
            </g>
        </g>
    </g>
</svg>