<?xml version="1.0" encoding="UTF-8"?>
<svg width="32px" height="32px" viewBox="0 0 32 32" version="1.1" xmlns="http://www.w3.org/2000/svg" xmlns:xlink="http://www.w3.org/1999/xlink">
    <!-- Generator: Sketch 53 (72520) - https://sketchapp.com -->
    <title>采血供血机构</title>
    <desc>Created with Sketch.</desc>
    <defs>
        <rect id="path-1" x="0" y="0" width="28" height="28" rx="14"></rect>
        <filter x="-10.7%" y="-10.7%" width="121.4%" height="121.4%" filterUnits="objectBoundingBox" id="filter-2">
            <feMorphology radius="0.5" operator="dilate" in="SourceAlpha" result="shadowSpreadOuter1"></feMorphology>
            <feOffset dx="0" dy="0" in="shadowSpreadOuter1" result="shadowOffsetOuter1"></feOffset>
            <feGaussianBlur stdDeviation="0.5" in="shadowOffsetOuter1" result="shadowBlurOuter1"></feGaussianBlur>
            <feComposite in="shadowBlurOuter1" in2="SourceAlpha" operator="out" result="shadowBlurOuter1"></feComposite>
            <feColorMatrix values="0 0 0 0 0   0 0 0 0 0   0 0 0 0 0  0 0 0 0.26 0" type="matrix" in="shadowBlurOuter1"></feColorMatrix>
        </filter>
    </defs>
    <g id="其他图标" stroke="none" stroke-width="1" fill="none" fill-rule="evenodd">
        <g id="应急保障资源" transform="translate(-977.000000, -135.000000)">
            <g id="采血供血机构" transform="translate(979.000000, 137.000000)">
                <g id="矩形">
                    <use fill="black" fill-opacity="1" filter="url(#filter-2)" xlink:href="#path-1"></use>
                    <rect stroke="#FFFFFF" stroke-width="1" stroke-linejoin="square" fill="#9D0A0A" fill-rule="evenodd" x="0.5" y="0.5" width="27" height="27" rx="13.5"></rect>
                </g>
                <path d="M12.4707026,18.5476141 L13.117686,18.5476141 C13.4751217,18.5476141 13.7647935,18.2628436 13.7647935,17.9116634 L13.7647935,16.9575545 L14.8001158,16.9575545 C15.1574274,16.9575545 15.4470992,16.6727841 15.4470992,16.3216039 L15.4470992,15.6854095 C15.4470992,15.3341073 15.1574274,15.0494588 14.8001158,15.0494588 L13.7647935,15.0494588 L13.7647935,14.09535 C13.7647935,13.7440478 13.4751217,13.4592774 13.117686,13.4592774 L12.4707026,13.4592774 C12.1133911,13.4592774 11.8237192,13.7440478 11.8237192,14.09535 L11.8237192,15.0494588 L10.9178432,15.0494588 C10.5605316,15.0494588 10.2708598,15.3341073 10.2708598,15.6854095 L10.2708598,16.3216039 C10.2708598,16.6727841 10.5605316,16.9575545 10.9178432,16.9575545 L11.8237192,16.9575545 L11.8237192,17.9116634 C11.8237192,18.2629655 12.1133911,18.5476141 12.4707026,18.5476141 M18.8005408,5.78851062 C17.4120025,7.15094876 15.1010816,10.4597445 15.1010816,12.4361998 C15.1010816,14.412777 16.7574485,16.0153873 18.8005408,16.0153873 C20.8437573,16.0153873 22.5,14.412777 22.5,12.4361998 C22.5,10.4597445 20.2453008,7.18616427 18.8005408,5.78851062 M18.2399377,16.8934599 C17.6942278,19.5154923 15.8688237,21.3883725 12.8704597,21.3883725 C9.65986822,21.3883725 7.69000053,19.2429071 7.57743311,16.2795646 C7.46523803,13.3218273 10.6297848,9.29385523 12.812004,7.12962449 C13.5214145,7.8235772 14.1737346,8.60575146 14.984915,9.6160345 C15.1729411,9.29214928 15.6162606,8.52788741 15.8317149,8.24847853 C14.8176153,6.99911995 13.7610702,5.873564 12.8704597,5 C10.2912138,7.56500518 6,12.5425775 6,16.2631144 C6,19.9838951 9.07618073,23 12.8704597,23 C16.4746027,23 19.4284113,20.2779263 19.7158492,16.8166925 C19.0207113,17.0205525 17.7155746,16.8186422 18.2399377,16.8934599" id="Fill-1-Copy-4" fill="#FFFFFF"></path>
            </g>
        </g>
    </g>
</svg>