<?xml version="1.0" encoding="UTF-8"?>
<svg width="32px" height="32px" viewBox="0 0 32 32" version="1.1" xmlns="http://www.w3.org/2000/svg" xmlns:xlink="http://www.w3.org/1999/xlink">
    <!-- Generator: Sketch 53 (72520) - https://sketchapp.com -->
    <title>供水设施</title>
    <desc>Created with Sketch.</desc>
    <defs>
        <rect id="path-1" x="0" y="0" width="28" height="28" rx="14"></rect>
        <filter x="-10.7%" y="-10.7%" width="121.4%" height="121.4%" filterUnits="objectBoundingBox" id="filter-2">
            <feMorphology radius="0.5" operator="dilate" in="SourceAlpha" result="shadowSpreadOuter1"></feMorphology>
            <feOffset dx="0" dy="0" in="shadowSpreadOuter1" result="shadowOffsetOuter1"></feOffset>
            <feGaussianBlur stdDeviation="0.5" in="shadowOffsetOuter1" result="shadowBlurOuter1"></feGaussianBlur>
            <feComposite in="shadowBlurOuter1" in2="SourceAlpha" operator="out" result="shadowBlurOuter1"></feComposite>
            <feColorMatrix values="0 0 0 0 0   0 0 0 0 0   0 0 0 0 0  0 0 0 0.26 0" type="matrix" in="shadowBlurOuter1"></feColorMatrix>
        </filter>
    </defs>
    <g id="其他图标" stroke="none" stroke-width="1" fill="none" fill-rule="evenodd">
        <g id="应急保障资源" transform="translate(-972.000000, -650.000000)">
            <g id="供水设施" transform="translate(974.000000, 652.000000)">
                <g id="分组-4">
                    <g id="矩形">
                        <use fill="black" fill-opacity="1" filter="url(#filter-2)" xlink:href="#path-1"></use>
                        <rect stroke="#FFFFFF" stroke-width="1" stroke-linejoin="square" fill="#0E9D99" fill-rule="evenodd" x="0.5" y="0.5" width="27" height="27" rx="13.5"></rect>
                    </g>
                    <path d="M8.91552698,10.1511198 C9.19997393,10.1511198 9.43111152,10.0088963 9.43111152,9.51112499 C9.38214685,9.15881395 9.19708471,8.83965291 8.91552698,8.62215766 C8.63405614,8.83965291 8.44897228,9.15881395 8.4000076,9.51112499 C8.4000076,9.99998968 8.61335368,10.1511198 8.91552698,10.1511198 M11.5910749,10.1511198 C11.8755219,10.1511198 12.1066595,10.0088963 12.1066595,9.51112499 C12.0576948,9.15881395 11.8726327,8.83965291 11.5910749,8.62215766 C11.3096041,8.83965291 11.1245202,9.15881395 11.0755773,9.51112499 C11.0666489,9.99998968 11.279995,10.1511198 11.5910749,10.1511198 M10.2577977,10.1511198 C10.5422447,10.1511198 10.7732954,10.0088963 10.7732954,9.51112499 C10.7243524,9.15881395 10.5392685,8.83965291 10.2577977,8.62215766 C9.97632686,8.83965291 9.791243,9.15881395 9.74221316,9.51112499 C9.74221316,9.99998968 9.97335075,10.1511198 10.2577977,10.1511198 M21.4400344,8 L14.8356037,8 C14.3467607,8 13.9467015,8.28444695 13.9467015,8.63999479 C13.9467015,8.99554262 14.3467607,9.27998957 14.8356037,9.27998957 L19.9912101,9.27998957 C20.4800531,9.27998957 20.8800906,9.40446499 20.8800906,9.55559508 L20.8800906,12.3378052 C20.8800906,12.8266699 20.7378454,13.1644914 20.5600606,13.0933905 L20.4000239,12.9778 C19.6601447,12.393048 18.6154853,12.393048 17.8756061,12.9778 C17.4157639,13.3647599 16.7442918,13.3647599 16.2844497,12.9778 C15.5457652,12.389746 14.4987163,12.389746 13.7600318,12.9778 C13.3001897,13.3647599 12.6287176,13.3647599 12.1688754,12.9778 C11.430191,12.389746 10.3832072,12.389746 9.6444576,12.9778 C9.42620202,13.1702698 9.14429671,13.2748031 8.85333272,13.2711536 C8.56217321,13.2757372 8.27994205,13.1710301 8.06220784,12.9778 L7.83995514,12.8177633 C7.40277056,12.6080885 7.12588336,12.1649516 7.12885948,11.6799972 L7.12885948,8 L6.55996557,8 C6.24888565,8 6,8.40001575 6,8.88888044 L6,19.5555978 C6,20.0465045 6.39797374,20.4444782 6.88888044,20.4444782 L21.1111196,20.4444782 C21.6020263,20.4444782 22,20.0465045 22,19.5555978 L22,8.88888044 C22,8.40001575 21.7422946,8 21.4400344,8 M7,14.5038724 C8.20982172,14.8372057 9.01268018,14.8372057 9.40857537,14.5038724 C10.0024182,14.0038724 11.2535765,13.8380431 11.948453,14.5038724 C12.6433296,15.1697016 13.5980245,15.0551622 13.982271,14.5220118 C14.3665175,13.9888615 15.5158811,13.6800538 16.4784199,14.5220118 C17.4409587,15.3639699 18.2666912,15.2953875 18.6296725,14.799294 C18.9926538,14.3032004 20.687162,14.2084507 20.8957207,14.5038724 C21.0347598,14.7008201 21.0347598,14.9353059 20.8957207,15.2073298 C19.9447801,15.0321194 19.2651048,15.1147728 18.8566948,15.4552901 C18.2440798,15.9660659 17.1985646,15.9660659 16.4784199,15.4552901 C15.7582752,14.9445142 15.1358473,14.6361284 14.4058186,15.2073298 C13.6757898,15.7785312 12.724602,16.2780004 11.948453,15.4552901 C11.1723041,14.6325797 9.9704886,14.7455674 9.40857537,15.2073298 C8.84666214,15.6690922 7,15.6690922 7,15.1072102 C7,14.7326223 7,14.5315097 7,14.5038724 Z M7,16.5038724 C8.20982172,16.8372057 9.01268018,16.8372057 9.40857537,16.5038724 C10.0024182,16.0038724 11.2535765,15.8380431 11.948453,16.5038724 C12.6433296,17.1697016 13.5980245,17.0551622 13.982271,16.5220118 C14.3665175,15.9888615 15.5158811,15.6800538 16.4784199,16.5220118 C17.4409587,17.3639699 18.2666912,17.2953875 18.6296725,16.799294 C18.9926538,16.3032004 20.687162,16.2084507 20.8957207,16.5038724 C21.0347598,16.7008201 21.0347598,16.9353059 20.8957207,17.2073298 C19.9447801,17.0321194 19.2651048,17.1147728 18.8566948,17.4552901 C18.2440798,17.9660659 17.1985646,17.9660659 16.4784199,17.4552901 C15.7582752,16.9445142 15.1358473,16.6361284 14.4058186,17.2073298 C13.6757898,17.7785312 12.724602,18.2780004 11.948453,17.4552901 C11.1723041,16.6325797 9.9704886,16.7455674 9.40857537,17.2073298 C8.84666214,17.6690922 7,17.6690922 7,17.1072102 C7,16.7326223 7,16.5315097 7,16.5038724 Z M7,18.5038724 C8.20982172,18.8372057 9.01268018,18.8372057 9.40857537,18.5038724 C10.0024182,18.0038724 11.2535765,17.8380431 11.948453,18.5038724 C12.6433296,19.1697016 13.5980245,19.0551622 13.982271,18.5220118 C14.3665175,17.9888615 15.5158811,17.6800538 16.4784199,18.5220118 C17.4409587,19.3639699 18.2666912,19.2953875 18.6296725,18.799294 C18.9926538,18.3032004 20.687162,18.2084507 20.8957207,18.5038724 C21.0347598,18.7008201 21.0347598,18.9353059 20.8957207,19.2073298 C19.9447801,19.0321194 19.2651048,19.1147728 18.8566948,19.4552901 C18.2440798,19.9660659 17.1985646,19.9660659 16.4784199,19.4552901 C15.7582752,18.9445142 15.1358473,18.6361284 14.4058186,19.2073298 C13.6757898,19.7785312 12.724602,20.2780004 11.948453,19.4552901 C11.1723041,18.6325797 9.9704886,18.7455674 9.40857537,19.2073298 C8.84666214,19.6690922 7,19.6690922 7,19.1072102 C7,18.7326223 7,18.5315097 7,18.5038724 Z" id="Fill-3" fill="#FFFFFF"></path>
                </g>
            </g>
        </g>
    </g>
</svg>