<?xml version="1.0" encoding="UTF-8"?>
<svg width="32px" height="32px" viewBox="0 0 32 32" version="1.1" xmlns="http://www.w3.org/2000/svg" xmlns:xlink="http://www.w3.org/1999/xlink">
    <!-- Generator: Sketch 53 (72520) - https://sketchapp.com -->
    <title>供热设施</title>
    <desc>Created with Sketch.</desc>
    <defs>
        <rect id="path-1" x="0" y="0" width="28" height="28" rx="14"></rect>
        <filter x="-10.7%" y="-10.7%" width="121.4%" height="121.4%" filterUnits="objectBoundingBox" id="filter-2">
            <feMorphology radius="0.5" operator="dilate" in="SourceAlpha" result="shadowSpreadOuter1"></feMorphology>
            <feOffset dx="0" dy="0" in="shadowSpreadOuter1" result="shadowOffsetOuter1"></feOffset>
            <feGaussianBlur stdDeviation="0.5" in="shadowOffsetOuter1" result="shadowBlurOuter1"></feGaussianBlur>
            <feComposite in="shadowBlurOuter1" in2="SourceAlpha" operator="out" result="shadowBlurOuter1"></feComposite>
            <feColorMatrix values="0 0 0 0 0   0 0 0 0 0   0 0 0 0 0  0 0 0 0.26 0" type="matrix" in="shadowBlurOuter1"></feColorMatrix>
        </filter>
    </defs>
    <g id="其他图标" stroke="none" stroke-width="1" fill="none" fill-rule="evenodd">
        <g id="应急保障资源" transform="translate(-972.000000, -730.000000)">
            <g id="供热设施" transform="translate(974.000000, 732.000000)">
                <g id="矩形">
                    <use fill="black" fill-opacity="1" filter="url(#filter-2)" xlink:href="#path-1"></use>
                    <rect stroke="#FFFFFF" stroke-width="1" stroke-linejoin="square" fill="#0E9D99" fill-rule="evenodd" x="0.5" y="0.5" width="27" height="27" rx="13.5"></rect>
                </g>
                <path d="M21.3815097,15.8126784 L21.0360969,15.8126784 L21.0360969,15.0878037 L21.3815097,15.0878037 C21.5267506,15.0878037 21.7269225,15.2868672 21.7269225,15.4513051 C21.7269225,15.6158539 21.5283688,15.8126784 21.3815097,15.8126784 L21.3815097,15.8126784 Z M16.8887936,15.8126784 L16.1974803,15.8126784 L16.1883474,15.0860746 L16.8883059,15.0878037 L16.8883059,15.8126784 L16.8887936,15.8126784 Z M12.3933066,15.8126784 L11.7018825,15.8126784 L11.7018825,15.0878037 L12.4017967,15.0860746 L12.3933066,15.8126784 Z M7.74577327,15.6856369 L7.30111692,15.6856369 C7.1559203,15.6856369 7.0368369,15.5506373 7.0368369,15.3855787 C7.0368369,15.219323 7.15365922,15.0866953 7.30111692,15.0866953 L7.74577327,15.0866953 L7.74577327,15.6856369 Z M21.2890272,13.9143268 L20.844393,13.9143268 L20.844393,13.7265909 C20.844393,12.6273083 19.9969989,11.7396582 18.9534009,11.7396582 C17.9109335,11.7396582 17.0618103,12.6290374 17.0618103,13.7265909 L17.0618103,13.9143268 L16.1883474,13.9143268 L16.1883474,13.7265909 C16.1883474,12.6273083 15.3409754,11.7396582 14.2967568,11.7396582 C13.2548879,11.7396582 12.4057869,12.6290374 12.4057869,13.7265909 L12.4057869,13.9143268 L11.530085,13.9143268 L11.530085,13.7265909 C11.530085,12.6273083 10.6826909,11.7396582 9.63909291,11.7396582 C8.59713534,11.7396582 7.74801218,12.6290374 7.74801218,13.7265909 L7.74801218,13.9143268 L7.30284598,13.9143268 C6.58138502,13.9143268 6,14.5738741 6,15.3850023 C6,16.1972167 6.58311408,16.8562542 7.30284598,16.8562542 L7.90180977,16.9005004 L7.90180977,20.8883977 C7.90180977,21.9875916 8.59489643,23 9.63909291,23 C11.08534,23 11.7042101,21.9875916 11.7042101,20.8883977 L11.7042101,16.9005004 L12.4040578,16.9118501 L12.4040578,21.0125575 C12.4040578,22.1118622 13.2514297,23 14.2951164,23 C15.337606,23 16.1861084,22.1106208 16.1861084,21.0125575 L16.1861084,16.8562542 L16.8616163,16.8687345 L16.885934,20.8883977 C16.885934,21.9875916 17.9052365,23 18.9510512,23 C19.9936516,23 21.0337471,21.9875916 21.0337471,20.8883977 L21.0337471,16.9005004 L21.2872981,16.8562542 C22.0082492,16.8562542 22.5901441,16.1972167 22.5901441,15.3850023 C22.5901441,14.5738741 22.0070744,13.9143268 21.2890272,13.9143268 L21.2890272,13.9143268 Z M9.58236648,11.1084187 C9.68325042,11.1724825 9.78994223,11.2360365 9.91022267,11.2854034 C10.1512047,11.3846469 10.4705486,11.3494894 10.6389767,11.2161967 C10.8041019,11.0868498 10.7649542,10.9201507 10.5397332,10.7800526 C10.4779082,10.7414148 10.4138222,10.7057696 10.3553889,10.6648707 C9.40201232,10.03587 9.29704957,9.26852251 10.0627789,8.54362559 C10.328788,8.29175932 10.6123758,8.04567875 10.8568382,7.78702926 C11.1863126,7.43416821 11.4291124,7.06042545 11.4222626,6.63673948 C11.4222626,6.0094679 10.8551091,5.5449052 10.2770935,5.09116021 C10.1109265,4.96015074 9.743967,4.97945857 9.54151192,5.09116021 C9.3429583,5.20122147 9.32537954,5.35544024 9.49726574,5.51659741 C9.64246236,5.65150834 9.79167129,5.78597594 9.93853047,5.92095338 C10.4223123,6.36224028 10.4649181,6.8267143 10.0644414,7.29240754 C9.80579194,7.59583523 9.50063519,7.88452159 9.18701048,8.16646905 C8.10936335,9.13800072 8.25285308,10.2667216 9.58236648,11.1084187 L9.58236648,11.1084187 Z M18.2137627,11.2525069 C18.4724122,11.3908538 18.8161402,11.3659154 19.0128761,11.2173494 C19.1956244,11.0789803 19.1569644,10.9264019 18.9018173,10.7720945 C17.7231089,10.0648207 17.6147767,9.26393385 18.5580228,8.43074907 C18.8802263,8.14543216 19.194383,7.85109311 19.4354537,7.5374684 C20.201183,6.53800578 19.7298593,5.93341147 18.6731825,5.10027102 C18.4961978,4.9618798 18.125226,4.97436006 17.9165419,5.09339912 C17.7192075,5.20518944 17.7039119,5.35379985 17.8791454,5.51710726 C18.0248741,5.65210687 18.1751914,5.78650795 18.3204102,5.92146323 C18.7848842,6.35029204 18.8489702,6.80401486 18.46789,7.26121797 C18.2109917,7.57147323 17.8989631,7.86357337 17.584762,8.15279174 C17.1343643,8.56235706 16.847407,9.00016368 16.8354588,9.56170885 C16.8831631,10.2167784 17.3601174,10.7965008 18.2137627,11.2525069 L18.2137627,11.2525069 Z M13.9337652,11.2059997 C14.2371929,11.3744277 14.5775072,11.3852233 14.8038366,11.230938 C15.0148705,11.0891108 14.9632647,10.9240522 14.6501498,10.7329468 C13.5900815,10.089227 13.4573429,9.28834018 14.2831681,8.51751236 C14.5083005,8.30656716 14.7511225,8.10291504 14.9604051,7.88625064 C15.3290272,7.50505963 15.6018638,7.09955095 15.6143441,6.75701992 C15.6160732,6.18811517 15.0295896,5.39059777 14.4742735,5.09056169 C14.2673184,4.97883788 13.9354943,4.97883788 13.7335712,5.09056169 C13.5260176,5.20572146 13.5067098,5.34584174 13.6842265,5.51260727 C13.8294231,5.64873742 13.9820015,5.78025674 14.1272203,5.91636472 C14.6076327,6.35765162 14.6620094,6.82221432 14.2598702,7.29016863 C13.9995803,7.5930643 13.6944235,7.88050928 13.3807988,8.16247891 C12.2498391,9.17490948 12.4658828,10.3892631 13.9337652,11.2059997 L13.9337652,11.2059997 Z" id="Fill-1" fill="#FFFFFF"></path>
            </g>
        </g>
    </g>
</svg>