<?xml version="1.0" encoding="UTF-8"?>
<svg width="32px" height="32px" viewBox="0 0 32 32" version="1.1" xmlns="http://www.w3.org/2000/svg" xmlns:xlink="http://www.w3.org/1999/xlink">
    <!-- Generator: Sketch 53 (72520) - https://sketchapp.com -->
    <title>供电设施</title>
    <desc>Created with Sketch.</desc>
    <defs>
        <rect id="path-1" x="0" y="0" width="28" height="28" rx="14"></rect>
        <filter x="-10.7%" y="-10.7%" width="121.4%" height="121.4%" filterUnits="objectBoundingBox" id="filter-2">
            <feMorphology radius="0.5" operator="dilate" in="SourceAlpha" result="shadowSpreadOuter1"></feMorphology>
            <feOffset dx="0" dy="0" in="shadowSpreadOuter1" result="shadowOffsetOuter1"></feOffset>
            <feGaussianBlur stdDeviation="0.5" in="shadowOffsetOuter1" result="shadowBlurOuter1"></feGaussianBlur>
            <feComposite in="shadowBlurOuter1" in2="SourceAlpha" operator="out" result="shadowBlurOuter1"></feComposite>
            <feColorMatrix values="0 0 0 0 0   0 0 0 0 0   0 0 0 0 0  0 0 0 0.26 0" type="matrix" in="shadowBlurOuter1"></feColorMatrix>
        </filter>
    </defs>
    <g id="其他图标" stroke="none" stroke-width="1" fill="none" fill-rule="evenodd">
        <g id="应急保障资源" transform="translate(-972.000000, -531.000000)">
            <g id="供电设施" transform="translate(974.000000, 533.000000)">
                <g id="矩形">
                    <use fill="black" fill-opacity="1" filter="url(#filter-2)" xlink:href="#path-1"></use>
                    <rect stroke="#FFFFFF" stroke-width="1" stroke-linejoin="square" fill="#0E9D99" fill-rule="evenodd" x="0.5" y="0.5" width="27" height="27" rx="13.5"></rect>
                </g>
                <path d="M22.8527018,10.0489063 C22.7560616,9.92733272 22.6422757,9.86596144 22.5121233,9.86596144 L20.0236405,9.86596144 L20.0236405,5.73187509 C20.0236405,5.53724046 19.9254416,5.36598537 19.7306027,5.21986326 C19.5453596,5.07640247 19.2891962,4.99684898 19.0229477,5.00009562 C18.7470558,5.00009562 18.510911,5.07374116 18.3160721,5.21986326 C18.1212332,5.36598537 18.0230343,5.53724046 18.0230343,5.73187509 L18.0230343,9.86596144 L10.0245064,9.86596144 L10.0245064,5.73187509 C10.0245064,5.53724046 9.92708696,5.36598537 9.73224801,5.21986326 C9.54700491,5.07640248 9.29084152,4.99684899 9.02459302,5.00009562 C8.74792172,5.00009562 8.5125563,5.07374116 8.31771736,5.21986326 C8.12287841,5.36598537 8.02467959,5.53724046 8.02467959,5.73187509 L8.02467959,9.86596144 L5.53697608,9.86596144 C5.40682369,9.86596144 5.28446483,9.92733272 5.17067891,10.0489063 C5.05689298,10.1710644 5,10.292638 5,10.414796 L5,12.2074219 C5,12.6709212 5.26030483,13.2320301 5.78091444,13.8907485 C6.29595435,14.5435272 6.87450759,15.1669199 7.51186354,15.7558509 C8.14625913,16.3415083 8.72298235,17.0545841 9.24359197,17.8962474 C9.76420158,18.7379107 10.023727,19.5485961 10.023727,20.3288881 L10.023727,21.4996183 L12.0243332,21.4996183 L12.0243332,23 L16.0239868,23 L16.0239868,21.4996183 L18.0238137,21.4996183 L18.0238137,20.3288881 C18.0238137,19.5485961 18.2841185,18.7379107 18.8047281,17.8962474 C19.3245584,17.0545841 19.8942674,16.3415083 20.5115172,15.7558509 C21.1359806,15.1634493 21.7064643,14.5401395 22.2190856,13.890164 C22.7396952,13.2320301 23,12.6709212 23,12.2074219 L23,10.414796 C23,10.292638 22.9509006,10.1704799 22.8534811,10.0489063 L22.8527018,10.0489063 Z M16.7558019,14.8779494 C14.0888466,17.4631415 12.7234153,18.7805783 12.6579495,18.8290908 C12.6259959,18.8781879 12.6010565,18.8898776 12.58469,18.8659136 C12.5661985,18.8310245 12.5582147,18.7935022 12.5613093,18.7560298 L13.4871839,16.0124413 C13.5199169,15.9148318 13.4715968,15.8663192 13.3414444,15.8663192 L11.3899377,15.8663192 C11.2597853,15.8663192 11.2270523,15.8294965 11.2925182,15.7558509 C13.9586942,13.2191713 15.3249048,11.927452 15.3895913,11.8783549 C15.4223242,11.8538064 15.4464842,11.8415322 15.4628507,11.8415322 C15.4792172,11.8415322 15.4877901,11.8660807 15.4877901,11.9145933 L14.6094562,14.6219435 C14.5439903,14.6950045 14.5767233,14.7318273 14.7068756,14.7318273 L16.6583824,14.7318273 C16.8204884,14.7318273 16.8532214,14.7803398 16.7558019,14.8779494 L16.7558019,14.8779494 Z" id="形状" fill="#FFFFFF" fill-rule="nonzero"></path>
            </g>
        </g>
    </g>
</svg>