<?xml version="1.0" encoding="UTF-8"?>
<svg width="32px" height="32px" viewBox="0 0 32 32" version="1.1" xmlns="http://www.w3.org/2000/svg" xmlns:xlink="http://www.w3.org/1999/xlink">
    <!-- Generator: Sketch 53 (72520) - https://sketchapp.com -->
    <title>排水设施</title>
    <desc>Created with Sketch.</desc>
    <defs>
        <rect id="path-1" x="0" y="0" width="28" height="28" rx="14"></rect>
        <filter x="-10.7%" y="-10.7%" width="121.4%" height="121.4%" filterUnits="objectBoundingBox" id="filter-2">
            <feMorphology radius="0.5" operator="dilate" in="SourceAlpha" result="shadowSpreadOuter1"></feMorphology>
            <feOffset dx="0" dy="0" in="shadowSpreadOuter1" result="shadowOffsetOuter1"></feOffset>
            <feGaussianBlur stdDeviation="0.5" in="shadowOffsetOuter1" result="shadowBlurOuter1"></feGaussianBlur>
            <feComposite in="shadowBlurOuter1" in2="SourceAlpha" operator="out" result="shadowBlurOuter1"></feComposite>
            <feColorMatrix values="0 0 0 0 0   0 0 0 0 0   0 0 0 0 0  0 0 0 0.26 0" type="matrix" in="shadowBlurOuter1"></feColorMatrix>
        </filter>
    </defs>
    <g id="其他图标" stroke="none" stroke-width="1" fill="none" fill-rule="evenodd">
        <g id="应急保障资源" transform="translate(-972.000000, -770.000000)">
            <g id="排水设施" transform="translate(974.000000, 772.000000)">
                <g id="分组-4">
                    <g id="矩形">
                        <use fill="black" fill-opacity="1" filter="url(#filter-2)" xlink:href="#path-1"></use>
                        <rect stroke="#FFFFFF" stroke-width="1" stroke-linejoin="square" fill="#0E9D99" fill-rule="evenodd" x="0.5" y="0.5" width="27" height="27" rx="13.5"></rect>
                    </g>
                    <path d="M18.3899609,22.1708686 C17.9739432,22.1708686 17.5578569,22.0149106 17.1938556,21.7548509 L16.5177783,21.234823 C16.3096894,21.0787735 15.997659,21.0787735 15.7896615,21.234823 L15.1135841,21.7548509 C14.4375067,22.2749702 13.4493989,22.2749702 12.7733215,21.7548509 L12.0971527,21.234823 C11.8891553,21.0787735 11.5771248,21.0787735 11.3691274,21.234823 L10.69305,21.7548509 C10.0169726,22.2749702 9.02877338,22.2749702 8.352696,21.7548509 L7.67661861,21.234823 C7.46862117,21.0787735 7.15659073,21.0787735 6.94859329,21.234823 L6.0644956,21.9109004 C5.75241945,22.1189436 5.33637886,22.0668585 5.12835857,21.8068903 C4.92036113,21.4947913 4.97230906,21.0787735 5.23236872,20.8707532 L6.16850575,20.1946758 C6.84458314,19.6745565 7.83269097,19.6745565 8.50876835,20.1946758 L9.18482289,20.7147037 C9.39284318,20.8707532 9.70494219,20.8707532 9.91296248,20.7147037 L10.5890399,20.1946758 C11.2651173,19.6745565 12.2532022,19.6745565 12.9292796,20.1946758 L13.605357,20.7147037 C13.8133773,20.8707532 14.1254763,20.8707532 14.3335195,20.7147037 L15.0095968,20.1946758 C15.6856514,19.6745565 16.6737363,19.6745565 17.3498137,20.1946758 L18.0258911,20.7147037 C18.2339114,20.8707532 18.5460104,20.8707532 18.7540307,20.7147037 L19.430131,20.1946758 C20.1062083,19.6745565 21.0942705,19.6745565 21.7703479,20.1946758 L22.4464252,20.7147037 C22.7585242,20.922724 22.810495,21.3388332 22.5504354,21.6508408 C22.3424151,21.9628484 21.9263974,22.0149106 21.6143898,21.7548509 L20.9383124,21.234823 C20.7302007,21.0787735 20.4181931,21.0787735 20.2101956,21.234823 L19.5861805,21.7548509 C19.2220878,22.0149106 18.8059787,22.1708686 18.3899609,22.1708686 Z M18.3899609,19.6226086 C17.9739432,19.6226086 17.5578569,19.4665591 17.1938556,19.2065909 L16.5177783,18.6864716 C16.3096894,18.5305135 15.997659,18.5305135 15.7896615,18.6864716 L15.1135841,19.2065909 C14.4375067,19.7266188 13.4493989,19.7266188 12.7733215,19.2065909 L12.0971527,18.6864716 C11.8891553,18.5305135 11.5771248,18.5305135 11.3691274,18.6864716 L10.69305,19.2065909 C10.0169726,19.7266188 9.02877338,19.7266188 8.352696,19.2065909 L7.67661861,18.6864716 C7.46862117,18.5305135 7.15659073,18.5305135 6.94859329,18.6864716 L6.0644956,19.362549 C5.75241945,19.5705692 5.33637886,19.5185985 5.12835857,19.2585388 C4.92036113,18.9465312 4.97230906,18.5305135 5.23236872,18.3224018 L6.1164664,17.6463244 C6.79254378,17.1262965 7.78062876,17.1262965 8.45679756,17.6463244 L9.13287495,18.1664437 C9.34089524,18.3224018 9.65290283,18.3224018 9.86090027,18.1664437 L10.5369777,17.6463244 C11.213055,17.1262965 12.2012543,17.1262965 12.8773317,17.6463244 L13.5534091,18.1664437 C13.7614294,18.3224018 14.073437,18.3224018 14.2814344,18.1664437 L14.9575118,17.6463244 C15.633612,17.1262965 16.6218113,17.1262965 17.2978887,17.6463244 L17.9739432,18.1664437 C18.1819406,18.3224018 18.4939939,18.3224018 18.7019685,18.1664437 L19.3780459,17.6463244 C20.0541233,17.1262965 21.0423454,17.1262965 21.7184228,17.6463244 L22.3945002,18.1664437 C22.7064849,18.374464 22.7585242,18.7904817 22.4984874,19.1025807 C22.2904672,19.4145883 21.874358,19.4665591 21.5623504,19.2065909 L20.886273,18.6864716 C20.6782527,18.5305135 20.3662451,18.5305135 20.1582248,18.6864716 L19.482056,19.2065909 C19.2220878,19.4665591 18.8059787,19.6226086 18.3899609,19.6226086 Z M9.60084062,6 C7.46862117,6 5.70042581,7.76817251 5.70042581,9.90050623 L5.70042581,16.4012204 L5.70042581,16.3492497 C6.0644956,16.0892357 10.3967659,16.401289 10.864823,16.3492497 L10.864823,12.6558474 C10.864823,11.2516304 12.0089803,10.0555251 13.4651453,10.0555251 L23,9.90050623 L22.0754472,6 L9.60084062,6 Z" id="Fill-1" fill="#FFFFFF"></path>
                </g>
            </g>
        </g>
    </g>
</svg>