<?xml version="1.0" encoding="UTF-8"?>
<svg width="32px" height="32px" viewBox="0 0 32 32" version="1.1" xmlns="http://www.w3.org/2000/svg" xmlns:xlink="http://www.w3.org/1999/xlink">
    <!-- Generator: Sketch 53 (72520) - https://sketchapp.com -->
    <title>水利设施</title>
    <desc>Created with Sketch.</desc>
    <defs>
        <rect id="path-1" x="0" y="0" width="28" height="28" rx="14"></rect>
        <filter x="-10.7%" y="-10.7%" width="121.4%" height="121.4%" filterUnits="objectBoundingBox" id="filter-2">
            <feMorphology radius="0.5" operator="dilate" in="SourceAlpha" result="shadowSpreadOuter1"></feMorphology>
            <feOffset dx="0" dy="0" in="shadowSpreadOuter1" result="shadowOffsetOuter1"></feOffset>
            <feGaussianBlur stdDeviation="0.5" in="shadowOffsetOuter1" result="shadowBlurOuter1"></feGaussianBlur>
            <feComposite in="shadowBlurOuter1" in2="SourceAlpha" operator="out" result="shadowBlurOuter1"></feComposite>
            <feColorMatrix values="0 0 0 0 0   0 0 0 0 0   0 0 0 0 0  0 0 0 0.26 0" type="matrix" in="shadowBlurOuter1"></feColorMatrix>
        </filter>
    </defs>
    <g id="其他图标" stroke="none" stroke-width="1" fill="none" fill-rule="evenodd">
        <g id="应急保障资源" transform="translate(-972.000000, -484.000000)">
            <g id="水利设施" transform="translate(974.000000, 486.000000)">
                <g id="矩形">
                    <use fill="black" fill-opacity="1" filter="url(#filter-2)" xlink:href="#path-1"></use>
                    <rect stroke="#FFFFFF" stroke-width="1" stroke-linejoin="square" fill="#0E9D99" fill-rule="evenodd" x="0.5" y="0.5" width="27" height="27" rx="13.5"></rect>
                </g>
                <path d="M16.6174662,16.3753998 L16.6115621,16.3753998 L16.6115621,10.8865929 L18.20369,10.8865929 L18.20369,17.0405904 L18.0068881,17.1940959 L17.4460025,16.7690037 C17.1987401,16.5840205 16.9170675,16.4502093 16.6174662,16.3753998 Z M14.2912669,10.1348093 L14.2912669,9.34760147 L15.8833948,9.34760147 L15.8833948,10.1348093 L14.2912669,10.1348093 Z M14.2912669,17.0366544 L14.2912669,10.8865929 L15.8833948,10.8865929 L15.8833948,16.3084871 C15.4318979,16.3392633 14.9990843,16.5006282 14.6376384,16.7729397 L14.2912669,17.0366544 Z M18.9416974,16.5426814 L18.9416974,16.5446494 L18.9416974,10.8865929 L20.5338253,10.8865929 L20.5338253,16.3714637 C19.9996862,16.2367464 19.4349795,16.297475 18.9416974,16.5426814 Z M18.9416974,9.34366544 L20.5338253,9.34366544 L20.5338253,10.1308733 L18.9416974,10.1308733 L18.9416974,9.34366544 Z M16.6154982,10.1308733 L16.6154982,9.34366544 L18.2076261,9.34366544 L18.2076261,10.1308733 L16.6154982,10.1308733 Z M7.31463714,10.1308733 L7.31660517,10.1308733 L7.31660517,9.34366544 L8.90676506,9.34366544 L8.90676506,10.1308733 L7.31463714,10.1308733 Z M9.64083641,16.8063961 L9.64280443,16.8123001 L9.64280443,10.8865929 L11.2329643,10.8865929 L11.2329643,16.4797048 C11.0470051,16.5549667 10.8716788,16.654208 10.7114391,16.7749077 L10.1505535,17.2 L9.64083641,16.8063961 Z M11.9670357,10.1308733 L11.9670357,9.34366544 L13.5591636,9.34366544 L13.5591636,10.1308733 L11.9670357,10.1308733 Z M7.31660517,16.4738007 L7.31660517,10.8865929 L8.90873308,10.8865929 L8.90873308,16.4186962 C8.38834754,16.2472146 7.8238895,16.2667508 7.31660517,16.4738007 Z M11.9670357,16.3084871 L11.9670357,10.8865929 L13.5591636,10.8865929 L13.5591636,16.8103321 L13.5178352,16.7788438 C13.113507,16.4739989 12.6210081,16.3089116 12.1146372,16.3084871 L11.9670357,16.3084871 Z M9.64280443,10.1367774 L9.64280443,9.3495695 L11.2349324,9.3495695 L11.2349324,10.1367774 L9.64280443,10.1367774 Z M18.0068881,21.2305043 C17.6289984,21.2312254 17.2612674,21.1081875 16.9599016,20.8801968 L16.3694957,20.4373924 C16.1725487,20.2891334 15.9012521,20.2891334 15.704305,20.4373924 L15.1138991,20.8801968 C14.4946694,21.3469539 13.6411239,21.3469539 13.0218942,20.8801968 L12.4314883,20.4373924 C12.2345413,20.2891334 11.9632447,20.2891334 11.7662977,20.4373924 L11.1758918,20.8801968 C10.5566621,21.3469539 9.70311654,21.3469539 9.08388684,20.8801968 L8.49348094,20.4373924 C8.29653389,20.2891334 8.02523733,20.2891334 7.82829029,20.4373924 L7.06469864,21.0159902 C6.80492781,21.2132638 6.43442003,21.1625999 6.23714637,20.902829 C6.0398727,20.6430582 6.09053667,20.2725504 6.35030751,20.0752768 L7.11389914,19.496679 C7.73312883,19.0299219 8.58667436,19.0299219 9.20590405,19.496679 L9.79630996,19.9394834 C9.99325701,20.0877423 10.2645536,20.0877423 10.4615006,19.9394834 L11.0519065,19.496679 C11.6711362,19.0299219 12.5246817,19.0299219 13.1439114,19.496679 L13.7343173,19.9394834 C13.9312644,20.0877423 14.202561,20.0877423 14.399508,19.9394834 L14.9899139,19.496679 C15.6091436,19.0299219 16.4626891,19.0299219 17.0819188,19.496679 L17.6723247,19.9394834 C17.8692718,20.0877423 18.1405683,20.0877423 18.3375154,19.9394834 L18.9279213,19.496679 C19.547151,19.0299219 20.4006965,19.0299219 21.0199262,19.496679 L21.6103321,19.9394834 C21.7783744,20.0670971 21.8655707,20.2746665 21.8390752,20.4840022 C21.8125796,20.6933379 21.6764174,20.8726369 21.4818796,20.9543589 C21.2873418,21.0360809 21.0639832,21.0078105 20.895941,20.8801968 L20.3055351,20.4373924 C20.108588,20.2891334 19.8372915,20.2891334 19.6403444,20.4373924 L19.0499385,20.8801968 C18.7496467,21.1073737 18.3834309,21.2303669 18.0068881,21.2305043 Z M18.0068881,18.9790898 C17.6289984,18.9798108 17.2612674,18.856773 16.9599016,18.6287823 L16.3694957,18.1859779 C16.1725487,18.0377189 15.9012521,18.0377189 15.704305,18.1859779 L15.1138991,18.6287823 C14.4946694,19.0955394 13.6411239,19.0955394 13.0218942,18.6287823 L12.4314883,18.1859779 C12.2345413,18.0377189 11.9632447,18.0377189 11.7662977,18.1859779 L11.1758918,18.6287823 C10.5566621,19.0955394 9.70311654,19.0955394 9.08388684,18.6287823 L8.49348094,18.1859779 C8.29653389,18.0377189 8.02523733,18.0377189 7.82829029,18.1859779 L7.09225092,18.7586716 C6.83248008,18.9559453 6.46197231,18.9052813 6.26469865,18.6455105 C6.06742498,18.3857396 6.11808895,18.0152319 6.37785978,17.8179582 L7.14145142,17.2393604 C7.76068112,16.7726033 8.61422664,16.7726033 9.23345634,17.2393604 L9.82386223,17.6821648 C10.0208093,17.8304238 10.2921058,17.8304238 10.4890529,17.6821648 L11.0794588,17.2393604 C11.6986885,16.7726033 12.552234,16.7726033 13.1714637,17.2393604 L13.7618696,17.6821648 C13.9588167,17.8304238 14.2301132,17.8304238 14.4270603,17.6821648 L15.0174662,17.2393604 C15.6366959,16.7726033 16.4902414,16.7726033 17.1094711,17.2393604 L17.699877,17.6821648 C17.896824,17.8304238 18.1681206,17.8304238 18.3650677,17.6821648 L18.9554736,17.2393604 C19.5747033,16.7726033 20.4282488,16.7726033 21.0474785,17.2393604 L21.6378844,17.6821648 C21.8976552,17.8794385 21.9483192,18.2499463 21.7510455,18.5097171 C21.5537718,18.7694879 21.1832641,18.8201519 20.9234932,18.6228782 L20.3330873,18.1800738 C20.1361403,18.0318149 19.8648437,18.0318149 19.6678967,18.1800738 L19.0774908,18.6228782 C18.7704637,18.8579313 18.3935371,18.9833425 18.0068881,18.9790898 Z M21.1891759,7.24575646 L22,7.24575646 L22,8.22976629 L6,8.22976629 L6,7.24575646 L6.62779828,7.24575646 L6.62779828,6 L9.95571955,6 L9.95571955,7.24575646 L17.8612546,7.24575646 L17.8612546,6 L21.1891759,6 L21.1891759,7.24575646 Z M7.60984011,7.24575646 L7.61180811,7.24575646 L8.97170972,7.24575646 L8.97170972,6.98400984 L7.60984011,6.98400984 L7.60984011,7.24575646 Z M18.8432964,7.24575646 L20.203198,7.24575646 L20.203198,6.98400984 L18.8432964,6.98400984 L18.8432964,7.24575646 Z" id="合并形状" fill="#FFFFFF" fill-rule="nonzero"></path>
            </g>
        </g>
    </g>
</svg>