<?xml version="1.0" encoding="UTF-8"?>
<svg width="32px" height="32px" viewBox="0 0 32 32" version="1.1" xmlns="http://www.w3.org/2000/svg" xmlns:xlink="http://www.w3.org/1999/xlink">
    <!-- Generator: Sketch 53 (72520) - https://sketchapp.com -->
    <title>燃气设施</title>
    <desc>Created with Sketch.</desc>
    <defs>
        <rect id="path-1" x="0" y="0" width="28" height="28" rx="14"></rect>
        <filter x="-10.7%" y="-10.7%" width="121.4%" height="121.4%" filterUnits="objectBoundingBox" id="filter-2">
            <feMorphology radius="0.5" operator="dilate" in="SourceAlpha" result="shadowSpreadOuter1"></feMorphology>
            <feOffset dx="0" dy="0" in="shadowSpreadOuter1" result="shadowOffsetOuter1"></feOffset>
            <feGaussianBlur stdDeviation="0.5" in="shadowOffsetOuter1" result="shadowBlurOuter1"></feGaussianBlur>
            <feComposite in="shadowBlurOuter1" in2="SourceAlpha" operator="out" result="shadowBlurOuter1"></feComposite>
            <feColorMatrix values="0 0 0 0 0   0 0 0 0 0   0 0 0 0 0  0 0 0 0.26 0" type="matrix" in="shadowBlurOuter1"></feColorMatrix>
        </filter>
    </defs>
    <g id="其他图标" stroke="none" stroke-width="1" fill="none" fill-rule="evenodd">
        <g id="应急保障资源" transform="translate(-972.000000, -690.000000)">
            <g id="燃气设施" transform="translate(974.000000, 692.000000)">
                <g id="矩形">
                    <use fill="black" fill-opacity="1" filter="url(#filter-2)" xlink:href="#path-1"></use>
                    <rect stroke="#FFFFFF" stroke-width="1" stroke-linejoin="square" fill="#0E9D99" fill-rule="evenodd" x="0.5" y="0.5" width="27" height="27" rx="13.5"></rect>
                </g>
                <path d="M18.8857143,19.3334857 C18.8857143,19.8244571 18.4761143,20.2221714 17.9714286,20.2221714 L16.5515429,20.2221714 C17.4077714,19.6059429 17.9654857,18.6203429 17.9654857,17.5044571 C17.9654857,16.2253714 17.2345143,15.1126857 16.1574857,14.5376 L16.1794286,14.5302857 C16.1794286,14.5302857 15.3917714,13.6105143 15.3917714,12.0795429 C15.3917714,12.0795429 14.6566857,12.8196571 14.4203429,13.7641143 C14.4203429,13.7641143 14.0793143,11.6448 12.9757714,11.3380571 C12.9757714,11.3380571 13.8685714,13.3037714 11.7936,15.2704 L11.8443429,15.3046857 C11.3026286,15.9163429 11.0054857,16.6966857 11.0054857,17.5044571 C11.0054857,18.6221714 11.5691429,19.6064 12.4285714,20.2221714 L10.6571429,20.2221714 C10.152,20.2221714 9.74285714,19.8244571 9.74285714,19.3334857 L9.74285714,10.4443429 C9.74285714,9.95382857 10.152,9.55565714 10.6571429,9.55565714 L17.9714286,9.55565714 C18.4761143,9.55565714 18.8857143,9.95382857 18.8857143,10.4443429 L18.8857143,19.3334857 Z M14.4454857,17.0829714 C15.8525714,17.8806857 16.5355429,19.1867429 15.8370286,20.2221714 L13.0301714,20.2221714 C12.0221714,18.5476571 14.4454857,17.0829714 14.4454857,17.0829714 L14.4454857,17.0829714 Z M20.7142857,7.77782857 L19.8,7.77782857 L19.8,6.88914286 C19.8,6.39817143 19.3904,6 18.8857143,6 L17.9714286,6 C17.4662857,6 17.0571429,6.39817143 17.0571429,6.88914286 L17.0571429,7.77782857 L11.5714286,7.77782857 L11.5714286,6.88914286 C11.5714286,6.65325714 11.4749714,6.42697143 11.3035429,6.26057143 C11.1321143,6.09371429 10.8994286,6 10.6571429,6 L9.74285714,6 C9.50057143,6 9.26788571,6.09371429 9.09645714,6.26057143 C8.92502857,6.42697143 8.82857143,6.65325714 8.82857143,6.88914286 L8.82857143,7.77782857 L7.91428571,7.77782857 C7.672,7.77782857 7.43931429,7.87154286 7.26788571,8.0384 C7.09645714,8.2048 7,8.43108571 7,8.66697143 L7,21.1113143 C7,21.6022857 7.40914286,22 7.91428571,22 L20.7142857,22 C21.2189714,22 21.6285714,21.6022857 21.6285714,21.1113143 L21.6285714,8.66697143 C21.6285714,8.176 21.2189714,7.77782857 20.7142857,7.77782857 L20.7142857,7.77782857 Z" id="Fill-1" fill="#FFFFFF"></path>
            </g>
        </g>
    </g>
</svg>