<?xml version="1.0" encoding="UTF-8"?>
<svg width="32px" height="32px" viewBox="0 0 32 32" version="1.1" xmlns="http://www.w3.org/2000/svg" xmlns:xlink="http://www.w3.org/1999/xlink">
    <!-- Generator: Sketch 53 (72520) - https://sketchapp.com -->
    <title>石油天然气设施</title>
    <desc>Created with Sketch.</desc>
    <defs>
        <rect id="path-1" x="0" y="0" width="28" height="28" rx="14"></rect>
        <filter x="-10.7%" y="-10.7%" width="121.4%" height="121.4%" filterUnits="objectBoundingBox" id="filter-2">
            <feMorphology radius="0.5" operator="dilate" in="SourceAlpha" result="shadowSpreadOuter1"></feMorphology>
            <feOffset dx="0" dy="0" in="shadowSpreadOuter1" result="shadowOffsetOuter1"></feOffset>
            <feGaussianBlur stdDeviation="0.5" in="shadowOffsetOuter1" result="shadowBlurOuter1"></feGaussianBlur>
            <feComposite in="shadowBlurOuter1" in2="SourceAlpha" operator="out" result="shadowBlurOuter1"></feComposite>
            <feColorMatrix values="0 0 0 0 0   0 0 0 0 0   0 0 0 0 0  0 0 0 0.26 0" type="matrix" in="shadowBlurOuter1"></feColorMatrix>
        </filter>
    </defs>
    <g id="其他图标" stroke="none" stroke-width="1" fill="none" fill-rule="evenodd">
        <g id="应急保障资源" transform="translate(-972.000000, -612.000000)">
            <g id="石油天然气设施" transform="translate(974.000000, 614.000000)">
                <g id="矩形">
                    <use fill="black" fill-opacity="1" filter="url(#filter-2)" xlink:href="#path-1"></use>
                    <rect stroke="#FFFFFF" stroke-width="1" stroke-linejoin="square" fill="#0E9D99" fill-rule="evenodd" x="0.5" y="0.5" width="27" height="27" rx="13.5"></rect>
                </g>
                <path d="M10.6668413,18.0483923 L11.0002857,16.6854703 L13.2225344,16.6854703 L13.5555503,18.0483923 L10.6668413,18.0483923 Z M9.39110136,19.5248912 L8.83666441,19.5248912 L8.83666441,20.2059236 L7.22646198,20.2059236 L7.22646198,10.3260246 C7.51747584,10.3221672 7.60026668,10.304595 8.11114815,9.75814039 C8.93918758,8.87309824 9.15810314,8.67686456 9.15810314,8.67686456 L11.1244115,9.87859649 C11.0674088,9.95445724 10.9624038,10.1276083 11.0459792,10.2930448 C11.1569845,10.513341 11.3794236,10.5201985 11.3794236,10.5201985 L11.3794236,11.3152363 L9.88104776,18.0826666 L9.39110136,19.5248912 Z M10.1612305,7.32615455 L12.5782092,8.82125047 L12.2270169,9.51193421 L9.69860437,8.01726688 L10.1612305,7.32615455 Z M11.5557407,14.1872084 L12.1111958,11.5753698 L12.6666508,14.1872084 L11.5557407,14.1872084 Z M12.7780847,14.7550926 L13.1111005,16.1180147 L11.111291,16.1180147 L11.4447355,14.7550926 L12.7780847,14.7550926 Z M13.1634489,9.09176147 L16.8849784,11.3983754 L16.5064492,12.0326307 L12.8963537,9.83959353 L13.1634489,9.09176147 Z M18.0646137,12.0343364 L17.5323783,12.7044601 L16.9769233,12.3641582 L17.5091587,11.6936059 L18.0646137,12.0343364 Z M16.646126,18.6372775 C16.5231201,18.6372775 16.4236868,18.5357012 16.4236868,18.4105524 C16.4236868,18.284975 16.5231201,18.1833987 16.646126,18.1833987 C16.7687033,18.1833987 16.8681366,18.284975 16.8681366,18.4105524 C16.8681366,18.5357012 16.7687033,18.6372775 16.646126,18.6372775 L16.646126,18.6372775 Z M19.7778466,19.5248912 L20.4447355,18.6162765 L20.4447355,17.9348155 L17.5791704,17.9348155 C17.6344588,18.0848226 17.6670318,18.24083 17.6670318,18.3891228 C17.6670318,18.9535783 17.2191533,19.4113143 16.6666984,19.4113143 C16.1146721,19.4113143 15.6667937,18.9535783 15.6667937,18.3891228 C15.6667937,18.24083 15.698938,18.0848226 15.754655,17.9348155 L14.1722939,17.9348155 L12.8036416,11.3614214 C12.8036416,11.3614214 12.9566489,11.0845511 13.137086,11.3614214 C13.3175232,11.6382918 13.4705305,11.3614214 13.4705305,11.3614214 L13.4705305,11.1385537 L15.8892328,12.6237074 L16.0002381,14.4615616 L16.3336826,14.5751384 L16.3336826,15.89863 L15.6667937,15.7109068 L14.2224392,16.4583166 L14.2224392,17.594085 L15.8892328,17.594085 L16.0002381,17.1397776 L16.4292585,17.1397776 C16.216677,17.4822225 16.0002381,18.1199671 16.0002381,18.3891228 C16.0002381,18.7654264 16.298538,19.0705838 16.6666984,19.0705838 C17.0348588,19.0705838 17.3335873,18.7654264 17.3335873,18.3891228 C17.3335873,18.1199671 17.0991476,17.4822225 16.8895662,17.1397776 L17.222582,17.1397776 L17.4445926,17.594085 L19.000381,17.594085 L19.000381,16.6854703 L16.8891376,16.0905848 L16.8891376,14.6415158 L17.222582,14.5279389 L17.222582,13.2211624 L17.8890423,13.6193243 L19.000381,11.7607039 L10.6672699,6.87732854 L10.2228201,5.74156017 C10.2228201,5.74156017 9.18091338,5.65669899 8.88904234,5.96871384 C8.60660031,6.27172827 6.55193104,9.05567836 6.45378351,10.2171622 L6.44435449,10.2124477 L6.44435449,20.2059236 L5,20.2059236 L5,21.0009615 L23,21.0009615 L23,19.5248912 L19.7778466,19.5248912 Z" id="Fill-1" fill="#FFFFFF"></path>
            </g>
        </g>
    </g>
</svg>