<?xml version="1.0" encoding="UTF-8"?>
<svg width="32px" height="32px" viewBox="0 0 32 32" version="1.1" xmlns="http://www.w3.org/2000/svg" xmlns:xlink="http://www.w3.org/1999/xlink">
    <!-- Generator: Sketch 53 (72520) - https://sketchapp.com -->
    <title>地质灾害@4x</title>
    <desc>Created with Sketch.</desc>
    <defs>
        <rect id="path-1" x="0" y="0" width="28" height="28" rx="14"></rect>
        <filter x="-10.7%" y="-10.7%" width="121.4%" height="121.4%" filterUnits="objectBoundingBox" id="filter-2">
            <feMorphology radius="0.5" operator="dilate" in="SourceAlpha" result="shadowSpreadOuter1"></feMorphology>
            <feOffset dx="0" dy="0" in="shadowSpreadOuter1" result="shadowOffsetOuter1"></feOffset>
            <feGaussianBlur stdDeviation="0.5" in="shadowOffsetOuter1" result="shadowBlurOuter1"></feGaussianBlur>
            <feComposite in="shadowBlurOuter1" in2="SourceAlpha" operator="out" result="shadowBlurOuter1"></feComposite>
            <feColorMatrix values="0 0 0 0 0   0 0 0 0 0   0 0 0 0 0  0 0 0 0.26 0" type="matrix" in="shadowBlurOuter1"></feColorMatrix>
        </filter>
    </defs>
    <g id="其他图标" stroke="none" stroke-width="1" fill="none" fill-rule="evenodd">
        <g id="突发事件" transform="translate(-40.000000, -223.000000)">
            <g id="地质灾害" transform="translate(42.000000, 225.000000)">
                <g id="分组-8">
                    <g id="矩形-copy-5" transform="translate(14.000000, 14.000000) scale(-1, 1) translate(-14.000000, -14.000000) ">
                        <use fill="black" fill-opacity="1" filter="url(#filter-2)" xlink:href="#path-1"></use>
                        <rect stroke="#FFFFFF" stroke-width="1" stroke-linejoin="square" fill="#D90C0C" fill-rule="evenodd" x="0.5" y="0.5" width="27" height="27" rx="13.5"></rect>
                    </g>
                    <path d="M19.2514286,14.807958 C19.2547619,14.807958 19.257619,14.8088991 19.2604762,14.8088991 C19.84,14.8088991 20.3095238,14.229645 20.3095238,13.5153415 C20.3095238,12.8005675 19.84,12.2213134 19.2604762,12.2213134 C18.6809524,12.2213134 18.2114286,12.8005675 18.2114286,13.5153415 C18.2114286,14.0117778 18.4409524,14.4385718 18.7742857,14.6550274 C18.7480952,14.7745485 18.732381,14.9147741 18.732381,15.066293 C18.732381,15.1575808 18.7385714,15.2436925 18.7485714,15.3250986 C18.7457143,15.3250986 18.7428571,15.323687 18.7395238,15.323687 C18.4480952,15.323687 18.2114286,15.6695454 18.2114286,16.0958688 C18.2114286,16.5221923 18.4480952,16.8675801 18.7395238,16.8675801 C19.0314286,16.8675801 19.2680952,16.5221923 19.2680952,16.0958688 C19.2680952,15.9311743 19.2319048,15.7791849 19.1719048,15.654017 C19.23,15.5123798 19.2680952,15.3029825 19.2680952,15.066293 C19.2680952,14.9754758 19.2614286,14.8893641 19.2514286,14.807958 L19.2514286,14.807958 Z M15.0566667,13.2650059 L17.1547619,13.2650059 L17.1547619,12.2208429 L15.0566667,12.2208429 L15.0566667,13.2650059 Z M21.8942857,16.3532628 C20.7314286,16.3532628 19.7885714,17.3931908 19.7885714,18.6763961 C19.7885714,19.9596014 20.7314286,21 21.8942857,21 C23.0571429,21 24,19.9596014 24,18.6763961 C24,17.3931908 23.0571429,16.3532628 21.8942857,16.3532628 L21.8942857,16.3532628 Z M15.577619,9.55938003 L15.577619,10.7654142 C15.577619,11.2849077 16.0038095,11.7065255 16.53,11.7065255 L16.7380952,11.7065255 C17.2642857,11.7065255 17.6904762,11.2849077 17.6904762,10.7654142 L17.6904762,9.55938003 C17.6904762,9.03988657 17.2642857,8.61826869 16.7380952,8.61826869 L16.53,8.61826869 C16.0038095,8.61826869 15.577619,9.03988657 15.577619,9.55938003 L15.577619,9.55938003 Z M14,11.71029 C13.8390476,7.66727569 15.8785714,8.10395135 16.1052381,7.58163456 C16.18,6.9252094 16.337619,4.94652281 15.0528571,5.00110727 C14.4242857,5.02745839 4,21 4,21 L18.2104762,21 C18.2104762,21 18.4661905,17.5098886 18.2104762,17.3870736 C17.9547619,17.2642585 14.1614286,15.7533043 14,11.71029 L14,11.71029 Z" id="Fill-1" fill="#FFFFFF"></path>
                </g>
            </g>
        </g>
    </g>
</svg>