<?xml version="1.0" encoding="UTF-8"?>
<svg width="32px" height="32px" viewBox="0 0 32 32" version="1.1" xmlns="http://www.w3.org/2000/svg" xmlns:xlink="http://www.w3.org/1999/xlink">
    <!-- Generator: Sketch 53 (72520) - https://sketchapp.com -->
    <title>地震灾害@4x</title>
    <desc>Created with Sketch.</desc>
    <defs>
        <rect id="path-1" x="0" y="0" width="28" height="28" rx="14"></rect>
        <filter x="-10.7%" y="-10.7%" width="121.4%" height="121.4%" filterUnits="objectBoundingBox" id="filter-2">
            <feMorphology radius="0.5" operator="dilate" in="SourceAlpha" result="shadowSpreadOuter1"></feMorphology>
            <feOffset dx="0" dy="0" in="shadowSpreadOuter1" result="shadowOffsetOuter1"></feOffset>
            <feGaussianBlur stdDeviation="0.5" in="shadowOffsetOuter1" result="shadowBlurOuter1"></feGaussianBlur>
            <feComposite in="shadowBlurOuter1" in2="SourceAlpha" operator="out" result="shadowBlurOuter1"></feComposite>
            <feColorMatrix values="0 0 0 0 0   0 0 0 0 0   0 0 0 0 0  0 0 0 0.26 0" type="matrix" in="shadowBlurOuter1"></feColorMatrix>
        </filter>
    </defs>
    <g id="其他图标" stroke="none" stroke-width="1" fill="none" fill-rule="evenodd">
        <g id="突发事件" transform="translate(-40.000000, -183.000000)">
            <g id="地震灾害" transform="translate(42.000000, 185.000000)">
                <g id="矩形-copy-5" transform="translate(14.000000, 14.000000) scale(-1, 1) translate(-14.000000, -14.000000) ">
                    <use fill="black" fill-opacity="1" filter="url(#filter-2)" xlink:href="#path-1"></use>
                    <rect stroke="#FFFFFF" stroke-width="1" stroke-linejoin="square" fill="#D90C0C" fill-rule="evenodd" x="0.5" y="0.5" width="27" height="27" rx="13.5"></rect>
                </g>
                <path d="M11.2542194,22.5595992 C12.1197257,22.8370253 13.0421941,22.9873418 14,22.9873418 C18.9636076,22.9873418 22.9873418,18.9636076 22.9873418,14 C22.9873418,11.9312588 22.2877989,10.0258439 21.113045,8.50685654 L21.5274262,7.4173699 C23.0668073,9.17616034 24,11.4790788 24,14 C24,19.5228551 19.5228551,24 14,24 C12.7756681,24 11.6028481,23.7795359 10.5186357,23.3769339 L11.2542194,22.5595992 Z M6.40506329,14 C6.40506329,9.80555556 9.80537975,6.40506329 14,6.40506329 C16.0915963,6.40506329 17.9855837,7.25070323 19.3591772,8.61867089 L18.8523207,9.52742616 L18.8016878,9.62218706 C17.6132208,8.31962025 15.9020745,7.5021097 14,7.5021097 C10.4113924,7.5021097 7.5021097,10.4113924 7.5021097,14 C7.5021097,16.6299226 9.0645218,18.8946906 11.3115331,19.9173699 L10.5472925,20.766526 C8.08843179,19.5093179 6.40506329,16.951301 6.40506329,14 L6.40506329,14 Z M11.9746835,14 C11.9746835,12.8815049 12.8815049,11.9746835 14,11.9746835 C15.1184951,11.9746835 16.0253165,12.8815049 16.0253165,14 C16.0253165,15.1186709 15.1184951,16.0253165 14,16.0253165 C12.8815049,16.0253165 11.9746835,15.1186709 11.9746835,14 L11.9746835,14 Z M17.5021097,17.3567159 L17.5021097,16.4472574 L18.6179677,15.4908579 C18.3899437,16.197609 18.0040436,16.8331575 17.5021097,17.3567159 L17.5021097,17.3567159 Z M9.14767932,14 C9.14767932,11.3201477 11.3201477,9.14767932 14,9.14767932 C15.6350211,9.14767932 17.079993,9.95727848 17.9590366,11.1963783 L17.4307314,12.1837201 C16.7790084,10.9553446 15.4875176,10.1181435 14,10.1181435 C11.8561885,10.1181435 10.1181435,11.8561885 10.1181435,14 C10.1181435,16.0003516 11.6311533,17.6466245 13.5750703,17.8582982 C13.1642053,18.1962025 12.8071378,18.4653657 12.5706751,18.6381857 C10.5884318,18.0279536 9.14767932,16.1824895 9.14767932,14 L9.14767932,14 Z M14,21.5949367 C13.4120956,21.5949367 12.8398383,21.5281294 12.290436,21.4017229 L13.1471519,20.4421589 C13.4261603,20.478903 13.7107947,20.4978903 14,20.4978903 C17.5886076,20.4978903 20.4978903,17.5887834 20.4978903,14 C20.4978903,12.9272152 20.2376934,11.9152602 19.7772504,11.0235584 C19.9811885,10.4836498 20.2107947,10.1228903 20.3911744,9.89539381 C21.1529536,11.0791139 21.5949367,12.4878692 21.5949367,14 C21.5949367,18.1946203 18.1946203,21.5949367 14,21.5949367 L14,21.5949367 Z M20.0759494,7.33333333 L20.0594233,7.3628692 C18.4614979,5.9033052 16.3347398,5.01265823 14,5.01265823 C9.03639241,5.01265823 5.01265823,9.03656821 5.01265823,14 C5.01265823,17.6188467 7.15172293,20.7375176 10.2341772,22.1620956 L10.1135724,23.2167722 C6.52127286,21.7000703 4,18.1445148 4,14 C4,8.47732068 8.47714487,4 14,4 C16.2925457,4 18.4045359,4.7721519 20.0914205,6.06962025 L20.0759494,7.33333333 Z" id="Fill-1" stroke="#FFFFFF" stroke-width="0.4" fill="#FFFFFF"></path>
            </g>
        </g>
    </g>
</svg>