<?xml version="1.0" encoding="UTF-8"?>
<svg width="32px" height="32px" viewBox="0 0 32 32" version="1.1" xmlns="http://www.w3.org/2000/svg" xmlns:xlink="http://www.w3.org/1999/xlink">
    <!-- Generator: Sketch 53 (72520) - https://sketchapp.com -->
    <title>气象灾害@4x</title>
    <desc>Created with Sketch.</desc>
    <defs>
        <rect id="path-1" x="0" y="0" width="28" height="28" rx="14"></rect>
        <filter x="-10.7%" y="-10.7%" width="121.4%" height="121.4%" filterUnits="objectBoundingBox" id="filter-2">
            <feMorphology radius="0.5" operator="dilate" in="SourceAlpha" result="shadowSpreadOuter1"></feMorphology>
            <feOffset dx="0" dy="0" in="shadowSpreadOuter1" result="shadowOffsetOuter1"></feOffset>
            <feGaussianBlur stdDeviation="0.5" in="shadowOffsetOuter1" result="shadowBlurOuter1"></feGaussianBlur>
            <feComposite in="shadowBlurOuter1" in2="SourceAlpha" operator="out" result="shadowBlurOuter1"></feComposite>
            <feColorMatrix values="0 0 0 0 0   0 0 0 0 0   0 0 0 0 0  0 0 0 0.26 0" type="matrix" in="shadowBlurOuter1"></feColorMatrix>
        </filter>
    </defs>
    <g id="其他图标" stroke="none" stroke-width="1" fill="none" fill-rule="evenodd">
        <g id="突发事件" transform="translate(-40.000000, -143.000000)">
            <g id="气象灾害" transform="translate(42.000000, 145.000000)">
                <g id="分组-8">
                    <g id="矩形-copy-5" transform="translate(14.000000, 14.000000) scale(-1, 1) translate(-14.000000, -14.000000) ">
                        <use fill="black" fill-opacity="1" filter="url(#filter-2)" xlink:href="#path-1"></use>
                        <rect stroke="#FFFFFF" stroke-width="1" stroke-linejoin="square" fill="#D90C0C" fill-rule="evenodd" x="0.5" y="0.5" width="27" height="27" rx="13.5"></rect>
                    </g>
                    <path d="M6.50944444,12.0466667 C6.50944444,12.3916667 6.22944444,12.6716667 5.88444444,12.6716667 L4.63444444,12.6716667 C4.28944444,12.6716667 4.00944444,12.3916667 4.00944444,12.0466667 C4.00944444,11.7016667 4.28944444,11.4216667 4.63444444,11.4216667 L5.88444444,11.4216667 C6.22944444,11.4216667 6.50944444,11.7016667 6.50944444,12.0466667 L6.50944444,12.0466667 Z M7.28444444,8.11 L6.40055556,7.22611111 C6.15666667,6.98222222 6.15666667,6.58666667 6.40055556,6.34222222 C6.645,6.09833333 7.04055556,6.09833333 7.28444444,6.34222222 L8.16833333,7.22611111 C8.41277778,7.47055556 8.41277778,7.86611111 8.16833333,8.11 C7.92444444,8.35444444 7.52888889,8.35444444 7.28444444,8.11 L7.28444444,8.11 Z M12.1944444,6.5 L12.0555556,6.5 C11.7488889,6.5 11.5,6.25111111 11.5,5.94444444 L11.5,4.55555556 C11.5,4.24833333 11.7488889,4 12.0555556,4 L12.1944444,4 C12.5011111,4 12.75,4.24833333 12.75,4.55555556 L12.75,5.94444444 C12.75,6.25111111 12.5011111,6.5 12.1944444,6.5 L12.1944444,6.5 Z M16.9455556,8.15888889 C16.7011111,8.40277778 16.3055556,8.40277778 16.0616667,8.15888889 C15.8172222,7.91444444 15.8172222,7.51888889 16.0616667,7.275 L16.9455556,6.39111111 C17.1894444,6.14666667 17.585,6.14666667 17.8294444,6.39111111 C18.0733333,6.635 18.0733333,7.03055556 17.8294444,7.275 L16.9455556,8.15888889 Z M12.125,9 C10.3988889,9 9,10.3988889 9,12.125 C9,12.4683333 9.06055556,12.7961111 9.16388889,13.1044444 C10.31,12.125 12.0505556,11.5 14,11.5 C14.4088889,11.5 14.8083333,11.5294444 15.195,11.5816667 C14.9372222,10.1161111 13.665,9 12.125,9 L12.125,9 Z M20.3888889,22.75 L18.375,22.75 C18.375,23.44 16.5561111,24 14.3127778,24 C12.0688889,24 10.25,23.44 10.25,22.75 L7.61111111,22.75 C5.61666667,22.75 4,21.1327778 4,19.1388889 L4,18.2361111 C4,16.2416667 5.61666667,14.625 7.61111111,14.625 L8.01222222,14.625 C8.08111111,14.4627778 8.16166667,14.3038889 8.25611111,14.1505556 C7.93666667,13.5438889 7.75,12.8577778 7.75,12.125 C7.75,9.70833333 9.70888889,7.75 12.125,7.75 C14.4527778,7.75 16.35,9.56888889 16.4866667,11.8616667 C16.9305556,11.9966667 17.345,12.1694444 17.7283333,12.3694444 C17.6933333,12.2916667 17.6722222,12.2061111 17.6722222,12.1155556 C17.6722222,11.77 17.9516667,11.4905556 18.2972222,11.4905556 L19.5466667,11.4905556 C19.8922222,11.4905556 20.1722222,11.77 20.1722222,12.1155556 C20.1722222,12.4605556 19.8922222,12.7405556 19.5466667,12.7405556 L18.3555556,12.7405556 C19.11,13.2544444 19.6794444,13.8994444 19.9877778,14.625 L20.3888889,14.625 C22.3833333,14.625 24,16.2416667 24,18.2361111 L24,19.1388889 C24,21.1327778 22.3833333,22.75 20.3888889,22.75 L20.3888889,22.75 Z" id="Fill-1" fill="#FFFFFF"></path>
                </g>
            </g>
        </g>
    </g>
</svg>