<?xml version="1.0" encoding="UTF-8"?>
<svg width="32px" height="32px" viewBox="0 0 32 32" version="1.1" xmlns="http://www.w3.org/2000/svg" xmlns:xlink="http://www.w3.org/1999/xlink">
    <!-- Generator: Sketch 53 (72520) - https://sketchapp.com -->
    <title>水旱灾害@4x</title>
    <desc>Created with Sketch.</desc>
    <defs>
        <rect id="path-1" x="0" y="0" width="28" height="28" rx="14"></rect>
        <filter x="-10.7%" y="-10.7%" width="121.4%" height="121.4%" filterUnits="objectBoundingBox" id="filter-2">
            <feMorphology radius="0.5" operator="dilate" in="SourceAlpha" result="shadowSpreadOuter1"></feMorphology>
            <feOffset dx="0" dy="0" in="shadowSpreadOuter1" result="shadowOffsetOuter1"></feOffset>
            <feGaussianBlur stdDeviation="0.5" in="shadowOffsetOuter1" result="shadowBlurOuter1"></feGaussianBlur>
            <feComposite in="shadowBlurOuter1" in2="SourceAlpha" operator="out" result="shadowBlurOuter1"></feComposite>
            <feColorMatrix values="0 0 0 0 0   0 0 0 0 0   0 0 0 0 0  0 0 0 0.26 0" type="matrix" in="shadowBlurOuter1"></feColorMatrix>
        </filter>
    </defs>
    <g id="其他图标" stroke="none" stroke-width="1" fill="none" fill-rule="evenodd">
        <g id="突发事件" transform="translate(-40.000000, -105.000000)">
            <g id="水旱灾害" transform="translate(42.000000, 107.000000)">
                <g id="矩形-copy-5" transform="translate(14.000000, 14.000000) scale(-1, 1) translate(-14.000000, -14.000000) ">
                    <use fill="black" fill-opacity="1" filter="url(#filter-2)" xlink:href="#path-1"></use>
                    <rect stroke="#FFFFFF" stroke-width="1" stroke-linejoin="square" fill="#D90C0C" fill-rule="evenodd" x="0.5" y="0.5" width="27" height="27" rx="13.5"></rect>
                </g>
                <g id="分组" transform="translate(4.000000, 7.000000)" stroke="#FFFFFF" stroke-width="2">
                    <path d="M5.68434189e-14,4.64599594 C1.1985015,5.33455352 3.59669054,6.18225511 5.81611848,6.18225511 C8.03554641,6.18225511 8.92622644,3.81818182 11.5423901,3.81818182 C14.1585538,3.81818182 16.202076,6.72814659 19.7016476,6.18225511" id="路径-2-copy"></path>
                    <path d="M5.68434189e-14,8.28235958 C1.1985015,8.97091716 3.59669054,9.81861875 5.81611848,9.81861875 C8.03554641,9.81861875 8.92622644,7.45454545 11.5423901,7.45454545 C14.1585538,7.45454545 16.202076,10.3645102 19.7016476,9.81861875" id="路径-2-copy-3"></path>
                    <path d="M5.68434189e-14,11.9187232 C1.1985015,12.6072808 3.59669054,13.4549824 5.81611848,13.4549824 C8.03554641,13.4549824 8.92622644,11.0909091 11.5423901,11.0909091 C14.1585538,11.0909091 16.202076,13.9097378 19.7016476,13.4549824" id="路径-2-copy-5"></path>
                    <path d="M1.24344979e-14,0.827814123 C1.1985015,1.5163717 3.59669054,2.36407329 5.81611848,2.36407329 C8.03554641,2.36407329 8.92622644,-6.43929354e-15 11.5423901,-6.43929354e-15 C14.1585538,-6.43929354e-15 16.202076,2.81882873 19.7016476,2.36407329" id="路径-2-copy-6"></path>
                </g>
            </g>
        </g>
    </g>
</svg>