<?xml version="1.0" encoding="UTF-8"?>
<svg width="32px" height="32px" viewBox="0 0 32 32" version="1.1" xmlns="http://www.w3.org/2000/svg" xmlns:xlink="http://www.w3.org/1999/xlink">
    <!-- Generator: Sketch 53 (72520) - https://sketchapp.com -->
    <title>海洋灾害@4x</title>
    <desc>Created with Sketch.</desc>
    <defs>
        <rect id="path-1" x="0" y="0" width="28" height="28" rx="14"></rect>
        <filter x="-10.7%" y="-10.7%" width="121.4%" height="121.4%" filterUnits="objectBoundingBox" id="filter-2">
            <feMorphology radius="0.5" operator="dilate" in="SourceAlpha" result="shadowSpreadOuter1"></feMorphology>
            <feOffset dx="0" dy="0" in="shadowSpreadOuter1" result="shadowOffsetOuter1"></feOffset>
            <feGaussianBlur stdDeviation="0.5" in="shadowOffsetOuter1" result="shadowBlurOuter1"></feGaussianBlur>
            <feComposite in="shadowBlurOuter1" in2="SourceAlpha" operator="out" result="shadowBlurOuter1"></feComposite>
            <feColorMatrix values="0 0 0 0 0   0 0 0 0 0   0 0 0 0 0  0 0 0 0.26 0" type="matrix" in="shadowBlurOuter1"></feColorMatrix>
        </filter>
    </defs>
    <g id="其他图标" stroke="none" stroke-width="1" fill="none" fill-rule="evenodd">
        <g id="突发事件" transform="translate(-40.000000, -263.000000)">
            <g id="海洋灾害" transform="translate(42.000000, 265.000000)">
                <g id="分组-8">
                    <g id="矩形-copy-5" transform="translate(14.000000, 14.000000) scale(-1, 1) translate(-14.000000, -14.000000) ">
                        <use fill="black" fill-opacity="1" filter="url(#filter-2)" xlink:href="#path-1"></use>
                        <rect stroke="#FFFFFF" stroke-width="1" stroke-linejoin="square" fill="#D90C0C" fill-rule="evenodd" x="0.5" y="0.5" width="27" height="27" rx="13.5"></rect>
                    </g>
                    <path d="M4.5552009,14.1058998 C4.7500636,14.0218458 4.79453226,13.7055657 4.68361042,13.5272204 C4.55669984,13.3246287 4.27539805,13.4496321 4.20494769,12.7319403 C4.20494769,12.7319403 3.95212583,13.2465016 4.0080864,13.6522237 C4.04306175,13.9038469 4.30237904,14.2152777 4.5552009,14.1058998 M6.5602881,16.8187963 C6.68669904,16.836577 6.82260328,16.8107142 6.92153357,16.7212722 C7.03395436,16.6199763 7.08192056,16.4394757 7.03795154,16.2864544 C6.95950681,16.0143565 6.68919727,16.0154341 6.48983774,15.9179099 C6.27648807,15.8139201 6.08012643,15.6695196 5.89875422,15.5078773 C5.69789575,15.3284544 5.504532,15.1253239 5.34464465,14.9001023 C5.38361719,14.9555995 5.37412388,15.1684285 5.38561578,15.2384735 C5.42908516,15.4960235 5.49703728,15.7487243 5.59946511,15.9852609 C5.7828359,16.4087637 6.12759298,16.7579111 6.5602881,16.8187963 M7.63652978,15.6280314 C7.63303224,15.626415 7.62953471,15.6247986 7.62653682,15.6231821 C6.06613629,14.8688514 5.26270239,13.3946737 6.11310319,11.6004442 C6.92952794,9.87787609 8.59685313,8.73075459 10.3411241,8.61814379 C12.3102367,8.49098518 14.1634309,9.59769611 15.6738666,10.8962226 C15.8502424,11.0476275 16.0231205,11.2038817 16.1940001,11.3633688 C16.0506012,11.0853441 15.0837824,10.0589155 14.4592225,9.48724054 C13.2335861,8.36382657 11.793101,7.38319663 10.2047202,7.07930911 C8.34003409,6.72315725 6.28298349,7.58201666 5.21423654,9.3439177 C3.81022581,11.6586354 4.70559493,15.6738301 7.63652978,15.6280314 M16.8990034,20.8016625 C16.8990034,20.8016625 20.4365109,18.9099089 23.1940679,20.5408796 C23.1940679,20.6060754 21.5812043,16.5612463 16.8990034,20.8016625 M24,19.7962475 C24,19.9083195 23.0431742,16.3899054 18.3090099,16.1663003 C18.208081,16.0547671 19.970839,15.4960235 21.2299518,16.3338694 C21.2299518,16.3338694 20.7263067,15.049352 17.8563289,15.4405264 C18.0017264,15.4205905 17.5105725,13.9334813 17.4571102,13.7820764 C17.0099252,12.5191112 16.2759424,11.5826635 15.1642257,10.995902 C14.1289552,10.4490122 12.9547825,10.2663564 11.8165845,10.3116163 C11.7711165,10.3137715 11.7256486,10.3159267 11.6801806,10.3186208 C9.95939308,10.4161449 8.1411742,11.5972113 7.69049176,13.5520055 C7.2677896,15.3839515 8.73175808,16.3026186 10.1677463,16.4858132 C10.2127146,16.4912013 10.2571833,16.4965894 10.3016519,16.5014386 C10.2222079,16.4928177 10.0518279,15.8300843 10.0298434,15.7584229 C9.85296807,15.1792046 9.73005467,14.5628087 9.74304552,13.9485679 C9.7720251,12.5762248 10.6623977,11.6586354 11.8545577,11.4145555 C13.4204544,11.093965 15.0932757,11.6322338 16.0570966,13.0708503 C16.56324,13.8262586 17.0878703,15.0903014 16.7980745,16.0547671 C16.4458227,17.2272125 14.5821359,22.6443847 4.25841002,18.3441608 C4.3593389,18.4562328 8.03524884,22.4768156 15.7907843,20.4104882 C19.417229,19.3495759 19.668552,17.1717154 24,19.7962475 M10.9252126,17.6636467 C10.156754,18.0796063 9.27637434,18.2412486 8.43296861,18.3371563 C7.34223714,18.4610821 6.04914826,18.5785422 4.96541186,18.3446996 C6.99198393,18.7816726 9.1634539,19.1248931 11.215508,18.6830708 C12.6370064,18.3770281 14.454226,17.4971552 14.9463792,15.8527142 C15.1517345,15.1668121 15.0952743,14.37692 14.7470197,13.7659122 C14.3992647,13.1549043 13.751721,12.7513373 13.1011794,12.7982136 C12.4506377,12.8450899 11.8365704,13.3704273 11.6786817,14.0719549 C11.5312855,14.7260674 11.7786112,15.290199 11.9839666,15.8834262 C12.0314331,16.0202834 12.0634106,16.133433 12.0764014,16.2358065 C12.1088785,16.4847356 12.0309335,16.6663138 11.8000961,16.9637356 C11.5637626,17.2687007 11.2484848,17.4890731 10.9252126,17.6636467" id="Fill-1" fill="#FFFFFF"></path>
                </g>
            </g>
        </g>
    </g>
</svg>