<?xml version="1.0" encoding="UTF-8"?>
<svg width="32px" height="32px" viewBox="0 0 32 32" version="1.1" xmlns="http://www.w3.org/2000/svg" xmlns:xlink="http://www.w3.org/1999/xlink">
    <!-- Generator: Sketch 53 (72520) - https://sketchapp.com -->
    <title>生物灾害@4x</title>
    <desc>Created with Sketch.</desc>
    <defs>
        <rect id="path-1" x="0" y="0" width="28" height="28" rx="14"></rect>
        <filter x="-10.7%" y="-10.7%" width="121.4%" height="121.4%" filterUnits="objectBoundingBox" id="filter-2">
            <feMorphology radius="0.5" operator="dilate" in="SourceAlpha" result="shadowSpreadOuter1"></feMorphology>
            <feOffset dx="0" dy="0" in="shadowSpreadOuter1" result="shadowOffsetOuter1"></feOffset>
            <feGaussianBlur stdDeviation="0.5" in="shadowOffsetOuter1" result="shadowBlurOuter1"></feGaussianBlur>
            <feComposite in="shadowBlurOuter1" in2="SourceAlpha" operator="out" result="shadowBlurOuter1"></feComposite>
            <feColorMatrix values="0 0 0 0 0   0 0 0 0 0   0 0 0 0 0  0 0 0 0.26 0" type="matrix" in="shadowBlurOuter1"></feColorMatrix>
        </filter>
    </defs>
    <g id="其他图标" stroke="none" stroke-width="1" fill="none" fill-rule="evenodd">
        <g id="突发事件" transform="translate(-40.000000, -342.000000)">
            <g id="生物灾害" transform="translate(42.000000, 344.000000)">
                <g id="矩形-copy-5" transform="translate(14.000000, 14.000000) scale(-1, 1) translate(-14.000000, -14.000000) ">
                    <use fill="black" fill-opacity="1" filter="url(#filter-2)" xlink:href="#path-1"></use>
                    <rect stroke="#FFFFFF" stroke-width="1" stroke-linejoin="square" fill="#D90C0C" fill-rule="evenodd" x="0.5" y="0.5" width="27" height="27" rx="13.5"></rect>
                </g>
                <path d="M23.1549054,15.7405926 C23.1498677,16.1623157 22.8092211,16.5029623 22.387498,16.508 L19.7026091,16.508 C19.7402974,17.7166448 19.4637302,18.9143883 18.8999425,19.9841481 L21.3888313,22.4896296 C21.5342865,22.6313454 21.6163241,22.8258112 21.6163241,23.0288889 C21.6163241,23.2319666 21.5342865,23.4264324 21.3888313,23.5681481 C21.2472591,23.7138684 21.0527397,23.796091 20.8495721,23.796091 C20.6464045,23.796091 20.451885,23.7138684 20.3103128,23.5681481 L17.936535,21.2068148 C17.8964363,21.2462222 17.8366338,21.2980741 17.7571276,21.3623704 C17.6776215,21.4266667 17.5096215,21.5403951 17.2531276,21.7035556 C17.0023637,21.8646357 16.7423061,22.0107666 16.4743128,22.1411852 C16.1582787,22.287684 15.8291131,22.4040031 15.4912017,22.4885926 C15.1121161,22.5908136 14.7213076,22.6431073 14.3286832,22.6441481 L14.3286832,11.9056296 L12.7949054,11.9056296 L12.7949054,22.6441481 C12.3840882,22.6437377 11.9751058,22.5893462 11.578461,22.4823704 C11.216735,22.3905495 10.8667048,22.2576355 10.5352017,22.0862222 C10.2434486,21.9306667 9.97969554,21.7751111 9.74394246,21.6195556 C9.5614864,21.5028865 9.38814901,21.3725367 9.22542394,21.2296296 L9.04601653,21.0616296 L6.8526832,23.5422222 C6.70558538,23.7045102 6.49615093,23.7962085 6.27712764,23.7942222 C6.08665855,23.7957404 5.90221931,23.7274979 5.75860912,23.6023704 C5.45396244,23.3114962 5.4276371,22.8340091 5.69846097,22.5114074 L8.11890542,19.7902222 C7.63067131,18.765863 7.39254014,17.640249 7.4240906,16.5059259 L4.73920172,16.5059259 C4.32662927,16.4907518 4,16.1518884 4,15.739037 C4,15.3261856 4.32662927,14.9873223 4.73920172,14.9721481 L7.4240906,14.9721481 L7.4240906,11.4462222 L5.35001653,9.37214815 C5.14880053,9.18107884 5.0671305,8.89585952 5.13672076,8.62724724 C5.20631102,8.35863496 5.41619748,8.14895012 5.68487651,8.07961805 C5.95355555,8.01028598 6.23869625,8.09223009 6.42957209,8.29362963 L8.50364616,10.3677037 L18.6209795,10.3677037 L20.6950536,8.29362963 C20.8877123,8.10097067 21.1685187,8.02572872 21.4316956,8.09624671 C21.6948725,8.16676469 21.900437,8.37232924 21.970955,8.63550614 C22.041473,8.89868303 21.966231,9.17948941 21.7735721,9.37214815 L19.699498,11.4462222 L19.699498,14.9721481 L22.3843869,14.9721481 C22.8058799,14.9777316 23.1462109,15.3180625 23.1517943,15.7395556 L23.1549054,15.7405926 Z M17.4014239,8.83703704 L9.72734986,8.83703704 C9.72734986,6.7179 11.4452499,5 13.5643869,5 C15.6835239,5 17.4014239,6.7179 17.4014239,8.83703704 Z" id="路径_23" fill="#FFFFFF" fill-rule="nonzero"></path>
            </g>
        </g>
    </g>
</svg>