<?xml version="1.0" encoding="UTF-8"?>
<svg width="32px" height="32px" viewBox="0 0 32 32" version="1.1" xmlns="http://www.w3.org/2000/svg" xmlns:xlink="http://www.w3.org/1999/xlink">
    <!-- Generator: Sketch 53 (72520) - https://sketchapp.com -->
    <title>交通运输保障队@4x</title>
    <desc>Created with Sketch.</desc>
    <defs>
        <rect id="path-1" x="0" y="0" width="28" height="28" rx="14"></rect>
        <filter x="-10.7%" y="-10.7%" width="121.4%" height="121.4%" filterUnits="objectBoundingBox" id="filter-2">
            <feMorphology radius="0.5" operator="dilate" in="SourceAlpha" result="shadowSpreadOuter1"></feMorphology>
            <feOffset dx="0" dy="0" in="shadowSpreadOuter1" result="shadowOffsetOuter1"></feOffset>
            <feGaussianBlur stdDeviation="0.5" in="shadowOffsetOuter1" result="shadowBlurOuter1"></feGaussianBlur>
            <feComposite in="shadowBlurOuter1" in2="SourceAlpha" operator="out" result="shadowBlurOuter1"></feComposite>
            <feColorMatrix values="0 0 0 0 0   0 0 0 0 0   0 0 0 0 0  0 0 0 0.26 0" type="matrix" in="shadowBlurOuter1"></feColorMatrix>
        </filter>
    </defs>
    <g id="其他图标" stroke="none" stroke-width="1" fill="none" fill-rule="evenodd">
        <g id="应急保障资源" transform="translate(-94.000000, -649.000000)">
            <g id="交通运输保障队" transform="translate(96.000000, 651.000000)">
                <g id="矩形">
                    <use fill="black" fill-opacity="1" filter="url(#filter-2)" xlink:href="#path-1"></use>
                    <rect stroke="#FFFFFF" stroke-width="1" stroke-linejoin="square" fill="#38AC83" fill-rule="evenodd" x="0.5" y="0.5" width="27" height="27" rx="13.5"></rect>
                </g>
                <path d="M18.3129097,13.9649117 L18.3129097,10.7726707 L20.7386129,10.7726707 C21.4634107,10.7726707 22.437779,12.7657561 22.4877801,13.9662161 L18.3129097,13.9662161 L18.3129097,13.9649117 Z M21.0755765,9.39481561 L17.8502913,9.39481561 C17.4059341,9.31307476 16.9811425,9.60960273 16.8994017,10.0574382 C16.8933146,10.0883085 16.8907059,10.1196135 16.8880971,10.1513533 L16.8880971,15.8936479 C16.8872275,15.9427794 16.9263588,15.9836498 16.9737511,15.9836498 L23.9121579,15.9836498 C23.9356366,15.9836498 23.9582458,15.9745192 23.9747679,15.9575623 C23.9908552,15.9410402 24.0004206,15.9184311 23.9999858,15.8949523 L23.9999858,14.2092647 C23.9999858,13.2696797 22.4012565,9.39742436 21.0755765,9.39742436 L21.0755765,9.39481561 Z M19.2503207,16.7132304 C19.3042349,16.6810558 19.337279,16.6227937 19.337279,16.5593141 C19.339453,16.4636599 19.2624949,16.3836582 19.1659711,16.3819191 L9.36272147,16.3819191 C9.28576333,16.3806147 9.2183706,16.4327897 9.20054414,16.5075739 C9.17184789,16.5840972 9.20445727,16.6697512 9.27576312,16.7071433 C9.92664637,17.11063 10.3231764,17.826732 10.3257852,18.597183 C10.3257852,18.6784891 10.313611,18.7645779 10.313611,18.8641452 C10.2988281,18.9132766 10.313611,18.9663212 10.3501335,19.0032785 C10.3818733,19.0402358 10.4270917,19.0619754 10.4749188,19.0632798 L18.0502955,19.0632798 C18.0994269,19.065019 18.1455148,19.0424098 18.1750807,19.0032785 C18.209864,18.9654516 18.2285601,18.9158854 18.2263861,18.8641452 C18.0894267,18.0015183 18.4972614,17.1428046 19.2503207,16.7106216 L19.2503207,16.7132304 Z M23.9121579,16.4710514 L21.6368926,16.4710514 C21.5977614,16.4710514 21.5638476,16.4980085 21.5503691,16.5349658 C21.5368905,16.574097 21.552543,16.615837 21.5881959,16.6358374 C22.270819,17.0506288 22.6882191,17.7958618 22.6877843,18.599357 C22.6843059,18.693272 22.6769145,18.7854479 22.6625664,18.8776237 C22.6647403,18.9019721 22.6734362,18.9267552 22.6877843,18.9463208 C22.7025672,18.9663212 22.726046,18.977191 22.7503943,18.9758866 L23.9121579,18.9758866 C23.9612893,18.977191 23.9999858,18.9393641 23.9999858,18.8897979 L23.9999858,16.5593141 C23.9999858,16.5101826 23.9621589,16.4710514 23.9147666,16.4710514 L23.9121579,16.4710514 L23.9121579,16.4710514 Z M6.93701828,16.6358374 C6.97223641,16.6171414 6.98832371,16.574097 6.97484517,16.5371397 C6.96614933,16.4953997 6.92832245,16.4684426 6.88832161,16.4710514 L4.08782793,16.4710514 C4.06434918,16.4706166 4.0421748,16.480182 4.02565271,16.4967041 C4.00913063,16.5132262 4,16.5358353 4,16.5593141 L4,17.7232516 C4,17.7728179 4.03782688,17.8119491 4.08521918,17.8132535 L5.92482308,17.8132535 C5.96047601,17.8132535 5.98960706,17.7897748 5.99960727,17.7567306 C6.18526334,17.2915034 6.51483549,16.8988865 6.93701828,16.6358374 L6.93701828,16.6358374 Z M8.05008517,19.6159001 C7.55616174,19.6206828 7.15180541,19.2198048 7.1470227,18.7215335 C7.14354436,18.2232621 7.54007444,17.8171666 8.03443266,17.8119491 C8.52879089,17.8071664 8.93271242,18.2084792 8.93662555,18.7067506 L8.93662555,18.714142 C8.93662555,19.2098046 8.54096505,19.6111174 8.05008517,19.6159001 L8.05008517,19.6159001 Z M8.05008517,16.828885 C7.0152808,16.8227979 6.16917605,17.661946 6.16308896,18.7067506 C6.1556975,19.749816 6.98962808,20.6028774 8.02486725,20.6089645 C9.06097599,20.6163559 9.90577636,19.7759035 9.91316782,18.7324033 L9.91316782,18.7189247 C9.91316782,17.6802072 9.08054162,16.8362764 8.05008517,16.828885 L8.05008517,16.828885 Z M20.4381718,19.5567684 C19.9425092,19.5545945 19.5446747,19.148499 19.5472835,18.6502276 C19.5494574,18.1515215 19.953379,17.7506435 20.4477372,17.7528175 C20.9399214,17.7554262 21.3377559,18.1589129 21.3377559,18.6550103 C21.3390603,19.1519773 20.9386171,19.5567684 20.4455632,19.5567684 L20.4381718,19.5567684 L20.4381718,19.5567684 Z M20.4381718,16.7697533 C19.4016282,16.7697533 18.5633497,17.6162928 18.5633497,18.659793 C18.5633497,19.7045976 19.4016282,20.5498328 20.4381718,20.5498328 C21.4734109,20.5498328 22.3134286,19.7045976 22.3134286,18.659793 C22.3134286,17.6162928 21.4734109,16.7697533 20.4381718,16.7697533 L20.4381718,16.7697533 Z M4.2369615,15.9836498 L16.2876497,15.9836498 C16.3111284,15.9836498 16.3333028,15.9745192 16.3502597,15.9575623 C16.366347,15.9410402 16.3754776,15.9184311 16.3754776,15.8949523 L16.3754776,8.09000556 C16.3754776,8.04217847 16.3389551,8.00130804 16.291128,8.00000367 L4.2369615,8.00000367 C4.19043879,7.99956888 4.15130753,8.03783055 4.15000315,8.08565764 L4.15000315,15.8949523 C4.15000315,15.9440838 4.18913441,15.9836498 4.2369615,15.9836498 L4.2369615,15.9836498 Z" id="Fill-1" fill="#FFFFFF"></path>
            </g>
        </g>
    </g>
</svg>