<?xml version="1.0" encoding="UTF-8"?>
<svg width="32px" height="32px" viewBox="0 0 32 32" version="1.1" xmlns="http://www.w3.org/2000/svg" xmlns:xlink="http://www.w3.org/1999/xlink">
    <!-- Generator: Sketch 53 (72520) - https://sketchapp.com -->
    <title>供水抢修队</title>
    <desc>Created with Sketch.</desc>
    <defs>
        <rect id="path-1" x="0" y="0" width="28" height="28" rx="14"></rect>
        <filter x="-10.7%" y="-10.7%" width="121.4%" height="121.4%" filterUnits="objectBoundingBox" id="filter-2">
            <feMorphology radius="0.5" operator="dilate" in="SourceAlpha" result="shadowSpreadOuter1"></feMorphology>
            <feOffset dx="0" dy="0" in="shadowSpreadOuter1" result="shadowOffsetOuter1"></feOffset>
            <feGaussianBlur stdDeviation="0.5" in="shadowOffsetOuter1" result="shadowBlurOuter1"></feGaussianBlur>
            <feComposite in="shadowBlurOuter1" in2="SourceAlpha" operator="out" result="shadowBlurOuter1"></feComposite>
            <feColorMatrix values="0 0 0 0 0   0 0 0 0 0   0 0 0 0 0  0 0 0 0.26 0" type="matrix" in="shadowBlurOuter1"></feColorMatrix>
        </filter>
    </defs>
    <g id="其他图标" stroke="none" stroke-width="1" fill="none" fill-rule="evenodd">
        <g id="应急保障资源" transform="translate(-358.000000, -263.000000)">
            <g id="供水抢修队" transform="translate(360.000000, 265.000000)">
                <g id="矩形">
                    <use fill="black" fill-opacity="1" filter="url(#filter-2)" xlink:href="#path-1"></use>
                    <rect stroke="#FFFFFF" stroke-width="1" stroke-linejoin="square" fill="#38AC83" fill-rule="evenodd" x="0.5" y="0.5" width="27" height="27" rx="13.5"></rect>
                </g>
                <path d="M8.14045552,20.9537925 C7.21404291,20.9567012 6.28763031,20.957186 5.36169133,20.9537925 C5.2158145,20.9533077 5.12203654,21.0134219 5.06899042,21.1423767 C4.97568608,21.3687748 4.97663333,21.5980817 5.07420031,21.8225406 C5.12535192,21.9403451 5.21534088,22.001429 5.35316606,21.9999746 C5.81968775,21.9956115 6.28668306,21.9985202 6.75320474,21.9985202 C7.21641104,21.9980355 7.67961735,21.9956115 8.14235002,21.9999746 C8.27401807,22.0009442 8.3635334,21.9485866 8.41752677,21.8336908 C8.52693439,21.599536 8.53119703,21.3639269 8.42084215,21.127833 C8.36495428,21.008574 8.2763862,20.9533077 8.14045552,20.9537925 L8.14045552,20.9537925 Z M16.4980612,11.0625716 C16.4232283,11.0388168 16.3469745,11.0058509 16.2707207,11.0053661 C15.5607552,11.001003 14.8503161,11.0029422 14.139877,11.0029422 C13.544529,11.0029422 12.9491811,11.0024574 12.3538331,11.0029422 C12.2112716,11.0029422 12.0682366,10.998579 11.9256751,11.0053661 C11.7698521,11.0131228 11.6845994,11.1071725 11.6827049,11.260367 C11.6812841,11.3684757 11.6765478,11.4765844 11.6860203,11.5837235 C11.690283,11.631718 11.7125434,11.6991042 11.7480653,11.7194654 C11.8228983,11.7616424 11.9124136,11.8018802 11.9957718,11.8023649 C13.1102139,11.8076977 14.2246561,11.8057585 15.3386246,11.8057585 C15.6592695,11.8057585 15.9799143,11.8125456 16.2996119,11.8009106 C16.3810756,11.7980018 16.4724854,11.7519465 16.5368986,11.6986194 C16.6088897,11.6389899 16.6046271,11.1929808 16.5487392,11.1134748 C16.5345304,11.0940831 16.5184272,11.0688739 16.4980612,11.0625716 L16.4980612,11.0625716 Z M21.2712648,13.8666113 C21.2622659,13.8981228 21.2542143,13.9281799 21.2447418,13.9577523 C21.1699088,14.1885135 21.0657111,14.3993982 20.8322135,14.5079917 C20.7701684,14.5370793 20.7564333,14.5714996 20.7564333,14.6340378 C20.7583278,15.701066 20.7573805,16.7680943 20.7602223,17.8351225 C20.7606959,17.869058 20.7900607,17.9189916 20.8198992,17.9349897 C20.9624606,18.0111022 21.0766045,18.114363 21.1457539,18.2612551 C21.195011,18.3669398 21.2357429,18.4765029 21.2807373,18.5846116 L23,18.5846116 L23,13.8666113 L21.2712648,13.8666113 Z M10.9623197,8.80877143 C11.5159886,8.62018715 12.0857607,8.49608028 12.66169,8.40106096 C12.6995801,8.39475865 12.7474164,8.39863699 12.7791493,8.41705911 C12.907502,8.49171715 13.0296975,8.57752542 13.1580502,8.65218346 C13.2068336,8.68078621 13.2229369,8.71084335 13.2224633,8.76707927 C13.2191479,9.15103491 13.2205688,9.53450576 13.2200952,9.9179766 C13.2200952,10.0285093 13.2200952,10.139042 13.2200952,10.2641184 C13.1267908,10.2641184 13.0443799,10.2646032 12.9614953,10.2641184 C12.8748218,10.2631488 12.7876746,10.2568465 12.7014746,10.2602401 C12.533811,10.2660576 12.4191935,10.3853165 12.4196671,10.547722 C12.4196671,10.7091579 12.5361791,10.8230842 12.7076318,10.8235689 C13.6581993,10.8240537 14.6082932,10.8240537 15.5588607,10.8225994 C15.6057497,10.8225994 15.6569013,10.8133883 15.6990541,10.7935118 C15.8084617,10.741639 15.8709803,10.6097755 15.8482463,10.4977884 C15.820776,10.3601073 15.7127892,10.2641184 15.5692805,10.2602401 C15.3992487,10.255877 15.229217,10.2592705 15.0587116,10.2592705 C15.05066,10.2350309 15.0468709,10.2287286 15.0468709,10.2219415 C15.0459237,9.73036192 15.0440292,9.23829756 15.0473446,8.74671799 C15.0478182,8.71617606 15.0823929,8.67690787 15.1112841,8.65703138 C15.2315851,8.57558625 15.3552015,8.49753466 15.4797652,8.42287662 C15.5100772,8.4049393 15.5531772,8.39136511 15.5853838,8.3981522 C16.0566417,8.50044341 16.5274261,8.60321942 16.9967895,8.71278252 C17.1919234,8.75835301 17.3809002,8.85385713 17.5774551,8.86888569 C18.2485832,8.92124328 18.9102388,8.34967295 19.0120684,7.68065934 C19.1167398,6.99225403 18.7193675,6.38335468 18.1330185,6.11332527 C17.8943109,6.00327738 17.6475517,5.96013085 17.3846893,6.04399995 C16.7954984,6.23161464 16.1982559,6.39014178 15.5839629,6.47061733 C15.5479673,6.47546525 15.4991838,6.46673899 15.4726608,6.44492333 C14.7489601,5.85977881 13.5345829,5.85541568 12.7980943,6.44152978 C12.770624,6.46334544 12.7232614,6.47643484 12.6882131,6.47158691 C12.1605936,6.40032242 11.6457621,6.27330679 11.1356668,6.12205154 C10.9670559,6.07211791 10.7932352,6.00521655 10.6217825,6.00618614 C10.2102015,6.00812531 9.87345333,6.20252709 9.60538097,6.50794635 C9.09433843,7.08921252 9.11138897,7.90511826 9.66174247,8.45244896 C10.0202774,8.80925622 10.4470145,8.98523589 10.9623197,8.80877143 L10.9623197,8.80877143 Z M17.7905868,14.5676212 C17.4680474,14.5642277 17.1777147,14.4522406 16.9390071,14.2263273 C16.7026677,14.002838 16.578104,13.7192344 16.4999557,13.4104216 C16.3948108,12.9930153 16.4047569,12.5673675 16.4057042,12.1417197 C16.4061778,11.9996755 16.4057042,11.9991907 16.2659845,11.9991907 C14.855526,11.9991907 13.4450676,11.9991907 12.0346091,11.9991907 L11.9072037,11.9991907 C11.9038883,12.0379741 11.9000993,12.0646377 11.8996257,12.0917861 C11.8944158,12.4645915 11.8996257,12.8383665 11.8816279,13.2106871 C11.8536839,13.7822574 11.5434589,14.1856047 11.0002098,14.3499494 C10.7790264,14.4168508 10.5455287,14.4464231 10.3162937,14.4827825 C9.50686674,14.6093134 8.76232655,14.8992193 8.08646214,15.3631657 C7.13494736,16.0166659 6.47708074,16.9091689 6.00724367,17.9514727 C5.68091531,18.6762374 5.47867697,19.4378464 5.34748255,20.2188471 C5.31669686,20.4025834 5.30817159,20.5901981 5.28922654,20.7812063 L8.19871152,20.7812063 C8.20818405,20.7448469 8.21528844,20.714305 8.22286645,20.6842479 C8.31522354,20.3279254 8.38958283,19.9653006 8.50420034,19.61625 C8.67044309,19.1091571 8.9266748,18.6447259 9.3661998,18.3237933 C10.0861114,17.7982783 10.8652263,17.7153787 11.6599709,18.1318155 C11.9266224,18.2714357 12.156331,18.4891075 12.3865133,18.6898116 C12.8321954,19.0791 13.3342391,19.3297377 13.9286398,19.3825801 C14.6935459,19.4509358 15.3774619,19.2521709 15.9898605,18.7833766 C16.2598273,18.576855 16.5411612,18.380514 16.8357566,18.2113214 C17.3288014,17.9277178 17.8753659,17.8554838 18.4366128,17.8617861 C19.1120035,17.869058 19.7873943,17.8719667 20.4627851,17.8768146 C20.4968862,17.8768146 20.5305136,17.8768146 20.5665092,17.8768146 L20.5665092,14.5724691 C20.5129895,14.5724691 20.467995,14.5724691 20.4234742,14.5724691 C19.545845,14.5714996 18.6682159,14.5758627 17.7905868,14.5676212 L17.7905868,14.5676212 Z" id="Fill-1" fill="#FFFFFF"></path>
            </g>
        </g>
    </g>
</svg>