<?xml version="1.0" encoding="UTF-8"?>
<svg width="32px" height="32px" viewBox="0 0 32 32" version="1.1" xmlns="http://www.w3.org/2000/svg" xmlns:xlink="http://www.w3.org/1999/xlink">
    <!-- Generator: Sketch 53 (72520) - https://sketchapp.com -->
    <title>卫生防疫队</title>
    <desc>Created with Sketch.</desc>
    <defs>
        <rect id="path-1" x="0" y="0" width="28" height="28" rx="14"></rect>
        <filter x="-10.7%" y="-10.7%" width="121.4%" height="121.4%" filterUnits="objectBoundingBox" id="filter-2">
            <feMorphology radius="0.5" operator="dilate" in="SourceAlpha" result="shadowSpreadOuter1"></feMorphology>
            <feOffset dx="0" dy="0" in="shadowSpreadOuter1" result="shadowOffsetOuter1"></feOffset>
            <feGaussianBlur stdDeviation="0.5" in="shadowOffsetOuter1" result="shadowBlurOuter1"></feGaussianBlur>
            <feComposite in="shadowBlurOuter1" in2="SourceAlpha" operator="out" result="shadowBlurOuter1"></feComposite>
            <feColorMatrix values="0 0 0 0 0   0 0 0 0 0   0 0 0 0 0  0 0 0 0.26 0" type="matrix" in="shadowBlurOuter1"></feColorMatrix>
        </filter>
    </defs>
    <g id="其他图标" stroke="none" stroke-width="1" fill="none" fill-rule="evenodd">
        <g id="应急保障资源" transform="translate(-358.000000, -386.000000)">
            <g id="卫生防疫队" transform="translate(360.000000, 388.000000)">
                <g id="矩形">
                    <use fill="black" fill-opacity="1" filter="url(#filter-2)" xlink:href="#path-1"></use>
                    <rect stroke="#FFFFFF" stroke-width="1" stroke-linejoin="square" fill="#38AC83" fill-rule="evenodd" x="0.5" y="0.5" width="27" height="27" rx="13.5"></rect>
                </g>
                <path d="M11.2333583,13.5502123 L11.2332788,13.5502123 L11.2332788,13.5501264 L6.7890794,13.5000422 C6.36195138,13.4954032 6.01126099,13.8735686 6.00688631,14.3434834 L6.00004589,15.0895054 C5.99543259,15.5592484 6.33920304,15.9449737 6.76641059,15.9500422 L11.2105304,15.9999546 C11.6375789,16.0047654 11.9887466,15.6269436 11.9931212,15.1565993 L11.9999616,14.4111787 C12.0041773,13.9412639 11.6603273,13.5551949 11.2333583,13.5502123 L11.2333583,13.5502123 Z M19.656411,22 L18.0985893,19.4031502 C18.0714221,19.3579968 18.0374041,19.3216478 18,19.2910339 L19.8706774,18 C19.8787882,18.0187399 19.8861903,18.0374798 19.8968997,18.0552504 L21.5,20.727706 L19.656411,22 Z M17.5564301,16.3732327 C17.5040147,16.3081133 17.4894274,16.2319098 17.5072289,16.1615123 C17.5278324,16.0795688 17.5901375,16.0118763 17.675024,15.9718942 L18.4635625,15.5463421 C18.6233635,15.4610338 18.8378874,15.4967933 18.9429655,15.6265702 C19.0478787,15.7563471 19.0039519,15.9314503 18.8448926,16.0170225 L18.0353386,16.4524052 C17.8757849,16.5396268 17.6619202,16.5033395 17.5564301,16.3732327 L17.5564301,16.3732327 Z M17.056362,14.8742471 L17.05628,14.8742471 C17.0210024,14.8305131 17,14.7770459 17,14.719567 C17,14.6995086 17.0026253,14.6798448 17.0074657,14.6608386 C17.0250224,14.5922454 17.0753955,14.527335 17.1538265,14.4840614 L17.9662765,14.0463932 C18.1251896,13.9610956 18.3380034,13.9967404 18.4426875,14.126035 C18.5478638,14.2555927 18.5042181,14.4299366 18.3450589,14.5152342 L17.5335113,14.9529024 C17.3747624,15.0391865 17.1617024,15.0034101 17.056362,14.8742471 L17.056362,14.8742471 Z M16.5329351,13.4530743 C16.3750983,13.5390595 16.1620228,13.503561 16.0563058,13.3737287 C16.0210121,13.3302102 16,13.2768967 16,13.219639 C16,13.1995232 16.0025444,13.1799333 16.0074691,13.1610008 C16.0279887,13.0812607 16.0901221,13.0136821 16.1747449,12.9737135 L16.9667194,12.5465486 C17.1249666,12.4610893 17.3386167,12.4965877 17.4431025,12.6260914 C17.5476704,12.7555294 17.5040868,12.9302607 17.3453471,13.0152598 L16.5329351,13.4530743 Z M15.0567739,11.8739741 C15.0212492,11.8303239 15,11.776813 15,11.7193577 C15,11.6993733 15.0025433,11.6799148 15.0073839,11.6610479 C15.0278126,11.5812417 15.0900014,11.5136627 15.1748341,11.4737596 L15.9666331,11.0466582 C16.1248945,10.9609355 16.3387811,10.9966971 16.4432222,11.1263329 C16.5476632,11.2554429 16.5039341,11.429715 16.3455907,11.5153062 L15.5331988,11.9532544 C15.3746914,12.0389771 15.1617892,12.0034785 15.0567739,11.8739741 L15.0567739,11.8739741 Z M14.0566019,10.8742687 L14.0566019,10.8742029 C14.0210822,10.8304137 14,10.7768278 14,10.7192969 C14,10.6992433 14.002625,10.6797157 14.0074649,10.6607798 C14.0247736,10.5923345 14.0751411,10.5272425 14.1545479,10.484308 L14.9664984,10.0464159 C15.1251478,9.96113867 15.3388406,9.99664344 15.4430209,10.1260386 C15.5476935,10.2555652 15.5040526,10.4299331 15.3457313,10.515539 L14.5332886,10.9531024 C14.3747211,11.0390371 14.1618487,11.0034666 14.0566019,10.8742687 L14.0566019,10.8742687 Z M22.9439465,19.9025323 L22.9439465,19.9024547 C22.8410835,19.7498104 22.6308325,19.7081378 22.4747199,19.8083228 L22.196109,19.988516 L20.5404429,17.4027199 C20.5332514,17.3915451 20.5244438,17.3828536 20.5164442,17.3726101 L20.7254832,17.2375816 C20.7291194,17.2354087 20.7331595,17.2340118 20.7368765,17.2316838 C20.7405127,17.2295109 20.74326,17.2262516 20.746977,17.2237683 L21.5356203,16.7140744 C21.6925409,16.6134239 21.7355284,16.4075442 21.6318574,16.2548999 C21.5290752,16.1023332 21.3185817,16.060195 21.1627116,16.1608455 L20.6458108,16.4949247 L15.0249495,8.16234594 C14.9641044,8.07240453 14.8601909,8.01381457 14.7421368,8.01381457 C14.7368846,8.01381457 14.7316324,8.01389217 14.7264609,8.01412498 L12.1279782,8.12369984 L10.1216243,5.14888192 C10.0179533,4.99631521 9.80754066,4.9540218 9.65183209,5.05467237 C9.57377579,5.10542446 9.52456639,5.18209583 9.507032,5.26536341 C9.48957842,5.348631 9.50420388,5.43787399 9.55551418,5.51407974 L11.5620296,8.48866485 L10.4378089,10.7854689 C10.4198705,10.8207005 10.408154,10.8617522 10.405649,10.9052097 C10.3936093,10.9470375 10.4102549,11.0373669 10.4597067,11.1112446 L16.0807296,19.4441338 L15.5639904,19.7780578 C15.4833484,19.8316035 15.4276747,19.9152591 15.4147462,20.011952 C15.4145038,20.0083047 15.4119988,20.0311974 15.4119988,20.0547886 C15.4119988,20.1225357 15.432927,20.185549 15.4688038,20.2381635 C15.5714244,20.3906527 15.7817562,20.4324028 15.9379496,20.3313643 L16.7308755,19.8190319 C16.733138,19.8177127 16.7353197,19.8169367 16.7375822,19.8153846 C16.7400063,19.8139102 16.7417032,19.8118925 16.7438041,19.8104956 L17.1607508,19.541137 C17.1710936,19.5960021 17.1907289,19.6495479 17.2225655,19.6987479 L18.8096294,22.1760556 L18.4760721,22.3917132 C18.3953492,22.445259 18.3397564,22.5291474 18.326747,22.6259178 C18.3264238,22.6225033 18.323838,22.6456289 18.323838,22.6692977 C18.323838,22.7370448 18.3446854,22.8000581 18.3805622,22.8528278 C18.4826171,23.0037649 18.693353,23.0458255 18.8491424,22.9451749 L22.8477902,20.3615517 C23.0039836,20.2608235 23.0469711,20.0549438 22.9439465,19.9025323 L22.9439465,19.9025323 Z M8.72861903,9.49937994 C9.24378919,9.51389342 9.68784329,9.27272418 9.88703568,8.87046256 C10.1294538,8.38220316 10.0375254,7.55479049 9.05411827,6.69669012 L8.82838375,6.5 L8.59936306,6.69315201 C7.68917855,7.46121105 7.31910538,8.24493887 7.58351558,8.84511812 C7.75793531,9.23929264 8.18656969,9.48421661 8.72861903,9.49937994 L8.72861903,9.49937994 Z M10.6140054,19.2806507 L9.68479364,19.2806507 L9.68479364,20.1769597 C9.68479364,20.3553131 9.51505413,20.5 9.3057341,20.5 C9.09649865,20.5 8.92675913,20.3553131 8.92675913,20.1769597 L8.92675913,19.2806507 L7.88607916,19.2806507 C7.67286874,19.2806507 7.5,19.1332965 7.5,18.9515548 C7.5,18.7698851 7.67286874,18.622603 7.88607916,18.622603 L8.92675913,18.622603 L8.92675913,17.8230403 C8.92675913,17.6446148 9.09649865,17.5 9.3057341,17.5 C9.51505413,17.5 9.68479364,17.6446148 9.68479364,17.8230403 L9.68479364,18.622603 L10.6140054,18.622603 C10.8272158,18.622603 11,18.7698851 11,18.9515548 C11,19.1332965 10.8272158,19.2806507 10.6140054,19.2806507 L10.6140054,19.2806507 Z M11.2387368,16.046318 L6.82571657,16.0000405 C6.40150618,15.9956672 6.05311815,16.3456899 6.04877416,16.7807135 L6.00004249,21.6569379 C5.99561952,22.092041 6.33705716,22.449538 6.76110959,22.4541499 L11.1740509,22.4999502 C11.5983402,22.5048006 11.9467283,22.1546984 11.9510723,21.7197543 L11.9999619,16.8431324 C12.0041479,16.4081883 11.6629472,16.0507708 11.2387368,16.046318 L11.2387368,16.046318 Z" id="Fill-1" fill="#FFFFFF"></path>
            </g>
        </g>
    </g>
</svg>