<?xml version="1.0" encoding="UTF-8"?>
<svg width="32px" height="32px" viewBox="0 0 32 32" version="1.1" xmlns="http://www.w3.org/2000/svg" xmlns:xlink="http://www.w3.org/1999/xlink">
    <!-- Generator: Sketch 53 (72520) - https://sketchapp.com -->
    <title>危险化学品应急救援队</title>
    <desc>Created with Sketch.</desc>
    <defs>
        <circle id="path-1" cx="14" cy="14" r="14"></circle>
        <filter x="-10.7%" y="-10.7%" width="121.4%" height="121.4%" filterUnits="objectBoundingBox" id="filter-2">
            <feMorphology radius="0.5" operator="dilate" in="SourceAlpha" result="shadowSpreadOuter1"></feMorphology>
            <feOffset dx="0" dy="0" in="shadowSpreadOuter1" result="shadowOffsetOuter1"></feOffset>
            <feGaussianBlur stdDeviation="0.5" in="shadowOffsetOuter1" result="shadowBlurOuter1"></feGaussianBlur>
            <feComposite in="shadowBlurOuter1" in2="SourceAlpha" operator="out" result="shadowBlurOuter1"></feComposite>
            <feColorMatrix values="0 0 0 0 0   0 0 0 0 0   0 0 0 0 0  0 0 0 0.28 0" type="matrix" in="shadowBlurOuter1"></feColorMatrix>
        </filter>
    </defs>
    <g id="其他图标" stroke="none" stroke-width="1" fill="none" fill-rule="evenodd">
        <g id="应急保障资源" transform="translate(-359.000000, -42.000000)">
            <g id="危险化学品应急救援队" transform="translate(361.000000, 44.000000)">
                <g id="Oval">
                    <use fill="black" fill-opacity="1" filter="url(#filter-2)" xlink:href="#path-1"></use>
                    <circle stroke="#FFFFFF" stroke-width="1" stroke-linejoin="square" fill="#38AC83" fill-rule="evenodd" cx="14" cy="14" r="13.5"></circle>
                </g>
                <path d="M20.3547161,11.3580655 C20.2439103,11.2573329 20.193544,11.0457946 20.2136906,10.8846225 C20.3043498,10.4111795 20.70728,9.80678425 20.6871335,8.82967856 C20.6569138,7.97345192 20.2640568,7.37912989 19.9114929,7.15751829 C19.5690023,6.93590669 19.1660721,6.48261023 18.8739477,6.11997307 C18.5918966,5.7573359 18.4005047,5.25367317 18.3098454,5.12272086 C18.3400652,4.91118251 17.856549,4.37730002 17.1816409,4.12546865 C16.5168061,3.86356403 15.7915318,4.06502913 15.3583818,4.24634771 C14.8244993,4.337007 13.7164413,4.41759304 13.0415333,4.50825233 C12.4270647,4.48810582 11.7118637,4.53847209 10.8254173,5.00184181 C9.93897085,5.46521152 9.37486859,6.26099863 9.31442907,6.32143816 C9.25398954,6.38187769 8.64959426,6.64378231 8.45820242,6.74451485 C7.56168276,6.72436834 7.14867932,7.97345192 7.13860607,9.08150992 C7.12853281,9.83700402 7.40051069,10.4514725 7.45087696,10.6428644 C7.59190253,11.1263806 7.58182927,11.499091 7.61204904,11.6804096 C7.48109673,11.5494573 7.17889909,11.6501898 7.11845956,11.8012887 C6.98750725,12.1840723 6.91699447,13.2921303 7.16882583,14.148357 C7.4206572,15.0045836 8.11571177,15.810444 8.48842219,16.0421289 C8.36754313,16.8983555 8.8409861,17.5833368 9.1734035,17.905681 C9.5058209,18.2280251 9.56626043,18.1877321 9.59648019,18.1373658 C10.6440987,15.8305905 12.8501414,15.6593452 13.8071006,15.6593452 C14.7640598,15.6694184 16.7988572,16.1428614 17.7558164,18.066853 C17.8061827,18.1877321 18.1889664,18.1575123 18.1990396,18.0164868 C18.1285268,17.0897473 19.4884162,15.4679533 20.112958,14.2994558 C20.7374998,13.1309583 20.8785254,12.0329735 20.8180858,11.6501898 C20.7878661,11.4688713 20.4655219,11.4688713 20.3547161,11.3580655 Z M11.248494,13.5467095 C10.7001069,13.5467095 10.248494,13.1015482 10.248494,12.5467095 C10.248494,11.9918708 10.6936552,11.5467095 11.248494,11.5467095 C11.796881,11.5467095 12.248494,11.9918708 12.248494,12.5467095 C12.248494,13.1015482 11.796881,13.5467095 11.248494,13.5467095 Z M16.3959271,13.5467095 C15.84754,13.5467095 15.3959271,13.1015482 15.3959271,12.5467095 C15.3959271,11.9918708 15.8410883,11.5467095 16.3959271,11.5467095 C16.9443142,11.5467095 17.3959271,11.9918708 17.3959271,12.5467095 C17.3959271,13.1015482 16.9507658,13.5467095 16.3959271,13.5467095 Z M19.7906139,9.85715053 C19.6798081,11.1968934 19.085486,11.8617282 18.8739477,12.0833398 C18.8739477,11.8718014 19.0754128,10.4514725 18.1386001,9.85715053 C17.2017874,9.26282851 15.2979423,9.15202271 14.612961,9.08150992 C13.9279797,9.01099714 12.6990426,8.76923903 10.7549045,9.18224247 C8.81076633,9.59524591 8.76040006,11.9926805 8.77047332,12.5164897 C8.3071036,12.7582479 8.25673733,10.9551353 8.25673733,10.4615458 C8.25673733,8.8196053 8.97193841,7.54030197 9.8382383,7.08700551 C10.7045382,6.63370905 11.7219369,6.76466136 12.0140613,6.87546716 C12.1953799,6.66392882 12.2961124,6.45239047 12.3867717,6.24085212 C12.4673578,6.02931378 12.7091159,6.2005591 12.910581,6.4020242 C13.3840239,6.94597995 13.7365878,7.34891013 14.9856714,7.38920315 C16.234755,7.42949617 17.4133258,6.54304976 18.2494059,6.87546716 C19.8711999,7.61081475 19.9114929,8.52748092 19.7906139,9.85715053 Z M13.625782,16.1025684 C11.4398858,16.1025684 9.67706623,17.8754612 9.67706623,20.0512842 C9.67706623,22.2271072 11.449959,24 13.625782,24 C15.8116783,24 17.5744978,22.2271072 17.5744978,20.0512842 C17.5845711,17.8653879 15.8116783,16.1025684 13.625782,16.1025684 Z M13.625782,16.9789415 C14.058932,16.9789415 14.4114959,17.3315054 14.4114959,17.7646554 C14.4114959,18.1978053 14.058932,18.5503693 13.625782,18.5503693 C13.1926321,18.5503693 12.8400682,18.1978053 12.8400682,17.7646554 C12.8400682,17.3315054 13.1926321,16.9789415 13.625782,16.9789415 Z M10.9664428,18.5201495 C11.1880544,18.1474391 11.6715706,18.0164868 12.0442811,18.2280251 C12.4270647,18.4496367 12.5479438,18.9331529 12.3364054,19.3058634 C12.1147938,19.6785738 11.6312776,19.8095261 11.2585672,19.5979877 C10.8757835,19.3763761 10.7448312,18.8928599 10.9664428,18.5201495 Z M12.0543543,21.8846165 C11.6715706,22.1062281 11.1981277,21.9752758 10.9765161,21.5924921 C10.7549045,21.2197817 10.8858568,20.7362655 11.2686405,20.5146539 C11.6514241,20.2930423 12.1248671,20.4239946 12.3464787,20.8067783 C12.558017,21.189562 12.4270647,21.6730782 12.0543543,21.8846165 Z M13.625782,19.2554971 C14.058932,19.2554971 14.4114959,19.608061 14.4114959,20.0412109 C14.4114959,20.4743609 14.058932,20.8269248 13.625782,20.8269248 C13.1926321,20.8269248 12.8400682,20.4743609 12.8400682,20.0412109 C12.8400682,19.608061 13.1926321,19.2554971 13.625782,19.2554971 Z M13.6358553,23.1337001 C13.2027053,23.1337001 12.8501414,22.7811362 12.8501414,22.3479862 C12.8501414,21.9148363 13.2027053,21.5622724 13.6358553,21.5622724 C14.0690052,21.5622724 14.4215692,21.9148363 14.4215692,22.3479862 C14.4215692,22.7811362 14.0790785,23.1337001 13.6358553,23.1337001 Z M15.2173563,18.2179519 C15.6001399,17.9963403 16.0735829,18.1272926 16.2951945,18.5100762 C16.5168061,18.8928599 16.3858538,19.3663029 16.0030701,19.5879145 C15.6202865,19.8095261 15.1468435,19.6785738 14.9252319,19.2957901 C14.7136935,18.9230797 14.8446458,18.4395635 15.2173563,18.2179519 Z M16.3052678,21.5924921 C16.0836562,21.9652026 15.6001399,22.0961549 15.2274295,21.8846165 C14.8446458,21.6630049 14.7237668,21.1794887 14.9353051,20.8067783 C15.1569167,20.4340679 15.640433,20.3031156 16.0131434,20.5146539 C16.3959271,20.7261923 16.5268794,21.2097085 16.3052678,21.5924921 Z" id="形状" fill="#FFFFFF"></path>
            </g>
        </g>
    </g>
</svg>