<?xml version="1.0" encoding="UTF-8"?>
<svg width="32px" height="32px" viewBox="0 0 32 32" version="1.1" xmlns="http://www.w3.org/2000/svg" xmlns:xlink="http://www.w3.org/1999/xlink">
    <!-- Generator: Sketch 53 (72520) - https://sketchapp.com -->
    <title>城市轨道交通运营保障队@4x</title>
    <desc>Created with Sketch.</desc>
    <defs>
        <rect id="path-1" x="0" y="0" width="28" height="28" rx="14"></rect>
        <filter x="-10.7%" y="-10.7%" width="121.4%" height="121.4%" filterUnits="objectBoundingBox" id="filter-2">
            <feMorphology radius="0.5" operator="dilate" in="SourceAlpha" result="shadowSpreadOuter1"></feMorphology>
            <feOffset dx="0" dy="0" in="shadowSpreadOuter1" result="shadowOffsetOuter1"></feOffset>
            <feGaussianBlur stdDeviation="0.5" in="shadowOffsetOuter1" result="shadowBlurOuter1"></feGaussianBlur>
            <feComposite in="shadowBlurOuter1" in2="SourceAlpha" operator="out" result="shadowBlurOuter1"></feComposite>
            <feColorMatrix values="0 0 0 0 0   0 0 0 0 0   0 0 0 0 0  0 0 0 0.26 0" type="matrix" in="shadowBlurOuter1"></feColorMatrix>
        </filter>
    </defs>
    <g id="其他图标" stroke="none" stroke-width="1" fill="none" fill-rule="evenodd">
        <g id="应急保障资源" transform="translate(-94.000000, -485.000000)">
            <g id="城市轨道交通运营保障队" transform="translate(96.000000, 487.000000)">
                <g id="矩形">
                    <use fill="black" fill-opacity="1" filter="url(#filter-2)" xlink:href="#path-1"></use>
                    <rect stroke="#FFFFFF" stroke-width="1" stroke-linejoin="square" fill="#38AC83" fill-rule="evenodd" x="0.5" y="0.5" width="27" height="27" rx="13.5"></rect>
                </g>
                <path d="M18.0848129,19.6557895 L20.2656466,23 L17.8630715,23 L17.4263629,21.8821053 L10.7921847,21.8821053 L10.3554761,23 L7.73432087,23 L9.91560612,19.6557895 L11.8796661,19.6557895 L11.443409,20.7736842 L16.98288,20.7736842 L16.3352686,19.6557895 L18.0848129,19.6557895 Z M17.9339746,15.0231579 C17.3224921,15.0231579 16.8288804,15.5442105 16.8288804,16.1808421 C16.8288804,16.8212632 17.326105,17.3385263 17.9339746,17.3385263 C18.5418441,17.3385263 19.0390688,16.8179474 19.0390688,16.1808421 C19.0377139,15.5442105 18.5472635,15.0231579 17.9339746,15.0231579 L17.9339746,15.0231579 Z M17.8111362,9.11347368 C17.8111362,8.68715789 17.4819111,8.34421053 17.0768153,8.34421053 L10.930378,8.34421053 C10.5234757,8.34421053 10.1960571,8.68905263 10.1960571,9.11347368 L9.21018841,13.2288421 C9.21018841,13.6551579 9.53941345,13.9981053 9.94496089,13.9981053 L18.0518453,13.9981053 C18.4587476,13.9981053 18.7861661,13.6532632 18.7861661,13.2288421 L17.8111362,9.11347368 Z M16.4617199,6.02315789 L11.5454733,6.02315789 C11.2040547,6.02315789 10.930378,6.31021053 10.930378,6.66736842 C10.930378,7.025 11.2040547,7.31157895 11.5454733,7.31157895 L16.4617199,7.31157895 C16.8026869,7.31157895 17.0768153,7.025 17.0768153,6.66736842 C17.0732024,6.31352632 16.7995256,6.02315789 16.4617199,6.02315789 L16.4617199,6.02315789 Z M10.0732187,17.3423158 C10.6847011,17.3423158 11.1783129,16.8212632 11.1783129,16.1846316 C11.1783129,15.5442105 10.6810882,15.0269474 10.0732187,15.0269474 C9.46489749,15.0269474 8.96767284,15.5475263 8.96767284,16.1846316 C8.96631801,16.8212632 9.46173621,17.3423158 10.0732187,17.3423158 L10.0732187,17.3423158 Z M19.5051322,18.6231579 L8.50025458,18.6231579 C7.67199844,18.6231579 7,17.9192632 7,17.0557368 L8.87418919,6.56789474 C8.87418919,5.70057895 9.54663924,5 10.3744438,5 L17.6255237,5 C18.4537798,5 19.1257783,5.70389474 19.1257783,6.56789474 L20.9999675,17.0557368 C21.0053868,17.9230526 20.3333884,18.6231579 19.5051322,18.6231579 L19.5051322,18.6231579 Z" id="Fill-1" fill="#FFFFFF"></path>
            </g>
        </g>
    </g>
</svg>