<?xml version="1.0" encoding="UTF-8"?>
<svg width="32px" height="32px" viewBox="0 0 32 32" version="1.1" xmlns="http://www.w3.org/2000/svg" xmlns:xlink="http://www.w3.org/1999/xlink">
    <!-- Generator: Sketch 53 (72520) - https://sketchapp.com -->
    <title>应急救援队伍</title>
    <desc>Created with Sketch.</desc>
    <defs>
        <circle id="path-1" cx="14" cy="14" r="14"></circle>
        <filter x="-10.7%" y="-10.7%" width="121.4%" height="121.4%" filterUnits="objectBoundingBox" id="filter-2">
            <feMorphology radius="0.5" operator="dilate" in="SourceAlpha" result="shadowSpreadOuter1"></feMorphology>
            <feOffset dx="0" dy="0" in="shadowSpreadOuter1" result="shadowOffsetOuter1"></feOffset>
            <feGaussianBlur stdDeviation="0.5" in="shadowOffsetOuter1" result="shadowBlurOuter1"></feGaussianBlur>
            <feComposite in="shadowBlurOuter1" in2="SourceAlpha" operator="out" result="shadowBlurOuter1"></feComposite>
            <feColorMatrix values="0 0 0 0 0   0 0 0 0 0   0 0 0 0 0  0 0 0 0.28 0" type="matrix" in="shadowBlurOuter1"></feColorMatrix>
        </filter>
    </defs>
    <g id="其他图标" stroke="none" stroke-width="1" fill="none" fill-rule="evenodd">
        <g id="应急保障资源" transform="translate(-94.000000, -771.000000)">
            <g id="应急救援队伍" transform="translate(96.000000, 773.000000)">
                <g id="Oval-Copy-11">
                    <use fill="black" fill-opacity="1" filter="url(#filter-2)" xlink:href="#path-1"></use>
                    <circle stroke="#FFFFFF" stroke-width="1" stroke-linejoin="square" fill="#38AC83" fill-rule="evenodd" cx="14" cy="14" r="13.5"></circle>
                </g>
                <path d="M17.280314,10.4928755 C18.2127399,10.8038541 18.7725013,11.2387143 18.5242283,11.4253014 C18.0883485,11.73628 16.6593765,11.5496928 14.1113915,11.5496928 C11.5628967,11.5496928 8.76663863,11.9223573 9.38757615,11.2387143 C9.51247738,11.1143229 9.88514185,10.86554 10.5687849,10.5550712 C10.8175677,9.00119803 11.8738753,7.69610767 13.2411613,7.38512911 L13.3655528,9.12558946 C13.3655528,9.18778517 13.4894344,9.24998088 13.5521399,9.24998088 L13.6138258,9.24998088 C13.4894344,9.18778517 13.4277485,9.00119803 13.4277485,8.87680661 L13.4277485,7.44783462 C13.4277485,7.13685606 13.6760215,6.88858301 13.9870001,6.88858301 C14.2974688,6.88858301 14.5462517,7.13685606 14.5462517,7.44783462 L14.5462517,8.87731641 C14.5462517,9.00119803 14.484056,9.12558946 14.3596646,9.25049068 L14.4223701,9.25049068 C14.5462517,9.25049068 14.6084474,9.18829497 14.6084474,9.12558946 L14.7328388,7.38563891 C16.0379292,7.75881318 17.032041,8.93951212 17.280314,10.4928755 Z M11.936071,16.7073488 C12.0604624,16.6456629 12.6819097,16.3346843 12.3709312,15.4022584 C11.5628967,14.532538 11.0036451,13.7250134 11.0036451,11.9223573 L17.0325508,11.9223573 C17.0325508,13.7250134 16.473809,14.532538 15.6647549,15.3405725 C15.2920904,16.3973898 15.8513421,16.6456629 15.9757335,16.6456629 C16.348398,16.7705641 16.6593765,16.9566414 17.0325508,17.0810329 L17.5918024,17.3298157 C18.8968928,17.951263 19.9532003,18.8209834 19.9532003,19.6912136 L19.9532003,20.1260738 C19.9532003,21.0579899 17.5290969,21.8038286 17.5290969,21.8038286 L16.5349851,21.6794372 C16.5349851,21.6794372 14.9189162,21.4933598 13.9248044,21.4933598 C12.9306926,21.4933598 11.3146236,21.6794372 11.3146236,21.6794372 L10.3821978,21.8038286 C10.3821978,21.8038286 7.95809436,20.9963039 7.95809436,20.1260738 L7.95809436,19.6907038 C7.95809436,18.8204736 9.07710739,18.0124391 10.3821978,17.3293059 L10.9812138,17.0810329 C10.9812138,17.0810329 11.6770921,16.8113482 11.936071,16.7073488 Z M19.3215569,10.6697765 C19.216744,10.5393949 19.0954126,10.4232046 18.9606179,10.3241314 C18.7465015,10.1615049 18.4727384,10.0080549 18.158701,9.8698988 C17.8395656,8.7060233 17.1559226,7.73077413 16.2352221,7.10830721 C16.5969078,6.81263316 17.021301,6.60340072 17.4760776,6.4965461 L17.6009788,8.23700645 C17.6009788,8.29920216 17.7248604,8.36139787 17.7870562,8.36139787 L17.8492519,8.36139787 C17.7248604,8.29920216 17.6626647,8.11261502 17.6626647,7.9882236 L17.6626647,6.55925161 C17.6626647,6.24827305 17.9109378,6 18.2219163,6 C18.5328949,6 18.781168,6.24827305 18.781168,6.55925161 L18.781168,7.9887334 C18.781168,8.11261502 18.719482,8.23751625 18.5950906,8.36190768 L18.6572863,8.36190768 C18.781168,8.36190768 18.8438735,8.29971196 18.8438735,8.23751625 L18.9677551,6.4975657 C20.2728455,6.87023018 21.2669573,8.05092911 21.5157401,9.60429252 C22.4476562,9.91527109 23.0074176,10.3501313 22.7591446,10.5367184 C22.3829115,10.8053835 21.2638984,10.7024037 19.3210471,10.6692667 L19.3215569,10.6697765 Z M19.5484183,11.0980092 L21.0793505,11.0980092 C21.0793505,12.9006653 20.5206087,13.70819 19.7120644,14.5157146 C19.3388902,15.5730417 19.8986516,15.8213148 20.023043,15.8213148 C20.3957075,15.9457062 20.706686,16.1322933 21.0793505,16.2566848 L21.6391119,16.5054676 C22.9442023,17.1264051 24,17.9961255 24,18.8663557 L24,19.3012159 C24,20.2336418 21.5764064,20.9794805 21.5764064,20.9794805 L20.8570773,20.8892457 C20.9325278,20.6960312 20.9722923,20.486503 20.9722923,20.2570926 L20.9722923,19.8222324 C20.9722923,18.4926716 19.7972012,17.3818154 18.0297214,16.5401341 L17.4459993,16.2801356 L17.3557646,16.2454691 C17.2091842,16.1935209 17.0655469,16.1336152 16.9254926,16.0660192 C16.8281679,16.0214385 16.7302782,15.9781018 16.6318473,15.93602 C17.4837246,15.0122607 17.9201142,14.0925798 18.025643,12.7472152 C18.6027376,12.7166272 18.7928934,12.617216 19.116617,12.3857664 C19.5473987,12.0630624 19.6911626,11.5578497 19.5484183,11.0980092 Z M8.67844307,10.6697765 L8.67895287,10.6692667 C6.73610155,10.7024037 5.61708853,10.8053835 5.24085545,10.5367184 C4.9925824,10.3501313 5.55234381,9.91527109 6.4842599,9.60429252 C6.73304275,8.05092911 7.72715455,6.87023018 9.03224491,6.4975657 L9.15612653,8.23751625 C9.15612653,8.29971196 9.21883205,8.36190768 9.34271367,8.36190768 L9.40490938,8.36190768 C9.28051796,8.23751625 9.21883205,8.11261502 9.21883205,7.9887334 L9.21883205,6.55925161 C9.21883205,6.24827305 9.4671051,6 9.77808366,6 C10.0890622,6 10.3373353,6.24827305 10.3373353,6.55925161 L10.3373353,7.9882236 C10.3373353,8.11261502 10.2751396,8.29920216 10.1507481,8.36139787 L10.2129438,8.36139787 C10.2751396,8.36139787 10.3990212,8.29920216 10.3990212,8.23700645 L10.5239224,6.4965461 C10.978699,6.60340072 11.4030922,6.81263316 11.7647779,7.10830721 C10.8440774,7.73077413 10.1604344,8.7060233 9.84129897,9.8698988 C9.5272616,10.0080549 9.25349851,10.1615049 9.03938212,10.3241314 C8.90458743,10.4232046 8.78325602,10.5393949 8.67844307,10.6697765 Z M8.45158166,11.0980092 C8.3088374,11.5578497 8.45260126,12.0630624 8.88338304,12.3857664 C9.20710662,12.617216 9.39726237,12.7166272 9.97435701,12.7472152 C10.0798858,14.0925798 10.5162754,15.0122607 11.3681527,15.93602 C11.2697218,15.9781018 11.1718321,16.0214385 11.0745074,16.0660192 C10.9344531,16.1336152 10.7908158,16.1935209 10.6442354,16.2454691 L10.5540007,16.2801356 L9.97027861,16.5401341 C8.20279881,17.3818154 7.02770768,18.4926716 7.02770768,19.8222324 L7.02770768,20.2570926 C7.02770768,20.486503 7.06747215,20.6960312 7.14292269,20.8892457 L6.42359359,20.9794805 C6.42359359,20.9794805 4,20.2336418 4,19.3012159 L4,18.8663557 C4,17.9961255 5.05579771,17.1264051 6.36088807,16.5054676 L6.92064949,16.2566848 C7.29331396,16.1322933 7.60429252,15.9457062 7.976957,15.8213148 C8.10134842,15.8213148 8.66110984,15.5730417 8.28793556,14.5157146 C7.4793913,13.70819 6.92064949,12.9006653 6.92064949,11.0980092 L8.45158166,11.0980092 Z" id="合并形状" fill="#FFFFFF" fill-rule="nonzero"></path>
            </g>
        </g>
    </g>
</svg>