<?xml version="1.0" encoding="UTF-8"?>
<svg width="32px" height="32px" viewBox="0 0 32 32" version="1.1" xmlns="http://www.w3.org/2000/svg" xmlns:xlink="http://www.w3.org/1999/xlink">
    <!-- Generator: Sketch 53 (72520) - https://sketchapp.com -->
    <title>建筑施工救援队@4x</title>
    <desc>Created with Sketch.</desc>
    <defs>
        <rect id="path-1" x="0" y="0" width="28" height="28" rx="14"></rect>
        <filter x="-10.7%" y="-10.7%" width="121.4%" height="121.4%" filterUnits="objectBoundingBox" id="filter-2">
            <feMorphology radius="0.5" operator="dilate" in="SourceAlpha" result="shadowSpreadOuter1"></feMorphology>
            <feOffset dx="0" dy="0" in="shadowSpreadOuter1" result="shadowOffsetOuter1"></feOffset>
            <feGaussianBlur stdDeviation="0.5" in="shadowOffsetOuter1" result="shadowBlurOuter1"></feGaussianBlur>
            <feComposite in="shadowBlurOuter1" in2="SourceAlpha" operator="out" result="shadowBlurOuter1"></feComposite>
            <feColorMatrix values="0 0 0 0 0   0 0 0 0 0   0 0 0 0 0  0 0 0 0.26 0" type="matrix" in="shadowBlurOuter1"></feColorMatrix>
        </filter>
    </defs>
    <g id="其他图标" stroke="none" stroke-width="1" fill="none" fill-rule="evenodd">
        <g id="应急保障资源" transform="translate(-94.000000, -526.000000)">
            <g id="建筑施工救援队" transform="translate(96.000000, 528.000000)">
                <g id="矩形">
                    <use fill="black" fill-opacity="1" filter="url(#filter-2)" xlink:href="#path-1"></use>
                    <rect stroke="#FFFFFF" stroke-width="1" stroke-linejoin="square" fill="#38AC83" fill-rule="evenodd" x="0.5" y="0.5" width="27" height="27" rx="13.5"></rect>
                </g>
                <path d="M16.7908281,9.4724375 L19.5150156,9.4724375 L16.7908281,6.4911875 L16.7908281,9.4724375 Z M15.9960156,9.4724375 L15.9960156,7.0649375 L14.5211406,9.471875 L15.9960156,9.471875 L15.9960156,9.4724375 Z M15.3159531,6.3753125 L8.73639062,9.4724375 L13.5007656,9.4724375 L15.3159531,6.3753125 Z M16.9050156,11.910875 L18.0395781,11.910875 L18.0395781,10.355 L16.9050156,10.355 L16.9050156,11.910875 Z M14.8563906,11.910875 L15.9909531,11.910875 L15.9909531,10.3578125 L14.8563906,10.3578125 L14.8563906,11.910875 Z M12.8831406,11.910875 L14.0177031,11.910875 L14.0177031,10.3578125 L12.8831406,10.3578125 L12.8831406,11.910875 Z M11.0207031,11.910875 L12.1552656,11.910875 L12.1552656,10.3578125 L11.0207031,10.3578125 L11.0207031,11.910875 Z M9.03395313,11.910875 L10.1685156,11.910875 L10.1685156,10.3578125 L9.03395313,10.3578125 L9.03395313,11.910875 Z M7.34589063,11.9935625 L8.28414062,11.9935625 L8.28414062,10.275125 L7.34589063,10.275125 L7.34589063,11.9935625 Z M20.7609531,9.471875 C20.8751406,9.58775 20.8751406,9.70025 20.8751406,9.816125 L20.8751406,12.453125 C20.8751406,12.6843125 20.6467656,12.9126875 20.4206406,12.9126875 L16.7908281,12.9126875 L16.7908281,21.8705 L19.7405781,21.8705 C20.0808906,21.8705 20.4206406,22.1118125 20.4206406,22.4555 C20.4206406,22.7991875 20.0808906,23 19.7405781,23 L10.4396406,23 C10.0993281,23 9.75957812,22.7789375 9.75957812,22.4358125 C9.75957812,22.0915625 10.0993281,21.8705 10.4396406,21.8705 L13.1857656,21.8705 L13.1857656,14.6136875 L12.1406406,14.6136875 C11.8003281,14.6136875 11.4600156,14.5158125 11.4600156,14.172125 L11.4600156,12.909875 L5.67470312,12.909875 L5.67470312,17.4970625 C5.67470312,17.72825 5.44632812,17.9560625 5.22076563,17.9560625 C4.99182813,17.9560625 4.76626562,17.724875 4.76626562,17.4970625 L4.76626562,12.6815 L4.42595313,12.6815 C4.31176563,12.6815 4.20039062,12.6815 4.08564062,12.5661875 C3.97145313,12.453125 3.97145313,12.1094375 4.08564062,11.9935625 L6.69507812,9.3565625 L16.2243906,5 L16.4505156,5 C16.5652656,5 16.6794531,5 16.7908281,5.1153125 L20.7609531,9.471875 Z" id="Fill-1" fill="#FFFFFF"></path>
            </g>
        </g>
    </g>
</svg>