<?xml version="1.0" encoding="UTF-8"?>
<svg width="32px" height="32px" viewBox="0 0 32 32" version="1.1" xmlns="http://www.w3.org/2000/svg" xmlns:xlink="http://www.w3.org/1999/xlink">
    <!-- Generator: Sketch 53 (72520) - https://sketchapp.com -->
    <title>抗旱服务队@4x</title>
    <desc>Created with Sketch.</desc>
    <defs>
        <rect id="path-1" x="0" y="0" width="28" height="28" rx="14"></rect>
        <filter x="-10.7%" y="-10.7%" width="121.4%" height="121.4%" filterUnits="objectBoundingBox" id="filter-2">
            <feMorphology radius="0.5" operator="dilate" in="SourceAlpha" result="shadowSpreadOuter1"></feMorphology>
            <feOffset dx="0" dy="0" in="shadowSpreadOuter1" result="shadowOffsetOuter1"></feOffset>
            <feGaussianBlur stdDeviation="0.5" in="shadowOffsetOuter1" result="shadowBlurOuter1"></feGaussianBlur>
            <feComposite in="shadowBlurOuter1" in2="SourceAlpha" operator="out" result="shadowBlurOuter1"></feComposite>
            <feColorMatrix values="0 0 0 0 0   0 0 0 0 0   0 0 0 0 0  0 0 0 0.26 0" type="matrix" in="shadowBlurOuter1"></feColorMatrix>
        </filter>
    </defs>
    <g id="其他图标" stroke="none" stroke-width="1" fill="none" fill-rule="evenodd">
        <g id="应急保障资源" transform="translate(-94.000000, -608.000000)">
            <g id="抗旱服务队" transform="translate(96.000000, 610.000000)">
                <g id="矩形">
                    <use fill="black" fill-opacity="1" filter="url(#filter-2)" xlink:href="#path-1"></use>
                    <rect stroke="#FFFFFF" stroke-width="1" stroke-linejoin="square" fill="#38AC83" fill-rule="evenodd" x="0.5" y="0.5" width="27" height="27" rx="13.5"></rect>
                </g>
                <path d="M21.9513714,20.4024191 L19.9070857,20.4024191 C19.8890857,20.2789905 19.8453714,20.1591619 19.7666857,20.0552762 L16.8836,16.3225905 L19.6797714,11.1144191 C19.8541143,10.8541905 19.8541143,10.5939619 19.6797714,10.3332191 L16.6213143,5.38579048 C16.4464571,5.03864763 15.9224,4.86481905 15.5726857,5.12556191 C15.2229714,5.2988762 15.0486286,5.81984763 15.3104,6.16699048 L18.1065714,10.6808762 L15.2229714,15.9754476 C15.1355429,16.2356762 15.1355429,16.5833333 15.3104,16.8435619 L17.9975429,20.4024191 L15.6256571,20.4024191 C15.6071429,20.2789905 15.5639429,20.1591619 15.4852571,20.0552762 L12.6016571,16.3225905 L15.3978286,11.1144191 C15.5726857,10.8541905 15.5726857,10.5939619 15.3978286,10.3332191 L12.3398857,5.38579048 C12.1650286,5.03864763 11.6404571,4.86481905 11.2912571,5.12556191 C10.9415429,5.2988762 10.7672,5.81984763 11.0289714,6.16699048 L13.7377143,10.6808762 L10.9415429,15.9754476 C10.8541143,16.2356762 10.8541143,16.5833333 11.0289714,16.8435619 L13.7161143,20.4024191 L11.1693714,20.4024191 C11.1508571,20.2789905 11.1076571,20.1591619 11.0289714,20.0552762 L8.14537143,16.3225905 L10.9415429,11.1144191 C11.1164,10.8541905 11.1164,10.5939619 10.9415429,10.3332191 L7.8836,5.38579048 C7.70874286,5.03864763 7.18417143,4.95173334 6.83497143,5.12556191 C6.48525714,5.2988762 6.3104,5.81984763 6.57268571,6.16699048 L9.36885714,10.6808762 L6.48525714,15.9754476 C6.39782857,16.2356762 6.39782857,16.5833333 6.57268571,16.8435619 L9.25931429,20.4024191 L6.04862857,20.4024191 C5.43662857,20.4024191 5,20.8364762 5,21.4438476 C5,22.0517333 5.43662857,22.4857905 6.04862857,22.4857905 L21.9513714,22.4857905 C22.5628571,22.4857905 23,22.0517333 23,21.4438476 C23,20.8364762 22.5628571,20.4024191 21.9513714,20.4024191" id="Fill-1" fill="#FFFFFF"></path>
            </g>
        </g>
    </g>
</svg>