<?xml version="1.0" encoding="UTF-8"?>
<svg width="32px" height="32px" viewBox="0 0 32 32" version="1.1" xmlns="http://www.w3.org/2000/svg" xmlns:xlink="http://www.w3.org/1999/xlink">
    <!-- Generator: Sketch 53 (72520) - https://sketchapp.com -->
    <title>森林草原消防队@4x</title>
    <desc>Created with Sketch.</desc>
    <defs>
        <rect id="path-1" x="0" y="0" width="28" height="28" rx="14"></rect>
        <filter x="-10.7%" y="-10.7%" width="121.4%" height="121.4%" filterUnits="objectBoundingBox" id="filter-2">
            <feMorphology radius="0.5" operator="dilate" in="SourceAlpha" result="shadowSpreadOuter1"></feMorphology>
            <feOffset dx="0" dy="0" in="shadowSpreadOuter1" result="shadowOffsetOuter1"></feOffset>
            <feGaussianBlur stdDeviation="0.5" in="shadowOffsetOuter1" result="shadowBlurOuter1"></feGaussianBlur>
            <feComposite in="shadowBlurOuter1" in2="SourceAlpha" operator="out" result="shadowBlurOuter1"></feComposite>
            <feColorMatrix values="0 0 0 0 0   0 0 0 0 0   0 0 0 0 0  0 0 0 0.26 0" type="matrix" in="shadowBlurOuter1"></feColorMatrix>
        </filter>
    </defs>
    <g id="其他图标" stroke="none" stroke-width="1" fill="none" fill-rule="evenodd">
        <g id="应急保障资源" transform="translate(-94.000000, -321.000000)">
            <g id="森林草原消防队" transform="translate(96.000000, 323.000000)">
                <g id="矩形">
                    <use fill="black" fill-opacity="1" filter="url(#filter-2)" xlink:href="#path-1"></use>
                    <rect stroke="#FFFFFF" stroke-width="1" stroke-linejoin="square" fill="#38AC83" fill-rule="evenodd" x="0.5" y="0.5" width="27" height="27" rx="13.5"></rect>
                </g>
                <path d="M21.0613463,11.9187859 C21.4027026,11.0941666 21.830034,9.82916277 21.3194058,8.99749088 C21.0460797,9.57987821 20.6364255,10.2863653 20.0198683,10.5600629 C19.9841123,9.5239994 19.6605671,8.20040417 19.8917091,7.19228005 C19.5709762,7.79880918 19.1798025,8.70426279 18.5723518,9.07601958 C18.5955196,8.3011759 18.578512,7.51466819 18.4582539,6.74809782 C18.3096052,5.79408932 17.8012536,5.00283463 18.0003893,4 C17.0803746,5.09641806 16.7055389,6.2317614 16.5668002,7.62208569 C16.0875087,7.14575959 15.3753343,6.34026393 14.6647669,6.25712387 C15.144728,7.20353718 15.1216942,8.35651219 14.881044,9.36789139 C14.4896026,8.96046439 13.8983559,8.26292875 13.3005472,8.19308025 C13.6405643,9.01281686 13.7360476,9.96167148 13.536912,10.8294205 C13.1098484,10.3993436 12.3403572,9.66288264 11.6668851,9.82956965 C12.6519838,10.4537305 12.4732036,12.1473193 12.5810074,13.1161113 C12.8055874,15.1304607 14.3697462,15.9710841 16.2420497,16.1549959 C15.3710489,15.5627077 14.287119,14.6750214 14.1033839,13.580909 C14.2597998,13.7050087 14.5011195,13.722776 14.6653026,13.8372462 C14.6944967,13.2243425 14.7244942,12.6127952 14.7536883,12.0005696 C15.0736177,12.3106156 15.3931454,12.6217466 15.7129408,12.931657 L16.0084972,10.4902144 C16.2273188,10.8459671 16.4461403,11.2010416 16.6644262,11.5569299 C16.8081199,11.1501811 16.9326634,10.5599273 17.2267466,10.2333347 C17.3583878,10.7168491 17.5569877,11.3004571 17.4956534,11.8070283 C17.8163863,11.5274986 18.1372532,11.2472908 18.4587896,10.9673543 C18.3886167,11.6001953 18.3177742,12.2334432 18.2476013,12.8660129 C18.6229727,12.6627063 18.9987458,12.4592641 19.3746528,12.2551437 C19.2629654,13.0116776 18.6952882,13.7418996 18.2782685,14.3549389 C18.6141341,14.3184549 18.9506693,14.2814284 19.2874724,14.2444019 C19.0137446,15.2028862 18.020343,15.8191805 17.1573773,16.1860547 C18.5158385,16.5721881 19.9613463,16.022894 20.9489894,15.0679361 C21.8426223,14.1144702 21.6879473,12.1561351 23.1666667,11.765526 C22.4649379,11.8172004 21.7630751,11.8672472 21.0613463,11.9187859 L21.0613463,11.9187859 Z M17.5792181,17.0154209 C16.7628557,16.9801576 15.8369486,16.8886086 15.4713533,16.8209301 C11.0954582,16.4331692 11.2679442,12.4920861 11.2656676,12.4518045 C11.227635,10.8225034 11.0298385,9.92491625 10.9348909,9.58123449 L10.3022636,10.5192389 C10.1789254,10.7035575 10.2453486,10.8534266 10.4491713,10.8534266 L10.933016,10.8534266 C11.1365709,10.8534266 11.203128,11.0022107 11.0789863,11.186665 L8.42862093,15.1175761 C8.30541664,15.3009453 8.3709024,15.4508144 8.57459124,15.4508144 L9.23587689,15.4508144 C9.43983356,15.4508144 9.50625675,15.6006836 9.38198111,15.7839172 L6.86031063,19.5246775 C6.73710634,19.7081824 6.8025921,19.8580516 7.00641485,19.8580516 L11.9186504,19.8580516 C12.1222053,19.8580516 12.2894685,20.0453541 12.2894685,20.2759219 L12.2894685,23.5810446 C12.2894685,23.8107987 12.4564639,24 12.6604206,24 L13.4686139,24 C13.6716332,24 13.8394321,23.8117481 13.8394321,23.5810446 L13.8394321,20.2759219 C13.8394321,20.0463035 14.0065614,19.8580516 14.2102502,19.8580516 L19.1251641,19.8580516 C19.3280494,19.8580516 19.3951422,19.7081824 19.2719379,19.5246775 L17.5792181,17.0154209 Z M7.42182759,15.9188672 L6.92860867,15.9188672 C6.72491983,15.9188672 6.4562809,16.068872 6.33280877,16.2522413 L4.062234,19.6213804 C3.93889579,19.8047497 4.00451547,19.9546188 4.20927565,19.9546188 L4.70262849,19.9546188 C4.90631733,19.9546188 5.17482234,19.8047497 5.29802663,19.6213804 L7.56873532,16.2522413 C7.69220745,16.068872 7.62565035,15.9188672 7.42182759,15.9188672 L7.42182759,15.9188672 Z M5.64447174,15.9188672 L6.13702108,15.9188672 C6.34084384,15.9188672 6.60921493,15.7700831 6.73268706,15.5860357 L9.12043982,12.0420719 C9.24471546,11.8588382 9.17815836,11.7100541 8.97446952,11.7100541 L8.59481281,11.7100541 C8.39099006,11.7100541 8.32443296,11.560185 8.44857467,11.3758663 L10.1175911,8.89970297 C10.2409293,8.7153843 10.2409293,8.41673109 10.1175911,8.23336182 L9.94885478,7.98299223 C9.82551657,7.79975858 9.62249732,7.79975858 9.49929303,7.98299223 L7.21197854,11.3758663 C7.08864033,11.560185 7.15412609,11.7100541 7.35888627,11.7100541 L7.73934648,11.7100541 C7.94316924,11.7100541 8.00959242,11.8588382 7.88625421,12.0420719 L5.4974301,15.5860357 C5.37435972,15.7700831 5.4399794,15.9188672 5.64447174,15.9188672 L5.64447174,15.9188672 Z M9.8786819,20.8398638 L9.38559689,20.8398638 C9.18164022,20.8398638 9.01464483,21.0270307 9.01464483,21.2577342 L9.01464483,23.0062525 C9.01464483,23.236956 9.18164022,23.4252079 9.38559689,23.4252079 L9.8786819,23.4252079 C10.083576,23.4252079 10.2505714,23.2379054 10.2505714,23.0062525 L10.2505714,21.2577342 C10.2505714,21.0279801 10.083576,20.8398638 9.8786819,20.8398638 L9.8786819,20.8398638 Z" id="Fill-1" fill="#FFFFFF"></path>
            </g>
        </g>
    </g>
</svg>