<?xml version="1.0" encoding="UTF-8"?>
<svg width="32px" height="32px" viewBox="0 0 32 32" version="1.1" xmlns="http://www.w3.org/2000/svg" xmlns:xlink="http://www.w3.org/1999/xlink">
    <!-- Generator: Sketch 53 (72520) - https://sketchapp.com -->
    <title>水 海上应急救援队</title>
    <desc>Created with Sketch.</desc>
    <defs>
        <circle id="path-1" cx="14" cy="14" r="14"></circle>
        <filter x="-10.7%" y="-10.7%" width="121.4%" height="121.4%" filterUnits="objectBoundingBox" id="filter-2">
            <feMorphology radius="0.5" operator="dilate" in="SourceAlpha" result="shadowSpreadOuter1"></feMorphology>
            <feOffset dx="0" dy="0" in="shadowSpreadOuter1" result="shadowOffsetOuter1"></feOffset>
            <feGaussianBlur stdDeviation="0.5" in="shadowOffsetOuter1" result="shadowBlurOuter1"></feGaussianBlur>
            <feComposite in="shadowBlurOuter1" in2="SourceAlpha" operator="out" result="shadowBlurOuter1"></feComposite>
            <feColorMatrix values="0 0 0 0 0   0 0 0 0 0   0 0 0 0 0  0 0 0 0.28 0" type="matrix" in="shadowBlurOuter1"></feColorMatrix>
        </filter>
    </defs>
    <g id="其他图标" stroke="none" stroke-width="1" fill="none" fill-rule="evenodd">
        <g id="应急保障资源" transform="translate(-359.000000, -121.000000)">
            <g id="水-海上应急救援队" transform="translate(361.000000, 123.000000)">
                <g id="Oval-Copy-2">
                    <use fill="black" fill-opacity="1" filter="url(#filter-2)" xlink:href="#path-1"></use>
                    <circle stroke="#FFFFFF" stroke-width="1" stroke-linejoin="square" fill="#38AC83" fill-rule="evenodd" cx="14" cy="14" r="13.5"></circle>
                </g>
                <path d="M17.7110016,6.0792343 L17.7110016,6.01521732 L18.7691109,6.01521732 L18.7691109,15.3969351 L17.7110016,15.3969351 L17.7110016,9.4931822 C17.4299824,9.6376181 17.0195488,9.86162248 16.7053814,10.0875276 C16.1772285,10.4672966 15.0408604,10.3045319 14.5447054,9.89764306 C14.0485504,9.49073894 13.504376,9.76199818 13.504376,9.76199818 C13.504376,9.76199818 13.5203825,6.07275651 13.504376,6.01522037 C14.7847722,6.20183891 14.7047549,6.62266159 15.69708,6.62266159 C16.4894904,6.62266159 17.383131,6.23529428 17.7110016,6.0792343 Z M13.1821218,16.4132797 C13.4899417,16.4132797 13.6951249,16.1007684 13.6951249,15.7882113 C13.6951249,15.4756543 13.4899417,15.1630819 13.1821218,15.1630819 C12.8743169,15.1630819 12.6691187,15.4756543 12.6691187,15.7882113 C12.6691187,16.1007684 12.8743169,16.4132797 13.1821218,16.4132797 Z M11.3353076,16.4132797 C11.6430673,16.4132797 11.8483107,16.1007684 11.745689,15.7882113 C11.745689,15.4756543 11.5405058,15.1630819 11.2326859,15.1630819 C10.924881,15.1630819 10.7196828,15.4756543 10.7196828,15.7882113 C10.7196828,16.1007684 11.0275027,16.4132797 11.3353076,16.4132797 Z M9.28325,16.3091347 C9.59106991,16.3091347 9.79625312,16.1007684 9.79625312,15.7882113 C9.79625312,15.4756543 9.59106991,15.1630819 9.28325,15.1630819 C8.97544513,15.1630819 8.77024689,15.4756543 8.77024689,15.7882113 C8.77024689,16.1007684 8.97544513,16.3091347 9.28325,16.3091347 Z M20.9798052,15.3714482 L20.9798052,17.2467601 L7.84681723,17.2467601 L7.84681723,14.3296015 L14.7211311,14.3296015 L14.7211311,15.3714482 L20.9798052,15.3714482 Z M20.4668021,20.372346 C20.6720605,20.372346 20.9798052,20.163995 20.9798052,19.7472777 C20.9798052,19.4347206 20.774622,19.1221483 20.4668021,19.1221483 C20.1589972,19.1221483 19.953814,19.4347206 19.953814,19.7472777 C19.953814,20.0597889 20.1589972,20.372346 20.4668021,20.372346 Z M6.00000301,17.8718895 L23.4423043,17.8718895 L20.6720605,21.7267498 L7.43643578,21.7267498 L6.00000301,17.8718895 Z" id="合并形状" fill="#FFFFFF"></path>
            </g>
        </g>
    </g>
</svg>