<?xml version="1.0" encoding="UTF-8"?>
<svg width="32px" height="32px" viewBox="0 0 32 32" version="1.1" xmlns="http://www.w3.org/2000/svg" xmlns:xlink="http://www.w3.org/1999/xlink">
    <!-- Generator: Sketch 53 (72520) - https://sketchapp.com -->
    <title>油气管道应急救援队@4x</title>
    <desc>Created with Sketch.</desc>
    <defs>
        <rect id="path-1" x="0" y="0" width="28" height="28" rx="14"></rect>
        <filter x="-10.7%" y="-10.7%" width="121.4%" height="121.4%" filterUnits="objectBoundingBox" id="filter-2">
            <feMorphology radius="0.5" operator="dilate" in="SourceAlpha" result="shadowSpreadOuter1"></feMorphology>
            <feOffset dx="0" dy="0" in="shadowSpreadOuter1" result="shadowOffsetOuter1"></feOffset>
            <feGaussianBlur stdDeviation="0.5" in="shadowOffsetOuter1" result="shadowBlurOuter1"></feGaussianBlur>
            <feComposite in="shadowBlurOuter1" in2="SourceAlpha" operator="out" result="shadowBlurOuter1"></feComposite>
            <feColorMatrix values="0 0 0 0 0   0 0 0 0 0   0 0 0 0 0  0 0 0 0.26 0" type="matrix" in="shadowBlurOuter1"></feColorMatrix>
        </filter>
    </defs>
    <g id="其他图标" stroke="none" stroke-width="1" fill="none" fill-rule="evenodd">
        <g id="应急保障资源" transform="translate(-94.000000, -403.000000)">
            <g id="油气管道应急救援队" transform="translate(96.000000, 405.000000)">
                <g id="矩形">
                    <use fill="black" fill-opacity="1" filter="url(#filter-2)" xlink:href="#path-1"></use>
                    <rect stroke="#FFFFFF" stroke-width="1" stroke-linejoin="square" fill="#38AC83" fill-rule="evenodd" x="0.5" y="0.5" width="27" height="27" rx="13.5"></rect>
                </g>
                <path d="M22.4567892,15.2808565 L18.9062149,11.5679527 L18.6964082,8.50341404 C18.6731681,8.15390468 18.4304379,7.86138054 18.1031395,7.78793292 L14.6661836,7.01356707 C14.4692881,6.9698784 14.2640004,7.03319531 14.1213318,7.18199006 C13.9412209,7.37067446 13.9412209,7.67649515 14.1213318,7.86517956 L15.639041,9.45190141 L15.4124498,10.6846817 L14.1600654,10.9873366 L12.6475207,9.40631323 C12.5610158,9.31577004 12.4435241,9.26448334 12.3208679,9.26448334 C12.1982117,9.26448334 12.08072,9.31577004 11.994215,9.40631323 C11.8521921,9.55510798 11.790864,9.76848598 11.8328253,9.97489911 L12.5713448,13.5706666 C12.6417107,13.9151106 12.9212377,14.1683783 13.2562828,14.1930719 L16.1890572,14.4121484 L19.7383404,18.1231527 C20.4923533,18.8886542 21.6937385,18.8791567 22.4367769,18.1022581 C23.1798152,17.3253596 23.1888531,16.069152 22.4567892,15.2808565 L22.4567892,15.2808565 Z M15.7570226,21.4298457 L12.6122655,21.4298457 L13.3571495,21.4298457 L13.3571495,21.4048412 L12.1160084,21.4048412 L12.1160084,22.0733657 L11.2057054,22.0733657 L11.2057054,21.4048412 L8.06124881,21.4048412 C7.69005246,21.4048412 7.35024587,21.2704521 7.0732188,21.0524975 C6.62329893,20.7426696 6.3238506,20.2109776 6.3238506,19.6084259 L6.3238506,8.62115592 L5,8.62115592 L5,7.08453233 L12.1160084,7.08453233 L12.1160084,8.62115592 L10.7921578,8.62115592 L10.7921578,16.8194862 L11.2057054,16.8194862 L11.2057054,15.1515958 L12.1160084,15.1515958 L12.1160084,16.8194862 L15.7570226,16.8194862 L15.7570226,15.5548987 L16.3278996,15.5548987 C16.4849121,15.7394133 16.6532843,15.9222254 16.833016,16.103335 C17.0127478,16.2844446 17.1895846,16.449488 17.3635266,16.5984651 L17.3635266,22.4835451 L15.7570226,22.4835451 L15.7570226,21.4298457 Z M9.12071877,11.668832 C8.26223569,11.8061893 7.74714585,11.0621706 7.6784672,10.3410448 C7.56400279,10.5127414 7.50677059,10.7187774 7.50677059,10.9362597 C7.50677059,11.5543676 8.02186044,12.0694574 8.65141469,12.0694574 C9.06348657,12.0694574 9.41832624,11.851975 9.62436217,11.5429211 C9.464112,11.6001533 9.29241539,11.6459391 9.12071877,11.668832 L9.12071877,11.668832 Z M8.67430757,12.3785113 C7.8730567,12.3785113 7.11759159,11.7489571 7.11759159,10.9591526 C7.11759159,10.1807946 8.67430757,8.14332813 8.67430757,8.14332813 C8.67430757,8.14332813 10.2310236,10.1807946 10.2310236,10.9591526 C10.2310236,11.7489571 9.47555844,12.3785113 8.67430757,12.3785113 Z" id="Fill-1" fill="#FFFFFF"></path>
            </g>
        </g>
    </g>
</svg>