<?xml version="1.0" encoding="UTF-8"?>
<svg width="32px" height="32px" viewBox="0 0 32 32" version="1.1" xmlns="http://www.w3.org/2000/svg" xmlns:xlink="http://www.w3.org/1999/xlink">
    <!-- Generator: Sketch 53 (72520) - https://sketchapp.com -->
    <title>消防救援队@4x</title>
    <desc>Created with Sketch.</desc>
    <defs>
        <rect id="path-1" x="0" y="0" width="28" height="28" rx="14"></rect>
        <filter x="-10.7%" y="-10.7%" width="121.4%" height="121.4%" filterUnits="objectBoundingBox" id="filter-2">
            <feMorphology radius="0.5" operator="dilate" in="SourceAlpha" result="shadowSpreadOuter1"></feMorphology>
            <feOffset dx="0" dy="0" in="shadowSpreadOuter1" result="shadowOffsetOuter1"></feOffset>
            <feGaussianBlur stdDeviation="0.5" in="shadowOffsetOuter1" result="shadowBlurOuter1"></feGaussianBlur>
            <feComposite in="shadowBlurOuter1" in2="SourceAlpha" operator="out" result="shadowBlurOuter1"></feComposite>
            <feColorMatrix values="0 0 0 0 0   0 0 0 0 0   0 0 0 0 0  0 0 0 0.26 0" type="matrix" in="shadowBlurOuter1"></feColorMatrix>
        </filter>
    </defs>
    <g id="其他图标" stroke="none" stroke-width="1" fill="none" fill-rule="evenodd">
        <g id="应急保障资源" transform="translate(-94.000000, -239.000000)">
            <g id="消防救援队" transform="translate(96.000000, 241.000000)">
                <g id="分组-4">
                    <g id="矩形">
                        <use fill="black" fill-opacity="1" filter="url(#filter-2)" xlink:href="#path-1"></use>
                        <rect stroke="#FFFFFF" stroke-width="1" stroke-linejoin="square" fill="#38AC83" fill-rule="evenodd" x="0.5" y="0.5" width="27" height="27" rx="13.5"></rect>
                    </g>
                    <g id="徽章" transform="translate(3.000000, 6.000000)" fill="#FFFFFF">
                        <path d="M7.77568425,10.9681346 C7.52494251,10.4629265 7.38356164,9.89094942 7.38356164,9.28507397 C7.38356164,7.93678349 8.08371127,6.75636546 9.13113498,6.10606865 L8.48749325,5.29919703 L8.33199666,5.45701929 L8.08562514,5.13415591 L8.21798926,4.97881513 C7.58483947,4.06701334 7.21506991,3.59162153 7.10868059,3.5526397 C6.59323003,3.39565964 5.90033696,4.09375319 5.03000138,5.64692034 C4.75762596,5.32643317 4.46295303,4.92371119 4.14598258,4.4387544 C3.6705269,3.7113192 3.74800027,3.07823591 3.82404573,2.88119577 C4.40550983,2.88119577 5.10499546,2.4778271 5.92250262,1.67108975 C7.01894847,0.468488342 8.14152292,0.16738681 9.29022597,0.767785159 C8.48749325,1.14339131 7.94826552,1.5799968 7.94826552,2.30224344 C7.94826552,2.7837412 8.29400439,3.42786403 8.98548214,4.23461194 L9.17025675,4.05377927 L9.44668011,4.3675001 L9.29022597,4.52765515 L10.1962129,5.6645995 C10.4547179,5.60437282 10.7237415,5.57257397 11,5.57257397 C11.2881981,5.57257397 11.5685225,5.60718084 11.8372449,5.67256734 L12.6293637,4.67851868 L12.4729096,4.51836363 L12.749333,4.2046428 L12.9341076,4.38547547 C13.6255853,3.57872756 13.9713242,2.93460473 13.9713242,2.45310697 C13.9713242,1.73086033 13.4320965,1.29425484 12.6293637,0.91864869 C13.7780668,0.318250341 14.9006412,0.619351872 15.9970871,1.82195329 C16.8145943,2.62869063 17.5140799,3.0320593 18.095544,3.0320593 C18.1715894,3.22909944 18.2490628,3.86218273 17.7736071,4.58961793 C17.4566367,5.07457472 17.1619637,5.4772967 16.8895883,5.79778387 C16.0192528,4.24461672 15.3263597,3.54652317 14.8109091,3.70350323 C14.7045198,3.74248506 14.3347502,4.21787687 13.7016005,5.12967866 L13.8339646,5.28501944 L13.5875931,5.60788282 L13.4320965,5.45006056 L12.8954858,6.12275765 C13.9281349,6.77643483 14.6164384,7.94823834 14.6164384,9.28507397 C14.6164384,9.87443809 14.4826583,10.4317262 14.2445711,10.9266827 L17.2567675,14.7712219 L17.0923039,16.3665232 L13.5964355,11.869315 C12.9391321,12.5651359 12.01876,12.997574 11,12.997574 C10.000103,12.997574 9.09498412,12.5810014 8.4403451,11.9076937 L4.96042909,16.3665232 L4.79596543,14.7712219 L7.77568425,10.9681346 Z M12.3807635,6.30414345 C11.9624252,6.09957385 11.4942381,5.98507397 11,5.98507397 C9.22461889,5.98507397 7.78538813,7.4625343 7.78538813,9.28507397 C7.78538813,11.1076136 9.22461889,12.585074 11,12.585074 C12.7753811,12.585074 14.2146119,11.1076136 14.2146119,9.28507397 C14.2146119,8.07678102 13.5820239,7.02016149 12.6382828,6.4451883 L12.6293637,6.45636922 L12.3807635,6.30414345 Z M12.4094394,10.3957371 C12.28359,10.2100276 12.1916997,10.1027029 12.1337686,10.0737631 C12.0468718,10.0303534 11.877593,10.0303534 11.7540694,10.1127065 C11.671434,10.2264044 11.6320439,10.3200521 11.5342278,10.5698269 C11.4452886,10.7218876 11.3753172,10.8737429 11.3243136,11.0253928 C11.3243136,11.4172624 11.3243136,11.633682 11.3243136,11.6746515 C11.3243136,11.7361059 11.1305154,11.9177622 10.9744549,11.9177622 C10.8183943,11.9177622 10.7050621,11.721282 10.6820081,11.6746515 C10.6738619,11.5965343 10.664789,11.5017899 10.6547894,11.3904183 C10.6556264,11.5234788 10.6509704,11.6077469 10.6408213,11.6432226 C10.6255977,11.696436 10.5543287,11.7101882 10.4848072,11.6963152 C10.457056,11.6827472 10.4738906,11.6232905 10.4622352,11.5960796 C10.3413598,11.5850721 10.3118758,11.5516178 10.294097,11.510304 C10.2880255,11.4866865 10.2849898,11.3250494 10.2849898,11.0253928 C10.2849898,11.0953264 10.2752877,11.1554746 10.2558836,11.2058376 C10.2410192,11.2452225 10.1040785,11.2465321 10.059075,11.2287605 C10.0290726,11.2169128 10.0125887,11.1491236 10.0096232,11.0253928 L9.97775888,10.5698269 C9.97775888,10.6586166 9.97123498,10.728967 9.95818718,10.7808782 C9.93478695,10.8118518 9.76680603,10.8431424 9.76680603,10.7332546 C9.76680603,10.659996 9.78635991,10.363408 9.82546767,9.84349035 C9.96336622,9.77680478 10.052449,9.72198641 10.0927159,9.67903525 C10.1531163,9.6146085 10.2505273,9.53814956 10.3904562,9.22302842 C10.4230276,9.14967757 10.4622352,8.96657634 10.4258655,8.94080062 C10.2558836,9.00891678 9.843523,9.1173028 9.76680603,9.08690538 C9.76680603,9.00891678 10.2009134,8.81380439 10.3904562,8.73665465 C10.4140624,8.71888407 10.399901,8.6749786 10.347972,8.60493825 L9.60187489,8.62239922 C9.94056049,8.54711823 10.1585634,8.50235407 10.2558836,8.48810674 C10.2932117,8.47732293 10.3029138,8.42216827 10.2849898,8.32264274 L9.70043008,8.28516934 C9.89935755,8.23824895 10.0571312,8.21478876 10.1737509,8.21478876 C10.3186092,8.21478876 10.294097,7.92520723 10.1737509,7.8549275 C9.95818718,7.76425314 9.60187489,7.84742657 9.49519082,7.79576393 C9.32281398,7.579381 9.15001254,7.28509113 8.97678649,6.91289432 C9.93878157,6.47789526 10.447524,6.26039572 10.5030137,6.26039572 C10.5862483,6.26039572 10.7403132,6.71959102 10.7858755,6.83807054 C10.8314378,6.95655007 11.0446364,7.59357018 10.9948153,7.59357018 C10.9449943,7.59357018 10.6408213,7.54929504 10.5543287,7.5796875 C10.4678361,7.61007996 10.4971744,7.80821473 10.5260325,7.8549275 C10.5548906,7.90164028 10.7858755,8.10641948 10.9365266,8.19329518 C10.9948153,8.23196157 11.4185942,8.21483066 11.4185942,8.25 C11.4185942,8.28516934 11.2396281,8.34632228 11.2554834,8.39764774 C11.2805861,8.54779498 11.9138969,9.01662512 12.1132631,9.16295388 C12.3126293,9.30928264 12.5849216,9.69263143 12.689365,9.81047529 C12.7938083,9.92831914 12.7718805,10.0820883 12.7317113,10.1735828 C12.7049319,10.2345792 12.5975079,10.3086306 12.4094394,10.3957371 Z M11.1930659,7.61321108 C11.3084484,7.61321108 11.5351781,7.5795777 11.6549878,7.72140957 C11.7747975,7.86324144 12.2596065,8.13469959 12.345763,8.57248637 C12.4032006,8.86434423 12.377674,9.03228457 12.2691829,9.07630739 L12.0515529,9.07630739 C11.5806487,8.73452934 11.3300427,8.50589923 11.2997348,8.39041706 C11.4100609,8.3460631 11.5063279,8.25 11.4664174,8.21686785 C11.3601818,8.14386253 11.1930659,8.23196157 10.9744549,8.14386253 C10.7454348,8.04421547 10.6131531,7.88616618 10.5777648,7.82396547 C10.5198563,7.71838321 10.5261599,7.61321108 10.6405049,7.61321108 C10.8575437,7.6373551 11.0776833,7.61321108 11.1930659,7.61321108 Z M9.47398791,7.8343329 C9.6337404,7.85212315 9.9762085,7.83024271 10.0879568,7.85632076 C10.1997051,7.88239881 10.276775,8.0217627 10.2210423,8.13998982 C10.1815851,8.20699455 10.0074326,8.19379026 9.8452734,8.22012447 C9.74751854,8.24004149 9.69228298,8.26646383 9.6795667,8.2993915 C9.9156161,8.32288048 10.1101216,8.33928255 10.2630833,8.34859772 C10.2630833,8.4129996 10.2820427,8.45202579 10.2376478,8.4654036 C10.1932529,8.4787814 9.96694512,8.51270931 9.96694512,8.51270931 C9.70486314,8.57215339 9.57483635,8.59879333 9.57483635,8.62300394 C9.59437981,8.67801079 10.3047942,8.62300394 10.337474,8.63667096 C10.3540815,8.65924641 10.3964746,8.71666514 10.3268168,8.73565353 C10.2146805,8.76622137 9.96694512,8.89178306 9.81422603,8.99531855 C9.77015565,9.03954608 9.66150694,9.11761107 9.81422603,9.11761107 C9.96694512,9.11761107 10.2521042,9.03016365 10.4148188,8.97624753 C10.4148188,9.04736724 10.4299513,9.03612955 10.354321,9.23763952 C10.2786907,9.43914949 10.1226328,9.6642998 9.9192531,9.76942191 C9.71587344,9.87454403 9.64541979,9.84407819 9.55792902,9.80703537 C9.47043824,9.76999255 9.29193913,9.5981215 9.27473491,9.4900088 C9.25753069,9.3818961 9.27473491,8.29484545 9.27473491,8.13998982 C9.27473491,7.98513419 9.37520814,7.90328047 9.47398791,7.8343329 Z M12.9843913,11.6632711 C12.8611474,11.8807501 12.2534841,12.208724 12.1654218,12.2796011 C12.0773596,12.3504782 11.614584,12.3777386 11.614584,12.3777386 C11.614584,12.3777386 11.5297833,12.1587056 11.3601818,11.7206397 C11.3601818,11.4468479 11.3654353,11.23179 11.3759424,11.0754658 C11.3759424,10.993403 11.5880716,10.5376479 11.7772854,10.1499484 C11.8363156,10.0992144 12.0057326,10.1150435 12.089593,10.1150435 C12.1833293,10.1766867 12.2783106,10.2812855 12.3745369,10.4288397 C12.6058884,10.8599238 12.8091732,11.2714009 12.9843913,11.6632711 Z" id="合并形状"></path>
                        <path d="M11.7826998,15.1393138 C11.9187479,15.1927219 12.0010669,15.3797069 12.0296566,15.7002688 L11.9781987,16.4639231 L9.96906624,16.4639231 L9.9192531,15.64774 C9.94665855,15.3592105 10.0087456,15.189735 10.1055144,15.1393138 L9.94977476,15.1393138 L9.94977476,14.880718 C9.98757011,14.7371979 10.0777145,14.6635956 10.2202078,14.6599113 L10.2202078,13.6125 L10.5215777,13.6125 L10.5215777,12.890625 L11.4256872,12.890625 L11.4256872,13.6125 L11.7772854,13.6125 L11.7772854,14.6601285 C11.8615654,14.6658563 11.9283396,14.7393861 11.9776079,14.880718 L11.9776079,15.1393138 L11.7826998,15.1393138 Z M10.3708927,3.09375 L10.3708927,2.0109375 L10.6220343,2.0109375 L10.6220343,0 L11.224774,0 L11.224774,2.0109375 L11.5261439,2.0109375 L11.5261439,3.09375 L11.6768288,3.09375 L11.6768288,3.5578125 L11.4256872,3.5578125 L11.4256872,5.671875 L10.5215777,5.671875 L10.5215777,3.5578125 L10.2202078,3.5578125 L10.2202078,3.09375 L10.3708927,3.09375 Z" id="矩形-2"></path>
                        <path d="M8.45504807,6.64263206 C8.45504807,6.64263206 8.38895234,6.72210816 8.25676088,6.88106036 C3.13207055,6.72210816 0.474675525,6.64263206 0.284575815,6.64263206 C0.183618062,6.52137391 0.00133322955,5.98507397 0.00133322955,5.74776304 C0.625813021,6.22824702 7.38356164,6.64263206 8.45504807,6.64263206 Z M8.21519546,6.91916883 L7.82424246,7.5796875 L7.00473451,6.88106036 L8.21519546,6.91916883 Z M6.94765688,6.88106036 C7.43583839,7.28827392 7.70032312,7.52114964 7.74111109,7.5796875 C7.78538813,7.5796875 7.47439357,7.96050509 7.38356164,8.81379279 C7.28607646,8.77518605 6.91129065,8.64299007 6.25920423,8.41720485 L7.38356164,7.5796875 C7.16791364,7.4923398 7.02261205,7.39713963 6.94765688,7.29408698 C6.87270171,7.19103433 6.79411395,7.05335879 6.71189359,6.88106036 L6.94765688,6.88106036 Z M6.67369451,6.88106036 C6.80492312,7.13567669 6.90037461,7.29189803 6.96004899,7.3497244 C6.52924874,7.38545078 5.06049201,7.5796875 4.97131687,7.53429067 C4.88091055,7.44291699 4.47744294,7.0427461 4.35252082,6.80565632 C4.83556877,6.82960194 5.60929334,6.85473662 6.67369451,6.88106036 Z M4.29260215,6.80565632 C4.49200124,7.09496975 4.70617585,7.34012657 4.93512598,7.54112678 C4.52239074,7.5796875 1.77770219,7.82978986 1.54455258,7.82978986 C1.48903686,7.92786498 1.45032915,7.98325354 1.3525744,8.1442766 C0.516580986,7.42978206 0.418839611,6.8930158 0.321142703,6.70759678 C0.803062156,6.70759678 2.12688197,6.7402833 4.29260215,6.80565632 Z M5.00919184,7.5796875 C5.46956526,7.54112678 6.87404874,7.42727033 6.96004899,7.38117054 C7.07657917,7.46882038 7.24204614,7.5796875 7.31226343,7.5796875 C7.2302017,7.6395069 6.73746069,8.00733818 6.23091404,8.38908817 C5.94261701,8.33918372 5.22450737,7.98446267 5.00919184,7.5796875 Z M4.96047593,7.5796875 C5.10329409,7.79439787 5.26988516,7.96006754 5.46024915,8.0766965 C5.32195259,8.24584557 4.64722551,8.49386242 4.35252082,8.59564698 C4.05781612,8.69743154 2.95544031,8.75880577 2.75018544,8.75880577 C2.72567603,8.834081 2.68499233,8.95142456 2.62813434,9.11083645 C2.06189131,8.91921995 1.64998136,8.61082193 1.39240446,8.18564238 C1.44938017,8.06302506 1.51240566,7.96285405 1.58148094,7.88512936 L4.96047593,7.5796875 Z M5.49345446,8.09514437 C5.60030941,8.17009748 6.08638629,8.41720485 6.18600942,8.41720485 C6.169647,8.42875455 5.4834975,8.83215585 4.12756091,9.62740874 L4.04923302,10.0296626 C3.56416187,9.96119437 3.10624335,9.66426158 2.67547747,9.13886425 C2.70274038,9.05600161 2.74024623,8.94502654 2.78799502,8.80593903 C3.47647225,8.76399461 3.94033013,8.72308613 4.17956866,8.68321359 C4.53842645,8.62340478 5.27786611,8.29879414 5.49345446,8.09514437 Z M6.22371504,8.45058894 C6.2809616,8.46677387 6.58229532,8.57044197 7.12771621,8.76159324 L5.54439619,10.1789155 L5.40878559,10.615144 C5.07170007,10.593649 4.80325879,10.5479021 4.60346176,10.4779034 C4.40366472,10.4079046 4.23071876,10.2656903 4.08462388,10.0512605 L4.16940657,9.65705873 C5.38762839,8.92771802 6.07239788,8.52556142 6.22371504,8.45058894 Z M7.16496222,8.78470873 L7.3634785,8.85870277 C7.33194172,9.34836803 7.34580659,9.70670914 7.4050731,9.93372612 C7.37503458,9.97539109 7.15068984,10.2144296 6.73203885,10.6508415 L6.70018391,10.9906179 C6.3695915,10.9603374 6.12225282,10.9267037 5.95816787,10.8897169 C5.79408291,10.8527301 5.62811001,10.7612058 5.46024915,10.615144 L5.58125499,10.2026578 L7.16496222,8.78470873 Z M7.4050731,10.0018343 C7.5250124,10.4881769 7.63022752,10.8014337 7.72071846,10.9416045 C7.72071846,10.9694287 7.67579788,11.0244758 7.58595673,11.1067457 L6.74048287,10.9906179 L6.76471288,10.6743086 L7.4050731,10.0018343 Z M13.5356915,6.64263206 C14.6071779,6.64263206 21.3649265,6.22824702 21.9894063,5.74776304 C21.9894063,5.98507397 21.8071215,6.52137391 21.7061637,6.64263206 C21.516064,6.64263206 18.858669,6.72210816 13.7339786,6.88106036 C13.6017872,6.72210816 13.5356915,6.64263206 13.5356915,6.64263206 Z M13.7755441,6.91916883 L14.986005,6.88106036 L14.1664971,7.5796875 L13.7755441,6.91916883 Z M15.0430826,6.88106036 L15.2788459,6.88106036 C15.1966256,7.05335879 15.1180378,7.19103433 15.0430826,7.29408698 C14.9681275,7.39713963 14.8228259,7.4923398 14.6071779,7.5796875 L15.7315353,8.41720485 C15.0794489,8.64299007 14.7046631,8.77518605 14.6071779,8.81379279 C14.516346,7.96050509 14.2053514,7.5796875 14.2496284,7.5796875 C14.2904164,7.52114964 14.5549011,7.28827392 15.0430826,6.88106036 Z M15.317045,6.88106036 C16.3814462,6.85473662 17.1551708,6.82960194 17.6382187,6.80565632 C17.5132966,7.0427461 17.109829,7.44291699 17.0194227,7.53429067 C16.9302475,7.5796875 15.4614908,7.38545078 15.0306905,7.3497244 C15.0903649,7.29189803 15.1858164,7.13567669 15.317045,6.88106036 Z M17.6981374,6.80565632 C19.8638576,6.7402833 21.1876774,6.70759678 21.6695968,6.70759678 C21.5718999,6.8930158 21.4741585,7.42978206 20.6381651,8.1442766 C20.5404104,7.98325354 20.5017027,7.92786498 20.4461869,7.82978986 C20.2130373,7.82978986 17.4683488,7.5796875 17.0556136,7.54112678 C17.2845637,7.34012657 17.4987383,7.09496975 17.6981374,6.80565632 Z M16.9815477,7.5796875 C16.7662322,7.98446267 16.0481225,8.33918372 15.7598255,8.38908817 C15.2532788,8.00733818 14.7605378,7.6395069 14.6784761,7.5796875 C14.7486934,7.5796875 14.9141604,7.46882038 15.0306905,7.38117054 C15.1166908,7.42727033 16.5211743,7.54112678 16.9815477,7.5796875 Z M17.0302636,7.5796875 L20.4092586,7.88512936 C20.4783339,7.96285405 20.5413594,8.06302506 20.5983351,8.18564238 C20.3407582,8.61082193 19.9288482,8.91921995 19.3626052,9.11083645 C19.3057472,8.95142456 19.2650635,8.834081 19.2405541,8.75880577 C19.0352992,8.75880577 17.9329234,8.69743154 17.6382187,8.59564698 C17.343514,8.49386242 16.6687869,8.24584557 16.5304904,8.0766965 C16.7208544,7.96006754 16.8874454,7.79439787 17.0302636,7.5796875 Z M16.4972851,8.09514437 C16.7128734,8.29879414 17.4523131,8.62340478 17.8111709,8.68321359 C18.0504094,8.72308613 18.5142673,8.76399461 19.2027445,8.80593903 C19.2504933,8.94502654 19.2879992,9.05600161 19.3152621,9.13886425 C18.8844962,9.66426158 18.4265777,9.96119437 17.9415065,10.0296626 L17.8631786,9.62740874 C16.507242,8.83215585 15.8210925,8.42875455 15.8047301,8.41720485 C15.9043532,8.41720485 16.3904301,8.17009748 16.4972851,8.09514437 Z M15.7670245,8.45058894 C15.9183417,8.52556142 16.6031111,8.92771802 17.821333,9.65705873 L17.9061156,10.0512605 C17.7600208,10.2656903 17.5870748,10.4079046 17.3872778,10.4779034 C17.1874807,10.5479021 16.9190395,10.593649 16.5819539,10.615144 L16.4463433,10.1789155 L14.8630233,8.76159324 C15.4084442,8.57044197 15.7097779,8.46677387 15.7670245,8.45058894 Z M14.8257773,8.78470873 L16.4094845,10.2026578 L16.5304904,10.615144 C16.3626295,10.7612058 16.1966566,10.8527301 16.0325717,10.8897169 C15.8684867,10.9267037 15.621148,10.9603374 15.2905556,10.9906179 L15.2587007,10.6508415 C14.8400497,10.2144296 14.6157049,9.97539109 14.5856664,9.93372612 C14.6449329,9.70670914 14.6587978,9.34836803 14.627261,8.85870277 L14.8257773,8.78470873 Z M14.5856664,10.0018343 L15.2260267,10.6743086 L15.2502567,10.9906179 L14.4047828,11.1067457 C14.3149416,11.0244758 14.2700211,10.9694287 14.2700211,10.9416045 C14.360512,10.8014337 14.4657271,10.4881769 14.5856664,10.0018343 Z" id="合并形状"></path>
                    </g>
                </g>
            </g>
        </g>
    </g>
</svg>