<?xml version="1.0" encoding="UTF-8"?>
<svg width="32px" height="32px" viewBox="0 0 32 32" version="1.1" xmlns="http://www.w3.org/2000/svg" xmlns:xlink="http://www.w3.org/1999/xlink">
    <!-- Generator: Sketch 53 (72520) - https://sketchapp.com -->
    <title>环境应急救援队</title>
    <desc>Created with Sketch.</desc>
    <defs>
        <rect id="path-1" x="0" y="0" width="28" height="28" rx="14"></rect>
        <filter x="-10.7%" y="-10.7%" width="121.4%" height="121.4%" filterUnits="objectBoundingBox" id="filter-2">
            <feMorphology radius="0.5" operator="dilate" in="SourceAlpha" result="shadowSpreadOuter1"></feMorphology>
            <feOffset dx="0" dy="0" in="shadowSpreadOuter1" result="shadowOffsetOuter1"></feOffset>
            <feGaussianBlur stdDeviation="0.5" in="shadowOffsetOuter1" result="shadowBlurOuter1"></feGaussianBlur>
            <feComposite in="shadowBlurOuter1" in2="SourceAlpha" operator="out" result="shadowBlurOuter1"></feComposite>
            <feColorMatrix values="0 0 0 0 0   0 0 0 0 0   0 0 0 0 0  0 0 0 0.26 0" type="matrix" in="shadowBlurOuter1"></feColorMatrix>
        </filter>
    </defs>
    <g id="其他图标" stroke="none" stroke-width="1" fill="none" fill-rule="evenodd">
        <g id="应急保障资源" transform="translate(-358.000000, -304.000000)">
            <g id="环境应急救援队" transform="translate(360.000000, 306.000000)">
                <g id="矩形">
                    <use fill="black" fill-opacity="1" filter="url(#filter-2)" xlink:href="#path-1"></use>
                    <rect stroke="#FFFFFF" stroke-width="1" stroke-linejoin="square" fill="#38AC83" fill-rule="evenodd" x="0.5" y="0.5" width="27" height="27" rx="13.5"></rect>
                </g>
                <path d="M9.81507274,12.0289792 C8.51009696,13.2456979 7.82423822,15.1293944 7.28986556,16.6991415 C7.28064467,16.7584187 7.33421366,16.8067186 7.3948081,16.7966195 L7.66221397,16.7553451 C7.70436662,16.7491978 7.72193022,16.7272433 7.73817656,16.7066061 C9.27411373,13.2496497 13.3791671,14.746947 16.1871483,13.2026671 C18.7659245,11.7883578 18.1345129,7.88967683 18.0054204,5.64900004 C17.9966386,5.50058759 17.8491043,4.54424935 16.7008837,5.26743074 C14.7996236,6.46395127 12.1940629,6.30983065 9.99992967,7.50591208 C7.94147527,8.6273482 7.62050041,11.2702315 7.6341122,14.6367353 C8.44818525,12.8061687 8.66860848,12.1993462 10.4469234,10.8399232 C12.2252383,9.48006118 12.7385346,9.46996211 14.0988358,8.95930032 C14.2393446,8.91890403 14.3407744,9.10990822 14.2037783,9.16918539 C12.4627861,10.0017002 10.9931515,10.9242285 9.81507274,12.0289792 M22.8090661,17.9114693 C22.6321128,17.7810596 22.4222277,17.6936806 22.2211245,17.6001544 C22.0709557,17.5303391 21.8966369,17.5044328 21.760519,17.4166148 C21.5589766,17.286205 21.4052951,17.2624941 21.2116563,17.4429602 C20.6338138,17.9808455 20.0436767,18.5064364 19.4482705,19.0250018 C19.3547443,19.1066726 19.2085273,19.1663888 19.0860211,19.1677061 C17.900917,19.1782443 16.7158128,19.1742924 15.5307086,19.1734143 C15.4560633,19.1734143 15.381418,19.1641934 15.3089681,19.1598025 L15.3089681,18.7554005 L15.5996457,18.7554005 C16.629312,18.7554005 17.6589783,18.7360805 18.6877664,18.7659387 C19.0438685,18.7760377 19.2085273,18.6175262 19.3327898,18.333874 C19.6765973,17.54922 19.2440936,16.871704 18.397967,16.871704 C17.1092375,16.871704 15.820069,16.8747776 14.5309004,16.8673131 C14.3908307,16.866874 14.2454919,16.8212086 14.1120085,16.7711523 C13.4494215,16.5213101 12.9773997,16.3878267 12.2906627,16.2192161 C11.3299336,15.9838638 10.678763,16.1537916 10.2466983,16.4018775 C8.37134448,17.4807219 7.04265784,18.2425433 5.16993855,19.3262176 C4.96751802,19.4430156 4.94380715,19.8838621 5.1102223,20.0520336 C5.84350277,20.7923395 6.58776049,21.5221072 7.3061119,22.2773422 C7.52697422,22.5096209 7.74168928,22.6264188 8.04949144,22.529819 C8.13818764,22.5021563 8.22556657,22.4701027 8.31118914,22.4345365 C8.70066206,22.271634 9.07740137,22.061749 9.48048608,21.9515373 C10.8262972,21.5827017 12.1356639,21.7877567 13.417807,22.276464 C13.5363613,22.3216903 13.666332,22.3612084 13.7910336,22.3616475 C15.7546445,22.3669166 17.7186946,22.3669166 19.6823055,22.3603302 C19.7806617,22.3598911 19.9101933,22.3146649 19.9725441,22.2435323 C20.7466599,21.3631566 21.5251667,20.4862937 22.2703026,19.5817681 C22.5372693,19.2572805 22.7260781,18.8660512 22.9346459,18.4954591 C23.0575911,18.2772314 23.0022658,18.0541736 22.8090661,17.9114693" id="Fill-1" fill="#FFFFFF"></path>
            </g>
        </g>
    </g>
</svg>