<?xml version="1.0" encoding="UTF-8"?>
<svg width="32px" height="32px" viewBox="0 0 32 32" version="1.1" xmlns="http://www.w3.org/2000/svg" xmlns:xlink="http://www.w3.org/1999/xlink">
    <!-- Generator: Sketch 53 (72520) - https://sketchapp.com -->
    <title>矿山应急救援队@4x</title>
    <desc>Created with Sketch.</desc>
    <defs>
        <rect id="path-1" x="0" y="0" width="28" height="28" rx="14"></rect>
        <filter x="-10.7%" y="-10.7%" width="121.4%" height="121.4%" filterUnits="objectBoundingBox" id="filter-2">
            <feMorphology radius="0.5" operator="dilate" in="SourceAlpha" result="shadowSpreadOuter1"></feMorphology>
            <feOffset dx="0" dy="0" in="shadowSpreadOuter1" result="shadowOffsetOuter1"></feOffset>
            <feGaussianBlur stdDeviation="0.5" in="shadowOffsetOuter1" result="shadowBlurOuter1"></feGaussianBlur>
            <feComposite in="shadowBlurOuter1" in2="SourceAlpha" operator="out" result="shadowBlurOuter1"></feComposite>
            <feColorMatrix values="0 0 0 0 0   0 0 0 0 0   0 0 0 0 0  0 0 0 0.26 0" type="matrix" in="shadowBlurOuter1"></feColorMatrix>
        </filter>
    </defs>
    <g id="其他图标" stroke="none" stroke-width="1" fill="none" fill-rule="evenodd">
        <g id="应急保障资源" transform="translate(-94.000000, -362.000000)">
            <g id="矿山应急救援队" transform="translate(96.000000, 364.000000)">
                <g id="矩形">
                    <use fill="black" fill-opacity="1" filter="url(#filter-2)" xlink:href="#path-1"></use>
                    <rect stroke="#FFFFFF" stroke-width="1" stroke-linejoin="square" fill="#38AC83" fill-rule="evenodd" x="0.5" y="0.5" width="27" height="27" rx="13.5"></rect>
                </g>
                <path d="M16.3177823,13.066374 C16.6142688,13.1716233 16.9005449,13.299056 17.1746932,13.4467196 C18.3579976,11.8658863 19.270567,10.6281865 19.9124016,9.73362013 C20.0936198,9.34621963 17.2049865,8.19945434 15.404576,8.38784799 C17.0754325,7.42892634 19.8411207,7.28620827 21.6119038,8.58050974 C23.382687,9.87481121 24.2414964,11.8797858 23.94105,14.638455 C23.382687,13.5338625 22.2910539,11.0070797 21.2298131,10.8038988 C21.0068937,11.1283089 20.1245168,12.3550556 18.5826825,14.4841392 C18.8148037,14.7114037 19.029657,14.9568244 19.2250398,15.2181581 C19.5518722,15.0385175 19.7586859,14.8760471 19.9098033,14.7095769 C20.0128195,14.5919786 20.0648006,14.4146563 20.1900831,14.5208883 C20.6224489,15.0283075 20.9781766,15.841931 21.0360823,16.0178857 C21.0882104,16.1912259 20.981083,16.2154492 20.798258,16.2304386 C20.5653027,16.2460151 20.2885288,16.3358187 19.9679365,16.4998494 C20.1401495,16.8975408 20.2734096,17.3166558 20.3627939,17.7521814 C20.6980609,17.7195956 20.9411681,17.661957 21.1421348,17.5840787 C21.3014093,17.5193158 21.4349794,17.3788539 21.5162879,17.5277927 C21.7334041,18.1704259 21.7334041,19.0610476 21.7137832,19.2457744 C21.6893827,19.4257196 21.5679731,19.4034773 21.372656,19.3414461 C21.1454851,19.2658783 20.851927,19.2322211 20.4919815,19.2404744 C20.465215,20.1950664 20.2312886,21.0968265 19.834373,21.9007744 C19.7937392,21.9595912 19.7393187,22.0067984 19.648061,21.9755573 C19.1671385,21.789441 18.8183729,21.6596067 18.6812667,21.6061394 C18.5508166,21.5552677 18.5589439,21.4278133 18.5967475,21.3310014 C18.9427072,20.6495995 19.1381002,19.8760767 19.1381002,19.0560807 C19.1381002,17.7161582 18.6163711,16.5003257 17.7684985,15.6077543 C17.0683889,16.5734339 16.2637787,17.6821017 15.354668,18.9337578 C15.534187,19.1782725 15.7136657,19.4231516 15.8929918,19.668418 C15.9187861,19.7036971 15.9187861,19.7645777 15.8929918,19.8510597 L12.658236,19.8510597 C12.6589846,19.7822057 12.6660488,19.7389602 12.6794286,19.7213232 C12.8365775,19.5141716 13.0113915,19.3100357 13.1674585,19.0797875 C13.2233269,18.9872892 13.1904308,18.8942193 13.147907,18.8282039 C12.3880087,17.7299088 11.5667455,16.6678483 10.7793045,15.5936249 C9.92348815,16.4874734 9.39622785,17.7090743 9.39622785,19.0560807 C9.39622785,19.884772 9.5957868,20.6659993 9.94863716,21.3526472 C9.99515144,21.4708682 9.95064554,21.5813802 9.85580627,21.6220117 C9.68599189,21.7012516 9.23858362,21.9130861 9.02561054,21.9830007 C8.82858508,22.0406781 8.72590793,21.9382978 8.68676389,21.8738967 C8.29516217,21.071222 8.06564709,20.1720657 8.04182535,19.2208338 C7.69626795,19.2067272 7.41681554,19.2397348 7.2034681,19.3198567 C7.03046219,19.3818879 6.92292125,19.4041301 6.90130802,19.224185 C6.88392845,19.0394582 6.88392845,18.1488365 7.07624334,17.5062033 C7.14826388,17.3572645 7.26657624,17.4977264 7.40765671,17.5624892 C7.60059007,17.6468963 7.83737104,17.707528 8.17440819,17.7382562 C8.26319926,17.3104449 8.39434302,16.8985451 8.56316242,16.5073197 C8.24367357,16.3441331 7.96776652,16.2547726 7.73544127,16.2392383 C7.55261631,16.2242489 7.44548888,16.2000255 7.49761702,16.0266854 C7.55552266,15.8507306 7.91125042,15.0371072 8.34361622,14.5296879 C8.46889866,14.4234559 8.5208798,14.6007783 8.62389595,14.7183766 C8.77436329,14.8841307 8.9800488,15.0459193 9.30444834,15.2246404 C9.50559286,14.9548849 9.72746087,14.7020308 9.96763689,14.4685377 C9.23184359,13.4379243 8.50682704,12.4064213 7.73660748,11.4024914 C7.69280782,11.3486214 7.62293682,11.3666992 7.59274918,11.3891615 C6.87421699,11.9238126 6.26777345,12.3834956 5.77341855,12.7682105 C5.62269855,12.8396506 5.49387371,12.7898943 5.44476095,12.7226913 C4.98255835,12.0902404 4.51482608,11.4163295 4.0502008,10.770811 C3.98088431,10.6745074 3.97936479,10.5952989 4.07074665,10.521941 C5.45452127,9.41109839 6.83917077,8.35511 8.37685878,7.25607359 C8.43120391,7.21642743 8.51664883,7.19059164 8.60245789,7.25607359 C8.71491839,7.38392833 8.8201198,7.53485342 8.95217265,7.67412343 C8.97469977,7.69788174 9.01671528,7.70801796 9.06406402,7.67747155 C9.37520016,7.47674625 9.68125258,7.2569677 9.98222129,7.0181359 C10.0150448,6.99196097 10.0492479,6.99196097 10.0811127,7.03240973 C10.4771994,7.53519691 10.8123532,8.00732693 11.1952625,8.54112697 C11.2359146,8.59231767 11.2359146,8.70155551 11.1779171,8.73653065 C10.484872,9.24944075 9.85761358,9.72325978 9.24460649,10.1891542 C9.15760963,10.2720776 9.13083124,10.3385639 9.20108612,10.4404079 C9.89355431,11.4442346 10.6085775,12.449702 11.3378329,13.4585193 C11.6191848,13.305515 11.9134243,13.1738645 12.2184642,13.0656934 C12.139876,12.7442349 11.9042955,12.3164177 11.8224905,12.2218732 C11.7237006,12.1076987 11.7522397,12.0020057 11.9733688,11.9211825 C12.1944979,11.8403594 13.3027835,11.5950392 13.4000104,11.5950392 C13.4972373,11.5950392 13.6252395,11.5368883 13.6252395,11.7093032 C13.6252395,11.8607208 13.5886726,12.5080654 13.6744849,12.7428759 C13.8695651,12.7241204 14.0672646,12.714529 14.267164,12.714529 C14.4661908,12.714529 14.6630369,12.7240368 14.8572882,12.7426308 C14.9566845,12.5336682 14.9171955,11.8407594 14.9171955,11.6834081 C14.9171955,11.5109932 15.0451977,11.5691441 15.1424246,11.5691441 C15.2396515,11.5691441 16.3479371,11.8144642 16.5690662,11.8952874 C16.7901953,11.9761106 16.8187344,12.0818036 16.7199445,12.1959781 C16.6358634,12.2931531 16.3893306,12.7424045 16.3177823,13.066374 Z M14.2100387,17.3786979 C14.9844461,16.3572462 15.6931304,15.4190928 16.3360917,14.5642379 C15.7081332,14.2637811 15.006906,14.0958571 14.267164,14.0958571 C13.5108895,14.0958571 12.7948706,14.2713708 12.1562438,14.5845808 C12.8336143,15.512163 13.5203518,16.4430961 14.2100387,17.3786979 Z" id="合并形状" fill="#FFFFFF"></path>
            </g>
        </g>
    </g>
</svg>