<?xml version="1.0" encoding="UTF-8"?>
<svg width="32px" height="32px" viewBox="0 0 32 32" version="1.1" xmlns="http://www.w3.org/2000/svg" xmlns:xlink="http://www.w3.org/1999/xlink">
    <!-- Generator: Sketch 53 (72520) - https://sketchapp.com -->
    <title>社会救援队</title>
    <desc>Created with Sketch.</desc>
    <defs>
        <circle id="path-1" cx="14" cy="14" r="14"></circle>
        <filter x="-10.7%" y="-10.7%" width="121.4%" height="121.4%" filterUnits="objectBoundingBox" id="filter-2">
            <feMorphology radius="0.5" operator="dilate" in="SourceAlpha" result="shadowSpreadOuter1"></feMorphology>
            <feOffset dx="0" dy="0" in="shadowSpreadOuter1" result="shadowOffsetOuter1"></feOffset>
            <feGaussianBlur stdDeviation="0.5" in="shadowOffsetOuter1" result="shadowBlurOuter1"></feGaussianBlur>
            <feComposite in="shadowBlurOuter1" in2="SourceAlpha" operator="out" result="shadowBlurOuter1"></feComposite>
            <feColorMatrix values="0 0 0 0 0   0 0 0 0 0   0 0 0 0 0  0 0 0 0.28 0" type="matrix" in="shadowBlurOuter1"></feColorMatrix>
        </filter>
    </defs>
    <g id="其他图标" stroke="none" stroke-width="1" fill="none" fill-rule="evenodd">
        <g id="应急保障资源" transform="translate(-359.000000, -83.000000)">
            <g id="社会救援队" transform="translate(361.000000, 85.000000)">
                <g id="Oval-Copy-3">
                    <use fill="black" fill-opacity="1" filter="url(#filter-2)" xlink:href="#path-1"></use>
                    <circle stroke="#FFFFFF" stroke-width="1" stroke-linejoin="square" fill="#38AC83" fill-rule="evenodd" cx="14" cy="14" r="13.5"></circle>
                </g>
                <path d="M10.9899835,14.5150547 C9.6832756,13.6594164 8.89580813,12.2028292 8.89552215,10.6409066 C8.89552215,8.07731014 10.9819123,6 13.5545888,6 C16.1272653,6 18.2136554,8.07731014 18.2136554,10.6409066 C18.2136554,13.204503 16.1272653,15.2818132 13.5545888,15.2818132 C10.0507043,15.2818132 7.21067128,18.1087306 7.21067128,21.594455 L6,21.594455 C6,18.3357315 8.08033682,15.5612764 10.9899835,14.5160636 L10.9899835,14.5150547 Z M13.5545888,14.0711419 C14.4667529,14.0735532 15.3425147,13.7135084 15.989215,13.0702138 C16.6359152,12.4269192 17.0005792,11.5530707 17.0029842,10.6409066 C17.0029842,8.74721492 15.4593783,7.21067128 13.5545888,7.21067128 C12.6424247,7.20825993 11.7666629,7.56830475 11.1199626,8.21159935 C10.4732624,8.85489394 10.1085984,9.72874246 10.1061934,10.6409066 C10.1061934,12.5345982 11.6497993,14.0711419 13.5545888,14.0711419 Z M19.5655717,15.1809239 C19.9893067,15.1748705 20.3141701,15.2222885 20.6390336,15.3806846 C21.2443692,15.6752813 21.6549886,16.1726654 21.8557582,16.8234013 C22.1372393,17.738467 22.0070921,18.6192303 21.46229,19.4021311 C21.1959424,19.7845014 20.8771323,20.1204627 20.4433084,20.503842 C19.9802266,20.9114346 19.4939403,21.2847249 18.8018399,21.7770646 C18.4164429,22.0524923 17.9160321,22.0595545 17.5296262,21.7861446 C16.6952719,21.1929157 16.1565232,20.7732163 15.6389612,20.2879389 C15.3103524,19.9915005 15.02113,19.6541309 14.7783757,19.2840906 C14.5279481,18.9078638 14.3753674,18.4750896 14.3344629,18.0249925 C14.2709026,17.1987094 14.4636011,16.4884489 14.9781364,15.9083355 C15.3857291,15.4492894 15.9164067,15.2011017 16.5318313,15.1819328 C16.9999575,15.1688172 17.3863634,15.2333863 17.7525915,15.4281026 C17.8998898,15.5057873 18.0310459,15.5965877 18.1591752,15.706557 C18.549484,15.3679972 19.0488865,15.1817065 19.5655717,15.1819328 L19.5655717,15.1809239 Z M19.6412387,19.5958385 C20.0094845,19.2719839 20.2667522,19.0005918 20.4685307,18.7110396 C20.7984386,18.23686 20.8720878,17.7425025 20.6985582,17.1795404 C20.5946423,16.8425702 20.4059794,16.6145605 20.108356,16.4692799 C19.9872889,16.4107641 19.835955,16.3885685 19.5857496,16.3926041 C19.3334516,16.3871991 19.0896766,16.4839814 18.9097914,16.6609695 C18.8694357,16.6993074 18.82908,16.7416809 18.7766176,16.7951523 L18.5929991,16.9908774 L18.1359707,17.4680837 L17.700129,16.9717085 L17.6668356,16.9343795 L17.6547289,16.9192461 L17.5790619,16.8344991 C17.427728,16.6650051 17.3086787,16.562098 17.1855937,16.4975289 C17.0322421,16.4168175 16.844588,16.3845329 16.5661336,16.3926041 C16.3028865,16.3930127 16.0532672,16.5096987 15.8841221,16.7114142 C15.6066766,17.0241709 15.5017518,17.4115857 15.5421075,17.9311655 C15.5602676,18.161193 15.6450145,18.3902117 15.800384,18.6343637 C15.9618069,18.8875958 16.1736743,19.1287212 16.4662532,19.4051578 C16.9212639,19.8309105 17.4075501,20.212272 18.1591752,20.747994 C18.6733388,20.3901389 19.1683764,20.0055586 19.6422476,19.5958385 L19.6412387,19.5958385 Z" id="形状" fill="#FFFFFF" fill-rule="nonzero"></path>
            </g>
        </g>
    </g>
</svg>