<?xml version="1.0" encoding="UTF-8"?>
<svg width="32px" height="32px" viewBox="0 0 32 32" version="1.1" xmlns="http://www.w3.org/2000/svg" xmlns:xlink="http://www.w3.org/1999/xlink">
    <!-- Generator: Sketch 53 (72520) - https://sketchapp.com -->
    <title>航空护林队@4x</title>
    <desc>Created with Sketch.</desc>
    <defs>
        <rect id="path-1" x="0" y="0" width="28" height="28" rx="14"></rect>
        <filter x="-10.7%" y="-10.7%" width="121.4%" height="121.4%" filterUnits="objectBoundingBox" id="filter-2">
            <feMorphology radius="0.5" operator="dilate" in="SourceAlpha" result="shadowSpreadOuter1"></feMorphology>
            <feOffset dx="0" dy="0" in="shadowSpreadOuter1" result="shadowOffsetOuter1"></feOffset>
            <feGaussianBlur stdDeviation="0.5" in="shadowOffsetOuter1" result="shadowBlurOuter1"></feGaussianBlur>
            <feComposite in="shadowBlurOuter1" in2="SourceAlpha" operator="out" result="shadowBlurOuter1"></feComposite>
            <feColorMatrix values="0 0 0 0 0   0 0 0 0 0   0 0 0 0 0  0 0 0 0.26 0" type="matrix" in="shadowBlurOuter1"></feColorMatrix>
        </filter>
    </defs>
    <g id="其他图标" stroke="none" stroke-width="1" fill="none" fill-rule="evenodd">
        <g id="应急保障资源" transform="translate(-94.000000, -690.000000)">
            <g id="航空护林队" transform="translate(96.000000, 692.000000)">
                <g id="矩形">
                    <use fill="black" fill-opacity="1" filter="url(#filter-2)" xlink:href="#path-1"></use>
                    <rect stroke="#FFFFFF" stroke-width="1" stroke-linejoin="square" fill="#38AC83" fill-rule="evenodd" x="0.5" y="0.5" width="27" height="27" rx="13.5"></rect>
                </g>
                <path d="M19.0288984,15.7264834 C18.7909405,14.5048574 18.4268608,13.2648641 18.0191079,12.1322172 C19.9460363,12.4644603 22.7701026,13.4248632 23.0256114,15.6693409 C21.8243935,15.8240339 20.3550136,15.8240339 19.0288984,15.7264834 L19.0288984,15.7264834 Z M16.9027874,15.0424055 L15.984425,15.0424055 C15.9174866,15.0424055 15.6856511,15.0244464 15.6476921,15.0509769 L15.6395289,15.0509769 C15.6436105,15.3146489 15.6905491,15.760769 15.3632039,15.6383207 C15.2211638,15.5852597 15.2525922,15.3770976 15.2525922,15.1811803 L15.2481025,15.0550585 L15.2395311,15.0419973 L13.6872946,15.0370994 C13.6709681,15.0146506 13.6566825,15.0044465 13.653009,14.967712 C13.6856619,14.9211817 13.6926007,14.8595494 13.7252536,14.815468 L14.6783096,13.984452 L15.0227976,13.6926169 C14.9762672,13.6628211 14.8546352,13.6795557 14.7848397,13.6795557 L14.1677001,13.6762904 C14.0868843,13.5628217 14.2974954,13.4301693 14.3591277,13.3669044 C14.626065,13.1073139 14.8925942,12.8481317 15.1587152,12.5885412 C15.1521846,12.5771127 15.1570826,12.5824188 15.1460622,12.5750719 L15.0354506,12.5795617 C14.8876963,12.5816025 14.7485133,12.5971126 14.6223916,12.5709903 L14.5974937,12.5407864 C14.5979019,12.3946647 14.7191257,12.3289508 14.7925947,12.253441 C14.9513694,12.0869113 15.1105522,11.9199734 15.2693268,11.7534437 C15.3317755,11.6897706 15.3885099,11.6081384 15.4652442,11.561608 C15.5558559,11.5648733 15.6342228,11.6901787 15.6783042,11.7489539 L16.2015667,12.2881347 C16.2350359,12.3224202 16.4019738,12.4746643 16.3501373,12.5493578 C16.2978927,12.6273165 15.9207519,12.5567047 15.8015689,12.5750719 L15.7970791,12.5922147 L16.5754422,13.3452718 C16.6505439,13.4215979 16.8011553,13.5036383 16.8097267,13.6411886 L16.7799309,13.6799639 L15.9415681,13.6848618 L15.9370783,13.7020046 L17.0003379,14.615469 C17.0921741,14.688938 17.3215606,14.8419984 17.2942139,15.0073037 C17.2407448,15.0734257 17.0146235,15.0424055 16.9027874,15.0424055 L16.9027874,15.0424055 Z M23.9839736,16.072604 C24.0268305,12.7395608 20.2872589,11.455078 17.6305386,11.1048758 L17.6235998,11.0856922 L16.8517673,9.17304948 C16.7782983,8.99100965 16.6097278,8.87550007 16.4191165,8.87550007 L16.4191165,8.87264294 L15.2636126,8.87264294 C15.1081032,8.87223478 14.9627979,8.95100986 14.8754514,9.08243772 L13.338725,10.9950804 L7.62038859,10.9926315 C7.39590001,10.1256974 6.6036594,9.54161892 5.72815392,9.5983533 L4.85183213,8.27468699 L4,8.62244021 L4.30203918,10.4534507 C4.10979532,10.7571225 4.00653058,11.11059 4.00653058,11.473037 C4.00653058,12.4505828 4.70530231,12.9399679 4.71183289,12.9509882 L4.87387283,13.9407788 L5.76121497,14.0656761 L6.10202945,13.3342515 C6.64284286,13.2562927 7.10937095,12.9371108 7.39345105,12.4799704 L10.3289454,13.2995578 C10.7632287,13.4195571 11.0187376,13.5264953 11.1807775,13.6889434 C11.7509785,14.2575118 11.7595499,16.1493383 13.1766851,16.9799461 C13.934232,17.42076 15.049328,17.5599429 17.0231949,17.5599429 C18.3244124,17.5599429 19.9566484,17.5391267 21.2868453,17.4028009 C22.8272452,17.2432099 23.9864226,16.8689262 23.9864226,16.0836244 L23.9839736,16.0836244 L23.9839736,16.072604 Z M21.3770489,18.624427 C20.9986836,18.6366718 20.6978689,18.9538129 20.6970526,19.3411578 C20.6958281,19.7285026 20.9954183,20.0468683 21.3737836,20.0611539 C21.6305169,20.0705416 21.8717401,19.9362566 22.003168,19.7105435 C22.1345959,19.4852386 22.135004,19.2044238 22.0048006,18.9778944 C21.8745973,18.7517732 21.6337822,18.6162637 21.3770489,18.624427 L21.3770489,18.624427 Z M13.6677028,18.1338174 L13.6677028,18.1325929 C13.1472975,18.1325929 12.7244426,18.5648354 12.7244426,19.098302 C12.7248508,19.6301358 13.1468893,20.0611539 13.6668865,20.0611539 C14.1872919,20.0607457 14.6089222,19.6297277 14.6089222,19.0974856 C14.6089222,18.5656518 14.1877,18.1342255 13.6677028,18.1338174 L13.6677028,18.1338174 Z M7.98732539,8.04285151 L15.8338136,8.28162573 L15.8505482,8.28162573 L23.6954037,8.04285151 C23.868464,8.03754541 24.0043817,7.89019927 23.9998919,7.71305737 C23.9974429,7.62856803 23.9627492,7.54856846 23.9027496,7.49060959 C23.8427499,7.43265072 23.7627503,7.40122232 23.6803018,7.40367129 L16.1558527,7.6330578 L16.1558527,7.29918206 C16.144016,7.13061154 16.0064657,7 15.8411605,7 C15.6758553,7 15.5387131,7.13061154 15.5264683,7.29918206 L15.5264683,7.6330578 L8.00324367,7.40367129 C7.92079513,7.40122232 7.84079557,7.43265072 7.78079589,7.49060959 C7.72079622,7.54856846 7.68569436,7.62856803 7.68365356,7.71305737 C7.67875563,7.88979111 7.81467326,8.03713725 7.98732539,8.04285151 L7.98732539,8.04285151 Z" id="Fill-1" fill="#FFFFFF"></path>
            </g>
        </g>
    </g>
</svg>