<?xml version="1.0" encoding="UTF-8"?>
<svg width="32px" height="32px" viewBox="0 0 32 32" version="1.1" xmlns="http://www.w3.org/2000/svg" xmlns:xlink="http://www.w3.org/1999/xlink">
    <!-- Generator: Sketch 53 (72520) - https://sketchapp.com -->
    <title>路桥抢修队</title>
    <desc>Created with Sketch.</desc>
    <defs>
        <circle id="path-1" cx="14" cy="14" r="14"></circle>
        <filter x="-10.7%" y="-10.7%" width="121.4%" height="121.4%" filterUnits="objectBoundingBox" id="filter-2">
            <feMorphology radius="0.5" operator="dilate" in="SourceAlpha" result="shadowSpreadOuter1"></feMorphology>
            <feOffset dx="0" dy="0" in="shadowSpreadOuter1" result="shadowOffsetOuter1"></feOffset>
            <feGaussianBlur stdDeviation="0.5" in="shadowOffsetOuter1" result="shadowBlurOuter1"></feGaussianBlur>
            <feComposite in="shadowBlurOuter1" in2="SourceAlpha" operator="out" result="shadowBlurOuter1"></feComposite>
            <feColorMatrix values="0 0 0 0 0   0 0 0 0 0   0 0 0 0 0  0 0 0 0.28 0" type="matrix" in="shadowBlurOuter1"></feColorMatrix>
        </filter>
        <polygon id="path-3" points="0 16.2413448 16.9158078 16.2413448 16.9158078 0 0 0"></polygon>
    </defs>
    <g id="其他图标" stroke="none" stroke-width="1" fill="none" fill-rule="evenodd">
        <g id="应急保障资源" transform="translate(-360.000000, -546.000000)">
            <g id="路桥抢修队" transform="translate(362.000000, 548.000000)">
                <g id="Oval-Copy-5">
                    <use fill="black" fill-opacity="1" filter="url(#filter-2)" xlink:href="#path-1"></use>
                    <circle stroke="#FFFFFF" stroke-width="1" stroke-linejoin="square" fill="#38AC83" fill-rule="evenodd" cx="14" cy="14" r="13.5"></circle>
                </g>
                <g id="Page-1" transform="translate(6.000000, 5.000000)">
                    <path d="M10.7780729,10.8187674 C10.9681791,10.8188859 11.1386912,10.9831804 11.1578273,11.2084599 C11.1797711,11.4669349 11.0080044,11.6870454 10.7951978,11.6870454 L6.05634226,11.6870454 C5.84353563,11.6870454 5.67174908,11.4668401 5.69375257,11.2084599 C5.71286873,10.9832041 5.88346052,10.8189096 6.07358663,10.8189096 L6.27506296,10.8189096 C6.35999047,10.8188859 6.43364741,10.7490329 6.45268392,10.6504657 L6.58000549,9.99179411 C6.59131588,9.93308534 6.6226385,9.88265176 6.66648619,9.85256233 L9.60868181,7.82983657 C9.62433316,7.81907171 9.64119919,7.81112848 9.6588219,7.80629141 C9.75689177,7.77930814 9.85480233,7.85217245 9.87744303,7.96894979 L10.0492893,8.85584107 C10.0672505,8.94881243 10.0321644,9.04486624 9.96280862,9.09262047 L8.04091797,10.4138049 C7.8794661,10.5248204 7.94561597,10.8187911 8.13203832,10.8187911 L8.13333265,10.8187911 C8.16537212,10.8188385 8.19683413,10.8088087 8.22455256,10.7896975 L9.95205578,9.60146142 C9.96768722,9.59069656 9.98459307,9.58275333 10.0022158,9.57791626 C10.1002857,9.5509567 10.1981564,9.62377359 10.220817,9.74055093 L10.3971436,10.6505843 C10.4162797,10.7490329 10.4898968,10.8187436 10.5747447,10.8187674 L10.7780729,10.8187674 Z M9.04616897,5.17606266 C9.09682679,5.17601524 9.14696688,5.1887007 9.19318417,5.21328914 C9.3273557,5.28458853 9.33307063,5.51053193 9.20586854,5.59786004 L7.52175501,6.75574588 C7.38378016,6.85059042 7.21719082,6.70377107 7.25299379,6.51894277 L7.44801841,5.51257109 C7.48619099,5.31560269 7.63348496,5.17606266 7.80326033,5.17606266 L9.04616897,5.17606266 Z M9.26536758,6.05830656 C9.28101893,6.04754171 9.29794469,6.03959848 9.31554749,6.0347614 C9.41363727,6.00780184 9.5114881,6.08061874 9.5341288,6.1974435 L9.705995,7.08433478 C9.72395622,7.17728243 9.68890993,7.27335995 9.6195143,7.32111417 L7.07284392,9.07192064 C6.93486907,9.16674147 6.76827973,9.01992213 6.8040827,8.83514125 L7.02883693,7.67559564 C7.04022697,7.61698171 7.07152968,7.56661926 7.11529772,7.53650612 L9.26536758,6.05830656 Z" id="Fill-1" fill="#FFFFFF"></path>
                    <polygon id="Fill-3" fill="#FFFFFF" points="5.57554583 0 7.33781656 0 4.17170304 16.2184161 0 16.2184161"></polygon>
                    <polygon id="Fill-5" fill="#FFFFFF" points="11.3481037 0 9.43648796 0 12.4632128 16.2184161 16.9236495 16.2184161"></polygon>
                    <mask id="mask-4" fill="white">
                        <use xlink:href="#path-3"></use>
                    </mask>
                    <g id="Clip-8"></g>
                    <polygon id="Fill-7" fill="#FFFFFF" mask="url(#mask-4)" points="6.14120645 3.93762788 10.5162377 3.93762788 10.5162377 2.49878881 6.14120645 2.49878881"></polygon>
                    <polygon id="Fill-9" fill="#FFFFFF" mask="url(#mask-4)" points="3.14549599 14.2897767 12.7080748 14.2897767 12.7080748 12.8509139 3.14549599 12.8509139"></polygon>
                </g>
            </g>
        </g>
    </g>
</svg>