<?xml version="1.0" encoding="UTF-8"?>
<svg width="32px" height="32px" viewBox="0 0 32 32" version="1.1" xmlns="http://www.w3.org/2000/svg" xmlns:xlink="http://www.w3.org/1999/xlink">
    <!-- Generator: Sketch 53 (72520) - https://sketchapp.com -->
    <title>通信保障队@4x</title>
    <desc>Created with Sketch.</desc>
    <defs>
        <rect id="path-1" x="0" y="0" width="28" height="28" rx="14"></rect>
        <filter x="-10.7%" y="-10.7%" width="121.4%" height="121.4%" filterUnits="objectBoundingBox" id="filter-2">
            <feMorphology radius="0.5" operator="dilate" in="SourceAlpha" result="shadowSpreadOuter1"></feMorphology>
            <feOffset dx="0" dy="0" in="shadowSpreadOuter1" result="shadowOffsetOuter1"></feOffset>
            <feGaussianBlur stdDeviation="0.5" in="shadowOffsetOuter1" result="shadowBlurOuter1"></feGaussianBlur>
            <feComposite in="shadowBlurOuter1" in2="SourceAlpha" operator="out" result="shadowBlurOuter1"></feComposite>
            <feColorMatrix values="0 0 0 0 0   0 0 0 0 0   0 0 0 0 0  0 0 0 0.26 0" type="matrix" in="shadowBlurOuter1"></feColorMatrix>
        </filter>
    </defs>
    <g id="其他图标" stroke="none" stroke-width="1" fill="none" fill-rule="evenodd">
        <g id="应急保障资源" transform="translate(-94.000000, -731.000000)">
            <g id="通信保障队" transform="translate(96.000000, 733.000000)">
                <g id="矩形">
                    <use fill="black" fill-opacity="1" filter="url(#filter-2)" xlink:href="#path-1"></use>
                    <rect stroke="#FFFFFF" stroke-width="1" stroke-linejoin="square" fill="#38AC83" fill-rule="evenodd" x="0.5" y="0.5" width="27" height="27" rx="13.5"></rect>
                </g>
                <path d="M16.978422,6.13613964 C19.1024013,5.56702112 21.3024544,6.82643799 21.867378,8.93476156 C22.0214295,9.50968935 22.0351526,10.1018476 21.93697,10.6623616 L21.3491487,10.5528511 C21.4291992,10.0794541 21.4216875,9.58851956 21.2881683,9.09021928 C20.8053738,7.28840575 18.9475603,6.22484584 17.1325058,6.71118823 C16.6306654,6.84565597 16.1979306,7.08486531 15.8244275,7.39050534 L15.4349119,6.94016972 C15.8752016,6.57550498 16.3992693,6.29132316 16.978422,6.13613964 Z M18.7206449,11.0927689 L20.6763029,12.2122405 C20.9014036,12.3575715 20.9450738,12.6746886 20.7440895,12.8515417 C19.487093,14.0307482 17.5577218,14.3216615 15.9930878,13.4259749 C14.4287347,12.5306878 13.7181554,10.7281504 14.1195568,9.05923563 C14.1929523,8.79318202 14.4674135,8.65788168 14.7117085,8.79794004 L16.6673424,9.91715922 C16.998232,9.3765501 17.7127827,9.18508682 18.2750874,9.50699463 C18.837238,9.82881426 19.0222119,10.5191464 18.7206449,11.0927689 Z M17.3892974,7.66954751 C18.6638553,7.32803075 19.9838781,8.08361427 20.327631,9.36797787 C20.4201179,9.71314393 20.4108249,10.0647798 20.3577533,10.4078189 L19.7700131,10.2982867 C19.8242604,10.0371912 19.8152648,9.77241218 19.7433856,9.5041555 C19.4865649,8.5456875 18.5086493,7.98595329 17.5432595,8.2446287 C17.2731126,8.31701434 17.0375592,8.44175992 16.8365287,8.61892742 L16.4468807,8.16858414 C16.7148302,7.93239958 17.0418382,7.76264892 17.3892974,7.66954751 Z M21.9991267,13.9707729 L21.9991267,20.0086574 C21.9991267,20.0086574 21.9283089,20.6373608 21.5419302,20.7419019 L20.7183526,20.7419019 C20.7183526,19.8682372 20.0041206,19.1590335 19.1238522,19.1590335 C18.2437672,19.1590335 17.5295352,19.8680551 17.5295352,20.7419019 L11.0405367,20.7419019 C11.0405367,19.8682372 10.3263048,19.1590335 9.44603631,19.1590335 C8.56576787,19.1590335 7.85171935,19.8680551 7.85171935,20.7419019 L6,20.7419019 L6,18.5081105 C6,18.5081105 7.79264339,14.8424342 10.6416823,13.9705908 L21.9991267,13.9705908 L21.9991267,13.9707729 Z M11.5623132,16.5356718 L11.5441501,14.8604648 L11.5623132,14.8604648 L10.7712091,14.8604648 C9.7858148,15.244207 9.1181831,16.5356718 9.1181831,16.5356718 L11.5623132,16.5356718 Z M17.5434786,14.8686605 L13.7637182,14.8686605 L13.7637182,16.4976072 L17.5434786,16.4976072 L17.5434786,14.8686605 Z M21.1977485,14.8686605 L17.8753681,14.8686605 L17.8753681,16.491597 L21.1977485,16.491597 L21.1977485,14.8686605 Z M8.16911501,20.7417198 C8.16911501,20.0487254 8.73565711,19.4843128 9.43576223,19.4843128 C10.1358674,19.4843128 10.7024095,20.0487254 10.7024095,20.7417198 C10.7024095,21.4367176 10.1358674,21.9991267 9.43576223,21.9991267 C8.73565711,21.9991267 8.16911501,21.4367176 8.16911501,20.7417198 Z M17.8450962,20.7417198 C17.8450962,20.0487254 18.4136564,19.4843128 19.1117434,19.4843128 C19.8118486,19.4843128 20.3783907,20.0487254 20.3783907,20.7417198 C20.3783907,21.4367176 19.8118486,21.9991267 19.1117434,21.9991267 C18.4116383,21.9991267 17.8450962,21.4367176 17.8450962,20.7417198 Z" id="合并形状" fill="#FFFFFF"></path>
            </g>
        </g>
    </g>
</svg>