<?xml version="1.0" encoding="UTF-8"?>
<svg width="32px" height="32px" viewBox="0 0 32 32" version="1.1" xmlns="http://www.w3.org/2000/svg" xmlns:xlink="http://www.w3.org/1999/xlink">
    <!-- Generator: Sketch 53 (72520) - https://sketchapp.com -->
    <title>防汛抢险队@4x</title>
    <desc>Created with Sketch.</desc>
    <defs>
        <rect id="path-1" x="0" y="0" width="28" height="28" rx="14"></rect>
        <filter x="-10.7%" y="-10.7%" width="121.4%" height="121.4%" filterUnits="objectBoundingBox" id="filter-2">
            <feMorphology radius="0.5" operator="dilate" in="SourceAlpha" result="shadowSpreadOuter1"></feMorphology>
            <feOffset dx="0" dy="0" in="shadowSpreadOuter1" result="shadowOffsetOuter1"></feOffset>
            <feGaussianBlur stdDeviation="0.5" in="shadowOffsetOuter1" result="shadowBlurOuter1"></feGaussianBlur>
            <feComposite in="shadowBlurOuter1" in2="SourceAlpha" operator="out" result="shadowBlurOuter1"></feComposite>
            <feColorMatrix values="0 0 0 0 0   0 0 0 0 0   0 0 0 0 0  0 0 0 0.26 0" type="matrix" in="shadowBlurOuter1"></feColorMatrix>
        </filter>
    </defs>
    <g id="其他图标" stroke="none" stroke-width="1" fill="none" fill-rule="evenodd">
        <g id="应急保障资源" transform="translate(-94.000000, -567.000000)">
            <g id="防汛抢险队" transform="translate(96.000000, 569.000000)">
                <g id="矩形">
                    <use fill="black" fill-opacity="1" filter="url(#filter-2)" xlink:href="#path-1"></use>
                    <rect stroke="#FFFFFF" stroke-width="1" stroke-linejoin="square" fill="#38AC83" fill-rule="evenodd" x="0.5" y="0.5" width="27" height="27" rx="13.5"></rect>
                </g>
                <path d="M22.6069588,20.0193618 C22.4498651,19.9544515 22.2725892,19.9533606 22.113859,20.0155435 C21.9556743,20.0777265 21.8291266,20.1988196 21.76258,20.3515496 C21.3905732,21.2046559 20.5254667,21.7566658 19.5714495,21.7501203 C18.6168869,21.7430292 17.7605078,21.1795645 17.4005013,20.3210036 C17.3110451,20.1060906 17.1059505,19.9577243 16.8686735,19.9342693 C16.6313965,19.9113598 16.4006651,20.0177254 16.2686627,20.2108198 C16.232662,20.253366 16.2026615,20.3008214 16.1792065,20.3515496 C15.812109,21.1932011 14.9644574,21.7419383 14.0224404,21.7479384 C13.0809688,21.7539385 12.2262261,21.2161106 11.8471284,20.3793683 C11.776218,20.1191818 11.5411229,19.9331784 11.2645724,19.9179054 C10.9874765,19.9026324 10.7327447,20.0624535 10.6323792,20.3128216 C10.2718273,21.1850192 9.39962972,21.7555749 8.43143044,21.7517567 C7.46323116,21.7479384 6.59594279,21.1708371 6.24302733,20.2953668 C6.15902582,20.0875448 5.96756782,19.9386331 5.74010917,19.9053597 C5.51265052,19.8715409 5.28410095,19.9582698 5.14064381,20.1328184 C4.99718668,20.307367 4.96064057,20.5430076 5.04409662,20.7508295 C5.51319599,21.9115777 6.57576061,22.7472292 7.8423289,22.9512328 C9.10944266,23.155782 10.3934658,22.6981374 11.2231171,21.7468475 C11.9169478,22.5437709 12.9380572,23.0025065 14.012622,23.0008701 C15.0871868,22.9992337 16.1066598,22.5372254 16.7977631,21.7381201 C17.6148688,22.6806825 18.8781643,23.1432363 20.1327324,22.9599603 C21.3878459,22.7761388 22.4542288,21.9726697 22.948965,20.8381038 C23.0875129,20.5200981 22.9342375,20.153546 22.6069588,20.0193618 M18.1456056,11.4992081 C18.0910592,11.4992081 18.040331,11.470844 18.0125123,11.4244795 C17.9852391,11.378115 17.9852391,11.3213867 18.0125123,11.2750223 C18.040331,11.2286578 18.0910592,11.2002936 18.1456056,11.2002936 C18.3583367,11.2002936 18.530158,11.033927 18.530158,10.8282869 C18.530158,10.774286 18.5596131,10.7251942 18.607614,10.6979209 C18.6550694,10.6717387 18.7139795,10.6717387 18.7619804,10.6979209 C18.8094358,10.7251942 18.8388909,10.774286 18.8388909,10.8282869 C18.8377999,11.1986572 18.5279762,11.4992081 18.1456056,11.4992081 M17.8903283,6.87530655 C17.8832373,6.81912372 17.7883265,6.81912372 17.7812354,6.87530655 C17.5445039,8.72770359 16.3341184,9.10952866 16.3341184,10.3973701 C16.3341184,11.1926571 17.0208581,11.8390324 17.8352364,11.8390324 C18.6496147,11.8390324 19.3374453,11.1926571 19.3374453,10.3973701 C19.3374453,9.10952866 18.1270598,8.72824906 17.8903283,6.87530655 M13.2975182,18.1435098 C13.0580593,18.1435098 12.863874,17.9547791 12.863874,17.7224113 C12.863874,17.489498 13.0580593,17.3007673 13.2975182,17.3007673 C13.8953472,17.3007673 14.3813559,16.8316679 14.3813559,16.2523848 C14.3813559,16.0194715 14.5755412,15.8307408 14.8155456,15.8307408 C15.0555499,15.8307408 15.2497352,16.0194715 15.2497352,16.2523848 C15.2475534,17.2974945 14.3742649,18.1440552 13.2975182,18.1435098 M12.5775052,5.11782031 C12.5578685,4.96072656 12.2916819,4.96072656 12.2714997,5.11782031 C11.6038513,10.3368235 8.19469889,11.4124793 8.19469889,15.0398174 C8.19469889,17.2811306 10.130552,19.097527 12.4247752,19.097527 C14.7179074,19.097527 16.6548515,17.2800397 16.6548515,15.0398174 C16.6548515,11.4124793 13.2435172,10.3368235 12.5775052,5.11782031" id="Fill-1" fill="#FFFFFF"></path>
            </g>
        </g>
    </g>
</svg>