<?xml version="1.0" encoding="UTF-8"?>
<svg width="32px" height="32px" viewBox="0 0 32 32" version="1.1" xmlns="http://www.w3.org/2000/svg" xmlns:xlink="http://www.w3.org/1999/xlink">
    <!-- Generator: Sketch 53 (72520) - https://sketchapp.com -->
    <title>通信管理机构</title>
    <desc>Created with Sketch.</desc>
    <defs>
        <rect id="path-1" x="0" y="0" width="28" height="28" rx="14"></rect>
        <filter x="-10.7%" y="-10.7%" width="121.4%" height="121.4%" filterUnits="objectBoundingBox" id="filter-2">
            <feMorphology radius="0.5" operator="dilate" in="SourceAlpha" result="shadowSpreadOuter1"></feMorphology>
            <feOffset dx="0" dy="0" in="shadowSpreadOuter1" result="shadowOffsetOuter1"></feOffset>
            <feGaussianBlur stdDeviation="0.5" in="shadowOffsetOuter1" result="shadowBlurOuter1"></feGaussianBlur>
            <feComposite in="shadowBlurOuter1" in2="SourceAlpha" operator="out" result="shadowBlurOuter1"></feComposite>
            <feColorMatrix values="0 0 0 0 0   0 0 0 0 0   0 0 0 0 0  0 0 0 0.26 0" type="matrix" in="shadowBlurOuter1"></feColorMatrix>
        </filter>
    </defs>
    <g id="其他图标" stroke="none" stroke-width="1" fill="none" fill-rule="evenodd">
        <g id="应急保障资源" transform="translate(-972.000000, -282.000000)">
            <g id="通信管理机构" transform="translate(974.000000, 284.000000)">
                <g id="矩形">
                    <use fill="black" fill-opacity="1" filter="url(#filter-2)" xlink:href="#path-1"></use>
                    <rect stroke="#FFFFFF" stroke-width="1" stroke-linejoin="square" fill="#0E9D99" fill-rule="evenodd" x="0.5" y="0.5" width="27" height="27" rx="13.5"></rect>
                </g>
                <path d="M13.2863379,23 L6,23 L6,21.8 L7.20000001,21.8 L7.20000001,5 L15.51,5 L15.51,8.40663152 C15.0556261,8.5179185 14.6356261,8.66056428 14.25,8.83456886 L14.25,6.20000001 L8.39999999,6.20000001 L8.39999999,21.8 L13.2863379,21.8 C13.2863379,22.1254358 13.2863379,22.5254358 13.2863379,23 Z M13.05,9.48825545 C12.8766955,9.60098178 12.7244739,9.71290747 12.585814,9.82999999 L9.51,9.82999999 L9.51,7.43 L13.05,7.43 L13.05,9.48825545 Z M11.5977952,11.03 C11.5247033,11.1450449 11.4490383,11.2679655 11.3691326,11.4000848 C10.8845715,12.201278 10.6219771,12.832636 10.4936392,13.43 L9.51,13.43 L9.51,11.03 L11.5977952,11.03 Z M10.4134926,17.03 L9.51,17.03 L9.51,14.63 L10.3877508,14.63 C10.3792299,15.3466155 10.316473,16.2816537 10.4134926,17.03 Z M11,15.2391875 C11,11.7965 13.8525,9.00175 17.34375,9 C20.835,9 23.6875,11.79475 23.6875,15.2374375 C23.6875,17.211875 22.697,19.0743125 21.0970625,20.260375 L20.3471386,19.6106875 C21.7440761,18.5379375 22.5315761,16.9296875 22.5333261,15.209 C22.5333261,12.13425 20.4583125,10.0916188 17.34375,10.0916188 C14.229625,10.0916188 12.1100236,12.1320625 12.1100236,15.209 C12.1100236,16.9314375 12.8953361,18.5116875 14.2922736,19.584 L13.5904375,20.262125 C11.9611875,19.0778125 11,17.215375 11,15.2391875 Z M17.9313125,16.443625 L20.4871875,22.153 C20.6044375,22.37875 20.6044375,22.577375 20.4871875,22.74625 C20.3699375,22.9146875 20.19625,23 19.9341875,23 L14.6964375,23 C14.4348125,23 14.2606875,22.9146875 14.1434375,22.74625 C14.0555,22.6040625 14.0261875,22.37875 14.1434375,22.153 L16.711125,16.42 C16.2255,16.1911875 15.8881875,15.712125 15.8881875,15.153875 C15.8881875,14.375125 16.5409375,13.7425 17.34375,13.7425 C18.14875,13.7425 18.7993125,14.375125 18.7993125,15.153875 C18.7993125,15.7309375 18.4414375,16.2244375 17.9313125,16.443625 Z M20.223375,18.2028125 L19.5518827,17.6576503 C20.1635077,17.0097128 20.5834935,16.2900618 20.5834935,15.4146243 C20.5834935,13.5237493 19.264375,12.0763496 17.34375,12.0763496 C15.423125,12.0763496 14.1828695,13.319875 14.1828695,15.2391875 C14.1828695,16.114625 14.5940996,17.0079628 15.2039746,17.6576503 L14.49125,18.2028125 C13.6473125,17.4126875 13.18225,16.368375 13.18225,15.2391875 C13.18225,12.9808125 15.04425,11.1468125 17.34375,11.1468125 C19.64325,11.1468125 21.50525,12.9808125 21.532375,15.2391875 C21.532375,16.368375 21.06775,17.4126875 20.223375,18.2028125 Z" id="合并形状" fill="#FFFFFF" fill-rule="nonzero"></path>
            </g>
        </g>
    </g>
</svg>