<?xml version="1.0" encoding="UTF-8"?>
<svg width="32px" height="32px" viewBox="0 0 32 32" version="1.1" xmlns="http://www.w3.org/2000/svg" xmlns:xlink="http://www.w3.org/1999/xlink">
    <!-- Generator: Sketch 53 (72520) - https://sketchapp.com -->
    <title>通信中心</title>
    <desc>Created with Sketch.</desc>
    <defs>
        <rect id="path-1" x="0" y="0" width="28" height="28" rx="14"></rect>
        <filter x="-10.7%" y="-10.7%" width="121.4%" height="121.4%" filterUnits="objectBoundingBox" id="filter-2">
            <feMorphology radius="0.5" operator="dilate" in="SourceAlpha" result="shadowSpreadOuter1"></feMorphology>
            <feOffset dx="0" dy="0" in="shadowSpreadOuter1" result="shadowOffsetOuter1"></feOffset>
            <feGaussianBlur stdDeviation="0.5" in="shadowOffsetOuter1" result="shadowBlurOuter1"></feGaussianBlur>
            <feComposite in="shadowBlurOuter1" in2="SourceAlpha" operator="out" result="shadowBlurOuter1"></feComposite>
            <feColorMatrix values="0 0 0 0 0   0 0 0 0 0   0 0 0 0 0  0 0 0 0.26 0" type="matrix" in="shadowBlurOuter1"></feColorMatrix>
        </filter>
    </defs>
    <g id="其他图标" stroke="none" stroke-width="1" fill="none" fill-rule="evenodd">
        <g id="应急保障资源" transform="translate(-972.000000, -372.000000)">
            <g id="通信中心" transform="translate(974.000000, 374.000000)">
                <g id="矩形">
                    <use fill="black" fill-opacity="1" filter="url(#filter-2)" xlink:href="#path-1"></use>
                    <rect stroke="#FFFFFF" stroke-width="1" stroke-linejoin="square" fill="#0E9D99" fill-rule="evenodd" x="0.5" y="0.5" width="27" height="27" rx="13.5"></rect>
                </g>
                <path d="M7.79870415,7.62218858 C8.17981998,8.4020125 9.57483026,11.0563747 12.1537763,13.8384871 L13.4768855,13.0160138 L7.81082529,7.51339765 C7.81082529,7.5211685 7.8063234,7.55845177 7.79870415,7.62218858 Z M20.3285643,19.709536 C20.3531393,19.7074463 20.3658807,19.706288 20.3658807,19.706288 L14.2824177,13.7983095 L13.2055837,14.9122758 C15.0644248,16.7070171 17.4236009,18.4617432 20.3285643,19.709536 Z M9.111497,17.5938504 C6.45547445,14.3553442 7.44866024,7.51339765 7.44866024,7.51339765 C7.44866024,7.27195427 7.56938192,7.15123259 7.69010361,7.15123259 C7.81082529,7.15123259 7.93154698,7.15123259 8.05226867,7.27195427 L13.7077348,12.8725129 L16.5027867,11.1350482 C16.1406216,10.6521615 16.1406216,10.0485531 16.5027867,9.56566631 C16.9856735,9.08277957 17.7100036,9.08277957 18.1928903,9.56566631 C18.6757771,10.0485531 18.6757771,10.7728832 18.1928903,11.2557699 C17.7100036,11.7386567 17.1063951,11.7386567 16.6235084,11.3764916 L14.4585821,13.6160705 L20.4866024,19.5855663 C20.8487674,19.8270096 20.7280457,20.068453 20.3658807,20.068453 C20.3658807,20.068453 19.0379421,20.1891747 17.3478385,20.1891747 C14.8126831,20.1891747 11.3117542,19.8270096 9.5009289,18.0161844 C9.37732868,17.897338 9.26028048,17.7715652 9.14945992,17.6395958 C9.13668307,17.6244651 9.12404899,17.6091999 9.111497,17.5938504 Z M12.3982494,21.6378349 C12.5189711,21.7585566 12.3982494,22 12.156806,22 L6.24144337,22 C6,22 6,21.7585566 6,21.6378349 L7.93154698,17.6540193 C7.93154698,17.5332976 8.17299035,17.4125759 8.29371204,17.5332976 C9.5009289,19.1026795 11.3117542,19.706288 11.3117542,19.706288 C11.5531976,19.8270096 11.6739193,19.9477313 11.7946409,20.1891747 L12.3982494,21.6378349 Z M20.0812386,10.8957206 L19.526826,10.7262196 C19.5778273,10.5438169 19.6050974,10.3515061 19.6050974,10.152826 C19.6050974,8.97938567 18.6538361,8.02812433 17.4803957,8.02812433 C17.378876,8.02812433 17.2790192,8.03524431 17.1812975,8.04901216 L17.0705976,7.4795105 C17.2042344,7.4591947 17.3410848,7.44866024 17.4803957,7.44866024 C18.9738653,7.44866024 20.1845615,8.65935649 20.1845615,10.152826 C20.1845615,10.4104604 20.1485327,10.6596798 20.0812386,10.8957206 Z M17.7337499,13.5095804 C17.6764536,13.5031819 17.6195457,13.4954981 17.5630556,13.4865585 L17.752018,13.449828 L17.7337499,13.5095804 Z M21.5427355,11.4175931 L21.0741731,11.2743391 C21.3079883,10.8228085 21.4400671,10.3100869 21.4400671,9.76651661 C21.4400671,7.95301791 19.9699359,6.48288675 18.1564372,6.48288675 C17.7098476,6.48288675 17.284081,6.5720403 16.8959644,6.73352042 L16.8021359,6.25081479 C17.2224124,6.08881198 17.6790532,6 18.1564372,6 C20.2366269,6 21.9229538,7.68632693 21.9229538,9.76651661 C21.9229538,10.3587403 21.786273,10.9190405 21.5427355,11.4175931 Z" id="合并形状" fill="#FFFFFF" fill-rule="nonzero"></path>
            </g>
        </g>
    </g>
</svg>