<?xml version="1.0" encoding="UTF-8"?>
<svg width="32px" height="32px" viewBox="0 0 32 32" version="1.1" xmlns="http://www.w3.org/2000/svg" xmlns:xlink="http://www.w3.org/1999/xlink">
    <!-- Generator: Sketch 53 (72520) - https://sketchapp.com -->
    <title>通信企业</title>
    <desc>Created with Sketch.</desc>
    <defs>
        <rect id="path-1" x="0" y="0" width="28" height="28" rx="14"></rect>
        <filter x="-10.7%" y="-10.7%" width="121.4%" height="121.4%" filterUnits="objectBoundingBox" id="filter-2">
            <feMorphology radius="0.5" operator="dilate" in="SourceAlpha" result="shadowSpreadOuter1"></feMorphology>
            <feOffset dx="0" dy="0" in="shadowSpreadOuter1" result="shadowOffsetOuter1"></feOffset>
            <feGaussianBlur stdDeviation="0.5" in="shadowOffsetOuter1" result="shadowBlurOuter1"></feGaussianBlur>
            <feComposite in="shadowBlurOuter1" in2="SourceAlpha" operator="out" result="shadowBlurOuter1"></feComposite>
            <feColorMatrix values="0 0 0 0 0   0 0 0 0 0   0 0 0 0 0  0 0 0 0.26 0" type="matrix" in="shadowBlurOuter1"></feColorMatrix>
        </filter>
    </defs>
    <g id="其他图标" stroke="none" stroke-width="1" fill="none" fill-rule="evenodd">
        <g id="应急保障资源" transform="translate(-972.000000, -328.000000)">
            <g id="通信企业" transform="translate(974.000000, 330.000000)">
                <g id="矩形">
                    <use fill="black" fill-opacity="1" filter="url(#filter-2)" xlink:href="#path-1"></use>
                    <rect stroke="#FFFFFF" stroke-width="1" stroke-linejoin="square" fill="#0E9D99" fill-rule="evenodd" x="0.5" y="0.5" width="27" height="27" rx="13.5"></rect>
                </g>
                <path d="M12,15.347875 C12,17.04175 12.823875,18.638125 14.220375,19.65325 L14.8219488,19.072 C13.6245738,18.152875 12.9514488,16.798375 12.9514488,15.322 C12.9514488,12.684625 14.76825,10.9356732 17.4375,10.9356732 C20.107125,10.9356732 21.8857081,12.6865 21.8857081,15.322 C21.8842081,16.796875 21.2092081,18.175375 20.0118331,19.094875 L20.654625,19.65175 C22.026,18.635125 22.875,17.03875 22.875,15.346375 C22.875,12.3955 20.43,10 17.4375,10 C14.445,10.0015 12,12.397 12,15.347875 Z M17.941125,16.38025 C18.378375,16.192375 18.685125,15.769375 18.685125,15.27475 C18.685125,14.60725 18.1275,14.065 17.4375,14.065 C16.749375,14.065 16.189875,14.60725 16.189875,15.27475 C16.189875,15.75325 16.479,16.163875 16.89525,16.36 L14.694375,21.274 C14.593875,21.4675 14.619,21.660625 14.694375,21.7825 C14.794875,21.926875 14.944125,22 15.168375,22 L19.657875,22 C19.8825,22 20.031375,21.926875 20.131875,21.7825 C20.232375,21.63775 20.232375,21.4675 20.131875,21.274 L17.941125,16.38025 Z M19.90575,17.888125 C20.6295,17.210875 21.02775,16.31575 21.02775,15.347875 C21.0045,13.412125 19.4085,11.840125 17.4375,11.840125 C15.4665,11.840125 13.8705,13.412125 13.8705,15.347875 C13.8705,16.31575 14.269125,17.210875 14.9925,17.888125 L15.6034068,17.4208431 C15.0806568,16.8639681 14.7281738,16.09825 14.7281738,15.347875 C14.7281738,13.70275 15.79125,12.6368711 17.4375,12.6368711 C19.08375,12.6368711 20.214423,13.8774994 20.214423,15.4982494 C20.214423,16.2486244 19.8544352,16.8654681 19.3301852,17.4208431 L19.90575,17.888125 Z M20.4713034,9.73794926 C19.3347545,9.31081887 18.1553073,9.07510796 17.1205213,9.04131454 L14.0273601,6.2807027 L8.58178684,11.0144674 L8.58178684,20.2096794 L11.5241393,20.2096794 C11.6484975,20.4975422 11.8144687,20.7828033 12.0220526,21.0654625 C12.2334581,21.3533254 12.5016935,21.6385864 12.8267586,21.9212456 L8.58178684,21.9212456 L8.58178684,21.9263801 L6.87022056,21.9263801 L6.87022056,12.5023092 L6.12288851,13.1519551 L5,11.8602196 L14.0421483,4 L20.4713034,9.73794926 Z M11.7576769,11.6654549 C11.7223563,11.7214639 11.6883233,11.778226 11.6555779,11.8357413 C11.3847314,12.7409413 11.1936487,13.5970145 11.08233,14.4039609 L9.75414389,14.4039609 L9.75414389,11.6654549 L11.7576769,11.6654549 Z" id="合并形状" fill="#FFFFFF"></path>
            </g>
        </g>
    </g>
</svg>