<?xml version="1.0" encoding="UTF-8"?>
<svg width="32px" height="32px" viewBox="0 0 32 32" version="1.1" xmlns="http://www.w3.org/2000/svg" xmlns:xlink="http://www.w3.org/1999/xlink">
    <!-- Generator: Sketch 53 (72520) - https://sketchapp.com -->
    <title>信息安全@4x</title>
    <desc>Created with Sketch.</desc>
    <defs>
        <rect id="path-1" x="0" y="0" width="28" height="28" rx="14"></rect>
        <filter x="-10.7%" y="-10.7%" width="121.4%" height="121.4%" filterUnits="objectBoundingBox" id="filter-2">
            <feMorphology radius="0.5" operator="dilate" in="SourceAlpha" result="shadowSpreadOuter1"></feMorphology>
            <feOffset dx="0" dy="0" in="shadowSpreadOuter1" result="shadowOffsetOuter1"></feOffset>
            <feGaussianBlur stdDeviation="0.5" in="shadowOffsetOuter1" result="shadowBlurOuter1"></feGaussianBlur>
            <feComposite in="shadowBlurOuter1" in2="SourceAlpha" operator="out" result="shadowBlurOuter1"></feComposite>
            <feColorMatrix values="0 0 0 0 0   0 0 0 0 0   0 0 0 0 0  0 0 0 0.26 0" type="matrix" in="shadowBlurOuter1"></feColorMatrix>
        </filter>
    </defs>
    <g id="其他图标" stroke="none" stroke-width="1" fill="none" fill-rule="evenodd">
        <g id="突发事件" transform="translate(-608.000000, -116.000000)">
            <g id="信息安全" transform="translate(610.000000, 118.000000)">
                <g id="分组-8">
                    <g id="矩形-copy-5" transform="translate(14.000000, 14.000000) scale(-1, 1) translate(-14.000000, -14.000000) ">
                        <use fill="black" fill-opacity="1" filter="url(#filter-2)" xlink:href="#path-1"></use>
                        <rect stroke="#FFFFFF" stroke-width="1" stroke-linejoin="square" fill="#D90C0C" fill-rule="evenodd" x="0.5" y="0.5" width="27" height="27" rx="13.5"></rect>
                    </g>
                    <path d="M20.7287915,19.5684939 L17.894749,19.5684939 C17.63377,19.5684939 17.3990777,19.486993 17.3709045,19.3877581 C17.3429829,19.2899067 17.5267372,19.2116759 17.7810502,19.2116759 L20.0826957,19.2116759 L19.8379415,18.7092129 C19.7949272,18.6206687 19.9564197,18.5498585 20.1984069,18.5498585 C20.4403941,18.5498585 20.6757153,18.6206687 20.7247668,18.7092129 L21.1009538,19.3877581 C21.1559166,19.486993 20.9896447,19.5684939 20.7287915,19.5684939 L20.7287915,19.5684939 Z M19.1376376,20.3411173 L18.1408867,20.3411173 C17.8656954,20.3411173 17.6166649,20.250435 17.5852217,20.1400063 C17.5542815,20.0313384 17.7465884,19.9444293 18.0144849,19.9444293 L18.9845718,19.9444293 C19.2523425,19.9444293 19.5060266,20.0313384 19.5516822,20.1400063 C19.5979667,20.250435 19.4128288,20.3411173 19.1376376,20.3411173 L19.1376376,20.3411173 Z M16.7751179,18.872592 C16.5272194,18.872592 16.3101352,18.798889 16.2906404,18.7092129 C16.2713971,18.6206687 16.4520071,18.5498585 16.6939943,18.5498585 C16.9358558,18.5498585 17.1521853,18.6206687 17.1774657,18.7092129 C17.2029976,18.798889 17.0230165,18.872592 16.7751179,18.872592 L16.7751179,18.872592 Z M16.1475107,20.3411173 L10.1671313,20.3411173 C9.89194005,20.3411173 9.69183524,20.250435 9.71975684,20.1400063 C9.74730112,20.0313384 9.98652133,19.9444293 10.2544178,19.9444293 L16.0744366,19.9444293 C16.3423331,19.9444293 16.578409,20.0313384 16.6020543,20.1400063 C16.6260769,20.250435 16.422702,20.3411173 16.1475107,20.3411173 L16.1475107,20.3411173 Z M8.73658946,20.1400063 C8.70112148,20.250435 8.44894665,20.3411173 8.17375537,20.3411173 L7.17700451,20.3411173 C6.90181323,20.3411173 6.7199455,20.250435 6.77025469,20.1400063 C6.81968347,20.0313384 7.0765119,19.9444293 7.34440834,19.9444293 L8.31436956,19.9444293 C8.58226601,19.9444293 8.77142857,20.0313384 8.73658946,20.1400063 L8.73658946,20.1400063 Z M7.11298606,19.3877581 C7.15763547,19.2899067 7.39937114,19.2116759 7.65355833,19.2116759 L10.4156587,19.2116759 C10.6698459,19.2116759 10.8613982,19.2899067 10.8431611,19.3877581 C10.8246725,19.486993 10.5979038,19.5684939 10.3371764,19.5684939 L7.50300807,19.5684939 C7.24215491,19.5684939 7.06783356,19.486993 7.11298606,19.3877581 L7.11298606,19.3877581 Z M7.42226182,18.7092129 C7.46250917,18.6206687 7.69103868,18.5498585 7.93290012,18.5498585 L9.6850435,18.5498585 C9.92703071,18.5498585 10.1051252,18.6206687 10.0827377,18.7092129 C10.0599727,18.798889 9.84024735,18.872592 9.59234881,18.872592 L7.79668798,18.872592 C7.54878944,18.872592 7.3813856,18.798889 7.42226182,18.7092129 L7.42226182,18.7092129 Z M7.70248402,18.0940572 C7.73920973,18.0135625 7.95566502,17.9491668 8.18633267,17.9491668 L9.02209412,17.9491668 C9.25276177,17.9491668 9.41915942,18.0135625 9.39337596,18.0940572 C9.36721518,18.1755581 9.15428152,18.2423436 8.91807987,18.2423436 L8.06269783,18.2423436 C7.82649617,18.2423436 7.66538099,18.1755581 7.70248402,18.0940572 L7.70248402,18.0940572 Z M14.5169898,18.7092129 C14.5095692,18.6206687 14.6998637,18.5498585 14.9417252,18.5498585 C15.1837124,18.5498585 15.3904832,18.6206687 15.4038151,18.7092129 C15.4172728,18.798889 15.2273556,18.872592 14.9794571,18.872592 C14.7315585,18.872592 14.5244104,18.798889 14.5169898,18.7092129 L14.5169898,18.7092129 Z M14.0982916,19.2116759 C14.3524788,19.2116759 14.5651609,19.2899067 14.5732104,19.3877581 C14.5815114,19.486993 14.376753,19.5684939 14.1158998,19.5684939 C13.8550466,19.5684939 13.6422388,19.486993 13.6407295,19.3877581 C13.6392202,19.2899067 13.8441044,19.2116759 14.0982916,19.2116759 L14.0982916,19.2116759 Z M13.62048,18.0940572 C13.6192223,18.0135625 13.8052405,17.9491668 14.036034,17.9491668 C14.2667016,17.9491668 14.4591343,18.0135625 14.465926,18.0940572 C14.472592,18.1755581 14.2866995,18.2423436 14.0504979,18.2423436 C13.8142962,18.2423436 13.6217378,18.1755581 13.62048,18.0940572 L13.62048,18.0940572 Z M13.1895818,18.5498585 C13.4314432,18.5498585 13.6286553,18.6206687 13.6300388,18.7092129 C13.6314223,18.798889 13.4316948,18.872592 13.1836705,18.872592 C12.9357719,18.872592 12.7385599,18.798889 12.7432135,18.7092129 C12.7478671,18.6206687 12.9475946,18.5498585 13.1895818,18.5498585 L13.1895818,18.5498585 Z M12.339608,18.2423436 C12.1034064,18.2423436 11.9199036,18.1755581 11.9295881,18.0940572 C11.9391468,18.0135625 12.1339692,17.9491668 12.3646368,17.9491668 C12.5954302,17.9491668 12.7791846,18.0135625 12.7750341,18.0940572 C12.7707578,18.1755581 12.5758097,18.2423436 12.339608,18.2423436 L12.339608,18.2423436 Z M12.2569752,19.2116759 C12.5111624,19.2116759 12.7132795,19.2899067 12.7082486,19.3877581 C12.7030919,19.486993 12.4873913,19.5684939 12.2265381,19.5684939 C11.9656849,19.5684939 11.7638193,19.486993 11.775642,19.3877581 C11.7873389,19.2899067 12.002788,19.2116759 12.2569752,19.2116759 L12.2569752,19.2116759 Z M10.6288439,18.2423436 C10.3926423,18.2423436 10.2180694,18.1755581 10.2388219,18.0940572 C10.2591971,18.0135625 10.4625721,17.9491668 10.6933655,17.9491668 C10.9241589,17.9491668 11.0992349,18.0135625 11.0841421,18.0940572 C11.0690494,18.1755581 10.8650456,18.2423436 10.6288439,18.2423436 L10.6288439,18.2423436 Z M11.4373127,18.5498585 C11.6791741,18.5498585 11.8669531,18.6206687 11.8563882,18.7092129 C11.8456975,18.798889 11.636034,18.872592 11.3880096,18.872592 C11.1401111,18.872592 10.9528351,18.798889 10.9695629,18.7092129 C10.9860392,18.6206687 11.1954512,18.5498585 11.4373127,18.5498585 L11.4373127,18.5498585 Z M16.4382979,19.3877581 C16.4599308,19.486993 16.2661147,19.5684939 16.0052615,19.5684939 C15.7444083,19.5684939 15.5206582,19.486993 15.505817,19.3877581 C15.4911016,19.2899067 15.6854208,19.2116759 15.939608,19.2116759 C16.1937952,19.2116759 16.4170422,19.2899067 16.4382979,19.3877581 L16.4382979,19.3877581 Z M15.7612619,18.2423436 C15.5250603,18.2423436 15.323572,18.1755581 15.3112462,18.0940572 C15.299172,18.0135625 15.4765119,17.9491668 15.7073053,17.9491668 C15.9380987,17.9491668 16.1392097,18.0135625 16.1566922,18.0940572 C16.1744262,18.1755581 15.9974636,18.2423436 15.7612619,18.2423436 L15.7612619,18.2423436 Z M17.4721518,18.2423436 C17.2359501,18.2423436 17.0252804,18.1755581 17.0021381,18.0940572 C16.9792475,18.0135625 17.147909,17.9491668 17.3787024,17.9491668 C17.6093701,17.9491668 17.8191594,18.0135625 17.8474583,18.0940572 C17.8762604,18.1755581 17.7082276,18.2423436 17.4721518,18.2423436 L17.4721518,18.2423436 Z M8.14772036,16.1885966 L19.9780526,16.1885966 L19.9780526,8.38450896 L8.14772036,8.38450896 L8.14772036,16.1885966 Z M18.5707787,18.872592 C18.3228802,18.872592 18.09586,18.798889 18.064291,18.7092129 C18.0330993,18.6206687 18.2042763,18.5498585 18.4461377,18.5498585 C18.6881249,18.5498585 18.9140132,18.6206687 18.9511162,18.7092129 C18.9887224,18.798889 18.8186773,18.872592 18.5707787,18.872592 L18.5707787,18.872592 Z M20.3837962,18.0940572 C20.4289487,18.1755581 20.2744995,18.2423436 20.0382979,18.2423436 L19.1829158,18.2423436 C18.9467142,18.2423436 18.7271146,18.1755581 18.6929043,18.0940572 C18.6591971,18.0135625 18.8191804,17.9491668 19.0499738,17.9491668 L19.8856095,17.9491668 C20.1164029,17.9491668 20.3391468,18.0135625 20.3837962,18.0940572 L20.3837962,18.0940572 Z M22.7786396,19.2248821 C22.5562729,18.8922126 21.1999371,16.8652552 21.1999371,16.8652552 L21.1999371,8.79364846 C21.1999371,7.80532439 20.3899591,7 19.4,7 L8.6,7 C7.60916047,7 6.80006289,7.80532439 6.80006289,8.79364846 L6.80006289,16.8652552 C6.80006289,16.8652552 5.44372707,18.8922126 5.22148622,19.2248821 C5,19.5557908 5,19.74684 5,20.0042972 L5,20.4526779 C5,20.9010586 5.45001572,21.349565 5.89915103,21.349565 L22.100849,21.349565 C22.5499843,21.349565 23,20.9010586 23,20.4526779 L23,20.0042972 C23,19.74684 23,19.5557908 22.7786396,19.2248821 L22.7786396,19.2248821 Z" id="Fill-1" fill="#FFFFFF"></path>
                </g>
            </g>
        </g>
    </g>
</svg>