<?xml version="1.0" encoding="UTF-8"?>
<svg width="32px" height="32px" viewBox="0 0 32 32" version="1.1" xmlns="http://www.w3.org/2000/svg" xmlns:xlink="http://www.w3.org/1999/xlink">
    <!-- Generator: Sketch 53 (72520) - https://sketchapp.com -->
    <title>恐怖袭击@4x</title>
    <desc>Created with Sketch.</desc>
    <defs>
        <rect id="path-1" x="0" y="0" width="28" height="28" rx="14"></rect>
        <filter x="-10.7%" y="-10.7%" width="121.4%" height="121.4%" filterUnits="objectBoundingBox" id="filter-2">
            <feMorphology radius="0.5" operator="dilate" in="SourceAlpha" result="shadowSpreadOuter1"></feMorphology>
            <feOffset dx="0" dy="0" in="shadowSpreadOuter1" result="shadowOffsetOuter1"></feOffset>
            <feGaussianBlur stdDeviation="0.5" in="shadowOffsetOuter1" result="shadowBlurOuter1"></feGaussianBlur>
            <feComposite in="shadowBlurOuter1" in2="SourceAlpha" operator="out" result="shadowBlurOuter1"></feComposite>
            <feColorMatrix values="0 0 0 0 0   0 0 0 0 0   0 0 0 0 0  0 0 0 0.26 0" type="matrix" in="shadowBlurOuter1"></feColorMatrix>
        </filter>
    </defs>
    <g id="其他图标" stroke="none" stroke-width="1" fill="none" fill-rule="evenodd">
        <g id="突发事件" transform="translate(-608.000000, -164.000000)">
            <g id="恐怖袭击" transform="translate(610.000000, 166.000000)">
                <g id="矩形-copy-5" transform="translate(14.000000, 14.000000) scale(-1, 1) translate(-14.000000, -14.000000) ">
                    <use fill="black" fill-opacity="1" filter="url(#filter-2)" xlink:href="#path-1"></use>
                    <rect stroke="#FFFFFF" stroke-width="1" stroke-linejoin="square" fill="#D90C0C" fill-rule="evenodd" x="0.5" y="0.5" width="27" height="27" rx="13.5"></rect>
                </g>
                <path d="M18.9911738,11.7935815 C18.6302704,10.7720961 18.0232289,9.51521373 17.0005041,8.10489787 C18.1287403,7.81992632 18.9162334,7.21461997 19.425365,6.678305 C19.5972237,6.49529196 19.9226812,6.39225933 20.2587973,6.41068457 C20.5961527,6.43010131 20.8854207,6.5682493 21.00283,6.76679573 C22.6930773,9.60296085 20.3443962,11.1664623 18.9911738,11.7935815 Z M8.6007621,11.7935815 C7.24753969,11.1664623 4.89885853,9.60296085 6.58910586,6.76679573 C6.70651513,6.5682493 6.99578315,6.43010131 7.33313857,6.41068457 C7.66925463,6.39225933 7.99471213,6.49529196 8.16657088,6.678305 C8.67570243,7.21461997 9.46319557,7.81992632 10.5914317,8.10489787 C9.56870693,9.51521373 8.96166547,10.7720961 8.6007621,11.7935815 Z M12.3074383,19.1513421 C12.3074383,19.5017522 12.7612941,19.7847407 13.322479,19.7847407 C13.8805242,19.7847407 14.3359499,19.5017522 14.3359499,19.1513421 C14.3359499,18.8011799 13.8805242,18.5171998 13.322479,18.5171998 C12.7612941,18.5171998 12.3074383,18.8011799 12.3074383,19.1513421 Z M12.2371249,17.8842969 C12.6581788,17.7176435 12.7875687,17.3685554 12.5236663,17.1037442 C12.4774793,17.0559873 11.6560275,16.1825648 11.9982578,14.8005065 C12.0746853,14.4897561 11.7337771,14.1993314 11.2364608,14.1513266 C11.1902738,14.1471954 11.1440867,14.1447993 11.0973213,14.1447993 C10.6563549,14.1447993 10.268516,14.3454939 10.199442,14.6266648 C9.74616454,16.4584477 10.9312463,17.6569146 10.9813993,17.7070676 C11.2495981,17.9722919 11.8126007,18.0520245 12.2371249,17.8842969 Z M15.6983436,7.71248981 C18.8406321,11.6827574 18.5905281,14.5728763 18.5905281,14.5728763 C18.6413421,17.7140907 15.8971379,19.8153117 14.4959107,20.6826201 C14.2830703,20.8131666 13.9961984,20.8856282 13.6973459,20.8843062 C13.4001459,20.8824885 13.1150918,20.8063914 12.9065478,20.6730356 C11.54812,19.8011004 8.91620245,17.7028537 8.96602496,14.5737025 C8.96602496,14.5737025 8.71583828,11.6827574 11.860275,7.71248981 L13.7460117,7.71248981 L13.8114502,7.71248981 L15.6983436,7.71248981 Z M10.7645763,7.03776245 L10.7645763,6 L16.2427392,6 L16.2427392,7.03776245 L10.7645763,7.03776245 Z M6.88888889,20.4380684 L11.4297606,20.4380684 C11.4297606,20.4380684 13.5891493,22.2496909 16.0748217,20.4380684 L20.6679946,20.4380684 L20.6679946,22 L6.88888889,22 L6.88888889,20.4380684 Z M18.360754,19.0869743 L19.8929868,14.7658521 L19.8929868,16.2774718 L18.360754,19.0869743 Z M18.5190324,19.4643884 L21.5476706,17.9537502 L20.9366425,19.4643884 L18.5190324,19.4643884 Z M9.91359695,19.4396037 L7.64886661,17.5397725 L8.17228949,16.7208967 L9.91359695,19.4396037 Z M9.17790928,19.6388627 L6.25012753,19.2926134 L6.25012753,18.2825766 L9.17790928,19.6388627 Z" id="合并形状" fill="#FFFFFF"></path>
            </g>
        </g>
    </g>
</svg>