<?xml version="1.0" encoding="UTF-8"?>
<svg width="32px" height="32px" viewBox="0 0 32 32" version="1.1" xmlns="http://www.w3.org/2000/svg" xmlns:xlink="http://www.w3.org/1999/xlink">
    <!-- Generator: Sketch 53 (72520) - https://sketchapp.com -->
    <title>民族和宗教事件 copy@4x</title>
    <desc>Created with Sketch.</desc>
    <defs>
        <rect id="path-1" x="0" y="0" width="28" height="28" rx="14"></rect>
        <filter x="-10.7%" y="-10.7%" width="121.4%" height="121.4%" filterUnits="objectBoundingBox" id="filter-2">
            <feMorphology radius="0.5" operator="dilate" in="SourceAlpha" result="shadowSpreadOuter1"></feMorphology>
            <feOffset dx="0" dy="0" in="shadowSpreadOuter1" result="shadowOffsetOuter1"></feOffset>
            <feGaussianBlur stdDeviation="0.5" in="shadowOffsetOuter1" result="shadowBlurOuter1"></feGaussianBlur>
            <feComposite in="shadowBlurOuter1" in2="SourceAlpha" operator="out" result="shadowBlurOuter1"></feComposite>
            <feColorMatrix values="0 0 0 0 0   0 0 0 0 0   0 0 0 0 0  0 0 0 0.26 0" type="matrix" in="shadowBlurOuter1"></feColorMatrix>
        </filter>
    </defs>
    <g id="其他图标" stroke="none" stroke-width="1" fill="none" fill-rule="evenodd">
        <g id="突发事件" transform="translate(-608.000000, -304.000000)">
            <g id="民族和宗教事件-copy" transform="translate(610.000000, 306.000000)">
                <g id="矩形-copy-5" transform="translate(14.000000, 14.000000) scale(-1, 1) translate(-14.000000, -14.000000) ">
                    <use fill="black" fill-opacity="1" filter="url(#filter-2)" xlink:href="#path-1"></use>
                    <rect stroke="#FFFFFF" stroke-width="1" stroke-linejoin="square" fill="#D90C0C" fill-rule="evenodd" x="0.5" y="0.5" width="27" height="27" rx="13.5"></rect>
                </g>
                <path d="M20.7884487,11.0232584 L11.5493791,11.0232584 L9.45292725,6.84900256 L9.45292725,5 L8.81935739,5 L8.81935739,6.87291348 L5,13.9744707 L5.790479,13.9744707 L5.790479,21.7312222 L21.7492608,21.7312222 L21.7492608,15.1160635 L23,15.1160635 L20.7884487,11.0232584 Z M9.11821406,13.3550542 C8.58775871,13.3550542 8.15740193,12.9262153 8.15740193,12.3957599 C8.15740193,11.8645555 8.58775873,11.4341987 9.11821406,11.4341987 C9.65016754,11.4341987 10.0805046,11.8645555 10.0805046,12.3957599 C10.0805046,12.9262153 9.65016756,13.3550542 9.11821406,13.3550542 L9.11821406,13.3550542 Z M19.219456,15.3147822 C19.8859452,15.3581096 20.4164006,15.8916204 20.4492608,16.5632545 L19.219456,16.5632545 L19.219456,15.3147822 Z M15.0041199,15.3147822 C15.6720678,15.3581096 16.2025429,15.8916204 16.2354031,16.5632545 L15.0041199,16.5632545 L15.0041199,15.3147822 Z M14.7919574,20.9810546 L13.5965306,20.9810546 L13.5965306,19.5674926 L14.7919574,19.5674926 L14.7919574,20.9810546 Z M14.7919574,19.3545811 L13.5965306,19.3545811 L13.5965306,18.171849 L14.7919574,18.171849 L14.7919574,19.3545811 Z M14.7919574,17.9588981 L13.5965306,17.9588981 L13.5965306,16.7732092 L14.7919574,16.7732092 L14.7919574,17.9588981 Z M14.7919574,16.5632545 L13.6025429,16.5632545 C13.6354031,15.9072719 14.1434457,15.3805815 14.7919574,15.3177982 L14.7919574,16.5632545 Z M16.242874,20.9810546 L15.005618,20.9810546 L15.005618,19.5674926 L16.242874,19.5674926 L16.242874,20.9810546 Z M16.242874,19.3545811 L15.005618,19.3545811 L15.005618,18.171849 L16.242874,18.171849 L16.242874,19.3545811 Z M16.242874,17.9588981 L15.005618,17.9588981 L15.005618,16.7732092 L16.242874,16.7732092 L16.242874,17.9588981 Z M19.0073132,20.9810546 L17.8088705,20.9810546 L17.8088705,19.5674926 L19.0073132,19.5674926 L19.0073132,20.9810546 Z M19.0073132,19.3545811 L17.8088705,19.3545811 L17.8088705,18.171849 L19.0073132,18.171849 L19.0073132,19.3545811 Z M19.0073132,17.9588981 L17.8088705,17.9588981 L17.8088705,16.7732092 L19.0073132,16.7732092 L19.0073132,17.9588981 Z M19.0073132,16.5632545 L17.8163611,16.5632545 C17.8492411,15.9072719 18.3572442,15.3805815 19.0073132,15.3177982 L19.0073132,16.5632545 Z M20.4567712,20.9810546 L19.2179578,20.9810546 L19.2179578,19.5674926 L20.4567712,19.5674926 L20.4567712,20.9810546 Z M20.4567712,19.3545811 L19.2179578,19.3545811 L19.2179578,18.171849 L20.4567712,18.171849 L20.4567712,19.3545811 Z M20.4567712,17.9588981 L19.2179578,17.9588981 L19.2179578,16.7732092 L20.4567712,16.7732092 L20.4567712,17.9588981 Z" id="形状" fill="#FFFFFF" fill-rule="nonzero"></path>
            </g>
        </g>
    </g>
</svg>