<?xml version="1.0" encoding="UTF-8"?>
<svg width="32px" height="32px" viewBox="0 0 32 32" version="1.1" xmlns="http://www.w3.org/2000/svg" xmlns:xlink="http://www.w3.org/1999/xlink">
    <!-- Generator: Sketch 53 (72520) - https://sketchapp.com -->
    <title>涉外突发事件@4x</title>
    <desc>Created with Sketch.</desc>
    <defs>
        <rect id="path-1" x="0" y="0" width="28" height="28" rx="14"></rect>
        <filter x="-10.7%" y="-10.7%" width="121.4%" height="121.4%" filterUnits="objectBoundingBox" id="filter-2">
            <feMorphology radius="0.5" operator="dilate" in="SourceAlpha" result="shadowSpreadOuter1"></feMorphology>
            <feOffset dx="0" dy="0" in="shadowSpreadOuter1" result="shadowOffsetOuter1"></feOffset>
            <feGaussianBlur stdDeviation="0.5" in="shadowOffsetOuter1" result="shadowBlurOuter1"></feGaussianBlur>
            <feComposite in="shadowBlurOuter1" in2="SourceAlpha" operator="out" result="shadowBlurOuter1"></feComposite>
            <feColorMatrix values="0 0 0 0 0   0 0 0 0 0   0 0 0 0 0  0 0 0 0.26 0" type="matrix" in="shadowBlurOuter1"></feColorMatrix>
        </filter>
    </defs>
    <g id="其他图标" stroke="none" stroke-width="1" fill="none" fill-rule="evenodd">
        <g id="突发事件" transform="translate(-608.000000, -356.000000)">
            <g id="涉外突发事件" transform="translate(610.000000, 358.000000)">
                <g id="矩形-copy-5" transform="translate(14.000000, 14.000000) scale(-1, 1) translate(-14.000000, -14.000000) ">
                    <use fill="black" fill-opacity="1" filter="url(#filter-2)" xlink:href="#path-1"></use>
                    <rect stroke="#FFFFFF" stroke-width="1" stroke-linejoin="square" fill="#D90C0C" fill-rule="evenodd" x="0.5" y="0.5" width="27" height="27" rx="13.5"></rect>
                </g>
                <path d="M6.74384197,13.35167 L7.21762884,13.4925725 L7.73977251,13.6284258 L7.74324533,13.6201156 C7.73062559,13.7945379 7.72427943,13.9702556 7.72427943,14.147051 C7.72427943,15.6624025 8.21310249,17.1451657 9.10927809,18.3672234 C10.6164825,17.5280771 12.6776864,17.0555482 14.852949,17.0555482 C17.0282116,17.0555482 19.0894155,17.5280771 20.59662,18.3672234 C21.4927956,17.1533128 21.9816186,15.6705495 21.9816186,14.147051 C21.9816186,13.128361 21.770924,12.1454493 21.3634194,11.23997 C21.6001181,11.2586194 21.8020648,11.2679441 21.9692595,11.2679441 C22.1729573,11.2679441 22.3312376,11.2390063 22.4441003,11.1811308 C22.8108832,12.1152473 23,13.1158154 23,14.147051 C23,16.0453138 22.3319418,17.8946944 21.1180312,19.3530165 L20.8328844,19.6951927 L20.4581201,19.4507812 C19.0812685,18.5708997 17.0445057,18.0657825 14.8610961,18.0657825 C12.6776864,18.0657825 10.6409237,18.5708997 9.26407206,19.4507812 L8.87301361,19.7033397 L8.58786683,19.3611636 C7.37395624,17.8946944 6.70589806,16.0453138 6.70589806,14.147051 C6.70589806,13.8796626 6.71861256,13.614336 6.74384197,13.35167 Z M6.78898256,12.9740648 C6.82344974,12.7334455 6.86855618,12.4953528 6.9241436,12.2602614 C6.95216085,12.2690919 6.98021868,12.2780328 7.00832752,12.2871149 C7.195586,12.3476236 7.38595352,12.393388 7.57346085,12.4531207 C7.58209474,12.4558711 7.59739486,12.4691263 7.61088197,12.4720552 C7.53652549,12.2561083 7.45823663,12.0321466 7.38426083,11.820867 C7.34775558,11.7166192 7.39395284,11.5877213 7.49817336,11.5397119 C7.52085869,11.5292603 7.54330028,11.5178672 7.56682386,11.5097137 C7.78833798,11.4329578 8.03691385,11.3829624 8.25834772,11.3059929 C8.28260484,11.2975611 8.30588123,11.2861182 8.32799212,11.2723785 C8.0445924,11.910727 7.85869335,12.587158 7.77513035,13.2871653 L6.78898226,12.9740647 Z M22.3196294,10.8821397 C22.2165586,10.9309366 22.0910216,10.9572497 21.9692595,10.9572497 C21.8806456,10.9572497 21.6229863,10.9362345 21.1962817,10.8942042 C21.0576016,10.6262447 20.9010367,10.3658779 20.7269728,10.1142607 C20.3209901,10.3509031 19.8733527,10.5597756 19.3926941,10.7388741 C19.4792505,10.6833655 19.5657517,10.6277712 19.6520793,10.5719081 C19.8869539,10.4199261 20.1214567,10.2673591 20.3558436,10.1146315 C20.3906843,10.0919263 20.4253303,10.0817275 20.4691191,10.0850308 C20.8397738,10.1130267 21.2106356,10.1382421 21.5814809,10.1636024 C21.6061551,10.1652897 21.6316303,10.1637871 21.6560271,10.1596301 C21.7461467,10.1442735 21.8264209,10.1105397 21.8946285,10.0518968 C22.0528814,10.3212449 22.1946606,10.5983433 22.3196294,10.8821397 Z M19.0062099,7.1320738 C18.8121104,7.11855865 18.61801,7.10505805 18.4239085,7.09157586 C18.3972766,7.08972628 18.3700765,7.09345855 18.3433306,7.09632694 C18.2388682,7.10753849 18.1526278,7.15565936 18.077203,7.22697204 C17.9954658,7.30425889 17.944391,7.39897295 17.9362752,7.50967462 C17.931369,7.57662413 17.9264964,7.64357606 17.9216535,7.71053012 C17.8098643,7.65714842 17.6966655,7.6067038 17.5821653,7.55924918 C17.6920549,7.70179964 17.7981052,7.85292763 17.9000268,8.01212655 C17.8660141,8.49032968 17.8332165,8.96861947 17.8002147,9.44689149 C17.7983795,9.47349902 17.8015246,9.50082957 17.8053851,9.52737803 C17.822519,9.64516201 17.8758511,9.74381032 17.9665322,9.82112937 C18.0384142,9.88241613 18.1208996,9.92151337 18.2160389,9.92844565 C18.4498488,9.94548125 18.6837578,9.96118985 18.91759,9.97799834 C18.9424223,9.9797856 18.9670479,9.98498217 18.9916654,9.98920631 C19.1047604,10.0086056 19.1827448,10.1211546 19.1744647,10.2312986 C19.1595747,10.4294769 19.1462392,10.6277639 19.132286,10.8291901 C19.1088569,10.8372286 19.085355,10.8451994 19.0617813,10.8531022 C19.129542,11.1319814 19.1888555,11.4194107 19.2391766,11.7144355 C18.9271468,11.9205789 18.721565,12.0519849 18.6224311,12.1086534 C18.4654012,12.1984173 18.3293508,12.0718064 18.3293508,11.9611389 C18.3293508,11.8873605 18.3468548,11.5856252 18.3818628,11.0559329 L18.3818628,10.7057347 C18.0047548,10.6642312 17.7617739,10.6434795 17.6529201,10.6434795 C17.4912479,10.6434795 17.2873406,10.5556945 17.1261176,10.2914853 C17.3515108,10.2526814 17.5726565,10.2081074 17.7888384,10.1579425 C17.6012047,9.61609351 17.3774249,9.12575453 17.1252092,8.70225292 C17.2036521,7.71430489 17.2428736,7.13009887 17.2428736,6.94963484 C17.2428736,6.78093285 17.3556358,6.6193404 17.5811603,6.4648575 C18.0772333,6.6402673 18.5542279,6.86363429 19.0062099,7.1320738 Z M20.7363593,10.1047722 C20.3317117,10.341736 19.8846248,10.5515478 19.4036921,10.7318204 C19.4865777,10.6786556 19.5694081,10.6254051 19.6520793,10.5719081 C19.8869539,10.4199261 20.1214567,10.2673591 20.3558436,10.1146315 C20.3906843,10.0919263 20.4253303,10.0817275 20.4691191,10.0850308 C20.5581882,10.0917583 20.6472694,10.0983252 20.7363593,10.1047722 Z M17.1858291,6.3364398 C17.0864036,6.41688655 16.9919259,6.55534374 16.9587976,6.85155478 C16.9217296,7.10128071 16.8829027,7.57471006 16.8423168,8.27184283 C16.2692522,7.48415253 15.582008,7.01838137 14.852949,7.01838137 C13.6536627,7.01838137 12.5706686,8.27873666 11.922174,10.159128 C12.8294654,10.3692184 13.8240288,10.480878 14.852949,10.480878 C15.5180163,10.480878 16.1687294,10.4342267 16.7907982,10.3444966 C16.8767015,10.6366379 17.1304425,10.8292599 17.5520211,10.9223626 C17.6895056,10.9661943 17.8560594,10.9881102 18.0516824,10.9881102 L18.0449333,11.1413421 C17.0528929,11.374863 15.9705718,11.4992594 14.852949,11.4992594 C13.7271562,11.4992594 12.637183,11.3730376 11.6384426,11.1362033 C11.4173014,12.0566574 11.2926878,13.0791122 11.2926878,14.147051 C11.2926878,15.3114705 11.4408344,16.4218165 11.7007211,17.404829 C12.6866221,17.1765877 13.7566291,17.0555482 14.852949,17.0555482 C15.953152,17.0555482 17.0252826,17.1766103 18.0115316,17.4048929 C18.2724635,16.4218646 18.4213574,15.3114957 18.4213574,14.147051 C18.4213574,13.5978345 18.3882346,13.0606477 18.3258562,12.5431777 C18.420955,12.5490951 18.5368196,12.5176459 18.67345,12.44883 C18.9248429,12.2807859 19.1306812,12.145373 19.2909651,12.0425914 C19.3881416,12.7116691 19.4397387,13.4166688 19.4397387,14.147051 C19.4374699,15.419863 19.2797701,16.6155914 18.9979595,17.6784582 C19.7436409,17.9219818 20.4198497,18.2327801 20.9958255,18.6034879 L21.4846485,18.9130758 L21.1180312,19.3530165 C19.5619445,21.2268383 17.2807702,22.2941019 14.852949,22.2941019 C12.4251278,22.2941019 10.1439536,21.2268383 8.58786683,19.3530165 L8.22124954,18.9130758 L8.71007259,18.6034879 C9.28847522,18.2331878 9.96574109,17.9226655 10.7112109,17.6792619 C10.4304478,16.6161942 10.2743064,15.4201838 10.2743064,14.147051 C10.2743064,12.9692233 10.4079457,11.8574037 10.6502664,10.8557915 C10.2889773,10.7351749 9.94430875,10.5986697 9.61950928,10.447191 L8.90001366,8.57887086 C10.443193,6.93040747 12.5710948,6 14.852949,6 C15.6559896,6 16.4399629,6.1152318 17.1858291,6.3364398 Z M8.65142558,8.85657889 L9.10571156,10.185785 C8.91616367,10.0806632 8.73513433,9.96984457 8.56342568,9.85355511 L8.10719082,9.54396717 L8.44121991,9.11217347 C8.50983135,9.02533712 8.57991618,8.94013091 8.65142558,8.85657889 Z M12.125526,20.7334393 C11.6880682,20.1644277 11.3118368,19.4588834 11.015003,18.6489869 C10.5740454,18.7935818 10.1615885,18.9637362 9.78548332,19.1574873 C10.4595471,19.8397714 11.2559501,20.3727601 12.125526,20.7334393 Z M10.9324688,9.87903312 C11.2413382,8.96913932 11.647831,8.18113459 12.1279601,7.55749879 C11.1844671,7.94781386 10.3292074,8.54107812 9.6225423,9.30770269 C10.0178844,9.52680793 10.4577828,9.71806546 10.9324688,9.87903312 Z M18.69274,18.649592 C18.3952397,19.4590827 18.0186927,20.1643044 17.5811451,20.7331186 C18.4504199,20.3724442 19.2465507,19.8395692 19.9204147,19.1574873 C19.5448341,18.9640064 19.1330031,18.7940564 18.69274,18.649592 Z M17.7013669,18.3781137 C16.8140183,18.1795153 15.8477818,18.0739295 14.852949,18.0739295 C13.8599115,18.0739295 12.895367,18.1791345 12.0093357,18.3770395 C12.6652073,20.12274 13.7058858,21.2757206 14.852949,21.2757206 C15.999777,21.2757206 17.0431379,20.123213 17.7013669,18.3781137 Z M18.5497753,9.95211879 C18.6723844,9.96067614 18.7949977,9.96918608 18.91759,9.97799834 C18.9424223,9.9797856 18.9670479,9.98498217 18.9916654,9.98920631 C19.1047604,10.0086056 19.1827448,10.1211546 19.1744647,10.2312986 C19.1595065,10.4303846 19.1461171,10.6295803 19.1320943,10.8319582 C18.8892673,10.9150429 18.6387777,10.9907931 18.3816622,11.0589679 C18.381729,11.0579571 18.3817959,11.0569454 18.3818628,11.0559329 L18.3818628,10.7057347 C18.0027062,10.6857222 17.7597253,10.6649705 17.6529201,10.6434795 C17.4927122,10.611243 17.2924877,10.6197005 17.1270812,10.2910892 C17.0267412,10.3082702 16.9184458,10.325485 16.8021949,10.3427335 C16.8766347,10.6351964 17.1265767,10.8284062 17.5520211,10.9223626 C17.6895056,10.9661943 17.8560594,10.9881102 18.0516824,10.9881102 L18.044858,11.1430517 C17.7390067,11.2147682 17.4247776,11.2760712 17.1038081,11.3265804 C16.3814412,11.4402555 15.6249333,11.4992594 14.852949,11.4992594 C12.9123941,11.4992594 11.0696319,11.1264251 9.62112272,10.4495777 L9.04010168,8.94189973 L9.13371925,9.00626181 C10.5105709,9.94317267 12.5962159,10.480878 14.852949,10.480878 C16.1810031,10.480878 17.4498068,10.2946627 18.5497753,9.95211879 Z M8.13078025,9.54505657 C8.23181167,9.3980887 8.33802746,9.2537337 8.44936696,9.11217347 L8.64953298,8.85640579 L9.10531349,10.1862873 C9.062751,10.1625728 9.02061848,10.1385632 8.97892528,10.1142607 C8.82214765,10.3408898 8.67956603,10.5746168 8.55146217,10.8145966 C8.55070658,10.803637 8.54968046,10.7927141 8.54840036,10.7818552 C8.54525798,10.7552122 8.5394135,10.7320434 8.53075432,10.7068174 C8.39602941,10.3143752 8.26414902,9.93085563 8.13078025,9.54505657 Z M14.3396848,6.50511716 L15.3580662,6.50511716 L15.3580662,21.7808377 L14.3396848,21.7808377 L14.3396848,6.50511716 Z M7.21916227,13.6337868 L22.4948828,13.6337868 L22.4948828,14.6521681 L7.21916227,14.6521681 L7.21916227,13.6337868 Z M17.0320417,9.97951227 L17.2446527,6.93903452 C17.2469235,6.93599187 17.2502639,6.93327809 17.2512904,6.92986258 C17.2640013,6.88752559 17.2719945,6.84316271 17.2896514,6.80303907 C17.3413158,6.68563219 17.4165358,6.58636245 17.5219264,6.51018967 C17.6061288,6.4493365 17.6966964,6.40537392 17.7990468,6.38657641 C17.8328743,6.38036021 17.8668038,6.37468472 17.9006809,6.36875784 L22.3634196,6.68082292 C22.3664559,6.68309331 22.369248,6.68685842 22.3725765,6.68740242 C22.4447297,6.69930175 22.5114427,6.72713912 22.5738276,6.76327454 C22.653867,6.80964537 22.7228638,6.86940914 22.7799396,6.94367955 C22.8361248,7.01678878 22.8796802,7.09564641 22.9035259,7.18430544 C22.9169557,7.2342444 22.9238595,7.2859439 22.9336967,7.33684488 L22.7206438,10.3836438 C22.7082342,10.4213077 22.6977405,10.4597344 22.6830628,10.4964965 C22.6309691,10.6269459 22.5481353,10.7332676 22.4331406,10.815159 C22.2950898,10.9134653 22.140801,10.9575709 21.9735079,10.9467429 C21.520515,10.9174232 21.0677863,10.8839613 20.6148729,10.8534148 C20.5950714,10.852081 20.5715522,10.8588592 20.554626,10.8695476 C20.4276357,10.9497554 20.3019206,11.0319833 20.1757081,11.1134206 C20.0191089,11.214457 19.8624124,11.3153406 19.7057616,11.4162973 C19.5629737,11.5083141 19.4202093,11.600358 19.2773987,11.6923351 C19.1302979,11.7870739 18.9839524,11.8830025 18.8357547,11.9759877 C18.7428852,12.0342466 18.6568832,12.1062108 18.5458556,12.1307345 L18.444717,12.1236622 C18.4095112,12.1050788 18.3809187,12.0803962 18.3601164,12.0452312 C18.3268502,11.9890077 18.3196912,11.9272413 18.3237801,11.8653151 C18.3485997,11.4891216 18.3756381,11.1130833 18.4019373,10.736987 L18.4046637,10.6979981 C18.3883867,10.6968599 18.3759274,10.6960839 18.3634885,10.6951061 C18.1185883,10.6758848 17.8736123,10.6575666 17.6288408,10.636868 C17.5484668,10.6300725 17.4742713,10.5995078 17.4041969,10.5608782 C17.3072351,10.5074293 17.2257039,10.4356094 17.1624276,10.3443646 C17.1119557,10.2715787 17.0734155,10.1929447 17.0551028,10.1056445 C17.0463324,10.0638317 17.0396644,10.0215688 17.0320417,9.97951227 Z M19.112109,10.9366829 C19.1243785,10.930363 19.1328707,10.926828 19.1404985,10.9219367 C19.3061567,10.8157089 19.47201,10.7097805 19.637227,10.6028675 C19.8721016,10.4508855 20.1066044,10.2983185 20.3409913,10.1455909 C20.375832,10.1228858 20.410478,10.1126869 20.4542668,10.1159903 C20.8249215,10.1439861 21.1957833,10.1692015 21.5666286,10.1945618 C21.5913028,10.1962491 21.616778,10.1947465 21.6411748,10.1905895 C21.7481929,10.1723534 21.8413272,10.1282019 21.916858,10.0471971 C21.9910429,9.96763527 22.0374553,9.87528212 22.0452107,9.76782656 C22.0912788,9.12955255 22.1352423,8.49112503 22.1795788,7.85272358 C22.180868,7.83419582 22.1784977,7.81540581 22.1776875,7.79674394 C22.1720501,7.66625302 22.1176755,7.55853094 22.0211005,7.47275168 C21.9448961,7.40505833 21.8560304,7.36309479 21.7526853,7.35587455 C20.6381484,7.27797666 19.5236204,7.19995234 18.4090562,7.12253529 C18.3824243,7.12068571 18.3552242,7.12441798 18.3284783,7.12728637 C18.2240159,7.13849792 18.1377755,7.18661879 18.0623507,7.25793147 C17.9806135,7.33521832 17.9295387,7.42993238 17.9214229,7.54063405 C17.8741121,8.18623402 17.8299235,8.83205867 17.7853624,9.47785092 C17.7835272,9.50445845 17.7866723,9.531789 17.7905328,9.55833746 C17.8076667,9.67612144 17.8609988,9.77476975 17.9516799,9.8520888 C18.0235619,9.91337555 18.1060474,9.9524728 18.2011866,9.95940508 C18.4349965,9.97644068 18.6689055,9.99214928 18.9027377,10.0089578 C18.92757,10.010745 18.9521956,10.0159416 18.9768131,10.0201657 C19.0899081,10.039565 19.1678925,10.1521141 19.1596124,10.262258 C19.1428404,10.4854847 19.1280407,10.7088493 19.112109,10.9366829 Z M9.39487116,11.0196122 C9.3983933,11.0622085 9.40289088,11.1047572 9.40524135,11.1474151 C9.41014759,11.2364804 9.39327252,11.3224099 9.36335884,11.4057788 C9.32585449,11.5102917 9.2656898,11.6007662 9.18586545,11.6774894 C9.12817684,11.7329393 9.06442022,11.7816658 8.98854374,11.809032 C8.75746984,11.8923769 8.52558225,11.9734754 8.29400165,12.0554265 C8.28223971,12.0595904 8.27040577,12.0635646 8.254978,12.0688769 L8.26770254,12.1058316 C8.39044654,12.4623061 8.51388946,12.8185331 8.63522941,13.1754843 C8.65520669,13.2342422 8.66427786,13.2957568 8.64669691,13.3586744 C8.63570483,13.3980253 8.61447498,13.4292671 8.58527846,13.4563293 L8.48941656,13.4893372 C8.37582491,13.4943851 8.27412762,13.447132 8.16934413,13.4148946 C8.00212976,13.3634342 7.8359427,13.3086513 7.66933405,13.2552131 C7.5075842,13.2033321 7.34586164,13.1513747 7.18412338,13.0994496 C7.00668083,13.0424771 6.82921304,12.9855871 6.65179966,12.9285242 C6.50881028,12.882528 6.36609666,12.8356394 6.22267412,12.7910322 C6.20355837,12.7850888 6.17908615,12.7846288 6.16030468,12.7910422 C5.73072988,12.9377704 5.30208814,13.0872669 4.87211911,13.2328308 C4.71332883,13.2865885 4.55288191,13.2839186 4.39409152,13.2246922 C4.26182013,13.175354 4.15429075,13.0940941 4.07020935,12.9815724 C4.04651705,12.9498619 4.02643531,12.9154605 4.00470047,12.8822918 L3.01033755,9.9944522 C3.00666538,9.94273958 2.99995317,9.89101486 3.00000025,9.83930163 C3.00008672,9.74749188 3.02174821,9.66004827 3.05709686,9.57488839 C3.09300528,9.48837636 3.14418301,9.41279133 3.20949349,9.34728482 C3.26040019,9.29623427 3.31763509,9.25207886 3.38424994,9.22191037 C3.38732428,9.22052341 3.38904673,9.21616396 3.39139198,9.21318507 L7.62129812,7.75671159 C7.65555492,7.75366846 7.68979716,7.75036898 7.72408089,7.74761816 C7.82780899,7.73928492 7.92666888,7.7583089 8.02375212,7.79529537 C8.14526664,7.84159551 8.24361648,7.91801435 8.32390759,8.01804897 C8.35134756,8.05223549 8.3705504,8.09301794 8.39378582,8.13062251 C8.39566134,8.13365596 8.39959029,8.13541271 8.40257124,8.13776395 L9.39487116,11.0196122 Z M7.63341445,12.482529 C7.55905797,12.2665821 7.48695148,12.0546589 7.41297568,11.8433794 C7.37647043,11.7391316 7.42266769,11.6102337 7.52688821,11.5622243 C7.54957354,11.5517726 7.57201513,11.5403795 7.59553871,11.5322261 C7.81705283,11.4554701 8.03892592,11.3797567 8.26035978,11.3027871 C8.35046307,11.2714672 8.42001874,11.2123533 8.47358931,11.1345504 C8.54116885,11.036396 8.56715169,10.9273056 8.55321703,10.8091005 C8.55007466,10.7824575 8.54603893,10.7552442 8.53737976,10.7300183 C8.32719371,10.1177641 8.11735909,9.50538225 7.90456679,8.8940255 C7.86807584,8.78919642 7.79422755,8.7109288 7.69527213,8.65743059 C7.60396033,8.60806919 7.50820393,8.58390865 7.40439919,8.600116 C7.37782227,8.60426769 7.350583,8.6077025 7.32533724,8.61638191 C6.26878796,8.97963146 5.21243073,9.34345824 4.15603225,9.7071652 C4.0580773,9.74088709 3.98310057,9.8044209 3.92701303,9.88953082 C3.85593011,9.99738265 3.83128881,10.1155074 3.85961704,10.243011 C3.86366443,10.2612467 3.86623813,10.2800099 3.87227877,10.2975727 C4.08033497,10.902746 4.28803768,11.508041 4.49773346,12.1126431 C4.53303615,12.2144299 4.60176991,12.2916238 4.69401912,12.3492741 C4.78794189,12.40797 4.88932997,12.4265122 4.99742134,12.4164286 C5.02206272,12.4141295 5.04705882,12.4089875 5.07045551,12.4009716 C5.42210084,12.2804935 5.77379962,12.1601512 6.12457869,12.0371768 C6.16602048,12.0226526 6.20212554,12.023537 6.24165568,12.036451 C6.50758484,12.1233107 6.77358431,12.2099853 7.03979168,12.2959986 C7.22705016,12.3565073 7.41466837,12.4159003 7.6021757,12.4756331 C7.61080959,12.4783834 7.61992734,12.4796001 7.63341445,12.482529 Z" id="合并形状" fill="#FFFFFF" fill-rule="nonzero"></path>
            </g>
        </g>
    </g>
</svg>