<?xml version="1.0" encoding="UTF-8"?>
<svg width="32px" height="32px" viewBox="0 0 32 32" version="1.1" xmlns="http://www.w3.org/2000/svg" xmlns:xlink="http://www.w3.org/1999/xlink">
    <!-- Generator: Sketch 53 (72520) - https://sketchapp.com -->
    <title>网络安全事件@4x</title>
    <desc>Created with Sketch.</desc>
    <defs>
        <rect id="path-1" x="0" y="0" width="28" height="28" rx="14"></rect>
        <filter x="-10.7%" y="-10.7%" width="121.4%" height="121.4%" filterUnits="objectBoundingBox" id="filter-2">
            <feMorphology radius="0.5" operator="dilate" in="SourceAlpha" result="shadowSpreadOuter1"></feMorphology>
            <feOffset dx="0" dy="0" in="shadowSpreadOuter1" result="shadowOffsetOuter1"></feOffset>
            <feGaussianBlur stdDeviation="0.5" in="shadowOffsetOuter1" result="shadowBlurOuter1"></feGaussianBlur>
            <feComposite in="shadowBlurOuter1" in2="SourceAlpha" operator="out" result="shadowBlurOuter1"></feComposite>
            <feColorMatrix values="0 0 0 0 0   0 0 0 0 0   0 0 0 0 0  0 0 0 0.26 0" type="matrix" in="shadowBlurOuter1"></feColorMatrix>
        </filter>
    </defs>
    <g id="其他图标" stroke="none" stroke-width="1" fill="none" fill-rule="evenodd">
        <g id="突发事件" transform="translate(-608.000000, -408.000000)">
            <g id="网络安全事件" transform="translate(610.000000, 410.000000)">
                <g id="矩形-copy-5" transform="translate(14.000000, 14.000000) scale(-1, 1) translate(-14.000000, -14.000000) ">
                    <use fill="black" fill-opacity="1" filter="url(#filter-2)" xlink:href="#path-1"></use>
                    <rect stroke="#FFFFFF" stroke-width="1" stroke-linejoin="square" fill="#D90C0C" fill-rule="evenodd" x="0.5" y="0.5" width="27" height="27" rx="13.5"></rect>
                </g>
                <path d="M5.1121789,15.7092276 C5.71971178,15.6612311 6.21789124,15.2245817 6.34258456,14.6478751 C6.34431798,14.6374746 6.3460514,14.6270741 6.34776345,14.6166522 L8.4501301,14.6166522 C8.51257589,15.9436253 8.80919341,17.2237641 9.29314831,18.4414571 C8.49696444,18.8005204 7.74761492,19.2376409 7.04509974,19.7528187 C6.04938701,18.5704099 5.39477894,17.2019439 5.1121789,15.7092276 Z M8.47093853,8.83437123 C8.45858837,8.84654128 8.44644671,8.85896564 8.43451865,8.8716392 C7.99739809,8.60624458 7.59150043,8.32523851 7.18560278,8.01300954 C8.55941023,6.4518647 10.4171726,5.42150911 12.4466609,5.07805724 C11.3630908,6.0377907 10.4483577,7.18170988 9.77855724,8.46415732 C9.64481575,8.44909142 9.53923355,8.43451865 9.43365134,8.43451865 C9.05474956,8.43451865 8.70527573,8.5963724 8.47093853,8.83437123 Z M5,12.9774501 C5.17172593,11.3694709 5.78057242,9.85516045 6.76409367,8.54379879 C7.18451159,8.88636153 7.63599095,9.18233211 8.11853177,9.46269155 C8.08981414,9.56752091 8.07545533,9.67293838 8.07545533,9.79271466 C8.07548272,9.79789244 8.07545533,9.80309558 8.07545533,9.80832611 C8.07545533,10.3235039 8.37207285,10.7762359 8.80919341,11.0104076 C8.55941023,11.9783174 8.43451865,12.9618387 8.43451865,13.9609714 L6.32697311,13.9609714 C6.23198232,13.6500924 6.03190257,13.3822044 5.76636816,13.2048685 C5.74112646,13.1879944 5.71529192,13.1719583 5.68890834,13.1567948 C5.60989635,13.1113457 5.52588769,13.0735976 5.43779605,13.0446468 C5.30290642,13.0007547 5.16149976,12.9774501 5.01561145,12.9774501 C5,12.9774501 5,12.9774501 5.01561145,12.9774501 C5.01040763,12.9774501 5.00521104,12.977479 5.00002182,12.9775367 Z M17.9999845,19.8152196 C18.0014202,19.8152492 18.0028707,19.8152645 18.0043365,19.8152645 C18.4414571,19.8152645 18.8317433,19.6123157 19.0815265,19.2688638 C19.5967042,19.5342585 20.0806592,19.8152645 20.5490026,20.1431049 C19.1751951,21.6261925 17.3486557,22.5784909 15.3660017,22.8907199 C16.396073,22.0011128 17.2389103,20.9554775 17.8945135,19.8006094 C17.9244258,19.8040028 17.9622063,19.8152645 17.9887251,19.8152645 C17.9924817,19.8152645 17.9962349,19.8152495 17.9999845,19.8152196 Z M18.9101511,17.4255166 C19.1753464,16.5204239 19.3469417,15.5841426 19.3937554,14.6322637 L22.9843886,14.6322637 C22.8438855,16.4744146 22.1569818,18.2072853 21.0017346,19.6435386 C20.4865568,19.2688638 19.9245447,18.9410234 19.3625325,18.6756288 C19.3625325,18.5975716 19.378144,18.5351258 19.378144,18.4570685 C19.378144,18.0592627 19.2112838,17.717077 18.9563019,17.4698806 C18.9412351,17.4547098 18.9258459,17.4399162 18.9101511,17.4255166 Z M10.3808066,8.78895073 C11.1453967,7.31431405 12.2500371,6.02566512 13.633131,5 L13.633131,10.4015611 C12.6546665,10.3704988 11.7071047,10.2003745 10.7904456,9.9065601 C10.7909582,9.8998573 10.7914256,9.89313172 10.7918474,9.88638335 C10.7918474,9.85516045 10.8074588,9.80832611 10.8074588,9.77710321 C10.8074588,9.386817 10.6357329,9.04336513 10.3859497,8.79358196 C10.3842387,8.79203401 10.3825243,8.79049027 10.3808066,8.78895073 Z M18.9101511,17.4255166 C18.9048649,17.4206667 18.899544,17.4158614 18.8941891,17.4111015 C18.7224631,17.2705984 18.5195143,17.1613183 18.2853426,17.114484 C18.1916739,17.0988725 18.0980052,17.0832611 18.0043365,17.0832611 C17.4891587,17.0832611 17.0520382,17.3642671 16.8178664,17.7701648 C16.0060711,17.5828274 15.1630529,17.4735473 14.3200347,17.4735473 L14.3200347,14.6478751 L18.7068517,14.6478751 C18.6600173,15.4908933 18.5195143,16.3183001 18.2853426,17.114484 C18.1916739,17.0988725 18.0980052,17.0832611 18.0043365,17.0832611 Z M7.51344319,20.2679965 C8.13790113,19.7996531 8.84041631,19.4093669 9.57415438,19.0815265 C10.2610581,20.5333912 11.2289679,21.8135299 12.4466609,22.8751084 C10.5888985,22.547268 8.84041631,21.641804 7.51344319,20.2679965 Z M13.633131,17.4735473 C12.3529922,17.5203816 11.1196878,17.7701648 9.93321769,18.1916739 C9.48048569,17.0676496 9.19947962,15.8655681 9.13703382,14.6322637 L13.633131,14.6322637 L13.633131,17.4735473 Z M13.633131,22.9531657 C12.1656548,21.8603643 10.9791847,20.4397225 10.2142238,18.8317433 C11.3070252,18.4258456 12.4622723,18.1916739 13.633131,18.1448395 L13.633131,22.9531657 Z M9.46487424,11.1665221 C9.91760624,11.1509107 10.3235039,10.9167389 10.5732871,10.5576756 C11.5568083,10.8699046 12.5871639,11.0416305 13.633131,11.0884649 L13.633131,13.9609714 L9.12142238,13.9609714 C9.12142238,13.008673 9.23070252,12.0719861 9.46487424,11.1665221 Z M18.7849089,10.1361665 C19.6747615,9.76149176 20.5021683,9.27753686 21.2827407,8.68430182 C22.406765,10.2142238 23,12.0407632 23,13.9453599 L19.4093669,13.9453599 C19.4093669,12.6339983 19.1908066,11.3538595 18.7849089,10.1361665 Z M14.3044232,10.4171726 L14.3044232,5.07805724 C15.9280139,6.31136167 17.1613183,7.91934085 17.8950564,9.76149176 C16.7398092,10.1673894 15.5377277,10.4015611 14.3044232,10.4171726 Z M18.5507372,9.49609714 C17.8638335,7.81006071 16.7710321,6.28013877 15.3660017,5.06244579 C17.5047702,5.39028621 19.4405898,6.4830876 20.8612316,8.13790113 C20.1431049,8.68430182 19.378144,9.13703382 18.5507372,9.49609714 Z M14.3044232,13.9453599 L14.3200347,13.9453599 L14.3200347,11.0884649 C15.6313964,11.0728534 16.9115351,10.8386817 18.1448395,10.3859497 C18.5195143,11.5411969 18.7224631,12.727667 18.7224631,13.9453599 L14.3044232,13.9453599 Z M14.3044232,18.1448395 C15.1006071,18.160451 15.8811795,18.2541197 16.6305291,18.4414571 L16.6305291,18.4570685 C16.6305291,18.925412 16.8647008,19.3313096 17.2237641,19.5810928 C16.490026,20.8456201 15.4908933,21.9696444 14.3044232,22.8751084 L14.3044232,18.1448395 Z" id="合并形状" fill="#FFFFFF" fill-rule="nonzero"></path>
            </g>
        </g>
    </g>
</svg>