<?xml version="1.0" encoding="UTF-8"?>
<svg width="32px" height="32px" viewBox="0 0 32 32" version="1.1" xmlns="http://www.w3.org/2000/svg" xmlns:xlink="http://www.w3.org/1999/xlink">
    <!-- Generator: Sketch 53 (72520) - https://sketchapp.com -->
    <title>重大刑事案件@4x</title>
    <desc>Created with Sketch.</desc>
    <defs>
        <rect id="path-1" x="0" y="0" width="28" height="28" rx="14"></rect>
        <filter x="-10.7%" y="-10.7%" width="121.4%" height="121.4%" filterUnits="objectBoundingBox" id="filter-2">
            <feMorphology radius="0.5" operator="dilate" in="SourceAlpha" result="shadowSpreadOuter1"></feMorphology>
            <feOffset dx="0" dy="0" in="shadowSpreadOuter1" result="shadowOffsetOuter1"></feOffset>
            <feGaussianBlur stdDeviation="0.5" in="shadowOffsetOuter1" result="shadowBlurOuter1"></feGaussianBlur>
            <feComposite in="shadowBlurOuter1" in2="SourceAlpha" operator="out" result="shadowBlurOuter1"></feComposite>
            <feColorMatrix values="0 0 0 0 0   0 0 0 0 0   0 0 0 0 0  0 0 0 0.26 0" type="matrix" in="shadowBlurOuter1"></feColorMatrix>
        </filter>
    </defs>
    <g id="其他图标" stroke="none" stroke-width="1" fill="none" fill-rule="evenodd">
        <g id="突发事件" transform="translate(-608.000000, -452.000000)">
            <g id="重大刑事案件" transform="translate(610.000000, 454.000000)">
                <g id="矩形-copy-5" transform="translate(14.000000, 14.000000) scale(-1, 1) translate(-14.000000, -14.000000) ">
                    <use fill="black" fill-opacity="1" filter="url(#filter-2)" xlink:href="#path-1"></use>
                    <rect stroke="#FFFFFF" stroke-width="1" stroke-linejoin="square" fill="#D90C0C" fill-rule="evenodd" x="0.5" y="0.5" width="27" height="27" rx="13.5"></rect>
                </g>
                <path d="M21.1796926,13.6539698 L21.1796926,11.0683991 C21.1796926,10.2303113 20.5006048,9.55122345 19.6625169,9.55122345 L18.1453413,9.55122345 L16.6281657,9.55122345 C15.7900779,9.55122345 15.1109901,10.2303113 15.1109901,11.0683991 L15.1109901,11.265025 C15.0126771,11.1724773 14.905261,11.087212 14.7784252,11.0228838 L12.0723907,9.65014329 C11.32503,9.27115281 10.4119937,9.56942955 10.0330032,10.3164868 L8.86326082,12.6225938 C7.47170734,12.9141949 6.219734,13.8090251 5.52638475,15.1756969 C4.31325112,17.5667657 5.26816146,20.488846 7.65953369,21.7019796 C9.47346886,22.6219949 11.5914461,22.2924644 13.0382247,21.0371533 C12.667427,20.523741 12.3694537,19.9560139 12.1558354,19.3479299 C11.2661636,20.3847677 9.75566353,20.7240082 8.48305661,20.0786017 C6.98863862,19.3203173 6.39178172,17.4939413 7.14976267,15.9998267 C7.90804705,14.5051053 9.73411964,13.9082484 11.2285376,14.6665328 C11.5413792,14.8249259 11.8123468,15.032779 12.0423506,15.2721893 C12.5263297,13.6072408 13.6411503,12.2150804 15.1106866,11.3636415 L15.1106866,13.6542732 C14.0016312,14.5442485 13.2900759,15.9084928 13.2900759,17.4408402 C13.2900759,20.1222964 15.4635817,22.2958022 18.1450379,22.2958022 C20.8264941,22.2958022 22.9999999,20.1222964 22.9999999,17.4408402 C23.0003033,15.9081893 22.2884445,14.543945 21.1796926,13.6539698 Z M13.413574,12.3722598 C13.1859976,12.8207369 12.6379938,12.9994602 12.1898201,12.7718839 C11.741343,12.544611 11.5626197,11.9966071 11.7898926,11.5484334 C12.0174689,11.0999563 12.5654728,10.9209296 13.0136465,11.1485059 C13.4618202,11.3760823 13.6408469,11.9234793 13.413574,12.3722598 Z M18.1453413,10.4618322 C18.6481333,10.4618322 19.0556467,10.8693456 19.0556467,11.3721376 C19.0556467,11.8749296 18.6481333,12.282443 18.1453413,12.282443 C17.6425493,12.282443 17.2350359,11.8749296 17.2350359,11.3721376 C17.2350359,10.8693456 17.6425493,10.4618322 18.1453413,10.4618322 Z M18.1453413,20.4751914 C16.4697726,20.4751914 15.1109901,19.1164089 15.1109901,17.4408401 C15.1109901,15.7652714 16.4697725,14.4064889 18.1453413,14.4064889 C19.8209101,14.4064889 21.1796926,15.7652714 21.1796926,17.4408401 C21.1796926,19.1164089 19.8212135,20.4751914 18.1453413,20.4751914 Z M13.2903793,9.854962 C14.1284671,9.854962 14.8075549,9.17587419 14.8075549,8.33778638 C14.8075549,7.49969857 14.1284671,6.82061075 13.2903793,6.82061075 C12.4522915,6.82061075 11.7732037,7.49969857 11.7732037,8.33778638 C11.7732037,9.17587419 12.4522915,9.854962 13.2903793,9.854962 Z M13.2903793,7.73091611 C13.6253717,7.73091611 13.8972496,8.00279398 13.8972496,8.33778636 C13.8972496,8.67277874 13.6253717,8.94465661 13.2903793,8.94465661 C12.9553869,8.94465661 12.6835091,8.67277874 12.6835091,8.33778636 C12.6835091,8.00279398 12.9553869,7.73091611 13.2903793,7.73091611 Z M19.6625169,8.03435125 C19.6625169,7.19626343 18.9834291,6.51717562 18.1453413,6.51717562 C17.7821295,6.51717562 17.4529024,6.65008021 17.1916447,6.86339511 C17.2177401,6.75173099 17.2350359,6.63672907 17.2350359,6.51717562 C17.2350359,5.67908781 16.5559481,5 15.7178603,5 C14.8797725,5 14.2006847,5.67908781 14.2006847,6.51717562 C14.2006847,7.35526343 14.8797725,8.03435125 15.7178603,8.03435125 C16.0810722,8.03435125 16.4102993,7.90144666 16.6715569,7.68813176 C16.6454615,7.79979588 16.6281657,7.9147978 16.6281657,8.03435125 C16.6281657,8.87243906 17.3072535,9.55152687 18.1453413,9.55152687 C18.9834291,9.55152687 19.6625169,8.87243906 19.6625169,8.03435125 Z M15.7178603,7.12404587 C15.3828679,7.12404587 15.1109901,6.852168 15.1109901,6.51717562 C15.1109901,6.18218324 15.3828679,5.91030538 15.7178603,5.91030538 C16.0528527,5.91030538 16.3247306,6.18218324 16.3247306,6.51717562 C16.3247306,6.852168 16.0531561,7.12404587 15.7178603,7.12404587 Z M18.1453413,8.64122149 C17.8103489,8.64122149 17.5384711,8.36934362 17.5384711,8.03435125 C17.5384711,7.69935887 17.8103489,7.427481 18.1453413,7.427481 C18.4803337,7.427481 18.7522116,7.69935887 18.7522116,8.03435125 C18.7522116,8.36934362 18.4806371,8.64122149 18.1453413,8.64122149 Z" id="形状" fill="#FFFFFF" fill-rule="nonzero"></path>
            </g>
        </g>
    </g>
</svg>