<?xml version="1.0" encoding="UTF-8"?>
<svg width="32px" height="32px" viewBox="0 0 32 32" version="1.1" xmlns="http://www.w3.org/2000/svg" xmlns:xlink="http://www.w3.org/1999/xlink">
    <!-- Generator: Sketch 53 (72520) - https://sketchapp.com -->
    <title>金融事件@4x</title>
    <desc>Created with Sketch.</desc>
    <defs>
        <rect id="path-1" x="0" y="0" width="28" height="28" rx="14"></rect>
        <filter x="-10.7%" y="-10.7%" width="121.4%" height="121.4%" filterUnits="objectBoundingBox" id="filter-2">
            <feMorphology radius="0.5" operator="dilate" in="SourceAlpha" result="shadowSpreadOuter1"></feMorphology>
            <feOffset dx="0" dy="0" in="shadowSpreadOuter1" result="shadowOffsetOuter1"></feOffset>
            <feGaussianBlur stdDeviation="0.5" in="shadowOffsetOuter1" result="shadowBlurOuter1"></feGaussianBlur>
            <feComposite in="shadowBlurOuter1" in2="SourceAlpha" operator="out" result="shadowBlurOuter1"></feComposite>
            <feColorMatrix values="0 0 0 0 0   0 0 0 0 0   0 0 0 0 0  0 0 0 0.26 0" type="matrix" in="shadowBlurOuter1"></feColorMatrix>
        </filter>
    </defs>
    <g id="其他图标" stroke="none" stroke-width="1" fill="none" fill-rule="evenodd">
        <g id="突发事件" transform="translate(-608.000000, -70.000000)">
            <g id="金融事件" transform="translate(610.000000, 72.000000)">
                <g id="分组-8">
                    <g id="矩形-copy-5" transform="translate(14.000000, 14.000000) scale(-1, 1) translate(-14.000000, -14.000000) ">
                        <use fill="black" fill-opacity="1" filter="url(#filter-2)" xlink:href="#path-1"></use>
                        <rect stroke="#FFFFFF" stroke-width="1" stroke-linejoin="square" fill="#D90C0C" fill-rule="evenodd" x="0.5" y="0.5" width="27" height="27" rx="13.5"></rect>
                    </g>
                    <path d="M15.9719109,10.0369448 L15.9719109,11.1039159 L14.6171302,11.1039159 L14.6171302,12.5994188 L13.4636779,12.5994188 L13.4636779,11.1039159 L12.0179881,11.1039159 L12.0179881,10.0559015 L13.4822195,10.0559015 L11.5779715,6.68852913 L12.8401826,6.68852913 L14.0123149,8.76518611 L15.2826899,6.68852913 L16.4481804,6.68852913 L14.5624741,10.0369448 L15.9719109,10.0369448 Z M18.3706932,9.36654213 C18.3706932,6.95585997 16.4229971,5 14.0220008,5 C11.6208662,5 9.67233984,6.95585997 9.67233984,9.36654213 C9.67233984,11.7787464 11.6208662,13.7332226 14.0220008,13.7332226 C16.4229971,13.7332226 18.3706932,11.7787464 18.3706932,9.36654213 L18.3706932,9.36654213 Z M18.2067248,16.2305244 L19.1953784,16.2305244 L19.1953784,17.1718555 L18.3908953,17.1718555 C18.49066,18.0315484 17.9952954,18.3936627 17.9694202,18.682856 L20.6603016,18.682856 L20.6603016,19.6234952 L16.6331811,19.6234952 L16.6331811,18.682856 C17.0902172,18.374706 17.3282136,17.5958212 17.18251,17.1800194 L16.33956,17.1800194 L16.33956,16.2212536 L17.0161893,16.2212536 C16.8335409,15.7866335 16.8335409,15.6425903 16.8335409,15.2623495 C16.8335409,14.8822471 17.1448734,13.6423135 18.7754255,13.6515843 C20.2757714,13.6594714 20.7113602,14.9012038 20.7113602,15.7873253 L19.5688391,15.7882939 C19.4934274,15.2515567 19.2819981,14.8101564 18.7864951,14.8101564 C18.0262903,14.8101564 18.0240764,15.2898852 18.0240764,15.452885 C18.0240764,15.6160232 18.0514736,16.0135603 18.2067248,16.2305244 L18.2067248,16.2305244 Z M18.6511692,12.5716065 C16.2493427,12.5716065 14.3023385,14.5273281 14.3023385,16.9381486 C14.3023385,19.3502145 16.2493427,21.3046907 18.6511692,21.3046907 C21.0521655,21.3046907 23,19.3502145 23,16.9381486 C23,14.5273281 21.0521655,12.5716065 18.6511692,12.5716065 L18.6511692,12.5716065 Z M8.80960288,16.13837 L8.80960288,15.1560814 C8.03237858,15.2923758 8.04870624,16.12564 8.80960288,16.13837 L8.80960288,16.13837 Z M9.89511554,17.4786218 L9.89511554,18.5922236 C10.9436834,18.4426456 10.8372769,17.5013145 9.89511554,17.4786218 L9.89511554,17.4786218 Z M9.88335409,19.6991836 L9.88335409,20.4787602 L8.80379134,20.4787602 L8.80379134,19.6874222 C8.18472395,19.5970666 7.05271897,18.9983396 6.98394908,17.712052 L8.1189982,17.712052 C8.19067386,18.0412343 8.28684101,18.4389096 8.80379134,18.5862737 L8.80226927,17.2947281 C8.09381486,17.192611 7.0719524,16.8797565 7.0719524,15.737097 C7.0719524,14.4509478 8.48872284,14.0491214 8.80379134,14.0491214 L8.80379134,13.2721738 L9.87076242,13.2721738 L9.87076242,14.0491214 C10.5916701,14.0914626 11.6351183,14.6957244 11.6351183,15.8444721 L10.5111388,15.8444721 C10.4837415,15.5032517 10.2205618,15.1688114 9.88266224,15.1450118 L9.88266224,16.3297357 C10.7395877,16.4185693 11.748305,16.747198 11.748305,17.9059084 C11.7496887,18.9167013 10.7373737,19.6542134 9.88335409,19.6991836 L9.88335409,19.6991836 Z M9.34800055,12.5716065 C6.94686592,12.5716065 5,14.525806 5,16.9381486 C5,19.3502145 6.94686592,21.3046907 9.34800055,21.3046907 C11.7496887,21.3046907 13.696693,19.3502145 13.696693,16.9381486 C13.696693,14.5273281 11.7496887,12.5716065 9.34800055,12.5716065 L9.34800055,12.5716065 Z" id="Fill-1" fill="#FFFFFF"></path>
                </g>
            </g>
        </g>
    </g>
</svg>