<?xml version="1.0" encoding="UTF-8"?>
<svg width="32px" height="32px" viewBox="0 0 32 32" version="1.1" xmlns="http://www.w3.org/2000/svg" xmlns:xlink="http://www.w3.org/1999/xlink">
    <!-- Generator: Sketch 53 (72520) - https://sketchapp.com -->
    <title>集会事件@4x</title>
    <desc>Created with Sketch.</desc>
    <defs>
        <rect id="path-1" x="0" y="0" width="28" height="28" rx="14"></rect>
        <filter x="-10.7%" y="-10.7%" width="121.4%" height="121.4%" filterUnits="objectBoundingBox" id="filter-2">
            <feMorphology radius="0.5" operator="dilate" in="SourceAlpha" result="shadowSpreadOuter1"></feMorphology>
            <feOffset dx="0" dy="0" in="shadowSpreadOuter1" result="shadowOffsetOuter1"></feOffset>
            <feGaussianBlur stdDeviation="0.5" in="shadowOffsetOuter1" result="shadowBlurOuter1"></feGaussianBlur>
            <feComposite in="shadowBlurOuter1" in2="SourceAlpha" operator="out" result="shadowBlurOuter1"></feComposite>
            <feColorMatrix values="0 0 0 0 0   0 0 0 0 0   0 0 0 0 0  0 0 0 0.26 0" type="matrix" in="shadowBlurOuter1"></feColorMatrix>
        </filter>
    </defs>
    <g id="其他图标" stroke="none" stroke-width="1" fill="none" fill-rule="evenodd">
        <g id="突发事件" transform="translate(-608.000000, -258.000000)">
            <g id="集会事件" transform="translate(610.000000, 260.000000)">
                <g id="分组-8">
                    <g id="矩形-copy-5" transform="translate(14.000000, 14.000000) scale(-1, 1) translate(-14.000000, -14.000000) ">
                        <use fill="black" fill-opacity="1" filter="url(#filter-2)" xlink:href="#path-1"></use>
                        <rect stroke="#FFFFFF" stroke-width="1" stroke-linejoin="square" fill="#D90C0C" fill-rule="evenodd" x="0.5" y="0.5" width="27" height="27" rx="13.5"></rect>
                    </g>
                    <path d="M21.4239737,7.5759413 L18.0678811,7.03821855 L18.4293849,4.82103295 L21.7854775,5.35818908 L21.4239737,7.5759413 Z M17.9602232,4.17678556 L17.4179675,7.50341389 L18.5540414,7.68529903 L17.3681049,12.767884 L12.7994447,12.767884 L12.7994447,16.6990962 L13.3660651,16.6990962 L13.3660651,13.3294048 L13.9326855,13.3294048 L13.9326855,18.3842253 L14.4993059,18.3842253 L14.4993059,24 L15.6325467,24 L15.6325467,18.3842253 L16.1991671,18.3842253 L16.1991671,24 L17.3324079,24 L17.3324079,18.3842253 L17.8990282,18.3842253 L17.8990282,13.3294048 L18.4656486,13.3294048 L18.4656486,13.0489277 L19.6753832,7.8649177 L21.8931354,8.22018868 L22.4353911,4.89356036 L17.9602232,4.17678556 Z M14.4993059,10.5218007 C14.4993059,11.14225 15.0069978,11.6448423 15.6325467,11.6448423 C16.2586622,11.6448423 16.7657875,11.14225 16.7657875,10.5218007 C16.7657875,9.90135139 16.2586622,9.39819248 15.6325467,9.39819248 C15.0069978,9.39819248 14.4993059,9.90135139 14.4993059,10.5218007 L14.4993059,10.5218007 Z M11.2684364,6.8869309 L11.6299402,4.64934697 L14.9860328,5.19160269 L14.624529,7.42918662 L11.2684364,6.8869309 Z M15.0936907,8.07910021 L15.6359464,4.72300762 L11.1607785,4 L10.6185228,7.35609259 L11.7545967,7.53967759 L10.5686602,12.6675921 L6,12.6675921 L6,16.6339349 L6.56662039,16.6339349 L6.56662039,13.2342125 L7.13324079,13.2342125 L7.13324079,18.3337961 L7.69986118,18.3337961 L7.69986118,24 L8.83310196,24 L8.83310196,18.3337961 L9.39972236,18.3337961 L9.39972236,24 L10.5329631,24 L10.5329631,18.3337961 L11.0995835,18.3337961 L11.0995835,13.2342125 L11.6662039,13.2342125 L11.6662039,12.9509023 L12.8759385,7.72099612 L15.0936907,8.07910021 Z M8.83310196,11.5343514 C9.4592175,11.5343514 9.96634275,11.0272261 9.96634275,10.4011106 C9.96634275,9.77556166 9.4592175,9.26786979 8.83310196,9.26786979 C8.20755305,9.26786979 7.69986118,9.77556166 7.69986118,10.4011106 C7.69986118,11.0272261 8.20755305,11.5343514 8.83310196,11.5343514 L8.83310196,11.5343514 Z" id="Fill-1" fill="#FFFFFF"></path>
                </g>
            </g>
        </g>
    </g>
</svg>